%TF.GenerationSoftware,KiCad,Pcbnew,8.0.2*%
%TF.CreationDate,2024-10-23T20:02:11+03:00*%
%TF.ProjectId,PowerServo AE 36V 3.6A 30D,506f7765-7253-4657-9276-6f2041452033,rev?*%
%TF.SameCoordinates,Original*%
%TF.FileFunction,Profile,NP*%
%FSLAX46Y46*%
G04 Gerber Fmt 4.6, Leading zero omitted, Abs format (unit mm)*
G04 Created by KiCad (PCBNEW 8.0.2) date 2024-10-23 20:02:11*
%MOMM*%
%LPD*%
G01*
G04 APERTURE LIST*
%TA.AperFunction,Profile*%
%ADD10C,0.050000*%
%TD*%
G04 APERTURE END LIST*
D10*
X107079445Y-79002907D02*
G75*
G02*
X82637075Y-62478826I-13579445J6252907D01*
G01*
X84200000Y-61600000D02*
G75*
G02*
X83700000Y-61600000I-250000J0D01*
G01*
X83700000Y-61600000D02*
G75*
G02*
X84200000Y-61600000I250000J0D01*
G01*
X82637074Y-62478825D02*
X79100000Y-56400000D01*
X86250000Y-60400000D02*
G75*
G02*
X85950000Y-60400000I-150000J0D01*
G01*
X85950000Y-60400000D02*
G75*
G02*
X86250000Y-60400000I150000J0D01*
G01*
X79094221Y-56393393D02*
G75*
G02*
X86450000Y-52150001I14395779J-16457407D01*
G01*
X89988879Y-58203928D02*
G75*
G02*
X107489999Y-67440000I3511121J-14546072D01*
G01*
X87947855Y-59500000D02*
G75*
G02*
X87434113Y-59500000I-256871J0D01*
G01*
X87434113Y-59500000D02*
G75*
G02*
X87947855Y-59500000I256871J0D01*
G01*
X107489999Y-67440000D02*
X114290000Y-67440000D01*
X109200000Y-79040000D02*
X114280000Y-79040000D01*
X88800000Y-59000000D02*
G75*
G02*
X88200000Y-59000000I-300000J0D01*
G01*
X88200000Y-59000000D02*
G75*
G02*
X88800000Y-59000000I300000J0D01*
G01*
X114290000Y-67440000D02*
X114280000Y-79040000D01*
X109200000Y-79040000D02*
X107079445Y-79002907D01*
X89988879Y-58203928D02*
X86450000Y-52150000D01*
X89600000Y-58500000D02*
G75*
G02*
X89092894Y-58500000I-253553J0D01*
G01*
X89092894Y-58500000D02*
G75*
G02*
X89600000Y-58500000I253553J0D01*
G01*
X84658114Y-61250000D02*
G75*
G02*
X84341886Y-61250000I-158114J0D01*
G01*
X84341886Y-61250000D02*
G75*
G02*
X84658114Y-61250000I158114J0D01*
G01*
X83500000Y-62000000D02*
G75*
G02*
X83000000Y-62000000I-250000J0D01*
G01*
X83000000Y-62000000D02*
G75*
G02*
X83500000Y-62000000I250000J0D01*
G01*
M02*
