%TF.GenerationSoftware,KiCad,Pcbnew,8.0.2*%
%TF.CreationDate,2024-10-23T20:02:11+03:00*%
%TF.ProjectId,PowerServo AE 36V 3.6A 30D,506f7765-7253-4657-9276-6f2041452033,rev?*%
%TF.SameCoordinates,Original*%
%TF.FileFunction,Copper,L4,Bot*%
%TF.FilePolarity,Positive*%
%FSLAX46Y46*%
G04 Gerber Fmt 4.6, Leading zero omitted, Abs format (unit mm)*
G04 Created by KiCad (PCBNEW 8.0.2) date 2024-10-23 20:02:11*
%MOMM*%
%LPD*%
G01*
G04 APERTURE LIST*
G04 Aperture macros list*
%AMRoundRect*
0 Rectangle with rounded corners*
0 $1 Rounding radius*
0 $2 $3 $4 $5 $6 $7 $8 $9 X,Y pos of 4 corners*
0 Add a 4 corners polygon primitive as box body*
4,1,4,$2,$3,$4,$5,$6,$7,$8,$9,$2,$3,0*
0 Add four circle primitives for the rounded corners*
1,1,$1+$1,$2,$3*
1,1,$1+$1,$4,$5*
1,1,$1+$1,$6,$7*
1,1,$1+$1,$8,$9*
0 Add four rect primitives between the rounded corners*
20,1,$1+$1,$2,$3,$4,$5,0*
20,1,$1+$1,$4,$5,$6,$7,0*
20,1,$1+$1,$6,$7,$8,$9,0*
20,1,$1+$1,$8,$9,$2,$3,0*%
%AMHorizOval*
0 Thick line with rounded ends*
0 $1 width*
0 $2 $3 position (X,Y) of the first rounded end (center of the circle)*
0 $4 $5 position (X,Y) of the second rounded end (center of the circle)*
0 Add line between two ends*
20,1,$1,$2,$3,$4,$5,0*
0 Add two circle primitives to create the rounded ends*
1,1,$1,$2,$3*
1,1,$1,$4,$5*%
G04 Aperture macros list end*
%TA.AperFunction,ComponentPad*%
%ADD10RoundRect,0.250000X-1.125000X-1.125000X1.125000X-1.125000X1.125000X1.125000X-1.125000X1.125000X0*%
%TD*%
%TA.AperFunction,ComponentPad*%
%ADD11R,3.000000X3.000000*%
%TD*%
%TA.AperFunction,ComponentPad*%
%ADD12C,3.000000*%
%TD*%
%TA.AperFunction,ComponentPad*%
%ADD13RoundRect,0.250000X0.144615X0.949519X-0.894615X0.349519X-0.144615X-0.949519X0.894615X-0.349519X0*%
%TD*%
%TA.AperFunction,ComponentPad*%
%ADD14HorizOval,1.700000X-0.075000X0.129904X0.075000X-0.129904X0*%
%TD*%
%TA.AperFunction,ComponentPad*%
%ADD15R,1.000000X1.000000*%
%TD*%
%TA.AperFunction,ComponentPad*%
%ADD16O,1.000000X1.000000*%
%TD*%
%TA.AperFunction,SMDPad,CuDef*%
%ADD17RoundRect,0.140000X-0.140000X-0.170000X0.140000X-0.170000X0.140000X0.170000X-0.140000X0.170000X0*%
%TD*%
%TA.AperFunction,SMDPad,CuDef*%
%ADD18RoundRect,0.250000X0.650000X-0.325000X0.650000X0.325000X-0.650000X0.325000X-0.650000X-0.325000X0*%
%TD*%
%TA.AperFunction,SMDPad,CuDef*%
%ADD19RoundRect,0.250000X-0.650000X0.325000X-0.650000X-0.325000X0.650000X-0.325000X0.650000X0.325000X0*%
%TD*%
%TA.AperFunction,SMDPad,CuDef*%
%ADD20RoundRect,0.140000X0.170000X-0.140000X0.170000X0.140000X-0.170000X0.140000X-0.170000X-0.140000X0*%
%TD*%
%TA.AperFunction,SMDPad,CuDef*%
%ADD21RoundRect,0.225000X-0.250000X0.225000X-0.250000X-0.225000X0.250000X-0.225000X0.250000X0.225000X0*%
%TD*%
%TA.AperFunction,SMDPad,CuDef*%
%ADD22RoundRect,0.093750X-0.093750X-0.106250X0.093750X-0.106250X0.093750X0.106250X-0.093750X0.106250X0*%
%TD*%
%TA.AperFunction,HeatsinkPad*%
%ADD23C,0.500000*%
%TD*%
%TA.AperFunction,HeatsinkPad*%
%ADD24R,1.000000X1.600000*%
%TD*%
%TA.AperFunction,SMDPad,CuDef*%
%ADD25R,0.650000X1.525000*%
%TD*%
%TA.AperFunction,SMDPad,CuDef*%
%ADD26R,3.400000X2.710000*%
%TD*%
%TA.AperFunction,SMDPad,CuDef*%
%ADD27RoundRect,0.140000X0.077224X-0.206244X0.217224X0.036244X-0.077224X0.206244X-0.217224X-0.036244X0*%
%TD*%
%TA.AperFunction,SMDPad,CuDef*%
%ADD28RoundRect,0.140000X-0.170000X0.140000X-0.170000X-0.140000X0.170000X-0.140000X0.170000X0.140000X0*%
%TD*%
%TA.AperFunction,SMDPad,CuDef*%
%ADD29R,1.500000X1.000000*%
%TD*%
%TA.AperFunction,SMDPad,CuDef*%
%ADD30RoundRect,0.150000X0.789471X-0.282596X-0.639471X0.542404X-0.789471X0.282596X0.639471X-0.542404X0*%
%TD*%
%TA.AperFunction,SMDPad,CuDef*%
%ADD31RoundRect,0.062500X0.325000X0.062500X-0.325000X0.062500X-0.325000X-0.062500X0.325000X-0.062500X0*%
%TD*%
%TA.AperFunction,SMDPad,CuDef*%
%ADD32RoundRect,0.062500X0.062500X0.325000X-0.062500X0.325000X-0.062500X-0.325000X0.062500X-0.325000X0*%
%TD*%
%TA.AperFunction,HeatsinkPad*%
%ADD33R,1.750000X1.750000*%
%TD*%
%TA.AperFunction,SMDPad,CuDef*%
%ADD34RoundRect,0.112500X0.287500X0.112500X-0.287500X0.112500X-0.287500X-0.112500X0.287500X-0.112500X0*%
%TD*%
%TA.AperFunction,HeatsinkPad*%
%ADD35R,0.700000X2.900000*%
%TD*%
%TA.AperFunction,ViaPad*%
%ADD36C,0.600000*%
%TD*%
%TA.AperFunction,ViaPad*%
%ADD37C,0.900000*%
%TD*%
%TA.AperFunction,Conductor*%
%ADD38C,0.254000*%
%TD*%
%TA.AperFunction,Conductor*%
%ADD39C,0.508000*%
%TD*%
%TA.AperFunction,Conductor*%
%ADD40C,0.500000*%
%TD*%
%TA.AperFunction,Conductor*%
%ADD41C,0.762000*%
%TD*%
%TA.AperFunction,Conductor*%
%ADD42C,0.400000*%
%TD*%
%TA.AperFunction,Conductor*%
%ADD43C,0.200000*%
%TD*%
%TA.AperFunction,Conductor*%
%ADD44C,0.325000*%
%TD*%
%TA.AperFunction,Conductor*%
%ADD45C,1.250000*%
%TD*%
G04 APERTURE END LIST*
D10*
%TO.P,J2,1,Pin_1*%
%TO.N,Net-(IC1-OUT1)*%
X89250000Y-81150000D03*
%TD*%
D11*
%TO.P,J5,1,Pin_1*%
%TO.N,GND*%
X110999999Y-75750000D03*
D12*
%TO.P,J5,2,Pin_2*%
%TO.N,+12V*%
X110999999Y-70750000D03*
%TD*%
D13*
%TO.P,J6,1,Pin_1*%
%TO.N,CAN_H*%
X85832923Y-57063277D03*
D14*
%TO.P,J6,2,Pin_2*%
%TO.N,CAN_L*%
X83667860Y-58313278D03*
%TD*%
D10*
%TO.P,J7,1,Pin_1*%
%TO.N,Net-(IC1-OUT2)*%
X84950000Y-80450000D03*
%TD*%
D13*
%TO.P,J1,1,Pin_1*%
%TO.N,CAN_H*%
X89354915Y-63188669D03*
D14*
%TO.P,J1,2,Pin_2*%
%TO.N,CAN_L*%
X87189852Y-64438670D03*
%TD*%
D11*
%TO.P,J4,1,Pin_1*%
%TO.N,GND*%
X104000000Y-75750000D03*
D12*
%TO.P,J4,2,Pin_2*%
%TO.N,+12V*%
X104000000Y-70750000D03*
%TD*%
D15*
%TO.P,J3,1,Pin_1*%
%TO.N,+3V3*%
X104750000Y-64729999D03*
D16*
%TO.P,J3,2,Pin_2*%
%TO.N,SWDIO*%
X104750000Y-66000000D03*
%TO.P,J3,3,Pin_3*%
%TO.N,GND*%
X103479999Y-64729999D03*
%TO.P,J3,4,Pin_4*%
%TO.N,SWCLK*%
X103480002Y-65999998D03*
%TO.P,J3,5,Pin_5*%
%TO.N,GND*%
X102209996Y-64729996D03*
%TO.P,J3,6,Pin_6*%
%TO.N,NRST*%
X102210000Y-66000000D03*
%TD*%
D17*
%TO.P,C10,1*%
%TO.N,GND*%
X89520000Y-68000000D03*
%TO.P,C10,2*%
%TO.N,NRST*%
X90480000Y-68000000D03*
%TD*%
D18*
%TO.P,C7,1*%
%TO.N,GND*%
X92000000Y-83724999D03*
%TO.P,C7,2*%
%TO.N,+12V*%
X92000000Y-80775001D03*
%TD*%
D19*
%TO.P,C2,1*%
%TO.N,GND*%
X106250000Y-69300000D03*
%TO.P,C2,2*%
%TO.N,+12V*%
X106250000Y-72250000D03*
%TD*%
D20*
%TO.P,C6,1*%
%TO.N,+3V3*%
X93750000Y-84780002D03*
%TO.P,C6,2*%
%TO.N,GND*%
X93750000Y-83820002D03*
%TD*%
D21*
%TO.P,C11,1*%
%TO.N,GND*%
X87900000Y-66474999D03*
%TO.P,C11,2*%
%TO.N,+3V3*%
X87900000Y-68025001D03*
%TD*%
D22*
%TO.P,U2,1,OUT*%
%TO.N,+3V3*%
X94725000Y-85400001D03*
%TO.P,U2,2,SNS*%
X94725000Y-84750002D03*
%TO.P,U2,3,GND*%
%TO.N,GND*%
X94725000Y-84100001D03*
%TO.P,U2,4,EN*%
%TO.N,+5V*%
X96500000Y-84100001D03*
%TO.P,U2,5,GND*%
%TO.N,GND*%
X96500000Y-84750000D03*
%TO.P,U2,6,IN*%
%TO.N,+5V*%
X96500000Y-85400001D03*
D23*
%TO.P,U2,7,PAD*%
%TO.N,GND*%
X95612500Y-84200002D03*
D24*
X95612500Y-84750001D03*
D23*
X95612500Y-85300000D03*
%TD*%
D25*
%TO.P,IC1,1,GND*%
%TO.N,GND*%
X84064998Y-70050998D03*
%TO.P,IC1,2,IN2*%
%TO.N,DRV_IN2*%
X85334999Y-70050999D03*
%TO.P,IC1,3,IN1*%
%TO.N,DRV_IN1*%
X86604999Y-70050999D03*
%TO.P,IC1,4,VREF*%
%TO.N,+3V3*%
X87874998Y-70050998D03*
%TO.P,IC1,5,VM*%
%TO.N,+12V*%
X87875000Y-75475000D03*
%TO.P,IC1,6,OUT1*%
%TO.N,Net-(IC1-OUT1)*%
X86604999Y-75474999D03*
%TO.P,IC1,7,ISEN*%
%TO.N,ISEN*%
X85334999Y-75474999D03*
%TO.P,IC1,8,OUT2*%
%TO.N,Net-(IC1-OUT2)*%
X84065000Y-75475000D03*
D26*
%TO.P,IC1,9,THERMAL_PAD*%
%TO.N,GND*%
X85969999Y-72762999D03*
%TD*%
D27*
%TO.P,C9,1*%
%TO.N,GND*%
X91510000Y-66415692D03*
%TO.P,C9,2*%
%TO.N,+3V3*%
X91990000Y-65584308D03*
%TD*%
D28*
%TO.P,C1,1*%
%TO.N,GND*%
X100250000Y-80020000D03*
%TO.P,C1,2*%
%TO.N,+5V*%
X100250000Y-80980000D03*
%TD*%
D29*
%TO.P,JP1,1,A*%
%TO.N,Net-(JP1-A)*%
X92500000Y-62650000D03*
%TO.P,JP1,2,B*%
%TO.N,CAN_H*%
X92500000Y-61350000D03*
%TD*%
D30*
%TO.P,U5,1,TXD*%
%TO.N,RP_RX*%
X99975003Y-65420443D03*
%TO.P,U5,2,GND*%
%TO.N,GND*%
X99340003Y-66520295D03*
%TO.P,U5,3,VCC*%
%TO.N,+5V*%
X98705003Y-67620147D03*
%TO.P,U5,4,RXD*%
%TO.N,RP_TX*%
X98070000Y-68720000D03*
%TO.P,U5,5,VIO*%
%TO.N,+3V3*%
X93783177Y-66244999D03*
%TO.P,U5,6,CANL*%
%TO.N,CAN_L*%
X94418177Y-65145147D03*
%TO.P,U5,7,CANH*%
%TO.N,CAN_H*%
X95053177Y-64045295D03*
%TO.P,U5,8,S*%
%TO.N,CAN_SILENT*%
X95688180Y-62945442D03*
%TD*%
D31*
%TO.P,U4,1,SSD*%
%TO.N,unconnected-(U4-SSD-Pad1)*%
X94962500Y-72000000D03*
%TO.P,U4,2,A*%
%TO.N,unconnected-(U4-A-Pad2)*%
X94962500Y-72500000D03*
%TO.P,U4,3,Z*%
%TO.N,unconnected-(U4-Z-Pad3)*%
X94962500Y-73000000D03*
%TO.P,U4,4,MOSI*%
%TO.N,MOSI*%
X94962500Y-73500000D03*
D32*
%TO.P,U4,5,~{CS}*%
%TO.N,MAG_CS*%
X94250000Y-74212500D03*
%TO.P,U4,6,B*%
%TO.N,unconnected-(U4-B-Pad6)*%
X93750000Y-74212500D03*
%TO.P,U4,7,MISO*%
%TO.N,MISO*%
X93250000Y-74212500D03*
%TO.P,U4,8,GND*%
%TO.N,GND*%
X92750000Y-74212500D03*
D31*
%TO.P,U4,9,PWM*%
%TO.N,unconnected-(U4-PWM-Pad9)*%
X92037500Y-73500000D03*
%TO.P,U4,10,TEST*%
%TO.N,unconnected-(U4-TEST-Pad10)*%
X92037500Y-73000000D03*
%TO.P,U4,11,MGL*%
%TO.N,unconnected-(U4-MGL-Pad11)*%
X92037500Y-72500000D03*
%TO.P,U4,12,SCLK*%
%TO.N,SCK*%
X92037500Y-72000000D03*
D32*
%TO.P,U4,13,VDD*%
%TO.N,+3V3*%
X92750000Y-71287500D03*
%TO.P,U4,14,NC*%
%TO.N,unconnected-(U4-NC-Pad14)*%
X93250000Y-71287500D03*
%TO.P,U4,15,SSCK*%
%TO.N,unconnected-(U4-SSCK-Pad15)*%
X93750000Y-71287500D03*
%TO.P,U4,16,MGH*%
%TO.N,unconnected-(U4-MGH-Pad16)*%
X94250000Y-71287500D03*
D33*
%TO.P,U4,17,PAD*%
%TO.N,GND*%
X93500000Y-72750000D03*
%TD*%
D21*
%TO.P,C8,1*%
%TO.N,GND*%
X96750000Y-76724999D03*
%TO.P,C8,2*%
%TO.N,+12V*%
X96750000Y-78275001D03*
%TD*%
D28*
%TO.P,R2,1*%
%TO.N,Net-(JP1-A)*%
X92500000Y-63270000D03*
%TO.P,R2,2*%
%TO.N,CAN_L*%
X92500000Y-64230000D03*
%TD*%
D34*
%TO.P,U1,1,GND*%
%TO.N,GND*%
X104525000Y-79050000D03*
%TO.P,U1,2,MODE/SYNC*%
X104525001Y-79650000D03*
%TO.P,U1,3,VIN*%
%TO.N,+12V*%
X104525000Y-80250000D03*
%TO.P,U1,4,EN*%
%TO.N,GND*%
X104525000Y-80850002D03*
%TO.P,U1,5,PG*%
%TO.N,unconnected-(U1-PG-Pad5)*%
X104525000Y-81450000D03*
%TO.P,U1,6,VOUT*%
%TO.N,+5V*%
X101475000Y-81450000D03*
%TO.P,U1,7,FB*%
X101474999Y-80850000D03*
%TO.P,U1,8*%
%TO.N,unconnected-(U1-Pad8)*%
X101475000Y-80250000D03*
%TO.P,U1,9*%
%TO.N,unconnected-(U1-Pad9)*%
X101475000Y-79649998D03*
%TO.P,U1,10*%
%TO.N,unconnected-(U1-Pad10)*%
X101475000Y-79050000D03*
D23*
%TO.P,U1,11,GND*%
%TO.N,GND*%
X103175003Y-80250000D03*
D35*
X103175003Y-80250000D03*
D23*
X103175001Y-81280000D03*
X103175001Y-79219999D03*
%TD*%
D28*
%TO.P,C5,1*%
%TO.N,+5V*%
X97407499Y-83820003D03*
%TO.P,C5,2*%
%TO.N,GND*%
X97407499Y-84780003D03*
%TD*%
D36*
%TO.N,GND*%
X113150000Y-77250000D03*
X113150000Y-76450000D03*
X113150000Y-75650000D03*
X113150000Y-74850000D03*
X103550000Y-78050000D03*
X102750000Y-82850000D03*
X102750000Y-78050000D03*
X102750000Y-62850000D03*
X101950000Y-83650000D03*
X101950000Y-82850000D03*
X101950000Y-78050000D03*
X101950000Y-62850000D03*
X101950000Y-62050000D03*
X101150000Y-62850000D03*
X101150000Y-62050000D03*
X101150000Y-61250000D03*
X98750000Y-85250000D03*
X97950000Y-59650000D03*
X97150000Y-62050000D03*
X97150000Y-61250000D03*
X97150000Y-60450000D03*
X97150000Y-59650000D03*
X96350000Y-61250000D03*
X96350000Y-60450000D03*
X96350000Y-59650000D03*
X95550000Y-61250000D03*
X95550000Y-60450000D03*
X95550000Y-59650000D03*
X94750000Y-61250000D03*
X94750000Y-60450000D03*
X94750000Y-59650000D03*
X93950000Y-60450000D03*
X93950000Y-59650000D03*
X93150000Y-86050000D03*
X93150000Y-59650000D03*
X92350000Y-86050000D03*
X92350000Y-59650000D03*
X91550000Y-86050000D03*
X91550000Y-59650000D03*
X90750000Y-86050000D03*
X90750000Y-60450000D03*
X90750000Y-59650000D03*
X89950000Y-86050000D03*
X89950000Y-60450000D03*
X89150000Y-60450000D03*
X87550000Y-85250000D03*
X87550000Y-56450000D03*
X86750000Y-66050000D03*
X86750000Y-54850000D03*
X85950000Y-66050000D03*
X85950000Y-54850000D03*
X85950000Y-54050000D03*
X85150000Y-66850000D03*
X85150000Y-66050000D03*
X85150000Y-65250000D03*
X85150000Y-64450000D03*
X85150000Y-63650000D03*
X85150000Y-62850000D03*
X85150000Y-54850000D03*
X85150000Y-54050000D03*
X84350000Y-66850000D03*
X84350000Y-66050000D03*
X84350000Y-65250000D03*
X84350000Y-64450000D03*
X84350000Y-63650000D03*
X84350000Y-55650000D03*
X84350000Y-54850000D03*
X83550000Y-66850000D03*
X83550000Y-66050000D03*
X83550000Y-65250000D03*
X83550000Y-64450000D03*
X83550000Y-63650000D03*
X83550000Y-56450000D03*
X83550000Y-55650000D03*
X83550000Y-54850000D03*
X82750000Y-67650000D03*
X82750000Y-66850000D03*
X82750000Y-66050000D03*
X82750000Y-65250000D03*
X82750000Y-64450000D03*
X82750000Y-60450000D03*
X82750000Y-56450000D03*
X82750000Y-55650000D03*
X81950000Y-68450000D03*
X81950000Y-67650000D03*
X81950000Y-66850000D03*
X81950000Y-66050000D03*
X81950000Y-65250000D03*
X81950000Y-58850000D03*
X81950000Y-58050000D03*
X81950000Y-57250000D03*
X81950000Y-56450000D03*
X81950000Y-55650000D03*
X81150000Y-69250000D03*
X81150000Y-68450000D03*
X81150000Y-67650000D03*
X81150000Y-66850000D03*
X81150000Y-57250000D03*
X81150000Y-56450000D03*
X80350000Y-69250000D03*
X80350000Y-68450000D03*
X86750000Y-72750000D03*
X81000000Y-75000000D03*
X93500000Y-72750000D03*
X93750000Y-83000000D03*
X85250000Y-73250000D03*
X81500000Y-71000000D03*
X80500000Y-74500000D03*
X95600000Y-70200000D03*
X84750000Y-71750000D03*
X86001524Y-84747615D03*
X88875000Y-68625000D03*
X90500000Y-84000000D03*
X106400000Y-67000000D03*
X80000000Y-75000000D03*
D37*
X108000000Y-77000000D03*
D36*
X92500000Y-82750000D03*
X93000000Y-72250000D03*
X98513712Y-65873000D03*
X93000000Y-73250000D03*
X93600000Y-70200000D03*
X88025000Y-77350000D03*
X80800000Y-78750000D03*
D37*
X108000000Y-75750000D03*
D36*
X105250000Y-78250000D03*
X86750000Y-73750000D03*
X84750000Y-72750000D03*
X85750000Y-73750000D03*
X81500000Y-74500000D03*
X84750000Y-83800000D03*
X95750000Y-78250000D03*
X80000000Y-71000000D03*
X85750000Y-72750000D03*
X97916644Y-64566644D03*
X86250000Y-72250000D03*
X85250000Y-72250000D03*
X80500000Y-75500000D03*
X91600000Y-70000000D03*
X86250000Y-73250000D03*
X97210000Y-69170000D03*
X94000000Y-72250000D03*
X94600000Y-70200000D03*
X87250000Y-72250000D03*
X101681644Y-68181644D03*
D37*
X108000000Y-74600003D03*
D36*
X87250000Y-73250000D03*
D37*
X108000000Y-78000000D03*
D36*
X94000000Y-73250000D03*
X100127000Y-79250000D03*
X89750000Y-66500000D03*
X90750000Y-65750000D03*
X84750000Y-73750000D03*
%TO.N,+3V3*%
X86841562Y-67961430D03*
X91400000Y-71000000D03*
X92717111Y-65008888D03*
D37*
%TO.N,+12V*%
X108000000Y-72250000D03*
X108000000Y-73500000D03*
X108000000Y-68500000D03*
X108000000Y-71000000D03*
X108000000Y-69750000D03*
D36*
%TO.N,RP_RX*%
X95580000Y-75650000D03*
%TO.N,RP_TX*%
X99439193Y-69969597D03*
%TO.N,ISEN*%
X88500000Y-78000000D03*
X85350000Y-77254000D03*
%TO.N,Net-(IC1-OUT2)*%
X83000000Y-78200000D03*
X85000000Y-78200000D03*
X84000000Y-78200000D03*
X83000000Y-77200000D03*
%TO.N,Net-(IC1-OUT1)*%
X86450000Y-78300000D03*
X88600000Y-78800000D03*
X87800000Y-78600000D03*
X87000000Y-78800000D03*
X87225000Y-78300000D03*
X87000000Y-79800000D03*
%TO.N,MOSI*%
X91518759Y-75675000D03*
%TO.N,+5V*%
X99250000Y-80950000D03*
X100500000Y-69750000D03*
%TO.N,CAN_SILENT*%
X95000000Y-67250000D03*
%TO.N,NRST*%
X90600000Y-66798307D03*
X90800000Y-74600000D03*
%TO.N,DRV_IN2*%
X85325000Y-68925000D03*
%TO.N,MISO*%
X93250000Y-75000000D03*
%TO.N,MAG_CS*%
X94368144Y-74995144D03*
%TO.N,SCK*%
X91278070Y-73921235D03*
%TO.N,DRV_IN1*%
X86250000Y-68500000D03*
%TD*%
D38*
%TO.N,GND*%
X95500000Y-78000000D02*
X95500000Y-76999998D01*
D39*
X106250000Y-69300000D02*
X106250000Y-67150000D01*
X100250000Y-80020000D02*
X100127000Y-79897000D01*
X100475000Y-80020000D02*
X100250000Y-80020000D01*
D40*
X103425001Y-81280000D02*
X103854999Y-80850002D01*
X104525001Y-79650000D02*
X103605002Y-79650000D01*
D38*
X105250000Y-77100000D02*
X105250000Y-76750000D01*
D41*
X96750000Y-76474999D02*
X96024999Y-76474999D01*
D38*
X92752000Y-73498000D02*
X93000000Y-73250000D01*
D39*
X100525000Y-79970000D02*
X100475000Y-80020000D01*
D40*
X104525000Y-79050000D02*
X103345000Y-79050000D01*
D38*
X92752000Y-74210500D02*
X92752000Y-73498000D01*
D40*
X103605002Y-79650000D02*
X103175001Y-79219999D01*
D38*
X105250001Y-77100001D02*
X105250000Y-77100000D01*
D42*
X103854999Y-80850002D02*
X104775000Y-80850002D01*
D39*
X106250000Y-67150000D02*
X106400000Y-67000000D01*
D38*
X95750000Y-78250000D02*
X95500000Y-78000000D01*
D39*
X98513712Y-65873000D02*
X99250913Y-66610201D01*
D38*
X92750000Y-74212500D02*
X92752000Y-74210500D01*
X105250000Y-76750000D02*
X105000000Y-76500000D01*
D39*
X100127000Y-79897000D02*
X100127000Y-79250000D01*
D43*
X104775000Y-78725000D02*
X104775000Y-79050000D01*
X103345000Y-79050000D02*
X103175001Y-79219999D01*
X105250000Y-78250000D02*
X104775000Y-78725000D01*
D41*
X96024999Y-76474999D02*
X95500000Y-76999998D01*
D39*
X99250913Y-66610201D02*
X99250913Y-66617574D01*
%TO.N,+3V3*%
X92671000Y-70879000D02*
X92671000Y-70800000D01*
D40*
X92240000Y-65584308D02*
X92750000Y-66094308D01*
D39*
X89530002Y-84780002D02*
X93657501Y-84780002D01*
X81800000Y-76200000D02*
X81800000Y-80552534D01*
X92550000Y-71000000D02*
X92550000Y-71087500D01*
D40*
X92750000Y-66094308D02*
X92750000Y-67353791D01*
D39*
X84566000Y-67746000D02*
X82750000Y-69562000D01*
X87836429Y-67961430D02*
X87900000Y-68025001D01*
X86841562Y-67961430D02*
X86626132Y-67746000D01*
X91400000Y-71000000D02*
X92550000Y-71000000D01*
D38*
X92717111Y-65008888D02*
X92717111Y-65107197D01*
D39*
X82750000Y-69562000D02*
X82750000Y-75250000D01*
X86841562Y-67961430D02*
X87836429Y-67961430D01*
X92550000Y-71000000D02*
X92671000Y-70879000D01*
D44*
X92750000Y-67353791D02*
X92750000Y-71287500D01*
D38*
X92717111Y-65107197D02*
X92240000Y-65584308D01*
D39*
X84247466Y-83000000D02*
X87750000Y-83000000D01*
X87900000Y-68025001D02*
X87900000Y-70025996D01*
X92550000Y-71087500D02*
X92671000Y-71208500D01*
X92671000Y-71208500D02*
X92671000Y-71287500D01*
X87899996Y-70480005D02*
X87854999Y-70525002D01*
X86626132Y-67746000D02*
X84566000Y-67746000D01*
X82750000Y-75250000D02*
X81800000Y-76200000D01*
X87750000Y-83000000D02*
X89530002Y-84780002D01*
X81800000Y-80552534D02*
X84247466Y-83000000D01*
X87900000Y-70025996D02*
X87874998Y-70050998D01*
D41*
%TO.N,+12V*%
X106250000Y-72500000D02*
X106250000Y-76250000D01*
X103848427Y-71562486D02*
X105312486Y-71562486D01*
X106250000Y-76250000D02*
X106500000Y-76500000D01*
X105312486Y-71562486D02*
X106250000Y-72500000D01*
D38*
%TO.N,RP_RX*%
X95580000Y-75650000D02*
X95580000Y-75635657D01*
X96250000Y-74965657D02*
X96250000Y-67120000D01*
X96250000Y-67120000D02*
X98440000Y-64930000D01*
X95580000Y-75635657D02*
X96250000Y-74965657D01*
X98440000Y-64930000D02*
X99298191Y-64930000D01*
X99298191Y-64930000D02*
X99885913Y-65517722D01*
%TO.N,RP_TX*%
X99439193Y-69969597D02*
X98286875Y-68817279D01*
X98286875Y-68817279D02*
X97980910Y-68817279D01*
D43*
%TO.N,ISEN*%
X88500000Y-78000000D02*
X88625000Y-77875000D01*
X85334999Y-75474999D02*
X85334999Y-77238999D01*
X85854000Y-76750000D02*
X85350000Y-77254000D01*
X88273529Y-76750000D02*
X85854000Y-76750000D01*
X88625000Y-77875000D02*
X88625000Y-77101471D01*
X88625000Y-77101471D02*
X88273529Y-76750000D01*
X85334999Y-77238999D02*
X85350000Y-77254000D01*
D45*
%TO.N,Net-(IC1-OUT1)*%
X89200000Y-80500000D02*
X89200000Y-81150000D01*
D38*
%TO.N,MOSI*%
X94575000Y-75675000D02*
X95000000Y-75250000D01*
X91518759Y-75675000D02*
X94575000Y-75675000D01*
X95000000Y-75250000D02*
X95000000Y-73537500D01*
X95000000Y-73537500D02*
X94962500Y-73500000D01*
%TO.N,+5V*%
X100500000Y-69750000D02*
X100500000Y-69290000D01*
X97127502Y-84100000D02*
X96499999Y-84100001D01*
D43*
X98017499Y-84430003D02*
X97407499Y-83820003D01*
D42*
X98433190Y-80950000D02*
X97407499Y-81975691D01*
D38*
X97407499Y-83820002D02*
X97127502Y-84100000D01*
D43*
X96500000Y-85400001D02*
X97723635Y-85400001D01*
X97723635Y-85400001D02*
X98017499Y-85106137D01*
D38*
X100500000Y-69290000D02*
X98927426Y-67717426D01*
D42*
X99250000Y-80950000D02*
X98433190Y-80950000D01*
D38*
X98927426Y-67717426D02*
X98615913Y-67717426D01*
X100525000Y-80930000D02*
X101644999Y-80930000D01*
D43*
X98017499Y-85106137D02*
X98017499Y-84430003D01*
D40*
X100525000Y-80930000D02*
X99270000Y-80930000D01*
X99270000Y-80930000D02*
X99250000Y-80950000D01*
D42*
X97407499Y-81975691D02*
X97407499Y-83820003D01*
D39*
%TO.N,CAN_L*%
X87005117Y-64469583D02*
X87005117Y-64487348D01*
%TO.N,CAN_SILENT*%
X95688180Y-62945442D02*
X96819188Y-64076450D01*
X96819188Y-65430812D02*
X95000000Y-67250000D01*
X96819188Y-64076450D02*
X96819188Y-65430812D01*
D38*
%TO.N,NRST*%
X90600000Y-74400000D02*
X90800000Y-74600000D01*
X90600000Y-66798307D02*
X90600000Y-74400000D01*
D39*
%TO.N,DRV_IN2*%
X85314998Y-68935002D02*
X85314998Y-70524999D01*
X85325000Y-68925000D02*
X85314998Y-68935002D01*
D38*
%TO.N,MISO*%
X93250000Y-75000000D02*
X93250000Y-74212500D01*
%TO.N,MAG_CS*%
X94250000Y-74877000D02*
X94250000Y-74212500D01*
X94368144Y-74995144D02*
X94250000Y-74877000D01*
%TO.N,SCK*%
X91278070Y-73921235D02*
X91278070Y-72221930D01*
X91500000Y-72000000D02*
X92037500Y-72000000D01*
X91278070Y-72221930D02*
X91500000Y-72000000D01*
D39*
%TO.N,DRV_IN1*%
X86584999Y-70525001D02*
X86584999Y-68834999D01*
X86584999Y-68834999D02*
X86250000Y-68500000D01*
%TO.N,CAN_L*%
X90000000Y-65250000D02*
X88001182Y-65250000D01*
X93435530Y-64162500D02*
X91087500Y-64162500D01*
X91087500Y-64162500D02*
X90000000Y-65250000D01*
X94418177Y-65145147D02*
X93435530Y-64162500D01*
X88001182Y-65250000D02*
X87189852Y-64438670D01*
%TO.N,CAN_H*%
X93704000Y-62696118D02*
X93704000Y-61696000D01*
X93358000Y-61350000D02*
X91193584Y-61350000D01*
X90771792Y-61771792D02*
X89771792Y-62771792D01*
X89771792Y-62771792D02*
X89354915Y-63188669D01*
X95053177Y-64045295D02*
X93704000Y-62696118D01*
X91193584Y-61350000D02*
X90771792Y-61771792D01*
X93704000Y-61696000D02*
X93358000Y-61350000D01*
%TD*%
%TA.AperFunction,Conductor*%
%TO.N,GND*%
G36*
X105509560Y-74081681D02*
G01*
X105556303Y-74133613D01*
X105568500Y-74187243D01*
X105568500Y-76317123D01*
X105569589Y-76322598D01*
X105580720Y-76378553D01*
X105594690Y-76448786D01*
X105646063Y-76572811D01*
X105720644Y-76684431D01*
X105908182Y-76871968D01*
X105941666Y-76933289D01*
X105944500Y-76959648D01*
X105944500Y-77582400D01*
X105924815Y-77649439D01*
X105872011Y-77695194D01*
X105837787Y-77705189D01*
X105829402Y-77706369D01*
X105763613Y-77725263D01*
X105708137Y-77747258D01*
X105619449Y-77816103D01*
X105573080Y-77868348D01*
X105573066Y-77868365D01*
X105537092Y-77918215D01*
X105499704Y-78024082D01*
X105488939Y-78093111D01*
X105488939Y-78093115D01*
X105487905Y-78180060D01*
X105494982Y-78233814D01*
X105494982Y-78266185D01*
X105490823Y-78297773D01*
X105482446Y-78329037D01*
X105470254Y-78358472D01*
X105454068Y-78386508D01*
X105434673Y-78411784D01*
X105411784Y-78434673D01*
X105386508Y-78454068D01*
X105358472Y-78470254D01*
X105329037Y-78482446D01*
X105297774Y-78490823D01*
X105243426Y-78497979D01*
X105198978Y-78507234D01*
X105163662Y-78517377D01*
X105153840Y-78520545D01*
X105144840Y-78523449D01*
X105144838Y-78523450D01*
X105144837Y-78523450D01*
X105047929Y-78580126D01*
X105047926Y-78580128D01*
X104995121Y-78625884D01*
X104995110Y-78625894D01*
X104952945Y-78670614D01*
X104952942Y-78670618D01*
X104902058Y-78770694D01*
X104902057Y-78770697D01*
X104882373Y-78837734D01*
X104882373Y-78837736D01*
X104869999Y-78923802D01*
X104869999Y-79156338D01*
X104861604Y-79201188D01*
X104858393Y-79209464D01*
X104846633Y-79249512D01*
X104840376Y-79274749D01*
X104838614Y-79387006D01*
X104850372Y-79455870D01*
X104850373Y-79455872D01*
X104850374Y-79455876D01*
X104864017Y-79498191D01*
X104870000Y-79536240D01*
X104870000Y-79600500D01*
X104850315Y-79667539D01*
X104797511Y-79713294D01*
X104746000Y-79724500D01*
X104204992Y-79724500D01*
X104204992Y-79724501D01*
X104108286Y-79739817D01*
X104108285Y-79739817D01*
X104030077Y-79779666D01*
X103991719Y-79799211D01*
X103991718Y-79799212D01*
X103991713Y-79799215D01*
X103899215Y-79891713D01*
X103899210Y-79891720D01*
X103839816Y-80008288D01*
X103824500Y-80104996D01*
X103824500Y-80395007D01*
X103839817Y-80491713D01*
X103839817Y-80491714D01*
X103839818Y-80491715D01*
X103899211Y-80608281D01*
X103899213Y-80608283D01*
X103899215Y-80608286D01*
X103991713Y-80700784D01*
X103991719Y-80700789D01*
X104067724Y-80739515D01*
X104118519Y-80787488D01*
X104135315Y-80855309D01*
X104112778Y-80921444D01*
X104067725Y-80960483D01*
X103991720Y-80999210D01*
X103991713Y-80999215D01*
X103899215Y-81091713D01*
X103899210Y-81091720D01*
X103839816Y-81208288D01*
X103824500Y-81304996D01*
X103824500Y-81595007D01*
X103839817Y-81691713D01*
X103839817Y-81691714D01*
X103839818Y-81691715D01*
X103899211Y-81808281D01*
X103899213Y-81808283D01*
X103899215Y-81808286D01*
X103991713Y-81900784D01*
X103991716Y-81900786D01*
X103991719Y-81900789D01*
X104108285Y-81960182D01*
X104108286Y-81960182D01*
X104108288Y-81960183D01*
X104108287Y-81960183D01*
X104147461Y-81966387D01*
X104204997Y-81975500D01*
X104347614Y-81975499D01*
X104414652Y-81995183D01*
X104460407Y-82047987D01*
X104470351Y-82117145D01*
X104441326Y-82180701D01*
X104441150Y-82180905D01*
X104152598Y-82512457D01*
X104148261Y-82517187D01*
X103633325Y-83050442D01*
X103628750Y-83054941D01*
X103086907Y-83560856D01*
X103082105Y-83565112D01*
X102514821Y-84042316D01*
X102509805Y-84046318D01*
X101918611Y-84493525D01*
X101913395Y-84497263D01*
X101299831Y-84913306D01*
X101294429Y-84916768D01*
X100660192Y-85300499D01*
X100654618Y-85303678D01*
X100001343Y-85654105D01*
X99995612Y-85656990D01*
X99325125Y-85973135D01*
X99319252Y-85975721D01*
X98633282Y-86256768D01*
X98627284Y-86259046D01*
X97927701Y-86504230D01*
X97921592Y-86506195D01*
X97210260Y-86714862D01*
X97204058Y-86716508D01*
X96482905Y-86888093D01*
X96476626Y-86889417D01*
X95747520Y-87023474D01*
X95741182Y-87024470D01*
X95006162Y-87120625D01*
X94999780Y-87121293D01*
X94260731Y-87179300D01*
X94254323Y-87179636D01*
X93513300Y-87199332D01*
X93506883Y-87199337D01*
X92765794Y-87180674D01*
X92759386Y-87180346D01*
X92020296Y-87123373D01*
X92013913Y-87122715D01*
X91278726Y-87027582D01*
X91272386Y-87026594D01*
X90543113Y-86893557D01*
X90536832Y-86892242D01*
X89815440Y-86721664D01*
X89809236Y-86720027D01*
X89097594Y-86512348D01*
X89091483Y-86510391D01*
X88391570Y-86266189D01*
X88385575Y-86263921D01*
X88206082Y-86190674D01*
X87699218Y-85983832D01*
X87693342Y-85981255D01*
X87022389Y-85666035D01*
X87016654Y-85663157D01*
X86999722Y-85654105D01*
X86362926Y-85313661D01*
X86357350Y-85310493D01*
X85722543Y-84927627D01*
X85717143Y-84924175D01*
X85103000Y-84508987D01*
X85097779Y-84505257D01*
X84726628Y-84225315D01*
X84505945Y-84058863D01*
X84500972Y-84054907D01*
X84165496Y-83773501D01*
X84126787Y-83715338D01*
X84125667Y-83645477D01*
X84162495Y-83586101D01*
X84225577Y-83556062D01*
X84245189Y-83554501D01*
X84328064Y-83554501D01*
X84328080Y-83554500D01*
X87468957Y-83554500D01*
X87535996Y-83574185D01*
X87556638Y-83590819D01*
X89081950Y-85116131D01*
X89081960Y-85116142D01*
X89086290Y-85120472D01*
X89086291Y-85120473D01*
X89189531Y-85223713D01*
X89315973Y-85296714D01*
X89457000Y-85334502D01*
X89457001Y-85334502D01*
X92829054Y-85334502D01*
X92896093Y-85354187D01*
X92924156Y-85378930D01*
X92935142Y-85392060D01*
X92989060Y-85436496D01*
X93063347Y-85481684D01*
X93063350Y-85481685D01*
X93063353Y-85481687D01*
X93232441Y-85553914D01*
X94094433Y-85922121D01*
X94143588Y-85938349D01*
X94175100Y-85945862D01*
X94184317Y-85948060D01*
X94190716Y-85949022D01*
X94235509Y-85955757D01*
X94710359Y-85986381D01*
X94785317Y-85981968D01*
X94844808Y-85971019D01*
X94892658Y-85958125D01*
X94989571Y-85901446D01*
X95042375Y-85855691D01*
X95042382Y-85855683D01*
X95042387Y-85855679D01*
X95084551Y-85810960D01*
X95084550Y-85810960D01*
X95084553Y-85810958D01*
X95089030Y-85802153D01*
X95111883Y-85770670D01*
X95141680Y-85740874D01*
X95198378Y-85629599D01*
X95198378Y-85629597D01*
X95198379Y-85629596D01*
X95213000Y-85537282D01*
X95213000Y-85262719D01*
X95198379Y-85170407D01*
X95198378Y-85170405D01*
X95198378Y-85170403D01*
X95192498Y-85158862D01*
X95181015Y-85136325D01*
X95167500Y-85080031D01*
X95167500Y-85069970D01*
X95181016Y-85013674D01*
X95198378Y-84979600D01*
X95198378Y-84979598D01*
X95198379Y-84979597D01*
X95213000Y-84887283D01*
X95213000Y-84612720D01*
X95198379Y-84520406D01*
X95198377Y-84520401D01*
X95141682Y-84409132D01*
X95141675Y-84409123D01*
X95053378Y-84320826D01*
X95053369Y-84320819D01*
X94942100Y-84264124D01*
X94942095Y-84264122D01*
X94849781Y-84249502D01*
X94849776Y-84249502D01*
X94778180Y-84249502D01*
X94760535Y-84248240D01*
X94738000Y-84245000D01*
X94737998Y-84245000D01*
X94663271Y-84245000D01*
X94596232Y-84225315D01*
X94581798Y-84214478D01*
X94572654Y-84206508D01*
X94572648Y-84206504D01*
X94545636Y-84186039D01*
X94532461Y-84176599D01*
X94532456Y-84176596D01*
X94429516Y-84131801D01*
X94429517Y-84131801D01*
X94361422Y-84116169D01*
X94332534Y-84113770D01*
X94274765Y-84108974D01*
X94274761Y-84108974D01*
X94274759Y-84108974D01*
X94274754Y-84108973D01*
X93338378Y-84165178D01*
X93322136Y-84166589D01*
X93309008Y-84168082D01*
X93309004Y-84168083D01*
X93210066Y-84196828D01*
X93210065Y-84196828D01*
X93176694Y-84213039D01*
X93122514Y-84225502D01*
X89811045Y-84225502D01*
X89744006Y-84205817D01*
X89723364Y-84189183D01*
X88983803Y-83449622D01*
X88950318Y-83388299D01*
X88955302Y-83318607D01*
X88997174Y-83262674D01*
X89048801Y-83240033D01*
X90543016Y-82962041D01*
X90598873Y-82946029D01*
X90642576Y-82928855D01*
X90672166Y-82915367D01*
X90760464Y-82846025D01*
X90806549Y-82793509D01*
X90854017Y-82720654D01*
X91080161Y-82233572D01*
X91126245Y-82181058D01*
X91193406Y-82161794D01*
X91260321Y-82181899D01*
X91280788Y-82198592D01*
X91284245Y-82202087D01*
X91378758Y-82262677D01*
X91378760Y-82262677D01*
X91378762Y-82262679D01*
X91426787Y-82282155D01*
X91443507Y-82288936D01*
X91443505Y-82288936D01*
X91527918Y-82309815D01*
X91527920Y-82309815D01*
X91527923Y-82309816D01*
X93734050Y-82530428D01*
X93798798Y-82556686D01*
X93832620Y-82598359D01*
X93963658Y-82860437D01*
X93963663Y-82860446D01*
X94002356Y-82919561D01*
X94038869Y-82963312D01*
X94073616Y-82996298D01*
X94090117Y-83011963D01*
X94992300Y-83688600D01*
X95004690Y-83697211D01*
X95010433Y-83701202D01*
X95025496Y-83710883D01*
X95025500Y-83710885D01*
X95126003Y-83752463D01*
X95156776Y-83759128D01*
X95194280Y-83767251D01*
X95194281Y-83767251D01*
X95194290Y-83767253D01*
X95255385Y-83774155D01*
X95365978Y-83754818D01*
X95365984Y-83754815D01*
X95365987Y-83754815D01*
X95431417Y-83730343D01*
X95431416Y-83730343D01*
X95431420Y-83730342D01*
X95507700Y-83688600D01*
X96430761Y-82996303D01*
X96436971Y-82991520D01*
X96441954Y-82987579D01*
X96448020Y-82982654D01*
X96703616Y-82769656D01*
X96767719Y-82741861D01*
X96836673Y-82753135D01*
X96888586Y-82799898D01*
X96906999Y-82864916D01*
X96906999Y-83345203D01*
X96887314Y-83412242D01*
X96882770Y-83418836D01*
X96843647Y-83471846D01*
X96824021Y-83527931D01*
X96783298Y-83584706D01*
X96718344Y-83610452D01*
X96687583Y-83609448D01*
X96624776Y-83599501D01*
X96375224Y-83599501D01*
X96375219Y-83599501D01*
X96282904Y-83614121D01*
X96282899Y-83614123D01*
X96171630Y-83670818D01*
X96171621Y-83670825D01*
X96083324Y-83759122D01*
X96083317Y-83759131D01*
X96026622Y-83870400D01*
X96026620Y-83870405D01*
X96012000Y-83962719D01*
X96012000Y-84237282D01*
X96026620Y-84329596D01*
X96026622Y-84329601D01*
X96083317Y-84440870D01*
X96083324Y-84440879D01*
X96171621Y-84529176D01*
X96171630Y-84529183D01*
X96282899Y-84585878D01*
X96282904Y-84585880D01*
X96375219Y-84600501D01*
X96375224Y-84600501D01*
X96624781Y-84600501D01*
X96717095Y-84585880D01*
X96717096Y-84585879D01*
X96717098Y-84585879D01*
X96805148Y-84541014D01*
X96861442Y-84527500D01*
X97183782Y-84527500D01*
X97183784Y-84527500D01*
X97292512Y-84498367D01*
X97300899Y-84493525D01*
X97301677Y-84493075D01*
X97353996Y-84462868D01*
X97421894Y-84446395D01*
X97487921Y-84469246D01*
X97503677Y-84482574D01*
X97580680Y-84559577D01*
X97614165Y-84620900D01*
X97616999Y-84647258D01*
X97616999Y-84875501D01*
X97597314Y-84942540D01*
X97544510Y-84988295D01*
X97492999Y-84999501D01*
X96908138Y-84999501D01*
X96841099Y-84979816D01*
X96835256Y-84975821D01*
X96828373Y-84970820D01*
X96717100Y-84914123D01*
X96717095Y-84914121D01*
X96624781Y-84899501D01*
X96624776Y-84899501D01*
X96375224Y-84899501D01*
X96375219Y-84899501D01*
X96282904Y-84914121D01*
X96282899Y-84914123D01*
X96171630Y-84970818D01*
X96171621Y-84970825D01*
X96083324Y-85059122D01*
X96083317Y-85059131D01*
X96026622Y-85170400D01*
X96026620Y-85170405D01*
X96012000Y-85262719D01*
X96012000Y-85537282D01*
X96026620Y-85629596D01*
X96026622Y-85629601D01*
X96083317Y-85740870D01*
X96083324Y-85740879D01*
X96171621Y-85829176D01*
X96171630Y-85829183D01*
X96282899Y-85885878D01*
X96282904Y-85885880D01*
X96375219Y-85900501D01*
X96375224Y-85900501D01*
X96624781Y-85900501D01*
X96717095Y-85885880D01*
X96717097Y-85885879D01*
X96717098Y-85885879D01*
X96828373Y-85829181D01*
X96835256Y-85824181D01*
X96901063Y-85800703D01*
X96908138Y-85800501D01*
X97776360Y-85800501D01*
X97776362Y-85800501D01*
X97878223Y-85773208D01*
X97969548Y-85720481D01*
X98337979Y-85352050D01*
X98369927Y-85296714D01*
X98369929Y-85296712D01*
X98390703Y-85260729D01*
X98390702Y-85260729D01*
X98390706Y-85260724D01*
X98417999Y-85158864D01*
X98417999Y-84377276D01*
X98403993Y-84325003D01*
X98390706Y-84275415D01*
X98337979Y-84184090D01*
X98054318Y-83900429D01*
X98020833Y-83839106D01*
X98017999Y-83812748D01*
X98017999Y-83626932D01*
X98015325Y-83598422D01*
X98015209Y-83597184D01*
X98015207Y-83597180D01*
X98015207Y-83597176D01*
X97984703Y-83510006D01*
X97971351Y-83471846D01*
X97932228Y-83418836D01*
X97925924Y-83401577D01*
X98499500Y-83401577D01*
X98499500Y-83598422D01*
X98530290Y-83792826D01*
X98591117Y-83980029D01*
X98656651Y-84108646D01*
X98680476Y-84155405D01*
X98796172Y-84314646D01*
X98935354Y-84453828D01*
X99094595Y-84569524D01*
X99155391Y-84600501D01*
X99269970Y-84658882D01*
X99269972Y-84658882D01*
X99269975Y-84658884D01*
X99370317Y-84691487D01*
X99457173Y-84719709D01*
X99651578Y-84750500D01*
X99651583Y-84750500D01*
X99848422Y-84750500D01*
X100042826Y-84719709D01*
X100230025Y-84658884D01*
X100405405Y-84569524D01*
X100564646Y-84453828D01*
X100703828Y-84314646D01*
X100819524Y-84155405D01*
X100908884Y-83980025D01*
X100969709Y-83792826D01*
X100972666Y-83774154D01*
X101000500Y-83598422D01*
X101000500Y-83401577D01*
X100969709Y-83207173D01*
X100908882Y-83019970D01*
X100827597Y-82860440D01*
X100819524Y-82844595D01*
X100703828Y-82685354D01*
X100564646Y-82546172D01*
X100405405Y-82430476D01*
X100370141Y-82412508D01*
X100230029Y-82341117D01*
X100042826Y-82280290D01*
X99848422Y-82249500D01*
X99848417Y-82249500D01*
X99651583Y-82249500D01*
X99651578Y-82249500D01*
X99457173Y-82280290D01*
X99269970Y-82341117D01*
X99094594Y-82430476D01*
X99076538Y-82443595D01*
X98935354Y-82546172D01*
X98935352Y-82546174D01*
X98935351Y-82546174D01*
X98796174Y-82685351D01*
X98796174Y-82685352D01*
X98796172Y-82685354D01*
X98770525Y-82720654D01*
X98680476Y-82844594D01*
X98591117Y-83019970D01*
X98530290Y-83207173D01*
X98499500Y-83401577D01*
X97925924Y-83401577D01*
X97908258Y-83353207D01*
X97907999Y-83345203D01*
X97907999Y-82234367D01*
X97927684Y-82167328D01*
X97944318Y-82146686D01*
X98604185Y-81486819D01*
X98665508Y-81453334D01*
X98691866Y-81450500D01*
X98873743Y-81450500D01*
X98940782Y-81470185D01*
X98946099Y-81473924D01*
X98947157Y-81474534D01*
X98947159Y-81474536D01*
X98947160Y-81474536D01*
X98947163Y-81474538D01*
X98984345Y-81489939D01*
X99093238Y-81535044D01*
X99171619Y-81545363D01*
X99249999Y-81555682D01*
X99250000Y-81555682D01*
X99250001Y-81555682D01*
X99302254Y-81548802D01*
X99406762Y-81535044D01*
X99515655Y-81489938D01*
X99563108Y-81480500D01*
X99785849Y-81480500D01*
X99852888Y-81500185D01*
X99859481Y-81504729D01*
X99871842Y-81513852D01*
X99997173Y-81557708D01*
X99997177Y-81557708D01*
X99997181Y-81557710D01*
X100012057Y-81559105D01*
X100026930Y-81560500D01*
X100026934Y-81560500D01*
X100172704Y-81560500D01*
X100236499Y-81578170D01*
X101013371Y-82044293D01*
X101088999Y-82076743D01*
X101089006Y-82076745D01*
X101089009Y-82076746D01*
X101152787Y-82094412D01*
X101152788Y-82094412D01*
X101152795Y-82094414D01*
X101234345Y-82105500D01*
X101234350Y-82105500D01*
X102075990Y-82105500D01*
X102076000Y-82105500D01*
X102140941Y-82098518D01*
X102192452Y-82087312D01*
X102230658Y-82076354D01*
X102327571Y-82019675D01*
X102380375Y-81973920D01*
X102380382Y-81973912D01*
X102380387Y-81973908D01*
X102422548Y-81929192D01*
X102422553Y-81929187D01*
X102473439Y-81829111D01*
X102493124Y-81762072D01*
X102505500Y-81676000D01*
X102505500Y-80804860D01*
X102496540Y-80731414D01*
X102482206Y-80673540D01*
X102466861Y-80627572D01*
X102454049Y-80608286D01*
X102404738Y-80534060D01*
X102404731Y-80534051D01*
X102356040Y-80483957D01*
X102356027Y-80483945D01*
X102308969Y-80444404D01*
X102308964Y-80444401D01*
X102249705Y-80418418D01*
X102196213Y-80373470D01*
X102175513Y-80306737D01*
X102175499Y-80304855D01*
X102175499Y-80104992D01*
X102160183Y-80008290D01*
X102160182Y-80008286D01*
X102160182Y-80008285D01*
X102159167Y-80006294D01*
X102158664Y-80003616D01*
X102157166Y-79999004D01*
X102157762Y-79998810D01*
X102146271Y-79937627D01*
X102159169Y-79893700D01*
X102160182Y-79891713D01*
X102175500Y-79795001D01*
X102175499Y-79504996D01*
X102175499Y-79504994D01*
X102175499Y-79504990D01*
X102160183Y-79408288D01*
X102160182Y-79408284D01*
X102160182Y-79408283D01*
X102159168Y-79406294D01*
X102158666Y-79403619D01*
X102157166Y-79399002D01*
X102157762Y-79398808D01*
X102146272Y-79337627D01*
X102159170Y-79293700D01*
X102160182Y-79291715D01*
X102175500Y-79195003D01*
X102175499Y-78904998D01*
X102175499Y-78904997D01*
X102175499Y-78904992D01*
X102160182Y-78808286D01*
X102160182Y-78808285D01*
X102141029Y-78770695D01*
X102100789Y-78691719D01*
X102100785Y-78691715D01*
X102100784Y-78691713D01*
X102008286Y-78599215D01*
X102008282Y-78599212D01*
X102008281Y-78599211D01*
X101891715Y-78539818D01*
X101891714Y-78539817D01*
X101891711Y-78539816D01*
X101891712Y-78539816D01*
X101795003Y-78524500D01*
X101214561Y-78524500D01*
X101147522Y-78504815D01*
X101101767Y-78452011D01*
X101091823Y-78382853D01*
X101116275Y-78324897D01*
X101817100Y-77413827D01*
X101969002Y-77216355D01*
X101971030Y-77213688D01*
X101971076Y-77213628D01*
X101972721Y-77211440D01*
X102015719Y-77132044D01*
X102039548Y-77066363D01*
X102057269Y-76981229D01*
X102228728Y-74237845D01*
X102252556Y-74172167D01*
X102308112Y-74129795D01*
X102350144Y-74121605D01*
X105442163Y-74063265D01*
X105509560Y-74081681D01*
G37*
%TD.AperFunction*%
%TA.AperFunction,Conductor*%
G36*
X100711335Y-78966795D02*
G01*
X100760095Y-79016837D01*
X100774500Y-79074845D01*
X100774500Y-79195007D01*
X100789817Y-79291713D01*
X100789817Y-79291715D01*
X100790832Y-79293706D01*
X100791335Y-79296385D01*
X100792834Y-79300999D01*
X100792237Y-79301192D01*
X100803727Y-79362376D01*
X100790836Y-79406283D01*
X100789818Y-79408280D01*
X100789816Y-79408285D01*
X100774500Y-79504994D01*
X100774500Y-79795005D01*
X100789817Y-79891711D01*
X100789818Y-79891716D01*
X100790833Y-79893707D01*
X100791336Y-79896387D01*
X100792834Y-79900997D01*
X100792238Y-79901190D01*
X100803728Y-79962376D01*
X100790837Y-80006283D01*
X100789818Y-80008282D01*
X100789816Y-80008287D01*
X100774500Y-80104996D01*
X100774500Y-80170500D01*
X100754815Y-80237539D01*
X100702011Y-80283294D01*
X100650500Y-80294500D01*
X100484193Y-80294500D01*
X100469951Y-80294832D01*
X100469792Y-80294839D01*
X100469215Y-80294866D01*
X100463466Y-80295000D01*
X100324000Y-80295000D01*
X100323991Y-80295000D01*
X100323990Y-80295001D01*
X100259064Y-80301981D01*
X100259052Y-80301983D01*
X100207542Y-80313188D01*
X100169349Y-80324143D01*
X100169341Y-80324146D01*
X100126593Y-80349147D01*
X100103697Y-80362538D01*
X100041097Y-80379500D01*
X99787639Y-80379500D01*
X99720600Y-80359815D01*
X99674845Y-80307011D01*
X99664901Y-80237853D01*
X99689354Y-80179896D01*
X99815951Y-80015320D01*
X99838931Y-79985446D01*
X99846587Y-79975046D01*
X99852617Y-79966481D01*
X99895939Y-79876686D01*
X99915624Y-79809647D01*
X99928000Y-79723575D01*
X99928000Y-79495218D01*
X99922637Y-79440765D01*
X99922131Y-79435627D01*
X99922130Y-79435625D01*
X99922130Y-79435618D01*
X99912691Y-79388165D01*
X99895306Y-79330854D01*
X99894550Y-79329029D01*
X99886175Y-79297771D01*
X99885377Y-79291713D01*
X99882016Y-79266183D01*
X99882016Y-79233811D01*
X99886175Y-79202218D01*
X99894550Y-79170961D01*
X99906745Y-79141520D01*
X99922921Y-79113500D01*
X99942332Y-79088204D01*
X99965204Y-79065332D01*
X99990500Y-79045921D01*
X100018520Y-79029745D01*
X100047961Y-79017550D01*
X100079214Y-79009176D01*
X100110822Y-79005015D01*
X100143179Y-79005015D01*
X100177925Y-79009589D01*
X100204411Y-79016104D01*
X100211877Y-79018841D01*
X100231385Y-79025090D01*
X100342385Y-79039133D01*
X100412136Y-79035061D01*
X100472841Y-79025320D01*
X100472844Y-79025319D01*
X100526442Y-78999776D01*
X100574192Y-78977022D01*
X100577489Y-78974620D01*
X100643261Y-78951057D01*
X100711335Y-78966795D01*
G37*
%TD.AperFunction*%
%TA.AperFunction,Conductor*%
G36*
X86261880Y-52827386D02*
G01*
X86280409Y-52851640D01*
X89075223Y-57632700D01*
X89078538Y-57638370D01*
X89095377Y-57706180D01*
X89072881Y-57772330D01*
X89022892Y-57812079D01*
X89023481Y-57813301D01*
X89017210Y-57816320D01*
X88873327Y-57906728D01*
X88753175Y-58026880D01*
X88753173Y-58026883D01*
X88679567Y-58144025D01*
X88627232Y-58190316D01*
X88560692Y-58201272D01*
X88500000Y-58194435D01*
X88499998Y-58194435D01*
X88499996Y-58194435D01*
X88320750Y-58214630D01*
X88320745Y-58214631D01*
X88150476Y-58274211D01*
X87997737Y-58370184D01*
X87870184Y-58497737D01*
X87774212Y-58650475D01*
X87774211Y-58650478D01*
X87771536Y-58658122D01*
X87730812Y-58714897D01*
X87668380Y-58740383D01*
X87521392Y-58756944D01*
X87360294Y-58813314D01*
X87215782Y-58904117D01*
X87095101Y-59024798D01*
X87004298Y-59169310D01*
X86947928Y-59330408D01*
X86928821Y-59499996D01*
X86928821Y-59500003D01*
X86947928Y-59669591D01*
X87004298Y-59830689D01*
X87022920Y-59860326D01*
X87095101Y-59975201D01*
X87215783Y-60095883D01*
X87360294Y-60186685D01*
X87521387Y-60243054D01*
X87521390Y-60243054D01*
X87521392Y-60243055D01*
X87690980Y-60262163D01*
X87690984Y-60262163D01*
X87690988Y-60262163D01*
X87860575Y-60243055D01*
X87860576Y-60243054D01*
X87860581Y-60243054D01*
X88021674Y-60186685D01*
X88166185Y-60095883D01*
X88286867Y-59975201D01*
X88359048Y-59860324D01*
X88411381Y-59814034D01*
X88477924Y-59803077D01*
X88500000Y-59805565D01*
X88620351Y-59792004D01*
X88679249Y-59785369D01*
X88679252Y-59785368D01*
X88679255Y-59785368D01*
X88849522Y-59725789D01*
X89002262Y-59629816D01*
X89129816Y-59502262D01*
X89225789Y-59349522D01*
X89228465Y-59341871D01*
X89269185Y-59285096D01*
X89334137Y-59259347D01*
X89345508Y-59258824D01*
X89346451Y-59258824D01*
X89515292Y-59239800D01*
X89515291Y-59239800D01*
X89515301Y-59239799D01*
X89675688Y-59183677D01*
X89675687Y-59183677D01*
X89675691Y-59183676D01*
X89819560Y-59093276D01*
X89819561Y-59093275D01*
X89819566Y-59093272D01*
X89939719Y-58973119D01*
X89939723Y-58973113D01*
X90030123Y-58829244D01*
X90053455Y-58762564D01*
X90094176Y-58705788D01*
X90144517Y-58682270D01*
X90832923Y-58534789D01*
X90839182Y-58533616D01*
X91569685Y-58416144D01*
X91575975Y-58415298D01*
X92311627Y-58335655D01*
X92317928Y-58335137D01*
X93056660Y-58293549D01*
X93063040Y-58293355D01*
X93802955Y-58289925D01*
X93809293Y-58290060D01*
X94548383Y-58324799D01*
X94554720Y-58325261D01*
X95291047Y-58398077D01*
X95297356Y-58398866D01*
X95905136Y-58490832D01*
X96028911Y-58509561D01*
X96035210Y-58510681D01*
X96141036Y-58532328D01*
X96760085Y-58658961D01*
X96766271Y-58660393D01*
X97482567Y-58845875D01*
X97488681Y-58847628D01*
X98194444Y-59069806D01*
X98200447Y-59071867D01*
X98893818Y-59330154D01*
X98899743Y-59332538D01*
X99578814Y-59626223D01*
X99584618Y-59628913D01*
X100247655Y-59957242D01*
X100253305Y-59960223D01*
X100898540Y-60322324D01*
X100904003Y-60325578D01*
X101385809Y-60629662D01*
X101529705Y-60720480D01*
X101535026Y-60724034D01*
X101732893Y-60863687D01*
X102108953Y-61129107D01*
X102139498Y-61150665D01*
X102144623Y-61154484D01*
X102263532Y-61247958D01*
X102726287Y-61611727D01*
X102731213Y-61615809D01*
X103288522Y-62102449D01*
X103293231Y-62106780D01*
X103824695Y-62621517D01*
X103829170Y-62626080D01*
X104333385Y-63167553D01*
X104337614Y-63172337D01*
X104802060Y-63725789D01*
X104830076Y-63789796D01*
X104819039Y-63858788D01*
X104772455Y-63910862D01*
X104707074Y-63929499D01*
X104205143Y-63929499D01*
X104205117Y-63929501D01*
X104180012Y-63932412D01*
X104180008Y-63932414D01*
X104077235Y-63977792D01*
X103997794Y-64057233D01*
X103952415Y-64160005D01*
X103952415Y-64160007D01*
X103949500Y-64185130D01*
X103949500Y-65141428D01*
X103929815Y-65208467D01*
X103877011Y-65254222D01*
X103807853Y-65264166D01*
X103784546Y-65258470D01*
X103659259Y-65214630D01*
X103659251Y-65214628D01*
X103480006Y-65194433D01*
X103479998Y-65194433D01*
X103300752Y-65214628D01*
X103300747Y-65214629D01*
X103130478Y-65274209D01*
X102977739Y-65370182D01*
X102977738Y-65370183D01*
X102932678Y-65415242D01*
X102871355Y-65448726D01*
X102801663Y-65443740D01*
X102757318Y-65415240D01*
X102712262Y-65370184D01*
X102559523Y-65274211D01*
X102389254Y-65214631D01*
X102389249Y-65214630D01*
X102210004Y-65194435D01*
X102209996Y-65194435D01*
X102030750Y-65214630D01*
X102030745Y-65214631D01*
X101860476Y-65274211D01*
X101707737Y-65370184D01*
X101580184Y-65497737D01*
X101484209Y-65650480D01*
X101457662Y-65726347D01*
X101416941Y-65783123D01*
X101351988Y-65808870D01*
X101283426Y-65795414D01*
X101233023Y-65747026D01*
X101217401Y-65699275D01*
X101206465Y-65602219D01*
X101204539Y-65585124D01*
X101150232Y-65460651D01*
X101150231Y-65460650D01*
X101150231Y-65460649D01*
X101061652Y-65357720D01*
X101061650Y-65357718D01*
X101061648Y-65357716D01*
X101052390Y-65351147D01*
X101036721Y-65340028D01*
X99513795Y-64460766D01*
X99513779Y-64460758D01*
X99486006Y-64448018D01*
X99486004Y-64448017D01*
X99454862Y-64442124D01*
X99352565Y-64422768D01*
X99217621Y-64437972D01*
X99217618Y-64437973D01*
X99165386Y-64460762D01*
X99093434Y-64492154D01*
X99043849Y-64502500D01*
X98383719Y-64502500D01*
X98274989Y-64531633D01*
X98177509Y-64587915D01*
X98177506Y-64587917D01*
X97585369Y-65180055D01*
X97524046Y-65213540D01*
X97454354Y-65208556D01*
X97398421Y-65166684D01*
X97374004Y-65101220D01*
X97373688Y-65092374D01*
X97373688Y-64159454D01*
X97373689Y-64159441D01*
X97373689Y-64003449D01*
X97373689Y-64003448D01*
X97335900Y-63862421D01*
X97327407Y-63847710D01*
X97327407Y-63847709D01*
X97293970Y-63789796D01*
X97262899Y-63735979D01*
X97159659Y-63632739D01*
X97159658Y-63632738D01*
X97155328Y-63628408D01*
X97155317Y-63628398D01*
X96953657Y-63426738D01*
X96920172Y-63365415D01*
X96919500Y-63316003D01*
X96924914Y-63287391D01*
X96932921Y-63245073D01*
X96922784Y-63155103D01*
X96917717Y-63110127D01*
X96917715Y-63110121D01*
X96903293Y-63077064D01*
X96863409Y-62985650D01*
X96863408Y-62985649D01*
X96863408Y-62985648D01*
X96774829Y-62882719D01*
X96774827Y-62882717D01*
X96774825Y-62882715D01*
X96765567Y-62876146D01*
X96749898Y-62865027D01*
X95226972Y-61985765D01*
X95226956Y-61985757D01*
X95199183Y-61973017D01*
X95199181Y-61973016D01*
X95168039Y-61967123D01*
X95065742Y-61947767D01*
X94930798Y-61962971D01*
X94930792Y-61962973D01*
X94806319Y-62017280D01*
X94703390Y-62105859D01*
X94703385Y-62105865D01*
X94685698Y-62130790D01*
X94489887Y-62469947D01*
X94439320Y-62518163D01*
X94370713Y-62531386D01*
X94305848Y-62505418D01*
X94265320Y-62448503D01*
X94258500Y-62407947D01*
X94258500Y-61622998D01*
X94252337Y-61600000D01*
X94252336Y-61599997D01*
X94251913Y-61598417D01*
X94220712Y-61481971D01*
X94197176Y-61441206D01*
X94191470Y-61431322D01*
X94191469Y-61431321D01*
X94174297Y-61401577D01*
X97749500Y-61401577D01*
X97749500Y-61598422D01*
X97780290Y-61792826D01*
X97841117Y-61980029D01*
X97908494Y-62112263D01*
X97930476Y-62155405D01*
X98046172Y-62314646D01*
X98185354Y-62453828D01*
X98344595Y-62569524D01*
X98385716Y-62590476D01*
X98519970Y-62658882D01*
X98519972Y-62658882D01*
X98519975Y-62658884D01*
X98620317Y-62691487D01*
X98707173Y-62719709D01*
X98901578Y-62750500D01*
X98901583Y-62750500D01*
X99098422Y-62750500D01*
X99292826Y-62719709D01*
X99480025Y-62658884D01*
X99655405Y-62569524D01*
X99814646Y-62453828D01*
X99953828Y-62314646D01*
X100069524Y-62155405D01*
X100158884Y-61980025D01*
X100219709Y-61792826D01*
X100224732Y-61761113D01*
X100250500Y-61598422D01*
X100250500Y-61401577D01*
X100219709Y-61207173D01*
X100158882Y-61019970D01*
X100100957Y-60906286D01*
X100069524Y-60844595D01*
X99953828Y-60685354D01*
X99814646Y-60546172D01*
X99655405Y-60430476D01*
X99480029Y-60341117D01*
X99292826Y-60280290D01*
X99098422Y-60249500D01*
X99098417Y-60249500D01*
X98901583Y-60249500D01*
X98901578Y-60249500D01*
X98707173Y-60280290D01*
X98519970Y-60341117D01*
X98344594Y-60430476D01*
X98253741Y-60496485D01*
X98185354Y-60546172D01*
X98185352Y-60546174D01*
X98185351Y-60546174D01*
X98046174Y-60685351D01*
X98046174Y-60685352D01*
X98046172Y-60685354D01*
X98018069Y-60724034D01*
X97930476Y-60844594D01*
X97841117Y-61019970D01*
X97780290Y-61207173D01*
X97749500Y-61401577D01*
X94174297Y-61401577D01*
X94147711Y-61355529D01*
X94044471Y-61252289D01*
X94044470Y-61252288D01*
X94040140Y-61247958D01*
X94040129Y-61247948D01*
X93808781Y-61016600D01*
X93808779Y-61016597D01*
X93698472Y-60906290D01*
X93698467Y-60906286D01*
X93604466Y-60852015D01*
X93556250Y-60801448D01*
X93550344Y-60786257D01*
X93502206Y-60677235D01*
X93422765Y-60597794D01*
X93319992Y-60552415D01*
X93294865Y-60549500D01*
X91705143Y-60549500D01*
X91705117Y-60549502D01*
X91680012Y-60552413D01*
X91680008Y-60552415D01*
X91577235Y-60597793D01*
X91497793Y-60677235D01*
X91478211Y-60721586D01*
X91433125Y-60774963D01*
X91366339Y-60795490D01*
X91364777Y-60795500D01*
X91120580Y-60795500D01*
X91066276Y-60810050D01*
X91066277Y-60810051D01*
X90979553Y-60833288D01*
X90979552Y-60833289D01*
X90853116Y-60906286D01*
X90853111Y-60906290D01*
X90431321Y-61328081D01*
X89981101Y-61778299D01*
X89919778Y-61811784D01*
X89850086Y-61806800D01*
X89816267Y-61787692D01*
X89782828Y-61761114D01*
X89782826Y-61761113D01*
X89643350Y-61702408D01*
X89493207Y-61683510D01*
X89493203Y-61683510D01*
X89343531Y-61705820D01*
X89343529Y-61705821D01*
X89261616Y-61740848D01*
X89261602Y-61740855D01*
X88147727Y-62383950D01*
X88147719Y-62383955D01*
X88076424Y-62437383D01*
X88076423Y-62437384D01*
X87982263Y-62555853D01*
X87923557Y-62695330D01*
X87904660Y-62845469D01*
X87904660Y-62845473D01*
X87904660Y-62845475D01*
X87910211Y-62882714D01*
X87926970Y-62995149D01*
X87926971Y-62995151D01*
X87961998Y-63077064D01*
X87962005Y-63077079D01*
X88107218Y-63328595D01*
X88123691Y-63396495D01*
X88100838Y-63462522D01*
X88045917Y-63505713D01*
X87976364Y-63512354D01*
X87916858Y-63482744D01*
X87817402Y-63393192D01*
X87817396Y-63393187D01*
X87665525Y-63294562D01*
X87500083Y-63220902D01*
X87500084Y-63220902D01*
X87325167Y-63174033D01*
X87325166Y-63174032D01*
X87325163Y-63174032D01*
X87145063Y-63155103D01*
X87145060Y-63155103D01*
X86964220Y-63164580D01*
X86964213Y-63164581D01*
X86787081Y-63202233D01*
X86618021Y-63267128D01*
X86461193Y-63357672D01*
X86461189Y-63357674D01*
X86461187Y-63357676D01*
X86413467Y-63396319D01*
X86320449Y-63471643D01*
X86199278Y-63606215D01*
X86199273Y-63606221D01*
X86100648Y-63758092D01*
X86026988Y-63923534D01*
X85980119Y-64098450D01*
X85961189Y-64278553D01*
X85961189Y-64278561D01*
X85970666Y-64459397D01*
X85970667Y-64459404D01*
X86008319Y-64636536D01*
X86073213Y-64805595D01*
X86073218Y-64805604D01*
X86233038Y-65082420D01*
X86313762Y-65222238D01*
X86313765Y-65222242D01*
X86313768Y-65222246D01*
X86427725Y-65362972D01*
X86427726Y-65362974D01*
X86562302Y-65484147D01*
X86562307Y-65484151D01*
X86714181Y-65582778D01*
X86714186Y-65582781D01*
X86821858Y-65630720D01*
X86879618Y-65656437D01*
X86879619Y-65656437D01*
X86879621Y-65656438D01*
X86937925Y-65672060D01*
X87054541Y-65703307D01*
X87234641Y-65722236D01*
X87415486Y-65712759D01*
X87572278Y-65679431D01*
X87641943Y-65684747D01*
X87660058Y-65693334D01*
X87660711Y-65693711D01*
X87757024Y-65749317D01*
X87787153Y-65766712D01*
X87928180Y-65804500D01*
X87928181Y-65804500D01*
X87928182Y-65804500D01*
X90073000Y-65804500D01*
X90073002Y-65804500D01*
X90214029Y-65766712D01*
X90244158Y-65749317D01*
X90244159Y-65749317D01*
X90340464Y-65693715D01*
X90340463Y-65693715D01*
X90340471Y-65693711D01*
X90443711Y-65590471D01*
X90443711Y-65590469D01*
X90453915Y-65580266D01*
X90453918Y-65580261D01*
X91280862Y-64753319D01*
X91342185Y-64719834D01*
X91368543Y-64717000D01*
X91732109Y-64717000D01*
X91799148Y-64736685D01*
X91844903Y-64789489D01*
X91854847Y-64858647D01*
X91825822Y-64922203D01*
X91781695Y-64954654D01*
X91675767Y-65000869D01*
X91575120Y-65087482D01*
X91575116Y-65087486D01*
X91557822Y-65111860D01*
X91557817Y-65111867D01*
X91364762Y-65446249D01*
X91352296Y-65473423D01*
X91327610Y-65603895D01*
X91342478Y-65735845D01*
X91342479Y-65735850D01*
X91395580Y-65857559D01*
X91482193Y-65958206D01*
X91482197Y-65958210D01*
X91506569Y-65975503D01*
X91506571Y-65975504D01*
X91506578Y-65975509D01*
X91888762Y-66196162D01*
X91892931Y-66198569D01*
X91920093Y-66211029D01*
X91920094Y-66211029D01*
X91920096Y-66211030D01*
X92050568Y-66235716D01*
X92059856Y-66236064D01*
X92059772Y-66238289D01*
X92116047Y-66248142D01*
X92148798Y-66271631D01*
X92163181Y-66286014D01*
X92196666Y-66347337D01*
X92199500Y-66373695D01*
X92199500Y-67426266D01*
X92237016Y-67566276D01*
X92269473Y-67622492D01*
X92270387Y-67624075D01*
X92287000Y-67686076D01*
X92287000Y-70321500D01*
X92267315Y-70388539D01*
X92214511Y-70434294D01*
X92163000Y-70445500D01*
X91655167Y-70445500D01*
X91607715Y-70436061D01*
X91556765Y-70414957D01*
X91556760Y-70414955D01*
X91400001Y-70394318D01*
X91399999Y-70394318D01*
X91243239Y-70414955D01*
X91243238Y-70414956D01*
X91198951Y-70433300D01*
X91129482Y-70440768D01*
X91067003Y-70409492D01*
X91031351Y-70349402D01*
X91027500Y-70318738D01*
X91027500Y-68360221D01*
X91034459Y-68319265D01*
X91052805Y-68266836D01*
X91057710Y-68252819D01*
X91060500Y-68223066D01*
X91060500Y-67776934D01*
X91060275Y-67774536D01*
X91058805Y-67758857D01*
X91057710Y-67747181D01*
X91057709Y-67747177D01*
X91034458Y-67680729D01*
X91027500Y-67639775D01*
X91027500Y-67269699D01*
X91047185Y-67202660D01*
X91053117Y-67194222D01*
X91124536Y-67101148D01*
X91185044Y-66955069D01*
X91204477Y-66807457D01*
X91205682Y-66798308D01*
X91205682Y-66798305D01*
X91191685Y-66691985D01*
X91185044Y-66641545D01*
X91124536Y-66495466D01*
X91028282Y-66370025D01*
X90902841Y-66273771D01*
X90869655Y-66260025D01*
X90756762Y-66213263D01*
X90756760Y-66213262D01*
X90600001Y-66192625D01*
X90599999Y-66192625D01*
X90443239Y-66213262D01*
X90443237Y-66213263D01*
X90297160Y-66273770D01*
X90171718Y-66370025D01*
X90075463Y-66495467D01*
X90014956Y-66641544D01*
X90014955Y-66641546D01*
X89994318Y-66798305D01*
X89994318Y-66798308D01*
X90014955Y-66955067D01*
X90014956Y-66955069D01*
X90075464Y-67101149D01*
X90099664Y-67132686D01*
X90146875Y-67194213D01*
X90172070Y-67259381D01*
X90172500Y-67269699D01*
X90172500Y-67343543D01*
X90152815Y-67410582D01*
X90122134Y-67443313D01*
X90025001Y-67515001D01*
X89946147Y-67621844D01*
X89902291Y-67747173D01*
X89902289Y-67747185D01*
X89899500Y-67776929D01*
X89899500Y-68223070D01*
X89902289Y-68252814D01*
X89902291Y-68252826D01*
X89942000Y-68366303D01*
X89946148Y-68378157D01*
X90025001Y-68484999D01*
X90122134Y-68556686D01*
X90164384Y-68612333D01*
X90172500Y-68656456D01*
X90172500Y-74456286D01*
X90193432Y-74534407D01*
X90196597Y-74582676D01*
X90194318Y-74599996D01*
X90194318Y-74600001D01*
X90214955Y-74756760D01*
X90214956Y-74756762D01*
X90256318Y-74856620D01*
X90275464Y-74902841D01*
X90371718Y-75028282D01*
X90497159Y-75124536D01*
X90643238Y-75185044D01*
X90800000Y-75205682D01*
X90865425Y-75197068D01*
X90934456Y-75207833D01*
X90986713Y-75254212D01*
X91005599Y-75321481D01*
X90996169Y-75367459D01*
X90933716Y-75518234D01*
X90933714Y-75518239D01*
X90913077Y-75674998D01*
X90913077Y-75675001D01*
X90933714Y-75831760D01*
X90933715Y-75831762D01*
X90989251Y-75965839D01*
X90994223Y-75977841D01*
X91090477Y-76103282D01*
X91215918Y-76199536D01*
X91361997Y-76260044D01*
X91440378Y-76270363D01*
X91518758Y-76280682D01*
X91518759Y-76280682D01*
X91518760Y-76280682D01*
X91582913Y-76272236D01*
X91675521Y-76260044D01*
X91821600Y-76199536D01*
X91914667Y-76128123D01*
X91979835Y-76102930D01*
X91990152Y-76102500D01*
X94631279Y-76102500D01*
X94631281Y-76102500D01*
X94740009Y-76073367D01*
X94837491Y-76017085D01*
X94888738Y-75965836D01*
X94950058Y-75932353D01*
X95019750Y-75937336D01*
X95074793Y-75978031D01*
X95151718Y-76078282D01*
X95277159Y-76174536D01*
X95423238Y-76235044D01*
X95501619Y-76245363D01*
X95579999Y-76255682D01*
X95580000Y-76255682D01*
X95580001Y-76255682D01*
X95632254Y-76248802D01*
X95736762Y-76235044D01*
X95882841Y-76174536D01*
X96008282Y-76078282D01*
X96104536Y-75952841D01*
X96165044Y-75806762D01*
X96182530Y-75673939D01*
X96210796Y-75610043D01*
X96217774Y-75602457D01*
X96592085Y-75228149D01*
X96648367Y-75130666D01*
X96677500Y-75021939D01*
X96677500Y-74909376D01*
X96677500Y-68761510D01*
X96697185Y-68694471D01*
X96749989Y-68648716D01*
X96819147Y-68638772D01*
X96882703Y-68667797D01*
X96895488Y-68680626D01*
X96983350Y-68782722D01*
X96983352Y-68782724D01*
X96983355Y-68782727D01*
X96999025Y-68793846D01*
X97008281Y-68800414D01*
X98396210Y-69601735D01*
X98531217Y-69679681D01*
X98531221Y-69679683D01*
X98531229Y-69679687D01*
X98535890Y-69681825D01*
X98571872Y-69706852D01*
X98803579Y-69938559D01*
X98837064Y-69999882D01*
X98838837Y-70010054D01*
X98854149Y-70126360D01*
X98856252Y-70134207D01*
X98854202Y-70134756D01*
X98860471Y-70193057D01*
X98829197Y-70255536D01*
X98812752Y-70270307D01*
X98752681Y-70315276D01*
X98752679Y-70315277D01*
X98752679Y-70315278D01*
X98752667Y-70315288D01*
X98320312Y-70747645D01*
X98320295Y-70747663D01*
X98298440Y-70771993D01*
X98281775Y-70792674D01*
X98277448Y-70798172D01*
X98277447Y-70798174D01*
X98226560Y-70898252D01*
X98206877Y-70965283D01*
X98194500Y-71051364D01*
X98194500Y-74322095D01*
X98174815Y-74389134D01*
X98158181Y-74409776D01*
X96955701Y-75612255D01*
X96955693Y-75612264D01*
X96914717Y-75663111D01*
X96914714Y-75663114D01*
X96914712Y-75663118D01*
X96907757Y-75673940D01*
X96886213Y-75707462D01*
X96866946Y-75742226D01*
X96866946Y-75742227D01*
X96851694Y-75800453D01*
X96838496Y-75850835D01*
X96838495Y-75850841D01*
X96833512Y-75920516D01*
X96833512Y-75920536D01*
X96835319Y-75981977D01*
X96835319Y-75981980D01*
X96870100Y-76088723D01*
X96870104Y-76088733D01*
X96903589Y-76150055D01*
X96955689Y-76219651D01*
X96955707Y-76219672D01*
X97008272Y-76272236D01*
X97017481Y-76282533D01*
X97025222Y-76292227D01*
X97025228Y-76292234D01*
X97025231Y-76292237D01*
X97053994Y-76322584D01*
X97054011Y-76322601D01*
X97092643Y-76356992D01*
X97092659Y-76357006D01*
X97107173Y-76367871D01*
X97132122Y-76392820D01*
X97140054Y-76403416D01*
X97156969Y-76434392D01*
X97162181Y-76448366D01*
X97169999Y-76491699D01*
X97169999Y-76958300D01*
X97162178Y-77001640D01*
X97156967Y-77015609D01*
X97140053Y-77046582D01*
X97132125Y-77057172D01*
X97107174Y-77082123D01*
X97096587Y-77090049D01*
X97065611Y-77106965D01*
X97051636Y-77112178D01*
X97008298Y-77119998D01*
X96491701Y-77119998D01*
X96448363Y-77112178D01*
X96434388Y-77106965D01*
X96403417Y-77090054D01*
X96403410Y-77090049D01*
X96396853Y-77085140D01*
X96396852Y-77085139D01*
X96378208Y-77073158D01*
X96360175Y-77061569D01*
X96329197Y-77044655D01*
X96313194Y-77036519D01*
X96233371Y-77015609D01*
X96204588Y-77008069D01*
X96204579Y-77008068D01*
X96134904Y-77003085D01*
X96134883Y-77003085D01*
X96073443Y-77004891D01*
X95966699Y-77039673D01*
X95966695Y-77039675D01*
X95905374Y-77073158D01*
X95835758Y-77125271D01*
X95835757Y-77125272D01*
X95697781Y-77263249D01*
X95675938Y-77287568D01*
X95675924Y-77287584D01*
X95659286Y-77308234D01*
X95654949Y-77313745D01*
X95654945Y-77313752D01*
X95604059Y-77413827D01*
X95601943Y-77419158D01*
X95599496Y-77418186D01*
X95567683Y-77467556D01*
X95504092Y-77496504D01*
X95434946Y-77486477D01*
X95382197Y-77440658D01*
X95379556Y-77436345D01*
X95342179Y-77372436D01*
X95342174Y-77372428D01*
X95324314Y-77351816D01*
X95296420Y-77319625D01*
X95296418Y-77319623D01*
X95296408Y-77319612D01*
X95251692Y-77277451D01*
X95251689Y-77277449D01*
X95251687Y-77277447D01*
X95151611Y-77226561D01*
X95151610Y-77226560D01*
X95151609Y-77226560D01*
X95084578Y-77206877D01*
X95084572Y-77206876D01*
X94998500Y-77194500D01*
X94998497Y-77194500D01*
X90927904Y-77194500D01*
X90860865Y-77174815D01*
X90840223Y-77158181D01*
X88536818Y-74854776D01*
X88503333Y-74793453D01*
X88500499Y-74767095D01*
X88500499Y-74667643D01*
X88500499Y-74667636D01*
X88500497Y-74667617D01*
X88497586Y-74642512D01*
X88497585Y-74642510D01*
X88497585Y-74642509D01*
X88452206Y-74539735D01*
X88372765Y-74460294D01*
X88339876Y-74445772D01*
X88269992Y-74414915D01*
X88244865Y-74412000D01*
X87505143Y-74412000D01*
X87505117Y-74412002D01*
X87480012Y-74414913D01*
X87480008Y-74414915D01*
X87377235Y-74460293D01*
X87377234Y-74460294D01*
X87327681Y-74509848D01*
X87266358Y-74543333D01*
X87196666Y-74538349D01*
X87152319Y-74509848D01*
X87102764Y-74460293D01*
X86999991Y-74414914D01*
X86974864Y-74411999D01*
X86235142Y-74411999D01*
X86235116Y-74412001D01*
X86210011Y-74414912D01*
X86210007Y-74414914D01*
X86107234Y-74460292D01*
X86107233Y-74460293D01*
X86057680Y-74509847D01*
X85996357Y-74543332D01*
X85926665Y-74538348D01*
X85882318Y-74509847D01*
X85832764Y-74460293D01*
X85729991Y-74414914D01*
X85704864Y-74411999D01*
X84965142Y-74411999D01*
X84965116Y-74412001D01*
X84940011Y-74414912D01*
X84940007Y-74414914D01*
X84837234Y-74460292D01*
X84837233Y-74460293D01*
X84787680Y-74509847D01*
X84726357Y-74543332D01*
X84656665Y-74538348D01*
X84612318Y-74509847D01*
X84562765Y-74460294D01*
X84459992Y-74414915D01*
X84434865Y-74412000D01*
X83695143Y-74412000D01*
X83695117Y-74412002D01*
X83670012Y-74414913D01*
X83670008Y-74414915D01*
X83567235Y-74460293D01*
X83567234Y-74460294D01*
X83516181Y-74511348D01*
X83454858Y-74544833D01*
X83385166Y-74539849D01*
X83329233Y-74497977D01*
X83304816Y-74432513D01*
X83304500Y-74423667D01*
X83304500Y-69843043D01*
X83324185Y-69776004D01*
X83340819Y-69755362D01*
X83955161Y-69141020D01*
X84590492Y-68505688D01*
X84651813Y-68472205D01*
X84721505Y-68477189D01*
X84777438Y-68519061D01*
X84801855Y-68584525D01*
X84792732Y-68640823D01*
X84739957Y-68768234D01*
X84739955Y-68768239D01*
X84719318Y-68924998D01*
X84719318Y-68925001D01*
X84739955Y-69081758D01*
X84741049Y-69085839D01*
X84740963Y-69089415D01*
X84741017Y-69089820D01*
X84740953Y-69089828D01*
X84739384Y-69155689D01*
X84734708Y-69168014D01*
X84712414Y-69218506D01*
X84709499Y-69243630D01*
X84709499Y-70858355D01*
X84709501Y-70858381D01*
X84712412Y-70883486D01*
X84712414Y-70883490D01*
X84757792Y-70986263D01*
X84757793Y-70986264D01*
X84837234Y-71065705D01*
X84940008Y-71111084D01*
X84965134Y-71113999D01*
X85704863Y-71113998D01*
X85704878Y-71113996D01*
X85704881Y-71113996D01*
X85729986Y-71111085D01*
X85729987Y-71111084D01*
X85729990Y-71111084D01*
X85832764Y-71065705D01*
X85882318Y-71016151D01*
X85943641Y-70982666D01*
X86013333Y-70987650D01*
X86057680Y-71016151D01*
X86107234Y-71065705D01*
X86210008Y-71111084D01*
X86235134Y-71113999D01*
X86974863Y-71113998D01*
X86974878Y-71113996D01*
X86974881Y-71113996D01*
X86999986Y-71111085D01*
X86999987Y-71111084D01*
X86999990Y-71111084D01*
X87102764Y-71065705D01*
X87152318Y-71016151D01*
X87213641Y-70982666D01*
X87283333Y-70987650D01*
X87327680Y-71016151D01*
X87377233Y-71065704D01*
X87480007Y-71111083D01*
X87505133Y-71113998D01*
X88244862Y-71113997D01*
X88244877Y-71113995D01*
X88244880Y-71113995D01*
X88269985Y-71111084D01*
X88269986Y-71111083D01*
X88269989Y-71111083D01*
X88372763Y-71065704D01*
X88452204Y-70986263D01*
X88497583Y-70883489D01*
X88500498Y-70858363D01*
X88500497Y-69243634D01*
X88500495Y-69243615D01*
X88497584Y-69218512D01*
X88497583Y-69218508D01*
X88497582Y-69218506D01*
X88479153Y-69176767D01*
X88465065Y-69144859D01*
X88454500Y-69094774D01*
X88454500Y-68740189D01*
X88474185Y-68673150D01*
X88503574Y-68641385D01*
X88525078Y-68625079D01*
X88527293Y-68622159D01*
X88599992Y-68526291D01*
X88612364Y-68509976D01*
X88665359Y-68375591D01*
X88675500Y-68291145D01*
X88675500Y-67758857D01*
X88665359Y-67674411D01*
X88612364Y-67540026D01*
X88612363Y-67540025D01*
X88612363Y-67540024D01*
X88525078Y-67424922D01*
X88409976Y-67337637D01*
X88275588Y-67284641D01*
X88232242Y-67279436D01*
X88191144Y-67274501D01*
X87608856Y-67274501D01*
X87570841Y-67279066D01*
X87524411Y-67284641D01*
X87390023Y-67337637D01*
X87331874Y-67381734D01*
X87266563Y-67406557D01*
X87256949Y-67406930D01*
X87122606Y-67406930D01*
X87055567Y-67387245D01*
X87034925Y-67370611D01*
X86966604Y-67302290D01*
X86966599Y-67302286D01*
X86840163Y-67229289D01*
X86840156Y-67229286D01*
X86830089Y-67226588D01*
X86830089Y-67226589D01*
X86748304Y-67204675D01*
X86699134Y-67191500D01*
X86699133Y-67191500D01*
X84646614Y-67191500D01*
X84646598Y-67191499D01*
X84639002Y-67191499D01*
X84492998Y-67191499D01*
X84362044Y-67226589D01*
X84362043Y-67226588D01*
X84351972Y-67229287D01*
X84351968Y-67229289D01*
X84225532Y-67302286D01*
X84225527Y-67302290D01*
X82306290Y-69221527D01*
X82306286Y-69221532D01*
X82248445Y-69321718D01*
X82233287Y-69347972D01*
X82233286Y-69347973D01*
X82210309Y-69433731D01*
X82207274Y-69445061D01*
X82204609Y-69455006D01*
X82204608Y-69455010D01*
X82195500Y-69488998D01*
X82195500Y-71886354D01*
X82175815Y-71953393D01*
X82123011Y-71999148D01*
X82053853Y-72009092D01*
X81990297Y-71980067D01*
X81971183Y-71959241D01*
X81953828Y-71935354D01*
X81814648Y-71796174D01*
X81814646Y-71796172D01*
X81655405Y-71680476D01*
X81633610Y-71669371D01*
X81480029Y-71591117D01*
X81292826Y-71530290D01*
X81098422Y-71499500D01*
X81098417Y-71499500D01*
X80901583Y-71499500D01*
X80901578Y-71499500D01*
X80707173Y-71530290D01*
X80519970Y-71591117D01*
X80344594Y-71680476D01*
X80283923Y-71724557D01*
X80185354Y-71796172D01*
X80185352Y-71796174D01*
X80185351Y-71796174D01*
X80046174Y-71935351D01*
X80046174Y-71935352D01*
X80046172Y-71935354D01*
X80013686Y-71980067D01*
X79930476Y-72094594D01*
X79841117Y-72269970D01*
X79780290Y-72457173D01*
X79749500Y-72651577D01*
X79749500Y-72848422D01*
X79780290Y-73042826D01*
X79841117Y-73230029D01*
X79929276Y-73403049D01*
X79930476Y-73405405D01*
X80046172Y-73564646D01*
X80185354Y-73703828D01*
X80344595Y-73819524D01*
X80410396Y-73853051D01*
X80519970Y-73908882D01*
X80519972Y-73908882D01*
X80519975Y-73908884D01*
X80620317Y-73941487D01*
X80707173Y-73969709D01*
X80901578Y-74000500D01*
X80901583Y-74000500D01*
X81098422Y-74000500D01*
X81292826Y-73969709D01*
X81293722Y-73969418D01*
X81480025Y-73908884D01*
X81655405Y-73819524D01*
X81814646Y-73703828D01*
X81953828Y-73564646D01*
X81971182Y-73540759D01*
X82026511Y-73498094D01*
X82096125Y-73492115D01*
X82157920Y-73524720D01*
X82192277Y-73585559D01*
X82195500Y-73613645D01*
X82195500Y-74968956D01*
X82175815Y-75035995D01*
X82159181Y-75056637D01*
X81356290Y-75859527D01*
X81356289Y-75859529D01*
X81311368Y-75937336D01*
X81311279Y-75937490D01*
X81311278Y-75937491D01*
X81283289Y-75985968D01*
X81283288Y-75985971D01*
X81245909Y-76125474D01*
X81245901Y-76125502D01*
X81245501Y-76126993D01*
X81245500Y-76127001D01*
X81245500Y-79954726D01*
X81225815Y-80021765D01*
X81173011Y-80067520D01*
X81103853Y-80077464D01*
X81040297Y-80048439D01*
X81013313Y-80015320D01*
X80844153Y-79713294D01*
X80716327Y-79485067D01*
X80713343Y-79479400D01*
X80710474Y-79473591D01*
X80385031Y-78814735D01*
X80382357Y-78808950D01*
X80088863Y-78128180D01*
X80086490Y-78122259D01*
X79846506Y-77475464D01*
X79828606Y-77427220D01*
X79826531Y-77421149D01*
X79604950Y-76713715D01*
X79603209Y-76707605D01*
X79418511Y-75989617D01*
X79417094Y-75983456D01*
X79269778Y-75256835D01*
X79268674Y-75250554D01*
X79260685Y-75197068D01*
X79159155Y-74517369D01*
X79158376Y-74511047D01*
X79086929Y-73773146D01*
X79086478Y-73766764D01*
X79084746Y-73728110D01*
X79053299Y-73026180D01*
X79053179Y-73019780D01*
X79053994Y-72903056D01*
X79058355Y-72278472D01*
X79058565Y-72272107D01*
X79102082Y-71532055D01*
X79102624Y-71525673D01*
X79110964Y-71450500D01*
X79184365Y-70788869D01*
X79185232Y-70782554D01*
X79304986Y-70050921D01*
X79306173Y-70044689D01*
X79463614Y-69320228D01*
X79465127Y-69314043D01*
X79659828Y-68598725D01*
X79661660Y-68592621D01*
X79893104Y-67888329D01*
X79895246Y-67882338D01*
X80162818Y-67190951D01*
X80165267Y-67185078D01*
X80468243Y-66508467D01*
X80471013Y-66502689D01*
X80808574Y-65842674D01*
X80811630Y-65837064D01*
X81182881Y-65195399D01*
X81186215Y-65189966D01*
X81590173Y-64568346D01*
X81593764Y-64563120D01*
X82029356Y-63963205D01*
X82033235Y-63958144D01*
X82499265Y-63381581D01*
X82503404Y-63376724D01*
X82996675Y-62827224D01*
X83000953Y-62822696D01*
X83044006Y-62779351D01*
X83105216Y-62745659D01*
X83145862Y-62743515D01*
X83239025Y-62754012D01*
X83249999Y-62755249D01*
X83250000Y-62755249D01*
X83250003Y-62755249D01*
X83418056Y-62736314D01*
X83430768Y-62731866D01*
X83577690Y-62680456D01*
X83577692Y-62680454D01*
X83577694Y-62680454D01*
X83577697Y-62680452D01*
X83720884Y-62590481D01*
X83720885Y-62590480D01*
X83720890Y-62590477D01*
X83840477Y-62470890D01*
X83878559Y-62410281D01*
X83930893Y-62363990D01*
X83969670Y-62353033D01*
X84118055Y-62336314D01*
X84118057Y-62336313D01*
X84118059Y-62336313D01*
X84277690Y-62280456D01*
X84277692Y-62280454D01*
X84277694Y-62280454D01*
X84277697Y-62280452D01*
X84420884Y-62190481D01*
X84420885Y-62190480D01*
X84420890Y-62190477D01*
X84540477Y-62070890D01*
X84627230Y-61932824D01*
X84679564Y-61886534D01*
X84702549Y-61878400D01*
X84735263Y-61870337D01*
X84876883Y-61796009D01*
X84996600Y-61689949D01*
X85087457Y-61558321D01*
X85144172Y-61408774D01*
X85163451Y-61250000D01*
X85144172Y-61091226D01*
X85144171Y-61091224D01*
X85144171Y-61091222D01*
X85114390Y-61012696D01*
X85087457Y-60941679D01*
X85085803Y-60939283D01*
X85052883Y-60891591D01*
X84996600Y-60810051D01*
X84991052Y-60805136D01*
X84876884Y-60703991D01*
X84735261Y-60629662D01*
X84630766Y-60603906D01*
X84579970Y-60591386D01*
X84420030Y-60591386D01*
X84381754Y-60600820D01*
X84264738Y-60629662D01*
X84123115Y-60703991D01*
X83997786Y-60815024D01*
X83996001Y-60813009D01*
X83947554Y-60843387D01*
X83927831Y-60847248D01*
X83781943Y-60863685D01*
X83622305Y-60919545D01*
X83622302Y-60919547D01*
X83479115Y-61009518D01*
X83479109Y-61009523D01*
X83359525Y-61129107D01*
X83359519Y-61129114D01*
X83321437Y-61189720D01*
X83269102Y-61236010D01*
X83230329Y-61246966D01*
X83081944Y-61263685D01*
X82922305Y-61319545D01*
X82922302Y-61319547D01*
X82779112Y-61409520D01*
X82779108Y-61409523D01*
X82775918Y-61412714D01*
X82714593Y-61446195D01*
X82644901Y-61441206D01*
X82588970Y-61399331D01*
X82581065Y-61387390D01*
X82121624Y-60597793D01*
X82006534Y-60399999D01*
X85444722Y-60399999D01*
X85444722Y-60400000D01*
X85463762Y-60556818D01*
X85491389Y-60629662D01*
X85519780Y-60704523D01*
X85609517Y-60834530D01*
X85727760Y-60939283D01*
X85727762Y-60939284D01*
X85867634Y-61012696D01*
X86021014Y-61050500D01*
X86021015Y-61050500D01*
X86178985Y-61050500D01*
X86332365Y-61012696D01*
X86338420Y-61009518D01*
X86472240Y-60939283D01*
X86590483Y-60834530D01*
X86680220Y-60704523D01*
X86736237Y-60556818D01*
X86755278Y-60400000D01*
X86736237Y-60243182D01*
X86736188Y-60243054D01*
X86714811Y-60186685D01*
X86680220Y-60095477D01*
X86590483Y-59965470D01*
X86472240Y-59860717D01*
X86472238Y-59860716D01*
X86472237Y-59860715D01*
X86332365Y-59787303D01*
X86178986Y-59749500D01*
X86178985Y-59749500D01*
X86021015Y-59749500D01*
X86021014Y-59749500D01*
X85867634Y-59787303D01*
X85727762Y-59860715D01*
X85609516Y-59965471D01*
X85519781Y-60095475D01*
X85519780Y-60095476D01*
X85463762Y-60243181D01*
X85444722Y-60399999D01*
X82006534Y-60399999D01*
X80699170Y-58153161D01*
X82439197Y-58153161D01*
X82439197Y-58153169D01*
X82448674Y-58334005D01*
X82448675Y-58334012D01*
X82486327Y-58511144D01*
X82551221Y-58680203D01*
X82551226Y-58680212D01*
X82647887Y-58847633D01*
X82791770Y-59096846D01*
X82791773Y-59096850D01*
X82791776Y-59096854D01*
X82905733Y-59237580D01*
X82905734Y-59237582D01*
X83040310Y-59358755D01*
X83040315Y-59358759D01*
X83192189Y-59457386D01*
X83192194Y-59457389D01*
X83316599Y-59512778D01*
X83357626Y-59531045D01*
X83357627Y-59531045D01*
X83357629Y-59531046D01*
X83415933Y-59546668D01*
X83532549Y-59577915D01*
X83712649Y-59596844D01*
X83893494Y-59587367D01*
X84070630Y-59549715D01*
X84239694Y-59484817D01*
X84396524Y-59394271D01*
X84537260Y-59280306D01*
X84658435Y-59145729D01*
X84757066Y-58993851D01*
X84830723Y-58828415D01*
X84877593Y-58653493D01*
X84896522Y-58473393D01*
X84887045Y-58292548D01*
X84886516Y-58290061D01*
X84859217Y-58161629D01*
X84864533Y-58091962D01*
X84906670Y-58036229D01*
X84972249Y-58012123D01*
X85040451Y-58027300D01*
X85087894Y-58073848D01*
X85233108Y-58325367D01*
X85233113Y-58325375D01*
X85286541Y-58396670D01*
X85286542Y-58396671D01*
X85286543Y-58396672D01*
X85405010Y-58490832D01*
X85453151Y-58511094D01*
X85544487Y-58549537D01*
X85569744Y-58552716D01*
X85694633Y-58568436D01*
X85844308Y-58546125D01*
X85926230Y-58511094D01*
X87040116Y-57867992D01*
X87111415Y-57814561D01*
X87205574Y-57696094D01*
X87264280Y-57556615D01*
X87283178Y-57406471D01*
X87260867Y-57256795D01*
X87225836Y-57174873D01*
X86432734Y-55801181D01*
X86379303Y-55729882D01*
X86260836Y-55635722D01*
X86260834Y-55635721D01*
X86121358Y-55577016D01*
X85971215Y-55558118D01*
X85971211Y-55558118D01*
X85821539Y-55580428D01*
X85821537Y-55580429D01*
X85739624Y-55615456D01*
X85739610Y-55615463D01*
X84625735Y-56258558D01*
X84625727Y-56258563D01*
X84554432Y-56311991D01*
X84554431Y-56311992D01*
X84460271Y-56430461D01*
X84401565Y-56569938D01*
X84382668Y-56720077D01*
X84382668Y-56720081D01*
X84404978Y-56869757D01*
X84404979Y-56869759D01*
X84440006Y-56951672D01*
X84440013Y-56951687D01*
X84585226Y-57203203D01*
X84601699Y-57271103D01*
X84578846Y-57337130D01*
X84523925Y-57380321D01*
X84454372Y-57386962D01*
X84394866Y-57357352D01*
X84295410Y-57267800D01*
X84295404Y-57267795D01*
X84143533Y-57169170D01*
X83978091Y-57095510D01*
X83978092Y-57095510D01*
X83803175Y-57048641D01*
X83803174Y-57048640D01*
X83803171Y-57048640D01*
X83623071Y-57029711D01*
X83623068Y-57029711D01*
X83442228Y-57039188D01*
X83442221Y-57039189D01*
X83265089Y-57076841D01*
X83096029Y-57141736D01*
X82939201Y-57232280D01*
X82939197Y-57232282D01*
X82939195Y-57232284D01*
X82891258Y-57271103D01*
X82798457Y-57346251D01*
X82677286Y-57480823D01*
X82677281Y-57480829D01*
X82578656Y-57632700D01*
X82504996Y-57798142D01*
X82474883Y-57910526D01*
X82458126Y-57973063D01*
X82452426Y-58027300D01*
X82439197Y-58153161D01*
X80699170Y-58153161D01*
X79792246Y-56594520D01*
X79775545Y-56526678D01*
X79798174Y-56460574D01*
X79819619Y-56437252D01*
X80061062Y-56234246D01*
X80064757Y-56231262D01*
X80720597Y-55722211D01*
X80724423Y-55719359D01*
X81399674Y-55236311D01*
X81403633Y-55233594D01*
X82097199Y-54777331D01*
X82101295Y-54774750D01*
X82296640Y-54656913D01*
X82812191Y-54345919D01*
X82816325Y-54343535D01*
X83543453Y-53942800D01*
X83547629Y-53940604D01*
X84289898Y-53568570D01*
X84294180Y-53566528D01*
X85050398Y-53223795D01*
X85054767Y-53221916D01*
X85823799Y-52908995D01*
X85828252Y-52907284D01*
X86131150Y-52797623D01*
X86200883Y-52793311D01*
X86261880Y-52827386D01*
G37*
%TD.AperFunction*%
%TA.AperFunction,Conductor*%
G36*
X113724876Y-73926675D02*
G01*
X113771619Y-73978607D01*
X113783816Y-74032344D01*
X113783327Y-74599996D01*
X113780065Y-78384827D01*
X113780038Y-78415607D01*
X113760296Y-78482629D01*
X113707452Y-78528339D01*
X113656038Y-78539500D01*
X109205458Y-78539500D01*
X109203289Y-78539481D01*
X107257827Y-78505450D01*
X107191142Y-78484596D01*
X107146318Y-78431000D01*
X107137586Y-78361678D01*
X107144863Y-78335421D01*
X107530523Y-77371276D01*
X107537552Y-77351816D01*
X107542719Y-77335838D01*
X107548419Y-77315931D01*
X107591102Y-77145194D01*
X107599635Y-77090053D01*
X107602433Y-77045036D01*
X107602275Y-77039675D01*
X107601576Y-77015889D01*
X107602426Y-76997296D01*
X107611846Y-76919710D01*
X107618997Y-76890697D01*
X107645660Y-76820391D01*
X107653640Y-76803372D01*
X107671033Y-76772595D01*
X107689279Y-76732232D01*
X107707280Y-76680486D01*
X107781175Y-76384904D01*
X107788581Y-76343136D01*
X107792216Y-76308976D01*
X107793533Y-76292236D01*
X107778561Y-76180968D01*
X107756678Y-76114614D01*
X107717969Y-76036751D01*
X107656224Y-75947300D01*
X107642335Y-75920835D01*
X107615833Y-75850955D01*
X107610410Y-75832411D01*
X107605036Y-75806762D01*
X107603714Y-75800450D01*
X107598839Y-75784247D01*
X107591533Y-75759962D01*
X107591527Y-75759945D01*
X107590076Y-75756289D01*
X107572229Y-75711338D01*
X107557521Y-75681922D01*
X107552809Y-75675000D01*
X107535792Y-75650000D01*
X107511592Y-75614447D01*
X107467722Y-75565586D01*
X107426551Y-75527447D01*
X107426549Y-75527446D01*
X107426548Y-75527445D01*
X107326473Y-75476560D01*
X107259442Y-75456877D01*
X107259436Y-75456876D01*
X107173364Y-75444500D01*
X107173361Y-75444500D01*
X107055500Y-75444500D01*
X106988461Y-75424815D01*
X106942706Y-75372011D01*
X106931500Y-75320500D01*
X106931500Y-74156847D01*
X106951185Y-74089808D01*
X107003989Y-74044053D01*
X107053157Y-74032869D01*
X107411029Y-74026117D01*
X107478426Y-74044533D01*
X107501047Y-74062414D01*
X107529109Y-74090476D01*
X107529115Y-74090481D01*
X107672302Y-74180452D01*
X107672305Y-74180454D01*
X107672309Y-74180455D01*
X107672310Y-74180456D01*
X107744913Y-74205860D01*
X107831943Y-74236314D01*
X107999997Y-74255249D01*
X108000000Y-74255249D01*
X108000003Y-74255249D01*
X108168056Y-74236314D01*
X108168059Y-74236313D01*
X108327690Y-74180456D01*
X108470890Y-74090477D01*
X108521516Y-74039850D01*
X108582836Y-74006366D01*
X108606848Y-74003554D01*
X113657481Y-73908260D01*
X113724876Y-73926675D01*
G37*
%TD.AperFunction*%
%TA.AperFunction,Conductor*%
G36*
X95633203Y-77847440D02*
G01*
X95646223Y-77860543D01*
X95695564Y-77918217D01*
X95707951Y-77932695D01*
X95762354Y-77976536D01*
X95762356Y-77976537D01*
X95762357Y-77976538D01*
X95837134Y-78020905D01*
X95837142Y-78020909D01*
X95858472Y-78029744D01*
X95886507Y-78045931D01*
X95911786Y-78065329D01*
X95934671Y-78088213D01*
X95948873Y-78106721D01*
X95974070Y-78171888D01*
X95974500Y-78182210D01*
X95974500Y-78317788D01*
X95954815Y-78384827D01*
X95948874Y-78393276D01*
X95934671Y-78411785D01*
X95911784Y-78434673D01*
X95886508Y-78454068D01*
X95858472Y-78470254D01*
X95829037Y-78482446D01*
X95797775Y-78490823D01*
X95776556Y-78493617D01*
X95766189Y-78494982D01*
X95733817Y-78494982D01*
X95719380Y-78493081D01*
X95702222Y-78490822D01*
X95670957Y-78482444D01*
X95641523Y-78470252D01*
X95613490Y-78454067D01*
X95588215Y-78434673D01*
X95565330Y-78411789D01*
X95545925Y-78386500D01*
X95529742Y-78358469D01*
X95525497Y-78348221D01*
X95522963Y-78342102D01*
X95517552Y-78329038D01*
X95509175Y-78297773D01*
X95496812Y-78203867D01*
X95483216Y-78145555D01*
X95483214Y-78145550D01*
X95483213Y-78145544D01*
X95467662Y-78099731D01*
X95464664Y-78093115D01*
X95442951Y-78045191D01*
X95442950Y-78045189D01*
X95442945Y-78045178D01*
X95442938Y-78045167D01*
X95441699Y-78042753D01*
X95428000Y-77986098D01*
X95428000Y-77941153D01*
X95447685Y-77874114D01*
X95500489Y-77828359D01*
X95569647Y-77818415D01*
X95633203Y-77847440D01*
G37*
%TD.AperFunction*%
%TA.AperFunction,Conductor*%
G36*
X92743834Y-73797040D02*
G01*
X92799767Y-73838912D01*
X92824184Y-73904376D01*
X92824500Y-73913222D01*
X92824500Y-74132901D01*
X92823439Y-74149085D01*
X92822500Y-74156218D01*
X92822500Y-74528606D01*
X92802815Y-74595645D01*
X92796876Y-74604092D01*
X92725464Y-74697157D01*
X92664956Y-74843237D01*
X92664955Y-74843239D01*
X92644318Y-74999998D01*
X92644318Y-75000001D01*
X92658446Y-75107315D01*
X92647680Y-75176350D01*
X92601300Y-75228606D01*
X92535507Y-75247500D01*
X91990152Y-75247500D01*
X91923113Y-75227815D01*
X91914679Y-75221885D01*
X91821600Y-75150464D01*
X91773803Y-75130666D01*
X91675521Y-75089956D01*
X91675519Y-75089955D01*
X91518760Y-75069318D01*
X91518758Y-75069318D01*
X91453335Y-75077931D01*
X91384300Y-75067165D01*
X91332044Y-75020785D01*
X91313159Y-74953516D01*
X91322589Y-74907539D01*
X91324533Y-74902843D01*
X91324536Y-74902841D01*
X91385044Y-74756762D01*
X91405682Y-74600000D01*
X91406743Y-74591942D01*
X91408340Y-74592152D01*
X91425367Y-74534168D01*
X91478171Y-74488413D01*
X91482230Y-74486646D01*
X91545849Y-74460294D01*
X91580911Y-74445771D01*
X91706352Y-74349517D01*
X91802606Y-74224076D01*
X91863114Y-74077997D01*
X91868996Y-74033314D01*
X91897262Y-73969418D01*
X91955586Y-73930946D01*
X91991935Y-73925499D01*
X92396950Y-73925499D01*
X92425172Y-73921387D01*
X92467509Y-73915220D01*
X92576347Y-73862012D01*
X92585308Y-73853051D01*
X92612819Y-73825541D01*
X92674142Y-73792056D01*
X92743834Y-73797040D01*
G37*
%TD.AperFunction*%
%TA.AperFunction,Conductor*%
G36*
X94054459Y-71951515D02*
G01*
X94082491Y-71965220D01*
X94153051Y-71975500D01*
X94153057Y-71975499D01*
X94153064Y-71975501D01*
X94157532Y-71975825D01*
X94157407Y-71977542D01*
X94217486Y-71995149D01*
X94263268Y-72047929D01*
X94273001Y-72092565D01*
X94274177Y-72092480D01*
X94274500Y-72096946D01*
X94284779Y-72167507D01*
X94284779Y-72167508D01*
X94298484Y-72195543D01*
X94310241Y-72264416D01*
X94298484Y-72304457D01*
X94284781Y-72332488D01*
X94284780Y-72332491D01*
X94274500Y-72403051D01*
X94274500Y-72403055D01*
X94274500Y-72403056D01*
X94274500Y-72596950D01*
X94284779Y-72667507D01*
X94284779Y-72667508D01*
X94298484Y-72695543D01*
X94310241Y-72764416D01*
X94298484Y-72804457D01*
X94284781Y-72832488D01*
X94284780Y-72832491D01*
X94274500Y-72903051D01*
X94274500Y-72903055D01*
X94274500Y-72903056D01*
X94274500Y-73096950D01*
X94284779Y-73167507D01*
X94284779Y-73167508D01*
X94298484Y-73195543D01*
X94310241Y-73264416D01*
X94298484Y-73304457D01*
X94284781Y-73332488D01*
X94284780Y-73332491D01*
X94274500Y-73403051D01*
X94274500Y-73403056D01*
X94274499Y-73403063D01*
X94274175Y-73407532D01*
X94272471Y-73407408D01*
X94254815Y-73467539D01*
X94202011Y-73513294D01*
X94157435Y-73523003D01*
X94157520Y-73524177D01*
X94153053Y-73524500D01*
X94082492Y-73534779D01*
X94082491Y-73534779D01*
X94054457Y-73548484D01*
X93985584Y-73560241D01*
X93945543Y-73548484D01*
X93917511Y-73534781D01*
X93917509Y-73534780D01*
X93917502Y-73534779D01*
X93846949Y-73524500D01*
X93846943Y-73524500D01*
X93653049Y-73524500D01*
X93582492Y-73534779D01*
X93582491Y-73534779D01*
X93554457Y-73548484D01*
X93485584Y-73560241D01*
X93445543Y-73548484D01*
X93417511Y-73534781D01*
X93417509Y-73534780D01*
X93417502Y-73534779D01*
X93346949Y-73524500D01*
X93346943Y-73524500D01*
X93153049Y-73524500D01*
X93082493Y-73534779D01*
X92973650Y-73587989D01*
X92937179Y-73624460D01*
X92875856Y-73657945D01*
X92806164Y-73652959D01*
X92750231Y-73611087D01*
X92725815Y-73545623D01*
X92725499Y-73536797D01*
X92725499Y-73403052D01*
X92715220Y-73332491D01*
X92701516Y-73304460D01*
X92689756Y-73235591D01*
X92701515Y-73195540D01*
X92715220Y-73167509D01*
X92725500Y-73096949D01*
X92725499Y-72903052D01*
X92715220Y-72832491D01*
X92701516Y-72804460D01*
X92689756Y-72735591D01*
X92701515Y-72695540D01*
X92715220Y-72667509D01*
X92725500Y-72596949D01*
X92725499Y-72403052D01*
X92715220Y-72332491D01*
X92701516Y-72304460D01*
X92689756Y-72235591D01*
X92701515Y-72195540D01*
X92715220Y-72167509D01*
X92725500Y-72096949D01*
X92725499Y-72096941D01*
X92725501Y-72096935D01*
X92725825Y-72092468D01*
X92727528Y-72092591D01*
X92745185Y-72032460D01*
X92797989Y-71986705D01*
X92842565Y-71977007D01*
X92842480Y-71975823D01*
X92846945Y-71975499D01*
X92846948Y-71975499D01*
X92917509Y-71965220D01*
X92945539Y-71951516D01*
X93014409Y-71939756D01*
X93054459Y-71951515D01*
X93082491Y-71965220D01*
X93153051Y-71975500D01*
X93346948Y-71975499D01*
X93346950Y-71975499D01*
X93375172Y-71971387D01*
X93417509Y-71965220D01*
X93445539Y-71951516D01*
X93514409Y-71939756D01*
X93554459Y-71951515D01*
X93582491Y-71965220D01*
X93653051Y-71975500D01*
X93846948Y-71975499D01*
X93846950Y-71975499D01*
X93875172Y-71971387D01*
X93917509Y-71965220D01*
X93945539Y-71951516D01*
X94014409Y-71939756D01*
X94054459Y-71951515D01*
G37*
%TD.AperFunction*%
%TA.AperFunction,Conductor*%
G36*
X93486498Y-66767108D02*
G01*
X93672499Y-66874496D01*
X94244384Y-67204675D01*
X94244403Y-67204685D01*
X94272173Y-67217424D01*
X94272174Y-67217424D01*
X94272176Y-67217425D01*
X94304864Y-67223609D01*
X94367075Y-67255412D01*
X94402218Y-67315801D01*
X94404752Y-67329261D01*
X94408058Y-67354370D01*
X94414956Y-67406761D01*
X94414956Y-67406762D01*
X94454358Y-67501888D01*
X94475464Y-67552841D01*
X94571718Y-67678282D01*
X94697159Y-67774536D01*
X94843238Y-67835044D01*
X94921619Y-67845363D01*
X94999999Y-67855682D01*
X95000000Y-67855682D01*
X95000001Y-67855682D01*
X95052254Y-67848802D01*
X95156762Y-67835044D01*
X95302841Y-67774536D01*
X95428282Y-67678282D01*
X95524536Y-67552841D01*
X95545642Y-67501883D01*
X95572519Y-67461660D01*
X95610820Y-67423359D01*
X95672143Y-67389875D01*
X95741835Y-67394861D01*
X95797768Y-67436733D01*
X95822184Y-67502198D01*
X95822500Y-67511042D01*
X95822500Y-71669371D01*
X95802815Y-71736410D01*
X95750011Y-71782165D01*
X95680853Y-71792109D01*
X95617297Y-71763084D01*
X95593248Y-71731823D01*
X95592982Y-71732014D01*
X95587658Y-71724557D01*
X95587101Y-71723833D01*
X95587013Y-71723654D01*
X95587011Y-71723651D01*
X95501348Y-71637988D01*
X95392511Y-71584780D01*
X95374869Y-71582210D01*
X95321949Y-71574500D01*
X95321943Y-71574500D01*
X94799499Y-71574500D01*
X94732460Y-71554815D01*
X94686705Y-71502011D01*
X94675499Y-71450500D01*
X94675499Y-70928049D01*
X94669007Y-70883486D01*
X94665220Y-70857491D01*
X94612012Y-70748653D01*
X94612010Y-70748651D01*
X94612010Y-70748650D01*
X94526348Y-70662988D01*
X94417511Y-70609780D01*
X94399869Y-70607210D01*
X94346949Y-70599500D01*
X94346943Y-70599500D01*
X94153049Y-70599500D01*
X94082492Y-70609779D01*
X94082491Y-70609779D01*
X94054457Y-70623484D01*
X93985584Y-70635241D01*
X93945543Y-70623484D01*
X93917511Y-70609781D01*
X93917509Y-70609780D01*
X93917502Y-70609779D01*
X93846949Y-70599500D01*
X93846943Y-70599500D01*
X93653049Y-70599500D01*
X93582492Y-70609779D01*
X93582491Y-70609779D01*
X93554457Y-70623484D01*
X93485584Y-70635241D01*
X93445543Y-70623484D01*
X93417511Y-70609781D01*
X93417509Y-70609780D01*
X93417502Y-70609779D01*
X93346949Y-70599500D01*
X93346943Y-70599500D01*
X93337000Y-70599500D01*
X93269961Y-70579815D01*
X93224206Y-70527011D01*
X93213000Y-70475500D01*
X93213000Y-67686076D01*
X93229613Y-67624075D01*
X93230527Y-67622492D01*
X93262984Y-67566276D01*
X93300500Y-67426266D01*
X93300500Y-66874496D01*
X93320185Y-66807457D01*
X93372989Y-66761702D01*
X93442147Y-66751758D01*
X93486498Y-66767108D01*
G37*
%TD.AperFunction*%
%TA.AperFunction,Conductor*%
G36*
X105755701Y-65087008D02*
G01*
X105780639Y-65116611D01*
X105875832Y-65274209D01*
X106066860Y-65590471D01*
X106067330Y-65591248D01*
X106070492Y-65596802D01*
X106139885Y-65726347D01*
X106419858Y-66249019D01*
X106422732Y-66254735D01*
X106737978Y-66924072D01*
X106740554Y-66929929D01*
X106863947Y-67231348D01*
X106871129Y-67300847D01*
X106839595Y-67363197D01*
X106814735Y-67383588D01*
X106711440Y-67447906D01*
X106711440Y-67447907D01*
X106658645Y-67493653D01*
X106589456Y-67571234D01*
X106535111Y-67685867D01*
X106515426Y-67752907D01*
X106515424Y-67752915D01*
X106499000Y-67867154D01*
X106499000Y-67867155D01*
X106499000Y-68206086D01*
X106499588Y-68215578D01*
X106502100Y-68256132D01*
X106502101Y-68256142D01*
X106505875Y-68286486D01*
X106505877Y-68286500D01*
X106512454Y-68324515D01*
X106559038Y-68442524D01*
X106559039Y-68442525D01*
X106594544Y-68502698D01*
X106594544Y-68502699D01*
X106658397Y-68584706D01*
X106761377Y-68658791D01*
X106761382Y-68658794D01*
X106761385Y-68658796D01*
X106761388Y-68658797D01*
X106761394Y-68658801D01*
X106838631Y-68697700D01*
X106841221Y-68697614D01*
X106863086Y-68705496D01*
X106883353Y-68715033D01*
X106983034Y-68743993D01*
X107011552Y-68756334D01*
X107031682Y-68768239D01*
X107037875Y-68771901D01*
X107062435Y-68790952D01*
X107084046Y-68812563D01*
X107103098Y-68837124D01*
X107118662Y-68863442D01*
X107131004Y-68891963D01*
X107140075Y-68923182D01*
X107145000Y-68957781D01*
X107145000Y-69642219D01*
X107140076Y-69676815D01*
X107131006Y-69708033D01*
X107118661Y-69736560D01*
X107103099Y-69762873D01*
X107084049Y-69787431D01*
X107062432Y-69809048D01*
X107037871Y-69828099D01*
X107011555Y-69843662D01*
X106983033Y-69856005D01*
X106951817Y-69865075D01*
X106917219Y-69870000D01*
X105642561Y-69870000D01*
X105575522Y-69850315D01*
X105535175Y-69808001D01*
X105491815Y-69732898D01*
X105483981Y-69723075D01*
X105382053Y-69595261D01*
X105355644Y-69530574D01*
X105355000Y-69517948D01*
X105355000Y-68957771D01*
X105359922Y-68923181D01*
X105368991Y-68891966D01*
X105381330Y-68863451D01*
X105396904Y-68837117D01*
X105415948Y-68812566D01*
X105437566Y-68790948D01*
X105462119Y-68771903D01*
X105488445Y-68756334D01*
X105516964Y-68743992D01*
X105578097Y-68726232D01*
X105579366Y-68726235D01*
X105593609Y-68721756D01*
X105596192Y-68720975D01*
X105603247Y-68718925D01*
X105616652Y-68715032D01*
X105616653Y-68715036D01*
X105616710Y-68715014D01*
X105616715Y-68715013D01*
X105616719Y-68715010D01*
X105621294Y-68713284D01*
X105621391Y-68713542D01*
X105628077Y-68710918D01*
X105644646Y-68705708D01*
X105680860Y-68692396D01*
X105724570Y-68665178D01*
X105728309Y-68663145D01*
X105731347Y-68661078D01*
X105735528Y-68658354D01*
X105788557Y-68625336D01*
X105841361Y-68579581D01*
X105910542Y-68502009D01*
X105964889Y-68387371D01*
X105984574Y-68320332D01*
X106001000Y-68206086D01*
X106001000Y-67823056D01*
X105992493Y-67740433D01*
X105982197Y-67690962D01*
X105961503Y-67622492D01*
X105896396Y-67513605D01*
X105896396Y-67513604D01*
X105851600Y-67459985D01*
X105846708Y-67455461D01*
X105775282Y-67389413D01*
X105775280Y-67389412D01*
X105775277Y-67389410D01*
X105661641Y-67333012D01*
X105661633Y-67333009D01*
X105594969Y-67312123D01*
X105481046Y-67293643D01*
X105481044Y-67293642D01*
X105481039Y-67293642D01*
X104410463Y-67274352D01*
X102804609Y-67245418D01*
X102804604Y-67245418D01*
X102804600Y-67245418D01*
X102780626Y-67245931D01*
X102772632Y-67246103D01*
X102753116Y-67247292D01*
X102732828Y-67249040D01*
X102732818Y-67249042D01*
X102610495Y-67282662D01*
X102610488Y-67282664D01*
X102610488Y-67282665D01*
X102546845Y-67311492D01*
X102546843Y-67311492D01*
X102546839Y-67311495D01*
X102449564Y-67373585D01*
X102449548Y-67373597D01*
X102148741Y-67632624D01*
X102148737Y-67632629D01*
X102091790Y-67692845D01*
X102091772Y-67692867D01*
X102061066Y-67732834D01*
X102022744Y-67793015D01*
X102022743Y-67793018D01*
X101982610Y-67913374D01*
X101971151Y-67982283D01*
X101971150Y-67982296D01*
X101968616Y-68097686D01*
X101968616Y-68097688D01*
X101976995Y-68166698D01*
X101976995Y-68196588D01*
X101971991Y-68237807D01*
X101964836Y-68266836D01*
X101950107Y-68305671D01*
X101936217Y-68332136D01*
X101912634Y-68366303D01*
X101892809Y-68388681D01*
X101861720Y-68416223D01*
X101837124Y-68433201D01*
X101823969Y-68440106D01*
X101823962Y-68440110D01*
X101800344Y-68452505D01*
X101772398Y-68463103D01*
X101732084Y-68473040D01*
X101702407Y-68476644D01*
X101660883Y-68476644D01*
X101631208Y-68473041D01*
X101576274Y-68459501D01*
X101540020Y-68450565D01*
X101540009Y-68450563D01*
X101540007Y-68450563D01*
X101463640Y-68439309D01*
X101463634Y-68439308D01*
X101463631Y-68439308D01*
X101451895Y-68438709D01*
X101416696Y-68436914D01*
X101416692Y-68436914D01*
X101416690Y-68436914D01*
X101372936Y-68438231D01*
X101351057Y-68438890D01*
X101351053Y-68438891D01*
X101228727Y-68472511D01*
X101165088Y-68501337D01*
X101165081Y-68501341D01*
X101067801Y-68563436D01*
X101067790Y-68563444D01*
X100802917Y-68791529D01*
X100802909Y-68791538D01*
X100798052Y-68797051D01*
X100738964Y-68834338D01*
X100669096Y-68833760D01*
X100617333Y-68802757D01*
X99961814Y-68147238D01*
X99928329Y-68085915D01*
X99927657Y-68036508D01*
X99949744Y-67919778D01*
X99949744Y-67919776D01*
X99934540Y-67784832D01*
X99934538Y-67784826D01*
X99923211Y-67758863D01*
X99880232Y-67660355D01*
X99880231Y-67660354D01*
X99880231Y-67660353D01*
X99791652Y-67557424D01*
X99791650Y-67557422D01*
X99791648Y-67557420D01*
X99782390Y-67550851D01*
X99766721Y-67539732D01*
X98243795Y-66660470D01*
X98243779Y-66660462D01*
X98216006Y-66647722D01*
X98216004Y-66647721D01*
X98183358Y-66641544D01*
X98082565Y-66622472D01*
X97947621Y-66637676D01*
X97947615Y-66637678D01*
X97823142Y-66691985D01*
X97720213Y-66780564D01*
X97720208Y-66780570D01*
X97702521Y-66805495D01*
X97498252Y-67159300D01*
X97485511Y-67187076D01*
X97485510Y-67187079D01*
X97460261Y-67320517D01*
X97475465Y-67455461D01*
X97475467Y-67455467D01*
X97517946Y-67552830D01*
X97526712Y-67622147D01*
X97496611Y-67685200D01*
X97437199Y-67721970D01*
X97418176Y-67725636D01*
X97312617Y-67737530D01*
X97312612Y-67737531D01*
X97188139Y-67791838D01*
X97085210Y-67880417D01*
X97085205Y-67880423D01*
X97067518Y-67905348D01*
X96908887Y-68180107D01*
X96858320Y-68228323D01*
X96789713Y-68241546D01*
X96724848Y-68215578D01*
X96684320Y-68158663D01*
X96677500Y-68118107D01*
X96677500Y-67348438D01*
X96697185Y-67281399D01*
X96713819Y-67260757D01*
X98580757Y-65393819D01*
X98642080Y-65360334D01*
X98668438Y-65357500D01*
X98723325Y-65357500D01*
X98790364Y-65377185D01*
X98817313Y-65400616D01*
X98888353Y-65483165D01*
X98888355Y-65483167D01*
X98888358Y-65483170D01*
X98889741Y-65484151D01*
X98913284Y-65500857D01*
X100436210Y-66380119D01*
X100436226Y-66380127D01*
X100444115Y-66383746D01*
X100464002Y-66392869D01*
X100597439Y-66418117D01*
X100691369Y-66407533D01*
X100732384Y-66402913D01*
X100732385Y-66402912D01*
X100732389Y-66402912D01*
X100856862Y-66348605D01*
X100959797Y-66260021D01*
X100977485Y-66235093D01*
X101177901Y-65887960D01*
X101228468Y-65839745D01*
X101297075Y-65826522D01*
X101361940Y-65852490D01*
X101402468Y-65909404D01*
X101408508Y-65963844D01*
X101404435Y-65999995D01*
X101404435Y-66000003D01*
X101424630Y-66179249D01*
X101424631Y-66179254D01*
X101484211Y-66349523D01*
X101527312Y-66418117D01*
X101580184Y-66502262D01*
X101707738Y-66629816D01*
X101755333Y-66659722D01*
X101860474Y-66725787D01*
X101860478Y-66725789D01*
X101978564Y-66767109D01*
X102030745Y-66785368D01*
X102030750Y-66785369D01*
X102209996Y-66805565D01*
X102210000Y-66805565D01*
X102210004Y-66805565D01*
X102389249Y-66785369D01*
X102389252Y-66785368D01*
X102389255Y-66785368D01*
X102559522Y-66725789D01*
X102712262Y-66629816D01*
X102757321Y-66584757D01*
X102818644Y-66551272D01*
X102888336Y-66556256D01*
X102932683Y-66584757D01*
X102977740Y-66629814D01*
X103130480Y-66725787D01*
X103287024Y-66780564D01*
X103300747Y-66785366D01*
X103300752Y-66785367D01*
X103479998Y-66805563D01*
X103480002Y-66805563D01*
X103480006Y-66805563D01*
X103659251Y-66785367D01*
X103659254Y-66785366D01*
X103659257Y-66785366D01*
X103829524Y-66725787D01*
X103982264Y-66629814D01*
X104027319Y-66584758D01*
X104088640Y-66551274D01*
X104158331Y-66556258D01*
X104202679Y-66584758D01*
X104240394Y-66622472D01*
X104247738Y-66629816D01*
X104295333Y-66659722D01*
X104400474Y-66725787D01*
X104400478Y-66725789D01*
X104518564Y-66767109D01*
X104570745Y-66785368D01*
X104570750Y-66785369D01*
X104749996Y-66805565D01*
X104750000Y-66805565D01*
X104750004Y-66805565D01*
X104929249Y-66785369D01*
X104929252Y-66785368D01*
X104929255Y-66785368D01*
X105099522Y-66725789D01*
X105252262Y-66629816D01*
X105379816Y-66502262D01*
X105475789Y-66349522D01*
X105535368Y-66179255D01*
X105539473Y-66142821D01*
X105555565Y-66000003D01*
X105555565Y-65999996D01*
X105535369Y-65820750D01*
X105535368Y-65820745D01*
X105510374Y-65749317D01*
X105475789Y-65650478D01*
X105443006Y-65598304D01*
X105424006Y-65531068D01*
X105444374Y-65464232D01*
X105460319Y-65444651D01*
X105461230Y-65443740D01*
X105502206Y-65402764D01*
X105547585Y-65299990D01*
X105550500Y-65274864D01*
X105550499Y-65180720D01*
X105570183Y-65113684D01*
X105622986Y-65067928D01*
X105692145Y-65057984D01*
X105755701Y-65087008D01*
G37*
%TD.AperFunction*%
%TD*%
%TA.AperFunction,Conductor*%
%TO.N,+12V*%
G36*
X105473734Y-67699076D02*
G01*
X105540408Y-67719965D01*
X105585204Y-67773585D01*
X105595500Y-67823056D01*
X105595500Y-68206086D01*
X105575815Y-68273125D01*
X105523011Y-68318880D01*
X105503349Y-68325063D01*
X105503515Y-68325634D01*
X105339606Y-68373254D01*
X105339603Y-68373255D01*
X105198137Y-68456917D01*
X105198129Y-68456923D01*
X105081923Y-68573129D01*
X105081917Y-68573137D01*
X104998255Y-68714603D01*
X104998254Y-68714606D01*
X104952402Y-68872426D01*
X104952401Y-68872432D01*
X104949500Y-68909298D01*
X104949500Y-69690701D01*
X104952401Y-69727567D01*
X104952402Y-69727573D01*
X104998254Y-69885393D01*
X104998255Y-69885396D01*
X105081917Y-70026862D01*
X105081923Y-70026870D01*
X105198129Y-70143076D01*
X105198133Y-70143079D01*
X105198135Y-70143081D01*
X105339602Y-70226744D01*
X105381224Y-70238836D01*
X105497426Y-70272597D01*
X105497429Y-70272597D01*
X105497431Y-70272598D01*
X105534306Y-70275500D01*
X105534314Y-70275500D01*
X106965686Y-70275500D01*
X106965694Y-70275500D01*
X107002569Y-70272598D01*
X107002571Y-70272597D01*
X107002573Y-70272597D01*
X107044191Y-70260505D01*
X107160398Y-70226744D01*
X107301865Y-70143081D01*
X107418081Y-70026865D01*
X107501744Y-69885398D01*
X107547598Y-69727569D01*
X107550500Y-69690694D01*
X107550500Y-68909306D01*
X107547598Y-68872431D01*
X107547099Y-68870714D01*
X107501745Y-68714606D01*
X107501744Y-68714603D01*
X107501744Y-68714602D01*
X107418081Y-68573135D01*
X107418079Y-68573133D01*
X107418076Y-68573129D01*
X107301870Y-68456923D01*
X107301862Y-68456917D01*
X107160396Y-68373255D01*
X107160393Y-68373254D01*
X106996485Y-68325634D01*
X106997107Y-68323490D01*
X106943783Y-68296634D01*
X106908277Y-68236458D01*
X106904500Y-68206086D01*
X106904500Y-67867155D01*
X106924185Y-67800116D01*
X106976989Y-67754361D01*
X107046147Y-67744417D01*
X107109703Y-67773442D01*
X107118769Y-67782141D01*
X107122511Y-67786114D01*
X107149116Y-67807824D01*
X107158392Y-67816207D01*
X107182685Y-67840500D01*
X107196164Y-67848282D01*
X107212558Y-67859594D01*
X107224616Y-67869434D01*
X107255932Y-67883518D01*
X107267058Y-67889213D01*
X107296813Y-67906392D01*
X107311843Y-67910419D01*
X107330608Y-67917103D01*
X107344804Y-67923488D01*
X107378712Y-67928989D01*
X107390923Y-67931608D01*
X107424107Y-67940500D01*
X107439664Y-67940500D01*
X107459520Y-67942099D01*
X107474887Y-67944593D01*
X107509060Y-67941130D01*
X107521557Y-67940500D01*
X113664961Y-67940500D01*
X113732000Y-67960185D01*
X113777755Y-68012989D01*
X113788961Y-68064607D01*
X113784379Y-73378718D01*
X113764637Y-73445740D01*
X113711793Y-73491450D01*
X113662718Y-73502589D01*
X101954781Y-73723494D01*
X101954780Y-73723494D01*
X100550000Y-73750000D01*
X100848162Y-70358387D01*
X100900852Y-70330734D01*
X101028183Y-70217929D01*
X101124818Y-70077930D01*
X101185140Y-69918872D01*
X101205645Y-69750000D01*
X101185140Y-69581128D01*
X101124818Y-69422070D01*
X101049450Y-69312881D01*
X101027567Y-69246527D01*
X101027500Y-69242441D01*
X101027500Y-69220554D01*
X101026439Y-69212496D01*
X101028956Y-69212164D01*
X101030318Y-69155008D01*
X101067513Y-69098807D01*
X101332395Y-68870714D01*
X101396036Y-68841888D01*
X101442977Y-68844282D01*
X101596588Y-68882144D01*
X101766700Y-68882144D01*
X101931869Y-68841434D01*
X102011336Y-68799725D01*
X102082493Y-68762380D01*
X102082494Y-68762378D01*
X102082496Y-68762378D01*
X102209827Y-68649573D01*
X102306462Y-68509574D01*
X102366784Y-68350516D01*
X102387289Y-68181644D01*
X102371159Y-68048805D01*
X102382619Y-67979885D01*
X102413337Y-67939903D01*
X102714153Y-67680867D01*
X102777796Y-67652040D01*
X102797295Y-67650852D01*
X105473734Y-67699076D01*
G37*
%TD.AperFunction*%
%TD*%
%TA.AperFunction,Conductor*%
%TO.N,+3V3*%
G36*
X93028873Y-65269685D02*
G01*
X93031560Y-65271461D01*
X94159955Y-66038769D01*
X94204323Y-66092744D01*
X94212467Y-66162137D01*
X94181801Y-66224917D01*
X94122062Y-66261152D01*
X94088812Y-66265300D01*
X92800530Y-66250577D01*
X92733720Y-66230128D01*
X92714266Y-66214266D01*
X92087681Y-65587681D01*
X92054196Y-65526358D01*
X92059180Y-65456666D01*
X92087681Y-65412319D01*
X92213681Y-65286319D01*
X92275004Y-65252834D01*
X92301362Y-65250000D01*
X92961834Y-65250000D01*
X93028873Y-65269685D01*
G37*
%TD.AperFunction*%
%TD*%
%TA.AperFunction,Conductor*%
%TO.N,+5V*%
G36*
X100856606Y-80619685D02*
G01*
X100877248Y-80636319D01*
X100941713Y-80700784D01*
X100941716Y-80700786D01*
X100941719Y-80700789D01*
X101058285Y-80760182D01*
X101058286Y-80760182D01*
X101058288Y-80760183D01*
X101058287Y-80760183D01*
X101101618Y-80767045D01*
X101154997Y-80775500D01*
X101795002Y-80775499D01*
X101795007Y-80775499D01*
X101795007Y-80775498D01*
X101891715Y-80760182D01*
X102008281Y-80700789D01*
X102008282Y-80700787D01*
X102016976Y-80696358D01*
X102018372Y-80699099D01*
X102068913Y-80681063D01*
X102136968Y-80696884D01*
X102185666Y-80746986D01*
X102200000Y-80804860D01*
X102200000Y-81676000D01*
X102180315Y-81743039D01*
X102127511Y-81788794D01*
X102076000Y-81800000D01*
X101234345Y-81800000D01*
X101170549Y-81782329D01*
X100260202Y-81236121D01*
X100212844Y-81184750D01*
X100200000Y-81129792D01*
X100200000Y-80724500D01*
X100219685Y-80657461D01*
X100272489Y-80611706D01*
X100324000Y-80600500D01*
X100473077Y-80600500D01*
X100475962Y-80600365D01*
X100475962Y-80600385D01*
X100484198Y-80600000D01*
X100789567Y-80600000D01*
X100856606Y-80619685D01*
G37*
%TD.AperFunction*%
%TD*%
%TA.AperFunction,Conductor*%
%TO.N,Net-(IC1-OUT1)*%
G36*
X87428242Y-77120185D02*
G01*
X87473997Y-77172989D01*
X87484142Y-77240686D01*
X87469750Y-77349999D01*
X87469750Y-77350000D01*
X87488670Y-77493708D01*
X87488671Y-77493712D01*
X87544137Y-77627622D01*
X87544138Y-77627624D01*
X87544139Y-77627625D01*
X87632379Y-77742621D01*
X87747375Y-77830861D01*
X87763741Y-77837640D01*
X87818144Y-77881480D01*
X87830488Y-77903884D01*
X87849999Y-77949999D01*
X87850000Y-77950000D01*
X87902855Y-77987309D01*
X87946272Y-78042050D01*
X87954285Y-78072426D01*
X87963670Y-78143708D01*
X87963671Y-78143712D01*
X88019137Y-78277622D01*
X88019138Y-78277624D01*
X88019139Y-78277625D01*
X88107379Y-78392621D01*
X88222375Y-78480861D01*
X88356291Y-78536330D01*
X88483280Y-78553048D01*
X88499999Y-78555250D01*
X88500000Y-78555250D01*
X88500001Y-78555250D01*
X88522669Y-78552265D01*
X88626753Y-78538562D01*
X88695786Y-78549327D01*
X88714444Y-78560196D01*
X89550000Y-79150000D01*
X89550005Y-79150003D01*
X89550007Y-79150004D01*
X90705598Y-79775949D01*
X90755170Y-79825187D01*
X90764967Y-79848228D01*
X90877454Y-80210687D01*
X90878524Y-80280548D01*
X90875208Y-80290772D01*
X90855910Y-80342512D01*
X90855909Y-80342516D01*
X90855909Y-80342518D01*
X90849500Y-80402128D01*
X90849500Y-80402135D01*
X90849500Y-80402136D01*
X90849500Y-81147871D01*
X90849501Y-81147877D01*
X90855908Y-81207484D01*
X90906202Y-81342329D01*
X90906203Y-81342330D01*
X90906204Y-81342332D01*
X90992452Y-81457544D01*
X90992455Y-81457548D01*
X90994455Y-81459045D01*
X90995950Y-81461042D01*
X90998722Y-81463814D01*
X90998323Y-81464212D01*
X91036325Y-81514979D01*
X91041308Y-81584671D01*
X91032611Y-81610528D01*
X90576926Y-82592005D01*
X90530841Y-82644521D01*
X90487138Y-82661695D01*
X88559863Y-83020257D01*
X88490354Y-83013167D01*
X88449501Y-82986030D01*
X88059772Y-82596301D01*
X88059770Y-82596299D01*
X88034320Y-82581605D01*
X87986838Y-82554191D01*
X87986837Y-82554191D01*
X87944730Y-82529881D01*
X87944731Y-82529881D01*
X87912652Y-82521285D01*
X87816419Y-82495500D01*
X87816416Y-82495500D01*
X87760071Y-82495500D01*
X87693032Y-82475815D01*
X87681976Y-82467818D01*
X86816453Y-81766043D01*
X86776777Y-81708531D01*
X86774492Y-81638699D01*
X86778985Y-81624766D01*
X86792650Y-81589652D01*
X86809110Y-81518815D01*
X86911476Y-80324535D01*
X86910260Y-80269647D01*
X86903403Y-80217112D01*
X86898352Y-80189951D01*
X86856402Y-80099515D01*
X86846373Y-80085780D01*
X86846360Y-80085742D01*
X86839515Y-80076372D01*
X86838885Y-80074622D01*
X86826269Y-80058180D01*
X86824517Y-80055840D01*
X86816092Y-80044307D01*
X86816093Y-80044307D01*
X86815166Y-80043038D01*
X86815165Y-80043037D01*
X86796670Y-80017706D01*
X86788373Y-80008793D01*
X86752253Y-79961720D01*
X86736068Y-79933686D01*
X86718840Y-79892093D01*
X86710462Y-79860828D01*
X86704584Y-79816177D01*
X86704584Y-79783820D01*
X86710462Y-79739166D01*
X86718837Y-79707911D01*
X86730999Y-79678553D01*
X86745582Y-79630401D01*
X86755020Y-79582731D01*
X86758469Y-79559972D01*
X86749408Y-79460694D01*
X86729605Y-79393689D01*
X86699278Y-79327591D01*
X85915511Y-78112751D01*
X85913796Y-78110128D01*
X85912138Y-78107626D01*
X85912105Y-78107576D01*
X85910477Y-78105151D01*
X85713871Y-77816024D01*
X85692452Y-77749519D01*
X85710388Y-77681991D01*
X85736912Y-77652398D01*
X85736878Y-77652364D01*
X85737513Y-77651728D01*
X85740925Y-77647921D01*
X85742621Y-77646621D01*
X85830861Y-77531625D01*
X85886330Y-77397709D01*
X85905250Y-77254000D01*
X85905250Y-77253999D01*
X85905250Y-77245871D01*
X85908828Y-77245871D01*
X85917031Y-77193030D01*
X85941562Y-77158120D01*
X85962866Y-77136817D01*
X86024190Y-77103333D01*
X86050545Y-77100500D01*
X87361203Y-77100500D01*
X87428242Y-77120185D01*
G37*
%TD.AperFunction*%
%TA.AperFunction,Conductor*%
G36*
X86990474Y-75070244D02*
G01*
X87037719Y-75117897D01*
X87235783Y-75474412D01*
X87251271Y-75529246D01*
X87283483Y-76270114D01*
X87266729Y-76337945D01*
X87215962Y-76385950D01*
X87159600Y-76399500D01*
X86033787Y-76399500D01*
X85966748Y-76379815D01*
X85920993Y-76327011D01*
X85911201Y-76268265D01*
X85910499Y-76268265D01*
X85910499Y-76264051D01*
X85910383Y-76263356D01*
X85910499Y-76262177D01*
X85910499Y-76025784D01*
X85913086Y-76000585D01*
X86080631Y-75193322D01*
X86113529Y-75131682D01*
X86174529Y-75097612D01*
X86195154Y-75094713D01*
X86922447Y-75054308D01*
X86990474Y-75070244D01*
G37*
%TD.AperFunction*%
%TD*%
%TA.AperFunction,Conductor*%
%TO.N,+12V*%
G36*
X100550000Y-73750000D02*
G01*
X101954780Y-73723494D01*
X101752364Y-76962173D01*
X101728535Y-77027854D01*
X101726890Y-77030042D01*
X100450809Y-78688945D01*
X100394332Y-78730080D01*
X100324581Y-78734152D01*
X100305073Y-78727903D01*
X100270710Y-78713670D01*
X100127001Y-78694750D01*
X100126999Y-78694750D01*
X99983291Y-78713670D01*
X99983287Y-78713671D01*
X99849377Y-78769137D01*
X99734379Y-78857379D01*
X99646137Y-78972377D01*
X99590671Y-79106287D01*
X99590670Y-79106291D01*
X99571750Y-79249999D01*
X99571750Y-79250000D01*
X99590670Y-79393708D01*
X99590670Y-79393709D01*
X99613061Y-79447765D01*
X99622500Y-79495218D01*
X99622500Y-79723575D01*
X99602815Y-79790614D01*
X99596785Y-79799179D01*
X99258366Y-80239123D01*
X99239464Y-80258779D01*
X99016014Y-80444987D01*
X98984087Y-80464287D01*
X98972377Y-80469137D01*
X98972370Y-80469141D01*
X98966199Y-80473877D01*
X98901030Y-80499070D01*
X98890715Y-80499500D01*
X98373881Y-80499500D01*
X98284785Y-80523373D01*
X98284784Y-80523372D01*
X98259304Y-80530200D01*
X98259303Y-80530200D01*
X98156576Y-80589511D01*
X98156573Y-80589513D01*
X97047012Y-81699074D01*
X97047008Y-81699080D01*
X96987700Y-81801803D01*
X96987699Y-81801808D01*
X96956999Y-81916382D01*
X96956999Y-82102755D01*
X96937314Y-82169794D01*
X96912382Y-82198014D01*
X96252444Y-82747962D01*
X96247461Y-82751903D01*
X95324400Y-83444200D01*
X95258958Y-83468676D01*
X95190671Y-83453886D01*
X95175600Y-83444200D01*
X94273417Y-82767563D01*
X94236908Y-82723817D01*
X94000001Y-82250001D01*
X94000000Y-82250000D01*
X91558321Y-82005832D01*
X91493573Y-81979574D01*
X91467488Y-81951232D01*
X91308262Y-81712394D01*
X91287455Y-81645695D01*
X91288403Y-81628172D01*
X91296157Y-81566449D01*
X91295716Y-81560284D01*
X91292409Y-81514026D01*
X91291174Y-81496757D01*
X91287609Y-81474754D01*
X91283891Y-81451800D01*
X91283890Y-81451797D01*
X91259349Y-81400500D01*
X91240867Y-81361868D01*
X91231263Y-81349038D01*
X91231261Y-81349033D01*
X91196373Y-81302429D01*
X91196370Y-81302424D01*
X91175619Y-81274702D01*
X91171105Y-81269850D01*
X91143441Y-81232896D01*
X91126524Y-81201916D01*
X91112817Y-81165164D01*
X91105000Y-81121833D01*
X91105000Y-80428167D01*
X91112822Y-80384824D01*
X91114593Y-80380076D01*
X91116535Y-80374503D01*
X91118245Y-80369597D01*
X91121561Y-80359373D01*
X91133994Y-80276635D01*
X91133837Y-80266415D01*
X91133030Y-80213716D01*
X91132924Y-80206774D01*
X91121473Y-80134957D01*
X91008986Y-79772498D01*
X91000095Y-79748252D01*
X90990298Y-79725211D01*
X90935224Y-79643912D01*
X90935220Y-79643908D01*
X90935218Y-79643905D01*
X90885658Y-79594679D01*
X90885642Y-79594666D01*
X90827286Y-79551288D01*
X89691446Y-78936042D01*
X89678996Y-78928314D01*
X89069012Y-78497737D01*
X89042146Y-78471920D01*
X88993600Y-78408655D01*
X88968405Y-78343487D01*
X88980167Y-78286135D01*
X88977751Y-78285134D01*
X88994896Y-78243741D01*
X89036330Y-78143709D01*
X89055250Y-78000000D01*
X89036330Y-77856291D01*
X88984939Y-77732220D01*
X88975500Y-77684768D01*
X88975500Y-77055329D01*
X88975500Y-77055327D01*
X88951614Y-76966183D01*
X88944748Y-76954291D01*
X88905470Y-76886259D01*
X88488741Y-76469530D01*
X88488740Y-76469529D01*
X88488737Y-76469527D01*
X88408819Y-76423387D01*
X88408818Y-76423386D01*
X88398953Y-76420743D01*
X88389089Y-76418100D01*
X88389086Y-76418099D01*
X88350268Y-76407698D01*
X88319673Y-76399500D01*
X88319672Y-76399500D01*
X87661714Y-76399500D01*
X87594675Y-76379815D01*
X87548920Y-76327011D01*
X87538325Y-76263207D01*
X87538741Y-76259027D01*
X87538741Y-76259026D01*
X87538742Y-76259016D01*
X87506530Y-75518148D01*
X87497151Y-75459797D01*
X87481663Y-75404963D01*
X87481659Y-75404954D01*
X87481657Y-75404947D01*
X87459129Y-75350327D01*
X87420212Y-75280277D01*
X87404862Y-75212114D01*
X87417696Y-75164606D01*
X87465728Y-75068543D01*
X87513315Y-75017387D01*
X87576636Y-75000000D01*
X88198638Y-75000000D01*
X88265677Y-75019685D01*
X88286319Y-75036319D01*
X90750000Y-77500000D01*
X94998500Y-77500000D01*
X95065539Y-77519685D01*
X95111294Y-77572489D01*
X95122500Y-77624000D01*
X95122500Y-78049698D01*
X95148226Y-78145709D01*
X95148226Y-78145710D01*
X95178374Y-78197928D01*
X95193925Y-78243741D01*
X95213670Y-78393707D01*
X95213671Y-78393712D01*
X95269137Y-78527622D01*
X95269138Y-78527624D01*
X95269139Y-78527625D01*
X95357379Y-78642621D01*
X95472375Y-78730861D01*
X95472376Y-78730861D01*
X95472377Y-78730862D01*
X95480320Y-78734152D01*
X95606291Y-78786330D01*
X95733280Y-78803048D01*
X95749999Y-78805250D01*
X95750000Y-78805250D01*
X95750001Y-78805250D01*
X95764977Y-78803278D01*
X95893709Y-78786330D01*
X96027625Y-78730861D01*
X96142621Y-78642621D01*
X96230861Y-78527625D01*
X96286330Y-78393709D01*
X96305250Y-78250000D01*
X96286330Y-78106291D01*
X96249350Y-78017013D01*
X96230862Y-77972377D01*
X96230861Y-77972376D01*
X96230861Y-77972375D01*
X96142621Y-77857379D01*
X96027625Y-77769139D01*
X96027623Y-77769138D01*
X95954047Y-77738662D01*
X95899644Y-77694821D01*
X95877579Y-77628527D01*
X95877500Y-77624101D01*
X95877500Y-77566936D01*
X95897185Y-77499897D01*
X95913814Y-77479259D01*
X96051782Y-77341290D01*
X96113103Y-77307807D01*
X96182795Y-77312791D01*
X96213773Y-77329705D01*
X96269774Y-77371627D01*
X96397886Y-77419411D01*
X96454515Y-77425499D01*
X97045484Y-77425498D01*
X97102114Y-77419411D01*
X97230226Y-77371627D01*
X97339687Y-77289686D01*
X97421628Y-77180225D01*
X97469412Y-77052113D01*
X97472020Y-77027854D01*
X97475499Y-76995500D01*
X97475499Y-76995493D01*
X97475500Y-76995484D01*
X97475499Y-76454515D01*
X97469412Y-76397885D01*
X97458645Y-76369019D01*
X97451588Y-76350100D01*
X97421628Y-76269773D01*
X97339687Y-76160312D01*
X97275737Y-76112440D01*
X97246951Y-76082069D01*
X97240518Y-76072441D01*
X97240513Y-76072436D01*
X97240513Y-76072435D01*
X97171719Y-76003641D01*
X97138234Y-75942318D01*
X97143218Y-75872626D01*
X97171715Y-75828284D01*
X98500000Y-74500000D01*
X98500000Y-71051362D01*
X98519685Y-70984323D01*
X98536319Y-70963681D01*
X98968702Y-70531297D01*
X99030023Y-70497814D01*
X99044028Y-70495597D01*
X99195493Y-70480450D01*
X99255278Y-70489273D01*
X99295484Y-70505927D01*
X99422473Y-70522645D01*
X99439192Y-70524847D01*
X99439193Y-70524847D01*
X99439194Y-70524847D01*
X99454170Y-70522875D01*
X99582902Y-70505927D01*
X99716818Y-70450458D01*
X99721977Y-70446499D01*
X99785125Y-70421487D01*
X100851995Y-70314800D01*
X100550000Y-73750000D01*
G37*
%TD.AperFunction*%
%TD*%
%TA.AperFunction,Conductor*%
%TO.N,+12V*%
G36*
X107240403Y-75769685D02*
G01*
X107284273Y-75818546D01*
X107298981Y-75847962D01*
X107311168Y-75888468D01*
X107314859Y-75918870D01*
X107314860Y-75918875D01*
X107375182Y-76077930D01*
X107375182Y-76077931D01*
X107466548Y-76210296D01*
X107488431Y-76276650D01*
X107484796Y-76310810D01*
X107410901Y-76606392D01*
X107392655Y-76646755D01*
X107375181Y-76672070D01*
X107375177Y-76672078D01*
X107314861Y-76831122D01*
X107314859Y-76831130D01*
X107294355Y-77000000D01*
X107294355Y-77000003D01*
X107297521Y-77026084D01*
X107294723Y-77071101D01*
X107252040Y-77241838D01*
X107246873Y-77257816D01*
X106750010Y-78499971D01*
X106677907Y-78692247D01*
X106657180Y-78727948D01*
X106652386Y-78733718D01*
X106652383Y-78733721D01*
X106639142Y-78762474D01*
X106632802Y-78774468D01*
X106616503Y-78801592D01*
X106613450Y-78812239D01*
X106605509Y-78832810D01*
X106296034Y-79461550D01*
X106293052Y-79467233D01*
X105931718Y-80114493D01*
X105928447Y-80120012D01*
X105726194Y-80441962D01*
X105673864Y-80488258D01*
X105621194Y-80500000D01*
X105139720Y-80500000D01*
X105072681Y-80480315D01*
X105052039Y-80463681D01*
X105026348Y-80437990D01*
X104917511Y-80384782D01*
X104899869Y-80382212D01*
X104846949Y-80374502D01*
X104846943Y-80374502D01*
X104696778Y-80374502D01*
X104629739Y-80354817D01*
X104583984Y-80302013D01*
X104574040Y-80232855D01*
X104603065Y-80169299D01*
X104661843Y-80131525D01*
X104664636Y-80130740D01*
X104668445Y-80129719D01*
X104700523Y-80125499D01*
X104846951Y-80125499D01*
X104875173Y-80121387D01*
X104917510Y-80115220D01*
X105026348Y-80062012D01*
X105112013Y-79976347D01*
X105165221Y-79867509D01*
X105175501Y-79796949D01*
X105175500Y-79503052D01*
X105172473Y-79482276D01*
X105165221Y-79432493D01*
X105165221Y-79432492D01*
X105165221Y-79432491D01*
X105151516Y-79404458D01*
X105139757Y-79335588D01*
X105151518Y-79295536D01*
X105153753Y-79290963D01*
X105165220Y-79267509D01*
X105175500Y-79196949D01*
X105175499Y-78923802D01*
X105195183Y-78856764D01*
X105247987Y-78811009D01*
X105283311Y-78800864D01*
X105393709Y-78786330D01*
X105527625Y-78730861D01*
X105642621Y-78642621D01*
X105730861Y-78527625D01*
X105786330Y-78393709D01*
X105805250Y-78250000D01*
X105790792Y-78140184D01*
X105801557Y-78071151D01*
X105847937Y-78018895D01*
X105913731Y-78000000D01*
X106250000Y-78000000D01*
X106250000Y-76279272D01*
X106263091Y-76223818D01*
X106465727Y-75818546D01*
X106513314Y-75767387D01*
X106576636Y-75750000D01*
X107173364Y-75750000D01*
X107240403Y-75769685D01*
G37*
%TD.AperFunction*%
%TD*%
%TA.AperFunction,Conductor*%
%TO.N,+3V3*%
G36*
X94361163Y-84429556D02*
G01*
X94388175Y-84450020D01*
X94430750Y-84492595D01*
X94430751Y-84492595D01*
X94430755Y-84492598D01*
X94540770Y-84543898D01*
X94540771Y-84543898D01*
X94540777Y-84543901D01*
X94590909Y-84550501D01*
X94738000Y-84550500D01*
X94805039Y-84570184D01*
X94850794Y-84622988D01*
X94862000Y-84674500D01*
X94862000Y-85557771D01*
X94842315Y-85624810D01*
X94789511Y-85670565D01*
X94730020Y-85681514D01*
X94255170Y-85650890D01*
X94214440Y-85641179D01*
X93183354Y-85200742D01*
X93129436Y-85156306D01*
X93108102Y-85089773D01*
X93112288Y-85054622D01*
X93244336Y-84561811D01*
X93280701Y-84502153D01*
X93343548Y-84471624D01*
X93356678Y-84470130D01*
X94293069Y-84413925D01*
X94361163Y-84429556D01*
G37*
%TD.AperFunction*%
%TD*%
%TA.AperFunction,Conductor*%
%TO.N,Net-(IC1-OUT2)*%
G36*
X84653955Y-75232537D02*
G01*
X84716390Y-75263896D01*
X84751961Y-75324033D01*
X84755569Y-75347461D01*
X84759297Y-75412696D01*
X84759499Y-75419771D01*
X84759499Y-76262177D01*
X84774032Y-76335238D01*
X84796797Y-76369309D01*
X84817492Y-76431125D01*
X84849515Y-76991522D01*
X84840279Y-77046046D01*
X84813670Y-77110287D01*
X84794750Y-77253999D01*
X84794750Y-77254000D01*
X84813670Y-77397708D01*
X84813671Y-77397712D01*
X84869137Y-77531622D01*
X84869138Y-77531624D01*
X84869139Y-77531625D01*
X84957379Y-77646621D01*
X85072375Y-77734861D01*
X85072376Y-77734861D01*
X85072377Y-77734862D01*
X85117013Y-77753350D01*
X85206291Y-77790330D01*
X85350000Y-77809250D01*
X85350000Y-77809249D01*
X85350131Y-77809267D01*
X85414028Y-77837534D01*
X85436485Y-77862480D01*
X85699157Y-78248762D01*
X85700815Y-78251264D01*
X86484582Y-79466104D01*
X86504385Y-79533109D01*
X86494947Y-79580779D01*
X86463670Y-79656290D01*
X86463670Y-79656291D01*
X86444750Y-79799999D01*
X86444750Y-79800000D01*
X86463670Y-79943708D01*
X86463671Y-79943712D01*
X86519137Y-80077622D01*
X86519138Y-80077624D01*
X86519139Y-80077625D01*
X86607379Y-80192621D01*
X86607382Y-80192623D01*
X86608851Y-80193751D01*
X86609778Y-80195020D01*
X86613129Y-80198372D01*
X86612606Y-80198894D01*
X86650052Y-80250180D01*
X86656909Y-80302715D01*
X86554543Y-81496995D01*
X86529205Y-81562108D01*
X86508458Y-81583233D01*
X85402090Y-82468328D01*
X85337444Y-82494836D01*
X85324628Y-82495500D01*
X84507799Y-82495500D01*
X84440760Y-82475815D01*
X84420118Y-82459181D01*
X83137377Y-81176440D01*
X83134595Y-81173568D01*
X82582925Y-80585120D01*
X82551435Y-80522749D01*
X82549398Y-80501861D01*
X82545611Y-80198894D01*
X82500536Y-76592924D01*
X82519381Y-76525646D01*
X82526106Y-76515948D01*
X83603923Y-75110100D01*
X83660333Y-75068875D01*
X83724509Y-75063547D01*
X84653955Y-75232537D01*
G37*
%TD.AperFunction*%
%TD*%
M02*
