%TF.GenerationSoftware,KiCad,Pcbnew,8.0.4*%
%TF.CreationDate,2024-10-21T16:59:15+03:00*%
%TF.ProjectId,PowerServo AE 36V 3.6A 30D,506f7765-7253-4657-9276-6f2041452033,rev?*%
%TF.SameCoordinates,Original*%
%TF.FileFunction,Legend,Top*%
%TF.FilePolarity,Positive*%
%FSLAX46Y46*%
G04 Gerber Fmt 4.6, Leading zero omitted, Abs format (unit mm)*
G04 Created by KiCad (PCBNEW 8.0.4) date 2024-10-21 16:59:15*
%MOMM*%
%LPD*%
G01*
G04 APERTURE LIST*
%ADD10C,0.100000*%
%ADD11C,0.150000*%
%ADD12C,0.120000*%
%ADD13C,0.010000*%
G04 APERTURE END LIST*
D10*
X90099588Y-75745770D02*
X90604665Y-76250847D01*
X90604665Y-76250847D02*
X90672008Y-76385534D01*
X90672008Y-76385534D02*
X90672008Y-76520221D01*
X90672008Y-76520221D02*
X90604665Y-76654908D01*
X90604665Y-76654908D02*
X90537321Y-76722251D01*
X91480130Y-75779442D02*
X91143413Y-76116159D01*
X91143413Y-76116159D02*
X90436306Y-75409053D01*
X92052550Y-75072335D02*
X92052550Y-75139678D01*
X92052550Y-75139678D02*
X91985207Y-75274365D01*
X91985207Y-75274365D02*
X91917863Y-75341709D01*
X91917863Y-75341709D02*
X91783176Y-75409052D01*
X91783176Y-75409052D02*
X91648489Y-75409052D01*
X91648489Y-75409052D02*
X91547474Y-75375381D01*
X91547474Y-75375381D02*
X91379115Y-75274365D01*
X91379115Y-75274365D02*
X91278100Y-75173350D01*
X91278100Y-75173350D02*
X91177085Y-75004991D01*
X91177085Y-75004991D02*
X91143413Y-74903976D01*
X91143413Y-74903976D02*
X91143413Y-74769289D01*
X91143413Y-74769289D02*
X91210757Y-74634602D01*
X91210757Y-74634602D02*
X91278100Y-74567259D01*
X91278100Y-74567259D02*
X91412787Y-74499915D01*
X91412787Y-74499915D02*
X91480131Y-74499915D01*
X91917863Y-73927495D02*
X92422940Y-74432572D01*
X92422940Y-74432572D02*
X92490283Y-74567259D01*
X92490283Y-74567259D02*
X92490283Y-74701946D01*
X92490283Y-74701946D02*
X92422940Y-74836633D01*
X92422940Y-74836633D02*
X92355596Y-74903976D01*
X93298405Y-73961167D02*
X92961688Y-74297884D01*
X92961688Y-74297884D02*
X92254581Y-73590778D01*
X93870825Y-73254060D02*
X93870825Y-73321404D01*
X93870825Y-73321404D02*
X93803482Y-73456091D01*
X93803482Y-73456091D02*
X93736138Y-73523434D01*
X93736138Y-73523434D02*
X93601451Y-73590778D01*
X93601451Y-73590778D02*
X93466764Y-73590778D01*
X93466764Y-73590778D02*
X93365749Y-73557106D01*
X93365749Y-73557106D02*
X93197390Y-73456091D01*
X93197390Y-73456091D02*
X93096375Y-73355075D01*
X93096375Y-73355075D02*
X92995360Y-73186717D01*
X92995360Y-73186717D02*
X92961688Y-73085701D01*
X92961688Y-73085701D02*
X92961688Y-72951014D01*
X92961688Y-72951014D02*
X93029031Y-72816327D01*
X93029031Y-72816327D02*
X93096375Y-72748984D01*
X93096375Y-72748984D02*
X93231062Y-72681640D01*
X93231062Y-72681640D02*
X93298405Y-72681640D01*
X93736138Y-72109220D02*
X94241215Y-72614297D01*
X94241215Y-72614297D02*
X94308558Y-72748984D01*
X94308558Y-72748984D02*
X94308558Y-72883671D01*
X94308558Y-72883671D02*
X94241215Y-73018358D01*
X94241215Y-73018358D02*
X94173871Y-73085701D01*
X95116680Y-72142892D02*
X94779963Y-72479610D01*
X94779963Y-72479610D02*
X94072856Y-71772503D01*
X95689100Y-71435785D02*
X95689100Y-71503129D01*
X95689100Y-71503129D02*
X95621757Y-71637816D01*
X95621757Y-71637816D02*
X95554413Y-71705159D01*
X95554413Y-71705159D02*
X95419726Y-71772503D01*
X95419726Y-71772503D02*
X95285039Y-71772503D01*
X95285039Y-71772503D02*
X95184024Y-71738831D01*
X95184024Y-71738831D02*
X95015665Y-71637816D01*
X95015665Y-71637816D02*
X94914650Y-71536800D01*
X94914650Y-71536800D02*
X94813635Y-71368442D01*
X94813635Y-71368442D02*
X94779963Y-71267426D01*
X94779963Y-71267426D02*
X94779963Y-71132739D01*
X94779963Y-71132739D02*
X94847306Y-70998052D01*
X94847306Y-70998052D02*
X94914650Y-70930709D01*
X94914650Y-70930709D02*
X95049337Y-70863365D01*
X95049337Y-70863365D02*
X95116680Y-70863365D01*
X95554413Y-70290946D02*
X96059489Y-70796022D01*
X96059489Y-70796022D02*
X96126833Y-70930709D01*
X96126833Y-70930709D02*
X96126833Y-71065396D01*
X96126833Y-71065396D02*
X96059489Y-71200083D01*
X96059489Y-71200083D02*
X95992146Y-71267426D01*
X96934955Y-70324617D02*
X96598238Y-70661335D01*
X96598238Y-70661335D02*
X95891131Y-69954228D01*
X97507375Y-69617510D02*
X97507375Y-69684854D01*
X97507375Y-69684854D02*
X97440032Y-69819541D01*
X97440032Y-69819541D02*
X97372688Y-69886884D01*
X97372688Y-69886884D02*
X97238001Y-69954228D01*
X97238001Y-69954228D02*
X97103314Y-69954228D01*
X97103314Y-69954228D02*
X97002299Y-69920556D01*
X97002299Y-69920556D02*
X96833940Y-69819541D01*
X96833940Y-69819541D02*
X96732925Y-69718526D01*
X96732925Y-69718526D02*
X96631909Y-69550167D01*
X96631909Y-69550167D02*
X96598238Y-69449152D01*
X96598238Y-69449152D02*
X96598238Y-69314465D01*
X96598238Y-69314465D02*
X96665581Y-69179777D01*
X96665581Y-69179777D02*
X96732925Y-69112434D01*
X96732925Y-69112434D02*
X96867612Y-69045090D01*
X96867612Y-69045090D02*
X96934955Y-69045090D01*
X83803884Y-78372419D02*
X83803884Y-77372419D01*
X83803884Y-77372419D02*
X84137217Y-78086704D01*
X84137217Y-78086704D02*
X84470550Y-77372419D01*
X84470550Y-77372419D02*
X84470550Y-78372419D01*
X84708646Y-78467657D02*
X85470550Y-78467657D01*
X85661027Y-78086704D02*
X86137217Y-78086704D01*
X85565789Y-78372419D02*
X85899122Y-77372419D01*
X85899122Y-77372419D02*
X86232455Y-78372419D01*
X93756265Y-80104912D02*
X93899122Y-80152531D01*
X93899122Y-80152531D02*
X94137217Y-80152531D01*
X94137217Y-80152531D02*
X94232455Y-80104912D01*
X94232455Y-80104912D02*
X94280074Y-80057292D01*
X94280074Y-80057292D02*
X94327693Y-79962054D01*
X94327693Y-79962054D02*
X94327693Y-79866816D01*
X94327693Y-79866816D02*
X94280074Y-79771578D01*
X94280074Y-79771578D02*
X94232455Y-79723959D01*
X94232455Y-79723959D02*
X94137217Y-79676340D01*
X94137217Y-79676340D02*
X93946741Y-79628721D01*
X93946741Y-79628721D02*
X93851503Y-79581102D01*
X93851503Y-79581102D02*
X93803884Y-79533483D01*
X93803884Y-79533483D02*
X93756265Y-79438245D01*
X93756265Y-79438245D02*
X93756265Y-79343007D01*
X93756265Y-79343007D02*
X93803884Y-79247769D01*
X93803884Y-79247769D02*
X93851503Y-79200150D01*
X93851503Y-79200150D02*
X93946741Y-79152531D01*
X93946741Y-79152531D02*
X94184836Y-79152531D01*
X94184836Y-79152531D02*
X94327693Y-79200150D01*
X94756265Y-80152531D02*
X94756265Y-79152531D01*
X94756265Y-79152531D02*
X95089598Y-79866816D01*
X95089598Y-79866816D02*
X95422931Y-79152531D01*
X95422931Y-79152531D02*
X95422931Y-80152531D01*
X95851503Y-79866816D02*
X96327693Y-79866816D01*
X95756265Y-80152531D02*
X96089598Y-79152531D01*
X96089598Y-79152531D02*
X96422931Y-80152531D01*
X97327693Y-80152531D02*
X96994360Y-79676340D01*
X96756265Y-80152531D02*
X96756265Y-79152531D01*
X96756265Y-79152531D02*
X97137217Y-79152531D01*
X97137217Y-79152531D02*
X97232455Y-79200150D01*
X97232455Y-79200150D02*
X97280074Y-79247769D01*
X97280074Y-79247769D02*
X97327693Y-79343007D01*
X97327693Y-79343007D02*
X97327693Y-79485864D01*
X97327693Y-79485864D02*
X97280074Y-79581102D01*
X97280074Y-79581102D02*
X97232455Y-79628721D01*
X97232455Y-79628721D02*
X97137217Y-79676340D01*
X97137217Y-79676340D02*
X96756265Y-79676340D01*
X97613408Y-79152531D02*
X98184836Y-79152531D01*
X97899122Y-80152531D02*
X97899122Y-79152531D01*
X99232456Y-80104912D02*
X99375313Y-80152531D01*
X99375313Y-80152531D02*
X99613408Y-80152531D01*
X99613408Y-80152531D02*
X99708646Y-80104912D01*
X99708646Y-80104912D02*
X99756265Y-80057292D01*
X99756265Y-80057292D02*
X99803884Y-79962054D01*
X99803884Y-79962054D02*
X99803884Y-79866816D01*
X99803884Y-79866816D02*
X99756265Y-79771578D01*
X99756265Y-79771578D02*
X99708646Y-79723959D01*
X99708646Y-79723959D02*
X99613408Y-79676340D01*
X99613408Y-79676340D02*
X99422932Y-79628721D01*
X99422932Y-79628721D02*
X99327694Y-79581102D01*
X99327694Y-79581102D02*
X99280075Y-79533483D01*
X99280075Y-79533483D02*
X99232456Y-79438245D01*
X99232456Y-79438245D02*
X99232456Y-79343007D01*
X99232456Y-79343007D02*
X99280075Y-79247769D01*
X99280075Y-79247769D02*
X99327694Y-79200150D01*
X99327694Y-79200150D02*
X99422932Y-79152531D01*
X99422932Y-79152531D02*
X99661027Y-79152531D01*
X99661027Y-79152531D02*
X99803884Y-79200150D01*
X100232456Y-79628721D02*
X100565789Y-79628721D01*
X100708646Y-80152531D02*
X100232456Y-80152531D01*
X100232456Y-80152531D02*
X100232456Y-79152531D01*
X100232456Y-79152531D02*
X100708646Y-79152531D01*
X101708646Y-80152531D02*
X101375313Y-79676340D01*
X101137218Y-80152531D02*
X101137218Y-79152531D01*
X101137218Y-79152531D02*
X101518170Y-79152531D01*
X101518170Y-79152531D02*
X101613408Y-79200150D01*
X101613408Y-79200150D02*
X101661027Y-79247769D01*
X101661027Y-79247769D02*
X101708646Y-79343007D01*
X101708646Y-79343007D02*
X101708646Y-79485864D01*
X101708646Y-79485864D02*
X101661027Y-79581102D01*
X101661027Y-79581102D02*
X101613408Y-79628721D01*
X101613408Y-79628721D02*
X101518170Y-79676340D01*
X101518170Y-79676340D02*
X101137218Y-79676340D01*
X101994361Y-79152531D02*
X102327694Y-80152531D01*
X102327694Y-80152531D02*
X102661027Y-79152531D01*
X103184837Y-79152531D02*
X103375313Y-79152531D01*
X103375313Y-79152531D02*
X103470551Y-79200150D01*
X103470551Y-79200150D02*
X103565789Y-79295388D01*
X103565789Y-79295388D02*
X103613408Y-79485864D01*
X103613408Y-79485864D02*
X103613408Y-79819197D01*
X103613408Y-79819197D02*
X103565789Y-80009673D01*
X103565789Y-80009673D02*
X103470551Y-80104912D01*
X103470551Y-80104912D02*
X103375313Y-80152531D01*
X103375313Y-80152531D02*
X103184837Y-80152531D01*
X103184837Y-80152531D02*
X103089599Y-80104912D01*
X103089599Y-80104912D02*
X102994361Y-80009673D01*
X102994361Y-80009673D02*
X102946742Y-79819197D01*
X102946742Y-79819197D02*
X102946742Y-79485864D01*
X102946742Y-79485864D02*
X102994361Y-79295388D01*
X102994361Y-79295388D02*
X103089599Y-79200150D01*
X103089599Y-79200150D02*
X103184837Y-79152531D01*
X93803884Y-81762475D02*
X93803884Y-80762475D01*
X93803884Y-81143427D02*
X93899122Y-81095808D01*
X93899122Y-81095808D02*
X94089598Y-81095808D01*
X94089598Y-81095808D02*
X94184836Y-81143427D01*
X94184836Y-81143427D02*
X94232455Y-81191046D01*
X94232455Y-81191046D02*
X94280074Y-81286284D01*
X94280074Y-81286284D02*
X94280074Y-81571998D01*
X94280074Y-81571998D02*
X94232455Y-81667236D01*
X94232455Y-81667236D02*
X94184836Y-81714856D01*
X94184836Y-81714856D02*
X94089598Y-81762475D01*
X94089598Y-81762475D02*
X93899122Y-81762475D01*
X93899122Y-81762475D02*
X93803884Y-81714856D01*
X94613408Y-81095808D02*
X94851503Y-81762475D01*
X95089598Y-81095808D02*
X94851503Y-81762475D01*
X94851503Y-81762475D02*
X94756265Y-82000570D01*
X94756265Y-82000570D02*
X94708646Y-82048189D01*
X94708646Y-82048189D02*
X94613408Y-82095808D01*
X96184837Y-81476760D02*
X96661027Y-81476760D01*
X96089599Y-81762475D02*
X96422932Y-80762475D01*
X96422932Y-80762475D02*
X96756265Y-81762475D01*
X97232456Y-81762475D02*
X97137218Y-81714856D01*
X97137218Y-81714856D02*
X97089599Y-81619617D01*
X97089599Y-81619617D02*
X97089599Y-80762475D01*
X97994361Y-81714856D02*
X97899123Y-81762475D01*
X97899123Y-81762475D02*
X97708647Y-81762475D01*
X97708647Y-81762475D02*
X97613409Y-81714856D01*
X97613409Y-81714856D02*
X97565790Y-81619617D01*
X97565790Y-81619617D02*
X97565790Y-81238665D01*
X97565790Y-81238665D02*
X97613409Y-81143427D01*
X97613409Y-81143427D02*
X97708647Y-81095808D01*
X97708647Y-81095808D02*
X97899123Y-81095808D01*
X97899123Y-81095808D02*
X97994361Y-81143427D01*
X97994361Y-81143427D02*
X98041980Y-81238665D01*
X98041980Y-81238665D02*
X98041980Y-81333903D01*
X98041980Y-81333903D02*
X97565790Y-81429141D01*
X98375314Y-81762475D02*
X98899123Y-81095808D01*
X98375314Y-81095808D02*
X98899123Y-81762475D01*
X100613409Y-81667236D02*
X100565790Y-81714856D01*
X100565790Y-81714856D02*
X100422933Y-81762475D01*
X100422933Y-81762475D02*
X100327695Y-81762475D01*
X100327695Y-81762475D02*
X100184838Y-81714856D01*
X100184838Y-81714856D02*
X100089600Y-81619617D01*
X100089600Y-81619617D02*
X100041981Y-81524379D01*
X100041981Y-81524379D02*
X99994362Y-81333903D01*
X99994362Y-81333903D02*
X99994362Y-81191046D01*
X99994362Y-81191046D02*
X100041981Y-81000570D01*
X100041981Y-81000570D02*
X100089600Y-80905332D01*
X100089600Y-80905332D02*
X100184838Y-80810094D01*
X100184838Y-80810094D02*
X100327695Y-80762475D01*
X100327695Y-80762475D02*
X100422933Y-80762475D01*
X100422933Y-80762475D02*
X100565790Y-80810094D01*
X100565790Y-80810094D02*
X100613409Y-80857713D01*
X93661027Y-82372419D02*
X93994360Y-83372419D01*
X93994360Y-83372419D02*
X94327693Y-82372419D01*
X95613408Y-82372419D02*
X95708646Y-82372419D01*
X95708646Y-82372419D02*
X95803884Y-82420038D01*
X95803884Y-82420038D02*
X95851503Y-82467657D01*
X95851503Y-82467657D02*
X95899122Y-82562895D01*
X95899122Y-82562895D02*
X95946741Y-82753371D01*
X95946741Y-82753371D02*
X95946741Y-82991466D01*
X95946741Y-82991466D02*
X95899122Y-83181942D01*
X95899122Y-83181942D02*
X95851503Y-83277180D01*
X95851503Y-83277180D02*
X95803884Y-83324800D01*
X95803884Y-83324800D02*
X95708646Y-83372419D01*
X95708646Y-83372419D02*
X95613408Y-83372419D01*
X95613408Y-83372419D02*
X95518170Y-83324800D01*
X95518170Y-83324800D02*
X95470551Y-83277180D01*
X95470551Y-83277180D02*
X95422932Y-83181942D01*
X95422932Y-83181942D02*
X95375313Y-82991466D01*
X95375313Y-82991466D02*
X95375313Y-82753371D01*
X95375313Y-82753371D02*
X95422932Y-82562895D01*
X95422932Y-82562895D02*
X95470551Y-82467657D01*
X95470551Y-82467657D02*
X95518170Y-82420038D01*
X95518170Y-82420038D02*
X95613408Y-82372419D01*
X96375313Y-83277180D02*
X96422932Y-83324800D01*
X96422932Y-83324800D02*
X96375313Y-83372419D01*
X96375313Y-83372419D02*
X96327694Y-83324800D01*
X96327694Y-83324800D02*
X96375313Y-83277180D01*
X96375313Y-83277180D02*
X96375313Y-83372419D01*
X96756265Y-82372419D02*
X97422931Y-82372419D01*
X97422931Y-82372419D02*
X96994360Y-83372419D01*
X100018464Y-76084791D02*
X99970845Y-76180029D01*
X99970845Y-76180029D02*
X99970845Y-76322886D01*
X99970845Y-76322886D02*
X100018464Y-76465743D01*
X100018464Y-76465743D02*
X100113702Y-76560981D01*
X100113702Y-76560981D02*
X100208940Y-76608600D01*
X100208940Y-76608600D02*
X100399416Y-76656219D01*
X100399416Y-76656219D02*
X100542273Y-76656219D01*
X100542273Y-76656219D02*
X100732749Y-76608600D01*
X100732749Y-76608600D02*
X100827987Y-76560981D01*
X100827987Y-76560981D02*
X100923226Y-76465743D01*
X100923226Y-76465743D02*
X100970845Y-76322886D01*
X100970845Y-76322886D02*
X100970845Y-76227648D01*
X100970845Y-76227648D02*
X100923226Y-76084791D01*
X100923226Y-76084791D02*
X100875606Y-76037172D01*
X100875606Y-76037172D02*
X100542273Y-76037172D01*
X100542273Y-76037172D02*
X100542273Y-76227648D01*
X100970845Y-75608600D02*
X99970845Y-75608600D01*
X99970845Y-75608600D02*
X100970845Y-75037172D01*
X100970845Y-75037172D02*
X99970845Y-75037172D01*
X100970845Y-74560981D02*
X99970845Y-74560981D01*
X99970845Y-74560981D02*
X99970845Y-74322886D01*
X99970845Y-74322886D02*
X100018464Y-74180029D01*
X100018464Y-74180029D02*
X100113702Y-74084791D01*
X100113702Y-74084791D02*
X100208940Y-74037172D01*
X100208940Y-74037172D02*
X100399416Y-73989553D01*
X100399416Y-73989553D02*
X100542273Y-73989553D01*
X100542273Y-73989553D02*
X100732749Y-74037172D01*
X100732749Y-74037172D02*
X100827987Y-74084791D01*
X100827987Y-74084791D02*
X100923226Y-74180029D01*
X100923226Y-74180029D02*
X100970845Y-74322886D01*
X100970845Y-74322886D02*
X100970845Y-74560981D01*
X93619376Y-62103366D02*
X93684425Y-62120796D01*
X93684425Y-62120796D02*
X93797093Y-62220704D01*
X93797093Y-62220704D02*
X93844712Y-62303183D01*
X93844712Y-62303183D02*
X93874901Y-62450710D01*
X93874901Y-62450710D02*
X93840042Y-62580808D01*
X93840042Y-62580808D02*
X93781373Y-62669666D01*
X93781373Y-62669666D02*
X93640225Y-62806144D01*
X93640225Y-62806144D02*
X93516507Y-62877572D01*
X93516507Y-62877572D02*
X93327740Y-62931571D01*
X93327740Y-62931571D02*
X93221452Y-62937951D01*
X93221452Y-62937951D02*
X93091354Y-62903091D01*
X93091354Y-62903091D02*
X92978686Y-62803183D01*
X92978686Y-62803183D02*
X92931067Y-62720704D01*
X92931067Y-62720704D02*
X92900878Y-62573177D01*
X92900878Y-62573177D02*
X92918308Y-62508128D01*
X93263943Y-61868690D02*
X93025847Y-61456297D01*
X93558998Y-61808311D02*
X92526306Y-62019636D01*
X92526306Y-62019636D02*
X93225664Y-61230961D01*
X93058998Y-60942285D02*
X92192972Y-61442285D01*
X92192972Y-61442285D02*
X92773283Y-60447414D01*
X92773283Y-60447414D02*
X91907258Y-60947414D01*
X92736714Y-60193598D02*
X92355762Y-59533769D01*
X92154236Y-59375192D02*
X91288210Y-59875192D01*
X91700603Y-59637096D02*
X91414889Y-59142225D01*
X91868521Y-58880320D02*
X91002496Y-59380320D01*
X84869376Y-66603366D02*
X84934425Y-66620796D01*
X84934425Y-66620796D02*
X85047093Y-66720704D01*
X85047093Y-66720704D02*
X85094712Y-66803183D01*
X85094712Y-66803183D02*
X85124901Y-66950710D01*
X85124901Y-66950710D02*
X85090042Y-67080808D01*
X85090042Y-67080808D02*
X85031373Y-67169666D01*
X85031373Y-67169666D02*
X84890225Y-67306144D01*
X84890225Y-67306144D02*
X84766507Y-67377572D01*
X84766507Y-67377572D02*
X84577740Y-67431571D01*
X84577740Y-67431571D02*
X84471452Y-67437951D01*
X84471452Y-67437951D02*
X84341354Y-67403091D01*
X84341354Y-67403091D02*
X84228686Y-67303183D01*
X84228686Y-67303183D02*
X84181067Y-67220704D01*
X84181067Y-67220704D02*
X84150878Y-67073177D01*
X84150878Y-67073177D02*
X84168308Y-67008128D01*
X84513943Y-66368690D02*
X84275847Y-65956297D01*
X84808998Y-66308311D02*
X83776306Y-66519636D01*
X83776306Y-66519636D02*
X84475664Y-65730961D01*
X84308998Y-65442285D02*
X83442972Y-65942285D01*
X83442972Y-65942285D02*
X84023283Y-64947414D01*
X84023283Y-64947414D02*
X83157258Y-65447414D01*
X83986714Y-64693598D02*
X83605762Y-64033769D01*
X83166140Y-63462799D02*
X83404236Y-63875192D01*
X83404236Y-63875192D02*
X82538210Y-64375192D01*
X88053884Y-79122419D02*
X88053884Y-78122419D01*
X88053884Y-78122419D02*
X88387217Y-78836704D01*
X88387217Y-78836704D02*
X88720550Y-78122419D01*
X88720550Y-78122419D02*
X88720550Y-79122419D01*
X88958646Y-79217657D02*
X89720550Y-79217657D01*
X90291979Y-78598609D02*
X90434836Y-78646228D01*
X90434836Y-78646228D02*
X90482455Y-78693847D01*
X90482455Y-78693847D02*
X90530074Y-78789085D01*
X90530074Y-78789085D02*
X90530074Y-78931942D01*
X90530074Y-78931942D02*
X90482455Y-79027180D01*
X90482455Y-79027180D02*
X90434836Y-79074800D01*
X90434836Y-79074800D02*
X90339598Y-79122419D01*
X90339598Y-79122419D02*
X89958646Y-79122419D01*
X89958646Y-79122419D02*
X89958646Y-78122419D01*
X89958646Y-78122419D02*
X90291979Y-78122419D01*
X90291979Y-78122419D02*
X90387217Y-78170038D01*
X90387217Y-78170038D02*
X90434836Y-78217657D01*
X90434836Y-78217657D02*
X90482455Y-78312895D01*
X90482455Y-78312895D02*
X90482455Y-78408133D01*
X90482455Y-78408133D02*
X90434836Y-78503371D01*
X90434836Y-78503371D02*
X90387217Y-78550990D01*
X90387217Y-78550990D02*
X90291979Y-78598609D01*
X90291979Y-78598609D02*
X89958646Y-78598609D01*
X98506265Y-65574800D02*
X98649122Y-65622419D01*
X98649122Y-65622419D02*
X98887217Y-65622419D01*
X98887217Y-65622419D02*
X98982455Y-65574800D01*
X98982455Y-65574800D02*
X99030074Y-65527180D01*
X99030074Y-65527180D02*
X99077693Y-65431942D01*
X99077693Y-65431942D02*
X99077693Y-65336704D01*
X99077693Y-65336704D02*
X99030074Y-65241466D01*
X99030074Y-65241466D02*
X98982455Y-65193847D01*
X98982455Y-65193847D02*
X98887217Y-65146228D01*
X98887217Y-65146228D02*
X98696741Y-65098609D01*
X98696741Y-65098609D02*
X98601503Y-65050990D01*
X98601503Y-65050990D02*
X98553884Y-65003371D01*
X98553884Y-65003371D02*
X98506265Y-64908133D01*
X98506265Y-64908133D02*
X98506265Y-64812895D01*
X98506265Y-64812895D02*
X98553884Y-64717657D01*
X98553884Y-64717657D02*
X98601503Y-64670038D01*
X98601503Y-64670038D02*
X98696741Y-64622419D01*
X98696741Y-64622419D02*
X98934836Y-64622419D01*
X98934836Y-64622419D02*
X99077693Y-64670038D01*
X99411027Y-64622419D02*
X99649122Y-65622419D01*
X99649122Y-65622419D02*
X99839598Y-64908133D01*
X99839598Y-64908133D02*
X100030074Y-65622419D01*
X100030074Y-65622419D02*
X100268170Y-64622419D01*
X100649122Y-65622419D02*
X100649122Y-64622419D01*
X100649122Y-64622419D02*
X100887217Y-64622419D01*
X100887217Y-64622419D02*
X101030074Y-64670038D01*
X101030074Y-64670038D02*
X101125312Y-64765276D01*
X101125312Y-64765276D02*
X101172931Y-64860514D01*
X101172931Y-64860514D02*
X101220550Y-65050990D01*
X101220550Y-65050990D02*
X101220550Y-65193847D01*
X101220550Y-65193847D02*
X101172931Y-65384323D01*
X101172931Y-65384323D02*
X101125312Y-65479561D01*
X101125312Y-65479561D02*
X101030074Y-65574800D01*
X101030074Y-65574800D02*
X100887217Y-65622419D01*
X100887217Y-65622419D02*
X100649122Y-65622419D01*
X100491466Y-72946115D02*
X100491466Y-72184211D01*
X100872419Y-72565163D02*
X100110514Y-72565163D01*
X100872419Y-71184211D02*
X100872419Y-71755639D01*
X100872419Y-71469925D02*
X99872419Y-71469925D01*
X99872419Y-71469925D02*
X100015276Y-71565163D01*
X100015276Y-71565163D02*
X100110514Y-71660401D01*
X100110514Y-71660401D02*
X100158133Y-71755639D01*
X99967657Y-70803258D02*
X99920038Y-70755639D01*
X99920038Y-70755639D02*
X99872419Y-70660401D01*
X99872419Y-70660401D02*
X99872419Y-70422306D01*
X99872419Y-70422306D02*
X99920038Y-70327068D01*
X99920038Y-70327068D02*
X99967657Y-70279449D01*
X99967657Y-70279449D02*
X100062895Y-70231830D01*
X100062895Y-70231830D02*
X100158133Y-70231830D01*
X100158133Y-70231830D02*
X100300990Y-70279449D01*
X100300990Y-70279449D02*
X100872419Y-70850877D01*
X100872419Y-70850877D02*
X100872419Y-70231830D01*
X99872419Y-69946115D02*
X100872419Y-69612782D01*
X100872419Y-69612782D02*
X99872419Y-69279449D01*
D11*
X84759580Y-71166666D02*
X84807200Y-71214285D01*
X84807200Y-71214285D02*
X84854819Y-71357142D01*
X84854819Y-71357142D02*
X84854819Y-71452380D01*
X84854819Y-71452380D02*
X84807200Y-71595237D01*
X84807200Y-71595237D02*
X84711961Y-71690475D01*
X84711961Y-71690475D02*
X84616723Y-71738094D01*
X84616723Y-71738094D02*
X84426247Y-71785713D01*
X84426247Y-71785713D02*
X84283390Y-71785713D01*
X84283390Y-71785713D02*
X84092914Y-71738094D01*
X84092914Y-71738094D02*
X83997676Y-71690475D01*
X83997676Y-71690475D02*
X83902438Y-71595237D01*
X83902438Y-71595237D02*
X83854819Y-71452380D01*
X83854819Y-71452380D02*
X83854819Y-71357142D01*
X83854819Y-71357142D02*
X83902438Y-71214285D01*
X83902438Y-71214285D02*
X83950057Y-71166666D01*
X83854819Y-70833332D02*
X83854819Y-70214285D01*
X83854819Y-70214285D02*
X84235771Y-70547618D01*
X84235771Y-70547618D02*
X84235771Y-70404761D01*
X84235771Y-70404761D02*
X84283390Y-70309523D01*
X84283390Y-70309523D02*
X84331009Y-70261904D01*
X84331009Y-70261904D02*
X84426247Y-70214285D01*
X84426247Y-70214285D02*
X84664342Y-70214285D01*
X84664342Y-70214285D02*
X84759580Y-70261904D01*
X84759580Y-70261904D02*
X84807200Y-70309523D01*
X84807200Y-70309523D02*
X84854819Y-70404761D01*
X84854819Y-70404761D02*
X84854819Y-70690475D01*
X84854819Y-70690475D02*
X84807200Y-70785713D01*
X84807200Y-70785713D02*
X84759580Y-70833332D01*
X92738095Y-77954819D02*
X92738095Y-78764342D01*
X92738095Y-78764342D02*
X92785714Y-78859580D01*
X92785714Y-78859580D02*
X92833333Y-78907200D01*
X92833333Y-78907200D02*
X92928571Y-78954819D01*
X92928571Y-78954819D02*
X93119047Y-78954819D01*
X93119047Y-78954819D02*
X93214285Y-78907200D01*
X93214285Y-78907200D02*
X93261904Y-78859580D01*
X93261904Y-78859580D02*
X93309523Y-78764342D01*
X93309523Y-78764342D02*
X93309523Y-77954819D01*
X93690476Y-77954819D02*
X94357142Y-77954819D01*
X94357142Y-77954819D02*
X93928571Y-78954819D01*
X100454819Y-67916666D02*
X99978628Y-68249999D01*
X100454819Y-68488094D02*
X99454819Y-68488094D01*
X99454819Y-68488094D02*
X99454819Y-68107142D01*
X99454819Y-68107142D02*
X99502438Y-68011904D01*
X99502438Y-68011904D02*
X99550057Y-67964285D01*
X99550057Y-67964285D02*
X99645295Y-67916666D01*
X99645295Y-67916666D02*
X99788152Y-67916666D01*
X99788152Y-67916666D02*
X99883390Y-67964285D01*
X99883390Y-67964285D02*
X99931009Y-68011904D01*
X99931009Y-68011904D02*
X99978628Y-68107142D01*
X99978628Y-68107142D02*
X99978628Y-68488094D01*
X99454819Y-67583332D02*
X99454819Y-66964285D01*
X99454819Y-66964285D02*
X99835771Y-67297618D01*
X99835771Y-67297618D02*
X99835771Y-67154761D01*
X99835771Y-67154761D02*
X99883390Y-67059523D01*
X99883390Y-67059523D02*
X99931009Y-67011904D01*
X99931009Y-67011904D02*
X100026247Y-66964285D01*
X100026247Y-66964285D02*
X100264342Y-66964285D01*
X100264342Y-66964285D02*
X100359580Y-67011904D01*
X100359580Y-67011904D02*
X100407200Y-67059523D01*
X100407200Y-67059523D02*
X100454819Y-67154761D01*
X100454819Y-67154761D02*
X100454819Y-67440475D01*
X100454819Y-67440475D02*
X100407200Y-67535713D01*
X100407200Y-67535713D02*
X100359580Y-67583332D01*
X96083333Y-78954819D02*
X95750000Y-78478628D01*
X95511905Y-78954819D02*
X95511905Y-77954819D01*
X95511905Y-77954819D02*
X95892857Y-77954819D01*
X95892857Y-77954819D02*
X95988095Y-78002438D01*
X95988095Y-78002438D02*
X96035714Y-78050057D01*
X96035714Y-78050057D02*
X96083333Y-78145295D01*
X96083333Y-78145295D02*
X96083333Y-78288152D01*
X96083333Y-78288152D02*
X96035714Y-78383390D01*
X96035714Y-78383390D02*
X95988095Y-78431009D01*
X95988095Y-78431009D02*
X95892857Y-78478628D01*
X95892857Y-78478628D02*
X95511905Y-78478628D01*
X96940476Y-78288152D02*
X96940476Y-78954819D01*
X96702381Y-77907200D02*
X96464286Y-78621485D01*
X96464286Y-78621485D02*
X97083333Y-78621485D01*
X86109580Y-71166666D02*
X86157200Y-71214285D01*
X86157200Y-71214285D02*
X86204819Y-71357142D01*
X86204819Y-71357142D02*
X86204819Y-71452380D01*
X86204819Y-71452380D02*
X86157200Y-71595237D01*
X86157200Y-71595237D02*
X86061961Y-71690475D01*
X86061961Y-71690475D02*
X85966723Y-71738094D01*
X85966723Y-71738094D02*
X85776247Y-71785713D01*
X85776247Y-71785713D02*
X85633390Y-71785713D01*
X85633390Y-71785713D02*
X85442914Y-71738094D01*
X85442914Y-71738094D02*
X85347676Y-71690475D01*
X85347676Y-71690475D02*
X85252438Y-71595237D01*
X85252438Y-71595237D02*
X85204819Y-71452380D01*
X85204819Y-71452380D02*
X85204819Y-71357142D01*
X85204819Y-71357142D02*
X85252438Y-71214285D01*
X85252438Y-71214285D02*
X85300057Y-71166666D01*
X85538152Y-70309523D02*
X86204819Y-70309523D01*
X85157200Y-70547618D02*
X85871485Y-70785713D01*
X85871485Y-70785713D02*
X85871485Y-70166666D01*
X86583333Y-76954819D02*
X86250000Y-76478628D01*
X86011905Y-76954819D02*
X86011905Y-75954819D01*
X86011905Y-75954819D02*
X86392857Y-75954819D01*
X86392857Y-75954819D02*
X86488095Y-76002438D01*
X86488095Y-76002438D02*
X86535714Y-76050057D01*
X86535714Y-76050057D02*
X86583333Y-76145295D01*
X86583333Y-76145295D02*
X86583333Y-76288152D01*
X86583333Y-76288152D02*
X86535714Y-76383390D01*
X86535714Y-76383390D02*
X86488095Y-76431009D01*
X86488095Y-76431009D02*
X86392857Y-76478628D01*
X86392857Y-76478628D02*
X86011905Y-76478628D01*
X87535714Y-76954819D02*
X86964286Y-76954819D01*
X87250000Y-76954819D02*
X87250000Y-75954819D01*
X87250000Y-75954819D02*
X87154762Y-76097676D01*
X87154762Y-76097676D02*
X87059524Y-76192914D01*
X87059524Y-76192914D02*
X86964286Y-76240533D01*
X110454819Y-73583334D02*
X111169104Y-73583334D01*
X111169104Y-73583334D02*
X111311961Y-73630953D01*
X111311961Y-73630953D02*
X111407200Y-73726191D01*
X111407200Y-73726191D02*
X111454819Y-73869048D01*
X111454819Y-73869048D02*
X111454819Y-73964286D01*
X110454819Y-72630953D02*
X110454819Y-73107143D01*
X110454819Y-73107143D02*
X110931009Y-73154762D01*
X110931009Y-73154762D02*
X110883390Y-73107143D01*
X110883390Y-73107143D02*
X110835771Y-73011905D01*
X110835771Y-73011905D02*
X110835771Y-72773810D01*
X110835771Y-72773810D02*
X110883390Y-72678572D01*
X110883390Y-72678572D02*
X110931009Y-72630953D01*
X110931009Y-72630953D02*
X111026247Y-72583334D01*
X111026247Y-72583334D02*
X111264342Y-72583334D01*
X111264342Y-72583334D02*
X111359580Y-72630953D01*
X111359580Y-72630953D02*
X111407200Y-72678572D01*
X111407200Y-72678572D02*
X111454819Y-72773810D01*
X111454819Y-72773810D02*
X111454819Y-73011905D01*
X111454819Y-73011905D02*
X111407200Y-73107143D01*
X111407200Y-73107143D02*
X111359580Y-73154762D01*
X111114699Y-80321428D02*
X111114699Y-79178571D01*
X111114701Y-67321428D02*
X111114701Y-66178571D01*
X111686129Y-66749999D02*
X110543272Y-66749999D01*
X104114700Y-67321428D02*
X104114700Y-66178571D01*
X104686128Y-66749999D02*
X103543271Y-66749999D01*
X104114700Y-80321428D02*
X104114700Y-79178571D01*
X91761905Y-82124819D02*
X91761905Y-81124819D01*
X91761905Y-81124819D02*
X92000000Y-81124819D01*
X92000000Y-81124819D02*
X92142857Y-81172438D01*
X92142857Y-81172438D02*
X92238095Y-81267676D01*
X92238095Y-81267676D02*
X92285714Y-81362914D01*
X92285714Y-81362914D02*
X92333333Y-81553390D01*
X92333333Y-81553390D02*
X92333333Y-81696247D01*
X92333333Y-81696247D02*
X92285714Y-81886723D01*
X92285714Y-81886723D02*
X92238095Y-81981961D01*
X92238095Y-81981961D02*
X92142857Y-82077200D01*
X92142857Y-82077200D02*
X92000000Y-82124819D01*
X92000000Y-82124819D02*
X91761905Y-82124819D01*
X92714286Y-81220057D02*
X92761905Y-81172438D01*
X92761905Y-81172438D02*
X92857143Y-81124819D01*
X92857143Y-81124819D02*
X93095238Y-81124819D01*
X93095238Y-81124819D02*
X93190476Y-81172438D01*
X93190476Y-81172438D02*
X93238095Y-81220057D01*
X93238095Y-81220057D02*
X93285714Y-81315295D01*
X93285714Y-81315295D02*
X93285714Y-81410533D01*
X93285714Y-81410533D02*
X93238095Y-81553390D01*
X93238095Y-81553390D02*
X92666667Y-82124819D01*
X92666667Y-82124819D02*
X93285714Y-82124819D01*
X91704819Y-79156666D02*
X91228628Y-79489999D01*
X91704819Y-79728094D02*
X90704819Y-79728094D01*
X90704819Y-79728094D02*
X90704819Y-79347142D01*
X90704819Y-79347142D02*
X90752438Y-79251904D01*
X90752438Y-79251904D02*
X90800057Y-79204285D01*
X90800057Y-79204285D02*
X90895295Y-79156666D01*
X90895295Y-79156666D02*
X91038152Y-79156666D01*
X91038152Y-79156666D02*
X91133390Y-79204285D01*
X91133390Y-79204285D02*
X91181009Y-79251904D01*
X91181009Y-79251904D02*
X91228628Y-79347142D01*
X91228628Y-79347142D02*
X91228628Y-79728094D01*
X90704819Y-78251904D02*
X90704819Y-78728094D01*
X90704819Y-78728094D02*
X91181009Y-78775713D01*
X91181009Y-78775713D02*
X91133390Y-78728094D01*
X91133390Y-78728094D02*
X91085771Y-78632856D01*
X91085771Y-78632856D02*
X91085771Y-78394761D01*
X91085771Y-78394761D02*
X91133390Y-78299523D01*
X91133390Y-78299523D02*
X91181009Y-78251904D01*
X91181009Y-78251904D02*
X91276247Y-78204285D01*
X91276247Y-78204285D02*
X91514342Y-78204285D01*
X91514342Y-78204285D02*
X91609580Y-78251904D01*
X91609580Y-78251904D02*
X91657200Y-78299523D01*
X91657200Y-78299523D02*
X91704819Y-78394761D01*
X91704819Y-78394761D02*
X91704819Y-78632856D01*
X91704819Y-78632856D02*
X91657200Y-78728094D01*
X91657200Y-78728094D02*
X91609580Y-78775713D01*
D12*
%TO.C,C3*%
X86390001Y-71107835D02*
X86390000Y-70892163D01*
X87110000Y-71107837D02*
X87109999Y-70892165D01*
%TO.C,U7*%
X89890000Y-69140000D02*
X89890000Y-69440000D01*
X89890000Y-76360000D02*
X89890000Y-76060000D01*
X90190000Y-69140000D02*
X89890000Y-69140000D01*
X90190000Y-76360000D02*
X89890000Y-76360000D01*
X96810000Y-69140000D02*
X97110000Y-69140000D01*
X96810000Y-76360000D02*
X97110000Y-76360000D01*
X97110000Y-69140000D02*
X97110000Y-69440000D01*
X97110000Y-76360000D02*
X97110000Y-76060000D01*
X89287500Y-69440000D02*
X88947500Y-68970000D01*
X89627500Y-68970000D01*
X89287500Y-69440000D01*
G36*
X89287500Y-69440000D02*
G01*
X88947500Y-68970000D01*
X89627500Y-68970000D01*
X89287500Y-69440000D01*
G37*
%TO.C,R3*%
X100620000Y-67586360D02*
X100620001Y-67893641D01*
X101379999Y-67586359D02*
X101380000Y-67893640D01*
%TO.C,R4*%
X94370002Y-78596361D02*
X94370002Y-78903639D01*
X95129998Y-78596361D02*
X95129998Y-78903639D01*
%TO.C,C4*%
X87390001Y-71107835D02*
X87390000Y-70892163D01*
X88110000Y-71107837D02*
X88109999Y-70892165D01*
D13*
%TO.C,REF\u002A\u002A*%
X98652600Y-65958752D02*
X98669948Y-65966334D01*
X98711356Y-65999128D01*
X98746765Y-66046547D01*
X98768664Y-66097151D01*
X98772229Y-66122098D01*
X98760279Y-66156927D01*
X98734067Y-66175357D01*
X98705964Y-66186516D01*
X98693095Y-66188572D01*
X98686829Y-66173649D01*
X98674456Y-66141175D01*
X98669028Y-66126502D01*
X98638590Y-66075744D01*
X98594520Y-66050427D01*
X98538010Y-66051206D01*
X98533825Y-66052203D01*
X98503655Y-66066507D01*
X98481476Y-66094393D01*
X98466327Y-66139287D01*
X98457250Y-66204615D01*
X98453286Y-66293804D01*
X98452914Y-66341261D01*
X98452730Y-66416071D01*
X98451522Y-66467069D01*
X98448309Y-66499471D01*
X98442109Y-66518495D01*
X98431940Y-66529356D01*
X98416819Y-66537272D01*
X98415946Y-66537670D01*
X98386828Y-66549981D01*
X98372403Y-66554514D01*
X98370186Y-66540809D01*
X98368289Y-66502925D01*
X98366847Y-66445715D01*
X98365998Y-66374027D01*
X98365829Y-66321565D01*
X98366692Y-66220047D01*
X98370070Y-66143032D01*
X98377142Y-66086023D01*
X98389088Y-66044526D01*
X98407090Y-66014043D01*
X98432327Y-65990080D01*
X98457247Y-65973355D01*
X98517171Y-65951097D01*
X98586911Y-65946076D01*
X98652600Y-65958752D01*
G36*
X98652600Y-65958752D02*
G01*
X98669948Y-65966334D01*
X98711356Y-65999128D01*
X98746765Y-66046547D01*
X98768664Y-66097151D01*
X98772229Y-66122098D01*
X98760279Y-66156927D01*
X98734067Y-66175357D01*
X98705964Y-66186516D01*
X98693095Y-66188572D01*
X98686829Y-66173649D01*
X98674456Y-66141175D01*
X98669028Y-66126502D01*
X98638590Y-66075744D01*
X98594520Y-66050427D01*
X98538010Y-66051206D01*
X98533825Y-66052203D01*
X98503655Y-66066507D01*
X98481476Y-66094393D01*
X98466327Y-66139287D01*
X98457250Y-66204615D01*
X98453286Y-66293804D01*
X98452914Y-66341261D01*
X98452730Y-66416071D01*
X98451522Y-66467069D01*
X98448309Y-66499471D01*
X98442109Y-66518495D01*
X98431940Y-66529356D01*
X98416819Y-66537272D01*
X98415946Y-66537670D01*
X98386828Y-66549981D01*
X98372403Y-66554514D01*
X98370186Y-66540809D01*
X98368289Y-66502925D01*
X98366847Y-66445715D01*
X98365998Y-66374027D01*
X98365829Y-66321565D01*
X98366692Y-66220047D01*
X98370070Y-66143032D01*
X98377142Y-66086023D01*
X98389088Y-66044526D01*
X98407090Y-66014043D01*
X98432327Y-65990080D01*
X98457247Y-65973355D01*
X98517171Y-65951097D01*
X98586911Y-65946076D01*
X98652600Y-65958752D01*
G37*
X94716093Y-65927780D02*
X94762672Y-65954723D01*
X94795057Y-65981466D01*
X94818742Y-66009484D01*
X94835059Y-66043748D01*
X94845339Y-66089227D01*
X94850914Y-66150892D01*
X94853116Y-66233711D01*
X94853371Y-66293246D01*
X94853371Y-66512391D01*
X94791686Y-66540044D01*
X94730000Y-66567697D01*
X94722743Y-66327670D01*
X94719744Y-66238028D01*
X94716598Y-66172962D01*
X94712701Y-66128026D01*
X94707447Y-66098770D01*
X94700231Y-66080748D01*
X94690450Y-66069511D01*
X94687312Y-66067079D01*
X94639761Y-66048083D01*
X94591697Y-66055600D01*
X94563086Y-66075543D01*
X94551447Y-66089675D01*
X94543391Y-66108220D01*
X94538271Y-66136334D01*
X94535441Y-66179173D01*
X94534256Y-66241895D01*
X94534057Y-66307261D01*
X94534018Y-66389268D01*
X94532614Y-66447316D01*
X94527914Y-66486465D01*
X94517987Y-66511780D01*
X94500903Y-66528323D01*
X94474732Y-66541156D01*
X94439775Y-66554491D01*
X94401596Y-66569007D01*
X94406141Y-66311389D01*
X94407971Y-66218519D01*
X94410112Y-66149889D01*
X94413181Y-66100711D01*
X94417794Y-66066198D01*
X94424568Y-66041562D01*
X94434119Y-66022016D01*
X94445634Y-66004770D01*
X94501190Y-65949680D01*
X94568980Y-65917822D01*
X94642713Y-65910191D01*
X94716093Y-65927780D01*
G36*
X94716093Y-65927780D02*
G01*
X94762672Y-65954723D01*
X94795057Y-65981466D01*
X94818742Y-66009484D01*
X94835059Y-66043748D01*
X94845339Y-66089227D01*
X94850914Y-66150892D01*
X94853116Y-66233711D01*
X94853371Y-66293246D01*
X94853371Y-66512391D01*
X94791686Y-66540044D01*
X94730000Y-66567697D01*
X94722743Y-66327670D01*
X94719744Y-66238028D01*
X94716598Y-66172962D01*
X94712701Y-66128026D01*
X94707447Y-66098770D01*
X94700231Y-66080748D01*
X94690450Y-66069511D01*
X94687312Y-66067079D01*
X94639761Y-66048083D01*
X94591697Y-66055600D01*
X94563086Y-66075543D01*
X94551447Y-66089675D01*
X94543391Y-66108220D01*
X94538271Y-66136334D01*
X94535441Y-66179173D01*
X94534256Y-66241895D01*
X94534057Y-66307261D01*
X94534018Y-66389268D01*
X94532614Y-66447316D01*
X94527914Y-66486465D01*
X94517987Y-66511780D01*
X94500903Y-66528323D01*
X94474732Y-66541156D01*
X94439775Y-66554491D01*
X94401596Y-66569007D01*
X94406141Y-66311389D01*
X94407971Y-66218519D01*
X94410112Y-66149889D01*
X94413181Y-66100711D01*
X94417794Y-66066198D01*
X94424568Y-66041562D01*
X94434119Y-66022016D01*
X94445634Y-66004770D01*
X94501190Y-65949680D01*
X94568980Y-65917822D01*
X94642713Y-65910191D01*
X94716093Y-65927780D01*
G37*
X96529926Y-65949755D02*
X96595858Y-65974084D01*
X96649273Y-66017117D01*
X96670164Y-66047409D01*
X96692939Y-66102994D01*
X96692466Y-66143186D01*
X96668562Y-66170217D01*
X96659717Y-66174813D01*
X96621530Y-66189144D01*
X96602028Y-66185472D01*
X96595422Y-66161407D01*
X96595086Y-66148114D01*
X96582992Y-66099210D01*
X96551471Y-66064999D01*
X96507659Y-66048476D01*
X96458695Y-66052634D01*
X96418894Y-66074227D01*
X96405450Y-66086544D01*
X96395921Y-66101487D01*
X96389485Y-66124075D01*
X96385317Y-66159328D01*
X96382597Y-66212266D01*
X96380502Y-66287907D01*
X96379960Y-66311857D01*
X96377981Y-66393790D01*
X96375731Y-66451455D01*
X96372357Y-66489608D01*
X96367006Y-66513004D01*
X96358824Y-66526398D01*
X96346959Y-66534545D01*
X96339362Y-66538144D01*
X96307102Y-66550452D01*
X96288111Y-66554514D01*
X96281836Y-66540948D01*
X96278006Y-66499934D01*
X96276600Y-66430999D01*
X96277598Y-66333669D01*
X96277908Y-66318657D01*
X96280101Y-66229859D01*
X96282693Y-66165019D01*
X96286382Y-66119067D01*
X96291864Y-66086935D01*
X96299835Y-66063553D01*
X96310993Y-66043852D01*
X96316830Y-66035410D01*
X96350296Y-65998057D01*
X96387727Y-65969003D01*
X96392309Y-65966467D01*
X96459426Y-65946443D01*
X96529926Y-65949755D01*
G36*
X96529926Y-65949755D02*
G01*
X96595858Y-65974084D01*
X96649273Y-66017117D01*
X96670164Y-66047409D01*
X96692939Y-66102994D01*
X96692466Y-66143186D01*
X96668562Y-66170217D01*
X96659717Y-66174813D01*
X96621530Y-66189144D01*
X96602028Y-66185472D01*
X96595422Y-66161407D01*
X96595086Y-66148114D01*
X96582992Y-66099210D01*
X96551471Y-66064999D01*
X96507659Y-66048476D01*
X96458695Y-66052634D01*
X96418894Y-66074227D01*
X96405450Y-66086544D01*
X96395921Y-66101487D01*
X96389485Y-66124075D01*
X96385317Y-66159328D01*
X96382597Y-66212266D01*
X96380502Y-66287907D01*
X96379960Y-66311857D01*
X96377981Y-66393790D01*
X96375731Y-66451455D01*
X96372357Y-66489608D01*
X96367006Y-66513004D01*
X96358824Y-66526398D01*
X96346959Y-66534545D01*
X96339362Y-66538144D01*
X96307102Y-66550452D01*
X96288111Y-66554514D01*
X96281836Y-66540948D01*
X96278006Y-66499934D01*
X96276600Y-66430999D01*
X96277598Y-66333669D01*
X96277908Y-66318657D01*
X96280101Y-66229859D01*
X96282693Y-66165019D01*
X96286382Y-66119067D01*
X96291864Y-66086935D01*
X96299835Y-66063553D01*
X96310993Y-66043852D01*
X96316830Y-66035410D01*
X96350296Y-65998057D01*
X96387727Y-65969003D01*
X96392309Y-65966467D01*
X96459426Y-65946443D01*
X96529926Y-65949755D01*
G37*
X95375886Y-65851289D02*
X95380139Y-65910613D01*
X95385025Y-65945572D01*
X95391795Y-65960820D01*
X95401702Y-65961015D01*
X95404914Y-65959195D01*
X95447644Y-65946015D01*
X95503227Y-65946785D01*
X95559737Y-65960333D01*
X95595082Y-65977861D01*
X95631321Y-66005861D01*
X95657813Y-66037549D01*
X95675999Y-66077813D01*
X95687322Y-66131543D01*
X95693222Y-66203626D01*
X95695143Y-66298951D01*
X95695177Y-66317237D01*
X95695200Y-66522646D01*
X95649491Y-66538580D01*
X95617027Y-66549420D01*
X95599215Y-66554468D01*
X95598691Y-66554514D01*
X95596937Y-66540828D01*
X95595444Y-66503076D01*
X95594326Y-66446224D01*
X95593697Y-66375234D01*
X95593600Y-66332073D01*
X95593398Y-66246973D01*
X95592358Y-66185981D01*
X95589831Y-66144177D01*
X95585164Y-66116642D01*
X95577707Y-66098456D01*
X95566811Y-66084698D01*
X95560007Y-66078073D01*
X95513272Y-66051375D01*
X95462272Y-66049375D01*
X95416001Y-66071955D01*
X95407444Y-66080107D01*
X95394893Y-66095436D01*
X95386188Y-66113618D01*
X95380631Y-66139909D01*
X95377526Y-66179562D01*
X95376176Y-66237832D01*
X95375886Y-66318173D01*
X95375886Y-66522646D01*
X95330177Y-66538580D01*
X95297713Y-66549420D01*
X95279901Y-66554468D01*
X95279377Y-66554514D01*
X95278037Y-66540623D01*
X95276828Y-66501439D01*
X95275801Y-66440700D01*
X95275002Y-66362141D01*
X95274481Y-66269498D01*
X95274286Y-66166509D01*
X95274286Y-65769342D01*
X95321457Y-65749444D01*
X95368629Y-65729547D01*
X95375886Y-65851289D01*
G36*
X95375886Y-65851289D02*
G01*
X95380139Y-65910613D01*
X95385025Y-65945572D01*
X95391795Y-65960820D01*
X95401702Y-65961015D01*
X95404914Y-65959195D01*
X95447644Y-65946015D01*
X95503227Y-65946785D01*
X95559737Y-65960333D01*
X95595082Y-65977861D01*
X95631321Y-66005861D01*
X95657813Y-66037549D01*
X95675999Y-66077813D01*
X95687322Y-66131543D01*
X95693222Y-66203626D01*
X95695143Y-66298951D01*
X95695177Y-66317237D01*
X95695200Y-66522646D01*
X95649491Y-66538580D01*
X95617027Y-66549420D01*
X95599215Y-66554468D01*
X95598691Y-66554514D01*
X95596937Y-66540828D01*
X95595444Y-66503076D01*
X95594326Y-66446224D01*
X95593697Y-66375234D01*
X95593600Y-66332073D01*
X95593398Y-66246973D01*
X95592358Y-66185981D01*
X95589831Y-66144177D01*
X95585164Y-66116642D01*
X95577707Y-66098456D01*
X95566811Y-66084698D01*
X95560007Y-66078073D01*
X95513272Y-66051375D01*
X95462272Y-66049375D01*
X95416001Y-66071955D01*
X95407444Y-66080107D01*
X95394893Y-66095436D01*
X95386188Y-66113618D01*
X95380631Y-66139909D01*
X95377526Y-66179562D01*
X95376176Y-66237832D01*
X95375886Y-66318173D01*
X95375886Y-66522646D01*
X95330177Y-66538580D01*
X95297713Y-66549420D01*
X95279901Y-66554468D01*
X95279377Y-66554514D01*
X95278037Y-66540623D01*
X95276828Y-66501439D01*
X95275801Y-66440700D01*
X95275002Y-66362141D01*
X95274481Y-66269498D01*
X95274286Y-66166509D01*
X95274286Y-65769342D01*
X95321457Y-65749444D01*
X95368629Y-65729547D01*
X95375886Y-65851289D01*
G37*
X97779833Y-65958663D02*
X97782048Y-65996850D01*
X97783784Y-66054886D01*
X97784899Y-66128180D01*
X97785257Y-66205055D01*
X97785257Y-66465196D01*
X97739326Y-66511127D01*
X97707675Y-66539429D01*
X97679890Y-66550893D01*
X97641915Y-66550168D01*
X97626840Y-66548321D01*
X97579726Y-66542948D01*
X97540756Y-66539869D01*
X97531257Y-66539585D01*
X97499233Y-66541445D01*
X97453432Y-66546114D01*
X97435674Y-66548321D01*
X97392057Y-66551735D01*
X97362745Y-66544320D01*
X97333680Y-66521427D01*
X97323188Y-66511127D01*
X97277257Y-66465196D01*
X97277257Y-65978602D01*
X97314226Y-65961758D01*
X97346059Y-65949282D01*
X97364683Y-65944914D01*
X97369458Y-65958718D01*
X97373921Y-65997286D01*
X97377775Y-66056356D01*
X97380722Y-66131663D01*
X97382143Y-66195286D01*
X97386114Y-66445657D01*
X97420759Y-66450556D01*
X97452268Y-66447131D01*
X97467708Y-66436041D01*
X97472023Y-66415308D01*
X97475708Y-66371145D01*
X97478469Y-66309146D01*
X97480012Y-66234909D01*
X97480235Y-66196706D01*
X97480457Y-65976783D01*
X97526166Y-65960849D01*
X97558518Y-65950015D01*
X97576115Y-65944962D01*
X97576623Y-65944914D01*
X97578388Y-65958648D01*
X97580329Y-65996730D01*
X97582282Y-66054482D01*
X97584084Y-66127227D01*
X97585343Y-66195286D01*
X97589314Y-66445657D01*
X97676400Y-66445657D01*
X97680396Y-66217240D01*
X97684392Y-65988822D01*
X97726847Y-65966868D01*
X97758192Y-65951793D01*
X97776744Y-65944951D01*
X97777279Y-65944914D01*
X97779833Y-65958663D01*
G36*
X97779833Y-65958663D02*
G01*
X97782048Y-65996850D01*
X97783784Y-66054886D01*
X97784899Y-66128180D01*
X97785257Y-66205055D01*
X97785257Y-66465196D01*
X97739326Y-66511127D01*
X97707675Y-66539429D01*
X97679890Y-66550893D01*
X97641915Y-66550168D01*
X97626840Y-66548321D01*
X97579726Y-66542948D01*
X97540756Y-66539869D01*
X97531257Y-66539585D01*
X97499233Y-66541445D01*
X97453432Y-66546114D01*
X97435674Y-66548321D01*
X97392057Y-66551735D01*
X97362745Y-66544320D01*
X97333680Y-66521427D01*
X97323188Y-66511127D01*
X97277257Y-66465196D01*
X97277257Y-65978602D01*
X97314226Y-65961758D01*
X97346059Y-65949282D01*
X97364683Y-65944914D01*
X97369458Y-65958718D01*
X97373921Y-65997286D01*
X97377775Y-66056356D01*
X97380722Y-66131663D01*
X97382143Y-66195286D01*
X97386114Y-66445657D01*
X97420759Y-66450556D01*
X97452268Y-66447131D01*
X97467708Y-66436041D01*
X97472023Y-66415308D01*
X97475708Y-66371145D01*
X97478469Y-66309146D01*
X97480012Y-66234909D01*
X97480235Y-66196706D01*
X97480457Y-65976783D01*
X97526166Y-65960849D01*
X97558518Y-65950015D01*
X97576115Y-65944962D01*
X97576623Y-65944914D01*
X97578388Y-65958648D01*
X97580329Y-65996730D01*
X97582282Y-66054482D01*
X97584084Y-66127227D01*
X97585343Y-66195286D01*
X97589314Y-66445657D01*
X97676400Y-66445657D01*
X97680396Y-66217240D01*
X97684392Y-65988822D01*
X97726847Y-65966868D01*
X97758192Y-65951793D01*
X97776744Y-65944951D01*
X97777279Y-65944914D01*
X97779833Y-65958663D01*
G37*
X93041115Y-65921962D02*
X93109145Y-65957733D01*
X93159351Y-66015301D01*
X93177185Y-66052312D01*
X93191063Y-66107882D01*
X93198167Y-66178096D01*
X93198840Y-66254727D01*
X93193427Y-66329552D01*
X93182270Y-66394342D01*
X93165714Y-66440873D01*
X93160626Y-66448887D01*
X93100355Y-66508707D01*
X93028769Y-66544535D01*
X92951092Y-66555020D01*
X92872548Y-66538810D01*
X92850689Y-66529092D01*
X92808122Y-66499143D01*
X92770763Y-66459433D01*
X92767232Y-66454397D01*
X92752881Y-66430124D01*
X92743394Y-66404178D01*
X92737790Y-66370022D01*
X92735086Y-66321119D01*
X92734299Y-66250935D01*
X92734286Y-66235200D01*
X92734322Y-66230192D01*
X92879429Y-66230192D01*
X92880273Y-66296430D01*
X92883596Y-66340386D01*
X92890583Y-66368779D01*
X92902416Y-66388325D01*
X92908457Y-66394857D01*
X92943186Y-66419680D01*
X92976903Y-66418548D01*
X93010995Y-66397016D01*
X93031329Y-66374029D01*
X93043371Y-66340478D01*
X93050134Y-66287569D01*
X93050598Y-66281399D01*
X93051752Y-66185513D01*
X93039688Y-66114299D01*
X93014570Y-66068194D01*
X92976560Y-66047635D01*
X92962992Y-66046514D01*
X92927364Y-66052152D01*
X92902994Y-66071686D01*
X92888093Y-66109042D01*
X92880875Y-66168150D01*
X92879429Y-66230192D01*
X92734322Y-66230192D01*
X92734826Y-66160413D01*
X92737096Y-66108159D01*
X92742068Y-66071949D01*
X92750713Y-66045299D01*
X92764005Y-66021722D01*
X92766943Y-66017338D01*
X92816313Y-65958249D01*
X92870109Y-65923947D01*
X92935602Y-65910331D01*
X92957842Y-65909665D01*
X93041115Y-65921962D01*
G36*
X93041115Y-65921962D02*
G01*
X93109145Y-65957733D01*
X93159351Y-66015301D01*
X93177185Y-66052312D01*
X93191063Y-66107882D01*
X93198167Y-66178096D01*
X93198840Y-66254727D01*
X93193427Y-66329552D01*
X93182270Y-66394342D01*
X93165714Y-66440873D01*
X93160626Y-66448887D01*
X93100355Y-66508707D01*
X93028769Y-66544535D01*
X92951092Y-66555020D01*
X92872548Y-66538810D01*
X92850689Y-66529092D01*
X92808122Y-66499143D01*
X92770763Y-66459433D01*
X92767232Y-66454397D01*
X92752881Y-66430124D01*
X92743394Y-66404178D01*
X92737790Y-66370022D01*
X92735086Y-66321119D01*
X92734299Y-66250935D01*
X92734286Y-66235200D01*
X92734322Y-66230192D01*
X92879429Y-66230192D01*
X92880273Y-66296430D01*
X92883596Y-66340386D01*
X92890583Y-66368779D01*
X92902416Y-66388325D01*
X92908457Y-66394857D01*
X92943186Y-66419680D01*
X92976903Y-66418548D01*
X93010995Y-66397016D01*
X93031329Y-66374029D01*
X93043371Y-66340478D01*
X93050134Y-66287569D01*
X93050598Y-66281399D01*
X93051752Y-66185513D01*
X93039688Y-66114299D01*
X93014570Y-66068194D01*
X92976560Y-66047635D01*
X92962992Y-66046514D01*
X92927364Y-66052152D01*
X92902994Y-66071686D01*
X92888093Y-66109042D01*
X92880875Y-66168150D01*
X92879429Y-66230192D01*
X92734322Y-66230192D01*
X92734826Y-66160413D01*
X92737096Y-66108159D01*
X92742068Y-66071949D01*
X92750713Y-66045299D01*
X92764005Y-66021722D01*
X92766943Y-66017338D01*
X92816313Y-65958249D01*
X92870109Y-65923947D01*
X92935602Y-65910331D01*
X92957842Y-65909665D01*
X93041115Y-65921962D01*
G37*
X99153595Y-65966966D02*
X99211021Y-66004497D01*
X99238719Y-66038096D01*
X99260662Y-66099064D01*
X99262405Y-66147308D01*
X99258457Y-66211816D01*
X99109686Y-66276934D01*
X99037349Y-66310202D01*
X98990084Y-66336964D01*
X98965507Y-66360144D01*
X98961237Y-66382667D01*
X98974889Y-66407455D01*
X98989943Y-66423886D01*
X99033746Y-66450235D01*
X99081389Y-66452081D01*
X99125145Y-66431546D01*
X99157289Y-66390752D01*
X99163038Y-66376347D01*
X99190576Y-66331356D01*
X99222258Y-66312182D01*
X99265714Y-66295779D01*
X99265714Y-66357966D01*
X99261872Y-66400283D01*
X99246823Y-66435969D01*
X99215280Y-66476943D01*
X99210592Y-66482267D01*
X99175506Y-66518720D01*
X99145347Y-66538283D01*
X99107615Y-66547283D01*
X99076335Y-66550230D01*
X99020385Y-66550965D01*
X98980555Y-66541660D01*
X98955708Y-66527846D01*
X98916656Y-66497467D01*
X98889625Y-66464613D01*
X98872517Y-66423294D01*
X98863238Y-66367521D01*
X98859693Y-66291305D01*
X98859410Y-66252622D01*
X98860372Y-66206247D01*
X98948007Y-66206247D01*
X98949023Y-66231126D01*
X98951556Y-66235200D01*
X98968274Y-66229665D01*
X99004249Y-66215017D01*
X99052331Y-66194190D01*
X99062386Y-66189714D01*
X99123152Y-66158814D01*
X99156632Y-66131657D01*
X99163990Y-66106220D01*
X99146391Y-66080481D01*
X99131856Y-66069109D01*
X99079410Y-66046364D01*
X99030322Y-66050122D01*
X98989227Y-66077884D01*
X98960758Y-66127152D01*
X98951631Y-66166257D01*
X98948007Y-66206247D01*
X98860372Y-66206247D01*
X98861285Y-66162249D01*
X98868196Y-66095384D01*
X98881884Y-66046695D01*
X98904096Y-66010849D01*
X98936574Y-65982513D01*
X98950733Y-65973355D01*
X99015053Y-65949507D01*
X99085473Y-65948006D01*
X99153595Y-65966966D01*
G36*
X99153595Y-65966966D02*
G01*
X99211021Y-66004497D01*
X99238719Y-66038096D01*
X99260662Y-66099064D01*
X99262405Y-66147308D01*
X99258457Y-66211816D01*
X99109686Y-66276934D01*
X99037349Y-66310202D01*
X98990084Y-66336964D01*
X98965507Y-66360144D01*
X98961237Y-66382667D01*
X98974889Y-66407455D01*
X98989943Y-66423886D01*
X99033746Y-66450235D01*
X99081389Y-66452081D01*
X99125145Y-66431546D01*
X99157289Y-66390752D01*
X99163038Y-66376347D01*
X99190576Y-66331356D01*
X99222258Y-66312182D01*
X99265714Y-66295779D01*
X99265714Y-66357966D01*
X99261872Y-66400283D01*
X99246823Y-66435969D01*
X99215280Y-66476943D01*
X99210592Y-66482267D01*
X99175506Y-66518720D01*
X99145347Y-66538283D01*
X99107615Y-66547283D01*
X99076335Y-66550230D01*
X99020385Y-66550965D01*
X98980555Y-66541660D01*
X98955708Y-66527846D01*
X98916656Y-66497467D01*
X98889625Y-66464613D01*
X98872517Y-66423294D01*
X98863238Y-66367521D01*
X98859693Y-66291305D01*
X98859410Y-66252622D01*
X98860372Y-66206247D01*
X98948007Y-66206247D01*
X98949023Y-66231126D01*
X98951556Y-66235200D01*
X98968274Y-66229665D01*
X99004249Y-66215017D01*
X99052331Y-66194190D01*
X99062386Y-66189714D01*
X99123152Y-66158814D01*
X99156632Y-66131657D01*
X99163990Y-66106220D01*
X99146391Y-66080481D01*
X99131856Y-66069109D01*
X99079410Y-66046364D01*
X99030322Y-66050122D01*
X98989227Y-66077884D01*
X98960758Y-66127152D01*
X98951631Y-66166257D01*
X98948007Y-66206247D01*
X98860372Y-66206247D01*
X98861285Y-66162249D01*
X98868196Y-66095384D01*
X98881884Y-66046695D01*
X98904096Y-66010849D01*
X98936574Y-65982513D01*
X98950733Y-65973355D01*
X99015053Y-65949507D01*
X99085473Y-65948006D01*
X99153595Y-65966966D01*
G37*
X97190117Y-66065358D02*
X97189933Y-66173837D01*
X97189219Y-66257287D01*
X97187675Y-66319704D01*
X97185001Y-66365085D01*
X97180894Y-66397429D01*
X97175055Y-66420733D01*
X97167182Y-66438995D01*
X97161221Y-66449418D01*
X97111855Y-66505945D01*
X97049264Y-66541377D01*
X96980013Y-66554090D01*
X96910668Y-66542463D01*
X96869375Y-66521568D01*
X96826025Y-66485422D01*
X96796481Y-66441276D01*
X96778655Y-66383462D01*
X96770463Y-66306313D01*
X96769302Y-66249714D01*
X96769458Y-66245647D01*
X96870857Y-66245647D01*
X96871476Y-66310550D01*
X96874314Y-66353514D01*
X96880840Y-66381622D01*
X96892523Y-66401953D01*
X96906483Y-66417288D01*
X96953365Y-66446890D01*
X97003701Y-66449419D01*
X97051276Y-66424705D01*
X97054979Y-66421356D01*
X97070783Y-66403935D01*
X97080693Y-66383209D01*
X97086058Y-66352362D01*
X97088228Y-66304577D01*
X97088571Y-66251748D01*
X97087827Y-66185381D01*
X97084748Y-66141106D01*
X97078061Y-66112009D01*
X97066496Y-66091173D01*
X97057013Y-66080107D01*
X97012960Y-66052198D01*
X96962224Y-66048843D01*
X96913796Y-66070159D01*
X96904450Y-66078073D01*
X96888540Y-66095647D01*
X96878610Y-66116587D01*
X96873278Y-66147782D01*
X96871163Y-66196122D01*
X96870857Y-66245647D01*
X96769458Y-66245647D01*
X96772810Y-66158568D01*
X96784726Y-66090086D01*
X96807135Y-66038600D01*
X96842124Y-65998443D01*
X96869375Y-65977861D01*
X96918907Y-65955625D01*
X96976316Y-65945304D01*
X97029682Y-65948067D01*
X97059543Y-65959212D01*
X97071261Y-65962383D01*
X97079037Y-65950557D01*
X97084465Y-65918866D01*
X97088571Y-65870593D01*
X97093067Y-65816829D01*
X97099313Y-65784482D01*
X97110676Y-65765985D01*
X97130528Y-65753770D01*
X97143000Y-65748362D01*
X97190171Y-65728601D01*
X97190117Y-66065358D01*
G36*
X97190117Y-66065358D02*
G01*
X97189933Y-66173837D01*
X97189219Y-66257287D01*
X97187675Y-66319704D01*
X97185001Y-66365085D01*
X97180894Y-66397429D01*
X97175055Y-66420733D01*
X97167182Y-66438995D01*
X97161221Y-66449418D01*
X97111855Y-66505945D01*
X97049264Y-66541377D01*
X96980013Y-66554090D01*
X96910668Y-66542463D01*
X96869375Y-66521568D01*
X96826025Y-66485422D01*
X96796481Y-66441276D01*
X96778655Y-66383462D01*
X96770463Y-66306313D01*
X96769302Y-66249714D01*
X96769458Y-66245647D01*
X96870857Y-66245647D01*
X96871476Y-66310550D01*
X96874314Y-66353514D01*
X96880840Y-66381622D01*
X96892523Y-66401953D01*
X96906483Y-66417288D01*
X96953365Y-66446890D01*
X97003701Y-66449419D01*
X97051276Y-66424705D01*
X97054979Y-66421356D01*
X97070783Y-66403935D01*
X97080693Y-66383209D01*
X97086058Y-66352362D01*
X97088228Y-66304577D01*
X97088571Y-66251748D01*
X97087827Y-66185381D01*
X97084748Y-66141106D01*
X97078061Y-66112009D01*
X97066496Y-66091173D01*
X97057013Y-66080107D01*
X97012960Y-66052198D01*
X96962224Y-66048843D01*
X96913796Y-66070159D01*
X96904450Y-66078073D01*
X96888540Y-66095647D01*
X96878610Y-66116587D01*
X96873278Y-66147782D01*
X96871163Y-66196122D01*
X96870857Y-66245647D01*
X96769458Y-66245647D01*
X96772810Y-66158568D01*
X96784726Y-66090086D01*
X96807135Y-66038600D01*
X96842124Y-65998443D01*
X96869375Y-65977861D01*
X96918907Y-65955625D01*
X96976316Y-65945304D01*
X97029682Y-65948067D01*
X97059543Y-65959212D01*
X97071261Y-65962383D01*
X97079037Y-65950557D01*
X97084465Y-65918866D01*
X97088571Y-65870593D01*
X97093067Y-65816829D01*
X97099313Y-65784482D01*
X97110676Y-65765985D01*
X97130528Y-65753770D01*
X97143000Y-65748362D01*
X97190171Y-65728601D01*
X97190117Y-66065358D01*
G37*
X94168303Y-65931239D02*
X94225527Y-65969735D01*
X94269749Y-66025335D01*
X94296167Y-66096086D01*
X94301510Y-66148162D01*
X94300903Y-66169893D01*
X94295822Y-66186531D01*
X94281855Y-66201437D01*
X94254589Y-66217973D01*
X94209612Y-66239498D01*
X94142511Y-66269374D01*
X94142171Y-66269524D01*
X94080407Y-66297813D01*
X94029759Y-66322933D01*
X93995404Y-66342179D01*
X93982518Y-66352848D01*
X93982514Y-66352934D01*
X93993872Y-66376166D01*
X94020431Y-66401774D01*
X94050923Y-66420221D01*
X94066370Y-66423886D01*
X94108515Y-66411212D01*
X94144808Y-66379471D01*
X94162517Y-66344572D01*
X94179552Y-66318845D01*
X94212922Y-66289546D01*
X94252149Y-66264235D01*
X94286756Y-66250471D01*
X94293993Y-66249714D01*
X94302139Y-66262160D01*
X94302630Y-66293972D01*
X94296643Y-66336866D01*
X94285357Y-66382558D01*
X94269950Y-66422761D01*
X94269171Y-66424322D01*
X94222804Y-66489062D01*
X94162711Y-66533097D01*
X94094465Y-66554711D01*
X94023638Y-66552185D01*
X93955804Y-66523804D01*
X93952788Y-66521808D01*
X93899427Y-66473448D01*
X93864340Y-66410352D01*
X93844922Y-66327387D01*
X93842316Y-66304078D01*
X93837701Y-66194055D01*
X93843233Y-66142748D01*
X93982514Y-66142748D01*
X93984324Y-66174753D01*
X93994222Y-66184093D01*
X94018898Y-66177105D01*
X94057795Y-66160587D01*
X94101275Y-66139881D01*
X94102356Y-66139333D01*
X94139209Y-66119949D01*
X94154000Y-66107013D01*
X94150353Y-66093451D01*
X94134995Y-66075632D01*
X94095923Y-66049845D01*
X94053846Y-66047950D01*
X94016103Y-66066717D01*
X93990034Y-66102915D01*
X93982514Y-66142748D01*
X93843233Y-66142748D01*
X93847194Y-66106027D01*
X93871550Y-66036212D01*
X93905456Y-65987302D01*
X93966653Y-65937878D01*
X94034063Y-65913359D01*
X94102880Y-65911797D01*
X94168303Y-65931239D01*
G36*
X94168303Y-65931239D02*
G01*
X94225527Y-65969735D01*
X94269749Y-66025335D01*
X94296167Y-66096086D01*
X94301510Y-66148162D01*
X94300903Y-66169893D01*
X94295822Y-66186531D01*
X94281855Y-66201437D01*
X94254589Y-66217973D01*
X94209612Y-66239498D01*
X94142511Y-66269374D01*
X94142171Y-66269524D01*
X94080407Y-66297813D01*
X94029759Y-66322933D01*
X93995404Y-66342179D01*
X93982518Y-66352848D01*
X93982514Y-66352934D01*
X93993872Y-66376166D01*
X94020431Y-66401774D01*
X94050923Y-66420221D01*
X94066370Y-66423886D01*
X94108515Y-66411212D01*
X94144808Y-66379471D01*
X94162517Y-66344572D01*
X94179552Y-66318845D01*
X94212922Y-66289546D01*
X94252149Y-66264235D01*
X94286756Y-66250471D01*
X94293993Y-66249714D01*
X94302139Y-66262160D01*
X94302630Y-66293972D01*
X94296643Y-66336866D01*
X94285357Y-66382558D01*
X94269950Y-66422761D01*
X94269171Y-66424322D01*
X94222804Y-66489062D01*
X94162711Y-66533097D01*
X94094465Y-66554711D01*
X94023638Y-66552185D01*
X93955804Y-66523804D01*
X93952788Y-66521808D01*
X93899427Y-66473448D01*
X93864340Y-66410352D01*
X93844922Y-66327387D01*
X93842316Y-66304078D01*
X93837701Y-66194055D01*
X93843233Y-66142748D01*
X93982514Y-66142748D01*
X93984324Y-66174753D01*
X93994222Y-66184093D01*
X94018898Y-66177105D01*
X94057795Y-66160587D01*
X94101275Y-66139881D01*
X94102356Y-66139333D01*
X94139209Y-66119949D01*
X94154000Y-66107013D01*
X94150353Y-66093451D01*
X94134995Y-66075632D01*
X94095923Y-66049845D01*
X94053846Y-66047950D01*
X94016103Y-66066717D01*
X93990034Y-66102915D01*
X93982514Y-66142748D01*
X93843233Y-66142748D01*
X93847194Y-66106027D01*
X93871550Y-66036212D01*
X93905456Y-65987302D01*
X93966653Y-65937878D01*
X94034063Y-65913359D01*
X94102880Y-65911797D01*
X94168303Y-65931239D01*
G37*
X96039744Y-65950968D02*
X96096616Y-65972087D01*
X96097267Y-65972493D01*
X96132440Y-65998380D01*
X96158407Y-66028633D01*
X96176670Y-66068058D01*
X96188732Y-66121462D01*
X96196096Y-66193651D01*
X96200264Y-66289432D01*
X96200629Y-66303078D01*
X96205876Y-66508842D01*
X96161716Y-66531678D01*
X96129763Y-66547110D01*
X96110470Y-66554423D01*
X96109578Y-66554514D01*
X96106239Y-66541022D01*
X96103587Y-66504626D01*
X96101956Y-66451452D01*
X96101600Y-66408393D01*
X96101592Y-66338641D01*
X96098403Y-66294837D01*
X96087288Y-66273944D01*
X96063501Y-66272925D01*
X96022296Y-66288741D01*
X95960086Y-66317815D01*
X95914341Y-66341963D01*
X95890813Y-66362913D01*
X95883896Y-66385747D01*
X95883886Y-66386877D01*
X95895299Y-66426212D01*
X95929092Y-66447462D01*
X95980809Y-66450539D01*
X96018061Y-66450006D01*
X96037703Y-66460735D01*
X96049952Y-66486505D01*
X96057002Y-66519337D01*
X96046842Y-66537966D01*
X96043017Y-66540632D01*
X96007001Y-66551340D01*
X95956566Y-66552856D01*
X95904626Y-66545759D01*
X95867822Y-66532788D01*
X95816938Y-66489585D01*
X95788014Y-66429446D01*
X95782286Y-66382462D01*
X95786657Y-66340082D01*
X95802475Y-66305488D01*
X95833797Y-66274763D01*
X95884678Y-66243990D01*
X95959176Y-66209252D01*
X95963714Y-66207288D01*
X96030821Y-66176287D01*
X96072232Y-66150862D01*
X96089981Y-66128014D01*
X96086107Y-66104745D01*
X96062643Y-66078056D01*
X96055627Y-66071914D01*
X96008630Y-66048100D01*
X95959933Y-66049103D01*
X95917522Y-66072451D01*
X95889384Y-66115675D01*
X95886769Y-66124160D01*
X95861308Y-66165308D01*
X95829001Y-66185128D01*
X95782286Y-66204770D01*
X95782286Y-66153950D01*
X95796496Y-66080082D01*
X95838675Y-66012327D01*
X95860624Y-65989661D01*
X95910517Y-65960569D01*
X95973967Y-65947400D01*
X96039744Y-65950968D01*
G36*
X96039744Y-65950968D02*
G01*
X96096616Y-65972087D01*
X96097267Y-65972493D01*
X96132440Y-65998380D01*
X96158407Y-66028633D01*
X96176670Y-66068058D01*
X96188732Y-66121462D01*
X96196096Y-66193651D01*
X96200264Y-66289432D01*
X96200629Y-66303078D01*
X96205876Y-66508842D01*
X96161716Y-66531678D01*
X96129763Y-66547110D01*
X96110470Y-66554423D01*
X96109578Y-66554514D01*
X96106239Y-66541022D01*
X96103587Y-66504626D01*
X96101956Y-66451452D01*
X96101600Y-66408393D01*
X96101592Y-66338641D01*
X96098403Y-66294837D01*
X96087288Y-66273944D01*
X96063501Y-66272925D01*
X96022296Y-66288741D01*
X95960086Y-66317815D01*
X95914341Y-66341963D01*
X95890813Y-66362913D01*
X95883896Y-66385747D01*
X95883886Y-66386877D01*
X95895299Y-66426212D01*
X95929092Y-66447462D01*
X95980809Y-66450539D01*
X96018061Y-66450006D01*
X96037703Y-66460735D01*
X96049952Y-66486505D01*
X96057002Y-66519337D01*
X96046842Y-66537966D01*
X96043017Y-66540632D01*
X96007001Y-66551340D01*
X95956566Y-66552856D01*
X95904626Y-66545759D01*
X95867822Y-66532788D01*
X95816938Y-66489585D01*
X95788014Y-66429446D01*
X95782286Y-66382462D01*
X95786657Y-66340082D01*
X95802475Y-66305488D01*
X95833797Y-66274763D01*
X95884678Y-66243990D01*
X95959176Y-66209252D01*
X95963714Y-66207288D01*
X96030821Y-66176287D01*
X96072232Y-66150862D01*
X96089981Y-66128014D01*
X96086107Y-66104745D01*
X96062643Y-66078056D01*
X96055627Y-66071914D01*
X96008630Y-66048100D01*
X95959933Y-66049103D01*
X95917522Y-66072451D01*
X95889384Y-66115675D01*
X95886769Y-66124160D01*
X95861308Y-66165308D01*
X95829001Y-66185128D01*
X95782286Y-66204770D01*
X95782286Y-66153950D01*
X95796496Y-66080082D01*
X95838675Y-66012327D01*
X95860624Y-65989661D01*
X95910517Y-65960569D01*
X95973967Y-65947400D01*
X96039744Y-65950968D01*
G37*
X93599744Y-65919918D02*
X93655201Y-65947568D01*
X93704148Y-65998480D01*
X93717629Y-66017338D01*
X93732314Y-66042015D01*
X93741842Y-66068816D01*
X93747293Y-66104587D01*
X93749747Y-66156169D01*
X93750286Y-66224267D01*
X93747852Y-66317588D01*
X93739394Y-66387657D01*
X93723174Y-66439931D01*
X93697454Y-66479869D01*
X93660497Y-66512929D01*
X93657782Y-66514886D01*
X93621360Y-66534908D01*
X93577502Y-66544815D01*
X93521724Y-66547257D01*
X93431048Y-66547257D01*
X93431010Y-66635283D01*
X93430166Y-66684308D01*
X93425024Y-66713065D01*
X93411587Y-66730311D01*
X93385858Y-66744808D01*
X93379679Y-66747769D01*
X93350764Y-66761648D01*
X93328376Y-66770414D01*
X93311729Y-66771171D01*
X93300036Y-66761023D01*
X93292510Y-66737073D01*
X93288366Y-66696426D01*
X93286815Y-66636186D01*
X93287071Y-66553455D01*
X93288349Y-66445339D01*
X93288748Y-66413000D01*
X93290185Y-66301524D01*
X93291472Y-66228603D01*
X93430971Y-66228603D01*
X93431755Y-66290499D01*
X93435240Y-66330997D01*
X93443124Y-66357708D01*
X93457105Y-66378244D01*
X93466597Y-66388260D01*
X93505404Y-66417567D01*
X93539763Y-66419952D01*
X93575216Y-66395750D01*
X93576114Y-66394857D01*
X93590539Y-66376153D01*
X93599313Y-66350732D01*
X93603739Y-66311584D01*
X93605118Y-66251697D01*
X93605143Y-66238430D01*
X93601812Y-66155901D01*
X93590969Y-66098691D01*
X93571340Y-66063766D01*
X93541650Y-66048094D01*
X93524491Y-66046514D01*
X93483766Y-66053926D01*
X93455832Y-66078330D01*
X93439017Y-66122980D01*
X93431650Y-66191130D01*
X93430971Y-66228603D01*
X93291472Y-66228603D01*
X93291708Y-66215245D01*
X93293677Y-66150333D01*
X93296450Y-66102958D01*
X93300388Y-66069290D01*
X93305849Y-66045498D01*
X93313192Y-66027753D01*
X93322777Y-66012224D01*
X93326887Y-66006381D01*
X93381405Y-65951185D01*
X93450336Y-65919890D01*
X93530072Y-65911165D01*
X93599744Y-65919918D01*
G36*
X93599744Y-65919918D02*
G01*
X93655201Y-65947568D01*
X93704148Y-65998480D01*
X93717629Y-66017338D01*
X93732314Y-66042015D01*
X93741842Y-66068816D01*
X93747293Y-66104587D01*
X93749747Y-66156169D01*
X93750286Y-66224267D01*
X93747852Y-66317588D01*
X93739394Y-66387657D01*
X93723174Y-66439931D01*
X93697454Y-66479869D01*
X93660497Y-66512929D01*
X93657782Y-66514886D01*
X93621360Y-66534908D01*
X93577502Y-66544815D01*
X93521724Y-66547257D01*
X93431048Y-66547257D01*
X93431010Y-66635283D01*
X93430166Y-66684308D01*
X93425024Y-66713065D01*
X93411587Y-66730311D01*
X93385858Y-66744808D01*
X93379679Y-66747769D01*
X93350764Y-66761648D01*
X93328376Y-66770414D01*
X93311729Y-66771171D01*
X93300036Y-66761023D01*
X93292510Y-66737073D01*
X93288366Y-66696426D01*
X93286815Y-66636186D01*
X93287071Y-66553455D01*
X93288349Y-66445339D01*
X93288748Y-66413000D01*
X93290185Y-66301524D01*
X93291472Y-66228603D01*
X93430971Y-66228603D01*
X93431755Y-66290499D01*
X93435240Y-66330997D01*
X93443124Y-66357708D01*
X93457105Y-66378244D01*
X93466597Y-66388260D01*
X93505404Y-66417567D01*
X93539763Y-66419952D01*
X93575216Y-66395750D01*
X93576114Y-66394857D01*
X93590539Y-66376153D01*
X93599313Y-66350732D01*
X93603739Y-66311584D01*
X93605118Y-66251697D01*
X93605143Y-66238430D01*
X93601812Y-66155901D01*
X93590969Y-66098691D01*
X93571340Y-66063766D01*
X93541650Y-66048094D01*
X93524491Y-66046514D01*
X93483766Y-66053926D01*
X93455832Y-66078330D01*
X93439017Y-66122980D01*
X93431650Y-66191130D01*
X93430971Y-66228603D01*
X93291472Y-66228603D01*
X93291708Y-66215245D01*
X93293677Y-66150333D01*
X93296450Y-66102958D01*
X93300388Y-66069290D01*
X93305849Y-66045498D01*
X93313192Y-66027753D01*
X93322777Y-66012224D01*
X93326887Y-66006381D01*
X93381405Y-65951185D01*
X93450336Y-65919890D01*
X93530072Y-65911165D01*
X93599744Y-65919918D01*
G37*
X98144876Y-65956335D02*
X98186667Y-65975344D01*
X98219469Y-65998378D01*
X98243503Y-66024133D01*
X98260097Y-66057358D01*
X98270577Y-66102800D01*
X98276271Y-66165207D01*
X98278507Y-66249327D01*
X98278743Y-66304721D01*
X98278743Y-66520826D01*
X98241774Y-66537670D01*
X98212656Y-66549981D01*
X98198231Y-66554514D01*
X98195472Y-66541025D01*
X98193282Y-66504653D01*
X98191942Y-66451542D01*
X98191657Y-66409372D01*
X98190434Y-66348447D01*
X98187136Y-66300115D01*
X98182321Y-66270518D01*
X98178496Y-66264229D01*
X98152783Y-66270652D01*
X98112418Y-66287125D01*
X98065679Y-66309458D01*
X98020845Y-66333457D01*
X97986193Y-66354930D01*
X97970002Y-66369685D01*
X97969938Y-66369845D01*
X97971330Y-66397152D01*
X97983818Y-66423219D01*
X98005743Y-66444392D01*
X98037743Y-66451474D01*
X98065092Y-66450649D01*
X98103826Y-66450042D01*
X98124158Y-66459116D01*
X98136369Y-66483092D01*
X98137909Y-66487613D01*
X98143203Y-66521806D01*
X98129047Y-66542568D01*
X98092148Y-66552462D01*
X98052289Y-66554292D01*
X97980562Y-66540727D01*
X97943432Y-66521355D01*
X97897576Y-66475845D01*
X97873256Y-66419983D01*
X97871073Y-66360957D01*
X97891629Y-66305953D01*
X97922549Y-66271486D01*
X97953420Y-66252189D01*
X98001942Y-66227759D01*
X98058485Y-66202985D01*
X98067910Y-66199199D01*
X98130019Y-66171791D01*
X98165822Y-66147634D01*
X98177337Y-66123619D01*
X98166580Y-66096635D01*
X98148114Y-66075543D01*
X98104469Y-66049572D01*
X98056446Y-66047624D01*
X98012406Y-66067637D01*
X97980709Y-66107551D01*
X97976549Y-66117848D01*
X97952327Y-66155724D01*
X97916965Y-66183842D01*
X97872343Y-66206917D01*
X97872343Y-66141485D01*
X97874969Y-66101506D01*
X97886230Y-66069997D01*
X97911199Y-66036378D01*
X97935169Y-66010484D01*
X97972441Y-65973817D01*
X98001401Y-65954121D01*
X98032505Y-65946220D01*
X98067713Y-65944914D01*
X98144876Y-65956335D01*
G36*
X98144876Y-65956335D02*
G01*
X98186667Y-65975344D01*
X98219469Y-65998378D01*
X98243503Y-66024133D01*
X98260097Y-66057358D01*
X98270577Y-66102800D01*
X98276271Y-66165207D01*
X98278507Y-66249327D01*
X98278743Y-66304721D01*
X98278743Y-66520826D01*
X98241774Y-66537670D01*
X98212656Y-66549981D01*
X98198231Y-66554514D01*
X98195472Y-66541025D01*
X98193282Y-66504653D01*
X98191942Y-66451542D01*
X98191657Y-66409372D01*
X98190434Y-66348447D01*
X98187136Y-66300115D01*
X98182321Y-66270518D01*
X98178496Y-66264229D01*
X98152783Y-66270652D01*
X98112418Y-66287125D01*
X98065679Y-66309458D01*
X98020845Y-66333457D01*
X97986193Y-66354930D01*
X97970002Y-66369685D01*
X97969938Y-66369845D01*
X97971330Y-66397152D01*
X97983818Y-66423219D01*
X98005743Y-66444392D01*
X98037743Y-66451474D01*
X98065092Y-66450649D01*
X98103826Y-66450042D01*
X98124158Y-66459116D01*
X98136369Y-66483092D01*
X98137909Y-66487613D01*
X98143203Y-66521806D01*
X98129047Y-66542568D01*
X98092148Y-66552462D01*
X98052289Y-66554292D01*
X97980562Y-66540727D01*
X97943432Y-66521355D01*
X97897576Y-66475845D01*
X97873256Y-66419983D01*
X97871073Y-66360957D01*
X97891629Y-66305953D01*
X97922549Y-66271486D01*
X97953420Y-66252189D01*
X98001942Y-66227759D01*
X98058485Y-66202985D01*
X98067910Y-66199199D01*
X98130019Y-66171791D01*
X98165822Y-66147634D01*
X98177337Y-66123619D01*
X98166580Y-66096635D01*
X98148114Y-66075543D01*
X98104469Y-66049572D01*
X98056446Y-66047624D01*
X98012406Y-66067637D01*
X97980709Y-66107551D01*
X97976549Y-66117848D01*
X97952327Y-66155724D01*
X97916965Y-66183842D01*
X97872343Y-66206917D01*
X97872343Y-66141485D01*
X97874969Y-66101506D01*
X97886230Y-66069997D01*
X97911199Y-66036378D01*
X97935169Y-66010484D01*
X97972441Y-65973817D01*
X98001401Y-65954121D01*
X98032505Y-65946220D01*
X98067713Y-65944914D01*
X98144876Y-65956335D01*
G37*
X96103910Y-61242348D02*
X96182454Y-61242778D01*
X96239298Y-61243942D01*
X96278105Y-61246207D01*
X96302538Y-61249940D01*
X96316262Y-61255506D01*
X96322940Y-61263273D01*
X96326236Y-61273605D01*
X96326556Y-61274943D01*
X96331562Y-61299079D01*
X96340829Y-61346701D01*
X96353392Y-61412741D01*
X96368287Y-61492128D01*
X96384551Y-61579796D01*
X96385119Y-61582875D01*
X96401410Y-61668789D01*
X96416652Y-61744696D01*
X96429861Y-61806045D01*
X96440054Y-61848282D01*
X96446248Y-61866855D01*
X96446543Y-61867184D01*
X96464788Y-61876253D01*
X96502405Y-61891367D01*
X96551271Y-61909262D01*
X96551543Y-61909358D01*
X96613093Y-61932493D01*
X96685657Y-61961965D01*
X96754057Y-61991597D01*
X96757294Y-61993062D01*
X96868702Y-62043626D01*
X97115399Y-61875160D01*
X97191077Y-61823803D01*
X97259631Y-61777889D01*
X97317088Y-61740030D01*
X97359476Y-61712837D01*
X97382825Y-61698921D01*
X97385042Y-61697889D01*
X97402010Y-61702484D01*
X97433701Y-61724655D01*
X97481352Y-61765447D01*
X97546198Y-61825905D01*
X97612397Y-61890227D01*
X97676214Y-61953612D01*
X97733329Y-62011451D01*
X97780305Y-62060175D01*
X97813703Y-62096210D01*
X97830085Y-62115984D01*
X97830694Y-62117002D01*
X97832505Y-62130572D01*
X97825683Y-62152733D01*
X97808540Y-62186478D01*
X97779393Y-62234800D01*
X97736555Y-62300692D01*
X97679448Y-62385517D01*
X97628766Y-62460177D01*
X97583461Y-62527140D01*
X97546150Y-62582516D01*
X97519452Y-62622420D01*
X97505985Y-62642962D01*
X97505137Y-62644356D01*
X97506781Y-62664038D01*
X97519245Y-62702293D01*
X97540048Y-62751889D01*
X97547462Y-62767728D01*
X97579814Y-62838290D01*
X97614328Y-62918353D01*
X97642365Y-62987629D01*
X97662568Y-63039045D01*
X97678615Y-63078119D01*
X97687888Y-63098541D01*
X97689041Y-63100114D01*
X97706096Y-63102721D01*
X97746298Y-63109863D01*
X97804302Y-63120523D01*
X97874763Y-63133685D01*
X97952335Y-63148333D01*
X98031672Y-63163449D01*
X98107431Y-63178018D01*
X98174264Y-63191022D01*
X98226828Y-63201445D01*
X98259776Y-63208270D01*
X98267857Y-63210199D01*
X98276205Y-63214962D01*
X98282506Y-63225718D01*
X98287045Y-63246098D01*
X98290104Y-63279734D01*
X98291967Y-63330255D01*
X98292918Y-63401292D01*
X98293240Y-63496476D01*
X98293257Y-63535492D01*
X98293257Y-63852799D01*
X98217057Y-63867839D01*
X98174663Y-63875995D01*
X98111400Y-63887899D01*
X98034962Y-63902116D01*
X97953043Y-63917210D01*
X97930400Y-63921355D01*
X97854806Y-63936053D01*
X97788953Y-63950505D01*
X97738366Y-63963375D01*
X97708574Y-63973322D01*
X97703612Y-63976287D01*
X97691426Y-63997283D01*
X97673953Y-64037967D01*
X97654577Y-64090322D01*
X97650734Y-64101600D01*
X97625339Y-64171523D01*
X97593817Y-64250418D01*
X97562969Y-64321266D01*
X97562817Y-64321595D01*
X97511447Y-64432733D01*
X97680399Y-64681253D01*
X97849352Y-64929772D01*
X97632429Y-65147058D01*
X97566819Y-65211726D01*
X97506979Y-65268733D01*
X97456267Y-65315033D01*
X97418046Y-65347584D01*
X97395675Y-65363343D01*
X97392466Y-65364343D01*
X97373626Y-65356469D01*
X97335180Y-65334578D01*
X97281330Y-65301267D01*
X97216276Y-65259131D01*
X97145940Y-65211943D01*
X97074555Y-65163810D01*
X97010908Y-65121928D01*
X96959041Y-65088871D01*
X96922995Y-65067218D01*
X96906867Y-65059543D01*
X96887189Y-65066037D01*
X96849875Y-65083150D01*
X96802621Y-65107326D01*
X96797612Y-65110013D01*
X96733977Y-65141927D01*
X96690341Y-65157579D01*
X96663202Y-65157745D01*
X96649057Y-65143204D01*
X96648975Y-65143000D01*
X96641905Y-65125779D01*
X96625042Y-65084899D01*
X96599695Y-65023525D01*
X96567171Y-64944819D01*
X96528778Y-64851947D01*
X96485822Y-64748072D01*
X96444222Y-64647502D01*
X96398504Y-64536516D01*
X96356526Y-64433703D01*
X96319548Y-64342215D01*
X96288827Y-64265201D01*
X96265622Y-64205815D01*
X96251190Y-64167209D01*
X96246743Y-64152800D01*
X96257896Y-64136272D01*
X96287069Y-64109930D01*
X96325971Y-64080887D01*
X96436757Y-63989039D01*
X96523351Y-63883759D01*
X96584716Y-63767266D01*
X96619815Y-63641776D01*
X96627608Y-63509507D01*
X96621943Y-63448457D01*
X96591078Y-63321795D01*
X96537920Y-63209941D01*
X96465767Y-63114001D01*
X96377917Y-63035076D01*
X96277665Y-62974270D01*
X96168310Y-62932687D01*
X96053147Y-62911428D01*
X95935475Y-62911599D01*
X95818590Y-62934301D01*
X95705789Y-62980638D01*
X95600369Y-63051713D01*
X95556368Y-63091911D01*
X95471979Y-63195129D01*
X95413222Y-63307925D01*
X95379704Y-63427010D01*
X95371035Y-63549095D01*
X95386823Y-63670893D01*
X95426678Y-63789116D01*
X95490207Y-63900475D01*
X95577021Y-64001684D01*
X95674029Y-64080887D01*
X95714437Y-64111162D01*
X95742982Y-64137219D01*
X95753257Y-64152825D01*
X95747877Y-64169843D01*
X95732575Y-64210500D01*
X95708612Y-64271642D01*
X95677244Y-64350119D01*
X95639732Y-64442780D01*
X95597333Y-64546472D01*
X95555663Y-64647526D01*
X95509690Y-64758607D01*
X95467107Y-64861541D01*
X95429221Y-64953165D01*
X95397340Y-65030316D01*
X95372771Y-65089831D01*
X95356820Y-65128544D01*
X95350910Y-65143000D01*
X95336948Y-65157685D01*
X95309940Y-65157642D01*
X95266413Y-65142099D01*
X95202890Y-65110284D01*
X95202388Y-65110013D01*
X95154560Y-65085323D01*
X95115897Y-65067338D01*
X95094095Y-65059614D01*
X95093133Y-65059543D01*
X95076721Y-65067378D01*
X95040487Y-65089165D01*
X94988474Y-65122328D01*
X94924725Y-65164291D01*
X94854060Y-65211943D01*
X94782116Y-65260191D01*
X94717274Y-65302151D01*
X94663735Y-65335227D01*
X94625697Y-65356821D01*
X94607533Y-65364343D01*
X94590808Y-65354457D01*
X94557180Y-65326826D01*
X94510010Y-65284495D01*
X94452658Y-65230505D01*
X94388484Y-65167899D01*
X94367497Y-65146983D01*
X94150499Y-64929623D01*
X94315668Y-64687220D01*
X94365864Y-64612781D01*
X94409919Y-64545972D01*
X94445362Y-64490665D01*
X94469719Y-64450729D01*
X94480522Y-64430036D01*
X94480838Y-64428563D01*
X94475143Y-64409058D01*
X94459826Y-64369822D01*
X94437537Y-64317430D01*
X94421893Y-64282355D01*
X94392641Y-64215201D01*
X94365094Y-64147358D01*
X94343737Y-64090034D01*
X94337935Y-64072572D01*
X94321452Y-64025938D01*
X94305340Y-63989905D01*
X94296490Y-63976287D01*
X94276960Y-63967952D01*
X94234334Y-63956137D01*
X94174145Y-63942181D01*
X94101922Y-63927422D01*
X94069600Y-63921355D01*
X93987522Y-63906273D01*
X93908795Y-63891669D01*
X93841109Y-63878980D01*
X93792160Y-63869642D01*
X93782943Y-63867839D01*
X93706743Y-63852799D01*
X93706743Y-63535492D01*
X93706914Y-63431154D01*
X93707616Y-63352213D01*
X93709134Y-63295038D01*
X93711749Y-63255999D01*
X93715746Y-63231465D01*
X93721409Y-63217805D01*
X93729020Y-63211389D01*
X93732143Y-63210199D01*
X93750978Y-63205980D01*
X93792588Y-63197562D01*
X93851630Y-63185961D01*
X93922757Y-63172195D01*
X94000625Y-63157280D01*
X94079887Y-63142232D01*
X94155198Y-63128069D01*
X94221213Y-63115806D01*
X94272587Y-63106461D01*
X94303975Y-63101050D01*
X94310959Y-63100114D01*
X94317285Y-63087596D01*
X94331290Y-63054246D01*
X94350355Y-63006377D01*
X94357634Y-62987629D01*
X94386996Y-62915195D01*
X94421571Y-62835170D01*
X94452537Y-62767728D01*
X94475323Y-62716159D01*
X94490482Y-62673785D01*
X94495542Y-62647834D01*
X94494736Y-62644356D01*
X94484041Y-62627936D01*
X94459620Y-62591417D01*
X94424095Y-62538687D01*
X94380087Y-62473635D01*
X94330217Y-62400151D01*
X94320356Y-62385645D01*
X94262492Y-62299704D01*
X94219956Y-62234261D01*
X94191054Y-62186304D01*
X94174090Y-62152820D01*
X94167367Y-62130795D01*
X94169190Y-62117217D01*
X94169236Y-62117131D01*
X94183586Y-62099297D01*
X94215323Y-62064817D01*
X94261010Y-62017268D01*
X94317204Y-61960222D01*
X94380468Y-61897255D01*
X94387602Y-61890227D01*
X94467330Y-61813020D01*
X94528857Y-61756330D01*
X94573421Y-61719110D01*
X94602257Y-61700315D01*
X94614958Y-61697889D01*
X94633494Y-61708471D01*
X94671961Y-61732916D01*
X94726386Y-61768612D01*
X94792798Y-61812947D01*
X94867225Y-61863311D01*
X94884601Y-61875160D01*
X95131297Y-62043626D01*
X95242706Y-61993062D01*
X95310457Y-61963595D01*
X95383183Y-61933959D01*
X95445703Y-61910330D01*
X95448457Y-61909358D01*
X95497360Y-61891457D01*
X95535057Y-61876320D01*
X95553425Y-61867210D01*
X95553456Y-61867184D01*
X95559285Y-61850717D01*
X95569192Y-61810219D01*
X95582195Y-61750242D01*
X95597309Y-61675340D01*
X95613552Y-61590064D01*
X95614881Y-61582875D01*
X95631175Y-61495014D01*
X95646133Y-61415260D01*
X95658791Y-61348681D01*
X95668186Y-61300347D01*
X95673354Y-61275325D01*
X95673444Y-61274943D01*
X95676589Y-61264299D01*
X95682704Y-61256262D01*
X95695453Y-61250467D01*
X95718500Y-61246547D01*
X95755509Y-61244135D01*
X95810144Y-61242865D01*
X95886067Y-61242371D01*
X95986944Y-61242286D01*
X96000000Y-61242286D01*
X96103910Y-61242348D01*
G36*
X96103910Y-61242348D02*
G01*
X96182454Y-61242778D01*
X96239298Y-61243942D01*
X96278105Y-61246207D01*
X96302538Y-61249940D01*
X96316262Y-61255506D01*
X96322940Y-61263273D01*
X96326236Y-61273605D01*
X96326556Y-61274943D01*
X96331562Y-61299079D01*
X96340829Y-61346701D01*
X96353392Y-61412741D01*
X96368287Y-61492128D01*
X96384551Y-61579796D01*
X96385119Y-61582875D01*
X96401410Y-61668789D01*
X96416652Y-61744696D01*
X96429861Y-61806045D01*
X96440054Y-61848282D01*
X96446248Y-61866855D01*
X96446543Y-61867184D01*
X96464788Y-61876253D01*
X96502405Y-61891367D01*
X96551271Y-61909262D01*
X96551543Y-61909358D01*
X96613093Y-61932493D01*
X96685657Y-61961965D01*
X96754057Y-61991597D01*
X96757294Y-61993062D01*
X96868702Y-62043626D01*
X97115399Y-61875160D01*
X97191077Y-61823803D01*
X97259631Y-61777889D01*
X97317088Y-61740030D01*
X97359476Y-61712837D01*
X97382825Y-61698921D01*
X97385042Y-61697889D01*
X97402010Y-61702484D01*
X97433701Y-61724655D01*
X97481352Y-61765447D01*
X97546198Y-61825905D01*
X97612397Y-61890227D01*
X97676214Y-61953612D01*
X97733329Y-62011451D01*
X97780305Y-62060175D01*
X97813703Y-62096210D01*
X97830085Y-62115984D01*
X97830694Y-62117002D01*
X97832505Y-62130572D01*
X97825683Y-62152733D01*
X97808540Y-62186478D01*
X97779393Y-62234800D01*
X97736555Y-62300692D01*
X97679448Y-62385517D01*
X97628766Y-62460177D01*
X97583461Y-62527140D01*
X97546150Y-62582516D01*
X97519452Y-62622420D01*
X97505985Y-62642962D01*
X97505137Y-62644356D01*
X97506781Y-62664038D01*
X97519245Y-62702293D01*
X97540048Y-62751889D01*
X97547462Y-62767728D01*
X97579814Y-62838290D01*
X97614328Y-62918353D01*
X97642365Y-62987629D01*
X97662568Y-63039045D01*
X97678615Y-63078119D01*
X97687888Y-63098541D01*
X97689041Y-63100114D01*
X97706096Y-63102721D01*
X97746298Y-63109863D01*
X97804302Y-63120523D01*
X97874763Y-63133685D01*
X97952335Y-63148333D01*
X98031672Y-63163449D01*
X98107431Y-63178018D01*
X98174264Y-63191022D01*
X98226828Y-63201445D01*
X98259776Y-63208270D01*
X98267857Y-63210199D01*
X98276205Y-63214962D01*
X98282506Y-63225718D01*
X98287045Y-63246098D01*
X98290104Y-63279734D01*
X98291967Y-63330255D01*
X98292918Y-63401292D01*
X98293240Y-63496476D01*
X98293257Y-63535492D01*
X98293257Y-63852799D01*
X98217057Y-63867839D01*
X98174663Y-63875995D01*
X98111400Y-63887899D01*
X98034962Y-63902116D01*
X97953043Y-63917210D01*
X97930400Y-63921355D01*
X97854806Y-63936053D01*
X97788953Y-63950505D01*
X97738366Y-63963375D01*
X97708574Y-63973322D01*
X97703612Y-63976287D01*
X97691426Y-63997283D01*
X97673953Y-64037967D01*
X97654577Y-64090322D01*
X97650734Y-64101600D01*
X97625339Y-64171523D01*
X97593817Y-64250418D01*
X97562969Y-64321266D01*
X97562817Y-64321595D01*
X97511447Y-64432733D01*
X97680399Y-64681253D01*
X97849352Y-64929772D01*
X97632429Y-65147058D01*
X97566819Y-65211726D01*
X97506979Y-65268733D01*
X97456267Y-65315033D01*
X97418046Y-65347584D01*
X97395675Y-65363343D01*
X97392466Y-65364343D01*
X97373626Y-65356469D01*
X97335180Y-65334578D01*
X97281330Y-65301267D01*
X97216276Y-65259131D01*
X97145940Y-65211943D01*
X97074555Y-65163810D01*
X97010908Y-65121928D01*
X96959041Y-65088871D01*
X96922995Y-65067218D01*
X96906867Y-65059543D01*
X96887189Y-65066037D01*
X96849875Y-65083150D01*
X96802621Y-65107326D01*
X96797612Y-65110013D01*
X96733977Y-65141927D01*
X96690341Y-65157579D01*
X96663202Y-65157745D01*
X96649057Y-65143204D01*
X96648975Y-65143000D01*
X96641905Y-65125779D01*
X96625042Y-65084899D01*
X96599695Y-65023525D01*
X96567171Y-64944819D01*
X96528778Y-64851947D01*
X96485822Y-64748072D01*
X96444222Y-64647502D01*
X96398504Y-64536516D01*
X96356526Y-64433703D01*
X96319548Y-64342215D01*
X96288827Y-64265201D01*
X96265622Y-64205815D01*
X96251190Y-64167209D01*
X96246743Y-64152800D01*
X96257896Y-64136272D01*
X96287069Y-64109930D01*
X96325971Y-64080887D01*
X96436757Y-63989039D01*
X96523351Y-63883759D01*
X96584716Y-63767266D01*
X96619815Y-63641776D01*
X96627608Y-63509507D01*
X96621943Y-63448457D01*
X96591078Y-63321795D01*
X96537920Y-63209941D01*
X96465767Y-63114001D01*
X96377917Y-63035076D01*
X96277665Y-62974270D01*
X96168310Y-62932687D01*
X96053147Y-62911428D01*
X95935475Y-62911599D01*
X95818590Y-62934301D01*
X95705789Y-62980638D01*
X95600369Y-63051713D01*
X95556368Y-63091911D01*
X95471979Y-63195129D01*
X95413222Y-63307925D01*
X95379704Y-63427010D01*
X95371035Y-63549095D01*
X95386823Y-63670893D01*
X95426678Y-63789116D01*
X95490207Y-63900475D01*
X95577021Y-64001684D01*
X95674029Y-64080887D01*
X95714437Y-64111162D01*
X95742982Y-64137219D01*
X95753257Y-64152825D01*
X95747877Y-64169843D01*
X95732575Y-64210500D01*
X95708612Y-64271642D01*
X95677244Y-64350119D01*
X95639732Y-64442780D01*
X95597333Y-64546472D01*
X95555663Y-64647526D01*
X95509690Y-64758607D01*
X95467107Y-64861541D01*
X95429221Y-64953165D01*
X95397340Y-65030316D01*
X95372771Y-65089831D01*
X95356820Y-65128544D01*
X95350910Y-65143000D01*
X95336948Y-65157685D01*
X95309940Y-65157642D01*
X95266413Y-65142099D01*
X95202890Y-65110284D01*
X95202388Y-65110013D01*
X95154560Y-65085323D01*
X95115897Y-65067338D01*
X95094095Y-65059614D01*
X95093133Y-65059543D01*
X95076721Y-65067378D01*
X95040487Y-65089165D01*
X94988474Y-65122328D01*
X94924725Y-65164291D01*
X94854060Y-65211943D01*
X94782116Y-65260191D01*
X94717274Y-65302151D01*
X94663735Y-65335227D01*
X94625697Y-65356821D01*
X94607533Y-65364343D01*
X94590808Y-65354457D01*
X94557180Y-65326826D01*
X94510010Y-65284495D01*
X94452658Y-65230505D01*
X94388484Y-65167899D01*
X94367497Y-65146983D01*
X94150499Y-64929623D01*
X94315668Y-64687220D01*
X94365864Y-64612781D01*
X94409919Y-64545972D01*
X94445362Y-64490665D01*
X94469719Y-64450729D01*
X94480522Y-64430036D01*
X94480838Y-64428563D01*
X94475143Y-64409058D01*
X94459826Y-64369822D01*
X94437537Y-64317430D01*
X94421893Y-64282355D01*
X94392641Y-64215201D01*
X94365094Y-64147358D01*
X94343737Y-64090034D01*
X94337935Y-64072572D01*
X94321452Y-64025938D01*
X94305340Y-63989905D01*
X94296490Y-63976287D01*
X94276960Y-63967952D01*
X94234334Y-63956137D01*
X94174145Y-63942181D01*
X94101922Y-63927422D01*
X94069600Y-63921355D01*
X93987522Y-63906273D01*
X93908795Y-63891669D01*
X93841109Y-63878980D01*
X93792160Y-63869642D01*
X93782943Y-63867839D01*
X93706743Y-63852799D01*
X93706743Y-63535492D01*
X93706914Y-63431154D01*
X93707616Y-63352213D01*
X93709134Y-63295038D01*
X93711749Y-63255999D01*
X93715746Y-63231465D01*
X93721409Y-63217805D01*
X93729020Y-63211389D01*
X93732143Y-63210199D01*
X93750978Y-63205980D01*
X93792588Y-63197562D01*
X93851630Y-63185961D01*
X93922757Y-63172195D01*
X94000625Y-63157280D01*
X94079887Y-63142232D01*
X94155198Y-63128069D01*
X94221213Y-63115806D01*
X94272587Y-63106461D01*
X94303975Y-63101050D01*
X94310959Y-63100114D01*
X94317285Y-63087596D01*
X94331290Y-63054246D01*
X94350355Y-63006377D01*
X94357634Y-62987629D01*
X94386996Y-62915195D01*
X94421571Y-62835170D01*
X94452537Y-62767728D01*
X94475323Y-62716159D01*
X94490482Y-62673785D01*
X94495542Y-62647834D01*
X94494736Y-62644356D01*
X94484041Y-62627936D01*
X94459620Y-62591417D01*
X94424095Y-62538687D01*
X94380087Y-62473635D01*
X94330217Y-62400151D01*
X94320356Y-62385645D01*
X94262492Y-62299704D01*
X94219956Y-62234261D01*
X94191054Y-62186304D01*
X94174090Y-62152820D01*
X94167367Y-62130795D01*
X94169190Y-62117217D01*
X94169236Y-62117131D01*
X94183586Y-62099297D01*
X94215323Y-62064817D01*
X94261010Y-62017268D01*
X94317204Y-61960222D01*
X94380468Y-61897255D01*
X94387602Y-61890227D01*
X94467330Y-61813020D01*
X94528857Y-61756330D01*
X94573421Y-61719110D01*
X94602257Y-61700315D01*
X94614958Y-61697889D01*
X94633494Y-61708471D01*
X94671961Y-61732916D01*
X94726386Y-61768612D01*
X94792798Y-61812947D01*
X94867225Y-61863311D01*
X94884601Y-61875160D01*
X95131297Y-62043626D01*
X95242706Y-61993062D01*
X95310457Y-61963595D01*
X95383183Y-61933959D01*
X95445703Y-61910330D01*
X95448457Y-61909358D01*
X95497360Y-61891457D01*
X95535057Y-61876320D01*
X95553425Y-61867210D01*
X95553456Y-61867184D01*
X95559285Y-61850717D01*
X95569192Y-61810219D01*
X95582195Y-61750242D01*
X95597309Y-61675340D01*
X95613552Y-61590064D01*
X95614881Y-61582875D01*
X95631175Y-61495014D01*
X95646133Y-61415260D01*
X95658791Y-61348681D01*
X95668186Y-61300347D01*
X95673354Y-61275325D01*
X95673444Y-61274943D01*
X95676589Y-61264299D01*
X95682704Y-61256262D01*
X95695453Y-61250467D01*
X95718500Y-61246547D01*
X95755509Y-61244135D01*
X95810144Y-61242865D01*
X95886067Y-61242371D01*
X95986944Y-61242286D01*
X96000000Y-61242286D01*
X96103910Y-61242348D01*
G37*
D12*
%TO.C,R1*%
X86561359Y-77001750D02*
X86868641Y-77001750D01*
X86561359Y-77761750D02*
X86868641Y-77761750D01*
%TO.C,J5*%
X108289997Y-76760000D02*
X108289999Y-68039999D01*
X108289999Y-68039999D02*
X113709999Y-68039999D01*
X109589999Y-78460000D02*
X108289997Y-76760000D01*
X109589999Y-78460000D02*
X112409999Y-78460000D01*
X112409999Y-78460000D02*
X113709999Y-76759999D01*
X113709999Y-76759999D02*
X113709999Y-68039999D01*
%TO.C,J6*%
X79695834Y-56553527D02*
X82680832Y-61723699D01*
X80734015Y-56831708D02*
X83375391Y-55306707D01*
X81559493Y-59761481D02*
X82209014Y-59386482D01*
X82209014Y-59386482D02*
X80734015Y-56831708D01*
X82309497Y-61060520D02*
X82684494Y-61710038D01*
X82680832Y-61723699D02*
X89279946Y-57913700D01*
X82684494Y-61710038D02*
X84243340Y-60810038D01*
X83868338Y-60160520D02*
X82309497Y-61060520D01*
X84243340Y-60810038D02*
X83868338Y-60160520D01*
X85167378Y-59410518D02*
X85542378Y-60060040D01*
X85542378Y-60060040D02*
X86408406Y-59560040D01*
X86016767Y-53781709D02*
X83375391Y-55306707D01*
X86033402Y-58910518D02*
X85167378Y-59410518D01*
X86294948Y-52743528D02*
X79695834Y-56553527D01*
X86408406Y-59560040D02*
X86033402Y-58910518D01*
X87332443Y-58160518D02*
X87707444Y-58810038D01*
X87491769Y-56336480D02*
X86016767Y-53781709D01*
X87707444Y-58810038D02*
X89266288Y-57910039D01*
X88141288Y-55961482D02*
X87491769Y-56336480D01*
X88593564Y-58644845D02*
X89676096Y-58019849D01*
X88891286Y-57260520D02*
X87332443Y-58160518D01*
X89266288Y-57910039D02*
X88891286Y-57260520D01*
X89279946Y-57913700D02*
X86294948Y-52743528D01*
X89676096Y-58019849D02*
X89051095Y-56937315D01*
%TO.C,J1*%
X83217826Y-62678919D02*
X86202824Y-67849091D01*
X84256007Y-62957102D02*
X86897383Y-61432099D01*
X85081485Y-65886874D02*
X85731005Y-65511873D01*
X85731005Y-65511873D02*
X84256007Y-62957102D01*
X85831489Y-67185912D02*
X86206486Y-67835430D01*
X86202824Y-67849091D02*
X92801938Y-64039092D01*
X86206486Y-67835430D02*
X87765331Y-66935430D01*
X87390330Y-66285911D02*
X85831489Y-67185912D01*
X87765331Y-66935430D02*
X87390330Y-66285911D01*
X88689372Y-65535911D02*
X89064369Y-66185433D01*
X89064369Y-66185433D02*
X89930398Y-65685432D01*
X89538759Y-59907101D02*
X86897383Y-61432099D01*
X89555398Y-65035912D02*
X88689372Y-65535911D01*
X89816940Y-58868920D02*
X83217826Y-62678919D01*
X89930398Y-65685432D02*
X89555398Y-65035912D01*
X90854438Y-64285910D02*
X91229436Y-64935430D01*
X91013762Y-62461871D02*
X89538759Y-59907101D01*
X91229436Y-64935430D02*
X92788280Y-64035431D01*
X91663280Y-62086874D02*
X91013762Y-62461871D01*
X92115554Y-64770238D02*
X93198087Y-64145240D01*
X92413279Y-63385913D02*
X90854438Y-64285910D01*
X92788280Y-64035431D02*
X92413279Y-63385913D01*
X92801938Y-64039092D02*
X89816940Y-58868920D01*
X93198087Y-64145240D02*
X92573087Y-63062707D01*
%TO.C,J4*%
X101290000Y-68040000D02*
X106710000Y-68040000D01*
X101290000Y-76760000D02*
X101290000Y-68040000D01*
X102590000Y-78460000D02*
X101290000Y-76760000D01*
X102590000Y-78460000D02*
X105410000Y-78460000D01*
X105410000Y-78460000D02*
X106710000Y-76760000D01*
X106710000Y-76760000D02*
X106710000Y-68040000D01*
D10*
%TO.C,D2*%
X93889996Y-80500001D02*
G75*
G02*
X93790002Y-80500001I-49997J0D01*
G01*
X93790002Y-80500001D02*
G75*
G02*
X93889996Y-80500001I49997J0D01*
G01*
D12*
%TO.C,R5*%
X91870003Y-78836361D02*
X91870003Y-79143639D01*
X92629999Y-78836361D02*
X92629999Y-79143639D01*
%TO.C,J3*%
X101514999Y-65037532D02*
X101515001Y-65692469D01*
X101515000Y-63599997D02*
X101514999Y-64422466D01*
X101515000Y-66307529D02*
X101515000Y-67129999D01*
X103990000Y-63599999D02*
X101515000Y-63599997D01*
X103990000Y-63599999D02*
X103990000Y-64166528D01*
X103990000Y-65293470D02*
X103990002Y-65436530D01*
X104043471Y-65489999D02*
X104186529Y-65489999D01*
X104750001Y-63599999D02*
X105510000Y-63599999D01*
X105313471Y-65489999D02*
X105445000Y-65489998D01*
X105445000Y-65489998D02*
X105445001Y-65692466D01*
X105445000Y-66307529D02*
X105445000Y-67129999D01*
X105445000Y-67129999D02*
X101515000Y-67129999D01*
X105510000Y-63599999D02*
X105510003Y-64730001D01*
D10*
%TO.C,D1*%
X96624994Y-80500000D02*
G75*
G02*
X96525000Y-80500000I-49997J0D01*
G01*
X96525000Y-80500000D02*
G75*
G02*
X96624994Y-80500000I49997J0D01*
G01*
%TD*%
M02*
