%TF.GenerationSoftware,KiCad,Pcbnew,8.0.2*%
%TF.CreationDate,2024-10-23T20:02:11+03:00*%
%TF.ProjectId,PowerServo AE 36V 3.6A 30D,506f7765-7253-4657-9276-6f2041452033,rev?*%
%TF.SameCoordinates,Original*%
%TF.FileFunction,Copper,L1,Top*%
%TF.FilePolarity,Positive*%
%FSLAX46Y46*%
G04 Gerber Fmt 4.6, Leading zero omitted, Abs format (unit mm)*
G04 Created by KiCad (PCBNEW 8.0.2) date 2024-10-23 20:02:11*
%MOMM*%
%LPD*%
G01*
G04 APERTURE LIST*
G04 Aperture macros list*
%AMRoundRect*
0 Rectangle with rounded corners*
0 $1 Rounding radius*
0 $2 $3 $4 $5 $6 $7 $8 $9 X,Y pos of 4 corners*
0 Add a 4 corners polygon primitive as box body*
4,1,4,$2,$3,$4,$5,$6,$7,$8,$9,$2,$3,0*
0 Add four circle primitives for the rounded corners*
1,1,$1+$1,$2,$3*
1,1,$1+$1,$4,$5*
1,1,$1+$1,$6,$7*
1,1,$1+$1,$8,$9*
0 Add four rect primitives between the rounded corners*
20,1,$1+$1,$2,$3,$4,$5,0*
20,1,$1+$1,$4,$5,$6,$7,0*
20,1,$1+$1,$6,$7,$8,$9,0*
20,1,$1+$1,$8,$9,$2,$3,0*%
%AMHorizOval*
0 Thick line with rounded ends*
0 $1 width*
0 $2 $3 position (X,Y) of the first rounded end (center of the circle)*
0 $4 $5 position (X,Y) of the second rounded end (center of the circle)*
0 Add line between two ends*
20,1,$1,$2,$3,$4,$5,0*
0 Add two circle primitives to create the rounded ends*
1,1,$1,$2,$3*
1,1,$1,$4,$5*%
G04 Aperture macros list end*
%TA.AperFunction,SMDPad,CuDef*%
%ADD10RoundRect,0.140000X0.170000X-0.140000X0.170000X0.140000X-0.170000X0.140000X-0.170000X-0.140000X0*%
%TD*%
%TA.AperFunction,SMDPad,CuDef*%
%ADD11RoundRect,0.125000X-0.625000X-0.125000X0.625000X-0.125000X0.625000X0.125000X-0.625000X0.125000X0*%
%TD*%
%TA.AperFunction,SMDPad,CuDef*%
%ADD12RoundRect,0.125000X-0.125000X-0.625000X0.125000X-0.625000X0.125000X0.625000X-0.125000X0.625000X0*%
%TD*%
%TA.AperFunction,SMDPad,CuDef*%
%ADD13RoundRect,0.135000X-0.185000X0.135000X-0.185000X-0.135000X0.185000X-0.135000X0.185000X0.135000X0*%
%TD*%
%TA.AperFunction,ComponentPad*%
%ADD14RoundRect,0.250000X-1.125000X-1.125000X1.125000X-1.125000X1.125000X1.125000X-1.125000X1.125000X0*%
%TD*%
%TA.AperFunction,SMDPad,CuDef*%
%ADD15RoundRect,0.135000X-0.135000X-0.185000X0.135000X-0.185000X0.135000X0.185000X-0.135000X0.185000X0*%
%TD*%
%TA.AperFunction,ComponentPad*%
%ADD16R,3.000000X3.000000*%
%TD*%
%TA.AperFunction,ComponentPad*%
%ADD17C,3.000000*%
%TD*%
%TA.AperFunction,ComponentPad*%
%ADD18RoundRect,0.250000X0.144615X0.949519X-0.894615X0.349519X-0.144615X-0.949519X0.894615X-0.349519X0*%
%TD*%
%TA.AperFunction,ComponentPad*%
%ADD19HorizOval,1.700000X-0.075000X0.129904X0.075000X-0.129904X0*%
%TD*%
%TA.AperFunction,SMDPad,CuDef*%
%ADD20RoundRect,0.147500X0.147500X0.172500X-0.147500X0.172500X-0.147500X-0.172500X0.147500X-0.172500X0*%
%TD*%
%TA.AperFunction,ComponentPad*%
%ADD21R,1.000000X1.000000*%
%TD*%
%TA.AperFunction,ComponentPad*%
%ADD22O,1.000000X1.000000*%
%TD*%
%TA.AperFunction,HeatsinkPad*%
%ADD23C,0.500000*%
%TD*%
%TA.AperFunction,HeatsinkPad*%
%ADD24R,0.500000X1.600000*%
%TD*%
%TA.AperFunction,HeatsinkPad*%
%ADD25R,0.500000X2.560000*%
%TD*%
%TA.AperFunction,ViaPad*%
%ADD26C,0.600000*%
%TD*%
%TA.AperFunction,ViaPad*%
%ADD27C,0.900000*%
%TD*%
%TA.AperFunction,Conductor*%
%ADD28C,0.508000*%
%TD*%
%TA.AperFunction,Conductor*%
%ADD29C,0.200000*%
%TD*%
%TA.AperFunction,Conductor*%
%ADD30C,0.254000*%
%TD*%
G04 APERTURE END LIST*
D10*
%TO.P,C3,1*%
%TO.N,+3V3*%
X86750000Y-71480000D03*
%TO.P,C3,2*%
%TO.N,GND*%
X86750000Y-70520000D03*
%TD*%
D11*
%TO.P,U7,1,PB9*%
%TO.N,unconnected-(U7-PB9-Pad1)*%
X89325000Y-69950000D03*
%TO.P,U7,2,PC14*%
%TO.N,unconnected-(U7-PC14-Pad2)*%
X89325000Y-70750000D03*
%TO.P,U7,3,PC15*%
%TO.N,unconnected-(U7-PC15-Pad3)*%
X89325000Y-71550000D03*
%TO.P,U7,4,VDD*%
%TO.N,+3V3*%
X89325000Y-72350000D03*
%TO.P,U7,5,VSS*%
%TO.N,GND*%
X89325000Y-73150000D03*
%TO.P,U7,6,PF2*%
%TO.N,NRST*%
X89325000Y-73950000D03*
%TO.P,U7,7,PA0*%
%TO.N,DRV_IN2*%
X89325000Y-74750000D03*
%TO.P,U7,8,PA1*%
%TO.N,DRV_IN1*%
X89325000Y-75550000D03*
D12*
%TO.P,U7,9,PA2*%
%TO.N,MOSI*%
X90700000Y-76925000D03*
%TO.P,U7,10,PA3*%
%TO.N,ISEN*%
X91500000Y-76925000D03*
%TO.P,U7,11,PA4*%
%TO.N,Net-(U7-PA4)*%
X92300000Y-76925000D03*
%TO.P,U7,12,PA5*%
%TO.N,SCK*%
X93100000Y-76925000D03*
%TO.P,U7,13,PA6*%
%TO.N,MISO*%
X93900000Y-76925000D03*
%TO.P,U7,14,PA7*%
%TO.N,Net-(U7-PA7)*%
X94700000Y-76925000D03*
%TO.P,U7,15,PB0*%
%TO.N,RP_RX*%
X95500000Y-76925000D03*
%TO.P,U7,16,PB1*%
%TO.N,RP_TX*%
X96300000Y-76925000D03*
D11*
%TO.P,U7,17,PB2*%
%TO.N,MAG_CS*%
X97675000Y-75550000D03*
%TO.P,U7,18,PA8*%
%TO.N,unconnected-(U7-PA8-Pad18)*%
X97675000Y-74750000D03*
%TO.P,U7,19,PA9/UCPD1_DBCC1*%
%TO.N,unconnected-(U7-PA9{slash}UCPD1_DBCC1-Pad19)*%
X97675000Y-73950000D03*
%TO.P,U7,20,PC6*%
%TO.N,unconnected-(U7-PC6-Pad20)*%
X97675000Y-73150000D03*
%TO.P,U7,21,PA10/UCPD1_DBCC2*%
%TO.N,unconnected-(U7-PA10{slash}UCPD1_DBCC2-Pad21)*%
X97675000Y-72350000D03*
%TO.P,U7,22,PA11/PA9*%
%TO.N,unconnected-(U7-PA11{slash}PA9-Pad22)*%
X97675000Y-71550000D03*
%TO.P,U7,23,PA12/PA10*%
%TO.N,unconnected-(U7-PA12{slash}PA10-Pad23)*%
X97675000Y-70750000D03*
%TO.P,U7,24,PA13*%
%TO.N,SWDIO*%
X97675000Y-69950000D03*
D12*
%TO.P,U7,25,PA14*%
%TO.N,SWCLK*%
X96300000Y-68575000D03*
%TO.P,U7,26,PA15*%
%TO.N,unconnected-(U7-PA15-Pad26)*%
X95500000Y-68575000D03*
%TO.P,U7,27,PB3*%
%TO.N,CAN_SILENT*%
X94700000Y-68575000D03*
%TO.P,U7,28,PB4*%
%TO.N,unconnected-(U7-PB4-Pad28)*%
X93900000Y-68575000D03*
%TO.P,U7,29,PB5*%
%TO.N,unconnected-(U7-PB5-Pad29)*%
X93100000Y-68575000D03*
%TO.P,U7,30,PB6*%
%TO.N,unconnected-(U7-PB6-Pad30)*%
X92300000Y-68575000D03*
%TO.P,U7,31,PB7*%
%TO.N,unconnected-(U7-PB7-Pad31)*%
X91500000Y-68575000D03*
%TO.P,U7,32,PB8*%
%TO.N,unconnected-(U7-PB8-Pad32)*%
X90700000Y-68575000D03*
%TD*%
D13*
%TO.P,R3,1*%
%TO.N,SWCLK*%
X100249999Y-67240000D03*
%TO.P,R3,2*%
%TO.N,GND*%
X100250001Y-68260000D03*
%TD*%
%TO.P,R4,1*%
%TO.N,Net-(U7-PA7)*%
X94750001Y-78490000D03*
%TO.P,R4,2*%
%TO.N,Net-(D1-Pad2)*%
X94749999Y-79510000D03*
%TD*%
D14*
%TO.P,J2,1,Pin_1*%
%TO.N,Net-(IC1-OUT1)*%
X89250000Y-81150000D03*
%TD*%
D10*
%TO.P,C4,1*%
%TO.N,+3V3*%
X87750000Y-71480000D03*
%TO.P,C4,2*%
%TO.N,GND*%
X87750000Y-70520000D03*
%TD*%
D15*
%TO.P,R1,1*%
%TO.N,ISEN*%
X86205000Y-77381751D03*
%TO.P,R1,2*%
%TO.N,GND*%
X87225000Y-77381749D03*
%TD*%
D16*
%TO.P,J5,1,Pin_1*%
%TO.N,GND*%
X110999999Y-75750000D03*
D17*
%TO.P,J5,2,Pin_2*%
%TO.N,+12V*%
X110999999Y-70750000D03*
%TD*%
D18*
%TO.P,J6,1,Pin_1*%
%TO.N,CAN_H*%
X85832923Y-57063277D03*
D19*
%TO.P,J6,2,Pin_2*%
%TO.N,CAN_L*%
X83667860Y-58313278D03*
%TD*%
D14*
%TO.P,J7,1,Pin_1*%
%TO.N,Net-(IC1-OUT2)*%
X84950000Y-80450000D03*
%TD*%
D18*
%TO.P,J1,1,Pin_1*%
%TO.N,CAN_H*%
X89354915Y-63188669D03*
D19*
%TO.P,J1,2,Pin_2*%
%TO.N,CAN_L*%
X87189852Y-64438670D03*
%TD*%
D16*
%TO.P,J4,1,Pin_1*%
%TO.N,GND*%
X104000000Y-75750000D03*
D17*
%TO.P,J4,2,Pin_2*%
%TO.N,+12V*%
X104000000Y-70750000D03*
%TD*%
D20*
%TO.P,D2,1*%
%TO.N,GND*%
X93234998Y-80500000D03*
%TO.P,D2,2*%
%TO.N,Net-(D2-Pad2)*%
X92265002Y-80500000D03*
%TD*%
D13*
%TO.P,R5,1*%
%TO.N,Net-(U7-PA4)*%
X92250002Y-78480000D03*
%TO.P,R5,2*%
%TO.N,Net-(D2-Pad2)*%
X92250000Y-79500000D03*
%TD*%
D21*
%TO.P,J3,1,Pin_1*%
%TO.N,+3V3*%
X104750000Y-64729999D03*
D22*
%TO.P,J3,2,Pin_2*%
%TO.N,SWDIO*%
X104750000Y-66000000D03*
%TO.P,J3,3,Pin_3*%
%TO.N,GND*%
X103479999Y-64729999D03*
%TO.P,J3,4,Pin_4*%
%TO.N,SWCLK*%
X103480002Y-65999998D03*
%TO.P,J3,5,Pin_5*%
%TO.N,GND*%
X102209996Y-64729996D03*
%TO.P,J3,6,Pin_6*%
%TO.N,NRST*%
X102210000Y-66000000D03*
%TD*%
D20*
%TO.P,D1,1*%
%TO.N,GND*%
X95969996Y-80500000D03*
%TO.P,D1,2*%
%TO.N,Net-(D1-Pad2)*%
X95000000Y-80500000D03*
%TD*%
D23*
%TO.P,U2,7,PAD*%
%TO.N,GND*%
X95612500Y-84200002D03*
D24*
X95612500Y-84750001D03*
D23*
X95612500Y-85300000D03*
%TD*%
%TO.P,U1,11,GND*%
%TO.N,GND*%
X103175003Y-80250000D03*
D25*
X103175003Y-80250000D03*
D23*
X103175001Y-81280000D03*
X103175001Y-79219999D03*
%TD*%
D26*
%TO.N,GND*%
X113150000Y-77250000D03*
X113150000Y-76450000D03*
X113150000Y-75650000D03*
X113150000Y-74850000D03*
X103550000Y-78050000D03*
X102750000Y-82850000D03*
X102750000Y-78050000D03*
X102750000Y-62850000D03*
X101950000Y-83650000D03*
X101950000Y-82850000D03*
X101950000Y-78050000D03*
X101950000Y-62850000D03*
X101950000Y-62050000D03*
X101150000Y-62850000D03*
X101150000Y-62050000D03*
X101150000Y-61250000D03*
X98750000Y-85250000D03*
X97950000Y-59650000D03*
X97150000Y-62050000D03*
X97150000Y-61250000D03*
X97150000Y-60450000D03*
X97150000Y-59650000D03*
X96350000Y-61250000D03*
X96350000Y-60450000D03*
X96350000Y-59650000D03*
X95550000Y-61250000D03*
X95550000Y-60450000D03*
X95550000Y-59650000D03*
X94750000Y-61250000D03*
X94750000Y-60450000D03*
X94750000Y-59650000D03*
X93950000Y-60450000D03*
X93950000Y-59650000D03*
X93150000Y-86050000D03*
X93150000Y-59650000D03*
X92350000Y-86050000D03*
X92350000Y-59650000D03*
X91550000Y-86050000D03*
X91550000Y-59650000D03*
X90750000Y-86050000D03*
X90750000Y-60450000D03*
X90750000Y-59650000D03*
X89950000Y-86050000D03*
X89950000Y-60450000D03*
X89150000Y-60450000D03*
X87550000Y-85250000D03*
X87550000Y-56450000D03*
X86750000Y-66050000D03*
X86750000Y-54850000D03*
X85950000Y-66050000D03*
X85950000Y-54850000D03*
X85950000Y-54050000D03*
X85150000Y-66850000D03*
X85150000Y-66050000D03*
X85150000Y-65250000D03*
X85150000Y-64450000D03*
X85150000Y-63650000D03*
X85150000Y-62850000D03*
X85150000Y-54850000D03*
X85150000Y-54050000D03*
X84350000Y-66850000D03*
X84350000Y-66050000D03*
X84350000Y-65250000D03*
X84350000Y-64450000D03*
X84350000Y-63650000D03*
X84350000Y-55650000D03*
X84350000Y-54850000D03*
X83550000Y-66850000D03*
X83550000Y-66050000D03*
X83550000Y-65250000D03*
X83550000Y-64450000D03*
X83550000Y-63650000D03*
X83550000Y-56450000D03*
X83550000Y-55650000D03*
X83550000Y-54850000D03*
X82750000Y-67650000D03*
X82750000Y-66850000D03*
X82750000Y-66050000D03*
X82750000Y-65250000D03*
X82750000Y-64450000D03*
X82750000Y-60450000D03*
X82750000Y-56450000D03*
X82750000Y-55650000D03*
X81950000Y-68450000D03*
X81950000Y-67650000D03*
X81950000Y-66850000D03*
X81950000Y-66050000D03*
X81950000Y-65250000D03*
X81950000Y-58850000D03*
X81950000Y-58050000D03*
X81950000Y-57250000D03*
X81950000Y-56450000D03*
X81950000Y-55650000D03*
X81150000Y-69250000D03*
X81150000Y-68450000D03*
X81150000Y-67650000D03*
X81150000Y-66850000D03*
X81150000Y-57250000D03*
X81150000Y-56450000D03*
X80350000Y-69250000D03*
X80350000Y-68450000D03*
X86750000Y-72750000D03*
X81000000Y-75000000D03*
X93500000Y-72750000D03*
X93750000Y-83000000D03*
X85250000Y-73250000D03*
X81500000Y-71000000D03*
X80500000Y-74500000D03*
X95600000Y-70200000D03*
X84750000Y-71750000D03*
X86001524Y-84747615D03*
X88875000Y-68625000D03*
X90500000Y-84000000D03*
X106400000Y-67000000D03*
X80000000Y-75000000D03*
D27*
X108000000Y-77000000D03*
D26*
X92500000Y-82750000D03*
X93000000Y-72250000D03*
X98513712Y-65873000D03*
X93000000Y-73250000D03*
X93600000Y-70200000D03*
X88025000Y-77350000D03*
X80800000Y-78750000D03*
D27*
X108000000Y-75750000D03*
D26*
X105250000Y-78250000D03*
X86750000Y-73750000D03*
X84750000Y-72750000D03*
X85750000Y-73750000D03*
X81500000Y-74500000D03*
X84750000Y-83800000D03*
X95750000Y-78250000D03*
X80000000Y-71000000D03*
X85750000Y-72750000D03*
X97916644Y-64566644D03*
X86250000Y-72250000D03*
X85250000Y-72250000D03*
X80500000Y-75500000D03*
X91600000Y-70000000D03*
X86250000Y-73250000D03*
X97210000Y-69170000D03*
X94000000Y-72250000D03*
X94600000Y-70200000D03*
X87250000Y-72250000D03*
X101681644Y-68181644D03*
D27*
X108000000Y-74600003D03*
D26*
X87250000Y-73250000D03*
D27*
X108000000Y-78000000D03*
D26*
X94000000Y-73250000D03*
X100127000Y-79250000D03*
X89750000Y-66500000D03*
X90750000Y-65750000D03*
X84750000Y-73750000D03*
%TO.N,+3V3*%
X86841562Y-67961430D03*
X91400000Y-71000000D03*
X92717111Y-65008888D03*
D27*
%TO.N,+12V*%
X108000000Y-72250000D03*
X108000000Y-73500000D03*
X108000000Y-68500000D03*
X108000000Y-71000000D03*
X108000000Y-69750000D03*
D26*
%TO.N,RP_RX*%
X95580000Y-75650000D03*
%TO.N,RP_TX*%
X99439193Y-69969597D03*
%TO.N,ISEN*%
X88500000Y-78000000D03*
X85350000Y-77254000D03*
%TO.N,Net-(IC1-OUT2)*%
X83000000Y-78200000D03*
X85000000Y-78200000D03*
X84000000Y-78200000D03*
X83000000Y-77200000D03*
%TO.N,Net-(IC1-OUT1)*%
X86450000Y-78300000D03*
X88600000Y-78800000D03*
X87800000Y-78600000D03*
X87000000Y-78800000D03*
X87225000Y-78300000D03*
X87000000Y-79800000D03*
%TO.N,MOSI*%
X91518759Y-75675000D03*
%TO.N,+5V*%
X99250000Y-80950000D03*
X100500000Y-69750000D03*
%TO.N,CAN_SILENT*%
X95000000Y-67250000D03*
%TO.N,NRST*%
X90600000Y-66798307D03*
X90800000Y-74600000D03*
%TO.N,DRV_IN2*%
X85325000Y-68925000D03*
%TO.N,MISO*%
X93250000Y-75000000D03*
%TO.N,MAG_CS*%
X94368144Y-74995144D03*
%TO.N,SCK*%
X91278070Y-73921235D03*
%TO.N,DRV_IN1*%
X86250000Y-68500000D03*
%TD*%
D28*
%TO.N,GND*%
X87650000Y-73150000D02*
X87250000Y-72750000D01*
D29*
X101613288Y-68250000D02*
X101681644Y-68181644D01*
D28*
X87750000Y-70520000D02*
X86750000Y-70520000D01*
X87993253Y-77381747D02*
X88025000Y-77350000D01*
X91750000Y-72250000D02*
X93000000Y-72250000D01*
X89325000Y-73150000D02*
X87650000Y-73150000D01*
X87750000Y-69750000D02*
X87750000Y-70520000D01*
X87650000Y-73150000D02*
X87250000Y-73250000D01*
X88875000Y-68625000D02*
X87750000Y-69750000D01*
X89325000Y-73150000D02*
X90850000Y-73150000D01*
X87250000Y-73250000D02*
X86750000Y-72750000D01*
D29*
X101250000Y-68250000D02*
X101613288Y-68250000D01*
D28*
X87224999Y-77381747D02*
X87993253Y-77381747D01*
X86750000Y-72750000D02*
X87250000Y-72250000D01*
X90850000Y-73150000D02*
X91750000Y-72250000D01*
D30*
%TO.N,+3V3*%
X92717111Y-65008888D02*
X93945999Y-63780000D01*
D28*
X86440001Y-71480000D02*
X86750000Y-71480000D01*
X87004000Y-68996000D02*
X85986000Y-70014000D01*
X87750000Y-71480000D02*
X87750000Y-71547294D01*
X91400000Y-71047294D02*
X90097294Y-72350000D01*
D30*
X103800001Y-63780000D02*
X104750000Y-64729999D01*
D28*
X86841562Y-67961430D02*
X87004000Y-68123868D01*
X90097294Y-72350000D02*
X89325000Y-72350000D01*
X87750000Y-71547294D02*
X88552706Y-72350000D01*
D30*
X93945999Y-63780000D02*
X103800001Y-63780000D01*
D28*
X85986000Y-71025999D02*
X86440001Y-71480000D01*
X86750000Y-71480000D02*
X87750000Y-71480000D01*
X85986000Y-70014000D02*
X85986000Y-71025999D01*
X87004000Y-68123868D02*
X87004000Y-68996000D01*
X91400000Y-71000000D02*
X91400000Y-71047294D01*
X88552706Y-72350000D02*
X89325000Y-72350000D01*
D30*
%TO.N,RP_RX*%
X95580000Y-75650000D02*
X95500000Y-75730000D01*
X95500000Y-75730000D02*
X95500000Y-76925000D01*
%TO.N,RP_TX*%
X99439193Y-69969597D02*
X99250000Y-70158790D01*
X97692688Y-76925000D02*
X96300000Y-76925000D01*
X99250000Y-70158790D02*
X99250000Y-75367688D01*
X99250000Y-75367688D02*
X97692688Y-76925000D01*
D29*
%TO.N,ISEN*%
X88500000Y-78000000D02*
X91174999Y-78000000D01*
X85350000Y-77254000D02*
X85471000Y-77375000D01*
X85471000Y-77375000D02*
X86198249Y-77375000D01*
X91500000Y-77674999D02*
X91500000Y-76925000D01*
X91174999Y-78000000D02*
X91500000Y-77674999D01*
X86198249Y-77375000D02*
X86205000Y-77381751D01*
D30*
%TO.N,MOSI*%
X90700000Y-76175001D02*
X91200001Y-75675000D01*
X90700000Y-76925000D02*
X90700000Y-76175001D01*
X91200001Y-75675000D02*
X91518759Y-75675000D01*
%TO.N,+5V*%
X99500000Y-75759741D02*
X99704000Y-75555741D01*
X100066193Y-70183807D02*
X100500000Y-69750000D01*
X100066193Y-70229309D02*
X100066193Y-70183807D01*
X99704000Y-75555741D02*
X99704000Y-70591502D01*
X99500000Y-80700000D02*
X99500000Y-75759741D01*
X99250000Y-80950000D02*
X99500000Y-80700000D01*
X99704000Y-70591502D02*
X100066193Y-70229309D01*
D28*
%TO.N,CAN_H*%
X85832923Y-57063277D02*
X85832923Y-59082923D01*
X88396000Y-61646000D02*
X88396000Y-62229754D01*
X86854000Y-60104000D02*
X88396000Y-61646000D01*
X86854000Y-60087682D02*
X86854000Y-60104000D01*
X85832923Y-59082923D02*
X86396000Y-59646000D01*
X86412318Y-59646000D02*
X86854000Y-60087682D01*
X86396000Y-59646000D02*
X86412318Y-59646000D01*
X88396000Y-62229754D02*
X89354915Y-63188669D01*
%TO.N,CAN_L*%
X87189852Y-62556170D02*
X87189852Y-64438670D01*
X83667860Y-59417860D02*
X84051542Y-59417860D01*
X84051542Y-59417860D02*
X87189852Y-62556170D01*
X83667860Y-58313278D02*
X83667860Y-59417860D01*
%TO.N,CAN_SILENT*%
X95000000Y-67250000D02*
X94700000Y-67550000D01*
X94700000Y-67550000D02*
X94700000Y-68575000D01*
D29*
%TO.N,Net-(D1-Pad2)*%
X94749999Y-79260000D02*
X94749999Y-80249999D01*
X94749999Y-80249999D02*
X95000000Y-80500000D01*
D30*
%TO.N,NRST*%
X90898308Y-66499999D02*
X101710001Y-66499999D01*
X90800000Y-74600000D02*
X90150000Y-73950000D01*
X90150000Y-73950000D02*
X89325000Y-73950000D01*
X90600000Y-66798307D02*
X90898308Y-66499999D01*
X101710001Y-66499999D02*
X102210000Y-66000000D01*
%TO.N,SWCLK*%
X96300000Y-68575000D02*
X96300000Y-67700000D01*
X101980000Y-67500000D02*
X103480002Y-65999998D01*
X96500000Y-67500000D02*
X101980000Y-67500000D01*
X96300000Y-67700000D02*
X96500000Y-67500000D01*
%TO.N,SWDIO*%
X99500000Y-69000000D02*
X101750000Y-69000000D01*
X101750000Y-69000000D02*
X104750000Y-66000000D01*
X98550000Y-69950000D02*
X99500000Y-69000000D01*
X97675000Y-69950000D02*
X98550000Y-69950000D01*
D28*
%TO.N,DRV_IN2*%
X84250000Y-75500000D02*
X87802706Y-75500000D01*
X88552706Y-74750000D02*
X89325000Y-74750000D01*
X83845999Y-70404001D02*
X83845999Y-75095999D01*
X85325000Y-68925000D02*
X83845999Y-70404001D01*
X87802706Y-75500000D02*
X88552706Y-74750000D01*
X83845999Y-75095999D02*
X84250000Y-75500000D01*
D30*
%TO.N,MISO*%
X93900000Y-76925000D02*
X93900000Y-75650000D01*
X93900000Y-75650000D02*
X93250000Y-75000000D01*
%TO.N,MAG_CS*%
X94373000Y-75000000D02*
X96532312Y-75000000D01*
X96532312Y-75000000D02*
X97082312Y-75550000D01*
X97082312Y-75550000D02*
X97675000Y-75550000D01*
X94368144Y-74995144D02*
X94373000Y-75000000D01*
%TO.N,SCK*%
X91278070Y-73921235D02*
X91284523Y-73921235D01*
X91284523Y-73921235D02*
X93100000Y-75736712D01*
X93100000Y-75736712D02*
X93100000Y-76925000D01*
D29*
%TO.N,Net-(D2-Pad2)*%
X92250000Y-79500000D02*
X92250000Y-80484998D01*
X92250000Y-80484998D02*
X92265002Y-80500000D01*
D28*
%TO.N,DRV_IN1*%
X85746000Y-67996000D02*
X84937682Y-67996000D01*
X86250000Y-68500000D02*
X85746000Y-67996000D01*
X82750000Y-70183682D02*
X82750000Y-75500000D01*
X88375000Y-76500000D02*
X89325000Y-75550000D01*
X83750000Y-76500000D02*
X88375000Y-76500000D01*
X82750000Y-75500000D02*
X83750000Y-76500000D01*
X84937682Y-67996000D02*
X82750000Y-70183682D01*
D29*
%TO.N,Net-(U7-PA7)*%
X94700000Y-78189999D02*
X94750001Y-78240000D01*
X94700000Y-76925000D02*
X94700000Y-78189999D01*
%TO.N,Net-(U7-PA4)*%
X92300000Y-76925000D02*
X92300000Y-78430002D01*
X92300000Y-78430002D02*
X92250002Y-78480000D01*
%TD*%
%TA.AperFunction,Conductor*%
%TO.N,Net-(IC1-OUT1)*%
G36*
X86758335Y-77796109D02*
G01*
X86802682Y-77824610D01*
X86862897Y-77884825D01*
X86862900Y-77884827D01*
X86973656Y-77938971D01*
X86978482Y-77941331D01*
X87053418Y-77952249D01*
X87053423Y-77952249D01*
X87396577Y-77952249D01*
X87396582Y-77952249D01*
X87471518Y-77941331D01*
X87558420Y-77898847D01*
X87612881Y-77886247D01*
X87821029Y-77886247D01*
X87888068Y-77905932D01*
X87933823Y-77958736D01*
X87943968Y-77994061D01*
X87963670Y-78143708D01*
X87963671Y-78143712D01*
X88019137Y-78277622D01*
X88019138Y-78277624D01*
X88019139Y-78277625D01*
X88107379Y-78392621D01*
X88222375Y-78480861D01*
X88356291Y-78536330D01*
X88483280Y-78553048D01*
X88499999Y-78555250D01*
X88500000Y-78555250D01*
X88500001Y-78555250D01*
X88514977Y-78553278D01*
X88643709Y-78536330D01*
X88777625Y-78480861D01*
X88892621Y-78392621D01*
X88892623Y-78392617D01*
X88892627Y-78392615D01*
X88898372Y-78386871D01*
X88900888Y-78389387D01*
X88944183Y-78357797D01*
X88986092Y-78350500D01*
X90844242Y-78350500D01*
X90895553Y-78361615D01*
X91647623Y-78703465D01*
X91700507Y-78749125D01*
X91707712Y-78761889D01*
X91750963Y-78850361D01*
X91763053Y-78893595D01*
X91776809Y-79044914D01*
X91763274Y-79113460D01*
X91751970Y-79128879D01*
X91752893Y-79129538D01*
X91746923Y-79137899D01*
X91690418Y-79253479D01*
X91690418Y-79253482D01*
X91679500Y-79328418D01*
X91679500Y-79671582D01*
X91690418Y-79746518D01*
X91690418Y-79746519D01*
X91690419Y-79746521D01*
X91746921Y-79862099D01*
X91746923Y-79862102D01*
X91795801Y-79910979D01*
X91829287Y-79972302D01*
X91824303Y-80041994D01*
X91795806Y-80086338D01*
X91791501Y-80090642D01*
X91734261Y-80202980D01*
X91719502Y-80296171D01*
X91719502Y-80703821D01*
X91729546Y-80767240D01*
X91734263Y-80797022D01*
X91791500Y-80909355D01*
X91791502Y-80909357D01*
X91791504Y-80909360D01*
X91880641Y-80998497D01*
X91880645Y-80998500D01*
X91880647Y-80998502D01*
X91896994Y-81006831D01*
X91947789Y-81054804D01*
X91964189Y-81106089D01*
X91997974Y-81477725D01*
X91994114Y-81521578D01*
X91291241Y-84098781D01*
X91254611Y-84158278D01*
X91191628Y-84188527D01*
X91122290Y-84179924D01*
X91068611Y-84135199D01*
X91047633Y-84068553D01*
X91048670Y-84049974D01*
X91055250Y-84000000D01*
X91036330Y-83856291D01*
X90980861Y-83722375D01*
X90892621Y-83607379D01*
X90777625Y-83519139D01*
X90777624Y-83519138D01*
X90777622Y-83519137D01*
X90643712Y-83463671D01*
X90643710Y-83463670D01*
X90643709Y-83463670D01*
X90571854Y-83454210D01*
X90500001Y-83444750D01*
X90499999Y-83444750D01*
X90356291Y-83463670D01*
X90356287Y-83463671D01*
X90222377Y-83519137D01*
X90107379Y-83607379D01*
X90019137Y-83722377D01*
X89963671Y-83856287D01*
X89963670Y-83856291D01*
X89944750Y-83999999D01*
X89944750Y-84000000D01*
X89963670Y-84143708D01*
X89963672Y-84143715D01*
X89970556Y-84160336D01*
X89978023Y-84229805D01*
X89946747Y-84292283D01*
X89886657Y-84327934D01*
X89863276Y-84331571D01*
X87124553Y-84492673D01*
X87056473Y-84476959D01*
X87007696Y-84426933D01*
X86993442Y-84375404D01*
X86990944Y-84327934D01*
X86750000Y-79750000D01*
X86205153Y-78115461D01*
X86202629Y-78045639D01*
X86238254Y-77985534D01*
X86300719Y-77954231D01*
X86322791Y-77952251D01*
X86376577Y-77952251D01*
X86376582Y-77952251D01*
X86451518Y-77941333D01*
X86509310Y-77913080D01*
X86567099Y-77884829D01*
X86567102Y-77884827D01*
X86627320Y-77824610D01*
X86688643Y-77791125D01*
X86758335Y-77796109D01*
G37*
%TD.AperFunction*%
%TD*%
%TA.AperFunction,Conductor*%
%TO.N,Net-(IC1-OUT2)*%
G36*
X82192387Y-76160323D02*
G01*
X83499998Y-77249999D01*
X83499999Y-77249999D01*
X83500000Y-77250000D01*
X84884765Y-77596191D01*
X84945029Y-77631548D01*
X84953064Y-77640999D01*
X84957375Y-77646617D01*
X84957377Y-77646618D01*
X84957379Y-77646621D01*
X85072375Y-77734861D01*
X85206291Y-77790330D01*
X85333280Y-77807048D01*
X85349999Y-77809250D01*
X85350000Y-77809250D01*
X85350001Y-77809250D01*
X85368537Y-77806809D01*
X85443742Y-77796908D01*
X85512776Y-77807673D01*
X85565032Y-77854053D01*
X85565079Y-77854127D01*
X85894087Y-78380540D01*
X85911873Y-78430070D01*
X85913668Y-78443701D01*
X85913670Y-78443711D01*
X85969137Y-78577622D01*
X85969138Y-78577624D01*
X85969139Y-78577625D01*
X86057379Y-78692621D01*
X86093570Y-78720392D01*
X86100621Y-78725802D01*
X86130285Y-78758457D01*
X86165062Y-78814100D01*
X86177547Y-78840608D01*
X86450611Y-79659800D01*
X86455913Y-79715195D01*
X86444750Y-79799995D01*
X86444750Y-79800000D01*
X86463670Y-79943709D01*
X86483062Y-79990527D01*
X86502112Y-80036518D01*
X86511380Y-80077453D01*
X86733034Y-84288867D01*
X86716900Y-84356848D01*
X86666574Y-84405315D01*
X86598033Y-84418880D01*
X86584887Y-84416976D01*
X86460752Y-84392149D01*
X86398874Y-84359699D01*
X86397384Y-84358233D01*
X86394144Y-84354993D01*
X86279149Y-84266754D01*
X86279147Y-84266753D01*
X86145236Y-84211286D01*
X86145234Y-84211285D01*
X86145233Y-84211285D01*
X86073378Y-84201825D01*
X86001525Y-84192365D01*
X86001523Y-84192365D01*
X85857816Y-84211284D01*
X85794491Y-84237514D01*
X85725021Y-84244981D01*
X85722722Y-84244544D01*
X85352642Y-84170528D01*
X85290764Y-84138078D01*
X85256254Y-84077326D01*
X85260066Y-84007561D01*
X85262391Y-84001502D01*
X85286330Y-83943709D01*
X85305250Y-83800000D01*
X85305017Y-83798234D01*
X85303048Y-83783280D01*
X85286330Y-83656291D01*
X85230861Y-83522375D01*
X85142621Y-83407379D01*
X85027625Y-83319139D01*
X85027624Y-83319138D01*
X85027622Y-83319137D01*
X84893712Y-83263671D01*
X84893710Y-83263670D01*
X84893709Y-83263670D01*
X84821854Y-83254210D01*
X84750001Y-83244750D01*
X84749999Y-83244750D01*
X84606291Y-83263670D01*
X84606287Y-83263671D01*
X84472377Y-83319137D01*
X84357379Y-83407379D01*
X84269138Y-83522376D01*
X84243695Y-83583802D01*
X84199854Y-83638205D01*
X84133560Y-83660270D01*
X84065860Y-83642991D01*
X84050621Y-83632326D01*
X83558619Y-83229779D01*
X83552660Y-83224576D01*
X83385643Y-83069069D01*
X83381061Y-83064576D01*
X82865373Y-82532030D01*
X82861030Y-82527306D01*
X82754898Y-82405702D01*
X82373584Y-81968800D01*
X82369496Y-81963864D01*
X82359272Y-81950848D01*
X82215984Y-81768422D01*
X81911588Y-81380881D01*
X81907757Y-81375735D01*
X81898203Y-81362183D01*
X81798863Y-81221270D01*
X81776325Y-81155137D01*
X81776327Y-81144456D01*
X81989122Y-76250192D01*
X82011699Y-76184075D01*
X82066441Y-76140657D01*
X82135966Y-76133727D01*
X82192387Y-76160323D01*
G37*
%TD.AperFunction*%
%TD*%
%TA.AperFunction,Conductor*%
%TO.N,GND*%
G36*
X113724876Y-73926675D02*
G01*
X113771619Y-73978607D01*
X113783816Y-74032344D01*
X113783640Y-74236313D01*
X113780268Y-78149206D01*
X113780038Y-78415607D01*
X113760296Y-78482629D01*
X113707452Y-78528339D01*
X113656038Y-78539500D01*
X109205458Y-78539500D01*
X109203289Y-78539481D01*
X107135820Y-78503316D01*
X107117045Y-78501553D01*
X107099047Y-78498468D01*
X107099036Y-78498468D01*
X107067519Y-78501378D01*
X107053953Y-78501884D01*
X107022320Y-78501331D01*
X107022314Y-78501331D01*
X107004586Y-78505750D01*
X106986006Y-78508904D01*
X106967819Y-78510584D01*
X106967811Y-78510585D01*
X106938126Y-78521552D01*
X106925154Y-78525552D01*
X106894446Y-78533207D01*
X106894441Y-78533210D01*
X106878465Y-78542064D01*
X106861336Y-78549920D01*
X106844196Y-78556253D01*
X106844195Y-78556253D01*
X106818354Y-78574532D01*
X106806865Y-78581749D01*
X106779183Y-78597093D01*
X106766041Y-78609783D01*
X106751528Y-78621804D01*
X106736610Y-78632357D01*
X106716380Y-78656702D01*
X106707151Y-78666646D01*
X106684380Y-78688635D01*
X106684377Y-78688639D01*
X106674970Y-78704294D01*
X106664062Y-78719665D01*
X106652386Y-78733717D01*
X106652383Y-78733721D01*
X106639142Y-78762474D01*
X106632802Y-78774468D01*
X106616503Y-78801592D01*
X106613450Y-78812239D01*
X106605509Y-78832810D01*
X106296034Y-79461550D01*
X106293052Y-79467233D01*
X105931718Y-80114493D01*
X105928447Y-80120013D01*
X105534096Y-80747744D01*
X105530543Y-80753087D01*
X105104256Y-81359567D01*
X105100431Y-81364719D01*
X104643362Y-81948307D01*
X104639277Y-81953255D01*
X104152598Y-82512457D01*
X104148261Y-82517187D01*
X103633325Y-83050442D01*
X103628750Y-83054941D01*
X103086907Y-83560856D01*
X103082105Y-83565112D01*
X102514821Y-84042316D01*
X102509805Y-84046318D01*
X101918611Y-84493525D01*
X101913395Y-84497263D01*
X101299831Y-84913306D01*
X101294429Y-84916768D01*
X100660192Y-85300499D01*
X100654618Y-85303678D01*
X100001343Y-85654105D01*
X99995612Y-85656990D01*
X99325125Y-85973135D01*
X99319252Y-85975721D01*
X98633282Y-86256768D01*
X98627284Y-86259046D01*
X97927701Y-86504230D01*
X97921592Y-86506195D01*
X97210260Y-86714862D01*
X97204058Y-86716508D01*
X96482905Y-86888093D01*
X96476626Y-86889417D01*
X95747520Y-87023474D01*
X95741182Y-87024470D01*
X95006162Y-87120625D01*
X94999780Y-87121293D01*
X94260731Y-87179300D01*
X94254323Y-87179636D01*
X93513300Y-87199332D01*
X93506883Y-87199337D01*
X92765794Y-87180674D01*
X92759386Y-87180346D01*
X92020296Y-87123373D01*
X92013913Y-87122715D01*
X91278726Y-87027582D01*
X91272386Y-87026594D01*
X90543113Y-86893557D01*
X90536832Y-86892242D01*
X89815440Y-86721664D01*
X89809236Y-86720027D01*
X89097594Y-86512348D01*
X89091483Y-86510391D01*
X88391570Y-86266189D01*
X88385575Y-86263921D01*
X88206082Y-86190674D01*
X87699218Y-85983832D01*
X87693342Y-85981255D01*
X87022389Y-85666035D01*
X87016654Y-85663157D01*
X86999722Y-85654105D01*
X86362926Y-85313661D01*
X86357350Y-85310493D01*
X85722543Y-84927627D01*
X85717143Y-84924176D01*
X85452197Y-84745061D01*
X85407684Y-84691207D01*
X85399352Y-84621836D01*
X85429848Y-84558973D01*
X85489489Y-84522576D01*
X85545964Y-84520742D01*
X85662809Y-84544111D01*
X85664387Y-84544419D01*
X85665667Y-84544669D01*
X85667965Y-84545106D01*
X85667967Y-84545106D01*
X85667972Y-84545107D01*
X85752885Y-84548537D01*
X85757669Y-84548731D01*
X85757669Y-84548730D01*
X85757670Y-84548731D01*
X85827140Y-84541264D01*
X85911401Y-84519759D01*
X85922482Y-84515168D01*
X85953746Y-84506790D01*
X85985344Y-84502631D01*
X86017710Y-84502631D01*
X86033501Y-84504711D01*
X86033502Y-84504711D01*
X86049299Y-84506790D01*
X86080561Y-84515168D01*
X86109998Y-84527361D01*
X86138032Y-84543546D01*
X86229808Y-84613968D01*
X86231155Y-84614178D01*
X86251411Y-84626184D01*
X86256990Y-84630253D01*
X86303135Y-84654452D01*
X86311585Y-84658884D01*
X86318868Y-84662703D01*
X86373515Y-84682045D01*
X86400841Y-84691717D01*
X86524982Y-84716545D01*
X86541079Y-84719318D01*
X86541082Y-84719318D01*
X86541097Y-84719321D01*
X86554243Y-84721225D01*
X86657344Y-84718567D01*
X86725885Y-84705002D01*
X86756509Y-84695656D01*
X86826373Y-84694918D01*
X86872320Y-84719197D01*
X86878086Y-84724026D01*
X86884873Y-84729711D01*
X86987765Y-84774632D01*
X86987771Y-84774633D01*
X86987773Y-84774634D01*
X86999095Y-84777247D01*
X87055845Y-84790346D01*
X87142493Y-84797646D01*
X89881216Y-84636544D01*
X89910233Y-84633441D01*
X89910253Y-84633437D01*
X89910260Y-84633437D01*
X89922552Y-84631524D01*
X89933614Y-84629804D01*
X89937100Y-84629241D01*
X90042538Y-84590672D01*
X90102628Y-84555021D01*
X90152081Y-84518487D01*
X90164108Y-84502631D01*
X90219922Y-84429047D01*
X90219923Y-84429044D01*
X90219930Y-84429036D01*
X90251206Y-84366558D01*
X90273056Y-84309088D01*
X90281773Y-84197156D01*
X90274306Y-84127687D01*
X90266608Y-84097526D01*
X90263820Y-84083060D01*
X90255015Y-84016177D01*
X90255015Y-83983820D01*
X90259176Y-83952214D01*
X90267550Y-83920961D01*
X90279745Y-83891520D01*
X90295921Y-83863500D01*
X90315332Y-83838204D01*
X90338204Y-83815332D01*
X90363500Y-83795921D01*
X90391520Y-83779745D01*
X90420961Y-83767550D01*
X90452216Y-83759175D01*
X90483813Y-83755016D01*
X90516186Y-83755017D01*
X90535988Y-83757624D01*
X90535991Y-83757624D01*
X90547781Y-83759176D01*
X90579039Y-83767553D01*
X90608471Y-83779744D01*
X90636504Y-83795928D01*
X90661785Y-83815327D01*
X90684669Y-83838210D01*
X90704069Y-83863493D01*
X90720254Y-83891526D01*
X90732446Y-83920961D01*
X90740823Y-83952223D01*
X90744982Y-83983811D01*
X90745066Y-83984444D01*
X90745588Y-84012187D01*
X90743642Y-84032970D01*
X90742608Y-84051517D01*
X90742608Y-84051531D01*
X90756227Y-84160276D01*
X90756228Y-84160280D01*
X90777206Y-84226927D01*
X90797541Y-84274262D01*
X90801473Y-84283414D01*
X90873054Y-84369907D01*
X90911096Y-84401603D01*
X90926740Y-84414638D01*
X90977692Y-84449036D01*
X90977695Y-84449038D01*
X91084674Y-84483099D01*
X91154012Y-84491702D01*
X91215476Y-84493095D01*
X91323888Y-84463913D01*
X91386871Y-84433664D01*
X91439335Y-84401603D01*
X91514760Y-84318442D01*
X91551390Y-84258945D01*
X91585976Y-84179163D01*
X91798045Y-83401577D01*
X98499500Y-83401577D01*
X98499500Y-83598422D01*
X98530290Y-83792826D01*
X98591117Y-83980029D01*
X98666353Y-84127687D01*
X98680476Y-84155405D01*
X98796172Y-84314646D01*
X98935354Y-84453828D01*
X99094595Y-84569524D01*
X99136101Y-84590672D01*
X99269970Y-84658882D01*
X99269972Y-84658882D01*
X99269975Y-84658884D01*
X99356682Y-84687057D01*
X99457173Y-84719709D01*
X99651578Y-84750500D01*
X99651583Y-84750500D01*
X99848422Y-84750500D01*
X100042826Y-84719709D01*
X100088089Y-84705002D01*
X100230025Y-84658884D01*
X100405405Y-84569524D01*
X100564646Y-84453828D01*
X100703828Y-84314646D01*
X100819524Y-84155405D01*
X100908884Y-83980025D01*
X100969709Y-83792826D01*
X100975284Y-83757627D01*
X101000500Y-83598422D01*
X101000500Y-83401577D01*
X100969709Y-83207173D01*
X100908882Y-83019970D01*
X100819523Y-82844594D01*
X100787026Y-82799866D01*
X100703828Y-82685354D01*
X100564646Y-82546172D01*
X100405405Y-82430476D01*
X100230029Y-82341117D01*
X100042826Y-82280290D01*
X99848422Y-82249500D01*
X99848417Y-82249500D01*
X99651583Y-82249500D01*
X99651578Y-82249500D01*
X99457173Y-82280290D01*
X99269970Y-82341117D01*
X99094594Y-82430476D01*
X99003741Y-82496485D01*
X98935354Y-82546172D01*
X98935352Y-82546174D01*
X98935351Y-82546174D01*
X98796174Y-82685351D01*
X98796174Y-82685352D01*
X98796172Y-82685354D01*
X98746485Y-82753741D01*
X98680476Y-82844594D01*
X98591117Y-83019970D01*
X98530290Y-83207173D01*
X98499500Y-83401577D01*
X91798045Y-83401577D01*
X92288849Y-81601960D01*
X92298437Y-81548365D01*
X92302297Y-81504512D01*
X92302219Y-81450066D01*
X92284551Y-81255724D01*
X92298085Y-81187179D01*
X92346530Y-81136832D01*
X92408042Y-81120499D01*
X92466462Y-81120499D01*
X92466464Y-81120499D01*
X92496731Y-81117662D01*
X92624203Y-81073057D01*
X92732864Y-80992862D01*
X92813059Y-80884201D01*
X92857664Y-80756729D01*
X92860502Y-80726463D01*
X92860501Y-80273538D01*
X92857664Y-80243271D01*
X92813059Y-80115799D01*
X92771581Y-80059598D01*
X92747611Y-79993971D01*
X92762926Y-79925800D01*
X92771575Y-79912342D01*
X92824381Y-79840794D01*
X92838834Y-79799489D01*
X92867741Y-79716881D01*
X92867741Y-79716879D01*
X92870500Y-79687457D01*
X92870499Y-79312544D01*
X92867741Y-79283121D01*
X92824381Y-79159206D01*
X92753845Y-79063634D01*
X92729875Y-78998006D01*
X92745190Y-78929836D01*
X92753841Y-78916374D01*
X92824383Y-78820794D01*
X92846063Y-78758836D01*
X92867743Y-78696881D01*
X92867743Y-78696879D01*
X92868516Y-78688635D01*
X92870502Y-78667457D01*
X92870501Y-78292544D01*
X92867743Y-78263121D01*
X92824819Y-78140454D01*
X92821257Y-78070676D01*
X92855986Y-78010049D01*
X92917979Y-77977821D01*
X92941861Y-77975500D01*
X93258493Y-77975500D01*
X93358121Y-77959720D01*
X93358121Y-77959719D01*
X93358126Y-77959719D01*
X93443708Y-77916112D01*
X93512374Y-77903217D01*
X93556289Y-77916111D01*
X93641874Y-77959719D01*
X93641876Y-77959719D01*
X93641878Y-77959720D01*
X93741507Y-77975500D01*
X94061641Y-77975500D01*
X94128680Y-77995185D01*
X94174435Y-78047989D01*
X94184379Y-78117147D01*
X94178682Y-78140455D01*
X94132259Y-78273118D01*
X94132259Y-78273120D01*
X94129501Y-78302538D01*
X94129501Y-78677453D01*
X94132259Y-78706874D01*
X94132261Y-78706884D01*
X94175619Y-78830792D01*
X94246154Y-78926364D01*
X94270125Y-78991993D01*
X94254810Y-79060164D01*
X94246155Y-79073631D01*
X94175617Y-79169207D01*
X94132257Y-79293118D01*
X94132257Y-79293120D01*
X94129499Y-79322538D01*
X94129499Y-79697453D01*
X94132257Y-79726874D01*
X94132259Y-79726884D01*
X94175617Y-79850792D01*
X94253573Y-79956420D01*
X94253574Y-79956421D01*
X94253576Y-79956423D01*
X94299132Y-79990045D01*
X94341383Y-80045690D01*
X94349499Y-80089814D01*
X94349499Y-80197272D01*
X94349499Y-80302726D01*
X94370984Y-80382910D01*
X94376793Y-80404590D01*
X94387887Y-80423805D01*
X94404500Y-80485804D01*
X94404500Y-80726459D01*
X94407337Y-80756724D01*
X94407339Y-80756733D01*
X94451942Y-80884199D01*
X94451943Y-80884201D01*
X94532138Y-80992862D01*
X94640799Y-81073057D01*
X94768271Y-81117662D01*
X94798537Y-81120500D01*
X95201462Y-81120499D01*
X95231729Y-81117662D01*
X95359201Y-81073057D01*
X95467862Y-80992862D01*
X95548057Y-80884201D01*
X95592662Y-80756729D01*
X95595500Y-80726463D01*
X95595499Y-80273538D01*
X95592662Y-80243271D01*
X95548057Y-80115799D01*
X95467862Y-80007138D01*
X95383982Y-79945232D01*
X95341733Y-79889586D01*
X95336274Y-79819929D01*
X95340573Y-79804515D01*
X95367740Y-79726879D01*
X95370499Y-79697457D01*
X95370498Y-79322544D01*
X95367740Y-79293121D01*
X95324380Y-79169206D01*
X95253844Y-79073634D01*
X95229874Y-79008006D01*
X95245189Y-78939836D01*
X95253840Y-78926374D01*
X95324382Y-78830794D01*
X95358351Y-78733717D01*
X95367742Y-78706881D01*
X95367742Y-78706879D01*
X95367984Y-78704294D01*
X95370501Y-78677457D01*
X95370500Y-78302544D01*
X95367742Y-78273121D01*
X95324382Y-78149206D01*
X95321320Y-78140455D01*
X95317758Y-78070676D01*
X95352486Y-78010049D01*
X95414479Y-77977821D01*
X95438361Y-77975500D01*
X95658493Y-77975500D01*
X95758121Y-77959720D01*
X95758121Y-77959719D01*
X95758126Y-77959719D01*
X95843708Y-77916112D01*
X95912374Y-77903217D01*
X95956289Y-77916111D01*
X96041874Y-77959719D01*
X96041876Y-77959719D01*
X96041878Y-77959720D01*
X96141507Y-77975500D01*
X96141512Y-77975500D01*
X96458493Y-77975500D01*
X96558121Y-77959720D01*
X96558121Y-77959719D01*
X96558126Y-77959719D01*
X96678220Y-77898528D01*
X96773528Y-77803220D01*
X96834719Y-77683126D01*
X96840614Y-77645906D01*
X96850500Y-77583493D01*
X96850500Y-77476500D01*
X96870185Y-77409461D01*
X96922989Y-77363706D01*
X96974500Y-77352500D01*
X97748967Y-77352500D01*
X97748969Y-77352500D01*
X97857697Y-77323367D01*
X97955179Y-77267085D01*
X98860819Y-76361445D01*
X98922142Y-76327960D01*
X98991834Y-76332944D01*
X99047767Y-76374816D01*
X99072184Y-76440280D01*
X99072500Y-76449126D01*
X99072500Y-80290691D01*
X99052815Y-80357730D01*
X99000011Y-80403485D01*
X98995954Y-80405252D01*
X98947159Y-80425463D01*
X98947158Y-80425464D01*
X98821719Y-80521716D01*
X98725463Y-80647160D01*
X98664956Y-80793237D01*
X98664955Y-80793239D01*
X98644318Y-80949998D01*
X98644318Y-80950001D01*
X98664955Y-81106760D01*
X98664956Y-81106762D01*
X98725464Y-81252841D01*
X98821718Y-81378282D01*
X98947159Y-81474536D01*
X99093238Y-81535044D01*
X99171619Y-81545363D01*
X99249999Y-81555682D01*
X99250000Y-81555682D01*
X99250001Y-81555682D01*
X99305730Y-81548345D01*
X99406762Y-81535044D01*
X99552841Y-81474536D01*
X99678282Y-81378282D01*
X99774536Y-81252841D01*
X99835044Y-81106762D01*
X99854349Y-80960124D01*
X99869901Y-80914312D01*
X99887286Y-80884201D01*
X99898367Y-80865009D01*
X99927500Y-80756282D01*
X99927500Y-80643719D01*
X99927500Y-75988179D01*
X99947185Y-75921140D01*
X99963819Y-75900498D01*
X99989817Y-75874500D01*
X100046085Y-75818232D01*
X100102367Y-75720750D01*
X100131500Y-75612022D01*
X100131500Y-75499459D01*
X100131500Y-74109041D01*
X100151185Y-74042002D01*
X100203989Y-73996247D01*
X100273147Y-73986303D01*
X100336268Y-74014954D01*
X100398022Y-74067969D01*
X100513666Y-74120142D01*
X100581065Y-74138558D01*
X100581071Y-74138558D01*
X100581076Y-74138560D01*
X100638490Y-74145711D01*
X100695595Y-74152825D01*
X107411030Y-74026117D01*
X107478426Y-74044533D01*
X107501047Y-74062414D01*
X107529109Y-74090476D01*
X107529115Y-74090481D01*
X107672302Y-74180452D01*
X107672305Y-74180454D01*
X107672309Y-74180455D01*
X107672310Y-74180456D01*
X107744913Y-74205860D01*
X107831943Y-74236314D01*
X107999997Y-74255249D01*
X108000000Y-74255249D01*
X108000003Y-74255249D01*
X108168056Y-74236314D01*
X108168059Y-74236313D01*
X108327690Y-74180456D01*
X108470890Y-74090477D01*
X108521516Y-74039850D01*
X108582836Y-74006366D01*
X108606848Y-74003554D01*
X113657481Y-73908260D01*
X113724876Y-73926675D01*
G37*
%TD.AperFunction*%
%TA.AperFunction,Conductor*%
G36*
X84766186Y-83555017D02*
G01*
X84785988Y-83557624D01*
X84785991Y-83557624D01*
X84797781Y-83559176D01*
X84829039Y-83567553D01*
X84858471Y-83579744D01*
X84886504Y-83595928D01*
X84911785Y-83615327D01*
X84934673Y-83638215D01*
X84954067Y-83663490D01*
X84970252Y-83691523D01*
X84982444Y-83720957D01*
X84990822Y-83752223D01*
X84994982Y-83783817D01*
X84994982Y-83816191D01*
X84990824Y-83847771D01*
X84982453Y-83879020D01*
X84980136Y-83884615D01*
X84977193Y-83891993D01*
X84974842Y-83898119D01*
X84974842Y-83898120D01*
X84955021Y-83990892D01*
X84951708Y-84051531D01*
X84951209Y-84060658D01*
X84952915Y-84097541D01*
X84954049Y-84122073D01*
X84955011Y-84127101D01*
X84948270Y-84196645D01*
X84905000Y-84251504D01*
X84838941Y-84274262D01*
X84771064Y-84257692D01*
X84758549Y-84249391D01*
X84505970Y-84058882D01*
X84500948Y-84054886D01*
X84447881Y-84010371D01*
X84409170Y-83952206D01*
X84408051Y-83882345D01*
X84435093Y-83835136D01*
X84434131Y-83834361D01*
X84437726Y-83829899D01*
X84437728Y-83829898D01*
X84481569Y-83775495D01*
X84525941Y-83700710D01*
X84529741Y-83691534D01*
X84545931Y-83663491D01*
X84565331Y-83638209D01*
X84588216Y-83615323D01*
X84613495Y-83595926D01*
X84641520Y-83579745D01*
X84670962Y-83567550D01*
X84702216Y-83559175D01*
X84733813Y-83555016D01*
X84766186Y-83555017D01*
G37*
%TD.AperFunction*%
%TA.AperFunction,Conductor*%
G36*
X93809293Y-58290060D02*
G01*
X94548383Y-58324799D01*
X94554720Y-58325261D01*
X95291047Y-58398077D01*
X95297356Y-58398866D01*
X95950769Y-58497737D01*
X96028911Y-58509561D01*
X96035210Y-58510681D01*
X96141036Y-58532328D01*
X96760085Y-58658961D01*
X96766271Y-58660393D01*
X97482567Y-58845875D01*
X97488681Y-58847628D01*
X98194444Y-59069806D01*
X98200447Y-59071867D01*
X98893818Y-59330154D01*
X98899743Y-59332538D01*
X99578814Y-59626223D01*
X99584618Y-59628913D01*
X100247655Y-59957242D01*
X100253305Y-59960223D01*
X100898540Y-60322324D01*
X100904003Y-60325578D01*
X101385810Y-60629663D01*
X101529705Y-60720480D01*
X101535026Y-60724034D01*
X101732893Y-60863687D01*
X102108953Y-61129107D01*
X102139498Y-61150665D01*
X102144623Y-61154484D01*
X102336773Y-61305532D01*
X102726287Y-61611727D01*
X102731213Y-61615809D01*
X103288522Y-62102449D01*
X103293231Y-62106780D01*
X103824695Y-62621517D01*
X103829170Y-62626080D01*
X104333385Y-63167553D01*
X104337614Y-63172337D01*
X104802060Y-63725789D01*
X104830076Y-63789796D01*
X104819039Y-63858788D01*
X104772455Y-63910862D01*
X104707074Y-63929499D01*
X104605438Y-63929499D01*
X104538399Y-63909814D01*
X104517757Y-63893180D01*
X104062494Y-63437917D01*
X104062492Y-63437915D01*
X104013751Y-63409774D01*
X103965011Y-63381633D01*
X103910646Y-63367066D01*
X103856282Y-63352500D01*
X94002280Y-63352500D01*
X93889717Y-63352500D01*
X93780988Y-63381633D01*
X93683507Y-63437915D01*
X93683504Y-63437917D01*
X92748147Y-64373274D01*
X92686824Y-64406759D01*
X92676652Y-64408532D01*
X92560349Y-64423844D01*
X92560348Y-64423844D01*
X92414271Y-64484351D01*
X92288829Y-64580606D01*
X92192574Y-64706048D01*
X92132067Y-64852125D01*
X92132066Y-64852127D01*
X92111429Y-65008886D01*
X92111429Y-65008889D01*
X92132066Y-65165648D01*
X92132067Y-65165650D01*
X92187712Y-65299990D01*
X92192575Y-65311729D01*
X92288829Y-65437170D01*
X92414270Y-65533424D01*
X92560349Y-65593932D01*
X92638730Y-65604251D01*
X92717110Y-65614570D01*
X92717111Y-65614570D01*
X92717112Y-65614570D01*
X92769365Y-65607690D01*
X92873873Y-65593932D01*
X93019952Y-65533424D01*
X93145393Y-65437170D01*
X93241647Y-65311729D01*
X93302155Y-65165650D01*
X93317467Y-65049342D01*
X93345732Y-64985449D01*
X93352711Y-64977862D01*
X94086757Y-64243819D01*
X94148080Y-64210334D01*
X94174438Y-64207500D01*
X103571563Y-64207500D01*
X103638602Y-64227185D01*
X103659244Y-64243819D01*
X103913181Y-64497756D01*
X103946666Y-64559079D01*
X103949500Y-64585437D01*
X103949500Y-65141428D01*
X103929815Y-65208467D01*
X103877011Y-65254222D01*
X103807853Y-65264166D01*
X103784546Y-65258470D01*
X103659259Y-65214630D01*
X103659251Y-65214628D01*
X103480006Y-65194433D01*
X103479998Y-65194433D01*
X103300752Y-65214628D01*
X103300747Y-65214629D01*
X103130478Y-65274209D01*
X102977739Y-65370182D01*
X102977738Y-65370183D01*
X102932678Y-65415242D01*
X102871355Y-65448726D01*
X102801663Y-65443740D01*
X102757318Y-65415240D01*
X102712262Y-65370184D01*
X102559523Y-65274211D01*
X102389254Y-65214631D01*
X102389249Y-65214630D01*
X102210004Y-65194435D01*
X102209996Y-65194435D01*
X102030750Y-65214630D01*
X102030745Y-65214631D01*
X101860476Y-65274211D01*
X101707737Y-65370184D01*
X101580184Y-65497737D01*
X101484211Y-65650476D01*
X101424631Y-65820745D01*
X101424630Y-65820750D01*
X101408673Y-65962382D01*
X101381607Y-66026796D01*
X101324012Y-66066352D01*
X101285453Y-66072499D01*
X90954589Y-66072499D01*
X90842026Y-66072499D01*
X90733299Y-66101632D01*
X90733298Y-66101632D01*
X90733296Y-66101633D01*
X90733295Y-66101633D01*
X90635820Y-66157911D01*
X90635811Y-66157917D01*
X90631032Y-66162697D01*
X90569707Y-66196179D01*
X90559541Y-66197951D01*
X90443238Y-66213263D01*
X90443237Y-66213263D01*
X90297160Y-66273770D01*
X90171718Y-66370025D01*
X90075463Y-66495467D01*
X90014956Y-66641544D01*
X90014955Y-66641546D01*
X89994318Y-66798305D01*
X89994318Y-66798308D01*
X90014955Y-66955067D01*
X90014956Y-66955069D01*
X90072187Y-67093238D01*
X90075464Y-67101148D01*
X90171718Y-67226589D01*
X90297159Y-67322843D01*
X90297160Y-67322843D01*
X90297161Y-67322844D01*
X90299049Y-67323626D01*
X90363869Y-67350475D01*
X90418273Y-67394315D01*
X90440338Y-67460609D01*
X90423059Y-67528309D01*
X90372713Y-67575520D01*
X90321781Y-67601471D01*
X90321774Y-67601476D01*
X90226476Y-67696774D01*
X90226473Y-67696778D01*
X90165279Y-67816878D01*
X90149500Y-67916506D01*
X90149500Y-69233493D01*
X90154042Y-69262171D01*
X90145087Y-69331465D01*
X90100091Y-69384917D01*
X90033339Y-69405556D01*
X90012171Y-69404042D01*
X89983493Y-69399500D01*
X89983488Y-69399500D01*
X88666512Y-69399500D01*
X88666507Y-69399500D01*
X88566878Y-69415279D01*
X88446778Y-69476473D01*
X88446774Y-69476476D01*
X88351476Y-69571774D01*
X88351473Y-69571778D01*
X88290279Y-69691878D01*
X88274500Y-69791506D01*
X88274500Y-70108493D01*
X88290279Y-70208123D01*
X88333886Y-70293706D01*
X88346782Y-70362375D01*
X88333886Y-70406294D01*
X88290279Y-70491876D01*
X88274500Y-70591506D01*
X88274500Y-70822594D01*
X88254815Y-70889633D01*
X88202011Y-70935388D01*
X88132853Y-70945332D01*
X88109545Y-70939635D01*
X88002826Y-70902291D01*
X88002814Y-70902289D01*
X87973070Y-70899500D01*
X87973066Y-70899500D01*
X87526934Y-70899500D01*
X87526930Y-70899500D01*
X87497185Y-70902289D01*
X87497176Y-70902291D01*
X87450739Y-70918541D01*
X87409783Y-70925500D01*
X87090217Y-70925500D01*
X87049261Y-70918541D01*
X87002823Y-70902291D01*
X87002814Y-70902289D01*
X86973070Y-70899500D01*
X86973066Y-70899500D01*
X86695044Y-70899500D01*
X86628005Y-70879815D01*
X86607363Y-70863181D01*
X86576819Y-70832637D01*
X86543334Y-70771314D01*
X86540500Y-70744956D01*
X86540500Y-70295042D01*
X86560185Y-70228003D01*
X86576815Y-70207365D01*
X87334261Y-69449918D01*
X87334266Y-69449915D01*
X87344469Y-69439711D01*
X87344471Y-69439711D01*
X87447711Y-69336471D01*
X87520712Y-69210029D01*
X87540228Y-69137194D01*
X87558500Y-69069002D01*
X87558500Y-68922999D01*
X87558500Y-68050867D01*
X87554096Y-68034432D01*
X87520712Y-67909839D01*
X87508350Y-67888428D01*
X87447711Y-67783397D01*
X87414082Y-67749768D01*
X87387202Y-67709539D01*
X87366099Y-67658591D01*
X87366098Y-67658590D01*
X87366098Y-67658589D01*
X87269844Y-67533148D01*
X87144403Y-67436894D01*
X87134019Y-67432593D01*
X86998324Y-67376386D01*
X86998322Y-67376385D01*
X86841563Y-67355748D01*
X86841561Y-67355748D01*
X86684801Y-67376385D01*
X86684799Y-67376386D01*
X86538722Y-67436893D01*
X86532718Y-67441500D01*
X86413280Y-67533148D01*
X86413279Y-67533149D01*
X86413278Y-67533150D01*
X86349152Y-67616720D01*
X86292724Y-67657922D01*
X86222978Y-67662077D01*
X86163096Y-67628914D01*
X86086472Y-67552290D01*
X86086467Y-67552286D01*
X85960032Y-67479289D01*
X85960028Y-67479287D01*
X85951480Y-67476997D01*
X85951480Y-67476996D01*
X85843246Y-67447996D01*
X85819002Y-67441500D01*
X85819001Y-67441500D01*
X85018296Y-67441500D01*
X85018280Y-67441499D01*
X85010684Y-67441499D01*
X84864681Y-67441499D01*
X84794167Y-67460393D01*
X84723651Y-67479288D01*
X84723650Y-67479289D01*
X84597214Y-67552286D01*
X84597209Y-67552290D01*
X82306290Y-69843209D01*
X82306286Y-69843214D01*
X82234928Y-69966812D01*
X82234925Y-69966817D01*
X82233289Y-69969649D01*
X82233288Y-69969652D01*
X82196093Y-70108468D01*
X82196088Y-70108487D01*
X82195500Y-70110680D01*
X82195500Y-71886354D01*
X82175815Y-71953393D01*
X82123011Y-71999148D01*
X82053853Y-72009092D01*
X81990297Y-71980067D01*
X81971183Y-71959241D01*
X81953828Y-71935354D01*
X81814648Y-71796174D01*
X81814646Y-71796172D01*
X81655405Y-71680476D01*
X81480029Y-71591117D01*
X81292826Y-71530290D01*
X81098422Y-71499500D01*
X81098417Y-71499500D01*
X80901583Y-71499500D01*
X80901578Y-71499500D01*
X80707173Y-71530290D01*
X80519970Y-71591117D01*
X80344594Y-71680476D01*
X80306033Y-71708493D01*
X80185354Y-71796172D01*
X80185352Y-71796174D01*
X80185351Y-71796174D01*
X80046174Y-71935351D01*
X80046174Y-71935352D01*
X80046172Y-71935354D01*
X80035531Y-71950000D01*
X79930476Y-72094594D01*
X79841117Y-72269970D01*
X79780290Y-72457173D01*
X79749500Y-72651577D01*
X79749500Y-72848422D01*
X79780290Y-73042826D01*
X79841117Y-73230029D01*
X79881097Y-73308493D01*
X79930476Y-73405405D01*
X80046172Y-73564646D01*
X80185354Y-73703828D01*
X80344595Y-73819524D01*
X80420729Y-73858316D01*
X80519970Y-73908882D01*
X80519972Y-73908882D01*
X80519975Y-73908884D01*
X80574730Y-73926675D01*
X80707173Y-73969709D01*
X80901578Y-74000500D01*
X80901583Y-74000500D01*
X81098422Y-74000500D01*
X81292826Y-73969709D01*
X81480025Y-73908884D01*
X81655405Y-73819524D01*
X81814646Y-73703828D01*
X81953828Y-73564646D01*
X81971182Y-73540759D01*
X82026511Y-73498094D01*
X82096125Y-73492115D01*
X82157920Y-73524720D01*
X82192277Y-73585559D01*
X82195500Y-73613645D01*
X82195500Y-75426998D01*
X82195500Y-75573002D01*
X82200586Y-75591982D01*
X82222470Y-75673657D01*
X82220807Y-75743507D01*
X82181644Y-75801369D01*
X82117415Y-75828873D01*
X82108899Y-75829411D01*
X82105666Y-75829733D01*
X82105665Y-75829733D01*
X82073732Y-75832916D01*
X82036137Y-75836663D01*
X82036136Y-75836663D01*
X81975886Y-75848886D01*
X81975880Y-75848888D01*
X81876604Y-75901299D01*
X81876600Y-75901302D01*
X81821863Y-75944716D01*
X81821855Y-75944723D01*
X81777775Y-75987580D01*
X81777775Y-75987581D01*
X81722588Y-76085356D01*
X81722586Y-76085362D01*
X81700015Y-76151461D01*
X81700011Y-76151476D01*
X81683910Y-76236919D01*
X81683909Y-76236931D01*
X81503648Y-80382910D01*
X81481070Y-80449031D01*
X81426328Y-80492449D01*
X81356803Y-80499379D01*
X81294568Y-80467621D01*
X81274859Y-80443635D01*
X81081843Y-80137341D01*
X81078586Y-80131862D01*
X80716327Y-79485067D01*
X80713343Y-79479400D01*
X80704526Y-79461550D01*
X80385031Y-78814735D01*
X80382357Y-78808950D01*
X80088863Y-78128180D01*
X80086490Y-78122259D01*
X79870118Y-77539101D01*
X79828606Y-77427220D01*
X79826531Y-77421149D01*
X79795904Y-77323366D01*
X79604950Y-76713715D01*
X79603209Y-76707605D01*
X79418511Y-75989617D01*
X79417094Y-75983456D01*
X79269778Y-75256835D01*
X79268674Y-75250554D01*
X79259720Y-75190612D01*
X79159155Y-74517369D01*
X79158376Y-74511047D01*
X79086929Y-73773146D01*
X79086478Y-73766764D01*
X79086375Y-73764475D01*
X79053299Y-73026180D01*
X79053179Y-73019780D01*
X79058355Y-72278472D01*
X79058565Y-72272107D01*
X79102082Y-71532055D01*
X79102624Y-71525673D01*
X79105528Y-71499500D01*
X79184365Y-70788869D01*
X79185232Y-70782554D01*
X79304986Y-70050921D01*
X79306173Y-70044689D01*
X79463614Y-69320228D01*
X79465127Y-69314043D01*
X79659828Y-68598725D01*
X79661660Y-68592621D01*
X79893104Y-67888329D01*
X79895246Y-67882338D01*
X80162818Y-67190951D01*
X80165267Y-67185078D01*
X80468243Y-66508467D01*
X80471013Y-66502689D01*
X80808574Y-65842674D01*
X80811630Y-65837064D01*
X80883550Y-65712759D01*
X81182881Y-65195399D01*
X81186215Y-65189966D01*
X81590173Y-64568346D01*
X81593764Y-64563120D01*
X82029356Y-63963205D01*
X82033235Y-63958144D01*
X82499265Y-63381581D01*
X82503404Y-63376724D01*
X82996675Y-62827224D01*
X83000953Y-62822696D01*
X83044006Y-62779351D01*
X83105216Y-62745659D01*
X83145862Y-62743515D01*
X83239025Y-62754012D01*
X83249999Y-62755249D01*
X83250000Y-62755249D01*
X83250003Y-62755249D01*
X83418056Y-62736314D01*
X83430768Y-62731866D01*
X83577690Y-62680456D01*
X83577692Y-62680454D01*
X83577694Y-62680454D01*
X83577697Y-62680452D01*
X83720884Y-62590481D01*
X83720885Y-62590480D01*
X83720890Y-62590477D01*
X83840477Y-62470890D01*
X83878559Y-62410281D01*
X83930893Y-62363990D01*
X83969670Y-62353033D01*
X84118055Y-62336314D01*
X84118057Y-62336313D01*
X84118059Y-62336313D01*
X84277690Y-62280456D01*
X84277692Y-62280454D01*
X84277694Y-62280454D01*
X84277697Y-62280452D01*
X84420884Y-62190481D01*
X84420885Y-62190480D01*
X84420890Y-62190477D01*
X84540477Y-62070890D01*
X84627230Y-61932824D01*
X84679564Y-61886534D01*
X84702549Y-61878400D01*
X84735263Y-61870337D01*
X84876883Y-61796009D01*
X84996600Y-61689949D01*
X85087457Y-61558321D01*
X85107539Y-61505367D01*
X85149713Y-61449669D01*
X85215310Y-61425610D01*
X85283501Y-61440836D01*
X85311160Y-61461660D01*
X86599033Y-62749532D01*
X86632518Y-62810855D01*
X86635352Y-62837213D01*
X86635352Y-63185530D01*
X86615667Y-63252569D01*
X86573352Y-63292917D01*
X86461193Y-63357672D01*
X86461189Y-63357674D01*
X86461187Y-63357676D01*
X86430917Y-63382188D01*
X86320449Y-63471643D01*
X86199278Y-63606215D01*
X86199273Y-63606221D01*
X86100648Y-63758092D01*
X86026988Y-63923534D01*
X85980119Y-64098450D01*
X85961189Y-64278553D01*
X85961189Y-64278561D01*
X85970666Y-64459397D01*
X85970667Y-64459404D01*
X86008319Y-64636536D01*
X86073213Y-64805595D01*
X86073216Y-64805600D01*
X86313762Y-65222238D01*
X86313765Y-65222242D01*
X86313768Y-65222246D01*
X86427725Y-65362972D01*
X86427726Y-65362974D01*
X86562302Y-65484147D01*
X86562307Y-65484151D01*
X86714181Y-65582778D01*
X86714186Y-65582781D01*
X86775790Y-65610209D01*
X86879618Y-65656437D01*
X86879619Y-65656437D01*
X86879621Y-65656438D01*
X86937925Y-65672060D01*
X87054541Y-65703307D01*
X87234641Y-65722236D01*
X87415486Y-65712759D01*
X87592622Y-65675107D01*
X87761686Y-65610209D01*
X87918516Y-65519663D01*
X88059252Y-65405698D01*
X88180427Y-65271121D01*
X88279058Y-65119243D01*
X88352715Y-64953807D01*
X88399585Y-64778885D01*
X88418514Y-64598785D01*
X88409037Y-64417940D01*
X88381209Y-64287021D01*
X88386525Y-64217354D01*
X88428662Y-64161621D01*
X88494241Y-64137515D01*
X88562443Y-64152692D01*
X88609886Y-64199240D01*
X88755100Y-64450759D01*
X88755105Y-64450767D01*
X88808533Y-64522062D01*
X88808534Y-64522063D01*
X88808535Y-64522064D01*
X88927002Y-64616224D01*
X88975143Y-64636486D01*
X89066479Y-64674929D01*
X89091736Y-64678108D01*
X89216625Y-64693828D01*
X89366300Y-64671517D01*
X89448222Y-64636486D01*
X90562108Y-63993384D01*
X90633407Y-63939953D01*
X90727566Y-63821486D01*
X90786272Y-63682007D01*
X90805170Y-63531863D01*
X90782859Y-63382187D01*
X90747828Y-63300265D01*
X89954726Y-61926573D01*
X89954724Y-61926570D01*
X89901296Y-61855275D01*
X89901295Y-61855274D01*
X89868938Y-61829556D01*
X89782828Y-61761114D01*
X89782826Y-61761113D01*
X89643350Y-61702408D01*
X89493207Y-61683510D01*
X89493203Y-61683510D01*
X89343531Y-61705820D01*
X89343529Y-61705821D01*
X89261616Y-61740848D01*
X89261601Y-61740855D01*
X89136500Y-61813083D01*
X89068600Y-61829556D01*
X89002573Y-61806703D01*
X88959382Y-61751782D01*
X88950500Y-61705696D01*
X88950500Y-61573001D01*
X88950500Y-61572999D01*
X88912712Y-61431971D01*
X88895164Y-61401577D01*
X97749500Y-61401577D01*
X97749500Y-61598422D01*
X97780290Y-61792826D01*
X97841117Y-61980029D01*
X97904566Y-62104554D01*
X97930476Y-62155405D01*
X98046172Y-62314646D01*
X98185354Y-62453828D01*
X98344595Y-62569524D01*
X98385716Y-62590476D01*
X98519970Y-62658882D01*
X98519972Y-62658882D01*
X98519975Y-62658884D01*
X98620317Y-62691487D01*
X98707173Y-62719709D01*
X98901578Y-62750500D01*
X98901583Y-62750500D01*
X99098422Y-62750500D01*
X99292826Y-62719709D01*
X99480025Y-62658884D01*
X99655405Y-62569524D01*
X99814646Y-62453828D01*
X99953828Y-62314646D01*
X100069524Y-62155405D01*
X100158884Y-61980025D01*
X100219709Y-61792826D01*
X100226210Y-61751782D01*
X100250500Y-61598422D01*
X100250500Y-61401577D01*
X100219709Y-61207173D01*
X100158882Y-61019970D01*
X100100810Y-60905997D01*
X100069524Y-60844595D01*
X99953828Y-60685354D01*
X99814646Y-60546172D01*
X99655405Y-60430476D01*
X99480029Y-60341117D01*
X99292826Y-60280290D01*
X99098422Y-60249500D01*
X99098417Y-60249500D01*
X98901583Y-60249500D01*
X98901578Y-60249500D01*
X98707173Y-60280290D01*
X98519970Y-60341117D01*
X98344594Y-60430476D01*
X98253741Y-60496485D01*
X98185354Y-60546172D01*
X98185352Y-60546174D01*
X98185351Y-60546174D01*
X98046174Y-60685351D01*
X98046174Y-60685352D01*
X98046172Y-60685354D01*
X98018069Y-60724034D01*
X97930476Y-60844594D01*
X97841117Y-61019970D01*
X97780290Y-61207173D01*
X97749500Y-61401577D01*
X88895164Y-61401577D01*
X88847803Y-61319544D01*
X88839713Y-61305532D01*
X88839712Y-61305531D01*
X88839711Y-61305529D01*
X88736471Y-61202289D01*
X88736470Y-61202288D01*
X88732140Y-61197958D01*
X88732129Y-61197948D01*
X87938383Y-60404202D01*
X87904898Y-60342879D01*
X87909882Y-60273187D01*
X87951754Y-60217254D01*
X87985111Y-60199479D01*
X87986392Y-60199030D01*
X88021674Y-60186685D01*
X88166185Y-60095883D01*
X88286867Y-59975201D01*
X88359048Y-59860324D01*
X88411381Y-59814034D01*
X88477924Y-59803077D01*
X88500000Y-59805565D01*
X88620351Y-59792004D01*
X88679249Y-59785369D01*
X88679252Y-59785368D01*
X88679255Y-59785368D01*
X88849522Y-59725789D01*
X89002262Y-59629816D01*
X89129816Y-59502262D01*
X89225789Y-59349522D01*
X89228465Y-59341871D01*
X89269185Y-59285096D01*
X89334137Y-59259347D01*
X89345508Y-59258824D01*
X89346451Y-59258824D01*
X89515292Y-59239800D01*
X89515291Y-59239800D01*
X89515301Y-59239799D01*
X89675688Y-59183677D01*
X89675687Y-59183677D01*
X89675691Y-59183676D01*
X89819560Y-59093276D01*
X89819561Y-59093275D01*
X89819566Y-59093272D01*
X89939719Y-58973119D01*
X89939723Y-58973113D01*
X90030123Y-58829244D01*
X90053455Y-58762564D01*
X90094176Y-58705788D01*
X90144517Y-58682270D01*
X90832923Y-58534789D01*
X90839182Y-58533616D01*
X91569685Y-58416144D01*
X91575975Y-58415298D01*
X92311627Y-58335655D01*
X92317928Y-58335137D01*
X93056660Y-58293549D01*
X93063040Y-58293355D01*
X93802955Y-58289925D01*
X93809293Y-58290060D01*
G37*
%TD.AperFunction*%
%TA.AperFunction,Conductor*%
G36*
X90081462Y-76104910D02*
G01*
X90134915Y-76149905D01*
X90155556Y-76216656D01*
X90154042Y-76237827D01*
X90149500Y-76266505D01*
X90149500Y-77475500D01*
X90129815Y-77542539D01*
X90077011Y-77588294D01*
X90025500Y-77599500D01*
X89006580Y-77599500D01*
X88939541Y-77579815D01*
X88931093Y-77573876D01*
X88928283Y-77571720D01*
X88928282Y-77571718D01*
X88802841Y-77475464D01*
X88656762Y-77414956D01*
X88656760Y-77414955D01*
X88500001Y-77394318D01*
X88499999Y-77394318D01*
X88343239Y-77414955D01*
X88343237Y-77414956D01*
X88197160Y-77475463D01*
X88071710Y-77571724D01*
X88069824Y-77573611D01*
X88067842Y-77574692D01*
X88065271Y-77576666D01*
X88064963Y-77576264D01*
X88008499Y-77607092D01*
X87947213Y-77604901D01*
X87907107Y-77593124D01*
X87907101Y-77593123D01*
X87821029Y-77580747D01*
X87612881Y-77580747D01*
X87570548Y-77585580D01*
X87544025Y-77588608D01*
X87544021Y-77588608D01*
X87544020Y-77588609D01*
X87525866Y-77592809D01*
X87489557Y-77601209D01*
X87424237Y-77624392D01*
X87404274Y-77634151D01*
X87349818Y-77646749D01*
X87108225Y-77646749D01*
X87041186Y-77627064D01*
X87020544Y-77610430D01*
X87018706Y-77608592D01*
X87018696Y-77608583D01*
X86967852Y-77567609D01*
X86967848Y-77567606D01*
X86923502Y-77539106D01*
X86923494Y-77539101D01*
X86888737Y-77519838D01*
X86888731Y-77519836D01*
X86868075Y-77514425D01*
X86808213Y-77478394D01*
X86777333Y-77415719D01*
X86775499Y-77394473D01*
X86775499Y-77178500D01*
X86795184Y-77111461D01*
X86847988Y-77065706D01*
X86899499Y-77054500D01*
X88448000Y-77054500D01*
X88448002Y-77054500D01*
X88589029Y-77016712D01*
X88604228Y-77007937D01*
X88715471Y-76943711D01*
X88818711Y-76840471D01*
X88818711Y-76840469D01*
X88828915Y-76830266D01*
X88828918Y-76830261D01*
X89522362Y-76136819D01*
X89583685Y-76103334D01*
X89610043Y-76100500D01*
X89983490Y-76100500D01*
X89993785Y-76098869D01*
X90012169Y-76095957D01*
X90081462Y-76104910D01*
G37*
%TD.AperFunction*%
%TA.AperFunction,Conductor*%
G36*
X95956289Y-69566111D02*
G01*
X96041874Y-69609719D01*
X96041876Y-69609719D01*
X96041878Y-69609720D01*
X96141507Y-69625500D01*
X96141512Y-69625500D01*
X96458490Y-69625500D01*
X96468785Y-69623869D01*
X96487169Y-69620957D01*
X96556462Y-69629910D01*
X96609915Y-69674905D01*
X96630556Y-69741656D01*
X96629042Y-69762827D01*
X96624500Y-69791505D01*
X96624500Y-70108493D01*
X96640279Y-70208123D01*
X96683886Y-70293706D01*
X96696782Y-70362375D01*
X96683886Y-70406294D01*
X96640279Y-70491876D01*
X96624500Y-70591506D01*
X96624500Y-70908493D01*
X96640279Y-71008123D01*
X96683886Y-71093706D01*
X96696782Y-71162375D01*
X96683886Y-71206294D01*
X96640279Y-71291876D01*
X96624500Y-71391506D01*
X96624500Y-71708493D01*
X96640279Y-71808123D01*
X96683886Y-71893706D01*
X96696782Y-71962375D01*
X96683886Y-72006294D01*
X96640279Y-72091876D01*
X96624500Y-72191506D01*
X96624500Y-72508493D01*
X96640279Y-72608123D01*
X96683886Y-72693706D01*
X96696782Y-72762375D01*
X96683886Y-72806294D01*
X96640279Y-72891876D01*
X96624500Y-72991506D01*
X96624500Y-73308493D01*
X96640279Y-73408123D01*
X96683886Y-73493706D01*
X96696782Y-73562375D01*
X96683886Y-73606294D01*
X96640279Y-73691876D01*
X96624500Y-73791506D01*
X96624500Y-74108493D01*
X96640279Y-74208121D01*
X96640280Y-74208124D01*
X96640281Y-74208126D01*
X96683886Y-74293706D01*
X96696782Y-74362373D01*
X96683886Y-74406293D01*
X96635851Y-74500568D01*
X96633381Y-74499309D01*
X96602489Y-74544492D01*
X96538131Y-74571691D01*
X96523993Y-74572500D01*
X94845866Y-74572500D01*
X94778827Y-74552815D01*
X94770380Y-74546876D01*
X94670986Y-74470608D01*
X94524906Y-74410100D01*
X94524904Y-74410099D01*
X94368145Y-74389462D01*
X94368143Y-74389462D01*
X94211383Y-74410099D01*
X94211381Y-74410100D01*
X94065304Y-74470607D01*
X94027899Y-74499309D01*
X93958169Y-74552815D01*
X93939861Y-74566863D01*
X93905583Y-74611535D01*
X93849155Y-74652737D01*
X93779408Y-74656891D01*
X93718489Y-74622678D01*
X93708842Y-74611544D01*
X93678282Y-74571718D01*
X93552841Y-74475464D01*
X93541115Y-74470607D01*
X93406762Y-74414956D01*
X93406760Y-74414955D01*
X93250001Y-74394318D01*
X93249999Y-74394318D01*
X93093239Y-74414955D01*
X93093237Y-74414956D01*
X92947160Y-74475463D01*
X92821715Y-74571720D01*
X92785297Y-74619182D01*
X92728869Y-74660385D01*
X92659123Y-74664539D01*
X92599241Y-74631376D01*
X91912704Y-73944840D01*
X91879219Y-73883517D01*
X91877448Y-73873359D01*
X91863114Y-73764473D01*
X91802606Y-73618394D01*
X91706352Y-73492953D01*
X91580911Y-73396699D01*
X91434832Y-73336191D01*
X91434830Y-73336190D01*
X91278071Y-73315553D01*
X91278069Y-73315553D01*
X91121309Y-73336190D01*
X91121307Y-73336191D01*
X90975230Y-73396698D01*
X90849788Y-73492953D01*
X90753532Y-73618396D01*
X90727730Y-73680687D01*
X90683888Y-73735089D01*
X90617594Y-73757153D01*
X90549895Y-73739873D01*
X90525489Y-73720913D01*
X90412493Y-73607917D01*
X90412491Y-73607915D01*
X90315009Y-73551633D01*
X90308915Y-73550000D01*
X90297063Y-73546824D01*
X90241480Y-73514731D01*
X90203225Y-73476476D01*
X90203221Y-73476473D01*
X90203220Y-73476472D01*
X90083126Y-73415281D01*
X90083124Y-73415280D01*
X90083121Y-73415279D01*
X89983493Y-73399500D01*
X89983488Y-73399500D01*
X88666512Y-73399500D01*
X88666507Y-73399500D01*
X88566878Y-73415279D01*
X88446778Y-73476473D01*
X88446774Y-73476476D01*
X88351476Y-73571774D01*
X88351473Y-73571778D01*
X88290279Y-73691878D01*
X88274500Y-73791506D01*
X88274500Y-74108494D01*
X88284654Y-74172607D01*
X88275699Y-74241900D01*
X88230703Y-74295352D01*
X88224185Y-74299389D01*
X88212238Y-74306286D01*
X88212232Y-74306291D01*
X88156151Y-74362373D01*
X88108995Y-74409529D01*
X88108993Y-74409531D01*
X87853986Y-74664539D01*
X87609344Y-74909181D01*
X87548021Y-74942666D01*
X87521663Y-74945500D01*
X84531043Y-74945500D01*
X84464004Y-74925815D01*
X84443362Y-74909181D01*
X84436818Y-74902637D01*
X84403333Y-74841314D01*
X84400499Y-74814956D01*
X84400499Y-70685043D01*
X84420184Y-70618004D01*
X84436813Y-70597366D01*
X85228105Y-69806074D01*
X85289426Y-69772591D01*
X85359117Y-69777575D01*
X85415051Y-69819447D01*
X85439468Y-69884911D01*
X85435559Y-69925849D01*
X85431500Y-69940996D01*
X85431500Y-71099002D01*
X85446976Y-71156762D01*
X85446977Y-71156762D01*
X85469288Y-71240029D01*
X85469289Y-71240030D01*
X85542286Y-71366466D01*
X85542290Y-71366471D01*
X85652594Y-71476775D01*
X85652600Y-71476780D01*
X85991949Y-71816129D01*
X85991959Y-71816140D01*
X85996289Y-71820470D01*
X85996290Y-71820471D01*
X86099530Y-71923711D01*
X86099532Y-71923712D01*
X86099536Y-71923715D01*
X86193708Y-71978085D01*
X86193709Y-71978085D01*
X86225972Y-71996712D01*
X86366999Y-72034500D01*
X86367000Y-72034500D01*
X86409783Y-72034500D01*
X86450738Y-72041458D01*
X86497181Y-72057710D01*
X86512057Y-72059105D01*
X86526930Y-72060500D01*
X86526934Y-72060500D01*
X86973070Y-72060500D01*
X86986289Y-72059260D01*
X87002819Y-72057710D01*
X87049261Y-72041458D01*
X87090217Y-72034500D01*
X87401663Y-72034500D01*
X87468702Y-72054185D01*
X87489344Y-72070819D01*
X88104654Y-72686129D01*
X88104664Y-72686140D01*
X88108994Y-72690470D01*
X88108995Y-72690471D01*
X88212235Y-72793711D01*
X88338677Y-72866712D01*
X88479704Y-72904501D01*
X88479706Y-72904501D01*
X88633304Y-72904501D01*
X88633320Y-72904500D01*
X90170294Y-72904500D01*
X90170296Y-72904500D01*
X90311323Y-72866712D01*
X90437765Y-72793711D01*
X90541005Y-72690471D01*
X90541005Y-72690469D01*
X90551209Y-72680266D01*
X90551212Y-72680261D01*
X91714716Y-71516758D01*
X91726893Y-71506078D01*
X91828282Y-71428282D01*
X91924536Y-71302841D01*
X91985044Y-71156762D01*
X92005682Y-71000000D01*
X92003315Y-70982023D01*
X91988445Y-70869072D01*
X91985044Y-70843238D01*
X91924536Y-70697159D01*
X91828282Y-70571718D01*
X91702841Y-70475464D01*
X91556762Y-70414956D01*
X91556760Y-70414955D01*
X91400001Y-70394318D01*
X91399999Y-70394318D01*
X91243239Y-70414955D01*
X91243237Y-70414956D01*
X91097160Y-70475463D01*
X90971718Y-70571718D01*
X90875463Y-70697160D01*
X90820918Y-70828844D01*
X90794038Y-70869072D01*
X90574007Y-71089103D01*
X90512684Y-71122588D01*
X90442992Y-71117604D01*
X90387059Y-71075732D01*
X90362642Y-71010268D01*
X90363853Y-70982023D01*
X90375500Y-70908492D01*
X90375500Y-70591506D01*
X90359720Y-70491878D01*
X90359719Y-70491876D01*
X90359719Y-70491874D01*
X90316112Y-70406291D01*
X90303217Y-70337626D01*
X90316111Y-70293710D01*
X90359719Y-70208126D01*
X90375153Y-70110681D01*
X90375500Y-70108493D01*
X90375500Y-69791510D01*
X90370957Y-69762831D01*
X90379910Y-69693537D01*
X90424906Y-69640084D01*
X90491657Y-69619443D01*
X90512826Y-69620956D01*
X90528961Y-69623512D01*
X90541510Y-69625500D01*
X90541512Y-69625500D01*
X90858493Y-69625500D01*
X90958121Y-69609720D01*
X90958121Y-69609719D01*
X90958126Y-69609719D01*
X91043708Y-69566112D01*
X91112374Y-69553217D01*
X91156289Y-69566111D01*
X91241874Y-69609719D01*
X91241876Y-69609719D01*
X91241878Y-69609720D01*
X91341507Y-69625500D01*
X91341512Y-69625500D01*
X91658493Y-69625500D01*
X91758121Y-69609720D01*
X91758121Y-69609719D01*
X91758126Y-69609719D01*
X91843708Y-69566112D01*
X91912374Y-69553217D01*
X91956289Y-69566111D01*
X92041874Y-69609719D01*
X92041876Y-69609719D01*
X92041878Y-69609720D01*
X92141507Y-69625500D01*
X92141512Y-69625500D01*
X92458493Y-69625500D01*
X92558121Y-69609720D01*
X92558121Y-69609719D01*
X92558126Y-69609719D01*
X92643708Y-69566112D01*
X92712374Y-69553217D01*
X92756289Y-69566111D01*
X92841874Y-69609719D01*
X92841876Y-69609719D01*
X92841878Y-69609720D01*
X92941507Y-69625500D01*
X92941512Y-69625500D01*
X93258493Y-69625500D01*
X93358121Y-69609720D01*
X93358121Y-69609719D01*
X93358126Y-69609719D01*
X93443708Y-69566112D01*
X93512374Y-69553217D01*
X93556289Y-69566111D01*
X93641874Y-69609719D01*
X93641876Y-69609719D01*
X93641878Y-69609720D01*
X93741507Y-69625500D01*
X93741512Y-69625500D01*
X94058493Y-69625500D01*
X94158121Y-69609720D01*
X94158121Y-69609719D01*
X94158126Y-69609719D01*
X94243708Y-69566112D01*
X94312374Y-69553217D01*
X94356289Y-69566111D01*
X94441874Y-69609719D01*
X94441876Y-69609719D01*
X94441878Y-69609720D01*
X94541507Y-69625500D01*
X94541512Y-69625500D01*
X94858493Y-69625500D01*
X94958121Y-69609720D01*
X94958121Y-69609719D01*
X94958126Y-69609719D01*
X95043708Y-69566112D01*
X95112374Y-69553217D01*
X95156289Y-69566111D01*
X95241874Y-69609719D01*
X95241876Y-69609719D01*
X95241878Y-69609720D01*
X95341507Y-69625500D01*
X95341512Y-69625500D01*
X95658493Y-69625500D01*
X95758121Y-69609720D01*
X95758121Y-69609719D01*
X95758126Y-69609719D01*
X95843708Y-69566112D01*
X95912374Y-69553217D01*
X95956289Y-69566111D01*
G37*
%TD.AperFunction*%
%TA.AperFunction,Conductor*%
G36*
X101985601Y-67947185D02*
G01*
X102031356Y-67999989D01*
X102041300Y-68069147D01*
X102012275Y-68132703D01*
X102006243Y-68139181D01*
X101609243Y-68536181D01*
X101547920Y-68569666D01*
X101521562Y-68572500D01*
X99443719Y-68572500D01*
X99334989Y-68601633D01*
X99237509Y-68657915D01*
X99237506Y-68657917D01*
X98518389Y-69377033D01*
X98457066Y-69410518D01*
X98411310Y-69411825D01*
X98333493Y-69399500D01*
X98333488Y-69399500D01*
X97016512Y-69399500D01*
X97016505Y-69399500D01*
X96987827Y-69404042D01*
X96918534Y-69395087D01*
X96865082Y-69350090D01*
X96844443Y-69283339D01*
X96845957Y-69262171D01*
X96850500Y-69233488D01*
X96850500Y-68051500D01*
X96870185Y-67984461D01*
X96922989Y-67938706D01*
X96974500Y-67927500D01*
X101918562Y-67927500D01*
X101985601Y-67947185D01*
G37*
%TD.AperFunction*%
%TA.AperFunction,Conductor*%
G36*
X105755701Y-65087008D02*
G01*
X105780639Y-65116611D01*
X105929446Y-65362972D01*
X106062214Y-65582779D01*
X106067330Y-65591248D01*
X106070492Y-65596802D01*
X106143048Y-65732253D01*
X106419858Y-66249019D01*
X106422732Y-66254735D01*
X106737971Y-66924056D01*
X106740547Y-66929913D01*
X106828538Y-67144854D01*
X106835720Y-67214353D01*
X106804186Y-67276703D01*
X106743950Y-67312106D01*
X106711548Y-67315812D01*
X104377918Y-67273764D01*
X104311244Y-67252875D01*
X104266448Y-67199255D01*
X104257752Y-67129929D01*
X104287917Y-67066906D01*
X104292452Y-67062122D01*
X104527139Y-66827435D01*
X104588460Y-66793952D01*
X104628701Y-66791898D01*
X104646931Y-66793952D01*
X104749997Y-66805565D01*
X104750000Y-66805565D01*
X104750004Y-66805565D01*
X104929249Y-66785369D01*
X104929252Y-66785368D01*
X104929255Y-66785368D01*
X105099522Y-66725789D01*
X105252262Y-66629816D01*
X105379816Y-66502262D01*
X105475789Y-66349522D01*
X105535368Y-66179255D01*
X105537234Y-66162697D01*
X105555565Y-66000003D01*
X105555565Y-65999996D01*
X105535369Y-65820750D01*
X105535368Y-65820745D01*
X105497582Y-65712758D01*
X105475789Y-65650478D01*
X105453226Y-65614570D01*
X105443006Y-65598304D01*
X105424006Y-65531068D01*
X105444374Y-65464232D01*
X105460319Y-65444651D01*
X105467801Y-65437169D01*
X105502206Y-65402764D01*
X105547585Y-65299990D01*
X105550500Y-65274864D01*
X105550499Y-65180720D01*
X105570183Y-65113684D01*
X105622986Y-65067928D01*
X105692145Y-65057984D01*
X105755701Y-65087008D01*
G37*
%TD.AperFunction*%
%TA.AperFunction,Conductor*%
G36*
X86261880Y-52827386D02*
G01*
X86280409Y-52851640D01*
X89075223Y-57632700D01*
X89078538Y-57638370D01*
X89095377Y-57706180D01*
X89072881Y-57772330D01*
X89022892Y-57812079D01*
X89023481Y-57813301D01*
X89017210Y-57816320D01*
X88873327Y-57906728D01*
X88753175Y-58026880D01*
X88753173Y-58026883D01*
X88679567Y-58144025D01*
X88627232Y-58190316D01*
X88560692Y-58201272D01*
X88500000Y-58194435D01*
X88499998Y-58194435D01*
X88499996Y-58194435D01*
X88320750Y-58214630D01*
X88320745Y-58214631D01*
X88150476Y-58274211D01*
X87997737Y-58370184D01*
X87870184Y-58497737D01*
X87774212Y-58650475D01*
X87774211Y-58650478D01*
X87771536Y-58658122D01*
X87730812Y-58714897D01*
X87668380Y-58740383D01*
X87521392Y-58756944D01*
X87360294Y-58813314D01*
X87215782Y-58904117D01*
X87095101Y-59024798D01*
X87004298Y-59169310D01*
X86995733Y-59193787D01*
X86955010Y-59250562D01*
X86890056Y-59276308D01*
X86821495Y-59262850D01*
X86791011Y-59240511D01*
X86752790Y-59202290D01*
X86752785Y-59202286D01*
X86728314Y-59188158D01*
X86702633Y-59168452D01*
X86423742Y-58889561D01*
X86390257Y-58828238D01*
X86387423Y-58801880D01*
X86387423Y-58316415D01*
X86407108Y-58249376D01*
X86449422Y-58209028D01*
X87040116Y-57867992D01*
X87111415Y-57814561D01*
X87205574Y-57696094D01*
X87264280Y-57556615D01*
X87283178Y-57406471D01*
X87260867Y-57256795D01*
X87225836Y-57174873D01*
X86432734Y-55801181D01*
X86379303Y-55729882D01*
X86260836Y-55635722D01*
X86260834Y-55635721D01*
X86121358Y-55577016D01*
X85971215Y-55558118D01*
X85971211Y-55558118D01*
X85821539Y-55580428D01*
X85821537Y-55580429D01*
X85739624Y-55615456D01*
X85739610Y-55615463D01*
X84625735Y-56258558D01*
X84625727Y-56258563D01*
X84554432Y-56311991D01*
X84554431Y-56311992D01*
X84460271Y-56430461D01*
X84401565Y-56569938D01*
X84382668Y-56720077D01*
X84382668Y-56720081D01*
X84404978Y-56869757D01*
X84404979Y-56869759D01*
X84440006Y-56951672D01*
X84440013Y-56951687D01*
X84585226Y-57203203D01*
X84601699Y-57271103D01*
X84578846Y-57337130D01*
X84523925Y-57380321D01*
X84454372Y-57386962D01*
X84394866Y-57357352D01*
X84295410Y-57267800D01*
X84295404Y-57267795D01*
X84143533Y-57169170D01*
X83978091Y-57095510D01*
X83978092Y-57095510D01*
X83803175Y-57048641D01*
X83803174Y-57048640D01*
X83803171Y-57048640D01*
X83623071Y-57029711D01*
X83623068Y-57029711D01*
X83442228Y-57039188D01*
X83442221Y-57039189D01*
X83265089Y-57076841D01*
X83096029Y-57141736D01*
X82939201Y-57232280D01*
X82939197Y-57232282D01*
X82939195Y-57232284D01*
X82891258Y-57271103D01*
X82798457Y-57346251D01*
X82677286Y-57480823D01*
X82677281Y-57480829D01*
X82578656Y-57632700D01*
X82504996Y-57798142D01*
X82474883Y-57910526D01*
X82458126Y-57973063D01*
X82452426Y-58027300D01*
X82439197Y-58153161D01*
X82439197Y-58153169D01*
X82448674Y-58334005D01*
X82448675Y-58334012D01*
X82486327Y-58511144D01*
X82551221Y-58680203D01*
X82551226Y-58680212D01*
X82647887Y-58847633D01*
X82791770Y-59096846D01*
X82791773Y-59096850D01*
X82791776Y-59096854D01*
X82871767Y-59195635D01*
X82905735Y-59237582D01*
X83040313Y-59358757D01*
X83056895Y-59369525D01*
X83102398Y-59422545D01*
X83113360Y-59473520D01*
X83113360Y-59490861D01*
X83150593Y-59629815D01*
X83151148Y-59631888D01*
X83151149Y-59631891D01*
X83224146Y-59758327D01*
X83224148Y-59758330D01*
X83224149Y-59758331D01*
X83327389Y-59861571D01*
X83453831Y-59934572D01*
X83594859Y-59972360D01*
X83740861Y-59972360D01*
X83770499Y-59972360D01*
X83837538Y-59992045D01*
X83858180Y-60008679D01*
X84286197Y-60436696D01*
X84319682Y-60498019D01*
X84314698Y-60567711D01*
X84272826Y-60623644D01*
X84256142Y-60634173D01*
X84123118Y-60703989D01*
X84123116Y-60703991D01*
X83997786Y-60815024D01*
X83996001Y-60813009D01*
X83947554Y-60843387D01*
X83927831Y-60847248D01*
X83781943Y-60863685D01*
X83622305Y-60919545D01*
X83622302Y-60919547D01*
X83479115Y-61009518D01*
X83479109Y-61009523D01*
X83359525Y-61129107D01*
X83359519Y-61129114D01*
X83321437Y-61189720D01*
X83269102Y-61236010D01*
X83230329Y-61246966D01*
X83081944Y-61263685D01*
X82922305Y-61319545D01*
X82922302Y-61319547D01*
X82779112Y-61409520D01*
X82779108Y-61409523D01*
X82775918Y-61412714D01*
X82714593Y-61446195D01*
X82644901Y-61441206D01*
X82588970Y-61399331D01*
X82581065Y-61387390D01*
X82136665Y-60623644D01*
X79792246Y-56594520D01*
X79775545Y-56526678D01*
X79798174Y-56460574D01*
X79819619Y-56437252D01*
X80061062Y-56234246D01*
X80064757Y-56231262D01*
X80720597Y-55722211D01*
X80724423Y-55719359D01*
X81399674Y-55236311D01*
X81403633Y-55233594D01*
X82097199Y-54777331D01*
X82101295Y-54774750D01*
X82296640Y-54656913D01*
X82812191Y-54345919D01*
X82816325Y-54343535D01*
X83543453Y-53942800D01*
X83547629Y-53940604D01*
X84289898Y-53568570D01*
X84294180Y-53566528D01*
X85050398Y-53223795D01*
X85054767Y-53221916D01*
X85823799Y-52908995D01*
X85828252Y-52907284D01*
X86131150Y-52797623D01*
X86200883Y-52793311D01*
X86261880Y-52827386D01*
G37*
%TD.AperFunction*%
%TD*%
%TA.AperFunction,Conductor*%
%TO.N,+12V*%
G36*
X107018582Y-67726911D02*
G01*
X107085255Y-67747800D01*
X107116937Y-67778382D01*
X107122508Y-67786111D01*
X107122512Y-67786115D01*
X107149116Y-67807824D01*
X107158392Y-67816207D01*
X107182685Y-67840500D01*
X107196164Y-67848282D01*
X107212558Y-67859594D01*
X107224616Y-67869434D01*
X107255932Y-67883518D01*
X107267058Y-67889213D01*
X107296813Y-67906392D01*
X107311843Y-67910419D01*
X107330608Y-67917103D01*
X107344804Y-67923488D01*
X107378712Y-67928989D01*
X107390923Y-67931608D01*
X107424107Y-67940500D01*
X107439664Y-67940500D01*
X107459520Y-67942099D01*
X107474887Y-67944593D01*
X107509060Y-67941130D01*
X107521557Y-67940500D01*
X113664961Y-67940500D01*
X113732000Y-67960185D01*
X113777755Y-68012989D01*
X113788961Y-68064607D01*
X113784379Y-73378718D01*
X113764637Y-73445740D01*
X113711793Y-73491450D01*
X113662718Y-73502589D01*
X100687945Y-73747397D01*
X100620546Y-73728981D01*
X100573803Y-73677049D01*
X100562082Y-73612562D01*
X100842243Y-70425733D01*
X100867721Y-70360681D01*
X100895330Y-70334544D01*
X100900836Y-70330742D01*
X100900852Y-70330734D01*
X101028183Y-70217929D01*
X101124818Y-70077930D01*
X101185140Y-69918872D01*
X101205645Y-69750000D01*
X101195500Y-69666446D01*
X101206961Y-69597523D01*
X101253865Y-69545737D01*
X101318596Y-69527500D01*
X101819445Y-69527500D01*
X101819446Y-69527500D01*
X101819447Y-69527500D01*
X101886527Y-69509526D01*
X101953608Y-69491552D01*
X102013750Y-69456828D01*
X102073893Y-69422105D01*
X102172105Y-69323893D01*
X102172105Y-69323891D01*
X102182309Y-69313688D01*
X102182312Y-69313683D01*
X103789353Y-67706643D01*
X103850673Y-67673160D01*
X103879255Y-67670346D01*
X107018582Y-67726911D01*
G37*
%TD.AperFunction*%
%TD*%
M02*
