%TF.GenerationSoftware,KiCad,Pcbnew,8.0.4*%
%TF.CreationDate,2024-10-21T16:59:15+03:00*%
%TF.ProjectId,PowerServo AE 36V 3.6A 30D,506f7765-7253-4657-9276-6f2041452033,rev?*%
%TF.SameCoordinates,Original*%
%TF.FileFunction,Copper,L3,Inr*%
%TF.FilePolarity,Positive*%
%FSLAX46Y46*%
G04 Gerber Fmt 4.6, Leading zero omitted, Abs format (unit mm)*
G04 Created by KiCad (PCBNEW 8.0.4) date 2024-10-21 16:59:15*
%MOMM*%
%LPD*%
G01*
G04 APERTURE LIST*
G04 Aperture macros list*
%AMRoundRect*
0 Rectangle with rounded corners*
0 $1 Rounding radius*
0 $2 $3 $4 $5 $6 $7 $8 $9 X,Y pos of 4 corners*
0 Add a 4 corners polygon primitive as box body*
4,1,4,$2,$3,$4,$5,$6,$7,$8,$9,$2,$3,0*
0 Add four circle primitives for the rounded corners*
1,1,$1+$1,$2,$3*
1,1,$1+$1,$4,$5*
1,1,$1+$1,$6,$7*
1,1,$1+$1,$8,$9*
0 Add four rect primitives between the rounded corners*
20,1,$1+$1,$2,$3,$4,$5,0*
20,1,$1+$1,$4,$5,$6,$7,0*
20,1,$1+$1,$6,$7,$8,$9,0*
20,1,$1+$1,$8,$9,$2,$3,0*%
%AMHorizOval*
0 Thick line with rounded ends*
0 $1 width*
0 $2 $3 position (X,Y) of the first rounded end (center of the circle)*
0 $4 $5 position (X,Y) of the second rounded end (center of the circle)*
0 Add line between two ends*
20,1,$1,$2,$3,$4,$5,0*
0 Add two circle primitives to create the rounded ends*
1,1,$1,$2,$3*
1,1,$1,$4,$5*%
G04 Aperture macros list end*
%TA.AperFunction,ComponentPad*%
%ADD10RoundRect,0.250000X-1.125000X-1.125000X1.125000X-1.125000X1.125000X1.125000X-1.125000X1.125000X0*%
%TD*%
%TA.AperFunction,ComponentPad*%
%ADD11R,3.000000X3.000000*%
%TD*%
%TA.AperFunction,ComponentPad*%
%ADD12C,3.000000*%
%TD*%
%TA.AperFunction,ComponentPad*%
%ADD13RoundRect,0.250000X0.144615X0.949519X-0.894615X0.349519X-0.144615X-0.949519X0.894615X-0.349519X0*%
%TD*%
%TA.AperFunction,ComponentPad*%
%ADD14HorizOval,1.700000X-0.075000X0.129904X0.075000X-0.129904X0*%
%TD*%
%TA.AperFunction,ComponentPad*%
%ADD15R,1.000000X1.000000*%
%TD*%
%TA.AperFunction,ComponentPad*%
%ADD16O,1.000000X1.000000*%
%TD*%
%TA.AperFunction,HeatsinkPad*%
%ADD17C,0.500000*%
%TD*%
%TA.AperFunction,ViaPad*%
%ADD18C,0.600000*%
%TD*%
%TA.AperFunction,ViaPad*%
%ADD19C,0.900000*%
%TD*%
G04 APERTURE END LIST*
D10*
%TO.N,Net-(IC1-OUT1)*%
%TO.C,J2*%
X89250000Y-81150000D03*
%TD*%
D11*
%TO.N,GND*%
%TO.C,J5*%
X110999999Y-75750000D03*
D12*
%TO.N,+12V*%
X110999999Y-70750000D03*
%TD*%
D13*
%TO.N,CAN_H*%
%TO.C,J6*%
X85832923Y-57063277D03*
D14*
%TO.N,CAN_L*%
X83667860Y-58313278D03*
%TD*%
D10*
%TO.N,Net-(IC1-OUT2)*%
%TO.C,J7*%
X84950000Y-80450000D03*
%TD*%
D13*
%TO.N,CAN_H*%
%TO.C,J1*%
X89354915Y-63188669D03*
D14*
%TO.N,CAN_L*%
X87189852Y-64438670D03*
%TD*%
D11*
%TO.N,GND*%
%TO.C,J4*%
X104000000Y-75750000D03*
D12*
%TO.N,+12V*%
X104000000Y-70750000D03*
%TD*%
D15*
%TO.N,+3V3*%
%TO.C,J3*%
X104750000Y-64729999D03*
D16*
%TO.N,SWDIO*%
X104750000Y-66000000D03*
%TO.N,GND*%
X103479999Y-64729999D03*
%TO.N,SWCLK*%
X103480002Y-65999998D03*
%TO.N,GND*%
X102209996Y-64729996D03*
%TO.N,NRST*%
X102210000Y-66000000D03*
%TD*%
D17*
%TO.N,GND*%
%TO.C,U2*%
X95612500Y-84200002D03*
X95612500Y-85300000D03*
%TD*%
%TO.N,GND*%
%TO.C,U1*%
X103425003Y-80250000D03*
X103425001Y-81280000D03*
X103425001Y-79219999D03*
%TD*%
D18*
%TO.N,GND*%
X80350000Y-68450000D03*
X84350000Y-66050000D03*
X82750000Y-66850000D03*
X83550000Y-54850000D03*
X82750000Y-56450000D03*
X101950000Y-62050000D03*
X86750000Y-72750000D03*
X94750000Y-60450000D03*
X102750000Y-62850000D03*
X81950000Y-65250000D03*
X81000000Y-75000000D03*
X102750000Y-82850000D03*
X93500000Y-72750000D03*
X81950000Y-57250000D03*
X93750000Y-83000000D03*
X85250000Y-73250000D03*
X81500000Y-71000000D03*
X80500000Y-74500000D03*
X95600000Y-70200000D03*
X83550000Y-66050000D03*
X84350000Y-55650000D03*
X93950000Y-59650000D03*
X85150000Y-54050000D03*
X92350000Y-86050000D03*
X84350000Y-63650000D03*
X93150000Y-59650000D03*
X81150000Y-56450000D03*
X85950000Y-66050000D03*
X84750000Y-71750000D03*
X85800000Y-84600000D03*
X81150000Y-57250000D03*
X82750000Y-66050000D03*
X88875000Y-68625000D03*
X91000000Y-84000000D03*
X106400000Y-67000000D03*
X80000000Y-75000000D03*
D19*
X108000000Y-77000000D03*
D18*
X92500000Y-82750000D03*
X91550000Y-86050000D03*
X81950000Y-58850000D03*
X93000000Y-72250000D03*
X91550000Y-59650000D03*
X98513712Y-65873000D03*
X84350000Y-64450000D03*
X94750000Y-59650000D03*
X93000000Y-73250000D03*
X86750000Y-54850000D03*
X93600000Y-70200000D03*
X83550000Y-55650000D03*
X101950000Y-83650000D03*
X87550000Y-56450000D03*
X92350000Y-59650000D03*
X98750000Y-85250000D03*
X89950000Y-86050000D03*
X113150000Y-75650000D03*
X88025000Y-77350000D03*
X93950000Y-60450000D03*
X81950000Y-67650000D03*
X80800000Y-79200000D03*
D19*
X108000000Y-75750000D03*
D18*
X105250000Y-78250000D03*
X86750000Y-73750000D03*
X93150000Y-86050000D03*
X101150000Y-62850000D03*
X84350000Y-66850000D03*
X89150000Y-60450000D03*
X84350000Y-54850000D03*
X84750000Y-72750000D03*
X85750000Y-73750000D03*
X81500000Y-74500000D03*
X84600000Y-83800000D03*
X83550000Y-64450000D03*
X95550000Y-59650000D03*
X81950000Y-56450000D03*
X82750000Y-55650000D03*
X81950000Y-58050000D03*
X103550000Y-78050000D03*
X95750000Y-78250000D03*
X95550000Y-60450000D03*
X95550000Y-61250000D03*
X97150000Y-61250000D03*
X102750000Y-78050000D03*
X80000000Y-71000000D03*
X101150000Y-61250000D03*
X81150000Y-68450000D03*
X85750000Y-72750000D03*
X85150000Y-64450000D03*
X85150000Y-66850000D03*
X97150000Y-62050000D03*
X85150000Y-66050000D03*
X87550000Y-85250000D03*
X94750000Y-61250000D03*
X97150000Y-60450000D03*
X97916644Y-64566644D03*
X89950000Y-60450000D03*
X113150000Y-77250000D03*
X85950000Y-54850000D03*
X101950000Y-78050000D03*
X90750000Y-60450000D03*
X96350000Y-60450000D03*
X90750000Y-59650000D03*
X86250000Y-72250000D03*
X113150000Y-74850000D03*
X85250000Y-72250000D03*
X101950000Y-62850000D03*
X82750000Y-67650000D03*
X96350000Y-61250000D03*
X80500000Y-75500000D03*
X91600000Y-70000000D03*
X86750000Y-66050000D03*
X96350000Y-59650000D03*
X82750000Y-65250000D03*
X101150000Y-62050000D03*
X81950000Y-68450000D03*
X81950000Y-66850000D03*
X101950000Y-82850000D03*
X86250000Y-73250000D03*
X113150000Y-76450000D03*
X81950000Y-55650000D03*
X97950000Y-59650000D03*
X85150000Y-62850000D03*
X97210000Y-69170000D03*
X94000000Y-72250000D03*
X80350000Y-69250000D03*
X84350000Y-65250000D03*
X81150000Y-66850000D03*
X94600000Y-70200000D03*
X83550000Y-65250000D03*
X83550000Y-63650000D03*
X90750000Y-86050000D03*
X97150000Y-59650000D03*
X87250000Y-72250000D03*
X101681644Y-68181644D03*
X81150000Y-67650000D03*
X85950000Y-54050000D03*
D19*
X108000000Y-74600003D03*
D18*
X82750000Y-60450000D03*
X83550000Y-66850000D03*
X81150000Y-69250000D03*
X87250000Y-73250000D03*
X82750000Y-64450000D03*
D19*
X108000000Y-78250000D03*
D18*
X94000000Y-73250000D03*
X100525000Y-79200000D03*
X83550000Y-56450000D03*
X81950000Y-66050000D03*
X89750000Y-66500000D03*
X85150000Y-65250000D03*
X85150000Y-54850000D03*
X91250000Y-65500000D03*
X85150000Y-63650000D03*
X84750000Y-73750000D03*
%TO.N,+3V3*%
X86841562Y-67961430D03*
X91400000Y-71000000D03*
X92805971Y-65336318D03*
D19*
%TO.N,+12V*%
X108000000Y-72250000D03*
X108000000Y-73500000D03*
X108000000Y-68500000D03*
X108000000Y-71000000D03*
X108000000Y-69750000D03*
D18*
%TO.N,RP_RX*%
X95580000Y-75650000D03*
%TO.N,RP_TX*%
X99439193Y-69969597D03*
%TO.N,ISEN*%
X88500000Y-78000000D03*
X85350000Y-77254000D03*
%TO.N,Net-(IC1-OUT2)*%
X83000000Y-78200000D03*
X85000000Y-78200000D03*
X84000000Y-78200000D03*
X83000000Y-77200000D03*
%TO.N,Net-(IC1-OUT1)*%
X86450000Y-78300000D03*
X88600000Y-78800000D03*
X87800000Y-78600000D03*
X87000000Y-78800000D03*
X87225000Y-78300000D03*
X87000000Y-79800000D03*
%TO.N,MOSI*%
X91518759Y-75675000D03*
%TO.N,+5V*%
X99775000Y-80950000D03*
X100500000Y-69750000D03*
%TO.N,CAN_SILENT*%
X95000000Y-67250000D03*
%TO.N,NRST*%
X90904168Y-66494139D03*
X90800000Y-74600000D03*
%TO.N,DRV_IN2*%
X85325000Y-68925000D03*
%TO.N,MISO*%
X93250000Y-75000000D03*
%TO.N,MAG_CS*%
X94368144Y-74995144D03*
%TO.N,SCK*%
X91278070Y-73921235D03*
%TO.N,DRV_IN1*%
X86250000Y-68500000D03*
%TD*%
%TA.AperFunction,Conductor*%
%TO.N,GND*%
G36*
X86261880Y-52827386D02*
G01*
X86280409Y-52851640D01*
X89075223Y-57632700D01*
X89078538Y-57638370D01*
X89095377Y-57706180D01*
X89072881Y-57772330D01*
X89022892Y-57812079D01*
X89023481Y-57813301D01*
X89017210Y-57816320D01*
X88873327Y-57906728D01*
X88753175Y-58026880D01*
X88753173Y-58026883D01*
X88679567Y-58144025D01*
X88627232Y-58190316D01*
X88560692Y-58201272D01*
X88500000Y-58194435D01*
X88499998Y-58194435D01*
X88499996Y-58194435D01*
X88320750Y-58214630D01*
X88320745Y-58214631D01*
X88150476Y-58274211D01*
X87997737Y-58370184D01*
X87870184Y-58497737D01*
X87788734Y-58627365D01*
X87736399Y-58673656D01*
X87697624Y-58684613D01*
X87509715Y-58705785D01*
X87337529Y-58766035D01*
X87337527Y-58766036D01*
X87183065Y-58863090D01*
X87054074Y-58992081D01*
X86957020Y-59146543D01*
X86957019Y-59146545D01*
X86896769Y-59318731D01*
X86876346Y-59499997D01*
X86876346Y-59500002D01*
X86896769Y-59681268D01*
X86957019Y-59853454D01*
X86957020Y-59853456D01*
X86957021Y-59853458D01*
X87054074Y-60007918D01*
X87183066Y-60136910D01*
X87337526Y-60233963D01*
X87509710Y-60294213D01*
X87509713Y-60294213D01*
X87509715Y-60294214D01*
X87690981Y-60314638D01*
X87690984Y-60314638D01*
X87690987Y-60314638D01*
X87872252Y-60294214D01*
X87872253Y-60294213D01*
X87872258Y-60294213D01*
X88044442Y-60233963D01*
X88198902Y-60136910D01*
X88327894Y-60007918D01*
X88419844Y-59861578D01*
X88472177Y-59815288D01*
X88510954Y-59804331D01*
X88679249Y-59785369D01*
X88679252Y-59785368D01*
X88679255Y-59785368D01*
X88849522Y-59725789D01*
X89002262Y-59629816D01*
X89129816Y-59502262D01*
X89225789Y-59349522D01*
X89228465Y-59341871D01*
X89269185Y-59285096D01*
X89334137Y-59259347D01*
X89345508Y-59258824D01*
X89346451Y-59258824D01*
X89515292Y-59239800D01*
X89515291Y-59239800D01*
X89515301Y-59239799D01*
X89675688Y-59183677D01*
X89675687Y-59183677D01*
X89675691Y-59183676D01*
X89819560Y-59093276D01*
X89819561Y-59093275D01*
X89819566Y-59093272D01*
X89939719Y-58973119D01*
X89939723Y-58973113D01*
X90030123Y-58829244D01*
X90052240Y-58766036D01*
X90053455Y-58762563D01*
X90094176Y-58705788D01*
X90144517Y-58682270D01*
X90832923Y-58534789D01*
X90839182Y-58533616D01*
X91569685Y-58416144D01*
X91575975Y-58415298D01*
X92311627Y-58335655D01*
X92317928Y-58335137D01*
X93056660Y-58293549D01*
X93063040Y-58293355D01*
X93802955Y-58289925D01*
X93809293Y-58290060D01*
X94548383Y-58324799D01*
X94554720Y-58325261D01*
X95291047Y-58398077D01*
X95297356Y-58398866D01*
X95905136Y-58490832D01*
X96028911Y-58509561D01*
X96035210Y-58510681D01*
X96141036Y-58532328D01*
X96760085Y-58658961D01*
X96766271Y-58660393D01*
X97482567Y-58845875D01*
X97488681Y-58847628D01*
X98194444Y-59069806D01*
X98200447Y-59071867D01*
X98893818Y-59330154D01*
X98899743Y-59332538D01*
X99578814Y-59626223D01*
X99584618Y-59628913D01*
X100247655Y-59957242D01*
X100253305Y-59960223D01*
X100898540Y-60322324D01*
X100904003Y-60325578D01*
X101289490Y-60568872D01*
X101529705Y-60720480D01*
X101535026Y-60724034D01*
X101599181Y-60769314D01*
X102108953Y-61129107D01*
X102139498Y-61150665D01*
X102144623Y-61154484D01*
X102262270Y-61246966D01*
X102726287Y-61611727D01*
X102731213Y-61615809D01*
X103288522Y-62102449D01*
X103293231Y-62106780D01*
X103824695Y-62621517D01*
X103829170Y-62626080D01*
X104333385Y-63167553D01*
X104337614Y-63172337D01*
X104802060Y-63725789D01*
X104830076Y-63789796D01*
X104819039Y-63858788D01*
X104772455Y-63910862D01*
X104707074Y-63929499D01*
X104205143Y-63929499D01*
X104205117Y-63929501D01*
X104180012Y-63932412D01*
X104180008Y-63932414D01*
X104077235Y-63977792D01*
X103997794Y-64057233D01*
X103952415Y-64160005D01*
X103952415Y-64160007D01*
X103949500Y-64185130D01*
X103949500Y-65141428D01*
X103929815Y-65208467D01*
X103877011Y-65254222D01*
X103807853Y-65264166D01*
X103784546Y-65258470D01*
X103659259Y-65214630D01*
X103659251Y-65214628D01*
X103480006Y-65194433D01*
X103479998Y-65194433D01*
X103300752Y-65214628D01*
X103300747Y-65214629D01*
X103130478Y-65274209D01*
X102977739Y-65370182D01*
X102977738Y-65370183D01*
X102932678Y-65415242D01*
X102871355Y-65448726D01*
X102801663Y-65443740D01*
X102757318Y-65415240D01*
X102712262Y-65370184D01*
X102559523Y-65274211D01*
X102389254Y-65214631D01*
X102389249Y-65214630D01*
X102210004Y-65194435D01*
X102209996Y-65194435D01*
X102030750Y-65214630D01*
X102030745Y-65214631D01*
X101860476Y-65274211D01*
X101707737Y-65370184D01*
X101580184Y-65497737D01*
X101484211Y-65650476D01*
X101424631Y-65820745D01*
X101424630Y-65820750D01*
X101404435Y-65999996D01*
X101404435Y-66000003D01*
X101424630Y-66179249D01*
X101424631Y-66179254D01*
X101484211Y-66349523D01*
X101574998Y-66494009D01*
X101580184Y-66502262D01*
X101707738Y-66629816D01*
X101763663Y-66664956D01*
X101860474Y-66725787D01*
X101860478Y-66725789D01*
X102030739Y-66785366D01*
X102030745Y-66785368D01*
X102030750Y-66785369D01*
X102209996Y-66805565D01*
X102210000Y-66805565D01*
X102210004Y-66805565D01*
X102389249Y-66785369D01*
X102389252Y-66785368D01*
X102389255Y-66785368D01*
X102559522Y-66725789D01*
X102712262Y-66629816D01*
X102757321Y-66584757D01*
X102818644Y-66551272D01*
X102888336Y-66556256D01*
X102932683Y-66584757D01*
X102977740Y-66629814D01*
X103130480Y-66725787D01*
X103300747Y-66785366D01*
X103300752Y-66785367D01*
X103479998Y-66805563D01*
X103480002Y-66805563D01*
X103480006Y-66805563D01*
X103659251Y-66785367D01*
X103659254Y-66785366D01*
X103659257Y-66785366D01*
X103829524Y-66725787D01*
X103982264Y-66629814D01*
X104027319Y-66584758D01*
X104088640Y-66551274D01*
X104158331Y-66556258D01*
X104202679Y-66584758D01*
X104247735Y-66629813D01*
X104247738Y-66629816D01*
X104303663Y-66664956D01*
X104400474Y-66725787D01*
X104400478Y-66725789D01*
X104570739Y-66785366D01*
X104570745Y-66785368D01*
X104570750Y-66785369D01*
X104749996Y-66805565D01*
X104750000Y-66805565D01*
X104750004Y-66805565D01*
X104929249Y-66785369D01*
X104929252Y-66785368D01*
X104929255Y-66785368D01*
X105099522Y-66725789D01*
X105252262Y-66629816D01*
X105379816Y-66502262D01*
X105475789Y-66349522D01*
X105535368Y-66179255D01*
X105555565Y-66000000D01*
X105552140Y-65969603D01*
X105535369Y-65820750D01*
X105535368Y-65820745D01*
X105497582Y-65712758D01*
X105475789Y-65650478D01*
X105450484Y-65610206D01*
X105443006Y-65598304D01*
X105424006Y-65531068D01*
X105444374Y-65464232D01*
X105460319Y-65444651D01*
X105461230Y-65443740D01*
X105502206Y-65402764D01*
X105547585Y-65299990D01*
X105550500Y-65274864D01*
X105550499Y-65180720D01*
X105570183Y-65113684D01*
X105622986Y-65067928D01*
X105692145Y-65057984D01*
X105755701Y-65087008D01*
X105780639Y-65116611D01*
X105929446Y-65362972D01*
X106062214Y-65582779D01*
X106067330Y-65591248D01*
X106070492Y-65596802D01*
X106143048Y-65732253D01*
X106419858Y-66249019D01*
X106422732Y-66254735D01*
X106737978Y-66924072D01*
X106740554Y-66929929D01*
X107011450Y-67591662D01*
X107016469Y-67606546D01*
X107023607Y-67633188D01*
X107023608Y-67633189D01*
X107031388Y-67646664D01*
X107039931Y-67664660D01*
X107045454Y-67679211D01*
X107045455Y-67679213D01*
X107065531Y-67707064D01*
X107072329Y-67717574D01*
X107089498Y-67747312D01*
X107089500Y-67747315D01*
X107100500Y-67758315D01*
X107113405Y-67773482D01*
X107122512Y-67786115D01*
X107145249Y-67804669D01*
X107149116Y-67807824D01*
X107158392Y-67816207D01*
X107182685Y-67840500D01*
X107196164Y-67848282D01*
X107212558Y-67859594D01*
X107224616Y-67869434D01*
X107255932Y-67883518D01*
X107267058Y-67889213D01*
X107296813Y-67906392D01*
X107296940Y-67906426D01*
X107296984Y-67906438D01*
X107297112Y-67906516D01*
X107304325Y-67909504D01*
X107303859Y-67910628D01*
X107356646Y-67942801D01*
X107387177Y-68005647D01*
X107378885Y-68075023D01*
X107369889Y-68092186D01*
X107319545Y-68172307D01*
X107263685Y-68331943D01*
X107244751Y-68499997D01*
X107244751Y-68500002D01*
X107263685Y-68668056D01*
X107319545Y-68827694D01*
X107319547Y-68827697D01*
X107409518Y-68970884D01*
X107409523Y-68970890D01*
X107475952Y-69037319D01*
X107509437Y-69098642D01*
X107504453Y-69168334D01*
X107475952Y-69212681D01*
X107409523Y-69279109D01*
X107409518Y-69279115D01*
X107319547Y-69422302D01*
X107319545Y-69422305D01*
X107263685Y-69581943D01*
X107244751Y-69749997D01*
X107244751Y-69750002D01*
X107263685Y-69918056D01*
X107319545Y-70077694D01*
X107319547Y-70077697D01*
X107409518Y-70220884D01*
X107409523Y-70220890D01*
X107475952Y-70287319D01*
X107509437Y-70348642D01*
X107504453Y-70418334D01*
X107475952Y-70462681D01*
X107409523Y-70529109D01*
X107409518Y-70529115D01*
X107319547Y-70672302D01*
X107319545Y-70672305D01*
X107263685Y-70831943D01*
X107244751Y-70999997D01*
X107244751Y-71000002D01*
X107263685Y-71168056D01*
X107319545Y-71327694D01*
X107319547Y-71327697D01*
X107409518Y-71470884D01*
X107409523Y-71470890D01*
X107475952Y-71537319D01*
X107509437Y-71598642D01*
X107504453Y-71668334D01*
X107475952Y-71712681D01*
X107409523Y-71779109D01*
X107409518Y-71779115D01*
X107319547Y-71922302D01*
X107319545Y-71922305D01*
X107263685Y-72081943D01*
X107244751Y-72249997D01*
X107244751Y-72250002D01*
X107263685Y-72418056D01*
X107319545Y-72577694D01*
X107319547Y-72577697D01*
X107409518Y-72720884D01*
X107409523Y-72720890D01*
X107475952Y-72787319D01*
X107509437Y-72848642D01*
X107504453Y-72918334D01*
X107475952Y-72962681D01*
X107409523Y-73029109D01*
X107409518Y-73029115D01*
X107319547Y-73172302D01*
X107319545Y-73172305D01*
X107263685Y-73331943D01*
X107244751Y-73499997D01*
X107244751Y-73500002D01*
X107263685Y-73668056D01*
X107319545Y-73827694D01*
X107319547Y-73827697D01*
X107409518Y-73970884D01*
X107409523Y-73970890D01*
X107529109Y-74090476D01*
X107529115Y-74090481D01*
X107672302Y-74180452D01*
X107672305Y-74180454D01*
X107672309Y-74180455D01*
X107672310Y-74180456D01*
X107744913Y-74205860D01*
X107831943Y-74236314D01*
X107999997Y-74255249D01*
X108000000Y-74255249D01*
X108000003Y-74255249D01*
X108168056Y-74236314D01*
X108168059Y-74236313D01*
X108327690Y-74180456D01*
X108327692Y-74180454D01*
X108327694Y-74180454D01*
X108327697Y-74180452D01*
X108470884Y-74090481D01*
X108470885Y-74090480D01*
X108470890Y-74090477D01*
X108590477Y-73970890D01*
X108616615Y-73929292D01*
X108680452Y-73827697D01*
X108680454Y-73827694D01*
X108680454Y-73827692D01*
X108680456Y-73827690D01*
X108736313Y-73668059D01*
X108736313Y-73668058D01*
X108736314Y-73668056D01*
X108755249Y-73500002D01*
X108755249Y-73499997D01*
X108736314Y-73331943D01*
X108680454Y-73172305D01*
X108680452Y-73172302D01*
X108590481Y-73029115D01*
X108590476Y-73029109D01*
X108524048Y-72962681D01*
X108490563Y-72901358D01*
X108495547Y-72831666D01*
X108524048Y-72787319D01*
X108590477Y-72720890D01*
X108634026Y-72651583D01*
X108680452Y-72577697D01*
X108680454Y-72577694D01*
X108680454Y-72577692D01*
X108680456Y-72577690D01*
X108736313Y-72418059D01*
X108736313Y-72418058D01*
X108736314Y-72418056D01*
X108755249Y-72250002D01*
X108755249Y-72249997D01*
X108736314Y-72081943D01*
X108685020Y-71935354D01*
X108680456Y-71922310D01*
X108680455Y-71922309D01*
X108680454Y-71922305D01*
X108680452Y-71922302D01*
X108590481Y-71779115D01*
X108590476Y-71779109D01*
X108524048Y-71712681D01*
X108490563Y-71651358D01*
X108495547Y-71581666D01*
X108524048Y-71537319D01*
X108536831Y-71524536D01*
X108590477Y-71470890D01*
X108680452Y-71327697D01*
X108680454Y-71327694D01*
X108680454Y-71327692D01*
X108680456Y-71327690D01*
X108736313Y-71168059D01*
X108736313Y-71168058D01*
X108736314Y-71168056D01*
X108755249Y-71000002D01*
X108755249Y-70999997D01*
X108736314Y-70831943D01*
X108707639Y-70749995D01*
X109194450Y-70749995D01*
X109194450Y-70750004D01*
X109214615Y-71019101D01*
X109274663Y-71282188D01*
X109274665Y-71282195D01*
X109372733Y-71532067D01*
X109373256Y-71533398D01*
X109508184Y-71767102D01*
X109631952Y-71922302D01*
X109676441Y-71978089D01*
X109788368Y-72081941D01*
X109874258Y-72161635D01*
X110097225Y-72313651D01*
X110340358Y-72430738D01*
X110598227Y-72510280D01*
X110598228Y-72510280D01*
X110598231Y-72510281D01*
X110865062Y-72550499D01*
X110865067Y-72550499D01*
X110865070Y-72550500D01*
X110865071Y-72550500D01*
X111134927Y-72550500D01*
X111134928Y-72550500D01*
X111134935Y-72550499D01*
X111401766Y-72510281D01*
X111401767Y-72510280D01*
X111401771Y-72510280D01*
X111659640Y-72430738D01*
X111902774Y-72313651D01*
X112125740Y-72161635D01*
X112323560Y-71978085D01*
X112491814Y-71767102D01*
X112626742Y-71533398D01*
X112725333Y-71282195D01*
X112785382Y-71019103D01*
X112798561Y-70843237D01*
X112805548Y-70750004D01*
X112805548Y-70749995D01*
X112785382Y-70480898D01*
X112784142Y-70475464D01*
X112725333Y-70217805D01*
X112626742Y-69966602D01*
X112491814Y-69732898D01*
X112323560Y-69521915D01*
X112323559Y-69521914D01*
X112323556Y-69521910D01*
X112125740Y-69338365D01*
X112038829Y-69279110D01*
X111902774Y-69186349D01*
X111902768Y-69186346D01*
X111902767Y-69186345D01*
X111902766Y-69186344D01*
X111659642Y-69069263D01*
X111659644Y-69069263D01*
X111401772Y-68989720D01*
X111401766Y-68989718D01*
X111134935Y-68949500D01*
X111134928Y-68949500D01*
X110865070Y-68949500D01*
X110865062Y-68949500D01*
X110598231Y-68989718D01*
X110598225Y-68989720D01*
X110340357Y-69069262D01*
X110097229Y-69186346D01*
X109874257Y-69338365D01*
X109676441Y-69521910D01*
X109508184Y-69732898D01*
X109373257Y-69966599D01*
X109373255Y-69966603D01*
X109274665Y-70217804D01*
X109274663Y-70217811D01*
X109214615Y-70480898D01*
X109194450Y-70749995D01*
X108707639Y-70749995D01*
X108680454Y-70672305D01*
X108680452Y-70672302D01*
X108590481Y-70529115D01*
X108590476Y-70529109D01*
X108524048Y-70462681D01*
X108490563Y-70401358D01*
X108495547Y-70331666D01*
X108524048Y-70287319D01*
X108545378Y-70265989D01*
X108590477Y-70220890D01*
X108592412Y-70217811D01*
X108680452Y-70077697D01*
X108680454Y-70077694D01*
X108680454Y-70077692D01*
X108680456Y-70077690D01*
X108736313Y-69918059D01*
X108736313Y-69918058D01*
X108736314Y-69918056D01*
X108755249Y-69750002D01*
X108755249Y-69749997D01*
X108736314Y-69581943D01*
X108701956Y-69483755D01*
X108680456Y-69422310D01*
X108680455Y-69422309D01*
X108680454Y-69422305D01*
X108680452Y-69422302D01*
X108590481Y-69279115D01*
X108590476Y-69279109D01*
X108524048Y-69212681D01*
X108490563Y-69151358D01*
X108495547Y-69081666D01*
X108524048Y-69037319D01*
X108536831Y-69024536D01*
X108590477Y-68970890D01*
X108590481Y-68970884D01*
X108680452Y-68827697D01*
X108680454Y-68827694D01*
X108680454Y-68827692D01*
X108680456Y-68827690D01*
X108736313Y-68668059D01*
X108736313Y-68668058D01*
X108736314Y-68668056D01*
X108755249Y-68500002D01*
X108755249Y-68499997D01*
X108736314Y-68331943D01*
X108689151Y-68197159D01*
X108680456Y-68172310D01*
X108680454Y-68172307D01*
X108680454Y-68172306D01*
X108654168Y-68130473D01*
X108635167Y-68063237D01*
X108655534Y-67996401D01*
X108708801Y-67951187D01*
X108759161Y-67940500D01*
X113664961Y-67940500D01*
X113732000Y-67960185D01*
X113777755Y-68012989D01*
X113788961Y-68064607D01*
X113780107Y-78336029D01*
X113780038Y-78415607D01*
X113760296Y-78482629D01*
X113707452Y-78528339D01*
X113656038Y-78539500D01*
X109205458Y-78539500D01*
X109203289Y-78539481D01*
X107135820Y-78503316D01*
X107117045Y-78501553D01*
X107099047Y-78498468D01*
X107099036Y-78498468D01*
X107067519Y-78501378D01*
X107053953Y-78501884D01*
X107022320Y-78501331D01*
X107022314Y-78501331D01*
X107004586Y-78505750D01*
X106986006Y-78508904D01*
X106967819Y-78510584D01*
X106967811Y-78510585D01*
X106938126Y-78521552D01*
X106925154Y-78525552D01*
X106894446Y-78533207D01*
X106894441Y-78533210D01*
X106878465Y-78542064D01*
X106861336Y-78549920D01*
X106844196Y-78556253D01*
X106844195Y-78556253D01*
X106818354Y-78574532D01*
X106806865Y-78581749D01*
X106779183Y-78597093D01*
X106766041Y-78609783D01*
X106751528Y-78621804D01*
X106736610Y-78632357D01*
X106716380Y-78656702D01*
X106707151Y-78666646D01*
X106684380Y-78688635D01*
X106684377Y-78688639D01*
X106674970Y-78704294D01*
X106664062Y-78719665D01*
X106652386Y-78733717D01*
X106652383Y-78733721D01*
X106639142Y-78762474D01*
X106632802Y-78774468D01*
X106616503Y-78801592D01*
X106613450Y-78812239D01*
X106605509Y-78832810D01*
X106296034Y-79461550D01*
X106293052Y-79467233D01*
X105931718Y-80114493D01*
X105928447Y-80120013D01*
X105534096Y-80747744D01*
X105530543Y-80753087D01*
X105104256Y-81359567D01*
X105100431Y-81364719D01*
X104643362Y-81948307D01*
X104639277Y-81953255D01*
X104152598Y-82512457D01*
X104148261Y-82517187D01*
X103633325Y-83050442D01*
X103628750Y-83054941D01*
X103086907Y-83560856D01*
X103082105Y-83565112D01*
X102514821Y-84042316D01*
X102509805Y-84046318D01*
X101918611Y-84493525D01*
X101913395Y-84497263D01*
X101299831Y-84913306D01*
X101294429Y-84916768D01*
X100660192Y-85300499D01*
X100654618Y-85303678D01*
X100001343Y-85654105D01*
X99995612Y-85656990D01*
X99325125Y-85973135D01*
X99319252Y-85975721D01*
X98633282Y-86256768D01*
X98627284Y-86259046D01*
X97927701Y-86504230D01*
X97921592Y-86506195D01*
X97210260Y-86714862D01*
X97204058Y-86716508D01*
X96482905Y-86888093D01*
X96476626Y-86889417D01*
X95747520Y-87023474D01*
X95741182Y-87024470D01*
X95006162Y-87120625D01*
X94999780Y-87121293D01*
X94260731Y-87179300D01*
X94254323Y-87179636D01*
X93513300Y-87199332D01*
X93506883Y-87199337D01*
X92765794Y-87180674D01*
X92759386Y-87180346D01*
X92020296Y-87123373D01*
X92013913Y-87122715D01*
X91278726Y-87027582D01*
X91272386Y-87026594D01*
X90543113Y-86893557D01*
X90536832Y-86892242D01*
X89815440Y-86721664D01*
X89809236Y-86720027D01*
X89097594Y-86512348D01*
X89091483Y-86510391D01*
X88391570Y-86266189D01*
X88385575Y-86263921D01*
X88206082Y-86190674D01*
X87699218Y-85983832D01*
X87693342Y-85981255D01*
X87022389Y-85666035D01*
X87016654Y-85663157D01*
X86999722Y-85654105D01*
X86362926Y-85313661D01*
X86357350Y-85310493D01*
X85722543Y-84927627D01*
X85717143Y-84924175D01*
X85103000Y-84508987D01*
X85097779Y-84505257D01*
X84633941Y-84155405D01*
X84505945Y-84058863D01*
X84500972Y-84054907D01*
X83932988Y-83578467D01*
X83928192Y-83574227D01*
X83742763Y-83401577D01*
X98499500Y-83401577D01*
X98499500Y-83598422D01*
X98530290Y-83792826D01*
X98591117Y-83980029D01*
X98656651Y-84108646D01*
X98680476Y-84155405D01*
X98796172Y-84314646D01*
X98935354Y-84453828D01*
X99094595Y-84569524D01*
X99177455Y-84611743D01*
X99269970Y-84658882D01*
X99269972Y-84658882D01*
X99269975Y-84658884D01*
X99370317Y-84691487D01*
X99457173Y-84719709D01*
X99651578Y-84750500D01*
X99651583Y-84750500D01*
X99848422Y-84750500D01*
X100042826Y-84719709D01*
X100230025Y-84658884D01*
X100405405Y-84569524D01*
X100564646Y-84453828D01*
X100703828Y-84314646D01*
X100819524Y-84155405D01*
X100908884Y-83980025D01*
X100969709Y-83792826D01*
X101000500Y-83598422D01*
X101000500Y-83401577D01*
X100969709Y-83207173D01*
X100908882Y-83019970D01*
X100819523Y-82844594D01*
X100703828Y-82685354D01*
X100564646Y-82546172D01*
X100405405Y-82430476D01*
X100358469Y-82406561D01*
X100230029Y-82341117D01*
X100042826Y-82280290D01*
X99848422Y-82249500D01*
X99848417Y-82249500D01*
X99651583Y-82249500D01*
X99651578Y-82249500D01*
X99457173Y-82280290D01*
X99269970Y-82341117D01*
X99094594Y-82430476D01*
X99003741Y-82496485D01*
X98935354Y-82546172D01*
X98935352Y-82546174D01*
X98935351Y-82546174D01*
X98796174Y-82685351D01*
X98796174Y-82685352D01*
X98796172Y-82685354D01*
X98746485Y-82753741D01*
X98680476Y-82844594D01*
X98591117Y-83019970D01*
X98530290Y-83207173D01*
X98499500Y-83401577D01*
X83742763Y-83401577D01*
X83385643Y-83069069D01*
X83381061Y-83064576D01*
X83085507Y-82759360D01*
X82865370Y-82532027D01*
X82861030Y-82527306D01*
X82373584Y-81968800D01*
X82369496Y-81963864D01*
X82359272Y-81950848D01*
X82097910Y-81618096D01*
X81911588Y-81380881D01*
X81907757Y-81375734D01*
X81480641Y-80769875D01*
X81477080Y-80764537D01*
X81237936Y-80385043D01*
X81081843Y-80137341D01*
X81078586Y-80131862D01*
X80716327Y-79485067D01*
X80713343Y-79479400D01*
X80710474Y-79473591D01*
X80385031Y-78814735D01*
X80382357Y-78808950D01*
X80088863Y-78128180D01*
X80086490Y-78122259D01*
X79828606Y-77427220D01*
X79826531Y-77421149D01*
X79806363Y-77356760D01*
X79757262Y-77199998D01*
X82394318Y-77199998D01*
X82394318Y-77200001D01*
X82414955Y-77356760D01*
X82414956Y-77356762D01*
X82475464Y-77502842D01*
X82568826Y-77624514D01*
X82594020Y-77689683D01*
X82579981Y-77758128D01*
X82568826Y-77775486D01*
X82475464Y-77897157D01*
X82414956Y-78043237D01*
X82414955Y-78043239D01*
X82394318Y-78199998D01*
X82394318Y-78200001D01*
X82414955Y-78356760D01*
X82414956Y-78356762D01*
X82475067Y-78501884D01*
X82475464Y-78502841D01*
X82571718Y-78628282D01*
X82697159Y-78724536D01*
X82843238Y-78785044D01*
X82921619Y-78795363D01*
X82999999Y-78805682D01*
X83000000Y-78805682D01*
X83000001Y-78805682D01*
X83052254Y-78798802D01*
X83156762Y-78785044D01*
X83301822Y-78724957D01*
X83371289Y-78717489D01*
X83433768Y-78748764D01*
X83469421Y-78808853D01*
X83466928Y-78878678D01*
X83436958Y-78927196D01*
X83432080Y-78932073D01*
X83340639Y-79052656D01*
X83285122Y-79193438D01*
X83280327Y-79233376D01*
X83274500Y-79281898D01*
X83274500Y-81618102D01*
X83280126Y-81664954D01*
X83285122Y-81706561D01*
X83340639Y-81847343D01*
X83432077Y-81967922D01*
X83552656Y-82059360D01*
X83552657Y-82059360D01*
X83552658Y-82059361D01*
X83693436Y-82114877D01*
X83781898Y-82125500D01*
X83781903Y-82125500D01*
X86118097Y-82125500D01*
X86118102Y-82125500D01*
X86206564Y-82114877D01*
X86347342Y-82059361D01*
X86467922Y-81967922D01*
X86559361Y-81847342D01*
X86614877Y-81706564D01*
X86625500Y-81618102D01*
X86625500Y-80480432D01*
X86645185Y-80413393D01*
X86697989Y-80367638D01*
X86767147Y-80357694D01*
X86796950Y-80365871D01*
X86843238Y-80385044D01*
X86921619Y-80395363D01*
X86999999Y-80405682D01*
X87000000Y-80405682D01*
X87000001Y-80405682D01*
X87052254Y-80398802D01*
X87156762Y-80385044D01*
X87302841Y-80324536D01*
X87375014Y-80269155D01*
X87440182Y-80243961D01*
X87508627Y-80257999D01*
X87558617Y-80306812D01*
X87574500Y-80367531D01*
X87574500Y-82318102D01*
X87577264Y-82341116D01*
X87585122Y-82406561D01*
X87640639Y-82547343D01*
X87732077Y-82667922D01*
X87852656Y-82759360D01*
X87852657Y-82759360D01*
X87852658Y-82759361D01*
X87993436Y-82814877D01*
X88081898Y-82825500D01*
X88081903Y-82825500D01*
X90418097Y-82825500D01*
X90418102Y-82825500D01*
X90506564Y-82814877D01*
X90647342Y-82759361D01*
X90767922Y-82667922D01*
X90859361Y-82547342D01*
X90914877Y-82406564D01*
X90925500Y-82318102D01*
X90925500Y-80949998D01*
X99169318Y-80949998D01*
X99169318Y-80950001D01*
X99189955Y-81106760D01*
X99189956Y-81106762D01*
X99250464Y-81252841D01*
X99346718Y-81378282D01*
X99472159Y-81474536D01*
X99618238Y-81535044D01*
X99696619Y-81545363D01*
X99774999Y-81555682D01*
X99775000Y-81555682D01*
X99775001Y-81555682D01*
X99827254Y-81548802D01*
X99931762Y-81535044D01*
X100077841Y-81474536D01*
X100203282Y-81378282D01*
X100299536Y-81252841D01*
X100360044Y-81106762D01*
X100380682Y-80950000D01*
X100360044Y-80793238D01*
X100299536Y-80647159D01*
X100203282Y-80521718D01*
X100077841Y-80425464D01*
X99931762Y-80364956D01*
X99931760Y-80364955D01*
X99775001Y-80344318D01*
X99774999Y-80344318D01*
X99618239Y-80364955D01*
X99618237Y-80364956D01*
X99472160Y-80425463D01*
X99346718Y-80521718D01*
X99250463Y-80647160D01*
X99189956Y-80793237D01*
X99189955Y-80793239D01*
X99169318Y-80949998D01*
X90925500Y-80949998D01*
X90925500Y-79981898D01*
X90914877Y-79893436D01*
X90859361Y-79752658D01*
X90859360Y-79752657D01*
X90859360Y-79752656D01*
X90767922Y-79632077D01*
X90647343Y-79540639D01*
X90506561Y-79485122D01*
X90458906Y-79479400D01*
X90418102Y-79474500D01*
X89072696Y-79474500D01*
X89005657Y-79454815D01*
X88959902Y-79402011D01*
X88949958Y-79332853D01*
X88978983Y-79269297D01*
X88997210Y-79252124D01*
X89010572Y-79241871D01*
X89028282Y-79228282D01*
X89124536Y-79102841D01*
X89185044Y-78956762D01*
X89202670Y-78822880D01*
X89205682Y-78800001D01*
X89205682Y-78799998D01*
X89187505Y-78661929D01*
X89185044Y-78643238D01*
X89124536Y-78497159D01*
X89124535Y-78497158D01*
X89124535Y-78497157D01*
X89050903Y-78401198D01*
X89025709Y-78336029D01*
X89034718Y-78278259D01*
X89085044Y-78156762D01*
X89105682Y-78000000D01*
X89101077Y-77965024D01*
X89085044Y-77843239D01*
X89085044Y-77843238D01*
X89024536Y-77697159D01*
X88928282Y-77571718D01*
X88802841Y-77475464D01*
X88656762Y-77414956D01*
X88656760Y-77414955D01*
X88500001Y-77394318D01*
X88499999Y-77394318D01*
X88343239Y-77414955D01*
X88343237Y-77414956D01*
X88197160Y-77475463D01*
X88071718Y-77571718D01*
X87975463Y-77697160D01*
X87914956Y-77843237D01*
X87914956Y-77843238D01*
X87912509Y-77861826D01*
X87884242Y-77925722D01*
X87825918Y-77964193D01*
X87756053Y-77965024D01*
X87696830Y-77927952D01*
X87691204Y-77921139D01*
X87653282Y-77871718D01*
X87527841Y-77775464D01*
X87518797Y-77771718D01*
X87381762Y-77714956D01*
X87381760Y-77714955D01*
X87225001Y-77694318D01*
X87224999Y-77694318D01*
X87068239Y-77714955D01*
X87068237Y-77714956D01*
X86922158Y-77775464D01*
X86912985Y-77782503D01*
X86847815Y-77807696D01*
X86779371Y-77793657D01*
X86762015Y-77782503D01*
X86752841Y-77775464D01*
X86606762Y-77714956D01*
X86606760Y-77714955D01*
X86450001Y-77694318D01*
X86449999Y-77694318D01*
X86293239Y-77714955D01*
X86293237Y-77714956D01*
X86147160Y-77775463D01*
X86021718Y-77871718D01*
X85925463Y-77997160D01*
X85864956Y-78143237D01*
X85864955Y-78143239D01*
X85844318Y-78299998D01*
X85844318Y-78300001D01*
X85864955Y-78456760D01*
X85864957Y-78456765D01*
X85925549Y-78603048D01*
X85933018Y-78672517D01*
X85901743Y-78734996D01*
X85841654Y-78770648D01*
X85810988Y-78774500D01*
X85567532Y-78774500D01*
X85500493Y-78754815D01*
X85454738Y-78702011D01*
X85444794Y-78632853D01*
X85469156Y-78575014D01*
X85508371Y-78523908D01*
X85524536Y-78502841D01*
X85585044Y-78356762D01*
X85605682Y-78200000D01*
X85599989Y-78156760D01*
X85585044Y-78043239D01*
X85585044Y-78043238D01*
X85548838Y-77955831D01*
X85541370Y-77886362D01*
X85572645Y-77823883D01*
X85615947Y-77793818D01*
X85616336Y-77793657D01*
X85652841Y-77778536D01*
X85778282Y-77682282D01*
X85874536Y-77556841D01*
X85935044Y-77410762D01*
X85955682Y-77254000D01*
X85935044Y-77097238D01*
X85874536Y-76951159D01*
X85778282Y-76825718D01*
X85652841Y-76729464D01*
X85506762Y-76668956D01*
X85506760Y-76668955D01*
X85350001Y-76648318D01*
X85349999Y-76648318D01*
X85193239Y-76668955D01*
X85193237Y-76668956D01*
X85047160Y-76729463D01*
X84921718Y-76825718D01*
X84825463Y-76951160D01*
X84764956Y-77097237D01*
X84764955Y-77097239D01*
X84744318Y-77253998D01*
X84744318Y-77254001D01*
X84764955Y-77410760D01*
X84764956Y-77410762D01*
X84791756Y-77475464D01*
X84801161Y-77498168D01*
X84808630Y-77567638D01*
X84777355Y-77630117D01*
X84734053Y-77660182D01*
X84697157Y-77675464D01*
X84575486Y-77768826D01*
X84510317Y-77794020D01*
X84441872Y-77779981D01*
X84424514Y-77768826D01*
X84302842Y-77675464D01*
X84156762Y-77614956D01*
X84156760Y-77614955D01*
X84000001Y-77594318D01*
X83999999Y-77594318D01*
X83843239Y-77614955D01*
X83843237Y-77614956D01*
X83697156Y-77675465D01*
X83690119Y-77679528D01*
X83688533Y-77676781D01*
X83637251Y-77696575D01*
X83568814Y-77682501D01*
X83518850Y-77633661D01*
X83503222Y-77565561D01*
X83522789Y-77511218D01*
X83520472Y-77509881D01*
X83524534Y-77502843D01*
X83524536Y-77502841D01*
X83585044Y-77356762D01*
X83605682Y-77200000D01*
X83585044Y-77043238D01*
X83524536Y-76897159D01*
X83428282Y-76771718D01*
X83302841Y-76675464D01*
X83287129Y-76668956D01*
X83156762Y-76614956D01*
X83156760Y-76614955D01*
X83000001Y-76594318D01*
X82999999Y-76594318D01*
X82843239Y-76614955D01*
X82843237Y-76614956D01*
X82697160Y-76675463D01*
X82571718Y-76771718D01*
X82475463Y-76897160D01*
X82414956Y-77043237D01*
X82414955Y-77043239D01*
X82394318Y-77199998D01*
X79757262Y-77199998D01*
X79604950Y-76713715D01*
X79603209Y-76707605D01*
X79418511Y-75989617D01*
X79417094Y-75983456D01*
X79269778Y-75256835D01*
X79268674Y-75250554D01*
X79260685Y-75197068D01*
X79171498Y-74599998D01*
X90194318Y-74599998D01*
X90194318Y-74600001D01*
X90214955Y-74756760D01*
X90214956Y-74756762D01*
X90250775Y-74843238D01*
X90275464Y-74902841D01*
X90371718Y-75028282D01*
X90497159Y-75124536D01*
X90643238Y-75185044D01*
X90800000Y-75205682D01*
X90865425Y-75197068D01*
X90934456Y-75207833D01*
X90986713Y-75254212D01*
X91005599Y-75321481D01*
X90996169Y-75367459D01*
X90933716Y-75518234D01*
X90933714Y-75518239D01*
X90913077Y-75674998D01*
X90913077Y-75675001D01*
X90933714Y-75831760D01*
X90933715Y-75831762D01*
X90994223Y-75977841D01*
X91090477Y-76103282D01*
X91215918Y-76199536D01*
X91361997Y-76260044D01*
X91440378Y-76270363D01*
X91518758Y-76280682D01*
X91518759Y-76280682D01*
X91518760Y-76280682D01*
X91571013Y-76273802D01*
X91675521Y-76260044D01*
X91821600Y-76199536D01*
X91947041Y-76103282D01*
X92043295Y-75977841D01*
X92103803Y-75831762D01*
X92124441Y-75675000D01*
X92121149Y-75649998D01*
X92103803Y-75518239D01*
X92103803Y-75518238D01*
X92043295Y-75372159D01*
X91947041Y-75246718D01*
X91821600Y-75150464D01*
X91761242Y-75125463D01*
X91675521Y-75089956D01*
X91675519Y-75089955D01*
X91518760Y-75069318D01*
X91518758Y-75069318D01*
X91453335Y-75077931D01*
X91384300Y-75067165D01*
X91332044Y-75020785D01*
X91326208Y-74999998D01*
X92644318Y-74999998D01*
X92644318Y-75000001D01*
X92664955Y-75156760D01*
X92664956Y-75156762D01*
X92723452Y-75297985D01*
X92725464Y-75302841D01*
X92821718Y-75428282D01*
X92947159Y-75524536D01*
X93093238Y-75585044D01*
X93171619Y-75595363D01*
X93249999Y-75605682D01*
X93250000Y-75605682D01*
X93250001Y-75605682D01*
X93302254Y-75598802D01*
X93406762Y-75585044D01*
X93552841Y-75524536D01*
X93678282Y-75428282D01*
X93712562Y-75383606D01*
X93768986Y-75342407D01*
X93838732Y-75338252D01*
X93899653Y-75372464D01*
X93909303Y-75383601D01*
X93939862Y-75423426D01*
X94065303Y-75519680D01*
X94211382Y-75580188D01*
X94289763Y-75590507D01*
X94368143Y-75600826D01*
X94368144Y-75600826D01*
X94368145Y-75600826D01*
X94420398Y-75593946D01*
X94524906Y-75580188D01*
X94670985Y-75519680D01*
X94789990Y-75428363D01*
X94855157Y-75403170D01*
X94923602Y-75417208D01*
X94973592Y-75466022D01*
X94989256Y-75534113D01*
X94988414Y-75542925D01*
X94974318Y-75649998D01*
X94974318Y-75650001D01*
X94994955Y-75806760D01*
X94994956Y-75806762D01*
X95005310Y-75831760D01*
X95055464Y-75952841D01*
X95151718Y-76078282D01*
X95277159Y-76174536D01*
X95423238Y-76235044D01*
X95501619Y-76245363D01*
X95579999Y-76255682D01*
X95580000Y-76255682D01*
X95580001Y-76255682D01*
X95632254Y-76248802D01*
X95736762Y-76235044D01*
X95882841Y-76174536D01*
X96008282Y-76078282D01*
X96104536Y-75952841D01*
X96165044Y-75806762D01*
X96185682Y-75650000D01*
X96179847Y-75605682D01*
X96165044Y-75493239D01*
X96165044Y-75493238D01*
X96104536Y-75347159D01*
X96008282Y-75221718D01*
X95882841Y-75125464D01*
X95736762Y-75064956D01*
X95736760Y-75064955D01*
X95580001Y-75044318D01*
X95579999Y-75044318D01*
X95423239Y-75064955D01*
X95423237Y-75064956D01*
X95277157Y-75125464D01*
X95158154Y-75216779D01*
X95092985Y-75241973D01*
X95024540Y-75227935D01*
X94974551Y-75179120D01*
X94958887Y-75111029D01*
X94959727Y-75102234D01*
X94973826Y-74995144D01*
X94953188Y-74838382D01*
X94892680Y-74692303D01*
X94796426Y-74566862D01*
X94670985Y-74470608D01*
X94611023Y-74445771D01*
X94524906Y-74410100D01*
X94524904Y-74410099D01*
X94368145Y-74389462D01*
X94368143Y-74389462D01*
X94211383Y-74410099D01*
X94211381Y-74410100D01*
X94065304Y-74470607D01*
X93939861Y-74566863D01*
X93905583Y-74611535D01*
X93849155Y-74652737D01*
X93779408Y-74656891D01*
X93718489Y-74622678D01*
X93708842Y-74611544D01*
X93678282Y-74571718D01*
X93552841Y-74475464D01*
X93541115Y-74470607D01*
X93406762Y-74414956D01*
X93406760Y-74414955D01*
X93250001Y-74394318D01*
X93249999Y-74394318D01*
X93093239Y-74414955D01*
X93093237Y-74414956D01*
X92947160Y-74475463D01*
X92821718Y-74571718D01*
X92725463Y-74697160D01*
X92664956Y-74843237D01*
X92664955Y-74843239D01*
X92644318Y-74999998D01*
X91326208Y-74999998D01*
X91313159Y-74953516D01*
X91322589Y-74907539D01*
X91324533Y-74902843D01*
X91324536Y-74902841D01*
X91385044Y-74756762D01*
X91405682Y-74600000D01*
X91405682Y-74599998D01*
X91406743Y-74591942D01*
X91408340Y-74592152D01*
X91425367Y-74534168D01*
X91478171Y-74488413D01*
X91482230Y-74486646D01*
X91520949Y-74470608D01*
X91580911Y-74445771D01*
X91706352Y-74349517D01*
X91802606Y-74224076D01*
X91863114Y-74077997D01*
X91883752Y-73921235D01*
X91863114Y-73764473D01*
X91802606Y-73618394D01*
X91706352Y-73492953D01*
X91580911Y-73396699D01*
X91434832Y-73336191D01*
X91434830Y-73336190D01*
X91278071Y-73315553D01*
X91278069Y-73315553D01*
X91121309Y-73336190D01*
X91121307Y-73336191D01*
X90975230Y-73396698D01*
X90849788Y-73492953D01*
X90753533Y-73618395D01*
X90693026Y-73764472D01*
X90693025Y-73764474D01*
X90671327Y-73929292D01*
X90669729Y-73929081D01*
X90652703Y-73987066D01*
X90599899Y-74032821D01*
X90595841Y-74034588D01*
X90497160Y-74075463D01*
X90371718Y-74171718D01*
X90275463Y-74297160D01*
X90214956Y-74443237D01*
X90214955Y-74443239D01*
X90194318Y-74599998D01*
X79171498Y-74599998D01*
X79159155Y-74517369D01*
X79158376Y-74511047D01*
X79086929Y-73773146D01*
X79086478Y-73766764D01*
X79086375Y-73764474D01*
X79053299Y-73026180D01*
X79053179Y-73019780D01*
X79053578Y-72962681D01*
X79055750Y-72651577D01*
X79749500Y-72651577D01*
X79749500Y-72848422D01*
X79780290Y-73042826D01*
X79841117Y-73230029D01*
X79884694Y-73315553D01*
X79930476Y-73405405D01*
X80046172Y-73564646D01*
X80185354Y-73703828D01*
X80344595Y-73819524D01*
X80360630Y-73827694D01*
X80519970Y-73908882D01*
X80519972Y-73908882D01*
X80519975Y-73908884D01*
X80582135Y-73929081D01*
X80707173Y-73969709D01*
X80901578Y-74000500D01*
X80901583Y-74000500D01*
X81098422Y-74000500D01*
X81292826Y-73969709D01*
X81480025Y-73908884D01*
X81655405Y-73819524D01*
X81814646Y-73703828D01*
X81953828Y-73564646D01*
X82069524Y-73405405D01*
X82158884Y-73230025D01*
X82219709Y-73042826D01*
X82232403Y-72962681D01*
X82250500Y-72848422D01*
X82250500Y-72651577D01*
X82219709Y-72457173D01*
X82191487Y-72370317D01*
X82158884Y-72269975D01*
X82158882Y-72269972D01*
X82158882Y-72269970D01*
X82069523Y-72094594D01*
X81953828Y-71935354D01*
X81814646Y-71796172D01*
X81655405Y-71680476D01*
X81631575Y-71668334D01*
X81480029Y-71591117D01*
X81292826Y-71530290D01*
X81098422Y-71499500D01*
X81098417Y-71499500D01*
X80901583Y-71499500D01*
X80901578Y-71499500D01*
X80707173Y-71530290D01*
X80519970Y-71591117D01*
X80344594Y-71680476D01*
X80253741Y-71746485D01*
X80185354Y-71796172D01*
X80185352Y-71796174D01*
X80185351Y-71796174D01*
X80046174Y-71935351D01*
X80046174Y-71935352D01*
X80046172Y-71935354D01*
X80015126Y-71978085D01*
X79930476Y-72094594D01*
X79841117Y-72269970D01*
X79780290Y-72457173D01*
X79749500Y-72651577D01*
X79055750Y-72651577D01*
X79058355Y-72278472D01*
X79058565Y-72272107D01*
X79102082Y-71532055D01*
X79102624Y-71525673D01*
X79108702Y-71470890D01*
X79160942Y-70999998D01*
X90794318Y-70999998D01*
X90794318Y-71000001D01*
X90814955Y-71156760D01*
X90814956Y-71156762D01*
X90875464Y-71302841D01*
X90971718Y-71428282D01*
X91097159Y-71524536D01*
X91243238Y-71585044D01*
X91321619Y-71595363D01*
X91399999Y-71605682D01*
X91400000Y-71605682D01*
X91400001Y-71605682D01*
X91453474Y-71598642D01*
X91556762Y-71585044D01*
X91702841Y-71524536D01*
X91828282Y-71428282D01*
X91924536Y-71302841D01*
X91985044Y-71156762D01*
X92005682Y-71000000D01*
X91985044Y-70843238D01*
X91946421Y-70749995D01*
X102194451Y-70749995D01*
X102194451Y-70750004D01*
X102214616Y-71019101D01*
X102274664Y-71282188D01*
X102274666Y-71282195D01*
X102372734Y-71532067D01*
X102373257Y-71533398D01*
X102508185Y-71767102D01*
X102631953Y-71922302D01*
X102676442Y-71978089D01*
X102788369Y-72081941D01*
X102874259Y-72161635D01*
X103097226Y-72313651D01*
X103340359Y-72430738D01*
X103598228Y-72510280D01*
X103598229Y-72510280D01*
X103598232Y-72510281D01*
X103865063Y-72550499D01*
X103865068Y-72550499D01*
X103865071Y-72550500D01*
X103865072Y-72550500D01*
X104134928Y-72550500D01*
X104134929Y-72550500D01*
X104134936Y-72550499D01*
X104401767Y-72510281D01*
X104401768Y-72510280D01*
X104401772Y-72510280D01*
X104659641Y-72430738D01*
X104902775Y-72313651D01*
X105125741Y-72161635D01*
X105323561Y-71978085D01*
X105491815Y-71767102D01*
X105626743Y-71533398D01*
X105725334Y-71282195D01*
X105785383Y-71019103D01*
X105798562Y-70843237D01*
X105805549Y-70750004D01*
X105805549Y-70749995D01*
X105785383Y-70480898D01*
X105784143Y-70475464D01*
X105725334Y-70217805D01*
X105626743Y-69966602D01*
X105491815Y-69732898D01*
X105323561Y-69521915D01*
X105323560Y-69521914D01*
X105323557Y-69521910D01*
X105125741Y-69338365D01*
X105038830Y-69279110D01*
X104902775Y-69186349D01*
X104902769Y-69186346D01*
X104902768Y-69186345D01*
X104902767Y-69186344D01*
X104659643Y-69069263D01*
X104659645Y-69069263D01*
X104401773Y-68989720D01*
X104401767Y-68989718D01*
X104134936Y-68949500D01*
X104134929Y-68949500D01*
X103865071Y-68949500D01*
X103865063Y-68949500D01*
X103598232Y-68989718D01*
X103598226Y-68989720D01*
X103340358Y-69069262D01*
X103097230Y-69186346D01*
X102874258Y-69338365D01*
X102676442Y-69521910D01*
X102508185Y-69732898D01*
X102373258Y-69966599D01*
X102373256Y-69966603D01*
X102274666Y-70217804D01*
X102274664Y-70217811D01*
X102214616Y-70480898D01*
X102194451Y-70749995D01*
X91946421Y-70749995D01*
X91924536Y-70697159D01*
X91828282Y-70571718D01*
X91702841Y-70475464D01*
X91556762Y-70414956D01*
X91556760Y-70414955D01*
X91400001Y-70394318D01*
X91399999Y-70394318D01*
X91243239Y-70414955D01*
X91243237Y-70414956D01*
X91097160Y-70475463D01*
X90971718Y-70571718D01*
X90875463Y-70697160D01*
X90814956Y-70843237D01*
X90814955Y-70843239D01*
X90794318Y-70999998D01*
X79160942Y-70999998D01*
X79184365Y-70788869D01*
X79185232Y-70782554D01*
X79304986Y-70050921D01*
X79306173Y-70044689D01*
X79322493Y-69969595D01*
X98833511Y-69969595D01*
X98833511Y-69969598D01*
X98854148Y-70126357D01*
X98854149Y-70126359D01*
X98914567Y-70272222D01*
X98914657Y-70272438D01*
X99010911Y-70397879D01*
X99136352Y-70494133D01*
X99282431Y-70554641D01*
X99360812Y-70564960D01*
X99439192Y-70575279D01*
X99439193Y-70575279D01*
X99439194Y-70575279D01*
X99491447Y-70568399D01*
X99595955Y-70554641D01*
X99742034Y-70494133D01*
X99867475Y-70397879D01*
X99963729Y-70272438D01*
X99963733Y-70272426D01*
X99963853Y-70272222D01*
X99964006Y-70272075D01*
X99968677Y-70265989D01*
X99969625Y-70266717D01*
X100014418Y-70224004D01*
X100083024Y-70210777D01*
X100146731Y-70235841D01*
X100197157Y-70274535D01*
X100197158Y-70274535D01*
X100197159Y-70274536D01*
X100343238Y-70335044D01*
X100384506Y-70340477D01*
X100499999Y-70355682D01*
X100500000Y-70355682D01*
X100500001Y-70355682D01*
X100553474Y-70348642D01*
X100656762Y-70335044D01*
X100802841Y-70274536D01*
X100928282Y-70178282D01*
X101024536Y-70052841D01*
X101085044Y-69906762D01*
X101105682Y-69750000D01*
X101103430Y-69732898D01*
X101085044Y-69593239D01*
X101085044Y-69593238D01*
X101024536Y-69447159D01*
X100928282Y-69321718D01*
X100802841Y-69225464D01*
X100656762Y-69164956D01*
X100656760Y-69164955D01*
X100500001Y-69144318D01*
X100499999Y-69144318D01*
X100343239Y-69164955D01*
X100343237Y-69164956D01*
X100197160Y-69225463D01*
X100197159Y-69225464D01*
X100071718Y-69321718D01*
X99994538Y-69422302D01*
X99975458Y-69447167D01*
X99975329Y-69447391D01*
X99975170Y-69447541D01*
X99970516Y-69453608D01*
X99969569Y-69452881D01*
X99924757Y-69495602D01*
X99856148Y-69508817D01*
X99792461Y-69483755D01*
X99742035Y-69445061D01*
X99595955Y-69384553D01*
X99595953Y-69384552D01*
X99439194Y-69363915D01*
X99439192Y-69363915D01*
X99282432Y-69384552D01*
X99282430Y-69384553D01*
X99136353Y-69445060D01*
X99010911Y-69541315D01*
X98914656Y-69666757D01*
X98854149Y-69812834D01*
X98854148Y-69812836D01*
X98833511Y-69969595D01*
X79322493Y-69969595D01*
X79463614Y-69320228D01*
X79465127Y-69314043D01*
X79571020Y-68924998D01*
X84719318Y-68924998D01*
X84719318Y-68925001D01*
X84739955Y-69081760D01*
X84739956Y-69081762D01*
X84794184Y-69212681D01*
X84800464Y-69227841D01*
X84896718Y-69353282D01*
X85022159Y-69449536D01*
X85168238Y-69510044D01*
X85246619Y-69520363D01*
X85324999Y-69530682D01*
X85325000Y-69530682D01*
X85325001Y-69530682D01*
X85391630Y-69521910D01*
X85481762Y-69510044D01*
X85627841Y-69449536D01*
X85753282Y-69353282D01*
X85849536Y-69227841D01*
X85888259Y-69134353D01*
X85932098Y-69079952D01*
X85998392Y-69057887D01*
X86050271Y-69067247D01*
X86076591Y-69078148D01*
X86093238Y-69085044D01*
X86134506Y-69090477D01*
X86249999Y-69105682D01*
X86250000Y-69105682D01*
X86250001Y-69105682D01*
X86303474Y-69098642D01*
X86406762Y-69085044D01*
X86552841Y-69024536D01*
X86678282Y-68928282D01*
X86774536Y-68802841D01*
X86835044Y-68656762D01*
X86835044Y-68656754D01*
X86837149Y-68648906D01*
X86839480Y-68649530D01*
X86862782Y-68596847D01*
X86921104Y-68558372D01*
X86941270Y-68553985D01*
X86998324Y-68546474D01*
X87144403Y-68485966D01*
X87269844Y-68389712D01*
X87366098Y-68264271D01*
X87426606Y-68118192D01*
X87447244Y-67961430D01*
X87445895Y-67951187D01*
X87426606Y-67804669D01*
X87426606Y-67804668D01*
X87366098Y-67658589D01*
X87269844Y-67533148D01*
X87144403Y-67436894D01*
X86998324Y-67376386D01*
X86998322Y-67376385D01*
X86841563Y-67355748D01*
X86841561Y-67355748D01*
X86684801Y-67376385D01*
X86684799Y-67376386D01*
X86538722Y-67436893D01*
X86413280Y-67533148D01*
X86317025Y-67658590D01*
X86256518Y-67804667D01*
X86254415Y-67812518D01*
X86252089Y-67811894D01*
X86228758Y-67864606D01*
X86170426Y-67903066D01*
X86150290Y-67907444D01*
X86093238Y-67914956D01*
X85947160Y-67975463D01*
X85821718Y-68071718D01*
X85725463Y-68197160D01*
X85686741Y-68290644D01*
X85642900Y-68345047D01*
X85576606Y-68367112D01*
X85524729Y-68357753D01*
X85481762Y-68339956D01*
X85481760Y-68339955D01*
X85325001Y-68319318D01*
X85324999Y-68319318D01*
X85168239Y-68339955D01*
X85168237Y-68339956D01*
X85022160Y-68400463D01*
X84896718Y-68496718D01*
X84800463Y-68622160D01*
X84739956Y-68768237D01*
X84739955Y-68768239D01*
X84719318Y-68924998D01*
X79571020Y-68924998D01*
X79659828Y-68598725D01*
X79661660Y-68592621D01*
X79893104Y-67888329D01*
X79895246Y-67882338D01*
X80139966Y-67249998D01*
X94394318Y-67249998D01*
X94394318Y-67250001D01*
X94414955Y-67406760D01*
X94414956Y-67406762D01*
X94475464Y-67552841D01*
X94571718Y-67678282D01*
X94697159Y-67774536D01*
X94843238Y-67835044D01*
X94884681Y-67840500D01*
X94999999Y-67855682D01*
X95000000Y-67855682D01*
X95000001Y-67855682D01*
X95056232Y-67848279D01*
X95156762Y-67835044D01*
X95302841Y-67774536D01*
X95428282Y-67678282D01*
X95524536Y-67552841D01*
X95585044Y-67406762D01*
X95605682Y-67250000D01*
X95605315Y-67247216D01*
X95585044Y-67093239D01*
X95585044Y-67093238D01*
X95524536Y-66947159D01*
X95428282Y-66821718D01*
X95302841Y-66725464D01*
X95156762Y-66664956D01*
X95156760Y-66664955D01*
X95000001Y-66644318D01*
X94999999Y-66644318D01*
X94843239Y-66664955D01*
X94843237Y-66664956D01*
X94697160Y-66725463D01*
X94571718Y-66821718D01*
X94475463Y-66947160D01*
X94414956Y-67093237D01*
X94414955Y-67093239D01*
X94394318Y-67249998D01*
X80139966Y-67249998D01*
X80162818Y-67190951D01*
X80165267Y-67185078D01*
X80468243Y-66508467D01*
X80471013Y-66502689D01*
X80475387Y-66494137D01*
X90298486Y-66494137D01*
X90298486Y-66494140D01*
X90319123Y-66650899D01*
X90319124Y-66650901D01*
X90374822Y-66785369D01*
X90379632Y-66796980D01*
X90475886Y-66922421D01*
X90601327Y-67018675D01*
X90747406Y-67079183D01*
X90800007Y-67086108D01*
X90904167Y-67099821D01*
X90904168Y-67099821D01*
X90904169Y-67099821D01*
X90956422Y-67092941D01*
X91060930Y-67079183D01*
X91207009Y-67018675D01*
X91332450Y-66922421D01*
X91428704Y-66796980D01*
X91489212Y-66650901D01*
X91509850Y-66494139D01*
X91509833Y-66494012D01*
X91489212Y-66337378D01*
X91489212Y-66337377D01*
X91428704Y-66191298D01*
X91332450Y-66065857D01*
X91207009Y-65969603D01*
X91060930Y-65909095D01*
X91060928Y-65909094D01*
X90904169Y-65888457D01*
X90904167Y-65888457D01*
X90747407Y-65909094D01*
X90747405Y-65909095D01*
X90601328Y-65969602D01*
X90475886Y-66065857D01*
X90379631Y-66191299D01*
X90319124Y-66337376D01*
X90319123Y-66337378D01*
X90298486Y-66494137D01*
X80475387Y-66494137D01*
X80808574Y-65842674D01*
X80811630Y-65837064D01*
X80853556Y-65764600D01*
X81182881Y-65195399D01*
X81186215Y-65189966D01*
X81590173Y-64568346D01*
X81593764Y-64563120D01*
X81800385Y-64278553D01*
X85961189Y-64278553D01*
X85961189Y-64278561D01*
X85970666Y-64459397D01*
X85970667Y-64459404D01*
X86008319Y-64636536D01*
X86073213Y-64805595D01*
X86073218Y-64805604D01*
X86076785Y-64811782D01*
X86313762Y-65222238D01*
X86313765Y-65222242D01*
X86313768Y-65222246D01*
X86427725Y-65362972D01*
X86427726Y-65362974D01*
X86562302Y-65484147D01*
X86562307Y-65484151D01*
X86714181Y-65582778D01*
X86714186Y-65582781D01*
X86775790Y-65610209D01*
X86879618Y-65656437D01*
X86879619Y-65656437D01*
X86879621Y-65656438D01*
X86937925Y-65672060D01*
X87054541Y-65703307D01*
X87234641Y-65722236D01*
X87415486Y-65712759D01*
X87592622Y-65675107D01*
X87761686Y-65610209D01*
X87918516Y-65519663D01*
X88059252Y-65405698D01*
X88121725Y-65336316D01*
X92200289Y-65336316D01*
X92200289Y-65336319D01*
X92220926Y-65493078D01*
X92220927Y-65493080D01*
X92264875Y-65599181D01*
X92281435Y-65639159D01*
X92377689Y-65764600D01*
X92503130Y-65860854D01*
X92649209Y-65921362D01*
X92727590Y-65931681D01*
X92805970Y-65942000D01*
X92805971Y-65942000D01*
X92805972Y-65942000D01*
X92858225Y-65935120D01*
X92962733Y-65921362D01*
X93108812Y-65860854D01*
X93234253Y-65764600D01*
X93330507Y-65639159D01*
X93391015Y-65493080D01*
X93406925Y-65372229D01*
X93411653Y-65336319D01*
X93411653Y-65336316D01*
X93392974Y-65194435D01*
X93391015Y-65179556D01*
X93330507Y-65033477D01*
X93234253Y-64908036D01*
X93108812Y-64811782D01*
X93093887Y-64805600D01*
X92962733Y-64751274D01*
X92962731Y-64751273D01*
X92805972Y-64730636D01*
X92805970Y-64730636D01*
X92649210Y-64751273D01*
X92649208Y-64751274D01*
X92503131Y-64811781D01*
X92377689Y-64908036D01*
X92281434Y-65033478D01*
X92220927Y-65179555D01*
X92220926Y-65179557D01*
X92200289Y-65336316D01*
X88121725Y-65336316D01*
X88180427Y-65271121D01*
X88279058Y-65119243D01*
X88352715Y-64953807D01*
X88399585Y-64778885D01*
X88418514Y-64598785D01*
X88409037Y-64417940D01*
X88381209Y-64287021D01*
X88386525Y-64217354D01*
X88428662Y-64161621D01*
X88494241Y-64137515D01*
X88562443Y-64152692D01*
X88609886Y-64199240D01*
X88755100Y-64450759D01*
X88755105Y-64450767D01*
X88808533Y-64522062D01*
X88808534Y-64522063D01*
X88808535Y-64522064D01*
X88927002Y-64616224D01*
X88975143Y-64636486D01*
X89066479Y-64674929D01*
X89091736Y-64678108D01*
X89216625Y-64693828D01*
X89366300Y-64671517D01*
X89448222Y-64636486D01*
X90562108Y-63993384D01*
X90633407Y-63939953D01*
X90727566Y-63821486D01*
X90786272Y-63682007D01*
X90805170Y-63531863D01*
X90782859Y-63382187D01*
X90747828Y-63300265D01*
X89954726Y-61926573D01*
X89954724Y-61926570D01*
X89901296Y-61855275D01*
X89901295Y-61855274D01*
X89822726Y-61792826D01*
X89782828Y-61761114D01*
X89782826Y-61761113D01*
X89643350Y-61702408D01*
X89493207Y-61683510D01*
X89493203Y-61683510D01*
X89343531Y-61705820D01*
X89343529Y-61705821D01*
X89261616Y-61740848D01*
X89261602Y-61740855D01*
X88147727Y-62383950D01*
X88147719Y-62383955D01*
X88076424Y-62437383D01*
X88076423Y-62437384D01*
X87982263Y-62555853D01*
X87923557Y-62695330D01*
X87904660Y-62845469D01*
X87904660Y-62845473D01*
X87926970Y-62995149D01*
X87926971Y-62995151D01*
X87961998Y-63077064D01*
X87962005Y-63077079D01*
X88107218Y-63328595D01*
X88123691Y-63396495D01*
X88100838Y-63462522D01*
X88045917Y-63505713D01*
X87976364Y-63512354D01*
X87916858Y-63482744D01*
X87817402Y-63393192D01*
X87817396Y-63393187D01*
X87665525Y-63294562D01*
X87500083Y-63220902D01*
X87500084Y-63220902D01*
X87325167Y-63174033D01*
X87325166Y-63174032D01*
X87325163Y-63174032D01*
X87145063Y-63155103D01*
X87145060Y-63155103D01*
X86964220Y-63164580D01*
X86964213Y-63164581D01*
X86787081Y-63202233D01*
X86618021Y-63267128D01*
X86461193Y-63357672D01*
X86461189Y-63357674D01*
X86461187Y-63357676D01*
X86413250Y-63396495D01*
X86320449Y-63471643D01*
X86199278Y-63606215D01*
X86199273Y-63606221D01*
X86100648Y-63758092D01*
X86026988Y-63923534D01*
X85980119Y-64098450D01*
X85961189Y-64278553D01*
X81800385Y-64278553D01*
X82029356Y-63963205D01*
X82033235Y-63958144D01*
X82499265Y-63381581D01*
X82503404Y-63376724D01*
X82996675Y-62827224D01*
X83000953Y-62822696D01*
X83044006Y-62779351D01*
X83105216Y-62745659D01*
X83145862Y-62743515D01*
X83239025Y-62754012D01*
X83249999Y-62755249D01*
X83250000Y-62755249D01*
X83250003Y-62755249D01*
X83418056Y-62736314D01*
X83430768Y-62731866D01*
X83577690Y-62680456D01*
X83577692Y-62680454D01*
X83577694Y-62680454D01*
X83577697Y-62680452D01*
X83720884Y-62590481D01*
X83720885Y-62590480D01*
X83720890Y-62590477D01*
X83840477Y-62470890D01*
X83878559Y-62410281D01*
X83930893Y-62363990D01*
X83969670Y-62353033D01*
X84118055Y-62336314D01*
X84118057Y-62336313D01*
X84118059Y-62336313D01*
X84277690Y-62280456D01*
X84277692Y-62280454D01*
X84277694Y-62280454D01*
X84277697Y-62280452D01*
X84420884Y-62190481D01*
X84420885Y-62190480D01*
X84420890Y-62190477D01*
X84540477Y-62070890D01*
X84548342Y-62058371D01*
X84600673Y-62012079D01*
X84639453Y-62001119D01*
X84718196Y-61992247D01*
X84779249Y-61985369D01*
X84779252Y-61985368D01*
X84779255Y-61985368D01*
X84949522Y-61925789D01*
X85102262Y-61829816D01*
X85229816Y-61702262D01*
X85325789Y-61549522D01*
X85377557Y-61401577D01*
X97749500Y-61401577D01*
X97749500Y-61598422D01*
X97780290Y-61792826D01*
X97841117Y-61980029D01*
X97904566Y-62104554D01*
X97930476Y-62155405D01*
X98046172Y-62314646D01*
X98185354Y-62453828D01*
X98344595Y-62569524D01*
X98385716Y-62590476D01*
X98519970Y-62658882D01*
X98519972Y-62658882D01*
X98519975Y-62658884D01*
X98620317Y-62691487D01*
X98707173Y-62719709D01*
X98901578Y-62750500D01*
X98901583Y-62750500D01*
X99098422Y-62750500D01*
X99292826Y-62719709D01*
X99480025Y-62658884D01*
X99655405Y-62569524D01*
X99814646Y-62453828D01*
X99953828Y-62314646D01*
X100069524Y-62155405D01*
X100158884Y-61980025D01*
X100219709Y-61792826D01*
X100224732Y-61761113D01*
X100250500Y-61598422D01*
X100250500Y-61401577D01*
X100219709Y-61207173D01*
X100171820Y-61059789D01*
X100158884Y-61019975D01*
X100158882Y-61019972D01*
X100158882Y-61019970D01*
X100081412Y-60867927D01*
X100069524Y-60844595D01*
X99953828Y-60685354D01*
X99814646Y-60546172D01*
X99655405Y-60430476D01*
X99480029Y-60341117D01*
X99292826Y-60280290D01*
X99098422Y-60249500D01*
X99098417Y-60249500D01*
X98901583Y-60249500D01*
X98901578Y-60249500D01*
X98707173Y-60280290D01*
X98519970Y-60341117D01*
X98344594Y-60430476D01*
X98284399Y-60474211D01*
X98185354Y-60546172D01*
X98185352Y-60546174D01*
X98185351Y-60546174D01*
X98046174Y-60685351D01*
X98046174Y-60685352D01*
X98046172Y-60685354D01*
X98018069Y-60724034D01*
X97930476Y-60844594D01*
X97841117Y-61019970D01*
X97780290Y-61207173D01*
X97749500Y-61401577D01*
X85377557Y-61401577D01*
X85385368Y-61379255D01*
X85385369Y-61379249D01*
X85405565Y-61200003D01*
X85405565Y-61199996D01*
X85385369Y-61020750D01*
X85385367Y-61020740D01*
X85381470Y-61009604D01*
X85377907Y-60939825D01*
X85412635Y-60879198D01*
X85474628Y-60846970D01*
X85544204Y-60853374D01*
X85580738Y-60875832D01*
X85699150Y-60980736D01*
X85849773Y-61059789D01*
X85849775Y-61059790D01*
X86014944Y-61100500D01*
X86185056Y-61100500D01*
X86350225Y-61059790D01*
X86429692Y-61018081D01*
X86500849Y-60980736D01*
X86500850Y-60980734D01*
X86500852Y-60980734D01*
X86628183Y-60867929D01*
X86724818Y-60727930D01*
X86785140Y-60568872D01*
X86805645Y-60400000D01*
X86785140Y-60231128D01*
X86724818Y-60072070D01*
X86628183Y-59932071D01*
X86500852Y-59819266D01*
X86500849Y-59819263D01*
X86350226Y-59740210D01*
X86185056Y-59699500D01*
X86014944Y-59699500D01*
X85849773Y-59740210D01*
X85699150Y-59819263D01*
X85571816Y-59932072D01*
X85475182Y-60072068D01*
X85414860Y-60231125D01*
X85414859Y-60231130D01*
X85394355Y-60400000D01*
X85414929Y-60569447D01*
X85403468Y-60638370D01*
X85356564Y-60690156D01*
X85289109Y-60708363D01*
X85222518Y-60687210D01*
X85204152Y-60672074D01*
X85102262Y-60570184D01*
X84949523Y-60474211D01*
X84779254Y-60414631D01*
X84779249Y-60414630D01*
X84600004Y-60394435D01*
X84599996Y-60394435D01*
X84420750Y-60414630D01*
X84420745Y-60414631D01*
X84250476Y-60474211D01*
X84097737Y-60570184D01*
X83970182Y-60697739D01*
X83904078Y-60802943D01*
X83851743Y-60849234D01*
X83812972Y-60860190D01*
X83796582Y-60862037D01*
X83781941Y-60863687D01*
X83781940Y-60863687D01*
X83622307Y-60919544D01*
X83622302Y-60919547D01*
X83479115Y-61009518D01*
X83479109Y-61009523D01*
X83359525Y-61129107D01*
X83359519Y-61129114D01*
X83321437Y-61189720D01*
X83269102Y-61236010D01*
X83230329Y-61246966D01*
X83081944Y-61263685D01*
X82922305Y-61319545D01*
X82922302Y-61319547D01*
X82779112Y-61409520D01*
X82779108Y-61409523D01*
X82775918Y-61412714D01*
X82714593Y-61446195D01*
X82644901Y-61441206D01*
X82588970Y-61399331D01*
X82581065Y-61387390D01*
X81750645Y-59960228D01*
X80699170Y-58153161D01*
X82439197Y-58153161D01*
X82439197Y-58153169D01*
X82448674Y-58334005D01*
X82448675Y-58334012D01*
X82486327Y-58511144D01*
X82551221Y-58680203D01*
X82551226Y-58680212D01*
X82647887Y-58847633D01*
X82791770Y-59096846D01*
X82791773Y-59096850D01*
X82791776Y-59096854D01*
X82905733Y-59237580D01*
X82905734Y-59237582D01*
X83040310Y-59358755D01*
X83040315Y-59358759D01*
X83192189Y-59457386D01*
X83192194Y-59457389D01*
X83316599Y-59512778D01*
X83357626Y-59531045D01*
X83357627Y-59531045D01*
X83357629Y-59531046D01*
X83415933Y-59546668D01*
X83532549Y-59577915D01*
X83712649Y-59596844D01*
X83893494Y-59587367D01*
X84070630Y-59549715D01*
X84239694Y-59484817D01*
X84396524Y-59394271D01*
X84537260Y-59280306D01*
X84658435Y-59145729D01*
X84757066Y-58993851D01*
X84830723Y-58828415D01*
X84877593Y-58653493D01*
X84896522Y-58473393D01*
X84887045Y-58292548D01*
X84886516Y-58290061D01*
X84859217Y-58161629D01*
X84864533Y-58091962D01*
X84906670Y-58036229D01*
X84972249Y-58012123D01*
X85040451Y-58027300D01*
X85087894Y-58073848D01*
X85233108Y-58325367D01*
X85233113Y-58325375D01*
X85286541Y-58396670D01*
X85286542Y-58396671D01*
X85286543Y-58396672D01*
X85405010Y-58490832D01*
X85453151Y-58511094D01*
X85544487Y-58549537D01*
X85569744Y-58552716D01*
X85694633Y-58568436D01*
X85844308Y-58546125D01*
X85926230Y-58511094D01*
X87040116Y-57867992D01*
X87111415Y-57814561D01*
X87205574Y-57696094D01*
X87264280Y-57556615D01*
X87283178Y-57406471D01*
X87260867Y-57256795D01*
X87225836Y-57174873D01*
X86432734Y-55801181D01*
X86379303Y-55729882D01*
X86260836Y-55635722D01*
X86260834Y-55635721D01*
X86121358Y-55577016D01*
X85971215Y-55558118D01*
X85971211Y-55558118D01*
X85821539Y-55580428D01*
X85821537Y-55580429D01*
X85739624Y-55615456D01*
X85739610Y-55615463D01*
X84625735Y-56258558D01*
X84625727Y-56258563D01*
X84554432Y-56311991D01*
X84554431Y-56311992D01*
X84460271Y-56430461D01*
X84401565Y-56569938D01*
X84382668Y-56720077D01*
X84382668Y-56720081D01*
X84404978Y-56869757D01*
X84404979Y-56869759D01*
X84440006Y-56951672D01*
X84440013Y-56951687D01*
X84585226Y-57203203D01*
X84601699Y-57271103D01*
X84578846Y-57337130D01*
X84523925Y-57380321D01*
X84454372Y-57386962D01*
X84394866Y-57357352D01*
X84295410Y-57267800D01*
X84295404Y-57267795D01*
X84143533Y-57169170D01*
X83978091Y-57095510D01*
X83978092Y-57095510D01*
X83803175Y-57048641D01*
X83803174Y-57048640D01*
X83803171Y-57048640D01*
X83623071Y-57029711D01*
X83623068Y-57029711D01*
X83442228Y-57039188D01*
X83442221Y-57039189D01*
X83265089Y-57076841D01*
X83096029Y-57141736D01*
X82939201Y-57232280D01*
X82939197Y-57232282D01*
X82939195Y-57232284D01*
X82891258Y-57271103D01*
X82798457Y-57346251D01*
X82677286Y-57480823D01*
X82677281Y-57480829D01*
X82578656Y-57632700D01*
X82504996Y-57798142D01*
X82474883Y-57910526D01*
X82458126Y-57973063D01*
X82452426Y-58027300D01*
X82439197Y-58153161D01*
X80699170Y-58153161D01*
X79792246Y-56594520D01*
X79775545Y-56526678D01*
X79798174Y-56460574D01*
X79819619Y-56437252D01*
X80061062Y-56234246D01*
X80064757Y-56231262D01*
X80720597Y-55722211D01*
X80724423Y-55719359D01*
X81399674Y-55236311D01*
X81403633Y-55233594D01*
X82097199Y-54777331D01*
X82101295Y-54774750D01*
X82296640Y-54656913D01*
X82812191Y-54345919D01*
X82816325Y-54343535D01*
X83543453Y-53942800D01*
X83547629Y-53940604D01*
X84289898Y-53568570D01*
X84294180Y-53566528D01*
X85050398Y-53223795D01*
X85054767Y-53221916D01*
X85823799Y-52908995D01*
X85828252Y-52907284D01*
X86131150Y-52797623D01*
X86200883Y-52793311D01*
X86261880Y-52827386D01*
G37*
%TD.AperFunction*%
%TD*%
M02*
