%TF.GenerationSoftware,KiCad,Pcbnew,8.0.2*%
%TF.CreationDate,2024-10-23T20:02:11+03:00*%
%TF.ProjectId,PowerServo AE 36V 3.6A 30D,506f7765-7253-4657-9276-6f2041452033,rev?*%
%TF.SameCoordinates,Original*%
%TF.FileFunction,Paste,Top*%
%TF.FilePolarity,Positive*%
%FSLAX46Y46*%
G04 Gerber Fmt 4.6, Leading zero omitted, Abs format (unit mm)*
G04 Created by KiCad (PCBNEW 8.0.2) date 2024-10-23 20:02:11*
%MOMM*%
%LPD*%
G01*
G04 APERTURE LIST*
G04 Aperture macros list*
%AMRoundRect*
0 Rectangle with rounded corners*
0 $1 Rounding radius*
0 $2 $3 $4 $5 $6 $7 $8 $9 X,Y pos of 4 corners*
0 Add a 4 corners polygon primitive as box body*
4,1,4,$2,$3,$4,$5,$6,$7,$8,$9,$2,$3,0*
0 Add four circle primitives for the rounded corners*
1,1,$1+$1,$2,$3*
1,1,$1+$1,$4,$5*
1,1,$1+$1,$6,$7*
1,1,$1+$1,$8,$9*
0 Add four rect primitives between the rounded corners*
20,1,$1+$1,$2,$3,$4,$5,0*
20,1,$1+$1,$4,$5,$6,$7,0*
20,1,$1+$1,$6,$7,$8,$9,0*
20,1,$1+$1,$8,$9,$2,$3,0*%
G04 Aperture macros list end*
%ADD10RoundRect,0.140000X0.170000X-0.140000X0.170000X0.140000X-0.170000X0.140000X-0.170000X-0.140000X0*%
%ADD11RoundRect,0.125000X-0.625000X-0.125000X0.625000X-0.125000X0.625000X0.125000X-0.625000X0.125000X0*%
%ADD12RoundRect,0.125000X-0.125000X-0.625000X0.125000X-0.625000X0.125000X0.625000X-0.125000X0.625000X0*%
%ADD13RoundRect,0.135000X-0.185000X0.135000X-0.185000X-0.135000X0.185000X-0.135000X0.185000X0.135000X0*%
%ADD14RoundRect,0.135000X-0.135000X-0.185000X0.135000X-0.185000X0.135000X0.185000X-0.135000X0.185000X0*%
%ADD15RoundRect,0.147500X0.147500X0.172500X-0.147500X0.172500X-0.147500X-0.172500X0.147500X-0.172500X0*%
G04 APERTURE END LIST*
D10*
%TO.C,C3*%
X86750000Y-71480000D03*
X86750000Y-70520000D03*
%TD*%
D11*
%TO.C,U7*%
X89325000Y-69950000D03*
X89325000Y-70750000D03*
X89325000Y-71550000D03*
X89325000Y-72350000D03*
X89325000Y-73150000D03*
X89325000Y-73950000D03*
X89325000Y-74750000D03*
X89325000Y-75550000D03*
D12*
X90700000Y-76925000D03*
X91500000Y-76925000D03*
X92300000Y-76925000D03*
X93100000Y-76925000D03*
X93900000Y-76925000D03*
X94700000Y-76925000D03*
X95500000Y-76925000D03*
X96300000Y-76925000D03*
D11*
X97675000Y-75550000D03*
X97675000Y-74750000D03*
X97675000Y-73950000D03*
X97675000Y-73150000D03*
X97675000Y-72350000D03*
X97675000Y-71550000D03*
X97675000Y-70750000D03*
X97675000Y-69950000D03*
D12*
X96300000Y-68575000D03*
X95500000Y-68575000D03*
X94700000Y-68575000D03*
X93900000Y-68575000D03*
X93100000Y-68575000D03*
X92300000Y-68575000D03*
X91500000Y-68575000D03*
X90700000Y-68575000D03*
%TD*%
D13*
%TO.C,R3*%
X100249999Y-67240000D03*
X100250001Y-68260000D03*
%TD*%
%TO.C,R4*%
X94750001Y-78490000D03*
X94749999Y-79510000D03*
%TD*%
D10*
%TO.C,C4*%
X87750000Y-71480000D03*
X87750000Y-70520000D03*
%TD*%
D14*
%TO.C,R1*%
X86205000Y-77381751D03*
X87225000Y-77381749D03*
%TD*%
D15*
%TO.C,D2*%
X93234998Y-80500000D03*
X92265002Y-80500000D03*
%TD*%
D13*
%TO.C,R5*%
X92250002Y-78480000D03*
X92250000Y-79500000D03*
%TD*%
D15*
%TO.C,D1*%
X95969996Y-80500000D03*
X95000000Y-80500000D03*
%TD*%
M02*
