M48
; DRILL file {KiCad 8.0.4} date 2024-10-21T16:59:23+0300
; FORMAT={-:-/ absolute / inch / decimal}
; #@! TF.CreationDate,2024-10-21T16:59:23+03:00
; #@! TF.GenerationSoftware,Kicad,Pcbnew,8.0.4
; #@! TF.FileFunction,Plated,1,4,PTH
FMAT,2
INCH
; #@! TA.AperFunction,Plated,PTH,ComponentDrill
T1C0.0079
; #@! TA.AperFunction,Plated,PTH,ViaDrill
T2C0.0118
; #@! TA.AperFunction,Plated,PTH,ViaDrill
T3C0.0236
; #@! TA.AperFunction,Plated,PTH,ComponentDrill
T4C0.0256
; #@! TA.AperFunction,Plated,PTH,ComponentDrill
T5C0.0394
; #@! TA.AperFunction,Plated,PTH,ComponentDrill
T6C0.0689
; #@! TA.AperFunction,Plated,PTH,ComponentDrill
T7C0.0709
%
G90
G05
T1
X3.7643Y-3.315
X3.7643Y-3.3583
X4.0719Y-3.1189
X4.0719Y-3.2
X4.0719Y-3.1594
T2
X3.1496Y-2.7953
X3.1496Y-2.9528
X3.1634Y-2.6949
X3.1634Y-2.7264
X3.1693Y-2.9331
X3.1693Y-2.9724
X3.1811Y-3.1181
X3.189Y-2.9528
X3.1949Y-2.2224
X3.1949Y-2.2539
X3.1949Y-2.6319
X3.1949Y-2.6634
X3.1949Y-2.6949
X3.1949Y-2.7264
X3.2087Y-2.7953
X3.2087Y-2.9331
X3.2264Y-2.1909
X3.2264Y-2.2224
X3.2264Y-2.2539
X3.2264Y-2.2854
X3.2264Y-2.3169
X3.2264Y-2.5689
X3.2264Y-2.6004
X3.2264Y-2.6319
X3.2264Y-2.6634
X3.2264Y-2.6949
X3.2579Y-2.1909
X3.2579Y-2.2224
X3.2579Y-2.3799
X3.2579Y-2.5374
X3.2579Y-2.5689
X3.2579Y-2.6004
X3.2579Y-2.6319
X3.2579Y-2.6634
X3.2677Y-3.0394
X3.2677Y-3.0787
X3.2894Y-2.1594
X3.2894Y-2.1909
X3.2894Y-2.2224
X3.2894Y-2.5059
X3.2894Y-2.5374
X3.2894Y-2.5689
X3.2894Y-2.6004
X3.2894Y-2.6319
X3.3071Y-3.0787
X3.3209Y-2.1594
X3.3209Y-2.1909
X3.3209Y-2.5059
X3.3209Y-2.5374
X3.3209Y-2.5689
X3.3209Y-2.6004
X3.3209Y-2.6319
X3.3307Y-3.2992
X3.3366Y-2.8248
X3.3366Y-2.8642
X3.3366Y-2.9035
X3.3465Y-3.0787
X3.3524Y-2.128
X3.3524Y-2.1594
X3.3524Y-2.4744
X3.3524Y-2.5059
X3.3524Y-2.5374
X3.3524Y-2.5689
X3.3524Y-2.6004
X3.3524Y-2.6319
X3.3563Y-2.8445
X3.3563Y-2.8839
X3.3593Y-2.7136
X3.3602Y-3.0415
X3.376Y-2.8642
X3.376Y-2.9035
X3.378Y-3.3307
X3.3839Y-2.128
X3.3839Y-2.1594
X3.3839Y-2.6004
X3.3957Y-2.6969
X3.3957Y-2.8445
X3.3957Y-2.8839
X3.4035Y-3.0827
X3.4154Y-2.1594
X3.4154Y-2.6004
X3.4154Y-2.8642
X3.4154Y-2.9035
X3.419Y-2.6756
X3.4252Y-3.1024
X3.4252Y-3.1417
X3.4341Y-3.0827
X3.435Y-2.8445
X3.435Y-2.8839
X3.4469Y-2.2224
X3.4469Y-3.3563
X3.4567Y-3.0945
X3.4656Y-3.0453
X3.4843Y-3.0709
X3.4882Y-3.1024
X3.499Y-2.7018
X3.5098Y-2.3799
X3.5335Y-2.6181
X3.5413Y-2.3799
X3.5413Y-3.3878
X3.5728Y-2.3484
X3.5728Y-2.3799
X3.5728Y-3.3878
X3.5748Y-2.937
X3.5789Y-2.6179
X3.5827Y-3.3071
X3.5925Y-2.5787
X3.5936Y-2.9103
X3.5984Y-2.7953
X3.6031Y-2.9793
X3.6043Y-2.3484
X3.6043Y-3.3878
X3.6063Y-2.7559
X3.6358Y-2.3484
X3.6358Y-3.3878
X3.6417Y-3.2579
X3.6538Y-2.5723
X3.6614Y-2.8445
X3.6614Y-2.8839
X3.6673Y-2.3484
X3.6673Y-3.3878
X3.6713Y-2.9528
X3.6811Y-2.8642
X3.685Y-2.7638
X3.6909Y-3.2677
X3.6988Y-2.3484
X3.6988Y-2.3799
X3.7008Y-2.8445
X3.7008Y-2.8839
X3.7153Y-2.9526
X3.7244Y-2.7638
X3.7303Y-2.3484
X3.7303Y-2.3799
X3.7303Y-2.4114
X3.7402Y-2.6476
X3.7618Y-2.3484
X3.7618Y-2.3799
X3.7618Y-2.4114
X3.763Y-2.9783
X3.7638Y-2.7638
X3.7697Y-3.0807
X3.7933Y-2.3484
X3.7933Y-2.3799
X3.7933Y-2.4114
X3.8248Y-2.3484
X3.8248Y-2.3799
X3.8248Y-2.4114
X3.8248Y-2.4429
X3.8272Y-2.7232
X3.855Y-2.542
X3.8563Y-2.3484
X3.8785Y-2.5934
X3.8878Y-3.3563
X3.9149Y-2.7547
X3.9281Y-3.187
X3.9567Y-2.7461
X3.9577Y-3.1181
X3.9823Y-2.4114
X3.9823Y-2.4429
X3.9823Y-2.4744
X4.0032Y-2.6843
X4.0138Y-2.4429
X4.0138Y-2.4744
X4.0138Y-3.0728
X4.0138Y-3.2618
X4.0138Y-3.2933
X4.0453Y-2.4744
X4.0453Y-3.0728
X4.0453Y-3.2618
X4.0768Y-3.0728
X4.1437Y-3.0807
X4.189Y-2.6378
X4.4547Y-2.9469
X4.4547Y-2.9783
X4.4547Y-3.0098
X4.4547Y-3.0413
T3
X4.252Y-2.6969
X4.252Y-2.7461
X4.252Y-2.7953
X4.252Y-2.8445
X4.252Y-2.8937
X4.252Y-2.937
X4.252Y-2.9823
X4.252Y-3.0315
X4.252Y-3.0807
T4
X4.024Y-2.5484
X4.024Y-2.5984
X4.074Y-2.5484
X4.074Y-2.5984
X4.124Y-2.5484
X4.124Y-2.5984
T5
X3.294Y-2.2958
X3.3792Y-2.2466
X3.4327Y-2.537
X3.5179Y-2.4877
T6
X3.3445Y-3.1673
X3.5138Y-3.1949
T7
X4.0945Y-2.7854
X4.0945Y-2.9823
X4.3701Y-2.7854
X4.3701Y-2.9823
M30
