%TF.GenerationSoftware,KiCad,Pcbnew,8.0.4*%
%TF.CreationDate,2024-10-21T16:59:15+03:00*%
%TF.ProjectId,PowerServo AE 36V 3.6A 30D,506f7765-7253-4657-9276-6f2041452033,rev?*%
%TF.SameCoordinates,Original*%
%TF.FileFunction,Paste,Bot*%
%TF.FilePolarity,Positive*%
%FSLAX46Y46*%
G04 Gerber Fmt 4.6, Leading zero omitted, Abs format (unit mm)*
G04 Created by KiCad (PCBNEW 8.0.4) date 2024-10-21 16:59:15*
%MOMM*%
%LPD*%
G01*
G04 APERTURE LIST*
G04 Aperture macros list*
%AMRoundRect*
0 Rectangle with rounded corners*
0 $1 Rounding radius*
0 $2 $3 $4 $5 $6 $7 $8 $9 X,Y pos of 4 corners*
0 Add a 4 corners polygon primitive as box body*
4,1,4,$2,$3,$4,$5,$6,$7,$8,$9,$2,$3,0*
0 Add four circle primitives for the rounded corners*
1,1,$1+$1,$2,$3*
1,1,$1+$1,$4,$5*
1,1,$1+$1,$6,$7*
1,1,$1+$1,$8,$9*
0 Add four rect primitives between the rounded corners*
20,1,$1+$1,$2,$3,$4,$5,0*
20,1,$1+$1,$4,$5,$6,$7,0*
20,1,$1+$1,$6,$7,$8,$9,0*
20,1,$1+$1,$8,$9,$2,$3,0*%
G04 Aperture macros list end*
%ADD10RoundRect,0.140000X-0.140000X-0.170000X0.140000X-0.170000X0.140000X0.170000X-0.140000X0.170000X0*%
%ADD11RoundRect,0.250000X0.650000X-0.325000X0.650000X0.325000X-0.650000X0.325000X-0.650000X-0.325000X0*%
%ADD12RoundRect,0.250000X-0.650000X0.325000X-0.650000X-0.325000X0.650000X-0.325000X0.650000X0.325000X0*%
%ADD13RoundRect,0.140000X0.170000X-0.140000X0.170000X0.140000X-0.170000X0.140000X-0.170000X-0.140000X0*%
%ADD14RoundRect,0.225000X-0.250000X0.225000X-0.250000X-0.225000X0.250000X-0.225000X0.250000X0.225000X0*%
%ADD15RoundRect,0.172500X-0.262500X-0.172500X0.262500X-0.172500X0.262500X0.172500X-0.262500X0.172500X0*%
%ADD16RoundRect,0.093750X-0.093750X-0.106250X0.093750X-0.106250X0.093750X0.106250X-0.093750X0.106250X0*%
%ADD17R,0.650000X1.525000*%
%ADD18R,3.400000X2.710000*%
%ADD19RoundRect,0.140000X0.077224X-0.206244X0.217224X0.036244X-0.077224X0.206244X-0.217224X-0.036244X0*%
%ADD20RoundRect,0.140000X-0.170000X0.140000X-0.170000X-0.140000X0.170000X-0.140000X0.170000X0.140000X0*%
%ADD21RoundRect,0.150000X0.789471X-0.282596X-0.639471X0.542404X-0.789471X0.282596X0.639471X-0.542404X0*%
%ADD22RoundRect,0.177500X0.177500X0.177500X-0.177500X0.177500X-0.177500X-0.177500X0.177500X-0.177500X0*%
%ADD23RoundRect,0.062500X0.325000X0.062500X-0.325000X0.062500X-0.325000X-0.062500X0.325000X-0.062500X0*%
%ADD24RoundRect,0.062500X0.062500X0.325000X-0.062500X0.325000X-0.062500X-0.325000X0.062500X-0.325000X0*%
%ADD25RoundRect,0.162500X0.162500X0.287500X-0.162500X0.287500X-0.162500X-0.287500X0.162500X-0.287500X0*%
%ADD26RoundRect,0.112500X0.287500X0.112500X-0.287500X0.112500X-0.287500X-0.112500X0.287500X-0.112500X0*%
G04 APERTURE END LIST*
D10*
%TO.C,C10*%
X89520000Y-68000000D03*
X90480000Y-68000000D03*
%TD*%
D11*
%TO.C,C7*%
X92250000Y-83724999D03*
X92250000Y-80775001D03*
%TD*%
D12*
%TO.C,C2*%
X106250000Y-69300000D03*
X106250000Y-72250000D03*
%TD*%
D13*
%TO.C,C6*%
X93657501Y-84780002D03*
X93657501Y-83820002D03*
%TD*%
D14*
%TO.C,C11*%
X87900000Y-66474999D03*
X87900000Y-68025001D03*
%TD*%
D15*
%TO.C,U2*%
X95612499Y-84350003D03*
X95612501Y-85149999D03*
D16*
X94725000Y-85400001D03*
X94725000Y-84750002D03*
X94725000Y-84100001D03*
X96500000Y-84100001D03*
X96500000Y-84750000D03*
X96500000Y-85400001D03*
%TD*%
D17*
%TO.C,IC1*%
X84064998Y-70050998D03*
X85334999Y-70050999D03*
X86604999Y-70050999D03*
X87874998Y-70050998D03*
X87875000Y-75475000D03*
X86604999Y-75474999D03*
X85334999Y-75474999D03*
X84065000Y-75475000D03*
D18*
X85969999Y-72762999D03*
%TD*%
D19*
%TO.C,C9*%
X91760000Y-66415692D03*
X92240000Y-65584308D03*
%TD*%
D20*
%TO.C,C1*%
X100525000Y-79970000D03*
X100525000Y-80930000D03*
%TD*%
D21*
%TO.C,U5*%
X99975003Y-65420443D03*
X99340003Y-66520295D03*
X98705003Y-67620147D03*
X98070000Y-68720000D03*
X93783177Y-66244999D03*
X94418177Y-65145147D03*
X95053177Y-64045295D03*
X95688180Y-62945442D03*
%TD*%
D22*
%TO.C,U4*%
X93940000Y-73190000D03*
X93940000Y-72310000D03*
X93060000Y-73190000D03*
X93060000Y-72310000D03*
D23*
X94962500Y-72000000D03*
X94962500Y-72500000D03*
X94962500Y-73000000D03*
X94962500Y-73500000D03*
D24*
X94250000Y-74212500D03*
X93750000Y-74212500D03*
X93250000Y-74212500D03*
X92750000Y-74212500D03*
D23*
X92037500Y-73500000D03*
X92037500Y-73000000D03*
X92037500Y-72500000D03*
X92037500Y-72000000D03*
D24*
X92750000Y-71287500D03*
X93250000Y-71287500D03*
X93750000Y-71287500D03*
X94250000Y-71287500D03*
%TD*%
D14*
%TO.C,C8*%
X96750000Y-76724999D03*
X96750000Y-78275001D03*
%TD*%
D20*
%TO.C,R2*%
X92500000Y-63270000D03*
X92500000Y-64230000D03*
%TD*%
D25*
%TO.C,U1*%
X103425003Y-80250000D03*
X103424999Y-81219996D03*
X103424999Y-79280000D03*
D26*
X104775000Y-79050000D03*
X104775001Y-79650000D03*
X104775000Y-80250000D03*
X104775000Y-80850002D03*
X104775000Y-81450000D03*
X101725000Y-81450000D03*
X101724999Y-80850000D03*
X101725000Y-80250000D03*
X101725000Y-79649998D03*
X101725000Y-79050000D03*
%TD*%
D20*
%TO.C,C5*%
X97407499Y-83820003D03*
X97407499Y-84780003D03*
%TD*%
M02*
