M48
; DRILL file {KiCad 8.0.2} date 2024-10-23T20:47:32+0300
; FORMAT={-:-/ absolute / inch / decimal}
; #@! TF.CreationDate,2024-10-23T20:47:32+03:00
; #@! TF.GenerationSoftware,Kicad,Pcbnew,8.0.2
; #@! TF.FileFunction,Plated,1,4,PTH
FMAT,2
INCH
; #@! TA.AperFunction,Plated,PTH,ViaDrill
T1C0.0079
; #@! TA.AperFunction,Plated,PTH,ComponentDrill
T2C0.0079
; #@! TA.AperFunction,Plated,PTH,ViaDrill
T3C0.0118
; #@! TA.AperFunction,Plated,PTH,ComponentDrill
T4C0.0256
; #@! TA.AperFunction,Plated,PTH,ComponentDrill
T5C0.0374
; #@! TA.AperFunction,Plated,PTH,ComponentDrill
T6C0.0394
; #@! TA.AperFunction,Plated,PTH,ComponentDrill
T7C0.0689
; #@! TA.AperFunction,Plated,PTH,ComponentDrill
T8C0.0709
%
G90
G05
T1
X3.4547Y-2.6969
T2
X3.6122Y-2.5701
X3.6122Y-2.5295
X3.6122Y-2.6106
X3.6757Y-2.7866
X3.6757Y-2.8299
T3
X3.3898Y-2.3307
X3.3898Y-2.3622
X3.3898Y-2.3937
X3.3898Y-2.4252
X3.3898Y-2.4567
X3.3898Y-2.4882
X3.3898Y-2.5197
X3.3898Y-2.5512
X3.3898Y-2.5827
X3.3898Y-2.6142
X3.3898Y-2.7717
X3.3898Y-2.8031
X3.3898Y-2.8346
X3.3898Y-2.8661
X3.3898Y-2.8976
X3.3898Y-2.9291
X3.3898Y-3.0551
X3.3898Y-3.0866
X3.3898Y-3.2126
X3.3898Y-3.3386
X3.3898Y-3.3701
X3.3898Y-3.4016
X3.3898Y-3.4331
X3.3898Y-3.4646
X3.3898Y-3.4961
X3.3898Y-3.5276
X3.3898Y-3.5591
X3.3898Y-3.5906
X3.3898Y-3.622
X3.3898Y-3.6535
X3.3898Y-3.685
X3.3898Y-3.7165
X3.3898Y-3.748
X3.3898Y-3.7795
X3.3898Y-3.811
X3.3898Y-3.8425
X3.3898Y-3.874
X3.3898Y-3.9055
X3.3898Y-3.937
X3.3898Y-3.9685
X3.3898Y-4.0
X3.3898Y-4.0315
X3.3898Y-4.063
X3.4213Y-2.3307
X3.4213Y-2.3622
X3.4213Y-2.3937
X3.4213Y-2.4252
X3.4213Y-2.4567
X3.4213Y-2.5512
X3.4213Y-2.9291
X3.4213Y-3.2126
X3.4213Y-3.3701
X3.4213Y-3.4016
X3.4213Y-3.4331
X3.4213Y-3.4646
X3.4213Y-3.4961
X3.4213Y-3.5276
X3.4213Y-3.5591
X3.4213Y-3.5906
X3.4213Y-3.622
X3.4213Y-3.6535
X3.4213Y-3.685
X3.4213Y-3.7165
X3.4213Y-3.748
X3.4213Y-3.7795
X3.4213Y-3.811
X3.4213Y-3.8425
X3.4213Y-3.937
X3.4213Y-3.9685
X3.4213Y-4.0
X3.4213Y-4.0315
X3.4213Y-4.063
X3.4252Y-2.6969
X3.4449Y-2.6673
X3.4528Y-2.3307
X3.4528Y-2.3622
X3.4528Y-2.3937
X3.4528Y-2.4252
X3.4528Y-2.4567
X3.4528Y-2.5512
X3.4528Y-3.4016
X3.4528Y-3.4331
X3.4528Y-3.4646
X3.4528Y-3.4961
X3.4528Y-3.5276
X3.4528Y-3.5591
X3.4528Y-3.5906
X3.4528Y-3.622
X3.4528Y-3.6535
X3.4528Y-3.685
X3.4528Y-3.7165
X3.4528Y-3.748
X3.4528Y-3.7795
X3.4528Y-3.811
X3.4528Y-3.9685
X3.4528Y-4.0
X3.4528Y-4.0315
X3.4528Y-4.063
X3.4744Y-2.6673
X3.4843Y-2.3307
X3.4843Y-2.3622
X3.4843Y-2.3937
X3.4843Y-2.4252
X3.4843Y-2.4567
X3.4843Y-2.6969
X3.4843Y-2.9921
X3.4843Y-3.4331
X3.4843Y-3.4646
X3.4843Y-3.4961
X3.4843Y-3.5276
X3.4843Y-3.5591
X3.4843Y-3.5906
X3.4843Y-3.622
X3.4843Y-3.6535
X3.4843Y-3.685
X3.4843Y-3.7165
X3.4843Y-3.748
X3.4843Y-3.7795
X3.4843Y-3.811
X3.4843Y-3.9685
X3.4843Y-4.0
X3.4843Y-4.0315
X3.4843Y-4.063
X3.5157Y-2.2362
X3.5157Y-2.2677
X3.5157Y-2.2992
X3.5157Y-2.3307
X3.5157Y-2.3622
X3.5157Y-2.3937
X3.5157Y-2.4252
X3.5157Y-2.4567
X3.5157Y-2.4882
X3.5157Y-2.5197
X3.5157Y-2.7717
X3.5157Y-3.3071
X3.5157Y-3.4646
X3.5157Y-3.4961
X3.5157Y-3.5276
X3.5157Y-3.5591
X3.5157Y-3.5906
X3.5157Y-3.622
X3.5157Y-3.6535
X3.5157Y-3.685
X3.5157Y-3.7165
X3.5157Y-3.748
X3.5157Y-3.7795
X3.5157Y-3.811
X3.5157Y-3.9685
X3.5157Y-4.0
X3.5157Y-4.0315
X3.5157Y-4.063
X3.5335Y-2.9921
X3.5335Y-3.1206
X3.5472Y-2.2362
X3.5472Y-2.2677
X3.5472Y-2.2992
X3.5472Y-2.3307
X3.5472Y-2.3622
X3.5472Y-2.3937
X3.5472Y-2.4252
X3.5472Y-2.4567
X3.5472Y-2.4882
X3.5472Y-3.3071
X3.5472Y-3.3386
X3.5472Y-3.4961
X3.5472Y-3.5276
X3.5472Y-3.5591
X3.5472Y-3.5906
X3.5472Y-3.622
X3.5472Y-3.6535
X3.5472Y-3.685
X3.5472Y-3.7165
X3.5472Y-3.748
X3.5472Y-3.7795
X3.5472Y-3.811
X3.5472Y-3.8425
X3.5472Y-3.937
X3.5472Y-3.9685
X3.5472Y-4.0
X3.5472Y-4.0315
X3.5472Y-4.063
X3.563Y-2.8445
X3.5787Y-2.2362
X3.5787Y-2.2677
X3.5787Y-2.2992
X3.5787Y-2.3307
X3.5787Y-2.3622
X3.5787Y-2.3937
X3.5787Y-2.4252
X3.5787Y-2.4567
X3.5787Y-2.4882
X3.5787Y-3.3071
X3.5787Y-3.3386
X3.5787Y-3.3701
X3.5787Y-3.5276
X3.5787Y-3.5591
X3.5787Y-3.5906
X3.5787Y-3.622
X3.5787Y-3.6535
X3.5787Y-3.685
X3.5787Y-3.7165
X3.5787Y-3.748
X3.5787Y-3.7795
X3.5787Y-3.811
X3.5787Y-3.8425
X3.5787Y-3.874
X3.5787Y-3.9055
X3.5787Y-3.937
X3.5787Y-3.9685
X3.5787Y-4.0
X3.5787Y-4.0315
X3.5787Y-4.063
X3.6102Y-2.2362
X3.6102Y-2.2677
X3.6102Y-2.2992
X3.6102Y-2.3307
X3.6102Y-2.3622
X3.6102Y-2.3937
X3.6102Y-2.4252
X3.6102Y-2.4567
X3.6102Y-2.4882
X3.6102Y-3.3071
X3.6102Y-3.3386
X3.6102Y-3.3701
X3.6102Y-3.4016
X3.6102Y-3.5591
X3.6102Y-3.5906
X3.6102Y-3.622
X3.6102Y-3.6535
X3.6102Y-3.685
X3.6102Y-3.7165
X3.6102Y-3.748
X3.6102Y-3.7795
X3.6102Y-3.811
X3.6102Y-3.8425
X3.6102Y-3.874
X3.6102Y-3.9055
X3.6102Y-3.937
X3.6102Y-3.9685
X3.6102Y-4.0
X3.6102Y-4.0315
X3.6102Y-4.063
X3.6319Y-2.8937
X3.6417Y-2.2362
X3.6417Y-2.2677
X3.6417Y-2.2992
X3.6417Y-2.3307
X3.6417Y-2.3622
X3.6417Y-2.3937
X3.6417Y-2.4252
X3.6417Y-2.4567
X3.6417Y-2.4882
X3.6417Y-2.6772
X3.6417Y-2.7402
X3.6417Y-3.3071
X3.6417Y-3.3386
X3.6417Y-3.3701
X3.6417Y-3.4016
X3.6417Y-3.4331
X3.6417Y-3.811
X3.6417Y-3.8425
X3.6417Y-3.874
X3.6417Y-3.9055
X3.6417Y-3.937
X3.6417Y-3.9685
X3.6417Y-4.0
X3.6417Y-4.0315
X3.6417Y-4.063
X3.6614Y-3.1791
X3.6713Y-3.6024
X3.6732Y-2.2362
X3.6732Y-2.2677
X3.6732Y-2.2992
X3.6732Y-2.3307
X3.6732Y-2.3622
X3.6732Y-2.3937
X3.6732Y-2.4252
X3.6732Y-2.4567
X3.6732Y-2.4882
X3.6732Y-2.6772
X3.6732Y-2.7402
X3.6732Y-3.3071
X3.6732Y-3.3386
X3.6732Y-3.3701
X3.6732Y-3.4016
X3.6732Y-3.811
X3.6732Y-3.8425
X3.6732Y-3.874
X3.6732Y-3.9055
X3.6732Y-3.937
X3.6732Y-3.9685
X3.6732Y-4.0
X3.6732Y-4.0315
X3.6732Y-4.063
X3.7047Y-2.2362
X3.7047Y-2.2677
X3.7047Y-2.2992
X3.7047Y-2.3307
X3.7047Y-2.3622
X3.7047Y-2.3937
X3.7047Y-2.4252
X3.7047Y-2.4567
X3.7047Y-2.4882
X3.7047Y-2.6772
X3.7047Y-2.7402
X3.7047Y-3.3701
X3.7047Y-3.874
X3.7047Y-3.9055
X3.7047Y-3.937
X3.7047Y-3.9685
X3.7047Y-4.0
X3.7047Y-4.0315
X3.7047Y-4.063
X3.7106Y-3.0217
X3.7106Y-3.0709
X3.7106Y-3.1201
X3.7303Y-3.0413
X3.7303Y-3.1004
X3.7303Y-3.1496
X3.7362Y-2.2362
X3.7362Y-2.2677
X3.7362Y-2.2992
X3.7362Y-2.3307
X3.7362Y-2.3622
X3.7362Y-2.3937
X3.7362Y-2.4252
X3.7362Y-2.4567
X3.7362Y-2.4882
X3.7362Y-3.3701
X3.7362Y-3.9055
X3.7362Y-3.937
X3.7362Y-3.9685
X3.7362Y-4.0
X3.7362Y-4.0315
X3.7362Y-4.063
X3.75Y-3.0709
X3.75Y-3.1201
X3.7677Y-2.2362
X3.7677Y-2.2677
X3.7677Y-2.2992
X3.7677Y-2.3307
X3.7677Y-2.3622
X3.7677Y-2.3937
X3.7677Y-2.4252
X3.7677Y-2.4567
X3.7677Y-2.4882
X3.7677Y-3.3701
X3.7677Y-3.9055
X3.7677Y-3.937
X3.7677Y-3.9685
X3.7677Y-4.0
X3.7677Y-4.0315
X3.7677Y-4.063
X3.7697Y-3.1004
X3.7697Y-3.1496
X3.7745Y-2.8073
X3.7894Y-3.1201
X3.7992Y-2.2362
X3.7992Y-2.2677
X3.7992Y-2.2992
X3.7992Y-2.3307
X3.7992Y-2.3622
X3.7992Y-2.3937
X3.7992Y-2.4252
X3.7992Y-2.4567
X3.7992Y-2.4882
X3.7992Y-2.5197
X3.7992Y-2.6457
X3.7992Y-2.6772
X3.7992Y-2.7402
X3.7992Y-2.8839
X3.7992Y-3.3386
X3.7992Y-3.3701
X3.7992Y-3.5591
X3.7992Y-3.5906
X3.7992Y-3.9055
X3.7992Y-3.937
X3.7992Y-3.9685
X3.7992Y-4.0
X3.7992Y-4.0315
X3.7992Y-4.063
X3.8307Y-2.2362
X3.8307Y-2.2677
X3.8307Y-2.2992
X3.8307Y-2.3307
X3.8307Y-2.3622
X3.8307Y-2.3937
X3.8307Y-2.4252
X3.8307Y-2.4567
X3.8307Y-2.4882
X3.8307Y-2.5197
X3.8307Y-2.6457
X3.8307Y-2.7402
X3.8307Y-2.7717
X3.8307Y-2.8031
X3.8307Y-2.8346
X3.8307Y-3.5276
X3.8307Y-3.5591
X3.8307Y-3.5906
X3.8307Y-3.9055
X3.8307Y-3.937
X3.8307Y-3.9685
X3.8307Y-4.0
X3.8307Y-4.0315
X3.8307Y-4.063
X3.8622Y-2.2362
X3.8622Y-2.2677
X3.8622Y-2.2992
X3.8622Y-2.3307
X3.8622Y-2.3622
X3.8622Y-2.3937
X3.8622Y-2.4252
X3.8622Y-2.4567
X3.8622Y-2.4882
X3.8622Y-2.5197
X3.8622Y-2.7402
X3.8622Y-2.7717
X3.8622Y-2.8031
X3.8622Y-2.8346
X3.8622Y-3.748
X3.8622Y-3.7795
X3.8622Y-3.9055
X3.8622Y-3.937
X3.8622Y-3.9685
X3.8622Y-4.0
X3.8622Y-4.0315
X3.8622Y-4.063
X3.878Y-3.6516
X3.8937Y-2.2362
X3.8937Y-2.2677
X3.8937Y-2.2992
X3.8937Y-2.3307
X3.8937Y-2.3622
X3.8937Y-2.3937
X3.8937Y-2.4252
X3.8937Y-2.4567
X3.8937Y-2.4882
X3.8937Y-2.5197
X3.8937Y-2.5512
X3.8937Y-2.5827
X3.8937Y-2.7402
X3.8937Y-2.7717
X3.8937Y-3.7165
X3.8937Y-3.748
X3.8937Y-3.9055
X3.8937Y-3.937
X3.8937Y-3.9685
X3.8937Y-4.0
X3.8937Y-4.0315
X3.8937Y-4.063
X3.9173Y-3.0217
X3.9173Y-3.1398
X3.9173Y-3.1693
X3.9252Y-2.2362
X3.9252Y-2.2677
X3.9252Y-2.2992
X3.9252Y-2.3307
X3.9252Y-2.3622
X3.9252Y-2.3937
X3.9252Y-2.4252
X3.9252Y-2.4567
X3.9252Y-2.4882
X3.9252Y-2.5197
X3.9252Y-2.5512
X3.9252Y-2.7087
X3.9252Y-2.7402
X3.9252Y-3.9055
X3.9252Y-3.937
X3.9252Y-3.9685
X3.9252Y-4.0
X3.9252Y-4.0315
X3.9252Y-4.063
X3.937Y-3.8091
X3.9469Y-3.1398
X3.9567Y-2.2362
X3.9567Y-2.2677
X3.9567Y-2.2992
X3.9567Y-2.3307
X3.9567Y-2.3622
X3.9567Y-2.3937
X3.9567Y-2.4252
X3.9567Y-2.4567
X3.9567Y-2.4882
X3.9567Y-2.5197
X3.9567Y-3.1693
X3.9567Y-3.9685
X3.9567Y-4.0
X3.9567Y-4.0315
X3.9567Y-4.063
X3.9665Y-3.8287
X3.9862Y-2.5689
X3.9882Y-2.2362
X3.9882Y-2.2677
X3.9882Y-2.2992
X3.9882Y-2.3307
X3.9882Y-2.3622
X3.9882Y-2.3937
X3.9882Y-2.4252
X3.9882Y-2.4567
X3.9882Y-2.4882
X3.9882Y-2.5197
X3.9882Y-3.9685
X3.9882Y-4.0
X3.9882Y-4.0315
X3.9882Y-4.063
X4.0059Y-3.1731
X4.012Y-3.0746
X4.0197Y-2.2362
X4.0197Y-2.2677
X4.0197Y-2.2992
X4.0197Y-2.3307
X4.0197Y-2.3622
X4.0197Y-2.3937
X4.0197Y-2.4252
X4.0197Y-2.4567
X4.0197Y-2.4882
X4.0197Y-2.5197
X4.0197Y-3.9685
X4.0197Y-4.0
X4.0197Y-4.0315
X4.0197Y-4.063
X4.0306Y-3.2416
X4.0354Y-3.2776
X4.0512Y-2.2362
X4.0512Y-2.2677
X4.0512Y-2.2992
X4.0512Y-2.3307
X4.0512Y-2.3622
X4.0512Y-2.3937
X4.0512Y-2.4252
X4.0512Y-2.4567
X4.0512Y-2.4882
X4.0512Y-2.5197
X4.0512Y-3.9685
X4.0512Y-4.0
X4.0512Y-4.0315
X4.0512Y-4.063
X4.0551Y-3.0709
X4.0827Y-2.2362
X4.0827Y-2.2677
X4.0827Y-2.2992
X4.0827Y-2.3307
X4.0827Y-2.3622
X4.0827Y-2.3937
X4.0827Y-2.4252
X4.0827Y-2.4567
X4.0827Y-2.4882
X4.0827Y-2.5197
X4.0827Y-4.0
X4.0827Y-4.0315
X4.0827Y-4.063
X4.0945Y-3.1693
X4.1142Y-2.2362
X4.1142Y-2.2677
X4.1142Y-2.2992
X4.1142Y-2.3307
X4.1142Y-2.3622
X4.1142Y-2.3937
X4.1142Y-2.4252
X4.1142Y-2.4567
X4.1142Y-2.4882
X4.1142Y-2.5197
X4.1142Y-4.063
X4.1457Y-2.2362
X4.1457Y-2.2677
X4.1457Y-2.2992
X4.1457Y-2.3307
X4.1457Y-2.3622
X4.1457Y-2.3937
X4.1457Y-2.4252
X4.1457Y-2.4567
X4.1457Y-2.4882
X4.1457Y-2.5197
X4.1457Y-3.4331
X4.1535Y-3.3465
X4.1772Y-2.2362
X4.1772Y-2.2677
X4.1772Y-2.2992
X4.1772Y-2.3307
X4.1772Y-2.3622
X4.1772Y-2.3937
X4.1772Y-2.4252
X4.1772Y-2.4567
X4.1772Y-2.4882
X4.1772Y-2.5197
X4.1929Y-3.5531
X4.2087Y-2.2362
X4.2087Y-2.2677
X4.2087Y-2.2992
X4.2087Y-2.3307
X4.2087Y-2.3622
X4.2087Y-2.3937
X4.2087Y-2.4252
X4.2087Y-2.4567
X4.2087Y-2.4882
X4.2087Y-2.5197
X4.2402Y-2.2362
X4.2402Y-2.2677
X4.2402Y-2.2992
X4.2402Y-2.3307
X4.2402Y-2.3622
X4.2402Y-2.3937
X4.2402Y-2.4252
X4.2402Y-2.4567
X4.2402Y-2.4882
X4.2402Y-2.5197
X4.2402Y-3.0551
X4.2402Y-3.0866
X4.2402Y-3.1181
X4.2402Y-3.1496
X4.2402Y-3.2441
X4.2717Y-2.2362
X4.2717Y-2.2677
X4.2717Y-2.2992
X4.2717Y-2.3307
X4.2717Y-2.3622
X4.2717Y-2.3937
X4.2717Y-2.4252
X4.2717Y-2.4567
X4.2717Y-2.4882
X4.2717Y-2.5197
X4.2717Y-2.6142
X4.2717Y-2.6457
X4.2717Y-2.6772
X4.2717Y-2.7087
X4.2717Y-3.0551
X4.2717Y-3.0866
X4.2717Y-3.1181
X4.2717Y-3.1496
X4.2717Y-3.2441
X4.2913Y-3.3661
X4.3031Y-2.2362
X4.3031Y-2.2677
X4.3031Y-2.2992
X4.3031Y-2.3307
X4.3031Y-2.3622
X4.3031Y-2.3937
X4.3031Y-2.4252
X4.3031Y-2.4567
X4.3031Y-2.4882
X4.3031Y-2.5197
X4.3031Y-2.6142
X4.3031Y-2.6457
X4.3031Y-2.6772
X4.3031Y-2.7087
X4.3031Y-3.0551
X4.3031Y-3.0866
X4.3031Y-3.2441
X4.3346Y-2.2362
X4.3346Y-2.2677
X4.3346Y-2.2992
X4.3346Y-2.3307
X4.3346Y-2.3622
X4.3346Y-2.3937
X4.3346Y-2.4252
X4.3346Y-2.4567
X4.3346Y-2.4882
X4.3346Y-2.5197
X4.3346Y-2.6142
X4.3346Y-2.6457
X4.3346Y-2.6772
X4.3346Y-2.7087
X4.3346Y-3.0551
X4.3346Y-3.0866
X4.3346Y-3.2441
X4.3406Y-3.1594
X4.3661Y-2.2362
X4.3661Y-2.2677
X4.3661Y-2.2992
X4.3661Y-2.3307
X4.3661Y-2.3622
X4.3661Y-2.3937
X4.3661Y-2.4252
X4.3661Y-2.4567
X4.3661Y-2.4882
X4.3661Y-2.5197
X4.3661Y-2.6142
X4.3661Y-2.6457
X4.3661Y-2.6772
X4.3661Y-2.7087
X4.3661Y-2.9291
X4.3661Y-3.2126
X4.3661Y-3.2441
X4.3976Y-2.2362
X4.3976Y-2.2677
X4.3976Y-2.2992
X4.3976Y-2.3307
X4.3976Y-2.3622
X4.3976Y-2.3937
X4.3976Y-2.4252
X4.3976Y-2.4567
X4.3976Y-2.4882
X4.3976Y-2.5197
X4.3976Y-2.6142
X4.3976Y-2.6457
X4.3976Y-2.6772
X4.3976Y-2.7087
X4.3976Y-2.7402
X4.3976Y-2.7717
X4.3976Y-2.8031
X4.3976Y-2.8346
X4.3976Y-2.8661
X4.3976Y-2.8976
X4.3976Y-2.9291
X4.3976Y-3.1811
X4.3976Y-3.2126
X4.3976Y-3.2441
X4.3976Y-3.811
X4.3976Y-3.8425
X4.3976Y-4.0315
X4.3976Y-4.063
X4.4291Y-2.2362
X4.4291Y-2.2677
X4.4291Y-2.2992
X4.4291Y-2.3307
X4.4291Y-2.3622
X4.4291Y-2.3937
X4.4291Y-2.4252
X4.4291Y-2.4567
X4.4291Y-2.4882
X4.4291Y-2.5197
X4.4291Y-2.6142
X4.4291Y-2.6457
X4.4291Y-2.6772
X4.4291Y-2.7087
X4.4291Y-2.7402
X4.4291Y-2.7717
X4.4291Y-2.8031
X4.4291Y-2.8346
X4.4291Y-3.2126
X4.4291Y-3.2441
X4.4291Y-3.7795
X4.4291Y-3.811
X4.4291Y-3.8425
X4.4291Y-4.0315
X4.4291Y-4.063
X4.4459Y-3.1594
X4.4606Y-2.2362
X4.4606Y-2.2677
X4.4606Y-2.2992
X4.4606Y-2.3307
X4.4606Y-2.3622
X4.4606Y-2.3937
X4.4606Y-2.4252
X4.4606Y-2.4567
X4.4606Y-2.4882
X4.4606Y-2.5197
X4.4606Y-2.6142
X4.4606Y-2.6457
X4.4606Y-2.6772
X4.4606Y-2.7087
X4.4606Y-2.7402
X4.4606Y-2.7717
X4.4606Y-2.8031
X4.4606Y-2.8346
X4.4606Y-3.748
X4.4606Y-3.7795
X4.4606Y-3.811
X4.4606Y-3.8425
X4.4606Y-4.0315
X4.4606Y-4.063
X4.4921Y-2.2362
X4.4921Y-2.2677
X4.4921Y-2.2992
X4.4921Y-2.3307
X4.4921Y-2.3622
X4.4921Y-2.3937
X4.4921Y-2.4252
X4.4921Y-2.4567
X4.4921Y-2.4882
X4.4921Y-2.5197
X4.4921Y-2.6142
X4.4921Y-2.6457
X4.4921Y-2.6772
X4.4921Y-2.7087
X4.4921Y-2.7402
X4.4921Y-2.7717
X4.4921Y-2.8031
X4.4921Y-2.8346
X4.4921Y-2.8661
X4.4921Y-2.8976
X4.4921Y-2.9291
X4.4921Y-3.811
X4.4921Y-3.8425
X4.4921Y-4.0315
X4.4921Y-4.063
X4.4931Y-3.3809
X4.5236Y-2.2362
X4.5236Y-2.2677
X4.5236Y-2.2992
X4.5236Y-2.3307
X4.5236Y-2.3622
X4.5236Y-2.3937
X4.5236Y-2.4252
X4.5236Y-2.4567
X4.5236Y-2.4882
X4.5236Y-2.5197
X4.5236Y-2.6457
X4.5236Y-2.6772
X4.5236Y-2.7087
X4.5236Y-2.7402
X4.5236Y-2.7717
X4.5236Y-2.8031
X4.5236Y-2.8346
X4.5236Y-2.8661
X4.5236Y-2.8976
X4.5236Y-2.9291
X4.5236Y-3.811
X4.5236Y-3.8425
X4.5236Y-4.0315
X4.5236Y-4.063
X4.5276Y-3.5335
X4.5539Y-3.0382
X4.5551Y-2.2362
X4.5551Y-2.2677
X4.5551Y-2.2992
X4.5551Y-2.3307
X4.5551Y-2.3622
X4.5551Y-2.3937
X4.5551Y-2.4252
X4.5551Y-2.4567
X4.5551Y-2.4882
X4.5551Y-2.5197
X4.5551Y-2.6772
X4.5551Y-2.7087
X4.5551Y-2.7402
X4.5551Y-2.7717
X4.5551Y-2.8031
X4.5551Y-2.8346
X4.5551Y-2.8661
X4.5551Y-2.8976
X4.5551Y-2.9291
X4.5551Y-3.4016
X4.5551Y-3.4331
X4.5551Y-3.4646
X4.5551Y-3.8425
X4.5551Y-3.874
X4.5551Y-3.9055
X4.5551Y-3.937
X4.5551Y-3.9685
X4.5551Y-4.0
X4.5551Y-4.0315
X4.5551Y-4.063
X4.5866Y-2.2362
X4.5866Y-2.2677
X4.5866Y-2.2992
X4.5866Y-2.3307
X4.5866Y-2.3622
X4.5866Y-2.3937
X4.5866Y-2.4252
X4.5866Y-2.4567
X4.5866Y-2.4882
X4.5866Y-2.5197
X4.5866Y-2.5512
X4.5866Y-2.7087
X4.5866Y-2.7402
X4.5866Y-2.7717
X4.5866Y-2.8031
X4.5866Y-2.8346
X4.5866Y-2.8661
X4.5866Y-2.8976
X4.5866Y-2.9291
X4.5866Y-2.9921
X4.5866Y-3.2441
X4.5866Y-3.2756
X4.5866Y-3.3071
X4.5866Y-3.3386
X4.5866Y-3.3701
X4.5866Y-3.4016
X4.5866Y-3.4331
X4.5866Y-3.4646
X4.5866Y-3.4961
X4.5866Y-3.5276
X4.5866Y-3.5591
X4.5866Y-3.8425
X4.5866Y-3.874
X4.5866Y-3.9055
X4.5866Y-3.937
X4.5866Y-3.9685
X4.5866Y-4.0
X4.5866Y-4.0315
X4.5866Y-4.063
X4.6063Y-3.7894
X4.6181Y-2.2362
X4.6181Y-2.2677
X4.6181Y-2.2992
X4.6181Y-2.3307
X4.6181Y-2.3622
X4.6181Y-2.3937
X4.6181Y-2.4252
X4.6181Y-2.4567
X4.6181Y-2.4882
X4.6181Y-2.5197
X4.6181Y-2.5512
X4.6181Y-2.5827
X4.6181Y-2.7402
X4.6181Y-2.7717
X4.6181Y-2.8031
X4.6181Y-2.8346
X4.6181Y-2.8661
X4.6181Y-2.8976
X4.6181Y-2.9291
X4.6181Y-3.2756
X4.6181Y-3.3071
X4.6181Y-3.3386
X4.6181Y-3.3701
X4.6181Y-3.4016
X4.6181Y-3.4331
X4.6181Y-3.4646
X4.6181Y-3.4961
X4.6181Y-3.5276
X4.6181Y-3.8425
X4.6181Y-3.874
X4.6181Y-3.9055
X4.6181Y-3.937
X4.6181Y-3.9685
X4.6181Y-4.0
X4.6181Y-4.0315
X4.6181Y-4.063
X4.6496Y-2.2362
X4.6496Y-2.2677
X4.6496Y-2.2992
X4.6496Y-2.3307
X4.6496Y-2.3622
X4.6496Y-2.3937
X4.6496Y-2.4252
X4.6496Y-2.4567
X4.6496Y-2.4882
X4.6496Y-2.5197
X4.6496Y-2.5512
X4.6496Y-2.5827
X4.6496Y-2.6142
X4.6496Y-2.7402
X4.6496Y-2.7717
X4.6496Y-2.8031
X4.6496Y-2.8346
X4.6496Y-2.8661
X4.6496Y-2.8976
X4.6496Y-3.3071
X4.6496Y-3.3386
X4.6496Y-3.3701
X4.6496Y-3.4016
X4.6496Y-3.4331
X4.6496Y-3.4646
X4.6496Y-3.4961
X4.6496Y-3.5276
X4.6496Y-3.8425
X4.6496Y-3.874
X4.6496Y-3.9055
X4.6496Y-3.937
X4.6496Y-3.9685
X4.6496Y-4.0
X4.6496Y-4.0315
X4.6496Y-4.063
X4.6654Y-2.6772
X4.6811Y-2.2362
X4.6811Y-2.2677
X4.6811Y-2.2992
X4.6811Y-2.3307
X4.6811Y-2.3622
X4.6811Y-2.3937
X4.6811Y-2.4252
X4.6811Y-2.4567
X4.6811Y-2.4882
X4.6811Y-2.5197
X4.6811Y-3.0236
X4.6811Y-3.3386
X4.6811Y-3.3701
X4.6811Y-3.4016
X4.6811Y-3.4331
X4.6811Y-3.4646
X4.6811Y-3.4961
X4.6811Y-3.5276
X4.6811Y-3.811
X4.6811Y-3.8425
X4.6811Y-3.874
X4.6811Y-3.9055
X4.6811Y-3.937
X4.6811Y-3.9685
X4.6811Y-4.0
X4.6811Y-4.0315
X4.6811Y-4.063
X4.7126Y-2.2362
X4.7126Y-2.2677
X4.7126Y-2.2992
X4.7126Y-2.3307
X4.7126Y-2.3622
X4.7126Y-2.3937
X4.7126Y-2.4252
X4.7126Y-2.4567
X4.7126Y-2.4882
X4.7126Y-2.5197
X4.7126Y-3.0236
X4.7126Y-3.0551
X4.7126Y-3.3701
X4.7126Y-3.4016
X4.7126Y-3.4331
X4.7126Y-3.4646
X4.7126Y-3.4961
X4.7126Y-3.5276
X4.7126Y-3.5591
X4.7126Y-3.6535
X4.7126Y-3.874
X4.7126Y-3.9055
X4.7126Y-3.937
X4.7126Y-3.9685
X4.7126Y-4.0
X4.7126Y-4.0315
X4.7126Y-4.063
X4.7244Y-2.9626
X4.7441Y-2.2362
X4.7441Y-2.2677
X4.7441Y-2.2992
X4.7441Y-2.3307
X4.7441Y-2.3622
X4.7441Y-2.3937
X4.7441Y-2.4252
X4.7441Y-2.4567
X4.7441Y-2.4882
X4.7441Y-2.5197
X4.7441Y-2.6457
X4.7441Y-2.7087
X4.7441Y-2.7402
X4.7441Y-2.7717
X4.7441Y-2.8031
X4.7441Y-2.8346
X4.7441Y-2.8661
X4.7441Y-2.8976
X4.7441Y-3.0236
X4.7441Y-3.0551
X4.7441Y-3.4016
X4.7441Y-3.4331
X4.7441Y-3.4646
X4.7441Y-3.4961
X4.7441Y-3.5276
X4.7441Y-3.5591
X4.7441Y-3.874
X4.7441Y-3.9055
X4.7441Y-3.937
X4.7441Y-3.9685
X4.7441Y-4.0
X4.7441Y-4.0315
X4.7441Y-4.063
X4.7756Y-2.2362
X4.7756Y-2.2677
X4.7756Y-2.2992
X4.7756Y-2.3307
X4.7756Y-2.3622
X4.7756Y-2.3937
X4.7756Y-2.4252
X4.7756Y-2.4567
X4.7756Y-2.4882
X4.7756Y-2.5197
X4.7756Y-2.5512
X4.7756Y-2.6142
X4.7756Y-2.6457
X4.7756Y-2.7087
X4.7756Y-2.7402
X4.7756Y-2.7717
X4.7756Y-2.8031
X4.7756Y-2.8346
X4.7756Y-2.8661
X4.7756Y-2.8976
X4.7756Y-2.9291
X4.7756Y-2.9921
X4.7756Y-3.0236
X4.7756Y-3.0551
X4.7756Y-3.1811
X4.7756Y-3.4961
X4.7756Y-3.5276
X4.7756Y-3.5591
X4.7756Y-3.874
X4.7756Y-3.9055
X4.7756Y-4.063
X4.8071Y-2.2362
X4.8071Y-2.2677
X4.8071Y-2.2992
X4.8071Y-2.3307
X4.8071Y-2.3622
X4.8071Y-2.3937
X4.8071Y-2.4252
X4.8071Y-2.4567
X4.8071Y-2.4882
X4.8071Y-2.5197
X4.8071Y-2.5512
X4.8071Y-2.6142
X4.8071Y-2.6457
X4.8071Y-2.7087
X4.8071Y-2.7402
X4.8071Y-2.7717
X4.8071Y-2.8031
X4.8071Y-2.8346
X4.8071Y-2.8661
X4.8071Y-2.9921
X4.8071Y-3.0236
X4.8071Y-3.0551
X4.8071Y-3.1811
X4.8071Y-3.2126
X4.8071Y-3.4961
X4.8071Y-3.5276
X4.8071Y-3.5591
X4.8071Y-4.063
X4.8386Y-2.2362
X4.8386Y-2.2677
X4.8386Y-2.2992
X4.8386Y-2.3307
X4.8386Y-2.3622
X4.8386Y-2.3937
X4.8386Y-2.4252
X4.8386Y-2.7402
X4.8386Y-2.7717
X4.8386Y-2.8031
X4.8386Y-2.8346
X4.8386Y-2.8661
X4.8386Y-2.9921
X4.8386Y-3.0236
X4.8386Y-3.0551
X4.8386Y-3.1811
X4.8386Y-3.2126
X4.8386Y-3.2441
X4.8386Y-3.4961
X4.8386Y-3.5276
X4.8386Y-4.063
X4.8701Y-2.3307
X4.8701Y-2.3622
X4.8701Y-2.3937
X4.8701Y-2.7717
X4.8701Y-2.8031
X4.8701Y-2.8346
X4.8701Y-2.8661
X4.8701Y-2.8976
X4.8701Y-2.9921
X4.8701Y-3.0236
X4.8701Y-3.0551
X4.8701Y-3.1811
X4.8701Y-3.2126
X4.8701Y-3.2441
X4.8701Y-3.2756
X4.8701Y-3.4646
X4.8701Y-3.4961
X4.8701Y-3.7795
X4.8701Y-3.811
X4.8701Y-3.8425
X4.8701Y-3.874
X4.8701Y-3.9055
X4.8701Y-4.063
X4.9016Y-2.3307
X4.9016Y-2.3622
X4.9016Y-2.3937
X4.9016Y-2.8031
X4.9016Y-2.8346
X4.9016Y-3.2441
X4.9016Y-3.2756
X4.9016Y-3.3071
X4.9016Y-3.5906
X4.9016Y-3.622
X4.9016Y-4.063
X4.9331Y-2.3307
X4.9331Y-2.3622
X4.9331Y-2.3937
X4.9331Y-2.4252
X4.9331Y-2.8346
X4.9331Y-3.2441
X4.9331Y-3.2756
X4.9331Y-3.3071
X4.9331Y-3.3386
X4.9331Y-3.5591
X4.9331Y-3.5906
X4.9331Y-3.622
X4.9331Y-4.063
X4.9646Y-2.3307
X4.9646Y-2.3622
X4.9646Y-2.3937
X4.9646Y-2.4252
X4.9646Y-2.4567
X4.9646Y-2.4882
X4.9646Y-2.5197
X4.9646Y-2.5512
X4.9646Y-2.5827
X4.9646Y-2.6142
X4.9646Y-2.6457
X4.9646Y-2.6772
X4.9646Y-2.7087
X4.9646Y-2.7402
X4.9646Y-3.2441
X4.9646Y-3.2756
X4.9646Y-3.3071
X4.9646Y-3.3386
X4.9646Y-3.5276
X4.9646Y-3.5591
X4.9646Y-3.5906
X4.9646Y-3.622
X4.9646Y-3.7795
X4.9646Y-3.811
X4.9646Y-3.8425
X4.9646Y-3.874
X4.9646Y-3.9055
X4.9646Y-4.063
X4.9961Y-2.2362
X4.9961Y-2.2677
X4.9961Y-2.2992
X4.9961Y-2.3307
X4.9961Y-2.3622
X4.9961Y-2.3937
X4.9961Y-2.4252
X4.9961Y-2.4567
X4.9961Y-2.4882
X4.9961Y-2.5197
X4.9961Y-2.5512
X4.9961Y-2.5827
X4.9961Y-2.6142
X4.9961Y-2.6457
X4.9961Y-2.6772
X4.9961Y-2.7087
X4.9961Y-2.7402
X4.9961Y-2.7717
X4.9961Y-3.4961
X4.9961Y-3.5276
X4.9961Y-3.5591
X4.9961Y-3.5906
X4.9961Y-3.622
X4.9961Y-3.6535
X4.9961Y-3.685
X4.9961Y-3.7165
X4.9961Y-3.748
X4.9961Y-3.7795
X4.9961Y-3.811
X4.9961Y-3.8425
X4.9961Y-3.874
X4.9961Y-3.9055
X4.9961Y-3.937
X4.9961Y-3.9685
X4.9961Y-4.0
X4.9961Y-4.0315
X4.9961Y-4.063
T4
X3.4252Y-2.9982
X3.4252Y-3.1459
X3.4252Y-3.2874
X3.5728Y-2.7067
X3.8386Y-2.5886
X4.0748Y-3.3563
X4.7096Y-2.5837
X4.9205Y-2.8929
X4.9205Y-2.9429
X4.9205Y-3.0929
X4.9205Y-3.1929
X4.9205Y-3.0429
X4.9205Y-2.9929
X4.9205Y-3.1429
X4.9705Y-2.8929
X4.9705Y-2.9429
X4.9705Y-2.9929
X4.9705Y-3.0429
X4.9705Y-3.1429
X4.9705Y-3.1929
X4.9705Y-3.0929
T5
X4.8809Y-2.5787
X4.8809Y-2.4803
X4.8809Y-2.6772
T6
X4.813Y-3.7116
X4.813Y-3.9882
X4.813Y-3.4055
X4.9114Y-3.7116
X4.9114Y-3.9882
X4.9114Y-3.4055
T7
X4.1142Y-2.6969
X4.2815Y-2.8445
T8
X4.2618Y-3.937
X4.4587Y-3.937
M30
