%TF.GenerationSoftware,KiCad,Pcbnew,8.0.2*%
%TF.CreationDate,2024-10-23T20:47:09+03:00*%
%TF.ProjectId,PowerServo AE 36V 3.6A 30D - DEV,506f7765-7253-4657-9276-6f2041452033,rev?*%
%TF.SameCoordinates,Original*%
%TF.FileFunction,Soldermask,Top*%
%TF.FilePolarity,Negative*%
%FSLAX46Y46*%
G04 Gerber Fmt 4.6, Leading zero omitted, Abs format (unit mm)*
G04 Created by KiCad (PCBNEW 8.0.2) date 2024-10-23 20:47:09*
%MOMM*%
%LPD*%
G01*
G04 APERTURE LIST*
G04 Aperture macros list*
%AMRoundRect*
0 Rectangle with rounded corners*
0 $1 Rounding radius*
0 $2 $3 $4 $5 $6 $7 $8 $9 X,Y pos of 4 corners*
0 Add a 4 corners polygon primitive as box body*
4,1,4,$2,$3,$4,$5,$6,$7,$8,$9,$2,$3,0*
0 Add four circle primitives for the rounded corners*
1,1,$1+$1,$2,$3*
1,1,$1+$1,$4,$5*
1,1,$1+$1,$6,$7*
1,1,$1+$1,$8,$9*
0 Add four rect primitives between the rounded corners*
20,1,$1+$1,$2,$3,$4,$5,0*
20,1,$1+$1,$4,$5,$6,$7,0*
20,1,$1+$1,$6,$7,$8,$9,0*
20,1,$1+$1,$8,$9,$2,$3,0*%
G04 Aperture macros list end*
%ADD10RoundRect,0.140000X0.170000X-0.140000X0.170000X0.140000X-0.170000X0.140000X-0.170000X-0.140000X0*%
%ADD11C,2.200000*%
%ADD12RoundRect,0.140000X-0.170000X0.140000X-0.170000X-0.140000X0.170000X-0.140000X0.170000X0.140000X0*%
%ADD13RoundRect,0.250000X0.725000X-0.600000X0.725000X0.600000X-0.725000X0.600000X-0.725000X-0.600000X0*%
%ADD14O,1.950000X1.700000*%
%ADD15RoundRect,0.250000X0.600000X0.750000X-0.600000X0.750000X-0.600000X-0.750000X0.600000X-0.750000X0*%
%ADD16O,1.700000X2.000000*%
%ADD17RoundRect,0.135000X0.185000X-0.135000X0.185000X0.135000X-0.185000X0.135000X-0.185000X-0.135000X0*%
%ADD18R,1.000000X1.000000*%
%ADD19R,3.000000X3.000000*%
%ADD20C,3.000000*%
%ADD21RoundRect,0.062500X-0.325000X-0.062500X0.325000X-0.062500X0.325000X0.062500X-0.325000X0.062500X0*%
%ADD22RoundRect,0.062500X-0.062500X-0.325000X0.062500X-0.325000X0.062500X0.325000X-0.062500X0.325000X0*%
%ADD23R,1.750000X1.750000*%
%ADD24RoundRect,0.150000X-0.825000X-0.150000X0.825000X-0.150000X0.825000X0.150000X-0.825000X0.150000X0*%
%ADD25RoundRect,0.225000X0.250000X-0.225000X0.250000X0.225000X-0.250000X0.225000X-0.250000X-0.225000X0*%
%ADD26RoundRect,0.250000X-1.125000X-1.125000X1.125000X-1.125000X1.125000X1.125000X-1.125000X1.125000X0*%
%ADD27R,1.500000X1.000000*%
%ADD28O,1.000000X1.000000*%
%ADD29RoundRect,0.125000X-0.625000X-0.125000X0.625000X-0.125000X0.625000X0.125000X-0.625000X0.125000X0*%
%ADD30RoundRect,0.125000X-0.125000X-0.625000X0.125000X-0.625000X0.125000X0.625000X-0.125000X0.625000X0*%
%ADD31R,1.525000X0.650000*%
%ADD32R,2.710000X3.400000*%
%ADD33RoundRect,0.093750X-0.093750X-0.106250X0.093750X-0.106250X0.093750X0.106250X-0.093750X0.106250X0*%
%ADD34R,1.000000X1.600000*%
%ADD35RoundRect,0.250000X-0.325000X-0.650000X0.325000X-0.650000X0.325000X0.650000X-0.325000X0.650000X0*%
%ADD36RoundRect,0.140000X0.140000X0.170000X-0.140000X0.170000X-0.140000X-0.170000X0.140000X-0.170000X0*%
%ADD37RoundRect,0.135000X-0.185000X0.135000X-0.185000X-0.135000X0.185000X-0.135000X0.185000X0.135000X0*%
%ADD38RoundRect,0.250000X-0.600000X-0.750000X0.600000X-0.750000X0.600000X0.750000X-0.600000X0.750000X0*%
%ADD39RoundRect,0.225000X-0.225000X-0.250000X0.225000X-0.250000X0.225000X0.250000X-0.225000X0.250000X0*%
%ADD40RoundRect,0.112500X-0.287500X-0.112500X0.287500X-0.112500X0.287500X0.112500X-0.287500X0.112500X0*%
%ADD41R,0.700000X2.900000*%
%ADD42RoundRect,0.250000X-0.650000X0.325000X-0.650000X-0.325000X0.650000X-0.325000X0.650000X0.325000X0*%
G04 APERTURE END LIST*
D10*
%TO.C,C4*%
X103000000Y-79750000D03*
X103000000Y-78790000D03*
%TD*%
D11*
%TO.C,REF\u002A\u002A*%
X87500000Y-57500000D03*
%TD*%
D12*
%TO.C,R2*%
X118000002Y-94250002D03*
X118000002Y-95210002D03*
%TD*%
D13*
%TO.C,J8*%
X123975002Y-68000002D03*
D14*
X123975001Y-65500002D03*
X123975002Y-63000002D03*
%TD*%
D15*
%TO.C,J6*%
X124749999Y-94275002D03*
D16*
X122249999Y-94275001D03*
%TD*%
D17*
%TO.C,R3*%
X112749999Y-74260000D03*
X112750001Y-73240000D03*
%TD*%
D12*
%TO.C,C5*%
X95250000Y-70520001D03*
X95250000Y-71480001D03*
%TD*%
D18*
%TO.C,J10*%
X87000000Y-79905000D03*
%TD*%
D19*
%TO.C,J4*%
X113250000Y-100000000D03*
D20*
X108250000Y-100000000D03*
%TD*%
D21*
%TO.C,U4*%
X93537500Y-94250000D03*
X93537500Y-94750000D03*
X93537500Y-95250000D03*
X93537503Y-95750002D03*
D22*
X94250000Y-96462500D03*
X94750000Y-96462500D03*
X95250000Y-96462500D03*
X95750002Y-96462497D03*
D21*
X96462500Y-95750000D03*
X96462500Y-95250000D03*
X96462500Y-94750000D03*
X96462497Y-94249998D03*
D22*
X95750000Y-93537500D03*
X95250000Y-93537500D03*
X94750000Y-93537500D03*
X94249998Y-93537503D03*
D23*
X95000000Y-95000000D03*
%TD*%
D18*
%TO.C,J11*%
X87000000Y-76155000D03*
%TD*%
D24*
%TO.C,U5*%
X110275002Y-91344999D03*
X110275000Y-92615001D03*
X110275000Y-93885001D03*
X110275001Y-95155002D03*
X115224998Y-95155003D03*
X115225000Y-93885001D03*
X115225000Y-92615001D03*
X115224999Y-91345000D03*
%TD*%
D18*
%TO.C,J17*%
X87000000Y-83500000D03*
%TD*%
D25*
%TO.C,C11*%
X90500000Y-81525001D03*
X90500000Y-79974999D03*
%TD*%
D11*
%TO.C,REF\u002A\u002A*%
X125000000Y-57500000D03*
%TD*%
D26*
%TO.C,J2*%
X108750000Y-72250000D03*
%TD*%
D27*
%TO.C,JP1*%
X118000001Y-92710001D03*
X118000001Y-91410001D03*
%TD*%
D18*
%TO.C,J3*%
X126250000Y-81100001D03*
D28*
X124979999Y-81100001D03*
X126250000Y-79830000D03*
X124980002Y-79830003D03*
X126250001Y-78559998D03*
X124979999Y-78560003D03*
X126250000Y-77290002D03*
X124980000Y-77290002D03*
X126250000Y-76020001D03*
X124980001Y-76019999D03*
X126250000Y-74750001D03*
X124979999Y-74750001D03*
X126250000Y-73480001D03*
X124979999Y-73480000D03*
%TD*%
D18*
%TO.C,J16*%
X97500000Y-65750001D03*
%TD*%
D12*
%TO.C,C6*%
X91250000Y-71270001D03*
X91250000Y-72230001D03*
%TD*%
D29*
%TO.C,U7*%
X105825000Y-77200000D03*
X105825000Y-78000000D03*
X105825000Y-78800000D03*
X105825000Y-79600000D03*
X105825000Y-80400000D03*
X105825000Y-81200000D03*
X105825000Y-82000000D03*
X105825000Y-82800000D03*
D30*
X107200000Y-84175000D03*
X108000000Y-84175000D03*
X108800000Y-84175000D03*
X109600000Y-84175000D03*
X110400000Y-84175000D03*
X111200000Y-84175000D03*
X112000000Y-84175000D03*
X112800000Y-84175000D03*
D29*
X114175000Y-82800000D03*
X114175000Y-82000000D03*
X114175000Y-81200000D03*
X114175000Y-80400000D03*
X114175000Y-79600000D03*
X114175000Y-78800000D03*
X114175000Y-78000000D03*
X114175000Y-77200000D03*
D30*
X112800000Y-75825000D03*
X112000000Y-75825000D03*
X111200000Y-75825000D03*
X110400000Y-75825000D03*
X109600000Y-75825000D03*
X108800000Y-75825000D03*
X108000000Y-75825000D03*
X107200000Y-75825000D03*
%TD*%
D31*
%TO.C,IC1*%
X92538000Y-76095000D03*
X92538000Y-77365000D03*
X92538000Y-78635000D03*
X92538000Y-79905000D03*
X97962000Y-79905000D03*
X97962000Y-78635000D03*
X97962000Y-77365000D03*
X97962000Y-76095000D03*
D32*
X95250000Y-78000000D03*
%TD*%
D18*
%TO.C,J12*%
X103500000Y-85250000D03*
%TD*%
D26*
%TO.C,J7*%
X104500000Y-68500000D03*
%TD*%
D33*
%TO.C,U2*%
X92475000Y-70680006D03*
X92475000Y-71330006D03*
X92475000Y-71980006D03*
X94250000Y-71980006D03*
X94250000Y-71330006D03*
X94250000Y-70680006D03*
D34*
X93362500Y-71330006D03*
%TD*%
D35*
%TO.C,C7*%
X95025000Y-83750000D03*
X97975000Y-83750000D03*
%TD*%
D11*
%TO.C,REF\u002A\u002A*%
X88500000Y-98750000D03*
%TD*%
%TO.C,REF\u002A\u002A*%
X101500000Y-98750000D03*
%TD*%
D36*
%TO.C,C9*%
X96730000Y-92250000D03*
X95770000Y-92250000D03*
%TD*%
D37*
%TO.C,R1*%
X107749999Y-86240000D03*
X107750001Y-87260000D03*
%TD*%
D15*
%TO.C,J1*%
X124749999Y-101300001D03*
D16*
X122249999Y-101300000D03*
%TD*%
D18*
%TO.C,J13*%
X90750000Y-68750001D03*
%TD*%
D11*
%TO.C,REF\u002A\u002A*%
X95000000Y-87500000D03*
%TD*%
D38*
%TO.C,J5*%
X122250000Y-86500001D03*
D16*
X124750000Y-86500001D03*
%TD*%
D10*
%TO.C,C3*%
X101750002Y-79750000D03*
X101750002Y-78790000D03*
%TD*%
D39*
%TO.C,C8*%
X95974999Y-81500000D03*
X97525001Y-81500000D03*
%TD*%
D12*
%TO.C,C10*%
X122750000Y-74040001D03*
X122750000Y-75000001D03*
%TD*%
D40*
%TO.C,U1*%
X90399999Y-64080001D03*
X90399999Y-64680002D03*
X90399999Y-65280001D03*
X90399999Y-65880003D03*
X90399999Y-66480001D03*
X93449999Y-66480001D03*
X93449999Y-65880000D03*
X93449999Y-65280001D03*
X93449999Y-64679999D03*
X93449999Y-64080001D03*
D41*
X91749998Y-65280002D03*
%TD*%
D42*
%TO.C,C2*%
X87750000Y-63585001D03*
X87750000Y-66535001D03*
%TD*%
D18*
%TO.C,J9*%
X119625000Y-65625001D03*
%TD*%
D12*
%TO.C,C1*%
X95250000Y-64830001D03*
X95250000Y-65790001D03*
%TD*%
M02*
