%TF.GenerationSoftware,KiCad,Pcbnew,8.0.2*%
%TF.CreationDate,2024-10-23T20:47:09+03:00*%
%TF.ProjectId,PowerServo AE 36V 3.6A 30D - DEV,506f7765-7253-4657-9276-6f2041452033,rev?*%
%TF.SameCoordinates,Original*%
%TF.FileFunction,Copper,L4,Bot*%
%TF.FilePolarity,Positive*%
%FSLAX46Y46*%
G04 Gerber Fmt 4.6, Leading zero omitted, Abs format (unit mm)*
G04 Created by KiCad (PCBNEW 8.0.2) date 2024-10-23 20:47:09*
%MOMM*%
%LPD*%
G01*
G04 APERTURE LIST*
G04 Aperture macros list*
%AMRoundRect*
0 Rectangle with rounded corners*
0 $1 Rounding radius*
0 $2 $3 $4 $5 $6 $7 $8 $9 X,Y pos of 4 corners*
0 Add a 4 corners polygon primitive as box body*
4,1,4,$2,$3,$4,$5,$6,$7,$8,$9,$2,$3,0*
0 Add four circle primitives for the rounded corners*
1,1,$1+$1,$2,$3*
1,1,$1+$1,$4,$5*
1,1,$1+$1,$6,$7*
1,1,$1+$1,$8,$9*
0 Add four rect primitives between the rounded corners*
20,1,$1+$1,$2,$3,$4,$5,0*
20,1,$1+$1,$4,$5,$6,$7,0*
20,1,$1+$1,$6,$7,$8,$9,0*
20,1,$1+$1,$8,$9,$2,$3,0*%
G04 Aperture macros list end*
%TA.AperFunction,ComponentPad*%
%ADD10RoundRect,0.250000X0.725000X-0.600000X0.725000X0.600000X-0.725000X0.600000X-0.725000X-0.600000X0*%
%TD*%
%TA.AperFunction,ComponentPad*%
%ADD11O,1.950000X1.700000*%
%TD*%
%TA.AperFunction,ComponentPad*%
%ADD12RoundRect,0.250000X0.600000X0.750000X-0.600000X0.750000X-0.600000X-0.750000X0.600000X-0.750000X0*%
%TD*%
%TA.AperFunction,ComponentPad*%
%ADD13O,1.700000X2.000000*%
%TD*%
%TA.AperFunction,ComponentPad*%
%ADD14R,1.000000X1.000000*%
%TD*%
%TA.AperFunction,ComponentPad*%
%ADD15R,3.000000X3.000000*%
%TD*%
%TA.AperFunction,ComponentPad*%
%ADD16C,3.000000*%
%TD*%
%TA.AperFunction,ComponentPad*%
%ADD17RoundRect,0.250000X-1.125000X-1.125000X1.125000X-1.125000X1.125000X1.125000X-1.125000X1.125000X0*%
%TD*%
%TA.AperFunction,ComponentPad*%
%ADD18O,1.000000X1.000000*%
%TD*%
%TA.AperFunction,HeatsinkPad*%
%ADD19C,0.500000*%
%TD*%
%TA.AperFunction,HeatsinkPad*%
%ADD20R,0.500000X1.600000*%
%TD*%
%TA.AperFunction,ComponentPad*%
%ADD21RoundRect,0.250000X-0.600000X-0.750000X0.600000X-0.750000X0.600000X0.750000X-0.600000X0.750000X0*%
%TD*%
%TA.AperFunction,HeatsinkPad*%
%ADD22R,0.500000X2.560000*%
%TD*%
%TA.AperFunction,ViaPad*%
%ADD23C,0.600000*%
%TD*%
%TA.AperFunction,ViaPad*%
%ADD24C,0.450000*%
%TD*%
%TA.AperFunction,Conductor*%
%ADD25C,0.254000*%
%TD*%
%TA.AperFunction,Conductor*%
%ADD26C,1.250000*%
%TD*%
%TA.AperFunction,Conductor*%
%ADD27C,0.500000*%
%TD*%
G04 APERTURE END LIST*
D10*
%TO.P,J8,1,Pin_1*%
%TO.N,+3V3*%
X123975002Y-68000002D03*
D11*
%TO.P,J8,2,Pin_2*%
%TO.N,uC_PWM_IN*%
X123975001Y-65500002D03*
%TO.P,J8,3,Pin_3*%
%TO.N,GND*%
X123975002Y-63000002D03*
%TD*%
D12*
%TO.P,J6,1,Pin_1*%
%TO.N,CAN_H*%
X124749999Y-94275002D03*
D13*
%TO.P,J6,2,Pin_2*%
%TO.N,CAN_L*%
X122249999Y-94275001D03*
%TD*%
D14*
%TO.P,J10,1,Pin_1*%
%TO.N,DRV_IN1*%
X87000000Y-79905000D03*
%TD*%
D15*
%TO.P,J4,1,Pin_1*%
%TO.N,GND*%
X113250000Y-100000000D03*
D16*
%TO.P,J4,2,Pin_2*%
%TO.N,+12V*%
X108250000Y-100000000D03*
%TD*%
D14*
%TO.P,J11,1,Pin_1*%
%TO.N,DRV_IN2*%
X87000000Y-76155000D03*
%TD*%
%TO.P,J17,1,Pin_1*%
%TO.N,+3V3*%
X87000000Y-83500000D03*
%TD*%
D17*
%TO.P,J2,1,Pin_1*%
%TO.N,Net-(IC1-OUT1)*%
X108750000Y-72250000D03*
%TD*%
D14*
%TO.P,J3,1,Pin_1*%
%TO.N,unconnected-(J3-Pin_1-Pad1)*%
X126250000Y-81100001D03*
D18*
%TO.P,J3,2,Pin_2*%
%TO.N,unconnected-(J3-Pin_2-Pad2)*%
X124979999Y-81100001D03*
%TO.P,J3,3,Pin_3*%
%TO.N,+3V3*%
X126250000Y-79830000D03*
%TO.P,J3,4,Pin_4*%
%TO.N,SWDIO*%
X124980002Y-79830003D03*
%TO.P,J3,5,Pin_5*%
%TO.N,GND*%
X126250001Y-78559998D03*
%TO.P,J3,6,Pin_6*%
%TO.N,SWCLK*%
X124979999Y-78560003D03*
%TO.P,J3,7,Pin_7*%
%TO.N,GND*%
X126250000Y-77290002D03*
%TO.P,J3,8,Pin_8*%
%TO.N,unconnected-(J3-Pin_8-Pad8)*%
X124980000Y-77290002D03*
%TO.P,J3,9,Pin_9*%
%TO.N,unconnected-(J3-Pin_9-Pad9)*%
X126250000Y-76020001D03*
%TO.P,J3,10,Pin_10*%
%TO.N,unconnected-(J3-Pin_10-Pad10)*%
X124980001Y-76019999D03*
%TO.P,J3,11,Pin_11*%
%TO.N,GND*%
X126250000Y-74750001D03*
%TO.P,J3,12,Pin_12*%
%TO.N,NRST*%
X124979999Y-74750001D03*
%TO.P,J3,13,Pin_13*%
%TO.N,unconnected-(J3-Pin_13-Pad13)*%
X126250000Y-73480001D03*
%TO.P,J3,14,Pin_14*%
%TO.N,unconnected-(J3-Pin_14-Pad14)*%
X124979999Y-73480000D03*
%TD*%
D14*
%TO.P,J16,1,Pin_1*%
%TO.N,+5V*%
X97500000Y-65750001D03*
%TD*%
%TO.P,J12,1,Pin_1*%
%TO.N,ISEN*%
X103500000Y-85250000D03*
%TD*%
D17*
%TO.P,J7,1,Pin_1*%
%TO.N,Net-(IC1-OUT2)*%
X104500000Y-68500000D03*
%TD*%
D19*
%TO.P,U2,7,PAD*%
%TO.N,GND*%
X93362500Y-70780007D03*
D20*
X93362500Y-71330006D03*
D19*
X93362500Y-71880005D03*
%TD*%
D12*
%TO.P,J1,1,Pin_1*%
%TO.N,CAN_H*%
X124749999Y-101300001D03*
D13*
%TO.P,J1,2,Pin_2*%
%TO.N,CAN_L*%
X122249999Y-101300000D03*
%TD*%
D14*
%TO.P,J13,1,Pin_1*%
%TO.N,+3V3*%
X90750000Y-68750001D03*
%TD*%
D21*
%TO.P,J5,1,Pin_1*%
%TO.N,uC_UART_TX*%
X122250000Y-86500001D03*
D13*
%TO.P,J5,2,Pin_2*%
%TO.N,uC_UART_RX*%
X124750000Y-86500001D03*
%TD*%
D19*
%TO.P,U1,11,GND*%
%TO.N,GND*%
X91749998Y-65280002D03*
D22*
X91749998Y-65280002D03*
D19*
X91749999Y-64250001D03*
X91749999Y-66310001D03*
%TD*%
D14*
%TO.P,J9,1,Pin_1*%
%TO.N,uC_PWM_IN*%
X119625000Y-65625001D03*
%TD*%
D23*
%TO.N,GND*%
X126100000Y-64800000D03*
X90900000Y-60800000D03*
X94900000Y-56800000D03*
X86900000Y-90400000D03*
X126100000Y-61600000D03*
X87700000Y-93600000D03*
X120500000Y-73600000D03*
X93300000Y-56800000D03*
X92500000Y-69600000D03*
X100500000Y-101600000D03*
X87700000Y-60000000D03*
X102100000Y-102400000D03*
X110100000Y-66400000D03*
X123700000Y-82400000D03*
X122900000Y-72000000D03*
X117300000Y-62400000D03*
X117300000Y-102400000D03*
X103700000Y-59200000D03*
X118100000Y-88800000D03*
X110100000Y-77600000D03*
X102100000Y-60000000D03*
X86100000Y-70400000D03*
X125300000Y-84800000D03*
X90100000Y-92000000D03*
X126900000Y-70400000D03*
X106900000Y-62400000D03*
X89300000Y-90400000D03*
X107700000Y-79200000D03*
X92500000Y-59200000D03*
X119700000Y-102400000D03*
X118100000Y-57600000D03*
X114900000Y-67200000D03*
X118900000Y-76800000D03*
X115700000Y-86400000D03*
X110900000Y-82400000D03*
X100500000Y-102400000D03*
X96500000Y-85600000D03*
X109300000Y-58400000D03*
X126900000Y-68000000D03*
X94250000Y-78000000D03*
X95700000Y-85600000D03*
X97300000Y-89600000D03*
X114900000Y-96800000D03*
X120500000Y-90400000D03*
X92500000Y-60000000D03*
X86900000Y-64800000D03*
X122900000Y-76000000D03*
X86900000Y-89600000D03*
X106900000Y-63200000D03*
X114900000Y-58400000D03*
X90100000Y-88800000D03*
X86100000Y-97600000D03*
X118100000Y-70400000D03*
X94250000Y-76750000D03*
X102900000Y-61600000D03*
X120500000Y-71200000D03*
X94750000Y-78750000D03*
X88500000Y-76000000D03*
X93300000Y-102400000D03*
X94100000Y-60000000D03*
X91700000Y-90400000D03*
X108500000Y-62400000D03*
X96500000Y-103200000D03*
X118100000Y-58400000D03*
X104500000Y-58400000D03*
X112500000Y-67200000D03*
X98100000Y-61600000D03*
X86900000Y-59200000D03*
X111700000Y-74400000D03*
X118100000Y-99200000D03*
X98900000Y-62400000D03*
X117300000Y-70400000D03*
X94100000Y-98400000D03*
X112500000Y-61600000D03*
X117300000Y-59200000D03*
X122100000Y-71200000D03*
X122900000Y-69600000D03*
X92500000Y-63200000D03*
X100500000Y-56800000D03*
X99700000Y-60000000D03*
X117300000Y-72800000D03*
X87700000Y-92800000D03*
X105300000Y-60000000D03*
X114900000Y-103200000D03*
X126100000Y-60000000D03*
X111700000Y-70400000D03*
X110100000Y-61600000D03*
X95873000Y-71306645D03*
X97300000Y-67200000D03*
X109300000Y-67200000D03*
X94100000Y-100800000D03*
X106100000Y-56800000D03*
X123700000Y-70400000D03*
X111700000Y-64000000D03*
X90100000Y-97600000D03*
X86100000Y-96000000D03*
X88500000Y-59200000D03*
X86900000Y-87200000D03*
X102100000Y-62400000D03*
X103000000Y-78000000D03*
X120500000Y-99200000D03*
X115700000Y-59200000D03*
X86100000Y-72000000D03*
X120500000Y-67200000D03*
X118100000Y-63200000D03*
X115700000Y-69600000D03*
X109300000Y-66400000D03*
X115700000Y-97600000D03*
X121300000Y-88800000D03*
X107700000Y-82400000D03*
X118900000Y-64000000D03*
X92500000Y-102400000D03*
X115700000Y-73600000D03*
X92500000Y-57600000D03*
X120500000Y-88800000D03*
X96500000Y-91200000D03*
X93300000Y-61600000D03*
X116500000Y-58400000D03*
X114100000Y-58400000D03*
X99700000Y-69600000D03*
X117300000Y-58400000D03*
X121300000Y-60000000D03*
X120500000Y-70400000D03*
X122100000Y-72000000D03*
X122100000Y-63200000D03*
X94900000Y-62400000D03*
X101300000Y-102400000D03*
X94100000Y-85600000D03*
X116500000Y-87200000D03*
X98100000Y-96000000D03*
X117300000Y-101600000D03*
X106100000Y-59200000D03*
X114900000Y-57600000D03*
X93300000Y-63200000D03*
X119700000Y-98400000D03*
X88500000Y-103200000D03*
X86900000Y-95200000D03*
X110100000Y-60800000D03*
X110900000Y-59200000D03*
X116500000Y-86400000D03*
X91700000Y-91200000D03*
X103700000Y-56800000D03*
X90100000Y-100800000D03*
X115700000Y-64000000D03*
X108500000Y-78400000D03*
X110900000Y-60800000D03*
X91700000Y-102400000D03*
X123700000Y-72000000D03*
X90100000Y-96000000D03*
X99700000Y-60800000D03*
X112500000Y-69600000D03*
X98100000Y-95200000D03*
X118100000Y-64000000D03*
X99700000Y-62400000D03*
X88500000Y-92800000D03*
X95700000Y-100800000D03*
X86900000Y-74400000D03*
X94900000Y-61600000D03*
X86100000Y-87200000D03*
X114900000Y-56800000D03*
X89300000Y-88800000D03*
X114100000Y-61600000D03*
X126900000Y-59200000D03*
X120500000Y-100000000D03*
X118100000Y-60000000D03*
X116500000Y-60000000D03*
X104500000Y-63200000D03*
X106100000Y-60000000D03*
X126900000Y-103200000D03*
X86100000Y-59200000D03*
X89300000Y-92800000D03*
X90900000Y-59200000D03*
X115700000Y-70400000D03*
X126900000Y-69600000D03*
X114900000Y-60000000D03*
X118900000Y-86400000D03*
X89300000Y-64000000D03*
X117300000Y-64000000D03*
X111700000Y-72800000D03*
X108500000Y-68000000D03*
X106100000Y-60800000D03*
X125300000Y-92000000D03*
X126100000Y-83200000D03*
X89300000Y-102400000D03*
X114900000Y-70400000D03*
X118900000Y-100000000D03*
X126900000Y-102400000D03*
X126900000Y-100800000D03*
X92500000Y-84000000D03*
X94100000Y-102400000D03*
X102900000Y-58400000D03*
X98900000Y-94400000D03*
X100500000Y-63200000D03*
X125300000Y-61600000D03*
X92500000Y-97600000D03*
X87700000Y-88000000D03*
X108500000Y-58400000D03*
X110900000Y-74400000D03*
X89300000Y-91200000D03*
X113300000Y-96000000D03*
X98900000Y-59200000D03*
X109300000Y-82400000D03*
X108500000Y-68800000D03*
X90100000Y-84800000D03*
X98900000Y-60800000D03*
X86900000Y-91200000D03*
X122100000Y-69600000D03*
X113300000Y-102400000D03*
X122100000Y-62400000D03*
X98900000Y-101600000D03*
X121300000Y-64000000D03*
X95750000Y-80000000D03*
X86100000Y-72800000D03*
X118100000Y-69600000D03*
X112500000Y-60000000D03*
X114100000Y-70400000D03*
X122100000Y-68800000D03*
X93300000Y-103200000D03*
X115700000Y-72800000D03*
X116500000Y-97600000D03*
X114100000Y-64000000D03*
X118900000Y-100800000D03*
X119700000Y-99200000D03*
X100500000Y-60800000D03*
X124500000Y-59200000D03*
X106900000Y-57600000D03*
X117300000Y-56800000D03*
X91700000Y-101600000D03*
X114100000Y-96800000D03*
X116500000Y-103200000D03*
X86900000Y-60800000D03*
X117300000Y-100800000D03*
X92500000Y-56800000D03*
X122100000Y-59200000D03*
X92500000Y-100800000D03*
X88500000Y-90400000D03*
X113300000Y-64000000D03*
X86100000Y-93600000D03*
X93300000Y-58400000D03*
X112500000Y-58400000D03*
X95700000Y-100000000D03*
X90100000Y-103200000D03*
X118100000Y-101600000D03*
X116500000Y-69600000D03*
X90900000Y-102400000D03*
X94900000Y-100000000D03*
X119700000Y-77600000D03*
X101300000Y-64000000D03*
X90900000Y-97600000D03*
X89300000Y-88000000D03*
X95700000Y-63200000D03*
X92500000Y-62400000D03*
X111700000Y-57600000D03*
X105300000Y-87200000D03*
X123700000Y-96800000D03*
X99700000Y-68800000D03*
X97300000Y-100000000D03*
X98100000Y-72000000D03*
X99700000Y-100000000D03*
X98100000Y-62400000D03*
X99700000Y-63200000D03*
X100500000Y-64000000D03*
X94100000Y-59200000D03*
X107700000Y-61600000D03*
X123700000Y-103200000D03*
X126100000Y-82400000D03*
X90900000Y-91200000D03*
X123700000Y-88000000D03*
X110900000Y-66400000D03*
X114100000Y-60800000D03*
X86100000Y-98400000D03*
X113300000Y-60000000D03*
X105300000Y-64000000D03*
X99700000Y-64800000D03*
X118100000Y-62400000D03*
X122900000Y-72800000D03*
X105300000Y-56800000D03*
X116500000Y-56800000D03*
X110100000Y-68000000D03*
X109300000Y-77600000D03*
X123700000Y-71200000D03*
X103700000Y-58400000D03*
X91700000Y-95200000D03*
X121300000Y-80800000D03*
X114100000Y-74400000D03*
X120500000Y-62400000D03*
X96500000Y-57600000D03*
X91700000Y-100000000D03*
X126900000Y-60800000D03*
X91700000Y-92800000D03*
X91700000Y-60000000D03*
X126100000Y-63200000D03*
X126900000Y-91200000D03*
X109300000Y-60000000D03*
X90900000Y-60000000D03*
X109300000Y-59200000D03*
X87700000Y-91200000D03*
X90100000Y-62400000D03*
X103700000Y-62400000D03*
X110900000Y-61600000D03*
X119700000Y-90400000D03*
X97300000Y-56800000D03*
X118900000Y-62400000D03*
X110900000Y-56800000D03*
X86100000Y-86400000D03*
X114100000Y-69600000D03*
X86100000Y-64800000D03*
X98900000Y-102400000D03*
X118900000Y-57600000D03*
X88500000Y-96800000D03*
X92500000Y-84800000D03*
X112500000Y-81600000D03*
X98100000Y-103200000D03*
X101300000Y-62400000D03*
X101300000Y-57600000D03*
X118900000Y-88000000D03*
X112500000Y-68800000D03*
X95750000Y-78750000D03*
X97300000Y-71200000D03*
X90900000Y-58400000D03*
X90100000Y-61600000D03*
X126900000Y-89600000D03*
X111700000Y-102400000D03*
X126900000Y-92800000D03*
X111700000Y-103200000D03*
X101300000Y-56800000D03*
X96500000Y-63200000D03*
X126100000Y-89600000D03*
X95700000Y-56800000D03*
X119700000Y-59200000D03*
X86100000Y-60000000D03*
X126100000Y-65600000D03*
X111700000Y-80800000D03*
X110100000Y-56800000D03*
X98100000Y-70400000D03*
X108500000Y-61600000D03*
X126900000Y-61600000D03*
X117300000Y-73600000D03*
X91700000Y-94400000D03*
X118900000Y-99200000D03*
X106900000Y-60000000D03*
X111700000Y-66400000D03*
X126100000Y-99200000D03*
X116500000Y-72000000D03*
X118900000Y-97600000D03*
X108500000Y-77600000D03*
X99700000Y-100800000D03*
X97300000Y-91200000D03*
X121300000Y-98400000D03*
X115700000Y-68000000D03*
X99700000Y-58400000D03*
X91700000Y-97600000D03*
X117300000Y-57600000D03*
X111700000Y-82400000D03*
X124500000Y-84000000D03*
X126900000Y-99200000D03*
X110900000Y-68000000D03*
X118100000Y-86400000D03*
X115700000Y-101600000D03*
X93300000Y-84800000D03*
X112500000Y-72000000D03*
X120500000Y-89600000D03*
X122900000Y-71200000D03*
X96500000Y-64000000D03*
X89300000Y-103200000D03*
X94100000Y-61600000D03*
X94750000Y-77250000D03*
X121300000Y-68800000D03*
X99700000Y-99200000D03*
X116500000Y-89600000D03*
X93300000Y-100000000D03*
X107700000Y-77600000D03*
X96500000Y-62400000D03*
X114900000Y-72800000D03*
X119700000Y-58400000D03*
X114100000Y-97600000D03*
X122100000Y-90400000D03*
X118100000Y-85600000D03*
X86100000Y-77600000D03*
X112500000Y-56800000D03*
X114900000Y-64000000D03*
X114100000Y-59200000D03*
X86900000Y-85600000D03*
X108500000Y-80000000D03*
X99700000Y-59200000D03*
X106900000Y-60800000D03*
X118100000Y-100800000D03*
X93300000Y-84000000D03*
X122100000Y-58400000D03*
X86900000Y-100800000D03*
X124500000Y-71200000D03*
X109300000Y-68000000D03*
X118100000Y-97600000D03*
X100500000Y-100800000D03*
X112500000Y-103200000D03*
X107700000Y-64000000D03*
X126100000Y-62400000D03*
X120500000Y-76800000D03*
X117300000Y-88800000D03*
X99700000Y-103200000D03*
X117300000Y-64800000D03*
X117300000Y-89600000D03*
X97300000Y-99200000D03*
X115700000Y-61600000D03*
X118900000Y-103200000D03*
X94100000Y-99200000D03*
X125300000Y-83200000D03*
X89300000Y-93600000D03*
X126900000Y-101600000D03*
X118900000Y-61600000D03*
X114100000Y-68800000D03*
X89300000Y-84000000D03*
X126900000Y-63200000D03*
X94900000Y-58400000D03*
X90100000Y-100000000D03*
X86100000Y-73600000D03*
X90900000Y-95200000D03*
X118100000Y-71200000D03*
X126900000Y-62400000D03*
X117300000Y-60000000D03*
X115700000Y-74400000D03*
X110100000Y-58400000D03*
X104500000Y-103200000D03*
X106900000Y-59200000D03*
X118900000Y-56800000D03*
X114900000Y-69600000D03*
X93300000Y-60800000D03*
X103700000Y-60800000D03*
X121300000Y-69600000D03*
X92500000Y-103200000D03*
X91700000Y-96000000D03*
X90900000Y-96800000D03*
X91700000Y-56800000D03*
X86900000Y-94400000D03*
X110900000Y-81600000D03*
X121300000Y-76800000D03*
X113300000Y-57600000D03*
X112500000Y-71200000D03*
X94900000Y-85600000D03*
X89300000Y-70400000D03*
X108500000Y-63200000D03*
X90900000Y-98400000D03*
X118900000Y-63200000D03*
X111700000Y-73600000D03*
X112500000Y-60800000D03*
X98100000Y-60000000D03*
X122900000Y-88800000D03*
X118900000Y-98400000D03*
X103700000Y-102400000D03*
X126900000Y-56800000D03*
X86900000Y-62400000D03*
X97300000Y-102400000D03*
X90100000Y-58400000D03*
X86100000Y-62400000D03*
X88500000Y-60800000D03*
X93300000Y-96800000D03*
X92500000Y-100000000D03*
X122900000Y-70400000D03*
X117300000Y-69600000D03*
X89300000Y-58400000D03*
X98900000Y-64000000D03*
X110100000Y-60000000D03*
X118100000Y-60800000D03*
X87700000Y-61600000D03*
X87700000Y-100800000D03*
X94900000Y-100800000D03*
X123700000Y-99200000D03*
X88500000Y-93600000D03*
X122900000Y-56800000D03*
X87700000Y-96800000D03*
X123700000Y-80800000D03*
X114100000Y-68000000D03*
X109300000Y-78400000D03*
X112500000Y-70400000D03*
X119700000Y-62400000D03*
X98100000Y-56800000D03*
X86100000Y-88800000D03*
X124500000Y-82400000D03*
X89300000Y-63200000D03*
X122100000Y-64800000D03*
X120500000Y-68800000D03*
X105300000Y-58400000D03*
X102100000Y-101600000D03*
X96500000Y-60800000D03*
X86900000Y-61600000D03*
X86100000Y-88000000D03*
X119700000Y-85600000D03*
X122900000Y-77600000D03*
X125300000Y-91200000D03*
X108500000Y-60800000D03*
X119700000Y-92800000D03*
X86100000Y-102400000D03*
X120500000Y-58400000D03*
X94900000Y-60000000D03*
X124500000Y-60000000D03*
X114900000Y-63200000D03*
X114900000Y-60800000D03*
X87700000Y-96000000D03*
X111700000Y-61600000D03*
X97300000Y-60800000D03*
X86900000Y-88000000D03*
X86900000Y-60000000D03*
X94100000Y-101600000D03*
X107700000Y-59200000D03*
X116500000Y-101600000D03*
X89300000Y-92000000D03*
X119700000Y-100800000D03*
X87700000Y-60800000D03*
X90900000Y-92800000D03*
X98900000Y-64800000D03*
X121300000Y-58400000D03*
X126100000Y-67200000D03*
X87700000Y-86400000D03*
X113300000Y-59200000D03*
X89300000Y-96800000D03*
X111700000Y-68800000D03*
X96500000Y-68000000D03*
X104500000Y-60000000D03*
X122100000Y-80800000D03*
X117300000Y-100000000D03*
X86100000Y-96800000D03*
X98900000Y-65600000D03*
X90100000Y-92800000D03*
X117300000Y-86400000D03*
X113300000Y-72000000D03*
X108500000Y-59200000D03*
X101300000Y-100800000D03*
X123700000Y-76800000D03*
X113300000Y-96800000D03*
X120500000Y-59200000D03*
X88500000Y-95200000D03*
X122900000Y-60000000D03*
X93300000Y-68000000D03*
X86900000Y-96000000D03*
X97300000Y-100800000D03*
X125300000Y-60000000D03*
X126900000Y-100000000D03*
X105300000Y-59200000D03*
X117300000Y-83200000D03*
X120500000Y-57600000D03*
X91700000Y-58400000D03*
X114100000Y-102400000D03*
X126900000Y-58400000D03*
X126900000Y-92000000D03*
X116500000Y-72800000D03*
X124500000Y-72000000D03*
X89300000Y-95200000D03*
X91700000Y-93600000D03*
X126100000Y-98400000D03*
X126100000Y-66400000D03*
X118900000Y-102400000D03*
X99700000Y-102400000D03*
X102100000Y-61600000D03*
X96500000Y-99200000D03*
X121300000Y-72800000D03*
X108500000Y-82400000D03*
X115700000Y-100000000D03*
X90900000Y-94400000D03*
X86100000Y-92000000D03*
X91700000Y-84800000D03*
X120500000Y-86400000D03*
X126900000Y-98400000D03*
X101300000Y-103200000D03*
X104500000Y-60800000D03*
X116500000Y-60800000D03*
X110900000Y-64000000D03*
X96500000Y-100000000D03*
X120500000Y-88000000D03*
X86100000Y-63200000D03*
X109300000Y-61600000D03*
X122100000Y-81600000D03*
X113300000Y-61600000D03*
X86100000Y-100800000D03*
X88500000Y-102400000D03*
X121300000Y-67200000D03*
X106100000Y-57600000D03*
X120500000Y-63200000D03*
X95700000Y-101600000D03*
X123700000Y-77600000D03*
X86100000Y-60800000D03*
X112500000Y-102400000D03*
X126900000Y-95200000D03*
X102100000Y-100800000D03*
X115700000Y-56800000D03*
X102100000Y-57600000D03*
X111700000Y-59200000D03*
X120500000Y-101600000D03*
X108500000Y-56800000D03*
X90900000Y-62400000D03*
X88500000Y-101600000D03*
X109300000Y-60800000D03*
X110900000Y-57600000D03*
X88500000Y-100800000D03*
X122100000Y-64000000D03*
X106900000Y-56800000D03*
X97300000Y-59200000D03*
X116500000Y-102400000D03*
X90900000Y-61600000D03*
X126100000Y-96800000D03*
X108500000Y-67200000D03*
X98900000Y-60000000D03*
X95700000Y-60000000D03*
X95700000Y-103200000D03*
X94900000Y-101600000D03*
X118900000Y-58400000D03*
X116500000Y-98400000D03*
X116500000Y-70400000D03*
X120500000Y-64000000D03*
X113300000Y-71200000D03*
X91700000Y-63200000D03*
X122100000Y-70400000D03*
X113300000Y-69600000D03*
X104500000Y-61600000D03*
X97300000Y-70400000D03*
X86100000Y-100000000D03*
X100500000Y-58400000D03*
X119700000Y-87200000D03*
X121300000Y-70400000D03*
X112500000Y-59200000D03*
X113300000Y-70400000D03*
X91700000Y-60800000D03*
X110100000Y-82400000D03*
X122900000Y-58400000D03*
X115700000Y-72000000D03*
X102100000Y-63200000D03*
X86100000Y-90400000D03*
X119700000Y-76800000D03*
X126100000Y-97600000D03*
X122100000Y-88800000D03*
X110900000Y-63200000D03*
X100500000Y-103200000D03*
X124500000Y-91200000D03*
X111700000Y-60000000D03*
X120500000Y-61600000D03*
X115700000Y-98400000D03*
X93300000Y-101600000D03*
X120500000Y-69600000D03*
X123700000Y-88800000D03*
X97300000Y-103200000D03*
X98900000Y-99200000D03*
X90100000Y-60000000D03*
X126900000Y-64000000D03*
X126900000Y-94400000D03*
X114100000Y-60000000D03*
X93300000Y-97600000D03*
X111700000Y-60800000D03*
X93300000Y-85600000D03*
X117300000Y-99200000D03*
X94750000Y-80000000D03*
X91700000Y-100800000D03*
X102100000Y-56800000D03*
X120500000Y-100800000D03*
X113300000Y-103200000D03*
X126100000Y-91200000D03*
X121300000Y-64800000D03*
X118100000Y-88000000D03*
X95250000Y-79250000D03*
X119700000Y-89600000D03*
X92500000Y-58400000D03*
X123700000Y-76000000D03*
X91700000Y-85600000D03*
X117300000Y-88000000D03*
X122100000Y-72800000D03*
X109300000Y-56800000D03*
X102900000Y-57600000D03*
X94900000Y-60800000D03*
X120500000Y-102400000D03*
X110100000Y-68800000D03*
X92500000Y-86400000D03*
X117300000Y-60800000D03*
X118100000Y-98400000D03*
X107700000Y-78400000D03*
X90900000Y-92000000D03*
X114900000Y-73600000D03*
X122900000Y-57600000D03*
X114900000Y-59200000D03*
X98900000Y-100000000D03*
X106100000Y-58400000D03*
X120500000Y-87200000D03*
X97300000Y-58400000D03*
X102100000Y-60800000D03*
X105300000Y-60800000D03*
X94100000Y-103200000D03*
X102100000Y-59200000D03*
X116500000Y-64800000D03*
X92500000Y-99200000D03*
X115700000Y-68800000D03*
X106900000Y-64000000D03*
X97300000Y-90400000D03*
X97300000Y-64000000D03*
X87700000Y-59200000D03*
X119700000Y-60000000D03*
X87700000Y-94400000D03*
X86900000Y-92000000D03*
X118100000Y-72800000D03*
X113300000Y-95200000D03*
X113300000Y-68000000D03*
X88500000Y-62400000D03*
X90900000Y-56800000D03*
X118900000Y-60000000D03*
X114100000Y-63200000D03*
X120500000Y-60800000D03*
X108500000Y-57600000D03*
X126900000Y-57600000D03*
X111700000Y-68000000D03*
X103700000Y-61600000D03*
X104500000Y-64000000D03*
X122900000Y-76800000D03*
X126100000Y-68000000D03*
X103700000Y-64000000D03*
X122100000Y-89600000D03*
X118100000Y-84800000D03*
X94100000Y-68000000D03*
X121300000Y-77600000D03*
X93300000Y-60000000D03*
X90100000Y-89600000D03*
X87700000Y-88800000D03*
X114100000Y-57600000D03*
X108500000Y-79200000D03*
X94900000Y-102400000D03*
X98900000Y-61600000D03*
X86900000Y-101600000D03*
X125300000Y-90400000D03*
X91700000Y-57600000D03*
X111700000Y-97600000D03*
X120500000Y-77600000D03*
X121300000Y-60800000D03*
X86100000Y-94400000D03*
X94900000Y-63200000D03*
X88500000Y-92000000D03*
X93300000Y-62400000D03*
X112500000Y-66400000D03*
X122100000Y-56800000D03*
X126900000Y-93600000D03*
X119700000Y-64000000D03*
X101300000Y-63200000D03*
X97300000Y-69600000D03*
X98100000Y-69600000D03*
X94100000Y-58400000D03*
X89300000Y-101600000D03*
X111700000Y-62400000D03*
X87700000Y-87200000D03*
X88500000Y-88000000D03*
X86900000Y-102400000D03*
X95700000Y-60800000D03*
X114900000Y-68800000D03*
X126100000Y-64000000D03*
X87700000Y-89600000D03*
X120500000Y-60000000D03*
X120500000Y-56800000D03*
X113300000Y-63200000D03*
X103700000Y-103200000D03*
X109300000Y-57600000D03*
X113300000Y-56800000D03*
X118100000Y-87200000D03*
X86100000Y-92800000D03*
X117300000Y-84000000D03*
X116500000Y-68800000D03*
X115700000Y-62400000D03*
X122100000Y-57600000D03*
X105300000Y-57600000D03*
X94900000Y-57600000D03*
X86100000Y-95200000D03*
X98100000Y-58400000D03*
X111700000Y-96800000D03*
X90900000Y-100800000D03*
X101300000Y-61600000D03*
X105300000Y-62400000D03*
X98900000Y-103200000D03*
X87700000Y-102400000D03*
X123700000Y-60000000D03*
X96500000Y-61600000D03*
X116500000Y-84000000D03*
X110100000Y-62400000D03*
X117300000Y-87200000D03*
X110900000Y-68800000D03*
X86900000Y-81600000D03*
X119700000Y-61600000D03*
X122100000Y-60800000D03*
X122900000Y-59200000D03*
X115700000Y-100800000D03*
X98100000Y-63200000D03*
X94900000Y-99200000D03*
X88500000Y-89600000D03*
X86900000Y-103200000D03*
X86100000Y-91200000D03*
X96500000Y-84800000D03*
X102900000Y-64000000D03*
X125300000Y-103200000D03*
X122900000Y-81600000D03*
X112500000Y-64000000D03*
X86100000Y-65600000D03*
X93300000Y-98400000D03*
X107700000Y-60800000D03*
X98900000Y-95200000D03*
X121300000Y-62400000D03*
X119700000Y-88000000D03*
X116500000Y-100800000D03*
X88500000Y-91200000D03*
X116500000Y-57600000D03*
X121300000Y-99200000D03*
X89300000Y-62400000D03*
X122100000Y-76800000D03*
X90100000Y-93600000D03*
X126100000Y-59200000D03*
X120500000Y-72000000D03*
X96500000Y-102400000D03*
X118100000Y-59200000D03*
X110900000Y-62400000D03*
X114900000Y-62400000D03*
X106100000Y-63200000D03*
X126900000Y-97600000D03*
X107700000Y-62400000D03*
X100500000Y-61600000D03*
X121300000Y-76000000D03*
X90100000Y-84000000D03*
X117300000Y-63200000D03*
X90900000Y-57600000D03*
X126900000Y-66400000D03*
X107700000Y-57600000D03*
X118900000Y-85600000D03*
X98100000Y-57600000D03*
X98900000Y-100800000D03*
X126100000Y-68800000D03*
X87700000Y-64800000D03*
X123700000Y-81600000D03*
X90900000Y-103200000D03*
X86100000Y-78400000D03*
X118100000Y-103200000D03*
X122100000Y-76000000D03*
X96500000Y-60000000D03*
X111700000Y-67200000D03*
X115700000Y-63200000D03*
X100500000Y-57600000D03*
X88500000Y-88800000D03*
X122900000Y-61600000D03*
X118100000Y-72000000D03*
X94100000Y-63200000D03*
X123700000Y-59200000D03*
X122900000Y-103200000D03*
X113300000Y-66400000D03*
X126100000Y-92000000D03*
X116500000Y-90400000D03*
X104500000Y-62400000D03*
X114900000Y-71200000D03*
X118100000Y-56800000D03*
X98100000Y-99200000D03*
X118900000Y-60800000D03*
X114100000Y-72000000D03*
X88500000Y-87200000D03*
X92500000Y-101600000D03*
X86900000Y-86400000D03*
X97300000Y-101600000D03*
X99700000Y-101600000D03*
X116500000Y-88800000D03*
X86100000Y-66400000D03*
X102100000Y-58400000D03*
X112500000Y-96000000D03*
X94100000Y-62400000D03*
X97300000Y-60000000D03*
X112500000Y-97600000D03*
X126900000Y-67200000D03*
X118100000Y-102400000D03*
X114100000Y-73600000D03*
X116500000Y-63200000D03*
X102900000Y-103200000D03*
X86900000Y-88800000D03*
X91700000Y-99200000D03*
X116500000Y-61600000D03*
X88500000Y-96000000D03*
X110900000Y-58400000D03*
X114100000Y-103200000D03*
X117300000Y-97600000D03*
X118100000Y-64800000D03*
X86900000Y-97600000D03*
X113300000Y-62400000D03*
X102100000Y-103200000D03*
X96500000Y-101600000D03*
X126900000Y-96000000D03*
X119700000Y-57600000D03*
X115700000Y-57600000D03*
X118900000Y-87200000D03*
X94100000Y-69600000D03*
X103700000Y-57600000D03*
X101905331Y-78094669D03*
X90100000Y-57600000D03*
X112500000Y-57600000D03*
X98100000Y-100800000D03*
X98100000Y-71200000D03*
X111700000Y-69600000D03*
X113300000Y-60800000D03*
X117300000Y-84800000D03*
X115700000Y-87200000D03*
X101300000Y-101600000D03*
X102900000Y-56800000D03*
X93300000Y-69600000D03*
X117300000Y-72000000D03*
X90900000Y-93600000D03*
X112500000Y-82400000D03*
X118100000Y-65600000D03*
X102900000Y-59200000D03*
X102900000Y-100800000D03*
X123700000Y-73600000D03*
X114100000Y-62400000D03*
X120500000Y-103200000D03*
X123700000Y-96000000D03*
X97300000Y-63200000D03*
X99700000Y-61600000D03*
X90900000Y-63200000D03*
X107700000Y-63200000D03*
X125300000Y-60800000D03*
X98900000Y-69600000D03*
X118100000Y-73600000D03*
X119700000Y-63200000D03*
X116500000Y-64000000D03*
X122100000Y-77600000D03*
X118100000Y-89600000D03*
X110100000Y-59200000D03*
X92500000Y-61600000D03*
X93300000Y-59200000D03*
X112500000Y-63200000D03*
X125300000Y-82400000D03*
X90900000Y-96000000D03*
X106100000Y-61600000D03*
X111700000Y-63200000D03*
X122100000Y-103200000D03*
X91700000Y-86400000D03*
X101300000Y-59200000D03*
X100500000Y-59200000D03*
X93300000Y-100800000D03*
X117300000Y-103200000D03*
X94100000Y-56800000D03*
X104500000Y-59200000D03*
X90900000Y-101600000D03*
X90100000Y-101600000D03*
X114900000Y-61600000D03*
X86100000Y-99200000D03*
X121300000Y-63200000D03*
X86100000Y-89600000D03*
X89300000Y-61600000D03*
X107700000Y-80000000D03*
X116500000Y-82400000D03*
X107700000Y-60000000D03*
X90900000Y-89600000D03*
X95700000Y-59200000D03*
X90100000Y-56800000D03*
X122100000Y-67200000D03*
X93300000Y-99200000D03*
X100500000Y-60000000D03*
X119700000Y-86400000D03*
X87700000Y-92000000D03*
X125300000Y-72000000D03*
X90100000Y-59200000D03*
X114100000Y-67200000D03*
X100500000Y-62400000D03*
X124500000Y-92000000D03*
X114900000Y-97600000D03*
X110100000Y-78400000D03*
X96500000Y-56800000D03*
X116500000Y-74400000D03*
X91700000Y-62400000D03*
X110100000Y-64000000D03*
X122900000Y-80800000D03*
X92500000Y-96800000D03*
X103700000Y-60000000D03*
X115700000Y-103200000D03*
X126100000Y-60800000D03*
X126900000Y-68800000D03*
X86900000Y-100000000D03*
X114100000Y-72800000D03*
X96500000Y-90400000D03*
X116500000Y-100000000D03*
X97300000Y-61600000D03*
X86100000Y-61600000D03*
X86900000Y-92800000D03*
X89300000Y-59200000D03*
X94100000Y-60800000D03*
X91700000Y-61600000D03*
X119700000Y-60800000D03*
X108500000Y-60000000D03*
X90100000Y-91200000D03*
X86100000Y-64000000D03*
X126100000Y-69600000D03*
X98900000Y-58400000D03*
X126900000Y-64800000D03*
X86100000Y-81600000D03*
X92500000Y-98400000D03*
X111700000Y-71200000D03*
X118900000Y-89600000D03*
X114100000Y-66400000D03*
X96500000Y-67200000D03*
X95700000Y-102400000D03*
X98900000Y-57600000D03*
X116500000Y-83200000D03*
X114900000Y-72000000D03*
X90100000Y-94400000D03*
X91700000Y-103200000D03*
X95700000Y-61600000D03*
X101300000Y-58400000D03*
X117300000Y-61600000D03*
X86100000Y-71200000D03*
X123700000Y-72800000D03*
X86100000Y-85600000D03*
X98100000Y-60800000D03*
X92500000Y-60800000D03*
X95700000Y-62400000D03*
X115700000Y-88000000D03*
X99700000Y-57600000D03*
X90100000Y-96800000D03*
X88500000Y-60000000D03*
X103700000Y-63200000D03*
X96500000Y-100800000D03*
X121300000Y-66400000D03*
X115700000Y-71200000D03*
X90900000Y-100000000D03*
X124500000Y-83200000D03*
X102900000Y-60800000D03*
X89300000Y-60000000D03*
X109300000Y-63200000D03*
X116500000Y-85600000D03*
X97300000Y-62400000D03*
X88500000Y-61600000D03*
X111700000Y-56800000D03*
X92500000Y-87200000D03*
X93300000Y-86400000D03*
X121300000Y-59200000D03*
X121300000Y-57600000D03*
X102900000Y-102400000D03*
X101300000Y-60000000D03*
X126100000Y-84800000D03*
X112500000Y-62400000D03*
X91700000Y-96800000D03*
X126900000Y-60000000D03*
X86100000Y-101600000D03*
X87700000Y-101600000D03*
X110900000Y-60000000D03*
X102900000Y-62400000D03*
X102900000Y-63200000D03*
X116500000Y-99200000D03*
X104500000Y-57600000D03*
X96500000Y-58400000D03*
X111700000Y-72000000D03*
X126100000Y-96000000D03*
X102900000Y-101600000D03*
X122900000Y-82400000D03*
X122900000Y-60800000D03*
X98100000Y-64000000D03*
X118100000Y-61600000D03*
X96250000Y-79250000D03*
X98100000Y-100000000D03*
X95700000Y-57600000D03*
X106900000Y-61600000D03*
X86100000Y-103200000D03*
X96500000Y-59200000D03*
X98900000Y-56800000D03*
X110100000Y-67200000D03*
X122100000Y-60000000D03*
X116500000Y-84800000D03*
X90500000Y-72250000D03*
X90100000Y-90400000D03*
X116500000Y-62400000D03*
X107700000Y-58400000D03*
X117300000Y-98400000D03*
X101300000Y-60800000D03*
X110100000Y-63200000D03*
X124500000Y-60800000D03*
X118900000Y-88800000D03*
X113300000Y-97600000D03*
X119700000Y-56800000D03*
X113300000Y-67200000D03*
X94900000Y-59200000D03*
X95700000Y-58400000D03*
X118900000Y-96800000D03*
X125300000Y-84000000D03*
X87700000Y-95200000D03*
X97300000Y-57600000D03*
X94250000Y-79250000D03*
X122100000Y-61600000D03*
X87700000Y-62400000D03*
X117300000Y-65600000D03*
X89300000Y-57600000D03*
X114900000Y-74400000D03*
X103700000Y-101600000D03*
X118900000Y-101600000D03*
X89300000Y-96000000D03*
X114100000Y-71200000D03*
X109300000Y-68800000D03*
X90100000Y-102400000D03*
X126900000Y-90400000D03*
X91700000Y-84000000D03*
X116500000Y-88000000D03*
X126100000Y-90400000D03*
X121300000Y-89600000D03*
X106100000Y-64000000D03*
X121300000Y-56800000D03*
X123700000Y-97600000D03*
X115700000Y-60800000D03*
X115700000Y-99200000D03*
X125300000Y-59200000D03*
X112500000Y-96800000D03*
X95700000Y-99200000D03*
X110100000Y-57600000D03*
X91700000Y-59200000D03*
X115700000Y-58400000D03*
X90100000Y-95200000D03*
X94100000Y-100000000D03*
X96500000Y-69600000D03*
X98100000Y-102400000D03*
X105300000Y-61600000D03*
X126900000Y-96800000D03*
X92500000Y-85600000D03*
X126100000Y-84000000D03*
X91700000Y-92000000D03*
X116500000Y-73600000D03*
X88500000Y-94400000D03*
X119700000Y-88800000D03*
X120500000Y-72800000D03*
X108500000Y-64000000D03*
X109300000Y-62400000D03*
X94100000Y-57600000D03*
X89300000Y-89600000D03*
X90900000Y-90400000D03*
X86900000Y-93600000D03*
X91700000Y-98400000D03*
X98900000Y-63200000D03*
X112500000Y-68000000D03*
X102100000Y-64000000D03*
X105300000Y-63200000D03*
X121300000Y-103200000D03*
X111700000Y-81600000D03*
X123700000Y-83200000D03*
X86100000Y-74400000D03*
X90900000Y-84000000D03*
X116500000Y-59200000D03*
X121300000Y-71200000D03*
X126900000Y-65600000D03*
X90100000Y-60800000D03*
X92500000Y-68000000D03*
X114100000Y-56800000D03*
X104500000Y-56800000D03*
X107700000Y-56800000D03*
X97300000Y-72000000D03*
X98100000Y-59200000D03*
X118100000Y-100000000D03*
X121300000Y-72000000D03*
X89300000Y-56800000D03*
X119700000Y-103200000D03*
X90900000Y-99200000D03*
X114900000Y-102400000D03*
X118900000Y-59200000D03*
X120500000Y-98400000D03*
X118100000Y-66400000D03*
X95250000Y-78000000D03*
X102900000Y-60000000D03*
X90900000Y-84800000D03*
X126900000Y-88800000D03*
X89300000Y-100800000D03*
X117300000Y-71200000D03*
X121300000Y-61600000D03*
X87700000Y-90400000D03*
X117300000Y-74400000D03*
X116500000Y-71200000D03*
X118100000Y-84000000D03*
X109300000Y-64000000D03*
X99700000Y-56800000D03*
X121300000Y-90400000D03*
X119700000Y-100000000D03*
X121300000Y-73600000D03*
X113300000Y-68800000D03*
X124500000Y-103200000D03*
X123700000Y-98400000D03*
X114900000Y-68000000D03*
X99700000Y-64000000D03*
X121300000Y-74400000D03*
X108500000Y-66400000D03*
X87700000Y-103200000D03*
X123700000Y-60800000D03*
X98900000Y-70400000D03*
X86900000Y-96800000D03*
X110900000Y-67200000D03*
X90100000Y-63200000D03*
X94900000Y-103200000D03*
X86100000Y-84800000D03*
X89300000Y-60800000D03*
X117300000Y-85600000D03*
X98100000Y-101600000D03*
X126100000Y-103200000D03*
X89300000Y-94400000D03*
X119700000Y-101600000D03*
X115700000Y-102400000D03*
X122100000Y-66400000D03*
X106100000Y-62400000D03*
X115700000Y-60000000D03*
X122900000Y-89600000D03*
X113300000Y-58400000D03*
X93300000Y-57600000D03*
X111700000Y-58400000D03*
X118900000Y-84800000D03*
X90900000Y-85600000D03*
X106900000Y-58400000D03*
%TO.N,+3V3*%
X89750000Y-79262000D03*
X93000000Y-80750000D03*
X118500000Y-68000000D03*
X101250000Y-65250000D03*
X101750000Y-80596331D03*
X92250000Y-73500001D03*
X89750000Y-76000000D03*
X117000000Y-96250001D03*
%TO.N,+12V*%
X99500000Y-80500000D03*
D24*
X87750000Y-68500001D03*
D23*
X99500000Y-79750000D03*
X100250000Y-79750000D03*
X88500000Y-68500001D03*
X100500000Y-80500000D03*
X87500000Y-67750001D03*
X88250000Y-67750001D03*
X87000000Y-68500001D03*
%TO.N,ISEN*%
X99500000Y-76750000D03*
%TO.N,MOSI*%
X105500000Y-85000000D03*
X93250000Y-91500000D03*
%TO.N,+5V*%
X104000000Y-80500000D03*
X96500000Y-73250000D03*
%TO.N,CAN_SILENT*%
X115000000Y-89750000D03*
X112925222Y-80247768D03*
%TO.N,NRST*%
X120000000Y-75250000D03*
X110250000Y-80250000D03*
%TO.N,SWCLK*%
X116500000Y-76000000D03*
%TO.N,SWDIO*%
X115669143Y-77169143D03*
%TO.N,DRV_IN2*%
X102377000Y-82337183D03*
%TO.N,MISO*%
X100000000Y-96750000D03*
X106500000Y-90250000D03*
%TO.N,MAG_CS*%
X114125000Y-85875000D03*
X100750000Y-97250000D03*
%TO.N,SCK*%
X98500000Y-92750000D03*
X109000000Y-85500000D03*
%TO.N,DRV_IN1*%
X102500000Y-83250000D03*
%TD*%
D25*
%TO.N,+3V3*%
X119250002Y-68000002D02*
X123975002Y-68000002D01*
X100596331Y-81750000D02*
X101750000Y-80596331D01*
X117750000Y-96250001D02*
X117000000Y-96250001D01*
X90750000Y-68750001D02*
X97749999Y-68750001D01*
X97749999Y-68750001D02*
X101250000Y-65250000D01*
X94000000Y-80750000D02*
X95000000Y-81750000D01*
X93000000Y-80750000D02*
X94000000Y-80750000D01*
X95000000Y-81750000D02*
X100596331Y-81750000D01*
X123500000Y-90500001D02*
X117750000Y-96250001D01*
X119250000Y-68000000D02*
X119250002Y-68000002D01*
X118500000Y-68000000D02*
X119250000Y-68000000D01*
X101750000Y-80500000D02*
X101750000Y-80596331D01*
X89750000Y-79262000D02*
X89750000Y-76000000D01*
D26*
%TO.N,+12V*%
X99500000Y-80000000D02*
X99250000Y-79750000D01*
X87750000Y-69250001D02*
X88500000Y-68500001D01*
X87750000Y-72500000D02*
X87750000Y-68500001D01*
X100250000Y-79750000D02*
X100250000Y-80750000D01*
X99750000Y-80250000D02*
X99250000Y-79750000D01*
X100500000Y-80500000D02*
X99500000Y-80500000D01*
X87000000Y-68500001D02*
X87750000Y-69250001D01*
X99500000Y-79750000D02*
X100250000Y-79750000D01*
X99500000Y-80500000D02*
X99500000Y-80000000D01*
X99250000Y-79750000D02*
X99000000Y-79750000D01*
X87500000Y-67750001D02*
X87500000Y-68000001D01*
X100000000Y-80500000D02*
X100500000Y-80500000D01*
X87500000Y-68000001D02*
X87000000Y-68500001D01*
X99250000Y-79750000D02*
X99500000Y-79750000D01*
X100250000Y-80750000D02*
X100000000Y-80500000D01*
X88500000Y-68000001D02*
X88250000Y-67750001D01*
X88250000Y-67750001D02*
X87500000Y-67750001D01*
X88500000Y-68500001D02*
X88500000Y-68000001D01*
X93750000Y-74500000D02*
X89750000Y-74500000D01*
X99000000Y-79750000D02*
X93750000Y-74500000D01*
X89750000Y-74500000D02*
X87750000Y-72500000D01*
D27*
%TO.N,ISEN*%
X99500000Y-76750000D02*
X103250000Y-80500000D01*
X103250000Y-80500000D02*
X103250000Y-85250000D01*
D25*
%TO.N,MOSI*%
X105500000Y-85375000D02*
X105500000Y-85000000D01*
X97500000Y-87250000D02*
X103625000Y-87250000D01*
X93250000Y-91500000D02*
X97500000Y-87250000D01*
X103625000Y-87250000D02*
X105500000Y-85375000D01*
%TO.N,+5V*%
X104000000Y-80500000D02*
X104000000Y-77000000D01*
X100250000Y-73250000D02*
X104000000Y-77000000D01*
X96500000Y-73250000D02*
X100250000Y-73250000D01*
%TO.N,CAN_SILENT*%
X114752000Y-82074546D02*
X112925222Y-80247768D01*
X115000000Y-89750000D02*
X114752000Y-89502000D01*
X114752000Y-89502000D02*
X114752000Y-82074546D01*
%TO.N,NRST*%
X110250000Y-80250000D02*
X115127000Y-75373000D01*
X115127000Y-75373000D02*
X115250000Y-75250000D01*
X115250000Y-75250000D02*
X120000000Y-75250000D01*
%TO.N,SWCLK*%
X124979999Y-78560003D02*
X119060003Y-78560003D01*
X119060003Y-78560003D02*
X116500000Y-76000000D01*
%TO.N,SWDIO*%
X118330003Y-79830003D02*
X124980002Y-79830003D01*
X115669143Y-77169143D02*
X118330003Y-79830003D01*
%TO.N,DRV_IN2*%
X102377000Y-82337183D02*
X102214183Y-82500000D01*
X87000000Y-77750000D02*
X87000000Y-76155000D01*
X102214183Y-82500000D02*
X91750000Y-82500000D01*
X91750000Y-82500000D02*
X87000000Y-77750000D01*
%TO.N,MISO*%
X100000000Y-96750000D02*
X106500000Y-90250000D01*
%TO.N,MAG_CS*%
X101000000Y-97000000D02*
X100750000Y-97250000D01*
X103000000Y-97000000D02*
X101000000Y-97000000D01*
X114125000Y-85875000D02*
X103000000Y-97000000D01*
%TO.N,SCK*%
X98500000Y-92750000D02*
X101750000Y-92750000D01*
X101750000Y-92750000D02*
X109000000Y-85500000D01*
%TO.N,DRV_IN1*%
X90345000Y-83250000D02*
X87000000Y-79905000D01*
X102500000Y-83250000D02*
X90345000Y-83250000D01*
%TD*%
%TA.AperFunction,Conductor*%
%TO.N,GND*%
G36*
X93382322Y-75445185D02*
G01*
X93402964Y-75461819D01*
X98410024Y-80468880D01*
X98410025Y-80468881D01*
X98410028Y-80468883D01*
X98528954Y-80548346D01*
X98573760Y-80601959D01*
X98581681Y-80627257D01*
X98610065Y-80769952D01*
X98610068Y-80769962D01*
X98679831Y-80938387D01*
X98679833Y-80938391D01*
X98781113Y-81089967D01*
X98781119Y-81089975D01*
X98801963Y-81110819D01*
X98835448Y-81172142D01*
X98830464Y-81241834D01*
X98788592Y-81297767D01*
X98723128Y-81322184D01*
X98714282Y-81322500D01*
X95228438Y-81322500D01*
X95161399Y-81302815D01*
X95140757Y-81286181D01*
X94262493Y-80407917D01*
X94262491Y-80407915D01*
X94209498Y-80377319D01*
X94165010Y-80351633D01*
X94100365Y-80334312D01*
X94056281Y-80322500D01*
X94056280Y-80322500D01*
X93471393Y-80322500D01*
X93404354Y-80302815D01*
X93395920Y-80296885D01*
X93302841Y-80225464D01*
X93287141Y-80218961D01*
X93156762Y-80164956D01*
X93156760Y-80164955D01*
X93000001Y-80144318D01*
X92999999Y-80144318D01*
X92843239Y-80164955D01*
X92843237Y-80164956D01*
X92697160Y-80225463D01*
X92571718Y-80321718D01*
X92475463Y-80447160D01*
X92414956Y-80593237D01*
X92414955Y-80593239D01*
X92394318Y-80749998D01*
X92394318Y-80750001D01*
X92414955Y-80906760D01*
X92414956Y-80906762D01*
X92463771Y-81024613D01*
X92475464Y-81052841D01*
X92571718Y-81178282D01*
X92697159Y-81274536D01*
X92843238Y-81335044D01*
X92921619Y-81345363D01*
X92999999Y-81355682D01*
X93000000Y-81355682D01*
X93000001Y-81355682D01*
X93052254Y-81348802D01*
X93156762Y-81335044D01*
X93302841Y-81274536D01*
X93395908Y-81203123D01*
X93461076Y-81177930D01*
X93471393Y-81177500D01*
X93771562Y-81177500D01*
X93838601Y-81197185D01*
X93859243Y-81213819D01*
X94506243Y-81860819D01*
X94539728Y-81922142D01*
X94534744Y-81991834D01*
X94492872Y-82047767D01*
X94427408Y-82072184D01*
X94418562Y-82072500D01*
X91978439Y-82072500D01*
X91911400Y-82052815D01*
X91890758Y-82036181D01*
X90907416Y-81052839D01*
X89892927Y-80038351D01*
X89859443Y-79977029D01*
X89864427Y-79907337D01*
X89906299Y-79851404D01*
X89933151Y-79836112D01*
X90052841Y-79786536D01*
X90178282Y-79690282D01*
X90274536Y-79564841D01*
X90335044Y-79418762D01*
X90355682Y-79262000D01*
X90351763Y-79232235D01*
X90336757Y-79118251D01*
X90335044Y-79105238D01*
X90274536Y-78959159D01*
X90274535Y-78959158D01*
X90274535Y-78959157D01*
X90203124Y-78866092D01*
X90177930Y-78800923D01*
X90177500Y-78790606D01*
X90177500Y-76471392D01*
X90197185Y-76404353D01*
X90203117Y-76395915D01*
X90274536Y-76302841D01*
X90335044Y-76156762D01*
X90351596Y-76031038D01*
X90355682Y-76000001D01*
X90355682Y-75999998D01*
X90335044Y-75843239D01*
X90335044Y-75843238D01*
X90274536Y-75697159D01*
X90274535Y-75697158D01*
X90274535Y-75697157D01*
X90219156Y-75624986D01*
X90193962Y-75559817D01*
X90208000Y-75491372D01*
X90256814Y-75441383D01*
X90317532Y-75425500D01*
X93315283Y-75425500D01*
X93382322Y-75445185D01*
G37*
%TD.AperFunction*%
%TA.AperFunction,Conductor*%
G36*
X127442539Y-55520185D02*
G01*
X127488294Y-55572989D01*
X127499500Y-55624500D01*
X127499500Y-104375500D01*
X127479815Y-104442539D01*
X127427011Y-104488294D01*
X127375500Y-104499500D01*
X85624500Y-104499500D01*
X85557461Y-104479815D01*
X85511706Y-104427011D01*
X85500500Y-104375500D01*
X85500500Y-98651577D01*
X87249500Y-98651577D01*
X87249500Y-98848422D01*
X87280290Y-99042826D01*
X87341117Y-99230029D01*
X87430476Y-99405405D01*
X87546172Y-99564646D01*
X87685354Y-99703828D01*
X87844595Y-99819524D01*
X87927455Y-99861743D01*
X88019970Y-99908882D01*
X88019972Y-99908882D01*
X88019975Y-99908884D01*
X88120317Y-99941487D01*
X88207173Y-99969709D01*
X88401578Y-100000500D01*
X88401583Y-100000500D01*
X88598422Y-100000500D01*
X88792826Y-99969709D01*
X88980025Y-99908884D01*
X89155405Y-99819524D01*
X89314646Y-99703828D01*
X89453828Y-99564646D01*
X89569524Y-99405405D01*
X89658884Y-99230025D01*
X89719709Y-99042826D01*
X89729201Y-98982898D01*
X89750500Y-98848422D01*
X89750500Y-98651577D01*
X89719709Y-98457173D01*
X89658882Y-98269970D01*
X89611743Y-98177455D01*
X89569524Y-98094595D01*
X89453828Y-97935354D01*
X89314646Y-97796172D01*
X89155405Y-97680476D01*
X89151097Y-97678281D01*
X88980029Y-97591117D01*
X88792826Y-97530290D01*
X88598422Y-97499500D01*
X88598417Y-97499500D01*
X88401583Y-97499500D01*
X88401578Y-97499500D01*
X88207173Y-97530290D01*
X88019970Y-97591117D01*
X87844594Y-97680476D01*
X87753741Y-97746485D01*
X87685354Y-97796172D01*
X87685352Y-97796174D01*
X87685351Y-97796174D01*
X87546174Y-97935351D01*
X87546174Y-97935352D01*
X87546172Y-97935354D01*
X87520625Y-97970516D01*
X87430476Y-98094594D01*
X87341117Y-98269970D01*
X87280290Y-98457173D01*
X87249500Y-98651577D01*
X85500500Y-98651577D01*
X85500500Y-96749998D01*
X99394318Y-96749998D01*
X99394318Y-96750001D01*
X99414955Y-96906760D01*
X99414956Y-96906762D01*
X99475464Y-97052841D01*
X99571718Y-97178282D01*
X99697159Y-97274536D01*
X99843238Y-97335044D01*
X99896720Y-97342085D01*
X99999999Y-97355682D01*
X100000000Y-97355682D01*
X100000001Y-97355682D01*
X100042026Y-97350149D01*
X100111061Y-97360914D01*
X100163317Y-97407294D01*
X100172773Y-97425635D01*
X100195315Y-97480055D01*
X100225464Y-97552841D01*
X100321718Y-97678282D01*
X100447159Y-97774536D01*
X100447160Y-97774536D01*
X100447161Y-97774537D01*
X100467759Y-97783069D01*
X100522163Y-97826910D01*
X100544228Y-97893204D01*
X100526949Y-97960903D01*
X100520625Y-97970516D01*
X100430476Y-98094594D01*
X100341117Y-98269970D01*
X100280290Y-98457173D01*
X100249500Y-98651577D01*
X100249500Y-98848422D01*
X100280290Y-99042826D01*
X100341117Y-99230029D01*
X100430476Y-99405405D01*
X100546172Y-99564646D01*
X100685354Y-99703828D01*
X100844595Y-99819524D01*
X100927455Y-99861743D01*
X101019970Y-99908882D01*
X101019972Y-99908882D01*
X101019975Y-99908884D01*
X101120317Y-99941487D01*
X101207173Y-99969709D01*
X101401578Y-100000500D01*
X101401583Y-100000500D01*
X101598422Y-100000500D01*
X101601610Y-99999995D01*
X106444451Y-99999995D01*
X106444451Y-100000004D01*
X106464616Y-100269101D01*
X106524664Y-100532188D01*
X106524666Y-100532195D01*
X106623256Y-100783396D01*
X106623258Y-100783400D01*
X106631439Y-100797570D01*
X106758185Y-101017102D01*
X106791960Y-101059454D01*
X106926442Y-101228089D01*
X107113183Y-101401358D01*
X107124259Y-101411635D01*
X107347226Y-101563651D01*
X107590359Y-101680738D01*
X107848228Y-101760280D01*
X107848229Y-101760280D01*
X107848232Y-101760281D01*
X108115063Y-101800499D01*
X108115068Y-101800499D01*
X108115071Y-101800500D01*
X108115072Y-101800500D01*
X108384928Y-101800500D01*
X108384929Y-101800500D01*
X108384936Y-101800499D01*
X108651767Y-101760281D01*
X108651768Y-101760280D01*
X108651772Y-101760280D01*
X108909641Y-101680738D01*
X109152775Y-101563651D01*
X109375741Y-101411635D01*
X109573561Y-101228085D01*
X109741815Y-101017102D01*
X109876743Y-100783398D01*
X109975334Y-100532195D01*
X110035383Y-100269103D01*
X110043778Y-100157078D01*
X110055549Y-100000004D01*
X110055549Y-99999995D01*
X110038744Y-99775747D01*
X110035383Y-99730897D01*
X109975334Y-99467805D01*
X109876743Y-99216602D01*
X109741815Y-98982898D01*
X109573561Y-98771915D01*
X109573560Y-98771914D01*
X109573557Y-98771910D01*
X109375741Y-98588365D01*
X109175958Y-98452155D01*
X111250000Y-98452155D01*
X111250000Y-99750000D01*
X112382096Y-99750000D01*
X112350000Y-99911358D01*
X112350000Y-100088642D01*
X112382096Y-100250000D01*
X111250000Y-100250000D01*
X111250000Y-101547844D01*
X111256401Y-101607372D01*
X111256403Y-101607379D01*
X111306645Y-101742086D01*
X111306649Y-101742093D01*
X111392809Y-101857187D01*
X111392812Y-101857190D01*
X111507906Y-101943350D01*
X111507913Y-101943354D01*
X111642620Y-101993596D01*
X111642627Y-101993598D01*
X111702155Y-101999999D01*
X111702172Y-102000000D01*
X113000000Y-102000000D01*
X113000000Y-100867904D01*
X113161358Y-100900000D01*
X113338642Y-100900000D01*
X113500000Y-100867904D01*
X113500000Y-102000000D01*
X114797828Y-102000000D01*
X114797844Y-101999999D01*
X114857372Y-101993598D01*
X114857379Y-101993596D01*
X114992086Y-101943354D01*
X114992093Y-101943350D01*
X115107187Y-101857190D01*
X115107190Y-101857187D01*
X115193350Y-101742093D01*
X115193354Y-101742086D01*
X115243596Y-101607379D01*
X115243598Y-101607372D01*
X115249999Y-101547844D01*
X115250000Y-101547827D01*
X115250000Y-101059448D01*
X121099499Y-101059448D01*
X121099499Y-101540551D01*
X121127828Y-101719410D01*
X121183786Y-101891636D01*
X121183787Y-101891639D01*
X121266005Y-102052997D01*
X121372440Y-102199494D01*
X121372444Y-102199499D01*
X121500499Y-102327554D01*
X121500504Y-102327558D01*
X121628286Y-102420396D01*
X121647005Y-102433996D01*
X121752483Y-102487740D01*
X121808359Y-102516211D01*
X121808362Y-102516212D01*
X121864224Y-102534362D01*
X121980590Y-102572171D01*
X122063428Y-102585291D01*
X122159448Y-102600500D01*
X122159453Y-102600500D01*
X122340550Y-102600500D01*
X122427258Y-102586765D01*
X122519408Y-102572171D01*
X122691638Y-102516211D01*
X122852993Y-102433996D01*
X122999500Y-102327553D01*
X123127552Y-102199501D01*
X123233995Y-102052994D01*
X123316210Y-101891639D01*
X123345118Y-101802669D01*
X123357568Y-101764351D01*
X123397005Y-101706676D01*
X123461363Y-101679477D01*
X123530210Y-101691391D01*
X123581686Y-101738635D01*
X123599499Y-101802669D01*
X123599499Y-102093103D01*
X123605125Y-102139955D01*
X123610121Y-102181562D01*
X123665638Y-102322344D01*
X123757076Y-102442923D01*
X123877655Y-102534361D01*
X123877656Y-102534361D01*
X123877657Y-102534362D01*
X124018435Y-102589878D01*
X124106897Y-102600501D01*
X124106902Y-102600501D01*
X125393096Y-102600501D01*
X125393101Y-102600501D01*
X125481563Y-102589878D01*
X125622341Y-102534362D01*
X125742921Y-102442923D01*
X125834360Y-102322343D01*
X125889876Y-102181565D01*
X125900499Y-102093103D01*
X125900499Y-100506899D01*
X125889876Y-100418437D01*
X125834360Y-100277659D01*
X125834359Y-100277658D01*
X125834359Y-100277657D01*
X125742921Y-100157078D01*
X125622342Y-100065640D01*
X125481560Y-100010123D01*
X125435925Y-100004643D01*
X125393101Y-99999501D01*
X124106897Y-99999501D01*
X124067852Y-100004189D01*
X124018437Y-100010123D01*
X123877655Y-100065640D01*
X123757076Y-100157078D01*
X123665638Y-100277657D01*
X123610121Y-100418439D01*
X123604187Y-100467854D01*
X123599499Y-100506899D01*
X123599499Y-100506904D01*
X123599499Y-100797330D01*
X123579814Y-100864369D01*
X123527010Y-100910124D01*
X123457852Y-100920068D01*
X123394296Y-100891043D01*
X123357568Y-100835648D01*
X123316211Y-100708363D01*
X123316210Y-100708360D01*
X123287739Y-100652484D01*
X123233995Y-100547006D01*
X123146305Y-100426310D01*
X123127557Y-100400505D01*
X123127553Y-100400500D01*
X122999498Y-100272445D01*
X122999493Y-100272441D01*
X122852996Y-100166006D01*
X122852995Y-100166005D01*
X122852993Y-100166004D01*
X122801299Y-100139664D01*
X122691638Y-100083788D01*
X122691635Y-100083787D01*
X122519409Y-100027829D01*
X122340550Y-99999500D01*
X122340545Y-99999500D01*
X122159453Y-99999500D01*
X122159448Y-99999500D01*
X121980588Y-100027829D01*
X121808362Y-100083787D01*
X121808359Y-100083788D01*
X121647001Y-100166006D01*
X121500504Y-100272441D01*
X121500499Y-100272445D01*
X121372444Y-100400500D01*
X121372440Y-100400505D01*
X121266005Y-100547002D01*
X121183787Y-100708360D01*
X121183786Y-100708363D01*
X121127828Y-100880589D01*
X121099499Y-101059448D01*
X115250000Y-101059448D01*
X115250000Y-100250000D01*
X114117904Y-100250000D01*
X114150000Y-100088642D01*
X114150000Y-99911358D01*
X114117904Y-99750000D01*
X115250000Y-99750000D01*
X115250000Y-98452172D01*
X115249999Y-98452155D01*
X115243598Y-98392627D01*
X115243596Y-98392620D01*
X115193354Y-98257913D01*
X115193350Y-98257906D01*
X115107190Y-98142812D01*
X115107187Y-98142809D01*
X114992093Y-98056649D01*
X114992086Y-98056645D01*
X114857379Y-98006403D01*
X114857372Y-98006401D01*
X114797844Y-98000000D01*
X113500000Y-98000000D01*
X113500000Y-99132095D01*
X113338642Y-99100000D01*
X113161358Y-99100000D01*
X113000000Y-99132095D01*
X113000000Y-98000000D01*
X111702155Y-98000000D01*
X111642627Y-98006401D01*
X111642620Y-98006403D01*
X111507913Y-98056645D01*
X111507906Y-98056649D01*
X111392812Y-98142809D01*
X111392809Y-98142812D01*
X111306649Y-98257906D01*
X111306645Y-98257913D01*
X111256403Y-98392620D01*
X111256401Y-98392627D01*
X111250000Y-98452155D01*
X109175958Y-98452155D01*
X109152775Y-98436349D01*
X109152769Y-98436346D01*
X109152768Y-98436345D01*
X109152767Y-98436344D01*
X108909643Y-98319263D01*
X108909645Y-98319263D01*
X108651773Y-98239720D01*
X108651767Y-98239718D01*
X108384936Y-98199500D01*
X108384929Y-98199500D01*
X108115071Y-98199500D01*
X108115063Y-98199500D01*
X107848232Y-98239718D01*
X107848226Y-98239720D01*
X107590358Y-98319262D01*
X107347230Y-98436346D01*
X107124258Y-98588365D01*
X106926442Y-98771910D01*
X106758185Y-98982898D01*
X106623258Y-99216599D01*
X106623256Y-99216603D01*
X106524666Y-99467804D01*
X106524664Y-99467811D01*
X106464616Y-99730898D01*
X106444451Y-99999995D01*
X101601610Y-99999995D01*
X101792826Y-99969709D01*
X101980025Y-99908884D01*
X102155405Y-99819524D01*
X102314646Y-99703828D01*
X102453828Y-99564646D01*
X102569524Y-99405405D01*
X102658884Y-99230025D01*
X102719709Y-99042826D01*
X102729201Y-98982898D01*
X102750500Y-98848422D01*
X102750500Y-98651577D01*
X102719709Y-98457173D01*
X102658882Y-98269970D01*
X102611743Y-98177455D01*
X102569524Y-98094595D01*
X102453828Y-97935354D01*
X102314646Y-97796172D01*
X102155405Y-97680476D01*
X102119113Y-97661984D01*
X102068318Y-97614011D01*
X102051523Y-97546190D01*
X102074060Y-97480055D01*
X102128775Y-97436603D01*
X102175409Y-97427500D01*
X103056279Y-97427500D01*
X103056281Y-97427500D01*
X103165009Y-97398367D01*
X103262491Y-97342085D01*
X104354577Y-96249999D01*
X116394318Y-96249999D01*
X116394318Y-96250002D01*
X116414955Y-96406761D01*
X116414956Y-96406763D01*
X116475464Y-96552842D01*
X116571718Y-96678283D01*
X116697159Y-96774537D01*
X116843238Y-96835045D01*
X116921619Y-96845364D01*
X116999999Y-96855683D01*
X117000000Y-96855683D01*
X117000001Y-96855683D01*
X117052254Y-96848803D01*
X117156762Y-96835045D01*
X117302841Y-96774537D01*
X117395908Y-96703124D01*
X117461076Y-96677931D01*
X117471393Y-96677501D01*
X117806279Y-96677501D01*
X117806281Y-96677501D01*
X117915009Y-96648368D01*
X118012491Y-96592086D01*
X120944949Y-93659627D01*
X121006270Y-93626144D01*
X121075962Y-93631128D01*
X121131895Y-93673000D01*
X121156312Y-93738464D01*
X121150560Y-93785626D01*
X121127827Y-93855592D01*
X121099499Y-94034449D01*
X121099499Y-94515552D01*
X121127828Y-94694411D01*
X121183786Y-94866637D01*
X121183787Y-94866640D01*
X121266005Y-95027998D01*
X121372440Y-95174495D01*
X121372444Y-95174500D01*
X121500499Y-95302555D01*
X121500504Y-95302559D01*
X121628286Y-95395397D01*
X121647005Y-95408997D01*
X121752483Y-95462741D01*
X121808359Y-95491212D01*
X121808362Y-95491213D01*
X121864224Y-95509363D01*
X121980590Y-95547172D01*
X122063428Y-95560292D01*
X122159448Y-95575501D01*
X122159453Y-95575501D01*
X122340550Y-95575501D01*
X122427258Y-95561766D01*
X122519408Y-95547172D01*
X122691638Y-95491212D01*
X122852993Y-95408997D01*
X122999500Y-95302554D01*
X123127552Y-95174502D01*
X123233995Y-95027995D01*
X123316210Y-94866640D01*
X123357568Y-94739352D01*
X123397005Y-94681677D01*
X123461363Y-94654478D01*
X123530210Y-94666392D01*
X123581686Y-94713636D01*
X123599499Y-94777670D01*
X123599499Y-95068104D01*
X123605125Y-95114956D01*
X123610121Y-95156563D01*
X123665638Y-95297345D01*
X123757076Y-95417924D01*
X123877655Y-95509362D01*
X123877656Y-95509362D01*
X123877657Y-95509363D01*
X124018435Y-95564879D01*
X124106897Y-95575502D01*
X124106902Y-95575502D01*
X125393096Y-95575502D01*
X125393101Y-95575502D01*
X125481563Y-95564879D01*
X125622341Y-95509363D01*
X125742921Y-95417924D01*
X125834360Y-95297344D01*
X125889876Y-95156566D01*
X125900499Y-95068104D01*
X125900499Y-93481900D01*
X125889876Y-93393438D01*
X125834360Y-93252660D01*
X125834359Y-93252659D01*
X125834359Y-93252658D01*
X125742921Y-93132079D01*
X125622342Y-93040641D01*
X125481560Y-92985124D01*
X125435925Y-92979644D01*
X125393101Y-92974502D01*
X124106897Y-92974502D01*
X124067852Y-92979190D01*
X124018437Y-92985124D01*
X123877655Y-93040641D01*
X123757076Y-93132079D01*
X123665638Y-93252658D01*
X123610121Y-93393440D01*
X123604187Y-93442855D01*
X123599499Y-93481900D01*
X123599499Y-93481905D01*
X123599499Y-93772331D01*
X123579814Y-93839370D01*
X123527010Y-93885125D01*
X123457852Y-93895069D01*
X123394296Y-93866044D01*
X123357568Y-93810649D01*
X123316211Y-93683364D01*
X123316210Y-93683361D01*
X123287056Y-93626144D01*
X123233995Y-93522007D01*
X123204856Y-93481900D01*
X123127557Y-93375506D01*
X123127553Y-93375501D01*
X122999498Y-93247446D01*
X122999493Y-93247442D01*
X122852996Y-93141007D01*
X122852995Y-93141006D01*
X122852993Y-93141005D01*
X122756983Y-93092085D01*
X122691638Y-93058789D01*
X122691635Y-93058788D01*
X122519409Y-93002830D01*
X122340550Y-92974501D01*
X122340545Y-92974501D01*
X122159453Y-92974501D01*
X122159448Y-92974501D01*
X121980590Y-93002829D01*
X121910624Y-93025562D01*
X121840783Y-93027556D01*
X121780951Y-92991474D01*
X121750124Y-92928773D01*
X121758089Y-92859359D01*
X121784624Y-92819952D01*
X123842085Y-90762492D01*
X123898367Y-90665010D01*
X123927500Y-90556282D01*
X123927500Y-90443720D01*
X123898367Y-90334992D01*
X123842085Y-90237510D01*
X123762491Y-90157916D01*
X123713750Y-90129775D01*
X123665010Y-90101634D01*
X123610645Y-90087067D01*
X123556281Y-90072501D01*
X123443719Y-90072501D01*
X123334989Y-90101634D01*
X123237509Y-90157916D01*
X123237506Y-90157918D01*
X117609243Y-95786182D01*
X117547920Y-95819667D01*
X117521562Y-95822501D01*
X117471393Y-95822501D01*
X117404354Y-95802816D01*
X117395920Y-95796886D01*
X117302841Y-95725465D01*
X117156762Y-95664957D01*
X117156760Y-95664956D01*
X117000001Y-95644319D01*
X116999999Y-95644319D01*
X116843239Y-95664956D01*
X116843237Y-95664957D01*
X116697160Y-95725464D01*
X116571718Y-95821719D01*
X116475463Y-95947161D01*
X116414956Y-96093238D01*
X116414955Y-96093240D01*
X116394318Y-96249999D01*
X104354577Y-96249999D01*
X114093963Y-86510611D01*
X114155284Y-86477128D01*
X114165432Y-86475359D01*
X114184320Y-86472872D01*
X114253354Y-86483641D01*
X114305608Y-86530022D01*
X114324500Y-86595812D01*
X114324500Y-89558280D01*
X114353634Y-89667012D01*
X114379849Y-89712417D01*
X114395401Y-89758231D01*
X114403760Y-89821718D01*
X114414956Y-89906762D01*
X114475464Y-90052841D01*
X114571718Y-90178282D01*
X114697159Y-90274536D01*
X114843238Y-90335044D01*
X114921619Y-90345363D01*
X114999999Y-90355682D01*
X115000000Y-90355682D01*
X115000001Y-90355682D01*
X115052254Y-90348802D01*
X115156762Y-90335044D01*
X115302841Y-90274536D01*
X115428282Y-90178282D01*
X115524536Y-90052841D01*
X115585044Y-89906762D01*
X115605682Y-89750000D01*
X115604339Y-89739801D01*
X115585044Y-89593239D01*
X115585044Y-89593238D01*
X115524536Y-89447159D01*
X115428282Y-89321718D01*
X115428280Y-89321717D01*
X115428280Y-89321716D01*
X115302841Y-89225464D01*
X115302834Y-89225460D01*
X115256046Y-89206079D01*
X115201643Y-89162237D01*
X115179579Y-89095943D01*
X115179500Y-89091519D01*
X115179500Y-85706899D01*
X121099500Y-85706899D01*
X121099500Y-87293103D01*
X121105126Y-87339955D01*
X121110122Y-87381562D01*
X121110122Y-87381564D01*
X121110123Y-87381565D01*
X121118015Y-87401577D01*
X121165639Y-87522344D01*
X121257077Y-87642923D01*
X121377656Y-87734361D01*
X121377657Y-87734361D01*
X121377658Y-87734362D01*
X121518436Y-87789878D01*
X121606898Y-87800501D01*
X121606903Y-87800501D01*
X122893097Y-87800501D01*
X122893102Y-87800501D01*
X122981564Y-87789878D01*
X123122342Y-87734362D01*
X123242922Y-87642923D01*
X123334361Y-87522343D01*
X123389877Y-87381565D01*
X123400500Y-87293103D01*
X123400500Y-87002670D01*
X123420185Y-86935631D01*
X123472989Y-86889876D01*
X123542147Y-86879932D01*
X123605703Y-86908957D01*
X123642431Y-86964352D01*
X123683787Y-87091637D01*
X123683788Y-87091640D01*
X123766006Y-87252998D01*
X123872441Y-87399495D01*
X123872445Y-87399500D01*
X124000500Y-87527555D01*
X124000505Y-87527559D01*
X124128287Y-87620397D01*
X124147006Y-87633997D01*
X124232383Y-87677499D01*
X124308360Y-87716212D01*
X124308363Y-87716213D01*
X124394476Y-87744192D01*
X124480591Y-87772172D01*
X124563429Y-87785292D01*
X124659449Y-87800501D01*
X124659454Y-87800501D01*
X124840551Y-87800501D01*
X124927259Y-87786766D01*
X125019409Y-87772172D01*
X125191639Y-87716212D01*
X125352994Y-87633997D01*
X125499501Y-87527554D01*
X125627553Y-87399502D01*
X125733996Y-87252995D01*
X125816211Y-87091640D01*
X125872171Y-86919410D01*
X125887969Y-86819666D01*
X125900500Y-86740552D01*
X125900500Y-86259449D01*
X125884019Y-86155398D01*
X125872171Y-86080592D01*
X125844191Y-85994477D01*
X125816212Y-85908364D01*
X125816211Y-85908361D01*
X125762444Y-85802839D01*
X125733996Y-85747007D01*
X125713094Y-85718238D01*
X125627558Y-85600506D01*
X125627554Y-85600501D01*
X125499499Y-85472446D01*
X125499494Y-85472442D01*
X125352997Y-85366007D01*
X125352996Y-85366006D01*
X125352994Y-85366005D01*
X125301300Y-85339665D01*
X125191639Y-85283789D01*
X125191636Y-85283788D01*
X125019410Y-85227830D01*
X124840551Y-85199501D01*
X124840546Y-85199501D01*
X124659454Y-85199501D01*
X124659449Y-85199501D01*
X124480589Y-85227830D01*
X124308363Y-85283788D01*
X124308360Y-85283789D01*
X124147002Y-85366007D01*
X124000505Y-85472442D01*
X124000500Y-85472446D01*
X123872445Y-85600501D01*
X123872441Y-85600506D01*
X123766006Y-85747003D01*
X123683788Y-85908361D01*
X123683787Y-85908364D01*
X123642431Y-86035649D01*
X123602994Y-86093324D01*
X123538635Y-86120523D01*
X123469789Y-86108609D01*
X123418313Y-86061365D01*
X123400500Y-85997331D01*
X123400500Y-85706904D01*
X123400500Y-85706899D01*
X123389877Y-85618437D01*
X123334361Y-85477659D01*
X123334360Y-85477658D01*
X123334360Y-85477657D01*
X123242922Y-85357078D01*
X123122343Y-85265640D01*
X123026192Y-85227723D01*
X122981564Y-85210124D01*
X122981563Y-85210123D01*
X122981561Y-85210123D01*
X122935926Y-85204643D01*
X122893102Y-85199501D01*
X121606898Y-85199501D01*
X121567853Y-85204189D01*
X121518438Y-85210123D01*
X121377656Y-85265640D01*
X121257077Y-85357078D01*
X121165639Y-85477657D01*
X121110122Y-85618439D01*
X121105521Y-85656760D01*
X121099500Y-85706899D01*
X115179500Y-85706899D01*
X115179500Y-82018267D01*
X115179500Y-82018265D01*
X115150367Y-81909537D01*
X115137172Y-81886683D01*
X115094085Y-81812054D01*
X113560835Y-80278805D01*
X113527351Y-80217483D01*
X113525578Y-80207311D01*
X113521919Y-80179522D01*
X113510266Y-80091006D01*
X113449758Y-79944927D01*
X113353504Y-79819486D01*
X113228063Y-79723232D01*
X113148512Y-79690281D01*
X113081984Y-79662724D01*
X113081982Y-79662723D01*
X112925223Y-79642086D01*
X112925221Y-79642086D01*
X112768461Y-79662723D01*
X112768459Y-79662724D01*
X112622382Y-79723231D01*
X112496940Y-79819486D01*
X112400685Y-79944928D01*
X112340178Y-80091005D01*
X112340177Y-80091007D01*
X112319540Y-80247766D01*
X112319540Y-80247769D01*
X112340177Y-80404528D01*
X112340178Y-80404530D01*
X112399748Y-80548346D01*
X112400686Y-80550609D01*
X112496940Y-80676050D01*
X112622381Y-80772304D01*
X112768460Y-80832812D01*
X112862481Y-80845190D01*
X112884765Y-80848124D01*
X112948661Y-80876391D01*
X112956260Y-80883382D01*
X114288181Y-82215303D01*
X114321666Y-82276626D01*
X114324500Y-82302984D01*
X114324500Y-85154187D01*
X114304815Y-85221226D01*
X114252011Y-85266981D01*
X114184316Y-85277126D01*
X114125003Y-85269318D01*
X114124999Y-85269318D01*
X113968239Y-85289955D01*
X113968237Y-85289956D01*
X113822160Y-85350463D01*
X113696718Y-85446718D01*
X113600463Y-85572160D01*
X113539956Y-85718237D01*
X113539956Y-85718238D01*
X113524644Y-85834541D01*
X113496377Y-85898437D01*
X113489386Y-85906036D01*
X102859243Y-96536181D01*
X102797920Y-96569666D01*
X102771562Y-96572500D01*
X101081437Y-96572500D01*
X101014398Y-96552815D01*
X100968643Y-96500011D01*
X100958699Y-96430853D01*
X100987724Y-96367297D01*
X100993756Y-96360819D01*
X103582244Y-93772331D01*
X106468963Y-90885612D01*
X106530284Y-90852129D01*
X106540456Y-90850356D01*
X106550361Y-90849051D01*
X106656762Y-90835044D01*
X106802841Y-90774536D01*
X106928282Y-90678282D01*
X107024536Y-90552841D01*
X107085044Y-90406762D01*
X107105682Y-90250000D01*
X107104037Y-90237507D01*
X107085044Y-90093239D01*
X107085044Y-90093238D01*
X107024536Y-89947159D01*
X106928282Y-89821718D01*
X106802841Y-89725464D01*
X106656762Y-89664956D01*
X106656760Y-89664955D01*
X106500001Y-89644318D01*
X106499999Y-89644318D01*
X106343239Y-89664955D01*
X106343237Y-89664956D01*
X106197160Y-89725463D01*
X106071718Y-89821718D01*
X105975463Y-89947160D01*
X105914956Y-90093237D01*
X105914956Y-90093239D01*
X105899644Y-90209540D01*
X105871377Y-90273436D01*
X105864386Y-90281035D01*
X100031036Y-96114386D01*
X99969713Y-96147871D01*
X99959541Y-96149644D01*
X99843238Y-96164956D01*
X99843237Y-96164956D01*
X99697160Y-96225463D01*
X99571718Y-96321718D01*
X99475463Y-96447160D01*
X99414956Y-96593237D01*
X99414955Y-96593239D01*
X99394318Y-96749998D01*
X85500500Y-96749998D01*
X85500500Y-92749998D01*
X97894318Y-92749998D01*
X97894318Y-92750001D01*
X97914955Y-92906760D01*
X97914956Y-92906762D01*
X97970410Y-93040641D01*
X97975464Y-93052841D01*
X98071718Y-93178282D01*
X98197159Y-93274536D01*
X98343238Y-93335044D01*
X98421619Y-93345363D01*
X98499999Y-93355682D01*
X98500000Y-93355682D01*
X98500001Y-93355682D01*
X98552254Y-93348802D01*
X98656762Y-93335044D01*
X98802841Y-93274536D01*
X98895908Y-93203123D01*
X98961076Y-93177930D01*
X98971393Y-93177500D01*
X101806279Y-93177500D01*
X101806281Y-93177500D01*
X101915009Y-93148367D01*
X102012491Y-93092085D01*
X108968963Y-86135612D01*
X109030284Y-86102129D01*
X109040456Y-86100356D01*
X109050361Y-86099051D01*
X109156762Y-86085044D01*
X109302841Y-86024536D01*
X109428282Y-85928282D01*
X109524536Y-85802841D01*
X109585044Y-85656762D01*
X109605682Y-85500000D01*
X109602054Y-85472446D01*
X109585044Y-85343239D01*
X109585044Y-85343238D01*
X109524536Y-85197159D01*
X109428282Y-85071718D01*
X109302841Y-84975464D01*
X109156762Y-84914956D01*
X109156760Y-84914955D01*
X109000001Y-84894318D01*
X108999999Y-84894318D01*
X108843239Y-84914955D01*
X108843237Y-84914956D01*
X108697160Y-84975463D01*
X108571718Y-85071718D01*
X108475463Y-85197160D01*
X108414956Y-85343237D01*
X108414956Y-85343239D01*
X108399644Y-85459540D01*
X108371377Y-85523436D01*
X108364386Y-85531035D01*
X101609243Y-92286181D01*
X101547920Y-92319666D01*
X101521562Y-92322500D01*
X98971393Y-92322500D01*
X98904354Y-92302815D01*
X98895920Y-92296885D01*
X98802841Y-92225464D01*
X98656762Y-92164956D01*
X98656760Y-92164955D01*
X98500001Y-92144318D01*
X98499999Y-92144318D01*
X98343239Y-92164955D01*
X98343237Y-92164956D01*
X98197160Y-92225463D01*
X98071718Y-92321718D01*
X97975463Y-92447160D01*
X97914956Y-92593237D01*
X97914955Y-92593239D01*
X97894318Y-92749998D01*
X85500500Y-92749998D01*
X85500500Y-82955131D01*
X86199500Y-82955131D01*
X86199500Y-84044856D01*
X86199502Y-84044882D01*
X86202413Y-84069987D01*
X86202415Y-84069991D01*
X86247793Y-84172764D01*
X86247794Y-84172765D01*
X86327235Y-84252206D01*
X86430009Y-84297585D01*
X86455135Y-84300500D01*
X87544864Y-84300499D01*
X87544879Y-84300497D01*
X87544882Y-84300497D01*
X87569987Y-84297586D01*
X87569988Y-84297585D01*
X87569991Y-84297585D01*
X87672765Y-84252206D01*
X87752206Y-84172765D01*
X87797585Y-84069991D01*
X87800500Y-84044865D01*
X87800499Y-82955136D01*
X87800497Y-82955117D01*
X87797586Y-82930012D01*
X87797585Y-82930010D01*
X87797585Y-82930009D01*
X87752206Y-82827235D01*
X87672765Y-82747794D01*
X87659267Y-82741834D01*
X87569992Y-82702415D01*
X87544865Y-82699500D01*
X86455143Y-82699500D01*
X86455117Y-82699502D01*
X86430012Y-82702413D01*
X86430008Y-82702415D01*
X86327235Y-82747793D01*
X86247794Y-82827234D01*
X86202415Y-82930006D01*
X86202415Y-82930008D01*
X86199500Y-82955131D01*
X85500500Y-82955131D01*
X85500500Y-68591157D01*
X86074499Y-68591157D01*
X86110065Y-68769953D01*
X86110068Y-68769963D01*
X86179831Y-68938388D01*
X86179833Y-68938392D01*
X86281113Y-69089968D01*
X86281119Y-69089976D01*
X86788181Y-69597037D01*
X86821666Y-69658360D01*
X86824500Y-69684718D01*
X86824500Y-72408846D01*
X86824500Y-72591154D01*
X86824500Y-72591156D01*
X86824499Y-72591156D01*
X86860065Y-72769952D01*
X86860068Y-72769962D01*
X86929831Y-72938387D01*
X86929833Y-72938391D01*
X87031113Y-73089967D01*
X87031119Y-73089975D01*
X89160024Y-75218880D01*
X89160032Y-75218886D01*
X89311609Y-75320166D01*
X89311610Y-75320166D01*
X89311611Y-75320167D01*
X89332647Y-75328880D01*
X89387051Y-75372719D01*
X89409118Y-75439013D01*
X89391840Y-75506713D01*
X89360685Y-75541816D01*
X89321721Y-75571715D01*
X89321719Y-75571716D01*
X89321718Y-75571718D01*
X89280844Y-75624986D01*
X89225463Y-75697160D01*
X89164956Y-75843237D01*
X89164955Y-75843239D01*
X89144318Y-75999998D01*
X89144318Y-76000001D01*
X89164955Y-76156760D01*
X89164956Y-76156762D01*
X89225464Y-76302842D01*
X89263387Y-76352263D01*
X89296875Y-76395906D01*
X89322070Y-76461074D01*
X89322500Y-76471392D01*
X89322500Y-78790606D01*
X89302815Y-78857645D01*
X89296876Y-78866092D01*
X89225464Y-78959157D01*
X89175889Y-79078843D01*
X89132048Y-79133246D01*
X89065754Y-79155311D01*
X88998054Y-79138032D01*
X88973647Y-79119071D01*
X88235324Y-78380748D01*
X87463819Y-77609242D01*
X87430334Y-77547919D01*
X87427500Y-77521561D01*
X87427500Y-77079322D01*
X87447185Y-77012283D01*
X87499989Y-76966528D01*
X87541350Y-76956274D01*
X87541308Y-76955912D01*
X87544132Y-76955584D01*
X87544360Y-76955528D01*
X87544858Y-76955499D01*
X87544864Y-76955499D01*
X87544870Y-76955498D01*
X87544875Y-76955498D01*
X87569987Y-76952586D01*
X87569988Y-76952585D01*
X87569991Y-76952585D01*
X87672765Y-76907206D01*
X87752206Y-76827765D01*
X87797585Y-76724991D01*
X87800500Y-76699865D01*
X87800499Y-75610136D01*
X87800497Y-75610117D01*
X87797586Y-75585012D01*
X87797585Y-75585010D01*
X87797585Y-75585009D01*
X87752206Y-75482235D01*
X87672765Y-75402794D01*
X87672763Y-75402793D01*
X87569992Y-75357415D01*
X87544865Y-75354500D01*
X86455143Y-75354500D01*
X86455117Y-75354502D01*
X86430012Y-75357413D01*
X86430008Y-75357415D01*
X86327235Y-75402793D01*
X86247794Y-75482234D01*
X86202415Y-75585006D01*
X86202415Y-75585008D01*
X86199500Y-75610131D01*
X86199500Y-76699856D01*
X86199502Y-76699882D01*
X86202413Y-76724987D01*
X86202415Y-76724991D01*
X86247793Y-76827764D01*
X86247794Y-76827765D01*
X86327235Y-76907206D01*
X86430009Y-76952585D01*
X86455135Y-76955500D01*
X86455157Y-76955499D01*
X86455631Y-76955528D01*
X86455753Y-76955571D01*
X86458694Y-76955913D01*
X86458614Y-76956594D01*
X86521427Y-76979035D01*
X86564070Y-77034383D01*
X86572500Y-77079323D01*
X86572500Y-77806280D01*
X86601633Y-77915010D01*
X86610396Y-77930187D01*
X86657915Y-78012491D01*
X86657917Y-78012493D01*
X87538242Y-78892819D01*
X87571727Y-78954142D01*
X87566743Y-79023834D01*
X87524871Y-79079767D01*
X87459407Y-79104184D01*
X87450561Y-79104500D01*
X86455143Y-79104500D01*
X86455117Y-79104502D01*
X86430012Y-79107413D01*
X86430008Y-79107415D01*
X86327235Y-79152793D01*
X86247794Y-79232234D01*
X86202415Y-79335006D01*
X86202415Y-79335008D01*
X86199500Y-79360131D01*
X86199500Y-80449856D01*
X86199502Y-80449882D01*
X86202413Y-80474987D01*
X86202415Y-80474991D01*
X86247793Y-80577764D01*
X86247794Y-80577765D01*
X86327235Y-80657206D01*
X86430009Y-80702585D01*
X86455135Y-80705500D01*
X87144561Y-80705499D01*
X87211600Y-80725183D01*
X87232241Y-80741817D01*
X90082508Y-83592085D01*
X90179991Y-83648367D01*
X90288718Y-83677500D01*
X90288719Y-83677500D01*
X102028607Y-83677500D01*
X102095646Y-83697185D01*
X102104079Y-83703114D01*
X102197159Y-83774536D01*
X102343238Y-83835044D01*
X102421619Y-83845363D01*
X102499999Y-83855682D01*
X102500000Y-83855682D01*
X102559314Y-83847873D01*
X102628350Y-83858638D01*
X102680606Y-83905018D01*
X102699500Y-83970812D01*
X102699500Y-85794856D01*
X102699502Y-85794882D01*
X102702413Y-85819987D01*
X102702415Y-85819991D01*
X102747793Y-85922764D01*
X102747794Y-85922765D01*
X102827235Y-86002206D01*
X102930009Y-86047585D01*
X102955135Y-86050500D01*
X103920562Y-86050499D01*
X103987601Y-86070183D01*
X104033356Y-86122987D01*
X104043300Y-86192146D01*
X104014275Y-86255702D01*
X104008243Y-86262180D01*
X103484243Y-86786181D01*
X103422920Y-86819666D01*
X103396562Y-86822500D01*
X97443719Y-86822500D01*
X97334989Y-86851633D01*
X97237509Y-86907915D01*
X97237506Y-86907917D01*
X96462181Y-87683242D01*
X96400858Y-87716727D01*
X96331166Y-87711743D01*
X96275233Y-87669871D01*
X96250816Y-87604407D01*
X96250500Y-87595561D01*
X96250500Y-87401577D01*
X96219709Y-87207173D01*
X96191487Y-87120317D01*
X96158884Y-87019975D01*
X96158882Y-87019972D01*
X96158882Y-87019970D01*
X96101787Y-86907915D01*
X96069524Y-86844595D01*
X95953828Y-86685354D01*
X95814646Y-86546172D01*
X95655405Y-86430476D01*
X95480029Y-86341117D01*
X95292826Y-86280290D01*
X95098422Y-86249500D01*
X95098417Y-86249500D01*
X94901583Y-86249500D01*
X94901578Y-86249500D01*
X94707173Y-86280290D01*
X94519970Y-86341117D01*
X94344594Y-86430476D01*
X94303898Y-86460044D01*
X94185354Y-86546172D01*
X94185352Y-86546174D01*
X94185351Y-86546174D01*
X94046174Y-86685351D01*
X94046174Y-86685352D01*
X94046172Y-86685354D01*
X94006072Y-86740547D01*
X93930476Y-86844594D01*
X93841117Y-87019970D01*
X93780290Y-87207173D01*
X93749500Y-87401577D01*
X93749500Y-87598422D01*
X93780290Y-87792826D01*
X93841117Y-87980029D01*
X93847883Y-87993307D01*
X93930476Y-88155405D01*
X94046172Y-88314646D01*
X94185354Y-88453828D01*
X94344595Y-88569524D01*
X94427455Y-88611743D01*
X94519970Y-88658882D01*
X94519972Y-88658882D01*
X94519975Y-88658884D01*
X94620317Y-88691487D01*
X94707173Y-88719709D01*
X94901578Y-88750500D01*
X95095561Y-88750500D01*
X95162600Y-88770185D01*
X95208355Y-88822989D01*
X95218299Y-88892147D01*
X95189274Y-88955703D01*
X95183242Y-88962181D01*
X93281036Y-90864386D01*
X93219713Y-90897871D01*
X93209541Y-90899644D01*
X93093238Y-90914956D01*
X93093237Y-90914956D01*
X92947160Y-90975463D01*
X92821718Y-91071718D01*
X92725463Y-91197160D01*
X92664956Y-91343237D01*
X92664955Y-91343239D01*
X92644318Y-91499998D01*
X92644318Y-91500001D01*
X92664955Y-91656760D01*
X92664956Y-91656762D01*
X92725464Y-91802841D01*
X92821718Y-91928282D01*
X92947159Y-92024536D01*
X93093238Y-92085044D01*
X93171619Y-92095363D01*
X93249999Y-92105682D01*
X93250000Y-92105682D01*
X93250001Y-92105682D01*
X93302254Y-92098802D01*
X93406762Y-92085044D01*
X93552841Y-92024536D01*
X93678282Y-91928282D01*
X93774536Y-91802841D01*
X93835044Y-91656762D01*
X93850356Y-91540454D01*
X93878621Y-91476561D01*
X93885601Y-91468973D01*
X97640757Y-87713819D01*
X97702080Y-87680334D01*
X97728438Y-87677500D01*
X103681279Y-87677500D01*
X103681281Y-87677500D01*
X103790009Y-87648367D01*
X103887491Y-87592085D01*
X105842085Y-85637492D01*
X105898367Y-85540009D01*
X105898368Y-85540006D01*
X105915348Y-85476634D01*
X105921931Y-85452065D01*
X105943330Y-85408670D01*
X106024536Y-85302841D01*
X106085044Y-85156762D01*
X106105682Y-85000000D01*
X106085044Y-84843238D01*
X106024536Y-84697159D01*
X105928282Y-84571718D01*
X105802841Y-84475464D01*
X105740158Y-84449500D01*
X105656762Y-84414956D01*
X105656760Y-84414955D01*
X105500001Y-84394318D01*
X105499999Y-84394318D01*
X105343239Y-84414955D01*
X105343237Y-84414956D01*
X105197160Y-84475463D01*
X105071718Y-84571718D01*
X104975463Y-84697160D01*
X104914956Y-84843237D01*
X104914955Y-84843239D01*
X104894318Y-84999998D01*
X104894318Y-85000001D01*
X104914955Y-85156760D01*
X104914957Y-85156765D01*
X104941448Y-85220720D01*
X104948917Y-85290189D01*
X104917642Y-85352668D01*
X104914568Y-85355853D01*
X104512180Y-85758241D01*
X104450857Y-85791726D01*
X104381165Y-85786742D01*
X104325232Y-85744870D01*
X104300815Y-85679406D01*
X104300499Y-85670584D01*
X104300499Y-84705136D01*
X104299574Y-84697159D01*
X104297586Y-84680012D01*
X104297585Y-84680010D01*
X104297585Y-84680009D01*
X104252206Y-84577235D01*
X104172765Y-84497794D01*
X104069992Y-84452415D01*
X104044868Y-84449500D01*
X104044865Y-84449500D01*
X103924500Y-84449500D01*
X103857461Y-84429815D01*
X103811706Y-84377011D01*
X103800500Y-84325500D01*
X103800500Y-81220812D01*
X103820185Y-81153773D01*
X103872989Y-81108018D01*
X103940685Y-81097873D01*
X104000000Y-81105682D01*
X104000001Y-81105682D01*
X104052254Y-81098802D01*
X104156762Y-81085044D01*
X104302841Y-81024536D01*
X104428282Y-80928282D01*
X104524536Y-80802841D01*
X104585044Y-80656762D01*
X104599019Y-80550609D01*
X104605682Y-80500001D01*
X104605682Y-80499998D01*
X104585044Y-80343239D01*
X104585044Y-80343238D01*
X104546423Y-80249998D01*
X109644318Y-80249998D01*
X109644318Y-80250001D01*
X109664955Y-80406760D01*
X109664956Y-80406762D01*
X109724538Y-80550607D01*
X109725464Y-80552841D01*
X109821718Y-80678282D01*
X109947159Y-80774536D01*
X110093238Y-80835044D01*
X110171619Y-80845363D01*
X110249999Y-80855682D01*
X110250000Y-80855682D01*
X110250001Y-80855682D01*
X110307409Y-80848124D01*
X110406762Y-80835044D01*
X110552841Y-80774536D01*
X110678282Y-80678282D01*
X110774536Y-80552841D01*
X110835044Y-80406762D01*
X110850356Y-80290454D01*
X110878621Y-80226561D01*
X110885601Y-80218973D01*
X115390757Y-75713819D01*
X115452080Y-75680334D01*
X115478438Y-75677500D01*
X115798028Y-75677500D01*
X115865067Y-75697185D01*
X115910822Y-75749989D01*
X115920766Y-75819147D01*
X115916362Y-75835200D01*
X115917060Y-75835387D01*
X115914955Y-75843239D01*
X115894318Y-75999998D01*
X115894318Y-76000001D01*
X115914955Y-76156760D01*
X115914956Y-76156762D01*
X115975464Y-76302841D01*
X116071718Y-76428282D01*
X116071720Y-76428283D01*
X116076666Y-76434729D01*
X116075342Y-76435744D01*
X116104212Y-76488614D01*
X116099228Y-76558306D01*
X116057356Y-76614239D01*
X115991892Y-76638656D01*
X115935594Y-76629533D01*
X115825908Y-76584100D01*
X115825903Y-76584098D01*
X115669144Y-76563461D01*
X115669142Y-76563461D01*
X115512382Y-76584098D01*
X115512380Y-76584099D01*
X115366303Y-76644606D01*
X115240861Y-76740861D01*
X115144606Y-76866303D01*
X115084099Y-77012380D01*
X115084098Y-77012382D01*
X115063461Y-77169141D01*
X115063461Y-77169144D01*
X115084098Y-77325903D01*
X115084099Y-77325905D01*
X115121188Y-77415447D01*
X115144607Y-77471984D01*
X115240861Y-77597425D01*
X115366302Y-77693679D01*
X115512381Y-77754187D01*
X115606402Y-77766565D01*
X115628686Y-77769499D01*
X115692582Y-77797766D01*
X115700180Y-77804756D01*
X118067511Y-80172088D01*
X118164994Y-80228370D01*
X118273721Y-80257503D01*
X118273722Y-80257503D01*
X124234678Y-80257503D01*
X124301717Y-80277188D01*
X124339670Y-80315529D01*
X124350186Y-80332265D01*
X124350188Y-80332267D01*
X124395240Y-80377319D01*
X124428725Y-80438642D01*
X124423741Y-80508334D01*
X124395241Y-80552680D01*
X124350183Y-80597738D01*
X124254210Y-80750477D01*
X124194630Y-80920746D01*
X124194629Y-80920751D01*
X124174434Y-81099997D01*
X124174434Y-81100004D01*
X124194629Y-81279250D01*
X124194630Y-81279255D01*
X124254210Y-81449524D01*
X124350183Y-81602263D01*
X124477737Y-81729817D01*
X124515500Y-81753545D01*
X124630473Y-81825788D01*
X124630477Y-81825790D01*
X124730584Y-81860819D01*
X124800744Y-81885369D01*
X124800749Y-81885370D01*
X124979995Y-81905566D01*
X124979999Y-81905566D01*
X124980003Y-81905566D01*
X125159248Y-81885370D01*
X125159251Y-81885369D01*
X125159254Y-81885369D01*
X125329521Y-81825790D01*
X125381693Y-81793007D01*
X125448928Y-81774006D01*
X125515764Y-81794372D01*
X125535347Y-81810319D01*
X125577235Y-81852207D01*
X125680009Y-81897586D01*
X125705135Y-81900501D01*
X126794864Y-81900500D01*
X126794879Y-81900498D01*
X126794882Y-81900498D01*
X126819987Y-81897587D01*
X126819988Y-81897586D01*
X126819991Y-81897586D01*
X126922765Y-81852207D01*
X127002206Y-81772766D01*
X127047585Y-81669992D01*
X127050500Y-81644866D01*
X127050499Y-80555137D01*
X127050233Y-80552841D01*
X127047586Y-80530013D01*
X127047585Y-80530011D01*
X127047585Y-80530010D01*
X127002206Y-80427236D01*
X126960318Y-80385348D01*
X126926833Y-80324025D01*
X126931817Y-80254333D01*
X126943005Y-80231696D01*
X126975789Y-80179522D01*
X127035368Y-80009255D01*
X127036547Y-79998791D01*
X127055565Y-79830003D01*
X127055565Y-79829996D01*
X127035369Y-79650750D01*
X127035368Y-79650745D01*
X126975788Y-79480476D01*
X126941495Y-79425899D01*
X126922495Y-79358662D01*
X126942863Y-79291827D01*
X126958815Y-79272238D01*
X126960534Y-79270518D01*
X127085493Y-79118258D01*
X127085497Y-79118251D01*
X127178348Y-78944539D01*
X127219161Y-78809998D01*
X126459619Y-78809998D01*
X126510065Y-78759552D01*
X126552852Y-78685443D01*
X126575001Y-78602785D01*
X126575001Y-78517211D01*
X126552852Y-78434553D01*
X126510065Y-78360444D01*
X126459619Y-78309998D01*
X126500001Y-78309998D01*
X127219161Y-78309998D01*
X127219161Y-78309997D01*
X127178348Y-78175456D01*
X127085498Y-78001745D01*
X127082115Y-77996683D01*
X127083668Y-77995644D01*
X127059760Y-77939360D01*
X127071548Y-77870492D01*
X127082443Y-77853544D01*
X127082111Y-77853322D01*
X127085497Y-77848254D01*
X127178347Y-77674543D01*
X127219160Y-77540002D01*
X126500001Y-77540002D01*
X126500001Y-78309998D01*
X126459619Y-78309998D01*
X126449555Y-78299934D01*
X126375446Y-78257147D01*
X126292788Y-78234998D01*
X126207214Y-78234998D01*
X126124556Y-78257147D01*
X126050447Y-78299934D01*
X126000001Y-78350380D01*
X126000001Y-78281648D01*
X126000000Y-78281639D01*
X126000000Y-77499620D01*
X126050446Y-77550066D01*
X126124555Y-77592853D01*
X126207213Y-77615002D01*
X126292787Y-77615002D01*
X126375445Y-77592853D01*
X126449554Y-77550066D01*
X126510064Y-77489556D01*
X126552851Y-77415447D01*
X126575000Y-77332789D01*
X126575000Y-77247215D01*
X126552851Y-77164557D01*
X126510064Y-77090448D01*
X126459618Y-77040002D01*
X127219160Y-77040002D01*
X127219160Y-77040001D01*
X127178347Y-76905460D01*
X127085496Y-76731748D01*
X127085492Y-76731741D01*
X126960526Y-76579471D01*
X126958807Y-76577752D01*
X126958193Y-76576629D01*
X126956664Y-76574765D01*
X126957017Y-76574474D01*
X126925322Y-76516429D01*
X126930306Y-76446737D01*
X126941489Y-76424110D01*
X126975789Y-76369523D01*
X127035368Y-76199256D01*
X127041558Y-76144318D01*
X127055565Y-76020004D01*
X127055565Y-76019997D01*
X127035369Y-75840751D01*
X127035368Y-75840746D01*
X126985125Y-75697160D01*
X126975789Y-75670479D01*
X126975788Y-75670477D01*
X126941496Y-75615901D01*
X126922496Y-75548664D01*
X126942864Y-75481829D01*
X126958816Y-75462240D01*
X126960534Y-75460521D01*
X127085492Y-75308261D01*
X127085496Y-75308254D01*
X127178347Y-75134542D01*
X127219160Y-75000001D01*
X126459618Y-75000001D01*
X126510064Y-74949555D01*
X126552851Y-74875446D01*
X126575000Y-74792788D01*
X126575000Y-74707214D01*
X126552851Y-74624556D01*
X126510064Y-74550447D01*
X126459618Y-74500001D01*
X127219160Y-74500001D01*
X127219160Y-74500000D01*
X127178347Y-74365459D01*
X127085496Y-74191747D01*
X127085492Y-74191740D01*
X126960534Y-74039480D01*
X126958815Y-74037761D01*
X126958201Y-74036636D01*
X126956664Y-74034764D01*
X126957019Y-74034472D01*
X126925325Y-73976440D01*
X126930304Y-73906748D01*
X126941491Y-73884107D01*
X126975789Y-73829523D01*
X127035368Y-73659256D01*
X127035369Y-73659249D01*
X127055565Y-73480004D01*
X127055565Y-73479997D01*
X127035369Y-73300751D01*
X127035368Y-73300746D01*
X127035368Y-73300745D01*
X126975789Y-73130479D01*
X126879816Y-72977739D01*
X126752262Y-72850185D01*
X126706957Y-72821718D01*
X126599523Y-72754212D01*
X126429254Y-72694632D01*
X126429249Y-72694631D01*
X126250004Y-72674436D01*
X126249996Y-72674436D01*
X126070750Y-72694631D01*
X126070745Y-72694632D01*
X125900476Y-72754212D01*
X125747737Y-72850185D01*
X125702681Y-72895242D01*
X125641358Y-72928727D01*
X125571666Y-72923743D01*
X125527319Y-72895242D01*
X125482261Y-72850184D01*
X125329522Y-72754211D01*
X125159253Y-72694631D01*
X125159248Y-72694630D01*
X124980003Y-72674435D01*
X124979995Y-72674435D01*
X124800749Y-72694630D01*
X124800744Y-72694631D01*
X124630475Y-72754211D01*
X124477736Y-72850184D01*
X124350183Y-72977737D01*
X124254210Y-73130476D01*
X124194630Y-73300745D01*
X124194629Y-73300750D01*
X124174434Y-73479996D01*
X124174434Y-73480003D01*
X124194629Y-73659249D01*
X124194630Y-73659254D01*
X124254210Y-73829523D01*
X124350183Y-73982262D01*
X124395240Y-74027319D01*
X124428725Y-74088642D01*
X124423741Y-74158334D01*
X124395241Y-74202680D01*
X124350183Y-74247738D01*
X124254210Y-74400477D01*
X124194630Y-74570746D01*
X124194629Y-74570751D01*
X124174434Y-74749997D01*
X124174434Y-74750004D01*
X124194629Y-74929250D01*
X124194630Y-74929255D01*
X124254210Y-75099524D01*
X124350183Y-75252263D01*
X124350184Y-75252264D01*
X124395240Y-75297321D01*
X124428724Y-75358644D01*
X124423739Y-75428336D01*
X124395240Y-75472681D01*
X124350185Y-75517736D01*
X124254212Y-75670475D01*
X124194632Y-75840744D01*
X124194631Y-75840749D01*
X124174436Y-76019995D01*
X124174436Y-76020002D01*
X124194631Y-76199248D01*
X124194632Y-76199253D01*
X124254212Y-76369522D01*
X124350185Y-76522261D01*
X124395242Y-76567318D01*
X124428727Y-76628641D01*
X124423743Y-76698333D01*
X124395244Y-76742678D01*
X124350185Y-76787738D01*
X124350184Y-76787739D01*
X124254211Y-76940478D01*
X124194631Y-77110747D01*
X124194630Y-77110752D01*
X124174435Y-77289998D01*
X124174435Y-77290005D01*
X124194630Y-77469251D01*
X124194631Y-77469256D01*
X124254211Y-77639525D01*
X124350184Y-77792264D01*
X124350185Y-77792265D01*
X124395241Y-77837322D01*
X124428725Y-77898645D01*
X124423740Y-77968337D01*
X124395241Y-78012682D01*
X124350185Y-78057738D01*
X124350183Y-78057740D01*
X124350183Y-78057741D01*
X124339667Y-78074476D01*
X124287336Y-78120765D01*
X124234675Y-78132503D01*
X119288441Y-78132503D01*
X119221402Y-78112818D01*
X119200760Y-78096184D01*
X117135614Y-76031038D01*
X117102129Y-75969715D01*
X117100356Y-75959543D01*
X117097422Y-75937259D01*
X117085044Y-75843238D01*
X117085041Y-75843231D01*
X117082940Y-75835387D01*
X117085867Y-75834602D01*
X117079943Y-75779478D01*
X117111221Y-75717000D01*
X117171312Y-75681350D01*
X117201972Y-75677500D01*
X119528607Y-75677500D01*
X119595646Y-75697185D01*
X119604079Y-75703114D01*
X119697159Y-75774536D01*
X119843238Y-75835044D01*
X119905478Y-75843238D01*
X119999999Y-75855682D01*
X120000000Y-75855682D01*
X120000001Y-75855682D01*
X120094514Y-75843239D01*
X120156762Y-75835044D01*
X120302841Y-75774536D01*
X120428282Y-75678282D01*
X120524536Y-75552841D01*
X120585044Y-75406762D01*
X120605682Y-75250000D01*
X120601585Y-75218883D01*
X120590482Y-75134542D01*
X120585044Y-75093238D01*
X120524536Y-74947159D01*
X120428282Y-74821718D01*
X120302841Y-74725464D01*
X120156762Y-74664956D01*
X120156760Y-74664955D01*
X120000001Y-74644318D01*
X119999999Y-74644318D01*
X119843239Y-74664955D01*
X119843237Y-74664956D01*
X119697160Y-74725463D01*
X119697159Y-74725464D01*
X119604091Y-74796876D01*
X119538924Y-74822070D01*
X119528607Y-74822500D01*
X115193718Y-74822500D01*
X115084989Y-74851633D01*
X114987506Y-74907916D01*
X114864509Y-75030915D01*
X114864508Y-75030915D01*
X110281036Y-79614386D01*
X110219713Y-79647871D01*
X110209541Y-79649644D01*
X110093238Y-79664956D01*
X110093237Y-79664956D01*
X109947160Y-79725463D01*
X109821718Y-79821718D01*
X109725463Y-79947160D01*
X109664956Y-80093237D01*
X109664955Y-80093239D01*
X109644318Y-80249998D01*
X104546423Y-80249998D01*
X104524536Y-80197159D01*
X104524535Y-80197158D01*
X104524535Y-80197157D01*
X104453124Y-80104092D01*
X104427930Y-80038923D01*
X104427500Y-80028606D01*
X104427500Y-76943721D01*
X104427500Y-76943719D01*
X104398367Y-76834991D01*
X104394194Y-76827764D01*
X104390825Y-76821928D01*
X104342085Y-76737509D01*
X104262491Y-76657915D01*
X100512491Y-72907915D01*
X100463750Y-72879774D01*
X100415010Y-72851633D01*
X100360645Y-72837066D01*
X100306281Y-72822500D01*
X100306280Y-72822500D01*
X96971393Y-72822500D01*
X96904354Y-72802815D01*
X96895920Y-72796885D01*
X96802841Y-72725464D01*
X96656762Y-72664956D01*
X96656760Y-72664955D01*
X96500001Y-72644318D01*
X96499999Y-72644318D01*
X96343239Y-72664955D01*
X96343237Y-72664956D01*
X96197160Y-72725463D01*
X96071718Y-72821718D01*
X95975463Y-72947160D01*
X95914956Y-73093237D01*
X95914955Y-73093239D01*
X95894318Y-73249998D01*
X95894318Y-73250001D01*
X95914955Y-73406760D01*
X95914956Y-73406762D01*
X95969391Y-73538181D01*
X95975464Y-73552841D01*
X96071718Y-73678282D01*
X96197159Y-73774536D01*
X96343238Y-73835044D01*
X96421619Y-73845363D01*
X96499999Y-73855682D01*
X96500000Y-73855682D01*
X96500001Y-73855682D01*
X96552254Y-73848802D01*
X96656762Y-73835044D01*
X96802841Y-73774536D01*
X96895908Y-73703123D01*
X96961076Y-73677930D01*
X96971393Y-73677500D01*
X100021562Y-73677500D01*
X100088601Y-73697185D01*
X100109243Y-73713819D01*
X103536181Y-77140757D01*
X103569666Y-77202080D01*
X103572500Y-77228438D01*
X103572500Y-79744613D01*
X103552815Y-79811652D01*
X103500011Y-79857407D01*
X103430853Y-79867351D01*
X103367297Y-79838326D01*
X103360819Y-79832294D01*
X100076520Y-76547995D01*
X100049640Y-76507766D01*
X100024537Y-76447161D01*
X100024536Y-76447160D01*
X100024536Y-76447159D01*
X99928282Y-76321718D01*
X99802841Y-76225464D01*
X99739569Y-76199256D01*
X99656762Y-76164956D01*
X99656760Y-76164955D01*
X99500001Y-76144318D01*
X99499999Y-76144318D01*
X99343239Y-76164955D01*
X99343237Y-76164956D01*
X99197160Y-76225463D01*
X99071718Y-76321718D01*
X98975463Y-76447160D01*
X98914956Y-76593237D01*
X98914955Y-76593239D01*
X98894318Y-76749998D01*
X98894318Y-76750001D01*
X98914955Y-76906760D01*
X98914956Y-76906762D01*
X98974787Y-77051208D01*
X98975464Y-77052841D01*
X99071718Y-77178282D01*
X99197159Y-77274536D01*
X99197160Y-77274536D01*
X99197161Y-77274537D01*
X99257766Y-77299640D01*
X99297995Y-77326520D01*
X100619863Y-78648388D01*
X100653348Y-78709711D01*
X100648364Y-78779403D01*
X100606492Y-78835336D01*
X100541028Y-78859753D01*
X100507990Y-78857686D01*
X100341156Y-78824500D01*
X100341154Y-78824500D01*
X99591154Y-78824500D01*
X99434717Y-78824500D01*
X99367678Y-78804815D01*
X99347036Y-78788181D01*
X94339975Y-73781119D01*
X94339967Y-73781113D01*
X94188391Y-73679833D01*
X94188387Y-73679831D01*
X94019962Y-73610068D01*
X94019952Y-73610065D01*
X93841156Y-73574500D01*
X93841154Y-73574500D01*
X92974235Y-73574500D01*
X92907196Y-73554815D01*
X92861441Y-73502011D01*
X92851296Y-73466685D01*
X92835044Y-73343240D01*
X92835044Y-73343239D01*
X92774536Y-73197160D01*
X92678282Y-73071719D01*
X92552841Y-72975465D01*
X92484504Y-72947159D01*
X92406762Y-72914957D01*
X92406760Y-72914956D01*
X92250001Y-72894319D01*
X92249999Y-72894319D01*
X92093239Y-72914956D01*
X92093237Y-72914957D01*
X91947160Y-72975464D01*
X91821718Y-73071719D01*
X91725463Y-73197161D01*
X91664956Y-73343238D01*
X91664955Y-73343240D01*
X91648704Y-73466685D01*
X91620437Y-73530582D01*
X91562113Y-73569053D01*
X91525765Y-73574500D01*
X90184717Y-73574500D01*
X90117678Y-73554815D01*
X90097036Y-73538181D01*
X89119126Y-72560271D01*
X93035785Y-72560271D01*
X93194556Y-72615829D01*
X93362496Y-72634751D01*
X93362504Y-72634751D01*
X93530443Y-72615829D01*
X93689213Y-72560272D01*
X93689214Y-72560271D01*
X93362501Y-72233558D01*
X93362500Y-72233558D01*
X93035785Y-72560271D01*
X89119126Y-72560271D01*
X88711819Y-72152964D01*
X88678334Y-72091641D01*
X88675500Y-72065283D01*
X88675500Y-71880001D01*
X92607754Y-71880001D01*
X92607754Y-71880008D01*
X92626675Y-72047943D01*
X92626676Y-72047948D01*
X92682232Y-72206719D01*
X93008947Y-71880005D01*
X92989056Y-71860114D01*
X93262500Y-71860114D01*
X93262500Y-71899896D01*
X93277724Y-71936650D01*
X93305855Y-71964781D01*
X93342609Y-71980005D01*
X93382391Y-71980005D01*
X93419145Y-71964781D01*
X93447276Y-71936650D01*
X93462500Y-71899896D01*
X93462500Y-71880004D01*
X93716053Y-71880004D01*
X93716053Y-71880006D01*
X94042766Y-72206719D01*
X94042767Y-72206718D01*
X94098324Y-72047948D01*
X94117246Y-71880008D01*
X94117246Y-71880001D01*
X94098324Y-71712061D01*
X94042766Y-71553290D01*
X93716053Y-71880004D01*
X93462500Y-71880004D01*
X93462500Y-71860114D01*
X93447276Y-71823360D01*
X93419145Y-71795229D01*
X93382391Y-71780005D01*
X93342609Y-71780005D01*
X93305855Y-71795229D01*
X93277724Y-71823360D01*
X93262500Y-71860114D01*
X92989056Y-71860114D01*
X92682232Y-71553290D01*
X92626676Y-71712058D01*
X92626675Y-71712063D01*
X92607754Y-71880001D01*
X88675500Y-71880001D01*
X88675500Y-71330006D01*
X93166054Y-71330006D01*
X93362500Y-71526452D01*
X93558946Y-71330006D01*
X93362500Y-71133560D01*
X93166054Y-71330006D01*
X88675500Y-71330006D01*
X88675500Y-70780003D01*
X92607754Y-70780003D01*
X92607754Y-70780010D01*
X92626675Y-70947945D01*
X92626676Y-70947950D01*
X92682232Y-71106721D01*
X93008947Y-70780007D01*
X92989056Y-70760116D01*
X93262500Y-70760116D01*
X93262500Y-70799898D01*
X93277724Y-70836652D01*
X93305855Y-70864783D01*
X93342609Y-70880007D01*
X93382391Y-70880007D01*
X93419145Y-70864783D01*
X93447276Y-70836652D01*
X93462500Y-70799898D01*
X93462500Y-70780006D01*
X93716053Y-70780006D01*
X93716053Y-70780008D01*
X94042766Y-71106721D01*
X94042767Y-71106720D01*
X94051453Y-71081898D01*
X107074500Y-71081898D01*
X107074500Y-73418102D01*
X107080126Y-73464954D01*
X107085122Y-73506561D01*
X107140639Y-73647343D01*
X107232077Y-73767922D01*
X107352656Y-73859360D01*
X107352657Y-73859360D01*
X107352658Y-73859361D01*
X107493436Y-73914877D01*
X107581898Y-73925500D01*
X107581903Y-73925500D01*
X109918097Y-73925500D01*
X109918102Y-73925500D01*
X110006564Y-73914877D01*
X110147342Y-73859361D01*
X110267922Y-73767922D01*
X110359361Y-73647342D01*
X110414877Y-73506564D01*
X110425500Y-73418102D01*
X110425500Y-71081898D01*
X110414877Y-70993436D01*
X110359361Y-70852658D01*
X110359360Y-70852657D01*
X110359360Y-70852656D01*
X110267922Y-70732077D01*
X110147343Y-70640639D01*
X110006561Y-70585122D01*
X109960926Y-70579642D01*
X109918102Y-70574500D01*
X107581898Y-70574500D01*
X107542853Y-70579188D01*
X107493438Y-70585122D01*
X107352656Y-70640639D01*
X107232077Y-70732077D01*
X107140639Y-70852656D01*
X107085122Y-70993438D01*
X107079188Y-71042853D01*
X107074500Y-71081898D01*
X94051453Y-71081898D01*
X94098324Y-70947950D01*
X94117246Y-70780010D01*
X94117246Y-70780003D01*
X94098324Y-70612063D01*
X94042766Y-70453292D01*
X93716053Y-70780006D01*
X93462500Y-70780006D01*
X93462500Y-70760116D01*
X93447276Y-70723362D01*
X93419145Y-70695231D01*
X93382391Y-70680007D01*
X93342609Y-70680007D01*
X93305855Y-70695231D01*
X93277724Y-70723362D01*
X93262500Y-70760116D01*
X92989056Y-70760116D01*
X92682232Y-70453292D01*
X92626676Y-70612060D01*
X92626675Y-70612065D01*
X92607754Y-70780003D01*
X88675500Y-70780003D01*
X88675500Y-70099739D01*
X93035785Y-70099739D01*
X93362500Y-70426454D01*
X93362501Y-70426454D01*
X93689214Y-70099739D01*
X93530443Y-70044183D01*
X93530438Y-70044182D01*
X93362504Y-70025261D01*
X93362496Y-70025261D01*
X93194558Y-70044182D01*
X93194553Y-70044183D01*
X93035785Y-70099739D01*
X88675500Y-70099739D01*
X88675500Y-69684718D01*
X88695185Y-69617679D01*
X88711819Y-69597037D01*
X89218880Y-69089976D01*
X89218883Y-69089973D01*
X89320167Y-68938390D01*
X89389933Y-68769959D01*
X89415168Y-68643098D01*
X89425500Y-68591157D01*
X89425500Y-68205132D01*
X89949500Y-68205132D01*
X89949500Y-69294857D01*
X89949502Y-69294883D01*
X89952413Y-69319988D01*
X89952415Y-69319992D01*
X89997793Y-69422765D01*
X89997794Y-69422766D01*
X90077235Y-69502207D01*
X90180009Y-69547586D01*
X90205135Y-69550501D01*
X91294864Y-69550500D01*
X91294879Y-69550498D01*
X91294882Y-69550498D01*
X91319987Y-69547587D01*
X91319988Y-69547586D01*
X91319991Y-69547586D01*
X91422765Y-69502207D01*
X91502206Y-69422766D01*
X91547585Y-69319992D01*
X91550500Y-69294866D01*
X91550500Y-69294865D01*
X91550501Y-69294857D01*
X91550531Y-69294340D01*
X91550575Y-69294215D01*
X91550913Y-69291307D01*
X91551587Y-69291385D01*
X91574054Y-69228549D01*
X91629412Y-69185920D01*
X91674324Y-69177501D01*
X97806278Y-69177501D01*
X97806280Y-69177501D01*
X97915008Y-69148368D01*
X98012490Y-69092086D01*
X99772677Y-67331898D01*
X102824500Y-67331898D01*
X102824500Y-69668102D01*
X102830126Y-69714954D01*
X102835122Y-69756561D01*
X102890639Y-69897343D01*
X102982077Y-70017922D01*
X103102656Y-70109360D01*
X103102657Y-70109360D01*
X103102658Y-70109361D01*
X103243436Y-70164877D01*
X103331898Y-70175500D01*
X103331903Y-70175500D01*
X105668097Y-70175500D01*
X105668102Y-70175500D01*
X105756564Y-70164877D01*
X105897342Y-70109361D01*
X106017922Y-70017922D01*
X106109361Y-69897342D01*
X106164877Y-69756564D01*
X106175500Y-69668102D01*
X106175500Y-67999998D01*
X117894318Y-67999998D01*
X117894318Y-68000001D01*
X117914955Y-68156760D01*
X117914956Y-68156762D01*
X117975453Y-68302816D01*
X117975464Y-68302841D01*
X118071718Y-68428282D01*
X118197159Y-68524536D01*
X118343238Y-68585044D01*
X118389656Y-68591155D01*
X118499999Y-68605682D01*
X118500000Y-68605682D01*
X118500001Y-68605682D01*
X118552254Y-68598802D01*
X118656762Y-68585044D01*
X118802841Y-68524536D01*
X118895908Y-68453123D01*
X118961076Y-68427930D01*
X118971393Y-68427500D01*
X119185066Y-68427500D01*
X119185094Y-68427502D01*
X119193721Y-68427502D01*
X119306284Y-68427502D01*
X122575502Y-68427502D01*
X122642541Y-68447187D01*
X122688296Y-68499991D01*
X122699502Y-68551502D01*
X122699502Y-68643104D01*
X122705128Y-68689956D01*
X122710124Y-68731563D01*
X122765641Y-68872345D01*
X122857079Y-68992924D01*
X122977658Y-69084362D01*
X122977659Y-69084362D01*
X122977660Y-69084363D01*
X123118438Y-69139879D01*
X123206900Y-69150502D01*
X123206905Y-69150502D01*
X124743099Y-69150502D01*
X124743104Y-69150502D01*
X124831566Y-69139879D01*
X124972344Y-69084363D01*
X125092924Y-68992924D01*
X125184363Y-68872344D01*
X125239879Y-68731566D01*
X125250502Y-68643104D01*
X125250502Y-67356900D01*
X125239879Y-67268438D01*
X125184363Y-67127660D01*
X125184362Y-67127659D01*
X125184362Y-67127658D01*
X125092924Y-67007079D01*
X124972345Y-66915641D01*
X124831563Y-66860124D01*
X124785928Y-66854644D01*
X124743104Y-66849502D01*
X124452670Y-66849502D01*
X124385631Y-66829817D01*
X124339876Y-66777013D01*
X124329932Y-66707855D01*
X124358957Y-66644299D01*
X124414352Y-66607571D01*
X124541637Y-66566214D01*
X124541640Y-66566213D01*
X124578199Y-66547585D01*
X124702995Y-66483998D01*
X124849502Y-66377555D01*
X124977554Y-66249503D01*
X125083997Y-66102996D01*
X125166212Y-65941641D01*
X125222172Y-65769411D01*
X125236766Y-65677261D01*
X125250501Y-65590553D01*
X125250501Y-65409450D01*
X125229998Y-65280003D01*
X125222172Y-65230593D01*
X125177544Y-65093239D01*
X125166213Y-65058365D01*
X125166212Y-65058362D01*
X125135350Y-64997794D01*
X125083997Y-64897008D01*
X125033436Y-64827416D01*
X124977559Y-64750507D01*
X124977555Y-64750502D01*
X124849500Y-64622447D01*
X124849495Y-64622443D01*
X124702996Y-64516006D01*
X124617489Y-64472437D01*
X124566694Y-64424462D01*
X124549899Y-64356641D01*
X124572437Y-64290506D01*
X124617490Y-64251468D01*
X124807560Y-64154622D01*
X124979461Y-64029729D01*
X124979466Y-64029725D01*
X125129725Y-63879466D01*
X125129729Y-63879461D01*
X125254622Y-63707559D01*
X125351097Y-63518219D01*
X125416759Y-63316131D01*
X125416759Y-63316128D01*
X125427233Y-63250002D01*
X124379148Y-63250002D01*
X124417632Y-63183345D01*
X124450002Y-63062537D01*
X124450002Y-62937467D01*
X124417632Y-62816659D01*
X124379148Y-62750002D01*
X125427233Y-62750002D01*
X125416759Y-62683875D01*
X125416759Y-62683872D01*
X125351097Y-62481784D01*
X125254622Y-62292444D01*
X125129729Y-62120542D01*
X125129725Y-62120537D01*
X124979466Y-61970278D01*
X124979461Y-61970274D01*
X124807559Y-61845381D01*
X124618219Y-61748906D01*
X124416130Y-61683244D01*
X124225002Y-61652971D01*
X124225002Y-62595856D01*
X124158345Y-62557372D01*
X124037537Y-62525002D01*
X123912467Y-62525002D01*
X123791659Y-62557372D01*
X123725002Y-62595856D01*
X123725002Y-61652971D01*
X123533874Y-61683244D01*
X123533871Y-61683244D01*
X123331784Y-61748906D01*
X123142444Y-61845381D01*
X122970542Y-61970274D01*
X122970537Y-61970278D01*
X122820278Y-62120537D01*
X122820274Y-62120542D01*
X122695381Y-62292444D01*
X122598906Y-62481784D01*
X122533244Y-62683872D01*
X122533244Y-62683875D01*
X122522771Y-62750002D01*
X123570856Y-62750002D01*
X123532372Y-62816659D01*
X123500002Y-62937467D01*
X123500002Y-63062537D01*
X123532372Y-63183345D01*
X123570856Y-63250002D01*
X122522771Y-63250002D01*
X122533244Y-63316128D01*
X122533244Y-63316131D01*
X122598906Y-63518219D01*
X122695381Y-63707559D01*
X122820274Y-63879461D01*
X122820278Y-63879466D01*
X122970537Y-64029725D01*
X122970542Y-64029729D01*
X123142444Y-64154622D01*
X123332512Y-64251468D01*
X123383308Y-64299443D01*
X123400103Y-64367264D01*
X123377565Y-64433399D01*
X123332513Y-64472437D01*
X123247005Y-64516006D01*
X123100506Y-64622443D01*
X123100501Y-64622447D01*
X122972446Y-64750502D01*
X122972442Y-64750507D01*
X122866007Y-64897004D01*
X122783789Y-65058362D01*
X122783788Y-65058365D01*
X122727830Y-65230591D01*
X122699501Y-65409450D01*
X122699501Y-65590553D01*
X122727830Y-65769412D01*
X122783788Y-65941638D01*
X122783789Y-65941641D01*
X122866007Y-66102999D01*
X122972442Y-66249496D01*
X122972446Y-66249501D01*
X123100501Y-66377556D01*
X123100506Y-66377560D01*
X123166488Y-66425498D01*
X123247007Y-66483998D01*
X123352485Y-66537742D01*
X123408361Y-66566213D01*
X123408364Y-66566214D01*
X123535650Y-66607571D01*
X123593325Y-66647008D01*
X123620524Y-66711366D01*
X123608610Y-66780213D01*
X123561366Y-66831689D01*
X123497332Y-66849502D01*
X123206900Y-66849502D01*
X123167855Y-66854190D01*
X123118440Y-66860124D01*
X122977658Y-66915641D01*
X122857079Y-67007079D01*
X122765641Y-67127658D01*
X122710124Y-67268440D01*
X122708602Y-67281118D01*
X122699502Y-67356900D01*
X122699502Y-67356905D01*
X122699502Y-67448502D01*
X122679817Y-67515541D01*
X122627013Y-67561296D01*
X122575502Y-67572502D01*
X119314936Y-67572502D01*
X119314908Y-67572500D01*
X119306281Y-67572500D01*
X118971393Y-67572500D01*
X118904354Y-67552815D01*
X118895920Y-67546885D01*
X118802841Y-67475464D01*
X118656762Y-67414956D01*
X118656760Y-67414955D01*
X118500001Y-67394318D01*
X118499999Y-67394318D01*
X118343239Y-67414955D01*
X118343237Y-67414956D01*
X118197160Y-67475463D01*
X118071718Y-67571718D01*
X117975463Y-67697160D01*
X117914956Y-67843237D01*
X117914955Y-67843239D01*
X117894318Y-67999998D01*
X106175500Y-67999998D01*
X106175500Y-67331898D01*
X106164877Y-67243436D01*
X106109361Y-67102658D01*
X106109360Y-67102657D01*
X106109360Y-67102656D01*
X106017922Y-66982077D01*
X105897343Y-66890639D01*
X105756561Y-66835122D01*
X105710926Y-66829642D01*
X105668102Y-66824500D01*
X103331898Y-66824500D01*
X103292853Y-66829188D01*
X103243438Y-66835122D01*
X103102656Y-66890639D01*
X102982077Y-66982077D01*
X102890639Y-67102656D01*
X102835122Y-67243438D01*
X102832120Y-67268440D01*
X102824500Y-67331898D01*
X99772677Y-67331898D01*
X101218963Y-65885611D01*
X101280284Y-65852128D01*
X101290439Y-65850358D01*
X101406762Y-65835044D01*
X101552841Y-65774536D01*
X101678282Y-65678282D01*
X101774536Y-65552841D01*
X101835044Y-65406762D01*
X101848802Y-65302254D01*
X101855682Y-65250001D01*
X101855682Y-65249998D01*
X101835044Y-65093239D01*
X101835044Y-65093238D01*
X101829615Y-65080132D01*
X118824500Y-65080132D01*
X118824500Y-66169857D01*
X118824502Y-66169883D01*
X118827413Y-66194988D01*
X118827415Y-66194992D01*
X118872793Y-66297765D01*
X118872794Y-66297766D01*
X118952235Y-66377207D01*
X119055009Y-66422586D01*
X119080135Y-66425501D01*
X120169864Y-66425500D01*
X120169879Y-66425498D01*
X120169882Y-66425498D01*
X120194987Y-66422587D01*
X120194988Y-66422586D01*
X120194991Y-66422586D01*
X120297765Y-66377207D01*
X120377206Y-66297766D01*
X120422585Y-66194992D01*
X120425500Y-66169866D01*
X120425499Y-65080137D01*
X120425163Y-65077236D01*
X120422586Y-65055013D01*
X120422585Y-65055011D01*
X120422585Y-65055010D01*
X120377206Y-64952236D01*
X120297765Y-64872795D01*
X120297763Y-64872794D01*
X120194992Y-64827416D01*
X120169865Y-64824501D01*
X119080143Y-64824501D01*
X119080117Y-64824503D01*
X119055012Y-64827414D01*
X119055008Y-64827416D01*
X118952235Y-64872794D01*
X118872794Y-64952235D01*
X118827415Y-65055007D01*
X118827415Y-65055009D01*
X118824500Y-65080132D01*
X101829615Y-65080132D01*
X101774536Y-64947159D01*
X101678282Y-64821718D01*
X101552841Y-64725464D01*
X101406762Y-64664956D01*
X101406760Y-64664955D01*
X101250001Y-64644318D01*
X101249999Y-64644318D01*
X101093239Y-64664955D01*
X101093237Y-64664956D01*
X100947160Y-64725463D01*
X100821718Y-64821718D01*
X100725463Y-64947160D01*
X100664956Y-65093237D01*
X100664956Y-65093238D01*
X100649644Y-65209541D01*
X100621377Y-65273437D01*
X100614386Y-65281036D01*
X97609242Y-68286182D01*
X97547919Y-68319667D01*
X97521561Y-68322501D01*
X91674322Y-68322501D01*
X91607283Y-68302816D01*
X91561528Y-68250012D01*
X91551274Y-68208650D01*
X91550912Y-68208693D01*
X91550584Y-68205868D01*
X91550528Y-68205641D01*
X91550498Y-68205125D01*
X91547586Y-68180013D01*
X91547585Y-68180011D01*
X91547585Y-68180010D01*
X91502206Y-68077236D01*
X91422765Y-67997795D01*
X91422763Y-67997794D01*
X91319992Y-67952416D01*
X91294865Y-67949501D01*
X90205143Y-67949501D01*
X90205117Y-67949503D01*
X90180012Y-67952414D01*
X90180008Y-67952416D01*
X90077235Y-67997794D01*
X89997794Y-68077235D01*
X89952415Y-68180007D01*
X89952415Y-68180009D01*
X89949500Y-68205132D01*
X89425500Y-68205132D01*
X89425500Y-67908844D01*
X89389934Y-67730048D01*
X89389933Y-67730047D01*
X89389933Y-67730043D01*
X89389931Y-67730038D01*
X89320168Y-67561613D01*
X89320166Y-67561609D01*
X89218886Y-67410033D01*
X89218884Y-67410030D01*
X89165754Y-67356900D01*
X89089972Y-67281118D01*
X88968879Y-67160025D01*
X88839975Y-67031120D01*
X88839967Y-67031114D01*
X88778835Y-66990267D01*
X91423284Y-66990267D01*
X91582055Y-67045825D01*
X91749995Y-67064747D01*
X91750003Y-67064747D01*
X91917942Y-67045825D01*
X92076712Y-66990268D01*
X92076713Y-66990267D01*
X91750000Y-66663554D01*
X91749999Y-66663554D01*
X91423284Y-66990267D01*
X88778835Y-66990267D01*
X88688391Y-66929834D01*
X88688387Y-66929832D01*
X88519962Y-66860069D01*
X88519952Y-66860066D01*
X88341156Y-66824501D01*
X88341154Y-66824501D01*
X87591154Y-66824501D01*
X87408846Y-66824501D01*
X87408844Y-66824501D01*
X87230047Y-66860066D01*
X87230037Y-66860069D01*
X87061612Y-66929832D01*
X87061608Y-66929834D01*
X86910032Y-67031114D01*
X86910024Y-67031120D01*
X86781119Y-67160025D01*
X86781113Y-67160033D01*
X86679833Y-67311609D01*
X86679831Y-67311613D01*
X86610067Y-67480040D01*
X86610065Y-67480046D01*
X86592316Y-67569276D01*
X86559930Y-67631186D01*
X86558381Y-67632764D01*
X86410028Y-67781118D01*
X86347909Y-67843237D01*
X86281115Y-67910030D01*
X86281113Y-67910033D01*
X86179833Y-68061609D01*
X86179831Y-68061613D01*
X86110068Y-68230038D01*
X86110065Y-68230048D01*
X86074500Y-68408844D01*
X86074500Y-68408847D01*
X86074500Y-68591155D01*
X86074500Y-68591157D01*
X86074499Y-68591157D01*
X85500500Y-68591157D01*
X85500500Y-66309997D01*
X90995253Y-66309997D01*
X90995253Y-66310004D01*
X91014174Y-66477939D01*
X91014175Y-66477944D01*
X91069731Y-66636715D01*
X91396446Y-66310001D01*
X91376555Y-66290110D01*
X91649999Y-66290110D01*
X91649999Y-66329892D01*
X91665223Y-66366646D01*
X91693354Y-66394777D01*
X91730108Y-66410001D01*
X91769890Y-66410001D01*
X91806644Y-66394777D01*
X91834775Y-66366646D01*
X91849999Y-66329892D01*
X91849999Y-66310000D01*
X92103552Y-66310000D01*
X92103552Y-66310002D01*
X92430265Y-66636715D01*
X92430266Y-66636714D01*
X92485823Y-66477944D01*
X92504745Y-66310004D01*
X92504745Y-66309997D01*
X92485823Y-66142057D01*
X92430265Y-65983286D01*
X92103552Y-66310000D01*
X91849999Y-66310000D01*
X91849999Y-66290110D01*
X91834775Y-66253356D01*
X91806644Y-66225225D01*
X91769890Y-66210001D01*
X91730108Y-66210001D01*
X91693354Y-66225225D01*
X91665223Y-66253356D01*
X91649999Y-66290110D01*
X91376555Y-66290110D01*
X91069731Y-65983286D01*
X91014175Y-66142054D01*
X91014174Y-66142059D01*
X90995253Y-66309997D01*
X85500500Y-66309997D01*
X85500500Y-65795001D01*
X91588552Y-65795001D01*
X91749999Y-65956448D01*
X91911445Y-65795002D01*
X91749998Y-65633555D01*
X91588552Y-65795001D01*
X85500500Y-65795001D01*
X85500500Y-65279998D01*
X90995252Y-65279998D01*
X90995252Y-65280005D01*
X91014173Y-65447940D01*
X91014174Y-65447945D01*
X91069730Y-65606716D01*
X91396445Y-65280002D01*
X91376554Y-65260111D01*
X91649998Y-65260111D01*
X91649998Y-65299893D01*
X91665222Y-65336647D01*
X91693353Y-65364778D01*
X91730107Y-65380002D01*
X91769889Y-65380002D01*
X91806643Y-65364778D01*
X91834774Y-65336647D01*
X91849998Y-65299893D01*
X91849998Y-65280001D01*
X92103551Y-65280001D01*
X92103551Y-65280003D01*
X92430264Y-65606716D01*
X92430265Y-65606715D01*
X92485822Y-65447945D01*
X92504744Y-65280005D01*
X92504744Y-65279998D01*
X92496309Y-65205132D01*
X96699500Y-65205132D01*
X96699500Y-66294857D01*
X96699502Y-66294883D01*
X96702413Y-66319988D01*
X96702415Y-66319992D01*
X96747793Y-66422765D01*
X96747794Y-66422766D01*
X96827235Y-66502207D01*
X96930009Y-66547586D01*
X96955135Y-66550501D01*
X98044864Y-66550500D01*
X98044879Y-66550498D01*
X98044882Y-66550498D01*
X98069987Y-66547587D01*
X98069988Y-66547586D01*
X98069991Y-66547586D01*
X98172765Y-66502207D01*
X98252206Y-66422766D01*
X98297585Y-66319992D01*
X98300500Y-66294866D01*
X98300499Y-65205137D01*
X98299350Y-65195226D01*
X98297586Y-65180013D01*
X98297585Y-65180011D01*
X98297585Y-65180010D01*
X98252206Y-65077236D01*
X98172765Y-64997795D01*
X98172763Y-64997794D01*
X98069992Y-64952416D01*
X98044865Y-64949501D01*
X96955143Y-64949501D01*
X96955117Y-64949503D01*
X96930012Y-64952414D01*
X96930008Y-64952416D01*
X96827235Y-64997794D01*
X96747794Y-65077235D01*
X96702415Y-65180007D01*
X96702415Y-65180009D01*
X96699500Y-65205132D01*
X92496309Y-65205132D01*
X92485822Y-65112058D01*
X92430264Y-64953287D01*
X92103551Y-65280001D01*
X91849998Y-65280001D01*
X91849998Y-65260111D01*
X91834774Y-65223357D01*
X91806643Y-65195226D01*
X91769889Y-65180002D01*
X91730107Y-65180002D01*
X91693353Y-65195226D01*
X91665222Y-65223357D01*
X91649998Y-65260111D01*
X91376554Y-65260111D01*
X91069730Y-64953287D01*
X91014174Y-65112055D01*
X91014173Y-65112060D01*
X90995252Y-65279998D01*
X85500500Y-65279998D01*
X85500500Y-64765002D01*
X91588551Y-64765002D01*
X91749998Y-64926449D01*
X91911446Y-64765001D01*
X91749999Y-64603554D01*
X91588551Y-64765002D01*
X85500500Y-64765002D01*
X85500500Y-64249997D01*
X90995253Y-64249997D01*
X90995253Y-64250004D01*
X91014174Y-64417939D01*
X91014175Y-64417944D01*
X91069731Y-64576715D01*
X91396446Y-64250001D01*
X91376555Y-64230110D01*
X91649999Y-64230110D01*
X91649999Y-64269892D01*
X91665223Y-64306646D01*
X91693354Y-64334777D01*
X91730108Y-64350001D01*
X91769890Y-64350001D01*
X91806644Y-64334777D01*
X91834775Y-64306646D01*
X91849999Y-64269892D01*
X91849999Y-64250000D01*
X92103552Y-64250000D01*
X92103552Y-64250002D01*
X92430265Y-64576715D01*
X92430266Y-64576714D01*
X92485823Y-64417944D01*
X92504745Y-64250004D01*
X92504745Y-64249997D01*
X92485823Y-64082057D01*
X92430265Y-63923286D01*
X92103552Y-64250000D01*
X91849999Y-64250000D01*
X91849999Y-64230110D01*
X91834775Y-64193356D01*
X91806644Y-64165225D01*
X91769890Y-64150001D01*
X91730108Y-64150001D01*
X91693354Y-64165225D01*
X91665223Y-64193356D01*
X91649999Y-64230110D01*
X91376555Y-64230110D01*
X91069731Y-63923286D01*
X91014175Y-64082054D01*
X91014174Y-64082059D01*
X90995253Y-64249997D01*
X85500500Y-64249997D01*
X85500500Y-63569733D01*
X91423284Y-63569733D01*
X91749999Y-63896448D01*
X91750000Y-63896448D01*
X92076713Y-63569733D01*
X91917942Y-63514177D01*
X91917937Y-63514176D01*
X91750003Y-63495255D01*
X91749995Y-63495255D01*
X91582057Y-63514176D01*
X91582052Y-63514177D01*
X91423284Y-63569733D01*
X85500500Y-63569733D01*
X85500500Y-57401577D01*
X86249500Y-57401577D01*
X86249500Y-57598422D01*
X86280290Y-57792826D01*
X86341117Y-57980029D01*
X86430476Y-58155405D01*
X86546172Y-58314646D01*
X86685354Y-58453828D01*
X86844595Y-58569524D01*
X86927455Y-58611743D01*
X87019970Y-58658882D01*
X87019972Y-58658882D01*
X87019975Y-58658884D01*
X87120317Y-58691487D01*
X87207173Y-58719709D01*
X87401578Y-58750500D01*
X87401583Y-58750500D01*
X87598422Y-58750500D01*
X87792826Y-58719709D01*
X87980025Y-58658884D01*
X88155405Y-58569524D01*
X88314646Y-58453828D01*
X88453828Y-58314646D01*
X88569524Y-58155405D01*
X88658884Y-57980025D01*
X88719709Y-57792826D01*
X88750500Y-57598422D01*
X88750500Y-57401577D01*
X123749500Y-57401577D01*
X123749500Y-57598422D01*
X123780290Y-57792826D01*
X123841117Y-57980029D01*
X123930476Y-58155405D01*
X124046172Y-58314646D01*
X124185354Y-58453828D01*
X124344595Y-58569524D01*
X124427455Y-58611743D01*
X124519970Y-58658882D01*
X124519972Y-58658882D01*
X124519975Y-58658884D01*
X124620317Y-58691487D01*
X124707173Y-58719709D01*
X124901578Y-58750500D01*
X124901583Y-58750500D01*
X125098422Y-58750500D01*
X125292826Y-58719709D01*
X125480025Y-58658884D01*
X125655405Y-58569524D01*
X125814646Y-58453828D01*
X125953828Y-58314646D01*
X126069524Y-58155405D01*
X126158884Y-57980025D01*
X126219709Y-57792826D01*
X126250500Y-57598422D01*
X126250500Y-57401577D01*
X126219709Y-57207173D01*
X126158882Y-57019970D01*
X126069523Y-56844594D01*
X125953828Y-56685354D01*
X125814646Y-56546172D01*
X125655405Y-56430476D01*
X125480029Y-56341117D01*
X125292826Y-56280290D01*
X125098422Y-56249500D01*
X125098417Y-56249500D01*
X124901583Y-56249500D01*
X124901578Y-56249500D01*
X124707173Y-56280290D01*
X124519970Y-56341117D01*
X124344594Y-56430476D01*
X124253741Y-56496485D01*
X124185354Y-56546172D01*
X124185352Y-56546174D01*
X124185351Y-56546174D01*
X124046174Y-56685351D01*
X124046174Y-56685352D01*
X124046172Y-56685354D01*
X123996485Y-56753741D01*
X123930476Y-56844594D01*
X123841117Y-57019970D01*
X123780290Y-57207173D01*
X123749500Y-57401577D01*
X88750500Y-57401577D01*
X88719709Y-57207173D01*
X88658882Y-57019970D01*
X88569523Y-56844594D01*
X88453828Y-56685354D01*
X88314646Y-56546172D01*
X88155405Y-56430476D01*
X87980029Y-56341117D01*
X87792826Y-56280290D01*
X87598422Y-56249500D01*
X87598417Y-56249500D01*
X87401583Y-56249500D01*
X87401578Y-56249500D01*
X87207173Y-56280290D01*
X87019970Y-56341117D01*
X86844594Y-56430476D01*
X86753741Y-56496485D01*
X86685354Y-56546172D01*
X86685352Y-56546174D01*
X86685351Y-56546174D01*
X86546174Y-56685351D01*
X86546174Y-56685352D01*
X86546172Y-56685354D01*
X86496485Y-56753741D01*
X86430476Y-56844594D01*
X86341117Y-57019970D01*
X86280290Y-57207173D01*
X86249500Y-57401577D01*
X85500500Y-57401577D01*
X85500500Y-55624500D01*
X85520185Y-55557461D01*
X85572989Y-55511706D01*
X85624500Y-55500500D01*
X127375500Y-55500500D01*
X127442539Y-55520185D01*
G37*
%TD.AperFunction*%
%TD*%
M02*
