%TF.GenerationSoftware,KiCad,Pcbnew,8.0.2*%
%TF.CreationDate,2024-10-23T20:47:09+03:00*%
%TF.ProjectId,PowerServo AE 36V 3.6A 30D - DEV,506f7765-7253-4657-9276-6f2041452033,rev?*%
%TF.SameCoordinates,Original*%
%TF.FileFunction,Legend,Top*%
%TF.FilePolarity,Positive*%
%FSLAX46Y46*%
G04 Gerber Fmt 4.6, Leading zero omitted, Abs format (unit mm)*
G04 Created by KiCad (PCBNEW 8.0.2) date 2024-10-23 20:47:09*
%MOMM*%
%LPD*%
G01*
G04 APERTURE LIST*
%ADD10C,0.100000*%
%ADD11C,0.300000*%
%ADD12C,0.150000*%
%ADD13C,0.254000*%
%ADD14C,0.120000*%
%ADD15C,0.200000*%
G04 APERTURE END LIST*
D10*
X106309588Y-82395770D02*
X106814665Y-82900847D01*
X106814665Y-82900847D02*
X106882008Y-83035534D01*
X106882008Y-83035534D02*
X106882008Y-83170221D01*
X106882008Y-83170221D02*
X106814665Y-83304908D01*
X106814665Y-83304908D02*
X106747321Y-83372251D01*
X107690130Y-82429442D02*
X107353413Y-82766159D01*
X107353413Y-82766159D02*
X106646306Y-82059053D01*
X108262550Y-81722335D02*
X108262550Y-81789678D01*
X108262550Y-81789678D02*
X108195207Y-81924365D01*
X108195207Y-81924365D02*
X108127863Y-81991709D01*
X108127863Y-81991709D02*
X107993176Y-82059052D01*
X107993176Y-82059052D02*
X107858489Y-82059052D01*
X107858489Y-82059052D02*
X107757474Y-82025381D01*
X107757474Y-82025381D02*
X107589115Y-81924365D01*
X107589115Y-81924365D02*
X107488100Y-81823350D01*
X107488100Y-81823350D02*
X107387085Y-81654991D01*
X107387085Y-81654991D02*
X107353413Y-81553976D01*
X107353413Y-81553976D02*
X107353413Y-81419289D01*
X107353413Y-81419289D02*
X107420757Y-81284602D01*
X107420757Y-81284602D02*
X107488100Y-81217259D01*
X107488100Y-81217259D02*
X107622787Y-81149915D01*
X107622787Y-81149915D02*
X107690131Y-81149915D01*
X108127863Y-80577495D02*
X108632940Y-81082572D01*
X108632940Y-81082572D02*
X108700283Y-81217259D01*
X108700283Y-81217259D02*
X108700283Y-81351946D01*
X108700283Y-81351946D02*
X108632940Y-81486633D01*
X108632940Y-81486633D02*
X108565596Y-81553976D01*
X109508405Y-80611167D02*
X109171688Y-80947884D01*
X109171688Y-80947884D02*
X108464581Y-80240778D01*
X110080825Y-79904060D02*
X110080825Y-79971404D01*
X110080825Y-79971404D02*
X110013482Y-80106091D01*
X110013482Y-80106091D02*
X109946138Y-80173434D01*
X109946138Y-80173434D02*
X109811451Y-80240778D01*
X109811451Y-80240778D02*
X109676764Y-80240778D01*
X109676764Y-80240778D02*
X109575749Y-80207106D01*
X109575749Y-80207106D02*
X109407390Y-80106091D01*
X109407390Y-80106091D02*
X109306375Y-80005075D01*
X109306375Y-80005075D02*
X109205360Y-79836717D01*
X109205360Y-79836717D02*
X109171688Y-79735701D01*
X109171688Y-79735701D02*
X109171688Y-79601014D01*
X109171688Y-79601014D02*
X109239031Y-79466327D01*
X109239031Y-79466327D02*
X109306375Y-79398984D01*
X109306375Y-79398984D02*
X109441062Y-79331640D01*
X109441062Y-79331640D02*
X109508405Y-79331640D01*
X109946138Y-78759220D02*
X110451215Y-79264297D01*
X110451215Y-79264297D02*
X110518558Y-79398984D01*
X110518558Y-79398984D02*
X110518558Y-79533671D01*
X110518558Y-79533671D02*
X110451215Y-79668358D01*
X110451215Y-79668358D02*
X110383871Y-79735701D01*
X111326680Y-78792892D02*
X110989963Y-79129610D01*
X110989963Y-79129610D02*
X110282856Y-78422503D01*
X111899100Y-78085785D02*
X111899100Y-78153129D01*
X111899100Y-78153129D02*
X111831757Y-78287816D01*
X111831757Y-78287816D02*
X111764413Y-78355159D01*
X111764413Y-78355159D02*
X111629726Y-78422503D01*
X111629726Y-78422503D02*
X111495039Y-78422503D01*
X111495039Y-78422503D02*
X111394024Y-78388831D01*
X111394024Y-78388831D02*
X111225665Y-78287816D01*
X111225665Y-78287816D02*
X111124650Y-78186800D01*
X111124650Y-78186800D02*
X111023635Y-78018442D01*
X111023635Y-78018442D02*
X110989963Y-77917426D01*
X110989963Y-77917426D02*
X110989963Y-77782739D01*
X110989963Y-77782739D02*
X111057306Y-77648052D01*
X111057306Y-77648052D02*
X111124650Y-77580709D01*
X111124650Y-77580709D02*
X111259337Y-77513365D01*
X111259337Y-77513365D02*
X111326680Y-77513365D01*
X111764413Y-76940946D02*
X112269489Y-77446022D01*
X112269489Y-77446022D02*
X112336833Y-77580709D01*
X112336833Y-77580709D02*
X112336833Y-77715396D01*
X112336833Y-77715396D02*
X112269489Y-77850083D01*
X112269489Y-77850083D02*
X112202146Y-77917426D01*
X113144955Y-76974617D02*
X112808238Y-77311335D01*
X112808238Y-77311335D02*
X112101131Y-76604228D01*
X113717375Y-76267510D02*
X113717375Y-76334854D01*
X113717375Y-76334854D02*
X113650032Y-76469541D01*
X113650032Y-76469541D02*
X113582688Y-76536884D01*
X113582688Y-76536884D02*
X113448001Y-76604228D01*
X113448001Y-76604228D02*
X113313314Y-76604228D01*
X113313314Y-76604228D02*
X113212299Y-76570556D01*
X113212299Y-76570556D02*
X113043940Y-76469541D01*
X113043940Y-76469541D02*
X112942925Y-76368526D01*
X112942925Y-76368526D02*
X112841909Y-76200167D01*
X112841909Y-76200167D02*
X112808238Y-76099152D01*
X112808238Y-76099152D02*
X112808238Y-75964465D01*
X112808238Y-75964465D02*
X112875581Y-75829777D01*
X112875581Y-75829777D02*
X112942925Y-75762434D01*
X112942925Y-75762434D02*
X113077612Y-75695090D01*
X113077612Y-75695090D02*
X113144955Y-75695090D01*
X113582688Y-75122671D02*
X114087764Y-75627747D01*
X114087764Y-75627747D02*
X114155108Y-75762434D01*
X114155108Y-75762434D02*
X114155108Y-75897121D01*
X114155108Y-75897121D02*
X114087764Y-76031808D01*
X114087764Y-76031808D02*
X114020421Y-76099152D01*
X114963230Y-75156342D02*
X114626512Y-75493060D01*
X114626512Y-75493060D02*
X113919406Y-74785953D01*
X115535650Y-74449235D02*
X115535650Y-74516579D01*
X115535650Y-74516579D02*
X115468306Y-74651266D01*
X115468306Y-74651266D02*
X115400963Y-74718609D01*
X115400963Y-74718609D02*
X115266276Y-74785953D01*
X115266276Y-74785953D02*
X115131589Y-74785953D01*
X115131589Y-74785953D02*
X115030574Y-74752281D01*
X115030574Y-74752281D02*
X114862215Y-74651266D01*
X114862215Y-74651266D02*
X114761200Y-74550251D01*
X114761200Y-74550251D02*
X114660184Y-74381892D01*
X114660184Y-74381892D02*
X114626513Y-74280877D01*
X114626513Y-74280877D02*
X114626513Y-74146190D01*
X114626513Y-74146190D02*
X114693856Y-74011503D01*
X114693856Y-74011503D02*
X114761200Y-73944159D01*
X114761200Y-73944159D02*
X114895887Y-73876816D01*
X114895887Y-73876816D02*
X114963230Y-73876816D01*
X100753884Y-59002531D02*
X100753884Y-58002531D01*
X100753884Y-58002531D02*
X100991979Y-58002531D01*
X100991979Y-58002531D02*
X101134836Y-58050150D01*
X101134836Y-58050150D02*
X101230074Y-58145388D01*
X101230074Y-58145388D02*
X101277693Y-58240626D01*
X101277693Y-58240626D02*
X101325312Y-58431102D01*
X101325312Y-58431102D02*
X101325312Y-58573959D01*
X101325312Y-58573959D02*
X101277693Y-58764435D01*
X101277693Y-58764435D02*
X101230074Y-58859673D01*
X101230074Y-58859673D02*
X101134836Y-58954912D01*
X101134836Y-58954912D02*
X100991979Y-59002531D01*
X100991979Y-59002531D02*
X100753884Y-59002531D01*
X102325312Y-58907292D02*
X102277693Y-58954912D01*
X102277693Y-58954912D02*
X102134836Y-59002531D01*
X102134836Y-59002531D02*
X102039598Y-59002531D01*
X102039598Y-59002531D02*
X101896741Y-58954912D01*
X101896741Y-58954912D02*
X101801503Y-58859673D01*
X101801503Y-58859673D02*
X101753884Y-58764435D01*
X101753884Y-58764435D02*
X101706265Y-58573959D01*
X101706265Y-58573959D02*
X101706265Y-58431102D01*
X101706265Y-58431102D02*
X101753884Y-58240626D01*
X101753884Y-58240626D02*
X101801503Y-58145388D01*
X101801503Y-58145388D02*
X101896741Y-58050150D01*
X101896741Y-58050150D02*
X102039598Y-58002531D01*
X102039598Y-58002531D02*
X102134836Y-58002531D01*
X102134836Y-58002531D02*
X102277693Y-58050150D01*
X102277693Y-58050150D02*
X102325312Y-58097769D01*
X102706265Y-58954912D02*
X102849122Y-59002531D01*
X102849122Y-59002531D02*
X103087217Y-59002531D01*
X103087217Y-59002531D02*
X103182455Y-58954912D01*
X103182455Y-58954912D02*
X103230074Y-58907292D01*
X103230074Y-58907292D02*
X103277693Y-58812054D01*
X103277693Y-58812054D02*
X103277693Y-58716816D01*
X103277693Y-58716816D02*
X103230074Y-58621578D01*
X103230074Y-58621578D02*
X103182455Y-58573959D01*
X103182455Y-58573959D02*
X103087217Y-58526340D01*
X103087217Y-58526340D02*
X102896741Y-58478721D01*
X102896741Y-58478721D02*
X102801503Y-58431102D01*
X102801503Y-58431102D02*
X102753884Y-58383483D01*
X102753884Y-58383483D02*
X102706265Y-58288245D01*
X102706265Y-58288245D02*
X102706265Y-58193007D01*
X102706265Y-58193007D02*
X102753884Y-58097769D01*
X102753884Y-58097769D02*
X102801503Y-58050150D01*
X102801503Y-58050150D02*
X102896741Y-58002531D01*
X102896741Y-58002531D02*
X103134836Y-58002531D01*
X103134836Y-58002531D02*
X103277693Y-58050150D01*
X104087217Y-58954912D02*
X103991979Y-59002531D01*
X103991979Y-59002531D02*
X103801503Y-59002531D01*
X103801503Y-59002531D02*
X103706265Y-58954912D01*
X103706265Y-58954912D02*
X103658646Y-58859673D01*
X103658646Y-58859673D02*
X103658646Y-58478721D01*
X103658646Y-58478721D02*
X103706265Y-58383483D01*
X103706265Y-58383483D02*
X103801503Y-58335864D01*
X103801503Y-58335864D02*
X103991979Y-58335864D01*
X103991979Y-58335864D02*
X104087217Y-58383483D01*
X104087217Y-58383483D02*
X104134836Y-58478721D01*
X104134836Y-58478721D02*
X104134836Y-58573959D01*
X104134836Y-58573959D02*
X103658646Y-58669197D01*
X104563408Y-59002531D02*
X104563408Y-58335864D01*
X104563408Y-58526340D02*
X104611027Y-58431102D01*
X104611027Y-58431102D02*
X104658646Y-58383483D01*
X104658646Y-58383483D02*
X104753884Y-58335864D01*
X104753884Y-58335864D02*
X104849122Y-58335864D01*
X105087218Y-58335864D02*
X105325313Y-59002531D01*
X105325313Y-59002531D02*
X105563408Y-58335864D01*
X106087218Y-59002531D02*
X105991980Y-58954912D01*
X105991980Y-58954912D02*
X105944361Y-58907292D01*
X105944361Y-58907292D02*
X105896742Y-58812054D01*
X105896742Y-58812054D02*
X105896742Y-58526340D01*
X105896742Y-58526340D02*
X105944361Y-58431102D01*
X105944361Y-58431102D02*
X105991980Y-58383483D01*
X105991980Y-58383483D02*
X106087218Y-58335864D01*
X106087218Y-58335864D02*
X106230075Y-58335864D01*
X106230075Y-58335864D02*
X106325313Y-58383483D01*
X106325313Y-58383483D02*
X106372932Y-58431102D01*
X106372932Y-58431102D02*
X106420551Y-58526340D01*
X106420551Y-58526340D02*
X106420551Y-58812054D01*
X106420551Y-58812054D02*
X106372932Y-58907292D01*
X106372932Y-58907292D02*
X106325313Y-58954912D01*
X106325313Y-58954912D02*
X106230075Y-59002531D01*
X106230075Y-59002531D02*
X106087218Y-59002531D01*
X107563409Y-58716816D02*
X108039599Y-58716816D01*
X107468171Y-59002531D02*
X107801504Y-58002531D01*
X107801504Y-58002531D02*
X108134837Y-59002531D01*
X108468171Y-58478721D02*
X108801504Y-58478721D01*
X108944361Y-59002531D02*
X108468171Y-59002531D01*
X108468171Y-59002531D02*
X108468171Y-58002531D01*
X108468171Y-58002531D02*
X108944361Y-58002531D01*
X100611027Y-59612475D02*
X101182455Y-59612475D01*
X100896741Y-60612475D02*
X100896741Y-59612475D01*
X101515789Y-60088665D02*
X101849122Y-60088665D01*
X101991979Y-60612475D02*
X101515789Y-60612475D01*
X101515789Y-60612475D02*
X101515789Y-59612475D01*
X101515789Y-59612475D02*
X101991979Y-59612475D01*
X102372932Y-60564856D02*
X102515789Y-60612475D01*
X102515789Y-60612475D02*
X102753884Y-60612475D01*
X102753884Y-60612475D02*
X102849122Y-60564856D01*
X102849122Y-60564856D02*
X102896741Y-60517236D01*
X102896741Y-60517236D02*
X102944360Y-60421998D01*
X102944360Y-60421998D02*
X102944360Y-60326760D01*
X102944360Y-60326760D02*
X102896741Y-60231522D01*
X102896741Y-60231522D02*
X102849122Y-60183903D01*
X102849122Y-60183903D02*
X102753884Y-60136284D01*
X102753884Y-60136284D02*
X102563408Y-60088665D01*
X102563408Y-60088665D02*
X102468170Y-60041046D01*
X102468170Y-60041046D02*
X102420551Y-59993427D01*
X102420551Y-59993427D02*
X102372932Y-59898189D01*
X102372932Y-59898189D02*
X102372932Y-59802951D01*
X102372932Y-59802951D02*
X102420551Y-59707713D01*
X102420551Y-59707713D02*
X102468170Y-59660094D01*
X102468170Y-59660094D02*
X102563408Y-59612475D01*
X102563408Y-59612475D02*
X102801503Y-59612475D01*
X102801503Y-59612475D02*
X102944360Y-59660094D01*
X103230075Y-59612475D02*
X103801503Y-59612475D01*
X103515789Y-60612475D02*
X103515789Y-59612475D01*
X104849122Y-59564856D02*
X103991980Y-60850570D01*
X105182456Y-60612475D02*
X105182456Y-59612475D01*
X105182456Y-59612475D02*
X105420551Y-59612475D01*
X105420551Y-59612475D02*
X105563408Y-59660094D01*
X105563408Y-59660094D02*
X105658646Y-59755332D01*
X105658646Y-59755332D02*
X105706265Y-59850570D01*
X105706265Y-59850570D02*
X105753884Y-60041046D01*
X105753884Y-60041046D02*
X105753884Y-60183903D01*
X105753884Y-60183903D02*
X105706265Y-60374379D01*
X105706265Y-60374379D02*
X105658646Y-60469617D01*
X105658646Y-60469617D02*
X105563408Y-60564856D01*
X105563408Y-60564856D02*
X105420551Y-60612475D01*
X105420551Y-60612475D02*
X105182456Y-60612475D01*
X106182456Y-60088665D02*
X106515789Y-60088665D01*
X106658646Y-60612475D02*
X106182456Y-60612475D01*
X106182456Y-60612475D02*
X106182456Y-59612475D01*
X106182456Y-59612475D02*
X106658646Y-59612475D01*
X106944361Y-59612475D02*
X107277694Y-60612475D01*
X107277694Y-60612475D02*
X107611027Y-59612475D01*
X109039599Y-60088665D02*
X109182456Y-60136284D01*
X109182456Y-60136284D02*
X109230075Y-60183903D01*
X109230075Y-60183903D02*
X109277694Y-60279141D01*
X109277694Y-60279141D02*
X109277694Y-60421998D01*
X109277694Y-60421998D02*
X109230075Y-60517236D01*
X109230075Y-60517236D02*
X109182456Y-60564856D01*
X109182456Y-60564856D02*
X109087218Y-60612475D01*
X109087218Y-60612475D02*
X108706266Y-60612475D01*
X108706266Y-60612475D02*
X108706266Y-59612475D01*
X108706266Y-59612475D02*
X109039599Y-59612475D01*
X109039599Y-59612475D02*
X109134837Y-59660094D01*
X109134837Y-59660094D02*
X109182456Y-59707713D01*
X109182456Y-59707713D02*
X109230075Y-59802951D01*
X109230075Y-59802951D02*
X109230075Y-59898189D01*
X109230075Y-59898189D02*
X109182456Y-59993427D01*
X109182456Y-59993427D02*
X109134837Y-60041046D01*
X109134837Y-60041046D02*
X109039599Y-60088665D01*
X109039599Y-60088665D02*
X108706266Y-60088665D01*
X109849123Y-60612475D02*
X109753885Y-60564856D01*
X109753885Y-60564856D02*
X109706266Y-60517236D01*
X109706266Y-60517236D02*
X109658647Y-60421998D01*
X109658647Y-60421998D02*
X109658647Y-60136284D01*
X109658647Y-60136284D02*
X109706266Y-60041046D01*
X109706266Y-60041046D02*
X109753885Y-59993427D01*
X109753885Y-59993427D02*
X109849123Y-59945808D01*
X109849123Y-59945808D02*
X109991980Y-59945808D01*
X109991980Y-59945808D02*
X110087218Y-59993427D01*
X110087218Y-59993427D02*
X110134837Y-60041046D01*
X110134837Y-60041046D02*
X110182456Y-60136284D01*
X110182456Y-60136284D02*
X110182456Y-60421998D01*
X110182456Y-60421998D02*
X110134837Y-60517236D01*
X110134837Y-60517236D02*
X110087218Y-60564856D01*
X110087218Y-60564856D02*
X109991980Y-60612475D01*
X109991980Y-60612475D02*
X109849123Y-60612475D01*
X111039599Y-60612475D02*
X111039599Y-60088665D01*
X111039599Y-60088665D02*
X110991980Y-59993427D01*
X110991980Y-59993427D02*
X110896742Y-59945808D01*
X110896742Y-59945808D02*
X110706266Y-59945808D01*
X110706266Y-59945808D02*
X110611028Y-59993427D01*
X111039599Y-60564856D02*
X110944361Y-60612475D01*
X110944361Y-60612475D02*
X110706266Y-60612475D01*
X110706266Y-60612475D02*
X110611028Y-60564856D01*
X110611028Y-60564856D02*
X110563409Y-60469617D01*
X110563409Y-60469617D02*
X110563409Y-60374379D01*
X110563409Y-60374379D02*
X110611028Y-60279141D01*
X110611028Y-60279141D02*
X110706266Y-60231522D01*
X110706266Y-60231522D02*
X110944361Y-60231522D01*
X110944361Y-60231522D02*
X111039599Y-60183903D01*
X111515790Y-60612475D02*
X111515790Y-59945808D01*
X111515790Y-60136284D02*
X111563409Y-60041046D01*
X111563409Y-60041046D02*
X111611028Y-59993427D01*
X111611028Y-59993427D02*
X111706266Y-59945808D01*
X111706266Y-59945808D02*
X111801504Y-59945808D01*
X112563409Y-60612475D02*
X112563409Y-59612475D01*
X112563409Y-60564856D02*
X112468171Y-60612475D01*
X112468171Y-60612475D02*
X112277695Y-60612475D01*
X112277695Y-60612475D02*
X112182457Y-60564856D01*
X112182457Y-60564856D02*
X112134838Y-60517236D01*
X112134838Y-60517236D02*
X112087219Y-60421998D01*
X112087219Y-60421998D02*
X112087219Y-60136284D01*
X112087219Y-60136284D02*
X112134838Y-60041046D01*
X112134838Y-60041046D02*
X112182457Y-59993427D01*
X112182457Y-59993427D02*
X112277695Y-59945808D01*
X112277695Y-59945808D02*
X112468171Y-59945808D01*
X112468171Y-59945808D02*
X112563409Y-59993427D01*
X100658646Y-61222419D02*
X101277693Y-61222419D01*
X101277693Y-61222419D02*
X100944360Y-61603371D01*
X100944360Y-61603371D02*
X101087217Y-61603371D01*
X101087217Y-61603371D02*
X101182455Y-61650990D01*
X101182455Y-61650990D02*
X101230074Y-61698609D01*
X101230074Y-61698609D02*
X101277693Y-61793847D01*
X101277693Y-61793847D02*
X101277693Y-62031942D01*
X101277693Y-62031942D02*
X101230074Y-62127180D01*
X101230074Y-62127180D02*
X101182455Y-62174800D01*
X101182455Y-62174800D02*
X101087217Y-62222419D01*
X101087217Y-62222419D02*
X100801503Y-62222419D01*
X100801503Y-62222419D02*
X100706265Y-62174800D01*
X100706265Y-62174800D02*
X100658646Y-62127180D01*
X102134836Y-61222419D02*
X101944360Y-61222419D01*
X101944360Y-61222419D02*
X101849122Y-61270038D01*
X101849122Y-61270038D02*
X101801503Y-61317657D01*
X101801503Y-61317657D02*
X101706265Y-61460514D01*
X101706265Y-61460514D02*
X101658646Y-61650990D01*
X101658646Y-61650990D02*
X101658646Y-62031942D01*
X101658646Y-62031942D02*
X101706265Y-62127180D01*
X101706265Y-62127180D02*
X101753884Y-62174800D01*
X101753884Y-62174800D02*
X101849122Y-62222419D01*
X101849122Y-62222419D02*
X102039598Y-62222419D01*
X102039598Y-62222419D02*
X102134836Y-62174800D01*
X102134836Y-62174800D02*
X102182455Y-62127180D01*
X102182455Y-62127180D02*
X102230074Y-62031942D01*
X102230074Y-62031942D02*
X102230074Y-61793847D01*
X102230074Y-61793847D02*
X102182455Y-61698609D01*
X102182455Y-61698609D02*
X102134836Y-61650990D01*
X102134836Y-61650990D02*
X102039598Y-61603371D01*
X102039598Y-61603371D02*
X101849122Y-61603371D01*
X101849122Y-61603371D02*
X101753884Y-61650990D01*
X101753884Y-61650990D02*
X101706265Y-61698609D01*
X101706265Y-61698609D02*
X101658646Y-61793847D01*
X102515789Y-61222419D02*
X102849122Y-62222419D01*
X102849122Y-62222419D02*
X103182455Y-61222419D01*
X104182456Y-61222419D02*
X104801503Y-61222419D01*
X104801503Y-61222419D02*
X104468170Y-61603371D01*
X104468170Y-61603371D02*
X104611027Y-61603371D01*
X104611027Y-61603371D02*
X104706265Y-61650990D01*
X104706265Y-61650990D02*
X104753884Y-61698609D01*
X104753884Y-61698609D02*
X104801503Y-61793847D01*
X104801503Y-61793847D02*
X104801503Y-62031942D01*
X104801503Y-62031942D02*
X104753884Y-62127180D01*
X104753884Y-62127180D02*
X104706265Y-62174800D01*
X104706265Y-62174800D02*
X104611027Y-62222419D01*
X104611027Y-62222419D02*
X104325313Y-62222419D01*
X104325313Y-62222419D02*
X104230075Y-62174800D01*
X104230075Y-62174800D02*
X104182456Y-62127180D01*
X105230075Y-62127180D02*
X105277694Y-62174800D01*
X105277694Y-62174800D02*
X105230075Y-62222419D01*
X105230075Y-62222419D02*
X105182456Y-62174800D01*
X105182456Y-62174800D02*
X105230075Y-62127180D01*
X105230075Y-62127180D02*
X105230075Y-62222419D01*
X106134836Y-61222419D02*
X105944360Y-61222419D01*
X105944360Y-61222419D02*
X105849122Y-61270038D01*
X105849122Y-61270038D02*
X105801503Y-61317657D01*
X105801503Y-61317657D02*
X105706265Y-61460514D01*
X105706265Y-61460514D02*
X105658646Y-61650990D01*
X105658646Y-61650990D02*
X105658646Y-62031942D01*
X105658646Y-62031942D02*
X105706265Y-62127180D01*
X105706265Y-62127180D02*
X105753884Y-62174800D01*
X105753884Y-62174800D02*
X105849122Y-62222419D01*
X105849122Y-62222419D02*
X106039598Y-62222419D01*
X106039598Y-62222419D02*
X106134836Y-62174800D01*
X106134836Y-62174800D02*
X106182455Y-62127180D01*
X106182455Y-62127180D02*
X106230074Y-62031942D01*
X106230074Y-62031942D02*
X106230074Y-61793847D01*
X106230074Y-61793847D02*
X106182455Y-61698609D01*
X106182455Y-61698609D02*
X106134836Y-61650990D01*
X106134836Y-61650990D02*
X106039598Y-61603371D01*
X106039598Y-61603371D02*
X105849122Y-61603371D01*
X105849122Y-61603371D02*
X105753884Y-61650990D01*
X105753884Y-61650990D02*
X105706265Y-61698609D01*
X105706265Y-61698609D02*
X105658646Y-61793847D01*
X106611027Y-61936704D02*
X107087217Y-61936704D01*
X106515789Y-62222419D02*
X106849122Y-61222419D01*
X106849122Y-61222419D02*
X107182455Y-62222419D01*
X105000000Y-95000000D02*
G75*
G02*
X85000000Y-95000000I-10000000J0D01*
G01*
X85000000Y-95000000D02*
G75*
G02*
X105000000Y-95000000I10000000J0D01*
G01*
D11*
X126650000Y-82250000D02*
G75*
G02*
X126350000Y-82250000I-150000J0D01*
G01*
X126350000Y-82250000D02*
G75*
G02*
X126650000Y-82250000I150000J0D01*
G01*
D10*
X122824800Y-78743734D02*
X122872419Y-78600877D01*
X122872419Y-78600877D02*
X122872419Y-78362782D01*
X122872419Y-78362782D02*
X122824800Y-78267544D01*
X122824800Y-78267544D02*
X122777180Y-78219925D01*
X122777180Y-78219925D02*
X122681942Y-78172306D01*
X122681942Y-78172306D02*
X122586704Y-78172306D01*
X122586704Y-78172306D02*
X122491466Y-78219925D01*
X122491466Y-78219925D02*
X122443847Y-78267544D01*
X122443847Y-78267544D02*
X122396228Y-78362782D01*
X122396228Y-78362782D02*
X122348609Y-78553258D01*
X122348609Y-78553258D02*
X122300990Y-78648496D01*
X122300990Y-78648496D02*
X122253371Y-78696115D01*
X122253371Y-78696115D02*
X122158133Y-78743734D01*
X122158133Y-78743734D02*
X122062895Y-78743734D01*
X122062895Y-78743734D02*
X121967657Y-78696115D01*
X121967657Y-78696115D02*
X121920038Y-78648496D01*
X121920038Y-78648496D02*
X121872419Y-78553258D01*
X121872419Y-78553258D02*
X121872419Y-78315163D01*
X121872419Y-78315163D02*
X121920038Y-78172306D01*
X121872419Y-77838972D02*
X122872419Y-77600877D01*
X122872419Y-77600877D02*
X122158133Y-77410401D01*
X122158133Y-77410401D02*
X122872419Y-77219925D01*
X122872419Y-77219925D02*
X121872419Y-76981830D01*
X122872419Y-76600877D02*
X121872419Y-76600877D01*
X121872419Y-76600877D02*
X121872419Y-76362782D01*
X121872419Y-76362782D02*
X121920038Y-76219925D01*
X121920038Y-76219925D02*
X122015276Y-76124687D01*
X122015276Y-76124687D02*
X122110514Y-76077068D01*
X122110514Y-76077068D02*
X122300990Y-76029449D01*
X122300990Y-76029449D02*
X122443847Y-76029449D01*
X122443847Y-76029449D02*
X122634323Y-76077068D01*
X122634323Y-76077068D02*
X122729561Y-76124687D01*
X122729561Y-76124687D02*
X122824800Y-76219925D01*
X122824800Y-76219925D02*
X122872419Y-76362782D01*
X122872419Y-76362782D02*
X122872419Y-76600877D01*
D12*
X103359580Y-77456666D02*
X103407200Y-77504285D01*
X103407200Y-77504285D02*
X103454819Y-77647142D01*
X103454819Y-77647142D02*
X103454819Y-77742380D01*
X103454819Y-77742380D02*
X103407200Y-77885237D01*
X103407200Y-77885237D02*
X103311961Y-77980475D01*
X103311961Y-77980475D02*
X103216723Y-78028094D01*
X103216723Y-78028094D02*
X103026247Y-78075713D01*
X103026247Y-78075713D02*
X102883390Y-78075713D01*
X102883390Y-78075713D02*
X102692914Y-78028094D01*
X102692914Y-78028094D02*
X102597676Y-77980475D01*
X102597676Y-77980475D02*
X102502438Y-77885237D01*
X102502438Y-77885237D02*
X102454819Y-77742380D01*
X102454819Y-77742380D02*
X102454819Y-77647142D01*
X102454819Y-77647142D02*
X102502438Y-77504285D01*
X102502438Y-77504285D02*
X102550057Y-77456666D01*
X102788152Y-76599523D02*
X103454819Y-76599523D01*
X102407200Y-76837618D02*
X103121485Y-77075713D01*
X103121485Y-77075713D02*
X103121485Y-76456666D01*
X118454821Y-96916668D02*
X117978630Y-97250001D01*
X118454821Y-97488096D02*
X117454821Y-97488096D01*
X117454821Y-97488096D02*
X117454821Y-97107144D01*
X117454821Y-97107144D02*
X117502440Y-97011906D01*
X117502440Y-97011906D02*
X117550059Y-96964287D01*
X117550059Y-96964287D02*
X117645297Y-96916668D01*
X117645297Y-96916668D02*
X117788154Y-96916668D01*
X117788154Y-96916668D02*
X117883392Y-96964287D01*
X117883392Y-96964287D02*
X117931011Y-97011906D01*
X117931011Y-97011906D02*
X117978630Y-97107144D01*
X117978630Y-97107144D02*
X117978630Y-97488096D01*
X117550059Y-96535715D02*
X117502440Y-96488096D01*
X117502440Y-96488096D02*
X117454821Y-96392858D01*
X117454821Y-96392858D02*
X117454821Y-96154763D01*
X117454821Y-96154763D02*
X117502440Y-96059525D01*
X117502440Y-96059525D02*
X117550059Y-96011906D01*
X117550059Y-96011906D02*
X117645297Y-95964287D01*
X117645297Y-95964287D02*
X117740535Y-95964287D01*
X117740535Y-95964287D02*
X117883392Y-96011906D01*
X117883392Y-96011906D02*
X118454821Y-96583334D01*
X118454821Y-96583334D02*
X118454821Y-95964287D01*
X119954821Y-63333335D02*
X120669106Y-63333335D01*
X120669106Y-63333335D02*
X120811963Y-63380954D01*
X120811963Y-63380954D02*
X120907202Y-63476192D01*
X120907202Y-63476192D02*
X120954821Y-63619049D01*
X120954821Y-63619049D02*
X120954821Y-63714287D01*
X120383392Y-62714287D02*
X120335773Y-62809525D01*
X120335773Y-62809525D02*
X120288154Y-62857144D01*
X120288154Y-62857144D02*
X120192916Y-62904763D01*
X120192916Y-62904763D02*
X120145297Y-62904763D01*
X120145297Y-62904763D02*
X120050059Y-62857144D01*
X120050059Y-62857144D02*
X120002440Y-62809525D01*
X120002440Y-62809525D02*
X119954821Y-62714287D01*
X119954821Y-62714287D02*
X119954821Y-62523811D01*
X119954821Y-62523811D02*
X120002440Y-62428573D01*
X120002440Y-62428573D02*
X120050059Y-62380954D01*
X120050059Y-62380954D02*
X120145297Y-62333335D01*
X120145297Y-62333335D02*
X120192916Y-62333335D01*
X120192916Y-62333335D02*
X120288154Y-62380954D01*
X120288154Y-62380954D02*
X120335773Y-62428573D01*
X120335773Y-62428573D02*
X120383392Y-62523811D01*
X120383392Y-62523811D02*
X120383392Y-62714287D01*
X120383392Y-62714287D02*
X120431011Y-62809525D01*
X120431011Y-62809525D02*
X120478630Y-62857144D01*
X120478630Y-62857144D02*
X120573868Y-62904763D01*
X120573868Y-62904763D02*
X120764344Y-62904763D01*
X120764344Y-62904763D02*
X120859582Y-62857144D01*
X120859582Y-62857144D02*
X120907202Y-62809525D01*
X120907202Y-62809525D02*
X120954821Y-62714287D01*
X120954821Y-62714287D02*
X120954821Y-62523811D01*
X120954821Y-62523811D02*
X120907202Y-62428573D01*
X120907202Y-62428573D02*
X120859582Y-62380954D01*
X120859582Y-62380954D02*
X120764344Y-62333335D01*
X120764344Y-62333335D02*
X120573868Y-62333335D01*
X120573868Y-62333335D02*
X120478630Y-62380954D01*
X120478630Y-62380954D02*
X120431011Y-62428573D01*
X120431011Y-62428573D02*
X120383392Y-62523811D01*
X112034819Y-73916666D02*
X111558628Y-74249999D01*
X112034819Y-74488094D02*
X111034819Y-74488094D01*
X111034819Y-74488094D02*
X111034819Y-74107142D01*
X111034819Y-74107142D02*
X111082438Y-74011904D01*
X111082438Y-74011904D02*
X111130057Y-73964285D01*
X111130057Y-73964285D02*
X111225295Y-73916666D01*
X111225295Y-73916666D02*
X111368152Y-73916666D01*
X111368152Y-73916666D02*
X111463390Y-73964285D01*
X111463390Y-73964285D02*
X111511009Y-74011904D01*
X111511009Y-74011904D02*
X111558628Y-74107142D01*
X111558628Y-74107142D02*
X111558628Y-74488094D01*
X111034819Y-73583332D02*
X111034819Y-72964285D01*
X111034819Y-72964285D02*
X111415771Y-73297618D01*
X111415771Y-73297618D02*
X111415771Y-73154761D01*
X111415771Y-73154761D02*
X111463390Y-73059523D01*
X111463390Y-73059523D02*
X111511009Y-73011904D01*
X111511009Y-73011904D02*
X111606247Y-72964285D01*
X111606247Y-72964285D02*
X111844342Y-72964285D01*
X111844342Y-72964285D02*
X111939580Y-73011904D01*
X111939580Y-73011904D02*
X111987200Y-73059523D01*
X111987200Y-73059523D02*
X112034819Y-73154761D01*
X112034819Y-73154761D02*
X112034819Y-73440475D01*
X112034819Y-73440475D02*
X111987200Y-73535713D01*
X111987200Y-73535713D02*
X111939580Y-73583332D01*
X95472080Y-69296668D02*
X95519700Y-69344287D01*
X95519700Y-69344287D02*
X95567319Y-69487144D01*
X95567319Y-69487144D02*
X95567319Y-69582382D01*
X95567319Y-69582382D02*
X95519700Y-69725239D01*
X95519700Y-69725239D02*
X95424461Y-69820477D01*
X95424461Y-69820477D02*
X95329223Y-69868096D01*
X95329223Y-69868096D02*
X95138747Y-69915715D01*
X95138747Y-69915715D02*
X94995890Y-69915715D01*
X94995890Y-69915715D02*
X94805414Y-69868096D01*
X94805414Y-69868096D02*
X94710176Y-69820477D01*
X94710176Y-69820477D02*
X94614938Y-69725239D01*
X94614938Y-69725239D02*
X94567319Y-69582382D01*
X94567319Y-69582382D02*
X94567319Y-69487144D01*
X94567319Y-69487144D02*
X94614938Y-69344287D01*
X94614938Y-69344287D02*
X94662557Y-69296668D01*
X94567319Y-68391906D02*
X94567319Y-68868096D01*
X94567319Y-68868096D02*
X95043509Y-68915715D01*
X95043509Y-68915715D02*
X94995890Y-68868096D01*
X94995890Y-68868096D02*
X94948271Y-68772858D01*
X94948271Y-68772858D02*
X94948271Y-68534763D01*
X94948271Y-68534763D02*
X94995890Y-68439525D01*
X94995890Y-68439525D02*
X95043509Y-68391906D01*
X95043509Y-68391906D02*
X95138747Y-68344287D01*
X95138747Y-68344287D02*
X95376842Y-68344287D01*
X95376842Y-68344287D02*
X95472080Y-68391906D01*
X95472080Y-68391906D02*
X95519700Y-68439525D01*
X95519700Y-68439525D02*
X95567319Y-68534763D01*
X95567319Y-68534763D02*
X95567319Y-68772858D01*
X95567319Y-68772858D02*
X95519700Y-68868096D01*
X95519700Y-68868096D02*
X95472080Y-68915715D01*
X86190476Y-77664819D02*
X86190476Y-78379104D01*
X86190476Y-78379104D02*
X86142857Y-78521961D01*
X86142857Y-78521961D02*
X86047619Y-78617200D01*
X86047619Y-78617200D02*
X85904762Y-78664819D01*
X85904762Y-78664819D02*
X85809524Y-78664819D01*
X87190476Y-78664819D02*
X86619048Y-78664819D01*
X86904762Y-78664819D02*
X86904762Y-77664819D01*
X86904762Y-77664819D02*
X86809524Y-77807676D01*
X86809524Y-77807676D02*
X86714286Y-77902914D01*
X86714286Y-77902914D02*
X86619048Y-77950533D01*
X87809524Y-77664819D02*
X87904762Y-77664819D01*
X87904762Y-77664819D02*
X88000000Y-77712438D01*
X88000000Y-77712438D02*
X88047619Y-77760057D01*
X88047619Y-77760057D02*
X88095238Y-77855295D01*
X88095238Y-77855295D02*
X88142857Y-78045771D01*
X88142857Y-78045771D02*
X88142857Y-78283866D01*
X88142857Y-78283866D02*
X88095238Y-78474342D01*
X88095238Y-78474342D02*
X88047619Y-78569580D01*
X88047619Y-78569580D02*
X88000000Y-78617200D01*
X88000000Y-78617200D02*
X87904762Y-78664819D01*
X87904762Y-78664819D02*
X87809524Y-78664819D01*
X87809524Y-78664819D02*
X87714286Y-78617200D01*
X87714286Y-78617200D02*
X87666667Y-78569580D01*
X87666667Y-78569580D02*
X87619048Y-78474342D01*
X87619048Y-78474342D02*
X87571429Y-78283866D01*
X87571429Y-78283866D02*
X87571429Y-78045771D01*
X87571429Y-78045771D02*
X87619048Y-77855295D01*
X87619048Y-77855295D02*
X87666667Y-77760057D01*
X87666667Y-77760057D02*
X87714286Y-77712438D01*
X87714286Y-77712438D02*
X87809524Y-77664819D01*
X110416668Y-103454819D02*
X110416668Y-104169104D01*
X110416668Y-104169104D02*
X110369049Y-104311961D01*
X110369049Y-104311961D02*
X110273811Y-104407200D01*
X110273811Y-104407200D02*
X110130954Y-104454819D01*
X110130954Y-104454819D02*
X110035716Y-104454819D01*
X111321430Y-103788152D02*
X111321430Y-104454819D01*
X111083335Y-103407200D02*
X110845240Y-104121485D01*
X110845240Y-104121485D02*
X111464287Y-104121485D01*
X116678571Y-100114700D02*
X117821429Y-100114700D01*
X103678571Y-100114697D02*
X104821429Y-100114697D01*
X104250000Y-100686125D02*
X104250000Y-99543268D01*
X90988095Y-94454819D02*
X90988095Y-95264342D01*
X90988095Y-95264342D02*
X91035714Y-95359580D01*
X91035714Y-95359580D02*
X91083333Y-95407200D01*
X91083333Y-95407200D02*
X91178571Y-95454819D01*
X91178571Y-95454819D02*
X91369047Y-95454819D01*
X91369047Y-95454819D02*
X91464285Y-95407200D01*
X91464285Y-95407200D02*
X91511904Y-95359580D01*
X91511904Y-95359580D02*
X91559523Y-95264342D01*
X91559523Y-95264342D02*
X91559523Y-94454819D01*
X92464285Y-94788152D02*
X92464285Y-95454819D01*
X92226190Y-94407200D02*
X91988095Y-95121485D01*
X91988095Y-95121485D02*
X92607142Y-95121485D01*
X86190476Y-73914819D02*
X86190476Y-74629104D01*
X86190476Y-74629104D02*
X86142857Y-74771961D01*
X86142857Y-74771961D02*
X86047619Y-74867200D01*
X86047619Y-74867200D02*
X85904762Y-74914819D01*
X85904762Y-74914819D02*
X85809524Y-74914819D01*
X87190476Y-74914819D02*
X86619048Y-74914819D01*
X86904762Y-74914819D02*
X86904762Y-73914819D01*
X86904762Y-73914819D02*
X86809524Y-74057676D01*
X86809524Y-74057676D02*
X86714286Y-74152914D01*
X86714286Y-74152914D02*
X86619048Y-74200533D01*
X88142857Y-74914819D02*
X87571429Y-74914819D01*
X87857143Y-74914819D02*
X87857143Y-73914819D01*
X87857143Y-73914819D02*
X87761905Y-74057676D01*
X87761905Y-74057676D02*
X87666667Y-74152914D01*
X87666667Y-74152914D02*
X87571429Y-74200533D01*
X111988096Y-89304822D02*
X111988096Y-90114345D01*
X111988096Y-90114345D02*
X112035715Y-90209583D01*
X112035715Y-90209583D02*
X112083334Y-90257203D01*
X112083334Y-90257203D02*
X112178572Y-90304822D01*
X112178572Y-90304822D02*
X112369048Y-90304822D01*
X112369048Y-90304822D02*
X112464286Y-90257203D01*
X112464286Y-90257203D02*
X112511905Y-90209583D01*
X112511905Y-90209583D02*
X112559524Y-90114345D01*
X112559524Y-90114345D02*
X112559524Y-89304822D01*
X113511905Y-89304822D02*
X113035715Y-89304822D01*
X113035715Y-89304822D02*
X112988096Y-89781012D01*
X112988096Y-89781012D02*
X113035715Y-89733393D01*
X113035715Y-89733393D02*
X113130953Y-89685774D01*
X113130953Y-89685774D02*
X113369048Y-89685774D01*
X113369048Y-89685774D02*
X113464286Y-89733393D01*
X113464286Y-89733393D02*
X113511905Y-89781012D01*
X113511905Y-89781012D02*
X113559524Y-89876250D01*
X113559524Y-89876250D02*
X113559524Y-90114345D01*
X113559524Y-90114345D02*
X113511905Y-90209583D01*
X113511905Y-90209583D02*
X113464286Y-90257203D01*
X113464286Y-90257203D02*
X113369048Y-90304822D01*
X113369048Y-90304822D02*
X113130953Y-90304822D01*
X113130953Y-90304822D02*
X113035715Y-90257203D01*
X113035715Y-90257203D02*
X112988096Y-90209583D01*
X86190476Y-81259819D02*
X86190476Y-81974104D01*
X86190476Y-81974104D02*
X86142857Y-82116961D01*
X86142857Y-82116961D02*
X86047619Y-82212200D01*
X86047619Y-82212200D02*
X85904762Y-82259819D01*
X85904762Y-82259819D02*
X85809524Y-82259819D01*
X87190476Y-82259819D02*
X86619048Y-82259819D01*
X86904762Y-82259819D02*
X86904762Y-81259819D01*
X86904762Y-81259819D02*
X86809524Y-81402676D01*
X86809524Y-81402676D02*
X86714286Y-81497914D01*
X86714286Y-81497914D02*
X86619048Y-81545533D01*
X87523810Y-81259819D02*
X88190476Y-81259819D01*
X88190476Y-81259819D02*
X87761905Y-82259819D01*
X89429581Y-81392858D02*
X89477201Y-81440477D01*
X89477201Y-81440477D02*
X89524820Y-81583334D01*
X89524820Y-81583334D02*
X89524820Y-81678572D01*
X89524820Y-81678572D02*
X89477201Y-81821429D01*
X89477201Y-81821429D02*
X89381962Y-81916667D01*
X89381962Y-81916667D02*
X89286724Y-81964286D01*
X89286724Y-81964286D02*
X89096248Y-82011905D01*
X89096248Y-82011905D02*
X88953391Y-82011905D01*
X88953391Y-82011905D02*
X88762915Y-81964286D01*
X88762915Y-81964286D02*
X88667677Y-81916667D01*
X88667677Y-81916667D02*
X88572439Y-81821429D01*
X88572439Y-81821429D02*
X88524820Y-81678572D01*
X88524820Y-81678572D02*
X88524820Y-81583334D01*
X88524820Y-81583334D02*
X88572439Y-81440477D01*
X88572439Y-81440477D02*
X88620058Y-81392858D01*
X89524820Y-80440477D02*
X89524820Y-81011905D01*
X89524820Y-80726191D02*
X88524820Y-80726191D01*
X88524820Y-80726191D02*
X88667677Y-80821429D01*
X88667677Y-80821429D02*
X88762915Y-80916667D01*
X88762915Y-80916667D02*
X88810534Y-81011905D01*
X89524820Y-79488096D02*
X89524820Y-80059524D01*
X89524820Y-79773810D02*
X88524820Y-79773810D01*
X88524820Y-79773810D02*
X88667677Y-79869048D01*
X88667677Y-79869048D02*
X88762915Y-79964286D01*
X88762915Y-79964286D02*
X88810534Y-80059524D01*
X108416666Y-69124819D02*
X108416666Y-69839104D01*
X108416666Y-69839104D02*
X108369047Y-69981961D01*
X108369047Y-69981961D02*
X108273809Y-70077200D01*
X108273809Y-70077200D02*
X108130952Y-70124819D01*
X108130952Y-70124819D02*
X108035714Y-70124819D01*
X108845238Y-69220057D02*
X108892857Y-69172438D01*
X108892857Y-69172438D02*
X108988095Y-69124819D01*
X108988095Y-69124819D02*
X109226190Y-69124819D01*
X109226190Y-69124819D02*
X109321428Y-69172438D01*
X109321428Y-69172438D02*
X109369047Y-69220057D01*
X109369047Y-69220057D02*
X109416666Y-69315295D01*
X109416666Y-69315295D02*
X109416666Y-69410533D01*
X109416666Y-69410533D02*
X109369047Y-69553390D01*
X109369047Y-69553390D02*
X108797619Y-70124819D01*
X108797619Y-70124819D02*
X109416666Y-70124819D01*
X117204819Y-89833332D02*
X117919104Y-89833332D01*
X117919104Y-89833332D02*
X118061961Y-89880951D01*
X118061961Y-89880951D02*
X118157200Y-89976189D01*
X118157200Y-89976189D02*
X118204819Y-90119046D01*
X118204819Y-90119046D02*
X118204819Y-90214284D01*
X118204819Y-89357141D02*
X117204819Y-89357141D01*
X117204819Y-89357141D02*
X117204819Y-88976189D01*
X117204819Y-88976189D02*
X117252438Y-88880951D01*
X117252438Y-88880951D02*
X117300057Y-88833332D01*
X117300057Y-88833332D02*
X117395295Y-88785713D01*
X117395295Y-88785713D02*
X117538152Y-88785713D01*
X117538152Y-88785713D02*
X117633390Y-88833332D01*
X117633390Y-88833332D02*
X117681009Y-88880951D01*
X117681009Y-88880951D02*
X117728628Y-88976189D01*
X117728628Y-88976189D02*
X117728628Y-89357141D01*
X118204819Y-87833332D02*
X118204819Y-88404760D01*
X118204819Y-88119046D02*
X117204819Y-88119046D01*
X117204819Y-88119046D02*
X117347676Y-88214284D01*
X117347676Y-88214284D02*
X117442914Y-88309522D01*
X117442914Y-88309522D02*
X117490533Y-88404760D01*
X96690476Y-63509820D02*
X96690476Y-64224105D01*
X96690476Y-64224105D02*
X96642857Y-64366962D01*
X96642857Y-64366962D02*
X96547619Y-64462201D01*
X96547619Y-64462201D02*
X96404762Y-64509820D01*
X96404762Y-64509820D02*
X96309524Y-64509820D01*
X97690476Y-64509820D02*
X97119048Y-64509820D01*
X97404762Y-64509820D02*
X97404762Y-63509820D01*
X97404762Y-63509820D02*
X97309524Y-63652677D01*
X97309524Y-63652677D02*
X97214286Y-63747915D01*
X97214286Y-63747915D02*
X97119048Y-63795534D01*
X98547619Y-63509820D02*
X98357143Y-63509820D01*
X98357143Y-63509820D02*
X98261905Y-63557439D01*
X98261905Y-63557439D02*
X98214286Y-63605058D01*
X98214286Y-63605058D02*
X98119048Y-63747915D01*
X98119048Y-63747915D02*
X98071429Y-63938391D01*
X98071429Y-63938391D02*
X98071429Y-64319343D01*
X98071429Y-64319343D02*
X98119048Y-64414581D01*
X98119048Y-64414581D02*
X98166667Y-64462201D01*
X98166667Y-64462201D02*
X98261905Y-64509820D01*
X98261905Y-64509820D02*
X98452381Y-64509820D01*
X98452381Y-64509820D02*
X98547619Y-64462201D01*
X98547619Y-64462201D02*
X98595238Y-64414581D01*
X98595238Y-64414581D02*
X98642857Y-64319343D01*
X98642857Y-64319343D02*
X98642857Y-64081248D01*
X98642857Y-64081248D02*
X98595238Y-63986010D01*
X98595238Y-63986010D02*
X98547619Y-63938391D01*
X98547619Y-63938391D02*
X98452381Y-63890772D01*
X98452381Y-63890772D02*
X98261905Y-63890772D01*
X98261905Y-63890772D02*
X98166667Y-63938391D01*
X98166667Y-63938391D02*
X98119048Y-63986010D01*
X98119048Y-63986010D02*
X98071429Y-64081248D01*
X91549579Y-73896666D02*
X91597199Y-73944285D01*
X91597199Y-73944285D02*
X91644818Y-74087142D01*
X91644818Y-74087142D02*
X91644818Y-74182380D01*
X91644818Y-74182380D02*
X91597199Y-74325237D01*
X91597199Y-74325237D02*
X91501960Y-74420475D01*
X91501960Y-74420475D02*
X91406722Y-74468094D01*
X91406722Y-74468094D02*
X91216246Y-74515713D01*
X91216246Y-74515713D02*
X91073389Y-74515713D01*
X91073389Y-74515713D02*
X90882913Y-74468094D01*
X90882913Y-74468094D02*
X90787675Y-74420475D01*
X90787675Y-74420475D02*
X90692437Y-74325237D01*
X90692437Y-74325237D02*
X90644818Y-74182380D01*
X90644818Y-74182380D02*
X90644818Y-74087142D01*
X90644818Y-74087142D02*
X90692437Y-73944285D01*
X90692437Y-73944285D02*
X90740056Y-73896666D01*
X90644818Y-73039523D02*
X90644818Y-73229999D01*
X90644818Y-73229999D02*
X90692437Y-73325237D01*
X90692437Y-73325237D02*
X90740056Y-73372856D01*
X90740056Y-73372856D02*
X90882913Y-73468094D01*
X90882913Y-73468094D02*
X91073389Y-73515713D01*
X91073389Y-73515713D02*
X91454341Y-73515713D01*
X91454341Y-73515713D02*
X91549579Y-73468094D01*
X91549579Y-73468094D02*
X91597199Y-73420475D01*
X91597199Y-73420475D02*
X91644818Y-73325237D01*
X91644818Y-73325237D02*
X91644818Y-73134761D01*
X91644818Y-73134761D02*
X91597199Y-73039523D01*
X91597199Y-73039523D02*
X91549579Y-72991904D01*
X91549579Y-72991904D02*
X91454341Y-72944285D01*
X91454341Y-72944285D02*
X91216246Y-72944285D01*
X91216246Y-72944285D02*
X91121008Y-72991904D01*
X91121008Y-72991904D02*
X91073389Y-73039523D01*
X91073389Y-73039523D02*
X91025770Y-73134761D01*
X91025770Y-73134761D02*
X91025770Y-73325237D01*
X91025770Y-73325237D02*
X91073389Y-73420475D01*
X91073389Y-73420475D02*
X91121008Y-73468094D01*
X91121008Y-73468094D02*
X91216246Y-73515713D01*
X109238095Y-73574819D02*
X109238095Y-74384342D01*
X109238095Y-74384342D02*
X109285714Y-74479580D01*
X109285714Y-74479580D02*
X109333333Y-74527200D01*
X109333333Y-74527200D02*
X109428571Y-74574819D01*
X109428571Y-74574819D02*
X109619047Y-74574819D01*
X109619047Y-74574819D02*
X109714285Y-74527200D01*
X109714285Y-74527200D02*
X109761904Y-74479580D01*
X109761904Y-74479580D02*
X109809523Y-74384342D01*
X109809523Y-74384342D02*
X109809523Y-73574819D01*
X110190476Y-73574819D02*
X110857142Y-73574819D01*
X110857142Y-73574819D02*
X110428571Y-74574819D01*
D13*
X94010237Y-78574318D02*
X94010237Y-77304318D01*
X95340714Y-78453365D02*
X95280238Y-78513842D01*
X95280238Y-78513842D02*
X95098809Y-78574318D01*
X95098809Y-78574318D02*
X94977857Y-78574318D01*
X94977857Y-78574318D02*
X94796428Y-78513842D01*
X94796428Y-78513842D02*
X94675476Y-78392889D01*
X94675476Y-78392889D02*
X94614999Y-78271937D01*
X94614999Y-78271937D02*
X94554523Y-78030032D01*
X94554523Y-78030032D02*
X94554523Y-77848603D01*
X94554523Y-77848603D02*
X94614999Y-77606699D01*
X94614999Y-77606699D02*
X94675476Y-77485746D01*
X94675476Y-77485746D02*
X94796428Y-77364794D01*
X94796428Y-77364794D02*
X94977857Y-77304318D01*
X94977857Y-77304318D02*
X95098809Y-77304318D01*
X95098809Y-77304318D02*
X95280238Y-77364794D01*
X95280238Y-77364794D02*
X95340714Y-77425270D01*
X96550238Y-78574318D02*
X95824523Y-78574318D01*
X96187380Y-78574318D02*
X96187380Y-77304318D01*
X96187380Y-77304318D02*
X96066428Y-77485746D01*
X96066428Y-77485746D02*
X95945476Y-77606699D01*
X95945476Y-77606699D02*
X95824523Y-77667175D01*
D12*
X99440476Y-84954819D02*
X99440476Y-85669104D01*
X99440476Y-85669104D02*
X99392857Y-85811961D01*
X99392857Y-85811961D02*
X99297619Y-85907200D01*
X99297619Y-85907200D02*
X99154762Y-85954819D01*
X99154762Y-85954819D02*
X99059524Y-85954819D01*
X100440476Y-85954819D02*
X99869048Y-85954819D01*
X100154762Y-85954819D02*
X100154762Y-84954819D01*
X100154762Y-84954819D02*
X100059524Y-85097676D01*
X100059524Y-85097676D02*
X99964286Y-85192914D01*
X99964286Y-85192914D02*
X99869048Y-85240533D01*
X100821429Y-85050057D02*
X100869048Y-85002438D01*
X100869048Y-85002438D02*
X100964286Y-84954819D01*
X100964286Y-84954819D02*
X101202381Y-84954819D01*
X101202381Y-84954819D02*
X101297619Y-85002438D01*
X101297619Y-85002438D02*
X101345238Y-85050057D01*
X101345238Y-85050057D02*
X101392857Y-85145295D01*
X101392857Y-85145295D02*
X101392857Y-85240533D01*
X101392857Y-85240533D02*
X101345238Y-85383390D01*
X101345238Y-85383390D02*
X100773810Y-85954819D01*
X100773810Y-85954819D02*
X101392857Y-85954819D01*
X104166666Y-65374819D02*
X104166666Y-66089104D01*
X104166666Y-66089104D02*
X104119047Y-66231961D01*
X104119047Y-66231961D02*
X104023809Y-66327200D01*
X104023809Y-66327200D02*
X103880952Y-66374819D01*
X103880952Y-66374819D02*
X103785714Y-66374819D01*
X104547619Y-65374819D02*
X105214285Y-65374819D01*
X105214285Y-65374819D02*
X104785714Y-66374819D01*
X92600595Y-68834825D02*
X92600595Y-69644348D01*
X92600595Y-69644348D02*
X92648214Y-69739586D01*
X92648214Y-69739586D02*
X92695833Y-69787206D01*
X92695833Y-69787206D02*
X92791071Y-69834825D01*
X92791071Y-69834825D02*
X92981547Y-69834825D01*
X92981547Y-69834825D02*
X93076785Y-69787206D01*
X93076785Y-69787206D02*
X93124404Y-69739586D01*
X93124404Y-69739586D02*
X93172023Y-69644348D01*
X93172023Y-69644348D02*
X93172023Y-68834825D01*
X93600595Y-68930063D02*
X93648214Y-68882444D01*
X93648214Y-68882444D02*
X93743452Y-68834825D01*
X93743452Y-68834825D02*
X93981547Y-68834825D01*
X93981547Y-68834825D02*
X94076785Y-68882444D01*
X94076785Y-68882444D02*
X94124404Y-68930063D01*
X94124404Y-68930063D02*
X94172023Y-69025301D01*
X94172023Y-69025301D02*
X94172023Y-69120539D01*
X94172023Y-69120539D02*
X94124404Y-69263396D01*
X94124404Y-69263396D02*
X93552976Y-69834825D01*
X93552976Y-69834825D02*
X94172023Y-69834825D01*
X92833333Y-84359580D02*
X92785714Y-84407200D01*
X92785714Y-84407200D02*
X92642857Y-84454819D01*
X92642857Y-84454819D02*
X92547619Y-84454819D01*
X92547619Y-84454819D02*
X92404762Y-84407200D01*
X92404762Y-84407200D02*
X92309524Y-84311961D01*
X92309524Y-84311961D02*
X92261905Y-84216723D01*
X92261905Y-84216723D02*
X92214286Y-84026247D01*
X92214286Y-84026247D02*
X92214286Y-83883390D01*
X92214286Y-83883390D02*
X92261905Y-83692914D01*
X92261905Y-83692914D02*
X92309524Y-83597676D01*
X92309524Y-83597676D02*
X92404762Y-83502438D01*
X92404762Y-83502438D02*
X92547619Y-83454819D01*
X92547619Y-83454819D02*
X92642857Y-83454819D01*
X92642857Y-83454819D02*
X92785714Y-83502438D01*
X92785714Y-83502438D02*
X92833333Y-83550057D01*
X93166667Y-83454819D02*
X93833333Y-83454819D01*
X93833333Y-83454819D02*
X93404762Y-84454819D01*
X96083333Y-91609580D02*
X96035714Y-91657200D01*
X96035714Y-91657200D02*
X95892857Y-91704819D01*
X95892857Y-91704819D02*
X95797619Y-91704819D01*
X95797619Y-91704819D02*
X95654762Y-91657200D01*
X95654762Y-91657200D02*
X95559524Y-91561961D01*
X95559524Y-91561961D02*
X95511905Y-91466723D01*
X95511905Y-91466723D02*
X95464286Y-91276247D01*
X95464286Y-91276247D02*
X95464286Y-91133390D01*
X95464286Y-91133390D02*
X95511905Y-90942914D01*
X95511905Y-90942914D02*
X95559524Y-90847676D01*
X95559524Y-90847676D02*
X95654762Y-90752438D01*
X95654762Y-90752438D02*
X95797619Y-90704819D01*
X95797619Y-90704819D02*
X95892857Y-90704819D01*
X95892857Y-90704819D02*
X96035714Y-90752438D01*
X96035714Y-90752438D02*
X96083333Y-90800057D01*
X96559524Y-91704819D02*
X96750000Y-91704819D01*
X96750000Y-91704819D02*
X96845238Y-91657200D01*
X96845238Y-91657200D02*
X96892857Y-91609580D01*
X96892857Y-91609580D02*
X96988095Y-91466723D01*
X96988095Y-91466723D02*
X97035714Y-91276247D01*
X97035714Y-91276247D02*
X97035714Y-90895295D01*
X97035714Y-90895295D02*
X96988095Y-90800057D01*
X96988095Y-90800057D02*
X96940476Y-90752438D01*
X96940476Y-90752438D02*
X96845238Y-90704819D01*
X96845238Y-90704819D02*
X96654762Y-90704819D01*
X96654762Y-90704819D02*
X96559524Y-90752438D01*
X96559524Y-90752438D02*
X96511905Y-90800057D01*
X96511905Y-90800057D02*
X96464286Y-90895295D01*
X96464286Y-90895295D02*
X96464286Y-91133390D01*
X96464286Y-91133390D02*
X96511905Y-91228628D01*
X96511905Y-91228628D02*
X96559524Y-91276247D01*
X96559524Y-91276247D02*
X96654762Y-91323866D01*
X96654762Y-91323866D02*
X96845238Y-91323866D01*
X96845238Y-91323866D02*
X96940476Y-91276247D01*
X96940476Y-91276247D02*
X96988095Y-91228628D01*
X96988095Y-91228628D02*
X97035714Y-91133390D01*
X109454819Y-86666666D02*
X108978628Y-86999999D01*
X109454819Y-87238094D02*
X108454819Y-87238094D01*
X108454819Y-87238094D02*
X108454819Y-86857142D01*
X108454819Y-86857142D02*
X108502438Y-86761904D01*
X108502438Y-86761904D02*
X108550057Y-86714285D01*
X108550057Y-86714285D02*
X108645295Y-86666666D01*
X108645295Y-86666666D02*
X108788152Y-86666666D01*
X108788152Y-86666666D02*
X108883390Y-86714285D01*
X108883390Y-86714285D02*
X108931009Y-86761904D01*
X108931009Y-86761904D02*
X108978628Y-86857142D01*
X108978628Y-86857142D02*
X108978628Y-87238094D01*
X109454819Y-85714285D02*
X109454819Y-86285713D01*
X109454819Y-85999999D02*
X108454819Y-85999999D01*
X108454819Y-85999999D02*
X108597676Y-86095237D01*
X108597676Y-86095237D02*
X108692914Y-86190475D01*
X108692914Y-86190475D02*
X108740533Y-86285713D01*
X92440476Y-67454820D02*
X92440476Y-68169105D01*
X92440476Y-68169105D02*
X92392857Y-68311962D01*
X92392857Y-68311962D02*
X92297619Y-68407201D01*
X92297619Y-68407201D02*
X92154762Y-68454820D01*
X92154762Y-68454820D02*
X92059524Y-68454820D01*
X93440476Y-68454820D02*
X92869048Y-68454820D01*
X93154762Y-68454820D02*
X93154762Y-67454820D01*
X93154762Y-67454820D02*
X93059524Y-67597677D01*
X93059524Y-67597677D02*
X92964286Y-67692915D01*
X92964286Y-67692915D02*
X92869048Y-67740534D01*
X93773810Y-67454820D02*
X94392857Y-67454820D01*
X94392857Y-67454820D02*
X94059524Y-67835772D01*
X94059524Y-67835772D02*
X94202381Y-67835772D01*
X94202381Y-67835772D02*
X94297619Y-67883391D01*
X94297619Y-67883391D02*
X94345238Y-67931010D01*
X94345238Y-67931010D02*
X94392857Y-68026248D01*
X94392857Y-68026248D02*
X94392857Y-68264343D01*
X94392857Y-68264343D02*
X94345238Y-68359581D01*
X94345238Y-68359581D02*
X94297619Y-68407201D01*
X94297619Y-68407201D02*
X94202381Y-68454820D01*
X94202381Y-68454820D02*
X93916667Y-68454820D01*
X93916667Y-68454820D02*
X93821429Y-68407201D01*
X93821429Y-68407201D02*
X93773810Y-68359581D01*
X102079583Y-77456665D02*
X102127203Y-77504284D01*
X102127203Y-77504284D02*
X102174822Y-77647141D01*
X102174822Y-77647141D02*
X102174822Y-77742379D01*
X102174822Y-77742379D02*
X102127203Y-77885236D01*
X102127203Y-77885236D02*
X102031964Y-77980474D01*
X102031964Y-77980474D02*
X101936726Y-78028093D01*
X101936726Y-78028093D02*
X101746250Y-78075712D01*
X101746250Y-78075712D02*
X101603393Y-78075712D01*
X101603393Y-78075712D02*
X101412917Y-78028093D01*
X101412917Y-78028093D02*
X101317679Y-77980474D01*
X101317679Y-77980474D02*
X101222441Y-77885236D01*
X101222441Y-77885236D02*
X101174822Y-77742379D01*
X101174822Y-77742379D02*
X101174822Y-77647141D01*
X101174822Y-77647141D02*
X101222441Y-77504284D01*
X101222441Y-77504284D02*
X101270060Y-77456665D01*
X101174822Y-77123331D02*
X101174822Y-76504284D01*
X101174822Y-76504284D02*
X101555774Y-76837617D01*
X101555774Y-76837617D02*
X101555774Y-76694760D01*
X101555774Y-76694760D02*
X101603393Y-76599522D01*
X101603393Y-76599522D02*
X101651012Y-76551903D01*
X101651012Y-76551903D02*
X101746250Y-76504284D01*
X101746250Y-76504284D02*
X101984345Y-76504284D01*
X101984345Y-76504284D02*
X102079583Y-76551903D01*
X102079583Y-76551903D02*
X102127203Y-76599522D01*
X102127203Y-76599522D02*
X102174822Y-76694760D01*
X102174822Y-76694760D02*
X102174822Y-76980474D01*
X102174822Y-76980474D02*
X102127203Y-77075712D01*
X102127203Y-77075712D02*
X102079583Y-77123331D01*
X93833333Y-81859580D02*
X93785714Y-81907200D01*
X93785714Y-81907200D02*
X93642857Y-81954819D01*
X93642857Y-81954819D02*
X93547619Y-81954819D01*
X93547619Y-81954819D02*
X93404762Y-81907200D01*
X93404762Y-81907200D02*
X93309524Y-81811961D01*
X93309524Y-81811961D02*
X93261905Y-81716723D01*
X93261905Y-81716723D02*
X93214286Y-81526247D01*
X93214286Y-81526247D02*
X93214286Y-81383390D01*
X93214286Y-81383390D02*
X93261905Y-81192914D01*
X93261905Y-81192914D02*
X93309524Y-81097676D01*
X93309524Y-81097676D02*
X93404762Y-81002438D01*
X93404762Y-81002438D02*
X93547619Y-80954819D01*
X93547619Y-80954819D02*
X93642857Y-80954819D01*
X93642857Y-80954819D02*
X93785714Y-81002438D01*
X93785714Y-81002438D02*
X93833333Y-81050057D01*
X94404762Y-81383390D02*
X94309524Y-81335771D01*
X94309524Y-81335771D02*
X94261905Y-81288152D01*
X94261905Y-81288152D02*
X94214286Y-81192914D01*
X94214286Y-81192914D02*
X94214286Y-81145295D01*
X94214286Y-81145295D02*
X94261905Y-81050057D01*
X94261905Y-81050057D02*
X94309524Y-81002438D01*
X94309524Y-81002438D02*
X94404762Y-80954819D01*
X94404762Y-80954819D02*
X94595238Y-80954819D01*
X94595238Y-80954819D02*
X94690476Y-81002438D01*
X94690476Y-81002438D02*
X94738095Y-81050057D01*
X94738095Y-81050057D02*
X94785714Y-81145295D01*
X94785714Y-81145295D02*
X94785714Y-81192914D01*
X94785714Y-81192914D02*
X94738095Y-81288152D01*
X94738095Y-81288152D02*
X94690476Y-81335771D01*
X94690476Y-81335771D02*
X94595238Y-81383390D01*
X94595238Y-81383390D02*
X94404762Y-81383390D01*
X94404762Y-81383390D02*
X94309524Y-81431009D01*
X94309524Y-81431009D02*
X94261905Y-81478628D01*
X94261905Y-81478628D02*
X94214286Y-81573866D01*
X94214286Y-81573866D02*
X94214286Y-81764342D01*
X94214286Y-81764342D02*
X94261905Y-81859580D01*
X94261905Y-81859580D02*
X94309524Y-81907200D01*
X94309524Y-81907200D02*
X94404762Y-81954819D01*
X94404762Y-81954819D02*
X94595238Y-81954819D01*
X94595238Y-81954819D02*
X94690476Y-81907200D01*
X94690476Y-81907200D02*
X94738095Y-81859580D01*
X94738095Y-81859580D02*
X94785714Y-81764342D01*
X94785714Y-81764342D02*
X94785714Y-81573866D01*
X94785714Y-81573866D02*
X94738095Y-81478628D01*
X94738095Y-81478628D02*
X94690476Y-81431009D01*
X94690476Y-81431009D02*
X94595238Y-81383390D01*
X121859580Y-74892858D02*
X121907200Y-74940477D01*
X121907200Y-74940477D02*
X121954819Y-75083334D01*
X121954819Y-75083334D02*
X121954819Y-75178572D01*
X121954819Y-75178572D02*
X121907200Y-75321429D01*
X121907200Y-75321429D02*
X121811961Y-75416667D01*
X121811961Y-75416667D02*
X121716723Y-75464286D01*
X121716723Y-75464286D02*
X121526247Y-75511905D01*
X121526247Y-75511905D02*
X121383390Y-75511905D01*
X121383390Y-75511905D02*
X121192914Y-75464286D01*
X121192914Y-75464286D02*
X121097676Y-75416667D01*
X121097676Y-75416667D02*
X121002438Y-75321429D01*
X121002438Y-75321429D02*
X120954819Y-75178572D01*
X120954819Y-75178572D02*
X120954819Y-75083334D01*
X120954819Y-75083334D02*
X121002438Y-74940477D01*
X121002438Y-74940477D02*
X121050057Y-74892858D01*
X121954819Y-73940477D02*
X121954819Y-74511905D01*
X121954819Y-74226191D02*
X120954819Y-74226191D01*
X120954819Y-74226191D02*
X121097676Y-74321429D01*
X121097676Y-74321429D02*
X121192914Y-74416667D01*
X121192914Y-74416667D02*
X121240533Y-74511905D01*
X120954819Y-73321429D02*
X120954819Y-73226191D01*
X120954819Y-73226191D02*
X121002438Y-73130953D01*
X121002438Y-73130953D02*
X121050057Y-73083334D01*
X121050057Y-73083334D02*
X121145295Y-73035715D01*
X121145295Y-73035715D02*
X121335771Y-72988096D01*
X121335771Y-72988096D02*
X121573866Y-72988096D01*
X121573866Y-72988096D02*
X121764342Y-73035715D01*
X121764342Y-73035715D02*
X121859580Y-73083334D01*
X121859580Y-73083334D02*
X121907200Y-73130953D01*
X121907200Y-73130953D02*
X121954819Y-73226191D01*
X121954819Y-73226191D02*
X121954819Y-73321429D01*
X121954819Y-73321429D02*
X121907200Y-73416667D01*
X121907200Y-73416667D02*
X121859580Y-73464286D01*
X121859580Y-73464286D02*
X121764342Y-73511905D01*
X121764342Y-73511905D02*
X121573866Y-73559524D01*
X121573866Y-73559524D02*
X121335771Y-73559524D01*
X121335771Y-73559524D02*
X121145295Y-73511905D01*
X121145295Y-73511905D02*
X121050057Y-73464286D01*
X121050057Y-73464286D02*
X121002438Y-73416667D01*
X121002438Y-73416667D02*
X120954819Y-73321429D01*
X91163093Y-62284819D02*
X91163093Y-63094342D01*
X91163093Y-63094342D02*
X91210712Y-63189580D01*
X91210712Y-63189580D02*
X91258331Y-63237200D01*
X91258331Y-63237200D02*
X91353569Y-63284819D01*
X91353569Y-63284819D02*
X91544045Y-63284819D01*
X91544045Y-63284819D02*
X91639283Y-63237200D01*
X91639283Y-63237200D02*
X91686902Y-63189580D01*
X91686902Y-63189580D02*
X91734521Y-63094342D01*
X91734521Y-63094342D02*
X91734521Y-62284819D01*
X92734521Y-63284819D02*
X92163093Y-63284819D01*
X92448807Y-63284819D02*
X92448807Y-62284819D01*
X92448807Y-62284819D02*
X92353569Y-62427676D01*
X92353569Y-62427676D02*
X92258331Y-62522914D01*
X92258331Y-62522914D02*
X92163093Y-62570533D01*
X86109580Y-65226668D02*
X86157200Y-65274287D01*
X86157200Y-65274287D02*
X86204819Y-65417144D01*
X86204819Y-65417144D02*
X86204819Y-65512382D01*
X86204819Y-65512382D02*
X86157200Y-65655239D01*
X86157200Y-65655239D02*
X86061961Y-65750477D01*
X86061961Y-65750477D02*
X85966723Y-65798096D01*
X85966723Y-65798096D02*
X85776247Y-65845715D01*
X85776247Y-65845715D02*
X85633390Y-65845715D01*
X85633390Y-65845715D02*
X85442914Y-65798096D01*
X85442914Y-65798096D02*
X85347676Y-65750477D01*
X85347676Y-65750477D02*
X85252438Y-65655239D01*
X85252438Y-65655239D02*
X85204819Y-65512382D01*
X85204819Y-65512382D02*
X85204819Y-65417144D01*
X85204819Y-65417144D02*
X85252438Y-65274287D01*
X85252438Y-65274287D02*
X85300057Y-65226668D01*
X85300057Y-64845715D02*
X85252438Y-64798096D01*
X85252438Y-64798096D02*
X85204819Y-64702858D01*
X85204819Y-64702858D02*
X85204819Y-64464763D01*
X85204819Y-64464763D02*
X85252438Y-64369525D01*
X85252438Y-64369525D02*
X85300057Y-64321906D01*
X85300057Y-64321906D02*
X85395295Y-64274287D01*
X85395295Y-64274287D02*
X85490533Y-64274287D01*
X85490533Y-64274287D02*
X85633390Y-64321906D01*
X85633390Y-64321906D02*
X86204819Y-64893334D01*
X86204819Y-64893334D02*
X86204819Y-64274287D01*
X117384819Y-65958334D02*
X118099104Y-65958334D01*
X118099104Y-65958334D02*
X118241961Y-66005953D01*
X118241961Y-66005953D02*
X118337200Y-66101191D01*
X118337200Y-66101191D02*
X118384819Y-66244048D01*
X118384819Y-66244048D02*
X118384819Y-66339286D01*
X118384819Y-65434524D02*
X118384819Y-65244048D01*
X118384819Y-65244048D02*
X118337200Y-65148810D01*
X118337200Y-65148810D02*
X118289580Y-65101191D01*
X118289580Y-65101191D02*
X118146723Y-65005953D01*
X118146723Y-65005953D02*
X117956247Y-64958334D01*
X117956247Y-64958334D02*
X117575295Y-64958334D01*
X117575295Y-64958334D02*
X117480057Y-65005953D01*
X117480057Y-65005953D02*
X117432438Y-65053572D01*
X117432438Y-65053572D02*
X117384819Y-65148810D01*
X117384819Y-65148810D02*
X117384819Y-65339286D01*
X117384819Y-65339286D02*
X117432438Y-65434524D01*
X117432438Y-65434524D02*
X117480057Y-65482143D01*
X117480057Y-65482143D02*
X117575295Y-65529762D01*
X117575295Y-65529762D02*
X117813390Y-65529762D01*
X117813390Y-65529762D02*
X117908628Y-65482143D01*
X117908628Y-65482143D02*
X117956247Y-65434524D01*
X117956247Y-65434524D02*
X118003866Y-65339286D01*
X118003866Y-65339286D02*
X118003866Y-65148810D01*
X118003866Y-65148810D02*
X117956247Y-65053572D01*
X117956247Y-65053572D02*
X117908628Y-65005953D01*
X117908628Y-65005953D02*
X117813390Y-64958334D01*
X95609580Y-67416667D02*
X95657200Y-67464286D01*
X95657200Y-67464286D02*
X95704819Y-67607143D01*
X95704819Y-67607143D02*
X95704819Y-67702381D01*
X95704819Y-67702381D02*
X95657200Y-67845238D01*
X95657200Y-67845238D02*
X95561961Y-67940476D01*
X95561961Y-67940476D02*
X95466723Y-67988095D01*
X95466723Y-67988095D02*
X95276247Y-68035714D01*
X95276247Y-68035714D02*
X95133390Y-68035714D01*
X95133390Y-68035714D02*
X94942914Y-67988095D01*
X94942914Y-67988095D02*
X94847676Y-67940476D01*
X94847676Y-67940476D02*
X94752438Y-67845238D01*
X94752438Y-67845238D02*
X94704819Y-67702381D01*
X94704819Y-67702381D02*
X94704819Y-67607143D01*
X94704819Y-67607143D02*
X94752438Y-67464286D01*
X94752438Y-67464286D02*
X94800057Y-67416667D01*
X95704819Y-66464286D02*
X95704819Y-67035714D01*
X95704819Y-66750000D02*
X94704819Y-66750000D01*
X94704819Y-66750000D02*
X94847676Y-66845238D01*
X94847676Y-66845238D02*
X94942914Y-66940476D01*
X94942914Y-66940476D02*
X94990533Y-67035714D01*
D14*
%TO.C,C4*%
X102640001Y-79377835D02*
X102640000Y-79162163D01*
X103360000Y-79377837D02*
X103359999Y-79162165D01*
%TO.C,R2*%
X117640002Y-94622164D02*
X117640005Y-94837836D01*
X118359999Y-94622168D02*
X118360002Y-94837840D01*
%TO.C,J8*%
X121225001Y-69600002D02*
X121225001Y-70850002D01*
X121225001Y-70850002D02*
X122475002Y-70850002D01*
X121515001Y-60440002D02*
X121515001Y-70560001D01*
X121515001Y-70560001D02*
X127485002Y-70560002D01*
X121525000Y-67250002D02*
X122275003Y-67250002D01*
X121525002Y-60450003D02*
X121525003Y-62250003D01*
X121525002Y-63750002D02*
X121525000Y-67250002D01*
X121525002Y-70550002D02*
X122275003Y-70550001D01*
X121525003Y-62250003D02*
X122275003Y-62250003D01*
X121525003Y-68750003D02*
X121525002Y-70550002D01*
X122275002Y-60450000D02*
X121525002Y-60450003D01*
X122275002Y-63750002D02*
X121525002Y-63750002D01*
X122275002Y-68750003D02*
X121525003Y-68750003D01*
X122275003Y-62250003D02*
X122275002Y-60450000D01*
X122275003Y-67250002D02*
X122275002Y-63750002D01*
X122275003Y-70550001D02*
X122275002Y-68750003D01*
X123775002Y-60450002D02*
X123775003Y-61200002D01*
X123775002Y-70550002D02*
X123775003Y-69800002D01*
X123775003Y-61200002D02*
X126725002Y-61200002D01*
X123775003Y-69800002D02*
X126725001Y-69800002D01*
X126725001Y-69800002D02*
X126725001Y-65500002D01*
X126725002Y-61200002D02*
X126725001Y-65500002D01*
X127485001Y-60440003D02*
X121515001Y-60440002D01*
X127485002Y-70560002D02*
X127485001Y-60440003D01*
%TO.C,J6*%
X119689997Y-96735001D02*
X127309997Y-96735002D01*
X119689999Y-90765001D02*
X119689997Y-96735001D01*
X119699998Y-94475000D02*
X120449999Y-94475002D01*
X119699999Y-96725002D02*
X121500000Y-96725001D01*
X119700001Y-95975002D02*
X119699999Y-96725002D01*
X120449999Y-94475002D02*
X120450000Y-91525003D01*
X120450000Y-91525003D02*
X123499999Y-91525002D01*
X121499997Y-95975001D02*
X119700001Y-95975002D01*
X121500000Y-96725001D02*
X121499997Y-95975001D01*
X122999997Y-96725002D02*
X124000000Y-96725004D01*
X123000000Y-95975000D02*
X122999997Y-96725002D01*
X123999999Y-95975000D02*
X123000000Y-95975000D01*
X124000000Y-96725004D02*
X123999999Y-95975000D01*
X125500001Y-95975001D02*
X125500001Y-96725002D01*
X125500001Y-96725002D02*
X127299999Y-96725002D01*
X126349998Y-97025001D02*
X127599998Y-97025004D01*
X126549998Y-91525003D02*
X123499999Y-91525002D01*
X126550000Y-94475000D02*
X126549998Y-91525003D01*
X127299998Y-95975002D02*
X125500001Y-95975001D01*
X127299999Y-94475002D02*
X126550000Y-94475000D01*
X127299999Y-96725002D02*
X127299998Y-95975002D01*
X127309997Y-96735002D02*
X127309999Y-90765002D01*
X127309999Y-90765002D02*
X119689999Y-90765001D01*
X127599998Y-97025004D02*
X127599999Y-95775002D01*
%TO.C,R3*%
X112370000Y-73903640D02*
X112370001Y-73596359D01*
X113129999Y-73903641D02*
X113130000Y-73596360D01*
%TO.C,C5*%
X94890004Y-70892167D02*
X94890000Y-71107839D01*
X95610000Y-70892163D02*
X95609996Y-71107835D01*
%TO.C,J10*%
X85890000Y-79145000D02*
X87000000Y-79145000D01*
X85890000Y-79905000D02*
X85890000Y-79145000D01*
X85890000Y-80665000D02*
X85890000Y-80600000D01*
X85890000Y-80665000D02*
X86436529Y-80665000D01*
X85890000Y-80665000D02*
X88110000Y-80665000D01*
X87563471Y-80665000D02*
X88110000Y-80665000D01*
X88110000Y-80665000D02*
X88110000Y-80600000D01*
%TO.C,J4*%
X105540000Y-102710000D02*
X105539998Y-97289999D01*
X114259999Y-97290000D02*
X105539998Y-97289999D01*
X114260000Y-102710002D02*
X105540000Y-102710000D01*
X115960000Y-98590000D02*
X114259999Y-97290000D01*
X115960000Y-101410000D02*
X114260000Y-102710002D01*
X115960000Y-101410000D02*
X115960000Y-98590000D01*
%TO.C,U4*%
X93390000Y-93865001D02*
X93390000Y-93630000D01*
X93390000Y-96610000D02*
X93390000Y-96135000D01*
X93865000Y-93390000D02*
X93690003Y-93390000D01*
X93865001Y-96610000D02*
X93390000Y-96610000D01*
X96134999Y-93390000D02*
X96610000Y-93390000D01*
X96135000Y-96610000D02*
X96610000Y-96610000D01*
X96610000Y-93390000D02*
X96610000Y-93865000D01*
X96610000Y-96610000D02*
X96610000Y-96134999D01*
X93390000Y-93390000D02*
X93150001Y-93060000D01*
X93630002Y-93059999D01*
X93390000Y-93390000D01*
G36*
X93390000Y-93390000D02*
G01*
X93150001Y-93060000D01*
X93630002Y-93059999D01*
X93390000Y-93390000D01*
G37*
%TO.C,J11*%
X85890000Y-75395000D02*
X87000000Y-75395000D01*
X85890000Y-76155000D02*
X85890000Y-75395000D01*
X85890000Y-76915000D02*
X85890000Y-76850000D01*
X85890000Y-76915000D02*
X86436529Y-76915000D01*
X85890000Y-76915000D02*
X88110000Y-76915000D01*
X87563471Y-76915000D02*
X88110000Y-76915000D01*
X88110000Y-76915000D02*
X88110000Y-76850000D01*
%TO.C,U5*%
X112750000Y-90690001D02*
X110800000Y-90690002D01*
X112750000Y-90690001D02*
X114700001Y-90690003D01*
X112750000Y-95810001D02*
X110799999Y-95809999D01*
X112750000Y-95810001D02*
X114700000Y-95810000D01*
X110050000Y-90785001D02*
X109810000Y-90455002D01*
X110290000Y-90455000D01*
X110050000Y-90785001D01*
G36*
X110050000Y-90785001D02*
G01*
X109810000Y-90455002D01*
X110290000Y-90455000D01*
X110050000Y-90785001D01*
G37*
%TO.C,J17*%
X85890000Y-82740000D02*
X87000000Y-82740000D01*
X85890000Y-83500000D02*
X85890000Y-82740000D01*
X85890000Y-84260000D02*
X85890000Y-84195000D01*
X85890000Y-84260000D02*
X86436529Y-84260000D01*
X85890000Y-84260000D02*
X88110000Y-84260000D01*
X87563471Y-84260000D02*
X88110000Y-84260000D01*
X88110000Y-84260000D02*
X88110000Y-84195000D01*
%TO.C,C11*%
X89990001Y-80890581D02*
X89990000Y-80609419D01*
X91010000Y-80890581D02*
X91009999Y-80609419D01*
%TO.C,JP1*%
X117000001Y-90660001D02*
X119000001Y-90660001D01*
X117000001Y-93460001D02*
X117000001Y-90660001D01*
X119000001Y-90660001D02*
X119000001Y-93460001D01*
X119000001Y-93460001D02*
X117000001Y-93460001D01*
%TO.C,J3*%
X123850000Y-81795001D02*
X123850000Y-72785001D01*
X124672470Y-81795001D02*
X123850000Y-81795001D01*
X124672471Y-72785001D02*
X123850000Y-72785001D01*
X125490000Y-80393472D02*
X125490001Y-80536530D01*
X125490000Y-81663472D02*
X125490000Y-81795001D01*
X125490000Y-81795001D02*
X125287532Y-81795001D01*
X125686529Y-80340001D02*
X125543469Y-80340002D01*
X125942469Y-72784999D02*
X125287529Y-72785002D01*
X127380000Y-72785001D02*
X126557529Y-72785002D01*
X127380000Y-80340001D02*
X126813471Y-80340002D01*
X127380000Y-80340001D02*
X127380000Y-72785001D01*
X127380000Y-81100002D02*
X127380000Y-81860001D01*
X127380000Y-81860001D02*
X126249999Y-81860004D01*
%TO.C,J16*%
X96390000Y-64990001D02*
X97500000Y-64990001D01*
X96390000Y-65750001D02*
X96390000Y-64990001D01*
X96390000Y-66510001D02*
X96390000Y-66445001D01*
X96390000Y-66510001D02*
X96936529Y-66510001D01*
X96390000Y-66510001D02*
X98610000Y-66510001D01*
X98063471Y-66510001D02*
X98610000Y-66510001D01*
X98610000Y-66510001D02*
X98610000Y-66445001D01*
%TO.C,C6*%
X90890000Y-71642163D02*
X90890003Y-71857834D01*
X91609997Y-71642168D02*
X91610000Y-71857839D01*
%TO.C,U7*%
X106390000Y-76390000D02*
X106390000Y-76690000D01*
X106390000Y-83610000D02*
X106390000Y-83310000D01*
X106690000Y-76390000D02*
X106390000Y-76390000D01*
X106690000Y-83610000D02*
X106390000Y-83610000D01*
X113310000Y-76390000D02*
X113610000Y-76390000D01*
X113310000Y-83610000D02*
X113610000Y-83610000D01*
X113610000Y-76390000D02*
X113610000Y-76690000D01*
X113610000Y-83610000D02*
X113610000Y-83310000D01*
X105787500Y-76690000D02*
X105447500Y-76220000D01*
X106127500Y-76220000D01*
X105787500Y-76690000D01*
G36*
X105787500Y-76690000D02*
G01*
X105447500Y-76220000D01*
X106127500Y-76220000D01*
X105787500Y-76690000D01*
G37*
D15*
%TO.C,IC1*%
X91775000Y-75420000D02*
X93300000Y-75420000D01*
D14*
%TO.C,J12*%
X102390000Y-84490000D02*
X103500000Y-84490000D01*
X102390000Y-85250000D02*
X102390000Y-84490000D01*
X102390000Y-86010000D02*
X102390000Y-85945000D01*
X102390000Y-86010000D02*
X102936529Y-86010000D01*
X102390000Y-86010000D02*
X104610000Y-86010000D01*
X104063471Y-86010000D02*
X104610000Y-86010000D01*
X104610000Y-86010000D02*
X104610000Y-85945000D01*
%TO.C,U2*%
X92362498Y-70220003D02*
X94362502Y-70220003D01*
X92362498Y-72440009D02*
X94362502Y-72440009D01*
X92122500Y-70320007D02*
X91842497Y-70320008D01*
X92122502Y-70040006D01*
X92122500Y-70320007D01*
G36*
X92122500Y-70320007D02*
G01*
X91842497Y-70320008D01*
X92122502Y-70040006D01*
X92122500Y-70320007D01*
G37*
%TO.C,C7*%
X95788748Y-82840000D02*
X97211252Y-82840000D01*
X95788748Y-84660000D02*
X97211252Y-84660000D01*
%TO.C,C9*%
X96357834Y-91890003D02*
X96142162Y-91890000D01*
X96357838Y-92610000D02*
X96142166Y-92609997D01*
%TO.C,R1*%
X107370000Y-86596360D02*
X107370001Y-86903641D01*
X108129999Y-86596359D02*
X108130000Y-86903640D01*
%TO.C,J1*%
X119689997Y-103760000D02*
X127309997Y-103760001D01*
X119689999Y-97790000D02*
X119689997Y-103760000D01*
X119699998Y-101499999D02*
X120449999Y-101500001D01*
X119699999Y-103750001D02*
X121500000Y-103750000D01*
X119700001Y-103000001D02*
X119699999Y-103750001D01*
X120449999Y-101500001D02*
X120450000Y-98550002D01*
X120450000Y-98550002D02*
X123499999Y-98550001D01*
X121499997Y-103000000D02*
X119700001Y-103000001D01*
X121500000Y-103750000D02*
X121499997Y-103000000D01*
X122999997Y-103750001D02*
X124000000Y-103750003D01*
X123000000Y-102999999D02*
X122999997Y-103750001D01*
X123999999Y-102999999D02*
X123000000Y-102999999D01*
X124000000Y-103750003D02*
X123999999Y-102999999D01*
X125500001Y-103000000D02*
X125500001Y-103750001D01*
X125500001Y-103750001D02*
X127299999Y-103750001D01*
X126349998Y-104050000D02*
X127599998Y-104050003D01*
X126549998Y-98550002D02*
X123499999Y-98550001D01*
X126550000Y-101499999D02*
X126549998Y-98550002D01*
X127299998Y-103000001D02*
X125500001Y-103000000D01*
X127299999Y-101500001D02*
X126550000Y-101499999D01*
X127299999Y-103750001D02*
X127299998Y-103000001D01*
X127309997Y-103760001D02*
X127309999Y-97790001D01*
X127309999Y-97790001D02*
X119689999Y-97790000D01*
X127599998Y-104050003D02*
X127599999Y-102800001D01*
%TO.C,J13*%
X89640000Y-67990001D02*
X90750000Y-67990001D01*
X89640000Y-68750001D02*
X89640000Y-67990001D01*
X89640000Y-69510001D02*
X89640000Y-69445001D01*
X89640000Y-69510001D02*
X90186529Y-69510001D01*
X89640000Y-69510001D02*
X91860000Y-69510001D01*
X91313471Y-69510001D02*
X91860000Y-69510001D01*
X91860000Y-69510001D02*
X91860000Y-69445001D01*
%TO.C,J5*%
X119400000Y-83750001D02*
X119400000Y-85000001D01*
X119690000Y-84040001D02*
X119690000Y-90010001D01*
X119690000Y-90010001D02*
X127310000Y-90010001D01*
X119700000Y-84050001D02*
X119700000Y-84800001D01*
X119700000Y-84800001D02*
X121500000Y-84800001D01*
X119700000Y-86300001D02*
X120450000Y-86300001D01*
X120450000Y-86300001D02*
X120450000Y-89250001D01*
X120450000Y-89250001D02*
X123500000Y-89250001D01*
X120650000Y-83750001D02*
X119400000Y-83750001D01*
X121500000Y-84050001D02*
X119700000Y-84050001D01*
X121500000Y-84800001D02*
X121500000Y-84050001D01*
X123000000Y-84050001D02*
X123000000Y-84800001D01*
X123000000Y-84800001D02*
X124000000Y-84800001D01*
X124000000Y-84050001D02*
X123000000Y-84050001D01*
X124000000Y-84800001D02*
X124000000Y-84050001D01*
X125500000Y-84050001D02*
X125500000Y-84800001D01*
X125500000Y-84800001D02*
X127300000Y-84800001D01*
X126550000Y-86300001D02*
X126550000Y-89250001D01*
X126550000Y-89250001D02*
X123500000Y-89250001D01*
X127300000Y-84050001D02*
X125500000Y-84050001D01*
X127300000Y-84800001D02*
X127300000Y-84050001D01*
X127300000Y-86300001D02*
X126550000Y-86300001D01*
X127310000Y-84040001D02*
X119690000Y-84040001D01*
X127310000Y-90010001D02*
X127310000Y-84040001D01*
%TO.C,C3*%
X101390003Y-79377835D02*
X101390002Y-79162163D01*
X102110002Y-79377837D02*
X102110001Y-79162165D01*
%TO.C,C8*%
X96609419Y-80990000D02*
X96890581Y-80990001D01*
X96609419Y-82009999D02*
X96890581Y-82010000D01*
%TO.C,C10*%
X122390000Y-74412163D02*
X122390003Y-74627834D01*
X123109997Y-74412168D02*
X123110000Y-74627839D01*
%TO.C,U1*%
X90024999Y-66965001D02*
X93824999Y-66965001D01*
X90084999Y-63595001D02*
X93824999Y-63595001D01*
X89844999Y-63700002D02*
X89364999Y-63700001D01*
X89845000Y-63220000D01*
X89844999Y-63700002D01*
G36*
X89844999Y-63700002D02*
G01*
X89364999Y-63700001D01*
X89845000Y-63220000D01*
X89844999Y-63700002D01*
G37*
%TO.C,C2*%
X86840000Y-64348749D02*
X86840000Y-65771253D01*
X88660000Y-64348749D02*
X88660000Y-65771253D01*
%TO.C,J9*%
X118865000Y-66735001D02*
X118865000Y-65625001D01*
X119625000Y-66735001D02*
X118865000Y-66735001D01*
X120385000Y-64515001D02*
X120320000Y-64515001D01*
X120385000Y-65061530D02*
X120385000Y-64515001D01*
X120385000Y-66735001D02*
X120320000Y-66735001D01*
X120385000Y-66735001D02*
X120385000Y-64515001D01*
X120385000Y-66735001D02*
X120385000Y-66188472D01*
%TO.C,C1*%
X94890000Y-65202163D02*
X94890003Y-65417835D01*
X95609997Y-65202167D02*
X95610000Y-65417839D01*
%TD*%
M02*
