%TF.GenerationSoftware,KiCad,Pcbnew,8.0.2*%
%TF.CreationDate,2024-10-23T20:47:09+03:00*%
%TF.ProjectId,PowerServo AE 36V 3.6A 30D - DEV,506f7765-7253-4657-9276-6f2041452033,rev?*%
%TF.SameCoordinates,Original*%
%TF.FileFunction,Paste,Top*%
%TF.FilePolarity,Positive*%
%FSLAX46Y46*%
G04 Gerber Fmt 4.6, Leading zero omitted, Abs format (unit mm)*
G04 Created by KiCad (PCBNEW 8.0.2) date 2024-10-23 20:47:09*
%MOMM*%
%LPD*%
G01*
G04 APERTURE LIST*
G04 Aperture macros list*
%AMRoundRect*
0 Rectangle with rounded corners*
0 $1 Rounding radius*
0 $2 $3 $4 $5 $6 $7 $8 $9 X,Y pos of 4 corners*
0 Add a 4 corners polygon primitive as box body*
4,1,4,$2,$3,$4,$5,$6,$7,$8,$9,$2,$3,0*
0 Add four circle primitives for the rounded corners*
1,1,$1+$1,$2,$3*
1,1,$1+$1,$4,$5*
1,1,$1+$1,$6,$7*
1,1,$1+$1,$8,$9*
0 Add four rect primitives between the rounded corners*
20,1,$1+$1,$2,$3,$4,$5,0*
20,1,$1+$1,$4,$5,$6,$7,0*
20,1,$1+$1,$6,$7,$8,$9,0*
20,1,$1+$1,$8,$9,$2,$3,0*%
G04 Aperture macros list end*
%ADD10RoundRect,0.140000X0.170000X-0.140000X0.170000X0.140000X-0.170000X0.140000X-0.170000X-0.140000X0*%
%ADD11RoundRect,0.140000X-0.170000X0.140000X-0.170000X-0.140000X0.170000X-0.140000X0.170000X0.140000X0*%
%ADD12RoundRect,0.135000X0.185000X-0.135000X0.185000X0.135000X-0.185000X0.135000X-0.185000X-0.135000X0*%
%ADD13RoundRect,0.177500X-0.177500X-0.177500X0.177500X-0.177500X0.177500X0.177500X-0.177500X0.177500X0*%
%ADD14RoundRect,0.062500X-0.325000X-0.062500X0.325000X-0.062500X0.325000X0.062500X-0.325000X0.062500X0*%
%ADD15RoundRect,0.062500X-0.062500X-0.325000X0.062500X-0.325000X0.062500X0.325000X-0.062500X0.325000X0*%
%ADD16RoundRect,0.150000X-0.825000X-0.150000X0.825000X-0.150000X0.825000X0.150000X-0.825000X0.150000X0*%
%ADD17RoundRect,0.225000X0.250000X-0.225000X0.250000X0.225000X-0.250000X0.225000X-0.250000X-0.225000X0*%
%ADD18RoundRect,0.125000X-0.625000X-0.125000X0.625000X-0.125000X0.625000X0.125000X-0.625000X0.125000X0*%
%ADD19RoundRect,0.125000X-0.125000X-0.625000X0.125000X-0.625000X0.125000X0.625000X-0.125000X0.625000X0*%
%ADD20R,1.525000X0.650000*%
%ADD21R,2.710000X3.400000*%
%ADD22RoundRect,0.172500X-0.262500X-0.172500X0.262500X-0.172500X0.262500X0.172500X-0.262500X0.172500X0*%
%ADD23RoundRect,0.093750X-0.093750X-0.106250X0.093750X-0.106250X0.093750X0.106250X-0.093750X0.106250X0*%
%ADD24RoundRect,0.250000X-0.325000X-0.650000X0.325000X-0.650000X0.325000X0.650000X-0.325000X0.650000X0*%
%ADD25RoundRect,0.140000X0.140000X0.170000X-0.140000X0.170000X-0.140000X-0.170000X0.140000X-0.170000X0*%
%ADD26RoundRect,0.135000X-0.185000X0.135000X-0.185000X-0.135000X0.185000X-0.135000X0.185000X0.135000X0*%
%ADD27RoundRect,0.225000X-0.225000X-0.250000X0.225000X-0.250000X0.225000X0.250000X-0.225000X0.250000X0*%
%ADD28RoundRect,0.162500X-0.162500X-0.287500X0.162500X-0.287500X0.162500X0.287500X-0.162500X0.287500X0*%
%ADD29RoundRect,0.112500X-0.287500X-0.112500X0.287500X-0.112500X0.287500X0.112500X-0.287500X0.112500X0*%
%ADD30RoundRect,0.250000X-0.650000X0.325000X-0.650000X-0.325000X0.650000X-0.325000X0.650000X0.325000X0*%
G04 APERTURE END LIST*
D10*
%TO.C,C4*%
X103000000Y-79750000D03*
X103000000Y-78790000D03*
%TD*%
D11*
%TO.C,R2*%
X118000002Y-94250002D03*
X118000002Y-95210002D03*
%TD*%
D12*
%TO.C,R3*%
X112749999Y-74260000D03*
X112750001Y-73240000D03*
%TD*%
D11*
%TO.C,C5*%
X95250000Y-70520001D03*
X95250000Y-71480001D03*
%TD*%
D13*
%TO.C,U4*%
X94560000Y-94560000D03*
X94560000Y-95440000D03*
X95440000Y-94560000D03*
X95440000Y-95440000D03*
D14*
X93537500Y-94250000D03*
X93537500Y-94750000D03*
X93537500Y-95250000D03*
X93537503Y-95750002D03*
D15*
X94250000Y-96462500D03*
X94750000Y-96462500D03*
X95250000Y-96462500D03*
X95750002Y-96462497D03*
D14*
X96462500Y-95750000D03*
X96462500Y-95250000D03*
X96462500Y-94750000D03*
X96462497Y-94249998D03*
D15*
X95750000Y-93537500D03*
X95250000Y-93537500D03*
X94750000Y-93537500D03*
X94249998Y-93537503D03*
%TD*%
D16*
%TO.C,U5*%
X110275002Y-91344999D03*
X110275000Y-92615001D03*
X110275000Y-93885001D03*
X110275001Y-95155002D03*
X115224998Y-95155003D03*
X115225000Y-93885001D03*
X115225000Y-92615001D03*
X115224999Y-91345000D03*
%TD*%
D17*
%TO.C,C11*%
X90500000Y-81525001D03*
X90500000Y-79974999D03*
%TD*%
D11*
%TO.C,C6*%
X91250000Y-71270001D03*
X91250000Y-72230001D03*
%TD*%
D18*
%TO.C,U7*%
X105825000Y-77200000D03*
X105825000Y-78000000D03*
X105825000Y-78800000D03*
X105825000Y-79600000D03*
X105825000Y-80400000D03*
X105825000Y-81200000D03*
X105825000Y-82000000D03*
X105825000Y-82800000D03*
D19*
X107200000Y-84175000D03*
X108000000Y-84175000D03*
X108800000Y-84175000D03*
X109600000Y-84175000D03*
X110400000Y-84175000D03*
X111200000Y-84175000D03*
X112000000Y-84175000D03*
X112800000Y-84175000D03*
D18*
X114175000Y-82800000D03*
X114175000Y-82000000D03*
X114175000Y-81200000D03*
X114175000Y-80400000D03*
X114175000Y-79600000D03*
X114175000Y-78800000D03*
X114175000Y-78000000D03*
X114175000Y-77200000D03*
D19*
X112800000Y-75825000D03*
X112000000Y-75825000D03*
X111200000Y-75825000D03*
X110400000Y-75825000D03*
X109600000Y-75825000D03*
X108800000Y-75825000D03*
X108000000Y-75825000D03*
X107200000Y-75825000D03*
%TD*%
D20*
%TO.C,IC1*%
X92538000Y-76095000D03*
X92538000Y-77365000D03*
X92538000Y-78635000D03*
X92538000Y-79905000D03*
X97962000Y-79905000D03*
X97962000Y-78635000D03*
X97962000Y-77365000D03*
X97962000Y-76095000D03*
D21*
X95250000Y-78000000D03*
%TD*%
D22*
%TO.C,U2*%
X93362499Y-70930008D03*
X93362501Y-71730004D03*
D23*
X92475000Y-70680006D03*
X92475000Y-71330006D03*
X92475000Y-71980006D03*
X94250000Y-71980006D03*
X94250000Y-71330006D03*
X94250000Y-70680006D03*
%TD*%
D24*
%TO.C,C7*%
X95025000Y-83750000D03*
X97975000Y-83750000D03*
%TD*%
D25*
%TO.C,C9*%
X96730000Y-92250000D03*
X95770000Y-92250000D03*
%TD*%
D26*
%TO.C,R1*%
X107749999Y-86240000D03*
X107750001Y-87260000D03*
%TD*%
D10*
%TO.C,C3*%
X101750002Y-79750000D03*
X101750002Y-78790000D03*
%TD*%
D27*
%TO.C,C8*%
X95974999Y-81500000D03*
X97525001Y-81500000D03*
%TD*%
D11*
%TO.C,C10*%
X122750000Y-74040001D03*
X122750000Y-75000001D03*
%TD*%
D28*
%TO.C,U1*%
X91749998Y-65280002D03*
X91750000Y-64310001D03*
X91750000Y-66250001D03*
D29*
X90399999Y-64080001D03*
X90399999Y-64680002D03*
X90399999Y-65280001D03*
X90399999Y-65880003D03*
X90399999Y-66480001D03*
X93449999Y-66480001D03*
X93449999Y-65880000D03*
X93449999Y-65280001D03*
X93449999Y-64679999D03*
X93449999Y-64080001D03*
%TD*%
D30*
%TO.C,C2*%
X87750000Y-63585001D03*
X87750000Y-66535001D03*
%TD*%
D11*
%TO.C,C1*%
X95250000Y-64830001D03*
X95250000Y-65790001D03*
%TD*%
M02*
