G04 #@! TF.GenerationSoftware,KiCad,Pcbnew,8.0.2*
G04 #@! TF.CreationDate,2024-10-23T21:31:03+03:00*
G04 #@! TF.ProjectId,card_template,63617264-5f74-4656-9d70-6c6174652e6b,00*
G04 #@! TF.SameCoordinates,Original*
G04 #@! TF.FileFunction,Copper,L2,Bot*
G04 #@! TF.FilePolarity,Positive*
%FSLAX46Y46*%
G04 Gerber Fmt 4.6, Leading zero omitted, Abs format (unit mm)*
G04 Created by KiCad (PCBNEW 8.0.2) date 2024-10-23 21:31:03*
%MOMM*%
%LPD*%
G01*
G04 APERTURE LIST*
G04 #@! TA.AperFunction,ViaPad*
%ADD10C,0.800000*%
G04 #@! TD*
G04 #@! TA.AperFunction,ViaPad*
%ADD11C,1.200000*%
G04 #@! TD*
G04 #@! TA.AperFunction,ViaPad*
%ADD12C,0.600000*%
G04 #@! TD*
G04 #@! TA.AperFunction,ViaPad*
%ADD13C,1.000000*%
G04 #@! TD*
G04 #@! TA.AperFunction,ViaPad*
%ADD14C,0.400000*%
G04 #@! TD*
G04 APERTURE END LIST*
D10*
X172500000Y-94250000D03*
D11*
X155500000Y-60500000D03*
D10*
X171000000Y-94250000D03*
X98000000Y-94000000D03*
X171750000Y-92750000D03*
D12*
X149500000Y-60500000D03*
D10*
X96500000Y-94000000D03*
X95750000Y-94000000D03*
X171750000Y-94250000D03*
X172500000Y-92750000D03*
X151500000Y-60500000D03*
X97250000Y-94000000D03*
X171000000Y-92750000D03*
X170250000Y-92750000D03*
D13*
X153500000Y-60500000D03*
D10*
X170250000Y-94250000D03*
D14*
X147500000Y-60500000D03*
G04 #@! TA.AperFunction,NonConductor*
G36*
X175260305Y-43713516D02*
G01*
X175588615Y-43730721D01*
X175589801Y-43730846D01*
X175914224Y-43782229D01*
X175915405Y-43782481D01*
X176120754Y-43837504D01*
X176232651Y-43867488D01*
X176233816Y-43867866D01*
X176404453Y-43933367D01*
X176540446Y-43985570D01*
X176541558Y-43986064D01*
X176834216Y-44135181D01*
X176835266Y-44135788D01*
X177110717Y-44314668D01*
X177111692Y-44315375D01*
X177182027Y-44372331D01*
X177366953Y-44522081D01*
X177367863Y-44522901D01*
X177600098Y-44755136D01*
X177600918Y-44756046D01*
X177789602Y-44989052D01*
X177807618Y-45011299D01*
X177808337Y-45012290D01*
X177987208Y-45287728D01*
X177987821Y-45288788D01*
X178136933Y-45581438D01*
X178137431Y-45582557D01*
X178255133Y-45889183D01*
X178255511Y-45890348D01*
X178340516Y-46207586D01*
X178340771Y-46208784D01*
X178392151Y-46533182D01*
X178392279Y-46534400D01*
X178408946Y-46852438D01*
X178409484Y-46862694D01*
X178409500Y-46863306D01*
X178409500Y-89312693D01*
X178409484Y-89313305D01*
X178392279Y-89641599D01*
X178392151Y-89642817D01*
X178340771Y-89967215D01*
X178340516Y-89968413D01*
X178255511Y-90285651D01*
X178255133Y-90286816D01*
X178137431Y-90593442D01*
X178136933Y-90594561D01*
X177987821Y-90887211D01*
X177987208Y-90888271D01*
X177808337Y-91163709D01*
X177807618Y-91164700D01*
X177600918Y-91419953D01*
X177600098Y-91420863D01*
X177367863Y-91653098D01*
X177366953Y-91653918D01*
X177111700Y-91860618D01*
X177110709Y-91861337D01*
X176835271Y-92040208D01*
X176834211Y-92040821D01*
X176541561Y-92189933D01*
X176540442Y-92190431D01*
X176233816Y-92308133D01*
X176232651Y-92308511D01*
X175915413Y-92393516D01*
X175914215Y-92393771D01*
X175589817Y-92445151D01*
X175588599Y-92445279D01*
X175260305Y-92462484D01*
X175259693Y-92462500D01*
X174244628Y-92462500D01*
X174244225Y-92462493D01*
X174147523Y-92459160D01*
X174147512Y-92459160D01*
X173954759Y-92487200D01*
X173954756Y-92487200D01*
X173954755Y-92487201D01*
X173803206Y-92537886D01*
X173770014Y-92548987D01*
X173599166Y-92642552D01*
X173447618Y-92764935D01*
X173447616Y-92764937D01*
X173447614Y-92764939D01*
X173383893Y-92838600D01*
X173320170Y-92912264D01*
X173220876Y-93079851D01*
X173152878Y-93262392D01*
X173148832Y-93284847D01*
X173118331Y-93454102D01*
X173118331Y-93648898D01*
X173142107Y-93780833D01*
X173152878Y-93840607D01*
X173220876Y-94023148D01*
X173300045Y-94156768D01*
X173320172Y-94190738D01*
X173447614Y-94338061D01*
X173599164Y-94460446D01*
X173770017Y-94554014D01*
X173954755Y-94615799D01*
X174062963Y-94631539D01*
X174147512Y-94643839D01*
X174147515Y-94643839D01*
X174147522Y-94643840D01*
X174231895Y-94640931D01*
X174231897Y-94640932D01*
X174234323Y-94640848D01*
X174234324Y-94640849D01*
X174244467Y-94640498D01*
X174244873Y-94640484D01*
X174244873Y-94640487D01*
X174244881Y-94640483D01*
X174253143Y-94640205D01*
X174253143Y-94640204D01*
X174255130Y-94640138D01*
X174255172Y-94640128D01*
X175544740Y-94595590D01*
X175545730Y-94595598D01*
X175873684Y-94612782D01*
X175874870Y-94612907D01*
X176199296Y-94664286D01*
X176200477Y-94664538D01*
X176424756Y-94724631D01*
X176517729Y-94749542D01*
X176518893Y-94749919D01*
X176825528Y-94867622D01*
X176826640Y-94868116D01*
X177119302Y-95017231D01*
X177120351Y-95017838D01*
X177395807Y-95196718D01*
X177396798Y-95197437D01*
X177652050Y-95404131D01*
X177652960Y-95404951D01*
X177885200Y-95637186D01*
X177886019Y-95638096D01*
X178092725Y-95893349D01*
X178093445Y-95894340D01*
X178272321Y-96169779D01*
X178272934Y-96170839D01*
X178422052Y-96463491D01*
X178422550Y-96464610D01*
X178540258Y-96771238D01*
X178540636Y-96772403D01*
X178625644Y-97089644D01*
X178625899Y-97090842D01*
X178677283Y-97415242D01*
X178677411Y-97416460D01*
X178694548Y-97743384D01*
X178694564Y-97743996D01*
X178694564Y-140194757D01*
X178694548Y-140195369D01*
X178677346Y-140523665D01*
X178677218Y-140524883D01*
X178625841Y-140849282D01*
X178625586Y-140850480D01*
X178540584Y-141167721D01*
X178540206Y-141168886D01*
X178422505Y-141475512D01*
X178422007Y-141476631D01*
X178272896Y-141769283D01*
X178272283Y-141770343D01*
X178093412Y-142045782D01*
X178092693Y-142046773D01*
X177885992Y-142302027D01*
X177885172Y-142302937D01*
X177652937Y-142535172D01*
X177652027Y-142535992D01*
X177396773Y-142742693D01*
X177395782Y-142743412D01*
X177120343Y-142922283D01*
X177119283Y-142922896D01*
X176826631Y-143072007D01*
X176825512Y-143072505D01*
X176518886Y-143190206D01*
X176517721Y-143190584D01*
X176200480Y-143275586D01*
X176199282Y-143275841D01*
X175874883Y-143327218D01*
X175873665Y-143327346D01*
X175545369Y-143344548D01*
X175544757Y-143344564D01*
X92995371Y-143344564D01*
X92994759Y-143344548D01*
X92666468Y-143327339D01*
X92665250Y-143327211D01*
X92340857Y-143275828D01*
X92339659Y-143275573D01*
X92049286Y-143197764D01*
X92022424Y-143190566D01*
X92021260Y-143190189D01*
X91714639Y-143072484D01*
X91713520Y-143071986D01*
X91420875Y-142922872D01*
X91419815Y-142922259D01*
X91359207Y-142882899D01*
X91144379Y-142743384D01*
X91143396Y-142742671D01*
X90888144Y-142535967D01*
X90887234Y-142535147D01*
X90655004Y-142302912D01*
X90654184Y-142302002D01*
X90447495Y-142046756D01*
X90446776Y-142045765D01*
X90267900Y-141770315D01*
X90267293Y-141769266D01*
X90118182Y-141476611D01*
X90117686Y-141475495D01*
X89999989Y-141168872D01*
X89999611Y-141167707D01*
X89916109Y-140856059D01*
X89914609Y-140850462D01*
X89914357Y-140849281D01*
X89862978Y-140524862D01*
X89862853Y-140523665D01*
X89855343Y-140380333D01*
X91229500Y-140380333D01*
X91229500Y-140619666D01*
X91266937Y-140856043D01*
X91266941Y-140856059D01*
X91340893Y-141083661D01*
X91340895Y-141083665D01*
X91340897Y-141083670D01*
X91384028Y-141168318D01*
X91449555Y-141296922D01*
X91590219Y-141490529D01*
X91590223Y-141490533D01*
X91590227Y-141490539D01*
X91759461Y-141659773D01*
X91759466Y-141659777D01*
X91759470Y-141659780D01*
X91953077Y-141800444D01*
X91953082Y-141800446D01*
X91953084Y-141800448D01*
X92166330Y-141909103D01*
X92166335Y-141909104D01*
X92166338Y-141909106D01*
X92263141Y-141940559D01*
X92393949Y-141983061D01*
X92490143Y-141998296D01*
X92630333Y-142020500D01*
X92630334Y-142020500D01*
X92869666Y-142020500D01*
X93106051Y-141983061D01*
X93333670Y-141909103D01*
X93546916Y-141800448D01*
X93740539Y-141659773D01*
X93909773Y-141490539D01*
X94050448Y-141296916D01*
X94159103Y-141083670D01*
X94233061Y-140856051D01*
X94270500Y-140619666D01*
X94270500Y-140380334D01*
X94233061Y-140143949D01*
X94159103Y-139916330D01*
X94050448Y-139703084D01*
X94050446Y-139703082D01*
X94050444Y-139703077D01*
X93909780Y-139509470D01*
X93909777Y-139509466D01*
X93909773Y-139509461D01*
X93740539Y-139340227D01*
X93740533Y-139340223D01*
X93740529Y-139340219D01*
X93546922Y-139199555D01*
X93526762Y-139189283D01*
X93333670Y-139090897D01*
X93333667Y-139090896D01*
X93333665Y-139090895D01*
X93333661Y-139090893D01*
X93106059Y-139016941D01*
X93106043Y-139016937D01*
X92869667Y-138979500D01*
X92869666Y-138979500D01*
X92630334Y-138979500D01*
X92630333Y-138979500D01*
X92393956Y-139016937D01*
X92393940Y-139016941D01*
X92166338Y-139090893D01*
X92166334Y-139090895D01*
X91953077Y-139199555D01*
X91759470Y-139340219D01*
X91759454Y-139340233D01*
X91590233Y-139509454D01*
X91590219Y-139509470D01*
X91449555Y-139703077D01*
X91340895Y-139916334D01*
X91340893Y-139916338D01*
X91266941Y-140143940D01*
X91266937Y-140143956D01*
X91229500Y-140380333D01*
X89855343Y-140380333D01*
X89846193Y-140205697D01*
X89845580Y-140193990D01*
X89845564Y-140193378D01*
X89845564Y-97745370D01*
X89845580Y-97744758D01*
X89854356Y-97577331D01*
X89862789Y-97416447D01*
X89862914Y-97415265D01*
X89914300Y-97090839D01*
X89914550Y-97089665D01*
X89999564Y-96772403D01*
X89999938Y-96771251D01*
X90067005Y-96596538D01*
X90117645Y-96464616D01*
X90118134Y-96463518D01*
X90267265Y-96170839D01*
X90267857Y-96169813D01*
X90446749Y-95894345D01*
X90447443Y-95893388D01*
X90654165Y-95638109D01*
X90654966Y-95637220D01*
X90887220Y-95404966D01*
X90888109Y-95404165D01*
X91143388Y-95197443D01*
X91144345Y-95196749D01*
X91419813Y-95017857D01*
X91420847Y-95017260D01*
X91713518Y-94868134D01*
X91714616Y-94867645D01*
X92021251Y-94749937D01*
X92022416Y-94749560D01*
X92022483Y-94749542D01*
X92339665Y-94664550D01*
X92340839Y-94664300D01*
X92665265Y-94612914D01*
X92666447Y-94612789D01*
X92992508Y-94595698D01*
X92994759Y-94595580D01*
X92995371Y-94595564D01*
X93003350Y-94595564D01*
X94008239Y-94595564D01*
X94010004Y-94595697D01*
X94275555Y-94636242D01*
X94278029Y-94637309D01*
X94278116Y-94637073D01*
X94279856Y-94637704D01*
X94279857Y-94637705D01*
X94285948Y-94637910D01*
X94287300Y-94638035D01*
X94295592Y-94639302D01*
X94295593Y-94639301D01*
X94297792Y-94638760D01*
X94300988Y-94638427D01*
X94385490Y-94641339D01*
X94578280Y-94613290D01*
X94763038Y-94551490D01*
X94933905Y-94457900D01*
X95085463Y-94335486D01*
X95176866Y-94229799D01*
X95184869Y-94225784D01*
X95193368Y-94228603D01*
X95196524Y-94232976D01*
X95225459Y-94302832D01*
X95225463Y-94302838D01*
X95225464Y-94302841D01*
X95321718Y-94428282D01*
X95447159Y-94524536D01*
X95447163Y-94524537D01*
X95447167Y-94524540D01*
X95562150Y-94572167D01*
X95593238Y-94585044D01*
X95750000Y-94605682D01*
X95906762Y-94585044D01*
X96007633Y-94543262D01*
X96052832Y-94524540D01*
X96052833Y-94524539D01*
X96052841Y-94524536D01*
X96117878Y-94474630D01*
X96126527Y-94472313D01*
X96132120Y-94474630D01*
X96197159Y-94524536D01*
X96197163Y-94524537D01*
X96197167Y-94524540D01*
X96312150Y-94572167D01*
X96343238Y-94585044D01*
X96500000Y-94605682D01*
X96656762Y-94585044D01*
X96757633Y-94543262D01*
X96802832Y-94524540D01*
X96802833Y-94524539D01*
X96802841Y-94524536D01*
X96867878Y-94474630D01*
X96876527Y-94472313D01*
X96882120Y-94474630D01*
X96947159Y-94524536D01*
X96947163Y-94524537D01*
X96947167Y-94524540D01*
X97062150Y-94572167D01*
X97093238Y-94585044D01*
X97250000Y-94605682D01*
X97406762Y-94585044D01*
X97507633Y-94543262D01*
X97552832Y-94524540D01*
X97552833Y-94524539D01*
X97552841Y-94524536D01*
X97617878Y-94474630D01*
X97626527Y-94472313D01*
X97632120Y-94474630D01*
X97697159Y-94524536D01*
X97697163Y-94524537D01*
X97697167Y-94524540D01*
X97812150Y-94572167D01*
X97843238Y-94585044D01*
X98000000Y-94605682D01*
X98156762Y-94585044D01*
X98257633Y-94543262D01*
X98302832Y-94524540D01*
X98302833Y-94524539D01*
X98302841Y-94524536D01*
X98428282Y-94428282D01*
X98524536Y-94302841D01*
X98585044Y-94156762D01*
X98605682Y-94000000D01*
X98585044Y-93843238D01*
X98559195Y-93780833D01*
X98524540Y-93697167D01*
X98524537Y-93697163D01*
X98524536Y-93697159D01*
X98428282Y-93571718D01*
X98302841Y-93475464D01*
X98302838Y-93475463D01*
X98302832Y-93475459D01*
X98156768Y-93414958D01*
X98156759Y-93414955D01*
X98000000Y-93394318D01*
X97843240Y-93414955D01*
X97843231Y-93414958D01*
X97697167Y-93475459D01*
X97697153Y-93475468D01*
X97632122Y-93525368D01*
X97623473Y-93527686D01*
X97617878Y-93525368D01*
X97552846Y-93475468D01*
X97552847Y-93475468D01*
X97552841Y-93475464D01*
X97552837Y-93475462D01*
X97552832Y-93475459D01*
X97406768Y-93414958D01*
X97406759Y-93414955D01*
X97250000Y-93394318D01*
X97093240Y-93414955D01*
X97093231Y-93414958D01*
X96947167Y-93475459D01*
X96947153Y-93475468D01*
X96882122Y-93525368D01*
X96873473Y-93527686D01*
X96867878Y-93525368D01*
X96802846Y-93475468D01*
X96802847Y-93475468D01*
X96802841Y-93475464D01*
X96802837Y-93475462D01*
X96802832Y-93475459D01*
X96656768Y-93414958D01*
X96656759Y-93414955D01*
X96500000Y-93394318D01*
X96343240Y-93414955D01*
X96343231Y-93414958D01*
X96197167Y-93475459D01*
X96197153Y-93475468D01*
X96132122Y-93525368D01*
X96123473Y-93527686D01*
X96117878Y-93525368D01*
X96052846Y-93475468D01*
X96052847Y-93475468D01*
X96052841Y-93475464D01*
X96052837Y-93475462D01*
X96052832Y-93475459D01*
X95906768Y-93414958D01*
X95906759Y-93414955D01*
X95750000Y-93394318D01*
X95593240Y-93414955D01*
X95593231Y-93414958D01*
X95447167Y-93475459D01*
X95447157Y-93475465D01*
X95433475Y-93485963D01*
X95424825Y-93488280D01*
X95417070Y-93483802D01*
X95414653Y-93476683D01*
X95414649Y-93451376D01*
X95414562Y-93450896D01*
X95408078Y-93414958D01*
X95380055Y-93259652D01*
X95314510Y-93083822D01*
X95312006Y-93077105D01*
X95310758Y-93075000D01*
X95287575Y-93035896D01*
X95286304Y-93027034D01*
X95291673Y-93019867D01*
X95300537Y-93018595D01*
X95303490Y-93019799D01*
X95340405Y-93041113D01*
X95340409Y-93041115D01*
X95396829Y-93056232D01*
X95429549Y-93064999D01*
X95429551Y-93065000D01*
X95429552Y-93065000D01*
X95521841Y-93065000D01*
X95521841Y-93064999D01*
X95573660Y-93051115D01*
X95610982Y-93041115D01*
X95610986Y-93041113D01*
X95673584Y-93004971D01*
X95690908Y-92994969D01*
X95756165Y-92929712D01*
X95772678Y-92901110D01*
X95779781Y-92895661D01*
X95788659Y-92896829D01*
X95792939Y-92901109D01*
X95815227Y-92939712D01*
X95880484Y-93004969D01*
X95880485Y-93004970D01*
X95880487Y-93004971D01*
X95960405Y-93051113D01*
X95960409Y-93051115D01*
X96012231Y-93065000D01*
X96049549Y-93074999D01*
X96049551Y-93075000D01*
X96049552Y-93075000D01*
X96141841Y-93075000D01*
X96141841Y-93074999D01*
X96186412Y-93063057D01*
X96230982Y-93051115D01*
X96230986Y-93051113D01*
X96272691Y-93027034D01*
X96310908Y-93004969D01*
X96376165Y-92939712D01*
X96394725Y-92907563D01*
X96401829Y-92902114D01*
X96410707Y-92903282D01*
X96414989Y-92907565D01*
X96433547Y-92939708D01*
X96433549Y-92939711D01*
X96433550Y-92939712D01*
X96498807Y-93004969D01*
X96498808Y-93004970D01*
X96498810Y-93004971D01*
X96578728Y-93051113D01*
X96578732Y-93051115D01*
X96630554Y-93065000D01*
X96667872Y-93074999D01*
X96667874Y-93075000D01*
X96667875Y-93075000D01*
X96760164Y-93075000D01*
X96760164Y-93074999D01*
X96804735Y-93063057D01*
X96849305Y-93051115D01*
X96849309Y-93051113D01*
X96891014Y-93027034D01*
X96929231Y-93004969D01*
X96994488Y-92939712D01*
X97013048Y-92907563D01*
X97020152Y-92902114D01*
X97029030Y-92903282D01*
X97033312Y-92907565D01*
X97051870Y-92939708D01*
X97051872Y-92939711D01*
X97051873Y-92939712D01*
X97117130Y-93004969D01*
X97117131Y-93004970D01*
X97117133Y-93004971D01*
X97197051Y-93051113D01*
X97197055Y-93051115D01*
X97248877Y-93065000D01*
X97286195Y-93074999D01*
X97286197Y-93075000D01*
X97286198Y-93075000D01*
X97378487Y-93075000D01*
X97378487Y-93074999D01*
X97423058Y-93063057D01*
X97467628Y-93051115D01*
X97467632Y-93051113D01*
X97509337Y-93027034D01*
X97547554Y-93004969D01*
X97612811Y-92939712D01*
X97631371Y-92907563D01*
X97638475Y-92902114D01*
X97647353Y-92903282D01*
X97651635Y-92907565D01*
X97670193Y-92939708D01*
X97670195Y-92939711D01*
X97670196Y-92939712D01*
X97735453Y-93004969D01*
X97735454Y-93004970D01*
X97735456Y-93004971D01*
X97815374Y-93051113D01*
X97815378Y-93051115D01*
X97867200Y-93065000D01*
X97904518Y-93074999D01*
X97904520Y-93075000D01*
X97904521Y-93075000D01*
X97996810Y-93075000D01*
X97996810Y-93074999D01*
X98041381Y-93063057D01*
X98085951Y-93051115D01*
X98085955Y-93051113D01*
X98127660Y-93027034D01*
X98165877Y-93004969D01*
X98231134Y-92939712D01*
X98243701Y-92917944D01*
X98250803Y-92912495D01*
X98259682Y-92913663D01*
X98263964Y-92917946D01*
X98276528Y-92939708D01*
X98276530Y-92939711D01*
X98276531Y-92939712D01*
X98341788Y-93004969D01*
X98341789Y-93004970D01*
X98341791Y-93004971D01*
X98421709Y-93051113D01*
X98421713Y-93051115D01*
X98473535Y-93065000D01*
X98510853Y-93074999D01*
X98510855Y-93075000D01*
X98510856Y-93075000D01*
X98603145Y-93075000D01*
X98603145Y-93074999D01*
X98647716Y-93063057D01*
X98692286Y-93051115D01*
X98692288Y-93051114D01*
X98706215Y-93043072D01*
X98715091Y-93041903D01*
X98722196Y-93047354D01*
X98723366Y-93056232D01*
X98722130Y-93059169D01*
X98709876Y-93079851D01*
X98641878Y-93262392D01*
X98637832Y-93284847D01*
X98607331Y-93454102D01*
X98607331Y-93648898D01*
X98631107Y-93780833D01*
X98641878Y-93840607D01*
X98709876Y-94023148D01*
X98789045Y-94156768D01*
X98809172Y-94190738D01*
X98936614Y-94338061D01*
X99088164Y-94460446D01*
X99259017Y-94554014D01*
X99443755Y-94615799D01*
X99551963Y-94631539D01*
X99636512Y-94643839D01*
X99636515Y-94643839D01*
X99636522Y-94643840D01*
X99733231Y-94640505D01*
X99733633Y-94640499D01*
X127610434Y-94644999D01*
X127610723Y-94645005D01*
X127707478Y-94648340D01*
X127707485Y-94648339D01*
X127707487Y-94648339D01*
X127773335Y-94638760D01*
X127900245Y-94620299D01*
X128084983Y-94558514D01*
X128255836Y-94464946D01*
X128407386Y-94342561D01*
X128534828Y-94195238D01*
X128634123Y-94027649D01*
X128702122Y-93845106D01*
X128736669Y-93653398D01*
X128736669Y-93458602D01*
X128735858Y-93454102D01*
X137691331Y-93454102D01*
X137691331Y-93648898D01*
X137715107Y-93780833D01*
X137725878Y-93840607D01*
X137793876Y-94023148D01*
X137873045Y-94156768D01*
X137893172Y-94190738D01*
X138020614Y-94338061D01*
X138172164Y-94460446D01*
X138343017Y-94554014D01*
X138527755Y-94615799D01*
X138635963Y-94631539D01*
X138720512Y-94643839D01*
X138720515Y-94643839D01*
X138720522Y-94643840D01*
X138817282Y-94640504D01*
X138817571Y-94640498D01*
X168830373Y-94635000D01*
X168830774Y-94635006D01*
X168927478Y-94638340D01*
X168927485Y-94638339D01*
X168927487Y-94638339D01*
X168984984Y-94629974D01*
X169120245Y-94610299D01*
X169304983Y-94548514D01*
X169475836Y-94454946D01*
X169627386Y-94332561D01*
X169634468Y-94324373D01*
X169642471Y-94320359D01*
X169650970Y-94323179D01*
X169654916Y-94330501D01*
X169664955Y-94406759D01*
X169664958Y-94406768D01*
X169725459Y-94552832D01*
X169725463Y-94552838D01*
X169725464Y-94552841D01*
X169821718Y-94678282D01*
X169947159Y-94774536D01*
X169947163Y-94774537D01*
X169947167Y-94774540D01*
X170074573Y-94827312D01*
X170093238Y-94835044D01*
X170250000Y-94855682D01*
X170406762Y-94835044D01*
X170502322Y-94795461D01*
X170552832Y-94774540D01*
X170552833Y-94774539D01*
X170552841Y-94774536D01*
X170617878Y-94724630D01*
X170626527Y-94722313D01*
X170632120Y-94724630D01*
X170697159Y-94774536D01*
X170697163Y-94774537D01*
X170697167Y-94774540D01*
X170824573Y-94827312D01*
X170843238Y-94835044D01*
X171000000Y-94855682D01*
X171156762Y-94835044D01*
X171252322Y-94795461D01*
X171302832Y-94774540D01*
X171302833Y-94774539D01*
X171302841Y-94774536D01*
X171367878Y-94724630D01*
X171376527Y-94722313D01*
X171382120Y-94724630D01*
X171447159Y-94774536D01*
X171447163Y-94774537D01*
X171447167Y-94774540D01*
X171574573Y-94827312D01*
X171593238Y-94835044D01*
X171750000Y-94855682D01*
X171906762Y-94835044D01*
X172002322Y-94795461D01*
X172052832Y-94774540D01*
X172052833Y-94774539D01*
X172052841Y-94774536D01*
X172117878Y-94724630D01*
X172126527Y-94722313D01*
X172132120Y-94724630D01*
X172197159Y-94774536D01*
X172197163Y-94774537D01*
X172197167Y-94774540D01*
X172324573Y-94827312D01*
X172343238Y-94835044D01*
X172500000Y-94855682D01*
X172656762Y-94835044D01*
X172752322Y-94795461D01*
X172802832Y-94774540D01*
X172802833Y-94774539D01*
X172802841Y-94774536D01*
X172928282Y-94678282D01*
X173024536Y-94552841D01*
X173026329Y-94548514D01*
X173065085Y-94454947D01*
X173085044Y-94406762D01*
X173105682Y-94250000D01*
X173085044Y-94093238D01*
X173057876Y-94027648D01*
X173024540Y-93947167D01*
X173024537Y-93947163D01*
X173024536Y-93947159D01*
X172928282Y-93821718D01*
X172802841Y-93725464D01*
X172802838Y-93725463D01*
X172802832Y-93725459D01*
X172656768Y-93664958D01*
X172656759Y-93664955D01*
X172500000Y-93644318D01*
X172343240Y-93664955D01*
X172343231Y-93664958D01*
X172197167Y-93725459D01*
X172197153Y-93725468D01*
X172132122Y-93775368D01*
X172123473Y-93777686D01*
X172117878Y-93775368D01*
X172052846Y-93725468D01*
X172052847Y-93725468D01*
X172052841Y-93725464D01*
X172052837Y-93725462D01*
X172052832Y-93725459D01*
X171906768Y-93664958D01*
X171906759Y-93664955D01*
X171750000Y-93644318D01*
X171593240Y-93664955D01*
X171593231Y-93664958D01*
X171447167Y-93725459D01*
X171447153Y-93725468D01*
X171382122Y-93775368D01*
X171373473Y-93777686D01*
X171367878Y-93775368D01*
X171302846Y-93725468D01*
X171302847Y-93725468D01*
X171302841Y-93725464D01*
X171302837Y-93725462D01*
X171302832Y-93725459D01*
X171156768Y-93664958D01*
X171156759Y-93664955D01*
X171000000Y-93644318D01*
X170843240Y-93664955D01*
X170843231Y-93664958D01*
X170697167Y-93725459D01*
X170697153Y-93725468D01*
X170632122Y-93775368D01*
X170623473Y-93777686D01*
X170617878Y-93775368D01*
X170552846Y-93725468D01*
X170552847Y-93725468D01*
X170552841Y-93725464D01*
X170552837Y-93725462D01*
X170552832Y-93725459D01*
X170406768Y-93664958D01*
X170406759Y-93664955D01*
X170250000Y-93644318D01*
X170093240Y-93664955D01*
X170093231Y-93664958D01*
X169961245Y-93719628D01*
X169952291Y-93719628D01*
X169945959Y-93713296D01*
X169945253Y-93706744D01*
X169946979Y-93697167D01*
X169956669Y-93643398D01*
X169956669Y-93448602D01*
X169927159Y-93284846D01*
X169929065Y-93276097D01*
X169936599Y-93271257D01*
X169945349Y-93273163D01*
X169945779Y-93273477D01*
X169947159Y-93274536D01*
X169947161Y-93274537D01*
X169947167Y-93274540D01*
X170074573Y-93327312D01*
X170093238Y-93335044D01*
X170250000Y-93355682D01*
X170406762Y-93335044D01*
X170527948Y-93284847D01*
X170552832Y-93274540D01*
X170552833Y-93274539D01*
X170552841Y-93274536D01*
X170617878Y-93224630D01*
X170626527Y-93222313D01*
X170632120Y-93224630D01*
X170697159Y-93274536D01*
X170697163Y-93274537D01*
X170697167Y-93274540D01*
X170824573Y-93327312D01*
X170843238Y-93335044D01*
X171000000Y-93355682D01*
X171156762Y-93335044D01*
X171277948Y-93284847D01*
X171302832Y-93274540D01*
X171302833Y-93274539D01*
X171302841Y-93274536D01*
X171367878Y-93224630D01*
X171376527Y-93222313D01*
X171382120Y-93224630D01*
X171447159Y-93274536D01*
X171447163Y-93274537D01*
X171447167Y-93274540D01*
X171574573Y-93327312D01*
X171593238Y-93335044D01*
X171750000Y-93355682D01*
X171906762Y-93335044D01*
X172027948Y-93284847D01*
X172052832Y-93274540D01*
X172052833Y-93274539D01*
X172052841Y-93274536D01*
X172117878Y-93224630D01*
X172126527Y-93222313D01*
X172132120Y-93224630D01*
X172197159Y-93274536D01*
X172197163Y-93274537D01*
X172197167Y-93274540D01*
X172324573Y-93327312D01*
X172343238Y-93335044D01*
X172500000Y-93355682D01*
X172656762Y-93335044D01*
X172777948Y-93284847D01*
X172802832Y-93274540D01*
X172802833Y-93274539D01*
X172802841Y-93274536D01*
X172928282Y-93178282D01*
X173024536Y-93052841D01*
X173025252Y-93051114D01*
X173071395Y-92939713D01*
X173085044Y-92906762D01*
X173105682Y-92750000D01*
X173085044Y-92593238D01*
X173065360Y-92545716D01*
X173024540Y-92447167D01*
X173024537Y-92447163D01*
X173024536Y-92447159D01*
X172928282Y-92321718D01*
X172802841Y-92225464D01*
X172802838Y-92225463D01*
X172802832Y-92225459D01*
X172656768Y-92164958D01*
X172656759Y-92164955D01*
X172500000Y-92144318D01*
X172343240Y-92164955D01*
X172343231Y-92164958D01*
X172197167Y-92225459D01*
X172197153Y-92225468D01*
X172132122Y-92275368D01*
X172123473Y-92277686D01*
X172117878Y-92275368D01*
X172052846Y-92225468D01*
X172052847Y-92225468D01*
X172052841Y-92225464D01*
X172052837Y-92225462D01*
X172052832Y-92225459D01*
X171906768Y-92164958D01*
X171906759Y-92164955D01*
X171750000Y-92144318D01*
X171593240Y-92164955D01*
X171593231Y-92164958D01*
X171447167Y-92225459D01*
X171447153Y-92225468D01*
X171382122Y-92275368D01*
X171373473Y-92277686D01*
X171367878Y-92275368D01*
X171302846Y-92225468D01*
X171302847Y-92225468D01*
X171302841Y-92225464D01*
X171302837Y-92225462D01*
X171302832Y-92225459D01*
X171156768Y-92164958D01*
X171156759Y-92164955D01*
X171000000Y-92144318D01*
X170843240Y-92164955D01*
X170843231Y-92164958D01*
X170697167Y-92225459D01*
X170697153Y-92225468D01*
X170632122Y-92275368D01*
X170623473Y-92277686D01*
X170617878Y-92275368D01*
X170552846Y-92225468D01*
X170552847Y-92225468D01*
X170552841Y-92225464D01*
X170552837Y-92225462D01*
X170552832Y-92225459D01*
X170406768Y-92164958D01*
X170406759Y-92164955D01*
X170250000Y-92144318D01*
X170093240Y-92164955D01*
X170093231Y-92164958D01*
X169947167Y-92225459D01*
X169947157Y-92225465D01*
X169821718Y-92321718D01*
X169725465Y-92447157D01*
X169725459Y-92447167D01*
X169664958Y-92593231D01*
X169664955Y-92593240D01*
X169644290Y-92750210D01*
X169639812Y-92757965D01*
X169631163Y-92760283D01*
X169625339Y-92757786D01*
X169526979Y-92678355D01*
X169475836Y-92637054D01*
X169475834Y-92637053D01*
X169475833Y-92637052D01*
X169304985Y-92543487D01*
X169304984Y-92543486D01*
X169304983Y-92543486D01*
X169120245Y-92481701D01*
X169120241Y-92481700D01*
X169120240Y-92481700D01*
X168927487Y-92453660D01*
X168927476Y-92453660D01*
X168830773Y-92456993D01*
X168830372Y-92457000D01*
X138817627Y-92462498D01*
X138817222Y-92462491D01*
X138720523Y-92459160D01*
X138720512Y-92459160D01*
X138527759Y-92487200D01*
X138527756Y-92487200D01*
X138527755Y-92487201D01*
X138376206Y-92537886D01*
X138343014Y-92548987D01*
X138172166Y-92642552D01*
X138020618Y-92764935D01*
X138020616Y-92764937D01*
X138020614Y-92764939D01*
X137956893Y-92838600D01*
X137893170Y-92912264D01*
X137793876Y-93079851D01*
X137725878Y-93262392D01*
X137721832Y-93284847D01*
X137691331Y-93454102D01*
X128735858Y-93454102D01*
X128702122Y-93266894D01*
X128634123Y-93084351D01*
X128534828Y-92916762D01*
X128407386Y-92769439D01*
X128255836Y-92647054D01*
X128255834Y-92647053D01*
X128255833Y-92647052D01*
X128084985Y-92553487D01*
X128084984Y-92553486D01*
X128084983Y-92553486D01*
X127900245Y-92491701D01*
X127900241Y-92491700D01*
X127900240Y-92491700D01*
X127707487Y-92463660D01*
X127707476Y-92463660D01*
X127610769Y-92466992D01*
X127610364Y-92466999D01*
X99733619Y-92462499D01*
X99733218Y-92462492D01*
X99636523Y-92459160D01*
X99636512Y-92459160D01*
X99443759Y-92487200D01*
X99443756Y-92487200D01*
X99443755Y-92487201D01*
X99292206Y-92537886D01*
X99259014Y-92548987D01*
X99088166Y-92642552D01*
X98936618Y-92764935D01*
X98936610Y-92764943D01*
X98928048Y-92774840D01*
X98920044Y-92778855D01*
X98911545Y-92776033D01*
X98907530Y-92768029D01*
X98907500Y-92767185D01*
X98907500Y-92678355D01*
X98907499Y-92678353D01*
X98904820Y-92668356D01*
X98897907Y-92642554D01*
X98883615Y-92589213D01*
X98883613Y-92589209D01*
X98837471Y-92509291D01*
X98837467Y-92509286D01*
X98772213Y-92444032D01*
X98772208Y-92444028D01*
X98692290Y-92397886D01*
X98692286Y-92397884D01*
X98603146Y-92374000D01*
X98603144Y-92374000D01*
X98510856Y-92374000D01*
X98510853Y-92374000D01*
X98421713Y-92397884D01*
X98421709Y-92397886D01*
X98341791Y-92444028D01*
X98341786Y-92444032D01*
X98276532Y-92509286D01*
X98276528Y-92509292D01*
X98263964Y-92531053D01*
X98256860Y-92536504D01*
X98247982Y-92535335D01*
X98243701Y-92531055D01*
X98231134Y-92509288D01*
X98165877Y-92444031D01*
X98165876Y-92444030D01*
X98165873Y-92444028D01*
X98085955Y-92397886D01*
X98085951Y-92397884D01*
X97996811Y-92374000D01*
X97996809Y-92374000D01*
X97904521Y-92374000D01*
X97904518Y-92374000D01*
X97815378Y-92397884D01*
X97815374Y-92397886D01*
X97735456Y-92444028D01*
X97735451Y-92444032D01*
X97670197Y-92509286D01*
X97670193Y-92509292D01*
X97651635Y-92541434D01*
X97644531Y-92546885D01*
X97635653Y-92545716D01*
X97631371Y-92541434D01*
X97612813Y-92509291D01*
X97612809Y-92509286D01*
X97547555Y-92444032D01*
X97547550Y-92444028D01*
X97467632Y-92397886D01*
X97467628Y-92397884D01*
X97378488Y-92374000D01*
X97378486Y-92374000D01*
X97286198Y-92374000D01*
X97286195Y-92374000D01*
X97197055Y-92397884D01*
X97197051Y-92397886D01*
X97117133Y-92444028D01*
X97117128Y-92444032D01*
X97051874Y-92509286D01*
X97051870Y-92509292D01*
X97033312Y-92541434D01*
X97026208Y-92546885D01*
X97017330Y-92545716D01*
X97013048Y-92541434D01*
X96994490Y-92509291D01*
X96994486Y-92509286D01*
X96929232Y-92444032D01*
X96929227Y-92444028D01*
X96849309Y-92397886D01*
X96849305Y-92397884D01*
X96760165Y-92374000D01*
X96760163Y-92374000D01*
X96667875Y-92374000D01*
X96667872Y-92374000D01*
X96578732Y-92397884D01*
X96578728Y-92397886D01*
X96498810Y-92444028D01*
X96498805Y-92444032D01*
X96433551Y-92509286D01*
X96433547Y-92509292D01*
X96414989Y-92541434D01*
X96407885Y-92546885D01*
X96399007Y-92545716D01*
X96394725Y-92541434D01*
X96376167Y-92509291D01*
X96376163Y-92509286D01*
X96310909Y-92444032D01*
X96310904Y-92444028D01*
X96230986Y-92397886D01*
X96230982Y-92397884D01*
X96141842Y-92374000D01*
X96141840Y-92374000D01*
X96049552Y-92374000D01*
X96049549Y-92374000D01*
X95960409Y-92397884D01*
X95960405Y-92397886D01*
X95880487Y-92444028D01*
X95880482Y-92444032D01*
X95815228Y-92509286D01*
X95815224Y-92509292D01*
X95798714Y-92537886D01*
X95791610Y-92543337D01*
X95782732Y-92542168D01*
X95778450Y-92537886D01*
X95756167Y-92499291D01*
X95756163Y-92499286D01*
X95690909Y-92434032D01*
X95690904Y-92434028D01*
X95610986Y-92387886D01*
X95610982Y-92387884D01*
X95521842Y-92364000D01*
X95521840Y-92364000D01*
X95429552Y-92364000D01*
X95429549Y-92364000D01*
X95340409Y-92387884D01*
X95340405Y-92387886D01*
X95260487Y-92434028D01*
X95260482Y-92434032D01*
X95195228Y-92499286D01*
X95195224Y-92499291D01*
X95149082Y-92579209D01*
X95149080Y-92579213D01*
X95125196Y-92668353D01*
X95125196Y-92760646D01*
X95130578Y-92780733D01*
X95129409Y-92789611D01*
X95122305Y-92795062D01*
X95113427Y-92793893D01*
X95110432Y-92791420D01*
X95085154Y-92762215D01*
X94981243Y-92678353D01*
X94933552Y-92639864D01*
X94933551Y-92639863D01*
X94933548Y-92639861D01*
X94762644Y-92546337D01*
X94762640Y-92546335D01*
X94762639Y-92546335D01*
X94577866Y-92484610D01*
X94385060Y-92456637D01*
X94288721Y-92459993D01*
X94288333Y-92460000D01*
X92710320Y-92462499D01*
X92709689Y-92462483D01*
X92381400Y-92445279D01*
X92380182Y-92445151D01*
X92055784Y-92393771D01*
X92054586Y-92393516D01*
X91737348Y-92308511D01*
X91736183Y-92308133D01*
X91429557Y-92190431D01*
X91428438Y-92189933D01*
X91135788Y-92040821D01*
X91134728Y-92040208D01*
X90859290Y-91861337D01*
X90858303Y-91860621D01*
X90603046Y-91653918D01*
X90602136Y-91653098D01*
X90369901Y-91420863D01*
X90369081Y-91419953D01*
X90296161Y-91329904D01*
X90162375Y-91164692D01*
X90161668Y-91163717D01*
X89982788Y-90888266D01*
X89982178Y-90887211D01*
X89833066Y-90594561D01*
X89832568Y-90593442D01*
X89714866Y-90286816D01*
X89714488Y-90285651D01*
X89629483Y-89968413D01*
X89629228Y-89967215D01*
X89577846Y-89642801D01*
X89577721Y-89641615D01*
X89560516Y-89313305D01*
X89560500Y-89312693D01*
X89560500Y-60499999D01*
X147094508Y-60499999D01*
X147094508Y-60500000D01*
X147114353Y-60625302D01*
X147114353Y-60625303D01*
X147114354Y-60625304D01*
X147171950Y-60738342D01*
X147261658Y-60828050D01*
X147374696Y-60885646D01*
X147500000Y-60905492D01*
X147625304Y-60885646D01*
X147738342Y-60828050D01*
X147828050Y-60738342D01*
X147885646Y-60625304D01*
X147905492Y-60500000D01*
X148994353Y-60500000D01*
X149014834Y-60642455D01*
X149021367Y-60656759D01*
X149074623Y-60773373D01*
X149168872Y-60882143D01*
X149289947Y-60959953D01*
X149396694Y-60991296D01*
X149428038Y-61000500D01*
X149428039Y-61000500D01*
X149571961Y-61000500D01*
X149710053Y-60959953D01*
X149831128Y-60882143D01*
X149925377Y-60773373D01*
X149985165Y-60642457D01*
X150005647Y-60500000D01*
X150894318Y-60500000D01*
X150914955Y-60656759D01*
X150914958Y-60656768D01*
X150975459Y-60802832D01*
X150975463Y-60802838D01*
X150975464Y-60802841D01*
X151071718Y-60928282D01*
X151197159Y-61024536D01*
X151197163Y-61024537D01*
X151197167Y-61024540D01*
X151324573Y-61077312D01*
X151343238Y-61085044D01*
X151500000Y-61105682D01*
X151656762Y-61085044D01*
X151752322Y-61045461D01*
X151802832Y-61024540D01*
X151802833Y-61024539D01*
X151802841Y-61024536D01*
X151928282Y-60928282D01*
X152024536Y-60802841D01*
X152085044Y-60656762D01*
X152105682Y-60500000D01*
X152794355Y-60500000D01*
X152814860Y-60668874D01*
X152875180Y-60827927D01*
X152875184Y-60827933D01*
X152971813Y-60967924D01*
X152971814Y-60967925D01*
X152971817Y-60967929D01*
X153099148Y-61080734D01*
X153146680Y-61105681D01*
X153249774Y-61159790D01*
X153332359Y-61180145D01*
X153414944Y-61200500D01*
X153414945Y-61200500D01*
X153585055Y-61200500D01*
X153585056Y-61200500D01*
X153750225Y-61159790D01*
X153900852Y-61080734D01*
X154028183Y-60967929D01*
X154124818Y-60827930D01*
X154185140Y-60668872D01*
X154205645Y-60500000D01*
X154205645Y-60499996D01*
X154694435Y-60499996D01*
X154694435Y-60500003D01*
X154714631Y-60679252D01*
X154714631Y-60679253D01*
X154774209Y-60849518D01*
X154774210Y-60849520D01*
X154774211Y-60849522D01*
X154869077Y-61000500D01*
X154870187Y-61002266D01*
X154997733Y-61129812D01*
X154997735Y-61129813D01*
X154997738Y-61129816D01*
X155150478Y-61225789D01*
X155320745Y-61285368D01*
X155380496Y-61292100D01*
X155499996Y-61305565D01*
X155500000Y-61305565D01*
X155500004Y-61305565D01*
X155602431Y-61294023D01*
X155679255Y-61285368D01*
X155849522Y-61225789D01*
X156002262Y-61129816D01*
X156129816Y-61002262D01*
X156225789Y-60849522D01*
X156285368Y-60679255D01*
X156305565Y-60500000D01*
X156285368Y-60320745D01*
X156225789Y-60150478D01*
X156129816Y-59997738D01*
X156129813Y-59997735D01*
X156129812Y-59997733D01*
X156002266Y-59870187D01*
X156002263Y-59870185D01*
X156002262Y-59870184D01*
X155849522Y-59774211D01*
X155849520Y-59774210D01*
X155849518Y-59774209D01*
X155679252Y-59714631D01*
X155500004Y-59694435D01*
X155499996Y-59694435D01*
X155320747Y-59714631D01*
X155320746Y-59714631D01*
X155150481Y-59774209D01*
X154997733Y-59870187D01*
X154870187Y-59997733D01*
X154774209Y-60150481D01*
X154714631Y-60320746D01*
X154714631Y-60320747D01*
X154694435Y-60499996D01*
X154205645Y-60499996D01*
X154185140Y-60331128D01*
X154158794Y-60261658D01*
X154124819Y-60172072D01*
X154124815Y-60172066D01*
X154028186Y-60032075D01*
X154028185Y-60032074D01*
X154028183Y-60032071D01*
X153900852Y-59919266D01*
X153892638Y-59914955D01*
X153750225Y-59840209D01*
X153617715Y-59807549D01*
X153585056Y-59799500D01*
X153414944Y-59799500D01*
X153387676Y-59806220D01*
X153249774Y-59840209D01*
X153099149Y-59919265D01*
X153099148Y-59919266D01*
X152971817Y-60032071D01*
X152971816Y-60032072D01*
X152971813Y-60032075D01*
X152875184Y-60172066D01*
X152875180Y-60172072D01*
X152814860Y-60331125D01*
X152794355Y-60500000D01*
X152105682Y-60500000D01*
X152085044Y-60343238D01*
X152075728Y-60320747D01*
X152024540Y-60197167D01*
X152024537Y-60197163D01*
X152024536Y-60197159D01*
X151928282Y-60071718D01*
X151802841Y-59975464D01*
X151802838Y-59975463D01*
X151802832Y-59975459D01*
X151656768Y-59914958D01*
X151656759Y-59914955D01*
X151500000Y-59894318D01*
X151343240Y-59914955D01*
X151343231Y-59914958D01*
X151197167Y-59975459D01*
X151197157Y-59975465D01*
X151071718Y-60071718D01*
X150975465Y-60197157D01*
X150975459Y-60197167D01*
X150914958Y-60343231D01*
X150914955Y-60343240D01*
X150894318Y-60500000D01*
X150005647Y-60500000D01*
X149985165Y-60357543D01*
X149925377Y-60226627D01*
X149831128Y-60117857D01*
X149710053Y-60040047D01*
X149641007Y-60019773D01*
X149571962Y-59999500D01*
X149571961Y-59999500D01*
X149428039Y-59999500D01*
X149428038Y-59999500D01*
X149317111Y-60032071D01*
X149289947Y-60040047D01*
X149168872Y-60117857D01*
X149168870Y-60117858D01*
X149168870Y-60117859D01*
X149074622Y-60226628D01*
X149014834Y-60357544D01*
X148994353Y-60500000D01*
X147905492Y-60500000D01*
X147905491Y-60499996D01*
X147885646Y-60374697D01*
X147885646Y-60374696D01*
X147828050Y-60261658D01*
X147738342Y-60171950D01*
X147625304Y-60114354D01*
X147625303Y-60114353D01*
X147625302Y-60114353D01*
X147500000Y-60094508D01*
X147374697Y-60114353D01*
X147261657Y-60171950D01*
X147171950Y-60261657D01*
X147114353Y-60374697D01*
X147094508Y-60499999D01*
X89560500Y-60499999D01*
X89560500Y-46863306D01*
X89560516Y-46862694D01*
X89577721Y-46534382D01*
X89577846Y-46533200D01*
X89629230Y-46208772D01*
X89629480Y-46207598D01*
X89639599Y-46169833D01*
X174170000Y-46169833D01*
X174170000Y-46409166D01*
X174207437Y-46645543D01*
X174207441Y-46645559D01*
X174281393Y-46873161D01*
X174281395Y-46873165D01*
X174281397Y-46873170D01*
X174379783Y-47066262D01*
X174390055Y-47086422D01*
X174530719Y-47280029D01*
X174530723Y-47280033D01*
X174530727Y-47280039D01*
X174699961Y-47449273D01*
X174699966Y-47449277D01*
X174699970Y-47449280D01*
X174893577Y-47589944D01*
X174893582Y-47589946D01*
X174893584Y-47589948D01*
X175106830Y-47698603D01*
X175106835Y-47698604D01*
X175106838Y-47698606D01*
X175298261Y-47760803D01*
X175334449Y-47772561D01*
X175430643Y-47787796D01*
X175570833Y-47810000D01*
X175570834Y-47810000D01*
X175810166Y-47810000D01*
X176046551Y-47772561D01*
X176274170Y-47698603D01*
X176487416Y-47589948D01*
X176681039Y-47449273D01*
X176850273Y-47280039D01*
X176990948Y-47086416D01*
X177099603Y-46873170D01*
X177173561Y-46645551D01*
X177211000Y-46409166D01*
X177211000Y-46169834D01*
X177173561Y-45933449D01*
X177099603Y-45705830D01*
X176990948Y-45492584D01*
X176990946Y-45492582D01*
X176990944Y-45492577D01*
X176850280Y-45298970D01*
X176850277Y-45298966D01*
X176850273Y-45298961D01*
X176681039Y-45129727D01*
X176681033Y-45129723D01*
X176681029Y-45129719D01*
X176487422Y-44989055D01*
X176467262Y-44978783D01*
X176274170Y-44880397D01*
X176274167Y-44880396D01*
X176274165Y-44880395D01*
X176274161Y-44880393D01*
X176046559Y-44806441D01*
X176046543Y-44806437D01*
X175810167Y-44769000D01*
X175810166Y-44769000D01*
X175570834Y-44769000D01*
X175570833Y-44769000D01*
X175334456Y-44806437D01*
X175334440Y-44806441D01*
X175106838Y-44880393D01*
X175106834Y-44880395D01*
X174893577Y-44989055D01*
X174699970Y-45129719D01*
X174699954Y-45129733D01*
X174530733Y-45298954D01*
X174530719Y-45298970D01*
X174390055Y-45492577D01*
X174281395Y-45705834D01*
X174281393Y-45705838D01*
X174207441Y-45933440D01*
X174207437Y-45933456D01*
X174170000Y-46169833D01*
X89639599Y-46169833D01*
X89714488Y-45890347D01*
X89714866Y-45889183D01*
X89781932Y-45714469D01*
X89832572Y-45582546D01*
X89833061Y-45581448D01*
X89982185Y-45288775D01*
X89982782Y-45287741D01*
X90161674Y-45012272D01*
X90162368Y-45011315D01*
X90369090Y-44756035D01*
X90369891Y-44755146D01*
X90602146Y-44522891D01*
X90603035Y-44522090D01*
X90858315Y-44315368D01*
X90859272Y-44314674D01*
X91134741Y-44135782D01*
X91135775Y-44135185D01*
X91428448Y-43986061D01*
X91429546Y-43985572D01*
X91736183Y-43867865D01*
X91737348Y-43867488D01*
X92054598Y-43782480D01*
X92055772Y-43782230D01*
X92380200Y-43730846D01*
X92381382Y-43730721D01*
X92709695Y-43713516D01*
X92710307Y-43713500D01*
X92718285Y-43713500D01*
X175251715Y-43713500D01*
X175259693Y-43713500D01*
X175260305Y-43713516D01*
G37*
G04 #@! TD.AperFunction*
M02*
