G04 #@! TF.GenerationSoftware,KiCad,Pcbnew,8.0.2*
G04 #@! TF.CreationDate,2024-10-23T21:31:10+03:00*
G04 #@! TF.ProjectId,card_template,63617264-5f74-4656-9d70-6c6174652e6b,00*
G04 #@! TF.SameCoordinates,Original*
G04 #@! TF.FileFunction,Profile,NP*
%FSLAX46Y46*%
G04 Gerber Fmt 4.6, Leading zero omitted, Abs format (unit mm)*
G04 Created by KiCad (PCBNEW 8.0.2) date 2024-10-23 21:31:10*
%MOMM*%
%LPD*%
G01*
G04 APERTURE LIST*
G04 #@! TA.AperFunction,Profile*
%ADD10C,0.050000*%
G04 #@! TD*
G04 APERTURE END LIST*
D10*
X174244000Y-94615000D02*
G75*
G02*
X174244000Y-92488000I-36000J1063500D01*
G01*
X99733000Y-94615000D02*
G75*
G02*
X99733000Y-92488000I-36000J1063500D01*
G01*
X127611000Y-94619500D02*
X99733000Y-94615000D01*
X94289000Y-94612500D02*
X94011064Y-94570064D01*
X127611000Y-92492500D02*
G75*
G02*
X127611000Y-94619500I36000J-1063500D01*
G01*
X138817000Y-94615000D02*
G75*
G02*
X138817000Y-92488000I-36000J1063500D01*
G01*
X174244000Y-94615000D02*
X175545064Y-94570064D01*
X168831000Y-92482500D02*
G75*
G02*
X168831000Y-94609500I36000J-1063500D01*
G01*
X94288582Y-92485514D02*
G75*
G02*
X94289000Y-94612500I36418J-1063486D01*
G01*
X175260000Y-92488000D02*
X174244000Y-92488000D01*
X92710000Y-92488000D02*
X94289000Y-92485500D01*
X127611000Y-92492500D02*
X99733000Y-92488000D01*
X168831000Y-92482500D02*
X138817000Y-92488000D01*
X178435000Y-89313000D02*
G75*
G02*
X175260000Y-92488000I-3175000J0D01*
G01*
X92710000Y-92488000D02*
G75*
G02*
X89535000Y-89313000I0J3175000D01*
G01*
X89535000Y-46863000D02*
G75*
G02*
X92710000Y-43688000I3175000J0D01*
G01*
X175260000Y-43688000D02*
G75*
G02*
X178435000Y-46863000I0J-3175000D01*
G01*
X89535000Y-46863000D02*
X89535000Y-89313000D01*
X178435000Y-46863000D02*
X178435000Y-89313000D01*
X175260000Y-43688000D02*
X92710000Y-43688000D01*
X178720064Y-140195064D02*
X178720064Y-97745064D01*
X92995064Y-143370064D02*
G75*
G02*
X89820136Y-140195064I36J3174964D01*
G01*
X178720064Y-140195064D02*
G75*
G02*
X175545064Y-143370064I-3174964J-36D01*
G01*
X89820064Y-140195064D02*
X89820064Y-97745064D01*
X89820064Y-97745064D02*
G75*
G02*
X92995064Y-94570064I3175036J-36D01*
G01*
X138817000Y-94615000D02*
X168831000Y-94609500D01*
X92995064Y-94570064D02*
X94011064Y-94570064D01*
X175545064Y-94570064D02*
G75*
G02*
X178720136Y-97745064I36J-3175036D01*
G01*
X92995064Y-143370064D02*
X175545064Y-143370064D01*
M02*
